<svg width="500" height="500" viewBox="0 0 500 500" fill="none" xmlns="http://www.w3.org/2000/svg">
<g clip-path="url(#clip0_46_2)">
<path d="M500 0H0V500H500V0Z" fill="white"/>
<path d="M216.787 158.105C201.16 101.416 130.739 83.154 90.381 125.521C89.801 126.129 89.223 126.748 88.644 127.377C30.785 190.272 58.118 345.264 178.868 384.548C299.618 423.832 425.214 352.096 432.27 287.969C439.326 223.842 383.618 203.692 297.165 221.624C248.321 231.754 226.515 193.395 216.787 158.105Z" fill="#BBE2F2"/>
<path d="M317.235 167.801C301.079 170.431 296.602 184.745 309.076 194.899C313.199 198.255 319.087 201.044 327.475 202.435C359.429 207.736 376.386 193.598 363.577 175.268C355.672 163.955 333.245 165.195 317.235 167.801Z" fill="#BBE2F2"/>
<path d="M59.635 282.345C49.591 269.42 34.881 272.342 31.938 288.155C30.965 293.382 31.336 299.886 34.13 307.917C44.774 338.509 65.304 346.628 75.265 326.607C81.414 314.25 69.589 295.153 59.635 282.345Z" fill="#BBE2F2"/>
<path d="M443.658 295.421C442.17 303.212 448.603 308.731 455.893 305.728C458.302 304.736 460.733 302.823 462.895 299.459C471.131 286.646 466.96 275.656 455.492 276.784C448.414 277.481 445.133 287.7 443.658 295.421Z" fill="#BBE2F2"/>
<path d="M402.815 213.204C410.58 214.825 416.207 208.486 413.329 201.147C412.378 198.721 410.506 196.258 407.181 194.039C394.511 185.586 383.45 189.569 384.383 201.055C384.959 208.143 395.12 211.598 402.815 213.204Z" fill="#BBE2F2"/>
<path d="M214.089 129.83C220.237 134.842 228.15 131.805 228.973 123.964C229.245 121.373 228.717 118.325 226.785 114.824C219.426 101.488 207.774 99.935 203.316 110.561C200.565 117.12 207.997 124.863 214.089 129.83Z" fill="#BBE2F2"/>
<path d="M462.909 334.396C475.238 322.002 484.627 307.995 475.287 305.812C465.938 303.626 450.237 328.035 447.501 350.252L444.763 357.587C447.04 341.431 441.504 321.751 433.398 320.94C425.344 320.134 430.219 332.899 436.616 343.816C441.485 352.126 442.769 358.682 443.089 362.07L430.157 396.713C433.689 371.118 424.919 340.065 412.094 338.782C399.315 337.504 407.05 357.758 417.199 375.08C424.869 388.17 426.934 398.523 427.461 403.933L424.883 410.841C426.011 411.476 427.142 412.104 428.277 412.725L443.662 371.509C446.63 369.293 451.137 366.615 457.554 364.444C469.54 360.389 481.587 353.941 474.975 349.272C469.237 345.22 455.747 353.019 446.455 364.026L451.776 349.772C454.175 345.646 457.588 339.745 462.909 334.396Z" fill="#1C31B5"/>
<path d="M74.272 172.699C75.871 157.73 74.626 143.262 67.176 146.83C59.719 150.402 62.333 175.258 72.471 191.653L74.586 198.055C67.406 185.978 53.08 175.746 47.2 179.57C41.357 183.37 51.512 189.315 61.692 193.198C69.442 196.154 73.837 199.865 75.879 201.968L85.869 232.205C74.444 213.112 51.815 196.986 42.511 203.037C33.24 209.067 49.352 218.5 65.506 224.662C77.713 229.318 84.681 235.158 87.951 238.507L89.943 244.536C91.043 244.355 92.141 244.167 93.238 243.972L81.353 207.999C82.152 204.911 83.735 200.683 86.874 195.766C92.738 186.582 97.352 175.758 90.395 176.186C84.357 176.558 79.502 189.068 79.195 201.468L75.085 189.028C74.471 184.962 73.582 179.16 74.272 172.699Z" fill="#1C31B5"/>
<path d="M379.684 375.569C379.841 376.417 380.022 377.343 380.234 378.327V378.329C382.454 388.651 387.904 405.547 400.167 408.87C400.167 408.87 393.492 374.066 417.282 365.001C441.072 355.936 438.441 347.305 437.081 331.942C435.721 316.579 430.464 313.65 446.971 299.259C463.478 284.868 460.321 263.433 460.321 263.433C460.321 263.433 444.699 287.907 428.014 288.475C411.329 289.043 408.406 303.287 409.118 313.88C409.829 324.472 395.659 325.67 387.991 331.814C380.323 337.958 378.879 370.222 378.879 370.222C378.879 370.222 379.091 372.332 379.684 375.569Z" fill="#009CF8"/>
<path d="M379.684 375.569C379.841 376.417 380.022 377.343 380.234 378.327C381.945 373.148 384.351 368.798 386.604 365.46C391.94 357.553 399.456 351.058 406.215 348.509C416.977 344.454 422.233 333.898 423.251 314.281C423.841 302.895 435.754 296.169 435.876 296.103C436.224 295.91 436.351 295.47 436.158 295.122C435.965 294.772 435.525 294.645 435.177 294.838C434.657 295.125 422.44 302.009 421.808 314.205C420.825 333.169 415.858 343.333 405.706 347.159C398.574 349.846 390.985 356.385 385.406 364.65C383.434 367.572 381.347 371.25 379.684 375.569Z" fill="#006BDE"/>
<path d="M116.358 408.681H133.075C124.042 407.188 101.647 397.574 99.65 378.295C97.121 353.876 88.425 354.181 73.774 351.628C59.122 349.074 55.086 353.244 45.783 334.286C36.48 315.329 15.725 312.939 15.725 312.939C15.725 312.939 34.642 333.58 31.022 349.266C27.402 364.953 39.946 371.217 49.992 373.189C60.038 375.16 57.63 388.66 61.447 397.332C63.189 401.289 70.32 405.391 77.558 408.681H116.358Z" fill="#006BDE"/>
<path d="M80.149 384.643C80.879 391.956 85.084 400.653 91.397 407.906C91.619 408.161 91.85 408.42 92.086 408.68H93.988C93.444 408.107 92.928 407.541 92.449 406.99C86.41 400.052 82.227 391.435 81.533 384.504C80.431 373.469 71.904 365.947 53.88 360.12C43.418 356.739 40.114 343.968 40.084 343.837C39.991 343.465 39.612 343.237 39.24 343.33C38.866 343.423 38.638 343.801 38.731 344.173C38.869 344.729 42.245 357.823 53.45 361.445C70.873 367.079 79.108 374.233 80.149 384.643Z" fill="#1C31B5"/>
<path d="M125.374 363.362C125.02 364.548 124.619 365.84 124.166 367.212L124.165 367.215C119.412 381.599 109.662 405.825 91.657 408.68C91.657 408.68 105.907 359.095 73.362 342.506C40.817 325.917 45.897 314.009 50.199 292.302C54.5 270.595 62.45 267.224 41.114 244.157C19.778 221.09 27.577 190.997 27.577 190.997C27.577 190.997 46.101 228.312 69.816 231.687C93.532 235.062 95.511 255.832 92.868 270.834C90.225 285.836 110.256 289.722 120.25 299.666C130.244 309.609 127.345 355.858 127.345 355.858C127.345 355.858 126.718 358.834 125.374 363.362Z" fill="#009CF8"/>
<path d="M125.374 363.362C125.02 364.548 124.619 365.84 124.166 367.212C122.522 359.561 119.757 352.985 117.057 347.877C110.66 335.777 100.937 325.356 91.687 320.681C76.957 313.242 71.083 297.375 72.645 269.234C73.554 252.9 57.594 241.473 57.429 241.362C56.962 241.033 56.848 240.386 57.177 239.919C57.507 239.449 58.154 239.335 58.621 239.664C59.318 240.153 75.688 251.852 74.716 269.348C73.204 296.552 78.726 311.815 92.62 318.835C102.381 323.765 112.203 334.26 118.891 346.908C121.254 351.377 123.667 356.944 125.374 363.362Z" fill="#006BDE"/>
<path d="M138.283 397.02C138.338 400.79 138.406 404.713 138.489 408.68H174.849C174.918 404.337 174.971 400.175 175.011 396.27C175.12 385.687 175.133 376.978 175.124 371.565C175.12 367.725 175.104 365.548 175.104 365.548L138.028 365.155C138.028 365.155 138.028 368.358 138.056 373.597C138.08 379.419 138.145 387.755 138.283 397.02Z" fill="#18315B"/>
<path d="M138.056 373.596C138.08 379.419 138.145 387.755 138.283 397.02C149.705 397.892 162.226 397.9 175.011 396.27C175.121 385.687 175.133 376.978 175.125 371.565L138.056 373.596Z" fill="#000B29"/>
<path d="M92.46 388.66C92.501 394.587 92.571 401.376 92.689 408.681H129.052C129.142 404.404 129.214 400.178 129.273 396.141C129.399 387.476 129.464 379.675 129.496 374.067C129.524 368.548 129.524 365.155 129.524 365.155L92.431 365.548C92.431 365.548 92.403 369.481 92.411 376.098C92.412 379.597 92.428 383.843 92.46 388.66Z" fill="#18315B"/>
<path d="M92.412 376.098C92.412 379.597 92.428 383.842 92.461 388.66C99.845 390.837 113.063 394.223 129.274 396.141C129.4 387.476 129.465 379.675 129.497 374.067L92.412 376.098Z" fill="#000B29"/>
<path d="M153.366 170.081C153.366 170.081 159.209 164.454 159.19 158.897C159.17 153.34 155.393 154.982 153.366 149.804C151.339 144.626 145.316 141.468 142.013 142.1C138.71 142.732 131.736 129.849 122.278 132.122C112.819 134.395 113.642 146.52 109.568 148.288C105.494 150.056 106.63 157.255 108.778 158.897C110.925 160.539 111.834 167.137 113.042 166.988C114.249 166.839 153.366 170.081 153.366 170.081Z" fill="#18315B"/>
<path d="M114.041 169.948C114.041 169.948 110.367 165.05 107.636 169.1C104.904 173.15 108.766 185.112 115.454 182.192L114.041 169.948Z" fill="#F97853"/>
<path d="M113.994 178.496C113.747 178.496 113.52 178.333 113.45 178.083C112.414 174.39 108.587 172.893 108.549 172.878C108.258 172.767 108.111 172.441 108.222 172.149C108.332 171.857 108.659 171.71 108.95 171.821C109.129 171.888 113.345 173.525 114.539 177.778C114.623 178.079 114.448 178.39 114.148 178.475C114.096 178.489 114.044 178.496 113.994 178.496Z" fill="#EA5143"/>
<path d="M110.132 176.635C110.027 176.635 109.921 176.606 109.827 176.545C109.565 176.376 109.489 176.026 109.658 175.764C109.686 175.72 110.363 174.688 111.779 174.054C112.062 173.926 112.398 174.054 112.525 174.339C112.652 174.624 112.525 174.958 112.24 175.085C111.145 175.575 110.613 176.368 110.608 176.375C110.499 176.544 110.317 176.635 110.132 176.635Z" fill="#EA5143"/>
<path d="M151.899 169.948C151.899 169.948 155.572 165.05 158.304 169.1C161.035 173.15 157.174 185.112 150.486 182.192L151.899 169.948Z" fill="#F97853"/>
<path d="M151.946 178.496C152.193 178.496 152.42 178.333 152.49 178.083C153.526 174.39 157.352 172.893 157.391 172.878C157.682 172.767 157.829 172.441 157.718 172.149C157.607 171.857 157.281 171.71 156.99 171.821C156.811 171.888 152.595 173.525 151.401 177.778C151.317 178.079 151.492 178.39 151.793 178.475C151.844 178.489 151.896 178.496 151.946 178.496Z" fill="#EA5143"/>
<path d="M155.808 176.635C155.913 176.635 156.019 176.606 156.113 176.545C156.376 176.376 156.451 176.026 156.282 175.764C156.254 175.72 155.577 174.688 154.161 174.054C153.878 173.926 153.542 174.054 153.414 174.339C153.287 174.624 153.414 174.958 153.699 175.085C154.794 175.575 155.326 176.368 155.331 176.375C155.441 176.544 155.622 176.635 155.808 176.635Z" fill="#EA5143"/>
<path d="M142.013 192.339V204.235C142.013 204.235 138.465 210.294 133.668 210.706C128.875 211.124 124.616 205.49 124.616 205.49V193.176L142.013 192.339Z" fill="#FFA681"/>
<path d="M142.013 192.339V197.618C138.794 201.191 133.076 202.083 124.615 200.834V193.176L142.013 192.339Z" fill="#F97853"/>
<path d="M154.555 161.787C154.335 166.41 153.894 172.191 153.012 176.814C152.792 177.967 152.543 179.052 152.266 180.024C149.762 188.789 143.501 203.822 125.97 197.56C118.227 194.797 114.639 186.173 113.039 177.401C111.954 171.444 111.79 165.426 111.869 161.125C111.954 156.734 114.35 152.721 118.17 150.557C128.518 144.691 139.437 146.878 146.625 149.641C151.616 151.558 154.809 156.458 154.555 161.787Z" fill="#FFA681"/>
<path d="M113.04 177.401C113.04 177.401 114.741 187.536 116.348 191.231C117.958 194.925 122.347 195.622 123.995 198.744C126.346 203.196 129.93 206.725 135.825 204.575C140.73 202.786 140.508 200.278 143.256 198.338C147.964 195.014 150.297 191.356 150.487 188.325C150.676 185.294 153.014 176.814 153.014 176.814L150.487 176.636C150.487 176.636 149.047 179.618 146.929 182.903C144.803 178.235 134.562 181.63 134.562 181.63L132.607 182.263L130.599 181.63C130.599 181.63 120.236 178.379 118.19 183.274C116.936 181.357 115.917 179.201 115.454 176.916L113.04 177.401ZM132.606 183.842C144.352 181.826 142.253 188.703 142.177 188.95V188.954C142.173 188.958 142.173 188.958 142.173 188.958C141.377 189.716 140.566 190.352 139.759 190.788C135.208 193.247 134.716 192.876 132.92 192.955C131.094 193.042 128.574 192.5 126.017 191.072C125.221 190.625 124.032 189.761 122.728 188.571C122.728 188.571 120.883 182.262 132.606 183.842Z" fill="#18315B"/>
<path d="M125.547 171.5C125.547 172.77 124.893 173.799 124.085 173.799C123.278 173.799 122.623 172.77 122.623 171.5C122.623 170.23 123.278 169.201 124.085 169.201C124.892 169.201 125.547 170.23 125.547 171.5Z" fill="#18315B"/>
<path d="M142.925 171.5C142.925 172.77 142.27 173.799 141.463 173.799C140.656 173.799 140.001 172.77 140.001 171.5C140.001 170.23 140.655 169.201 141.463 169.201C142.27 169.201 142.925 170.23 142.925 171.5Z" fill="#18315B"/>
<path d="M147.217 163.929C147.217 163.929 141.176 161.542 136.525 163.551L136.99 166.138C136.99 166.138 143.816 165.561 147.256 166.954C147.565 165.958 147.61 164.952 147.217 163.929Z" fill="#18315B"/>
<path d="M118.496 163.941C118.496 163.941 124.581 161.536 129.266 163.56L128.797 166.166C128.797 166.166 121.92 165.584 118.455 166.988C118.146 165.985 118.1 164.971 118.496 163.941Z" fill="#18315B"/>
<path d="M133.166 181.137C134.119 181.137 135.065 180.766 135.212 180.706C135.501 180.588 135.639 180.258 135.521 179.97C135.404 179.681 135.073 179.542 134.785 179.66C134.275 179.867 133.049 180.192 132.518 179.874C132.415 179.813 132.276 179.691 132.24 179.348C132.036 177.374 132.576 170.759 132.582 170.693C132.608 170.382 132.376 170.109 132.065 170.084C131.753 170.058 131.481 170.29 131.456 170.601C131.433 170.877 130.902 177.388 131.117 179.465C131.198 180.247 131.608 180.647 131.939 180.845C132.299 181.06 132.734 181.137 133.166 181.137Z" fill="#F97853"/>
<path d="M125.962 184.973C126.391 187.132 127.817 191.103 132.621 191.103C137.437 191.103 138.787 187.474 139.251 184.973H125.962Z" fill="white"/>
<path d="M154.555 161.787C154.335 166.41 153.894 172.191 153.012 176.814L150.486 176.635C150.486 176.635 151.098 172.732 151.381 170.188C151.664 167.645 152.144 162.891 149.973 162.298C147.808 161.71 149.079 156.287 146.067 153.936C143.055 151.579 136.363 149.505 131.921 152.241C127.479 154.971 122.426 153.462 120.381 153.936C118.33 154.405 115.549 157.231 116.301 159.87C117.058 162.503 114.798 164.109 114.25 166.838C113.702 169.568 115.454 176.914 115.454 176.914L113.041 177.4C111.956 171.443 111.792 165.425 111.871 161.124C111.956 156.733 114.352 152.72 118.172 150.556C128.52 144.69 139.439 146.877 146.627 149.64C151.616 151.558 154.809 156.458 154.555 161.787Z" fill="#18315B"/>
<path d="M182.787 383.424C171.352 386.32 159.917 388.193 148.474 389.055C147.955 389.093 147.441 389.131 146.922 389.166C145.349 389.272 143.776 389.36 142.204 389.428C134.421 389.763 126.636 389.632 118.85 389.032C117.28 388.911 115.712 388.772 114.142 388.611C113.641 388.563 113.139 388.51 112.635 388.452C103.34 387.444 94.047 385.765 84.744 383.424C84.651 374.855 84.757 347.763 85.283 318.383C85.344 314.852 85.412 311.288 85.49 307.719C86.314 268.998 87.904 229.693 90.765 225.756C93.507 221.988 101.772 217.199 109.673 212.879C110.144 212.622 110.616 212.365 111.084 212.11C112.861 211.145 114.597 210.21 116.231 209.322C119.732 207.417 122.751 205.723 124.616 204.415V205.491C124.616 205.491 128.87 211.122 133.664 210.706C138.034 210.331 141.361 205.282 141.926 204.377C143.988 205.829 147.69 207.83 151.982 210.098C153.177 210.731 154.412 211.378 155.672 212.046C156.136 212.29 156.602 212.537 157.071 212.787C165.809 217.422 175.23 222.647 178.058 226.531C178.27 226.818 178.471 227.3 178.663 227.96C180.337 233.626 181.375 252.428 182.007 275.197C182.01 275.278 182.012 275.361 182.015 275.444C182.043 276.364 182.065 277.291 182.088 278.224C182.093 278.345 182.095 278.469 182.098 278.592C182.305 286.579 182.461 294.987 182.582 303.436C182.592 304.106 182.605 304.777 182.612 305.447C182.615 305.785 182.62 306.117 182.622 306.455C182.65 308.118 182.667 309.782 182.683 311.438C182.701 312.66 182.716 313.88 182.726 315.103C183.042 345.641 182.913 374.446 182.787 383.424Z" fill="#006BDE"/>
<path d="M182.089 278.225C179.337 273.731 176.383 269.144 173.6 265.086C173.592 265.076 173.585 265.066 173.58 265.056C172.411 263.352 171.274 261.744 170.193 260.275C170.175 260.247 170.158 260.222 170.138 260.199C169.8 259.738 169.465 259.289 169.137 258.853C169.084 258.777 169.044 258.699 169.019 258.616L169.016 258.613C168.928 258.318 169.026 257.991 169.286 257.794C169.621 257.539 170.098 257.605 170.35 257.94C173.692 262.368 177.967 268.735 182.009 275.197C182.012 275.278 182.014 275.361 182.017 275.444C182.044 276.365 182.066 277.293 182.089 278.225Z" fill="#264CBE"/>
<path d="M178.176 225.907C178.176 225.907 195.421 257.501 205.933 273.514C205.933 273.514 211.911 268.022 219.686 260.675C228.116 252.709 239.645 239.396 239.645 239.396L246.025 246.962C246.025 246.962 220.121 293.577 208.503 299.436C196.884 305.295 175.474 263.828 175.474 263.828L178.176 225.907Z" fill="#006BDE"/>
<path d="M105.16 350.427C105.15 350.427 105.141 350.427 105.132 350.427C104.702 350.412 104.365 350.05 104.38 349.619C105.284 324.104 92.054 315.838 91.92 315.758C91.552 315.536 91.431 315.057 91.652 314.688C91.873 314.319 92.35 314.198 92.72 314.418C92.867 314.505 96.365 316.63 99.752 322.075C102.844 327.045 106.428 335.868 105.938 349.674C105.924 350.095 105.578 350.427 105.16 350.427Z" fill="#264CBE"/>
<path d="M161.603 326.389C161.2 326.389 160.858 326.079 160.826 325.67C160.407 320.297 162.177 316.378 164.418 311.416C165.074 309.964 165.751 308.464 166.445 306.781C170.794 296.234 168.608 284.175 168.586 284.054C168.507 283.631 168.785 283.223 169.209 283.144C169.633 283.064 170.04 283.344 170.119 283.767C170.215 284.278 172.41 296.405 167.887 307.376C167.183 309.083 166.5 310.595 165.839 312.059C163.606 317.003 161.993 320.575 162.381 325.55C162.414 325.979 162.093 326.355 161.664 326.388C161.644 326.388 161.624 326.389 161.603 326.389Z" fill="#264CBE"/>
<path d="M116.231 209.322C116.564 211.834 117.053 215.093 117.587 218.794C117.75 219.893 117.913 221.033 118.08 222.204C118.622 226.027 119.183 230.187 119.66 234.393C119.789 235.522 119.91 236.655 120.024 237.784C120.445 241.948 120.763 246.085 120.877 249.931C120.915 251.094 120.93 252.231 120.923 253.334C120.915 256.27 120.752 258.968 120.396 261.276C120.168 262.735 119.968 264.159 119.79 265.554C119.642 266.71 119.51 267.846 119.392 268.964C118.937 273.303 118.71 277.342 118.646 281.149C118.627 282.305 118.623 283.438 118.635 284.548C118.669 288.871 118.915 292.899 119.271 296.733C119.377 297.881 119.494 299.01 119.616 300.124C120.082 304.315 120.65 308.304 121.185 312.249C121.34 313.378 121.492 314.503 121.64 315.629C121.871 317.432 122.091 319.236 122.28 321.051C122.481 322.976 122.61 325.226 122.67 327.723C122.7 328.814 122.715 329.955 122.719 331.133C122.734 334.865 122.639 338.999 122.465 343.322C122.42 344.451 122.37 345.595 122.314 346.751C122.121 350.767 121.867 354.897 121.583 358.974C121.5 360.122 121.416 361.263 121.329 362.399C121.014 366.643 120.666 370.777 120.313 374.622C120.207 375.789 120.101 376.93 119.995 378.036C119.589 382.268 119.196 386.031 118.851 389.032C126.637 389.631 134.424 389.763 142.206 389.426C142.388 386.232 142.884 381.079 143.373 375.013C143.464 373.903 143.551 372.759 143.638 371.592C143.93 367.735 144.195 363.613 144.369 359.452C144.418 358.312 144.46 357.167 144.49 356.027C144.608 351.874 144.611 347.748 144.433 343.88C144.38 342.705 144.312 341.557 144.221 340.44C144.13 339.296 144.02 338.182 143.888 337.106C143.513 334.067 143.369 331.15 143.388 328.263C143.392 327.119 143.422 325.982 143.475 324.842C143.653 320.886 144.085 316.923 144.585 312.714C144.718 311.596 144.858 310.459 144.998 309.3C145.449 305.557 145.919 301.586 146.29 297.24C146.388 296.126 146.476 294.986 146.559 293.819C146.817 290.091 146.991 286.086 147.018 281.721C147.025 280.596 147.022 279.448 147.007 278.273C146.965 274.495 146.806 270.453 146.499 266.099C146.472 265.713 146.446 265.322 146.416 264.928C146.359 264.166 146.31 263.397 146.276 262.628C146.075 258.657 146.128 254.573 146.352 250.5C146.413 249.356 146.488 248.212 146.576 247.067C146.89 242.99 147.349 238.951 147.879 235.079C148.034 233.927 148.197 232.787 148.364 231.665C149.001 227.421 149.686 223.428 150.315 219.859C150.524 218.685 150.724 217.555 150.914 216.479C151.342 214.069 151.713 211.921 151.986 210.102C147.693 207.832 143.991 205.832 141.93 204.381C141.365 205.287 138.039 210.333 133.666 210.709C128.873 211.126 124.618 205.495 124.618 205.495V204.419C122.751 205.723 119.732 207.417 116.231 209.322Z" fill="white"/>
<path d="M117.587 218.795C117.75 219.894 117.913 221.034 118.08 222.205C122.381 222.303 127.431 221.659 133.516 220.254C140.033 218.754 145.781 219.015 150.312 219.856C150.521 218.682 150.721 217.552 150.911 216.476C146.001 215.57 139.806 215.309 132.751 216.934C126.745 218.318 121.743 218.954 117.587 218.795Z" fill="#E3E3E3"/>
<path d="M119.66 234.394C119.789 235.523 119.91 236.656 120.024 237.785C123.885 237.683 128.326 237.038 133.517 235.837C138.909 234.594 143.781 234.564 147.877 235.075C148.032 233.923 148.195 232.783 148.362 231.661C143.921 231.112 138.636 231.157 132.752 232.514C127.711 233.678 123.377 234.314 119.66 234.394Z" fill="#E3E3E3"/>
<path d="M120.876 249.932C120.914 251.095 120.929 252.232 120.922 253.335C124.571 253.164 128.724 252.528 133.516 251.421C138.252 250.33 142.587 250.174 146.349 250.497C146.41 249.353 146.485 248.209 146.573 247.064C142.526 246.731 137.862 246.92 132.751 248.098C128.253 249.137 124.316 249.755 120.876 249.932Z" fill="#E3E3E3"/>
<path d="M119.391 268.964C123.4 268.919 128.037 268.267 133.516 267.005C138.313 265.899 142.7 265.755 146.497 266.096C146.47 265.71 146.444 265.319 146.414 264.925C146.357 264.163 146.308 263.394 146.274 262.625C142.296 262.326 137.738 262.53 132.751 263.682C127.769 264.834 123.479 265.463 119.789 265.554C119.641 266.71 119.508 267.847 119.391 268.964Z" fill="#E3E3E3"/>
<path d="M118.633 284.548C122.812 284.582 127.689 283.934 133.516 282.589C138.544 281.43 143.11 281.32 147.016 281.718C147.023 280.593 147.02 279.445 147.005 278.27C142.86 277.887 138.048 278.046 132.751 279.266C127.246 280.535 122.585 281.176 118.645 281.149C118.625 282.305 118.621 283.438 118.633 284.548Z" fill="#E3E3E3"/>
<path d="M119.269 296.734C119.375 297.882 119.492 299.011 119.614 300.125C123.57 300.061 128.139 299.413 133.516 298.174C138.233 297.087 142.549 296.92 146.289 297.238C146.387 296.124 146.475 294.984 146.558 293.817C142.511 293.484 137.855 293.673 132.751 294.851C127.537 296.052 123.074 296.692 119.269 296.734Z" fill="#E3E3E3"/>
<path d="M121.183 312.249C121.338 313.378 121.49 314.503 121.638 315.629C125.113 315.413 129.03 314.792 133.516 313.757C137.532 312.829 141.257 312.575 144.584 312.711C144.717 311.593 144.857 310.456 144.997 309.297C141.329 309.13 137.211 309.403 132.751 310.434C128.382 311.439 124.547 312.052 121.183 312.249Z" fill="#E3E3E3"/>
<path d="M122.668 327.723C122.698 328.814 122.713 329.955 122.717 331.133C125.919 330.864 129.492 330.269 133.515 329.337C137.058 328.522 140.373 328.227 143.385 328.261C143.389 327.117 143.419 325.98 143.472 324.84C140.202 324.806 136.603 325.128 132.749 326.018C129.015 326.879 125.665 327.451 122.668 327.723Z" fill="#E3E3E3"/>
<path d="M122.312 346.751C125.616 346.497 129.318 345.887 133.516 344.921C137.468 344.012 141.14 343.75 144.432 343.879C144.379 342.704 144.311 341.556 144.22 340.439C140.753 340.34 136.9 340.644 132.751 341.598C128.928 342.481 125.514 343.061 122.464 343.322C122.418 344.452 122.369 345.596 122.312 346.751Z" fill="#E3E3E3"/>
<path d="M121.327 362.4C124.877 362.199 128.897 361.57 133.516 360.506C137.445 359.6 141.094 359.335 144.368 359.453C144.417 358.313 144.459 357.168 144.489 356.028C140.954 355.907 137.01 356.202 132.751 357.184C128.557 358.154 124.851 358.756 121.581 358.976C121.497 360.123 121.414 361.263 121.327 362.4Z" fill="#E3E3E3"/>
<path d="M119.993 378.037C123.862 377.939 128.31 377.291 133.516 376.089C137.051 375.274 140.363 374.975 143.371 375.013C143.462 373.903 143.549 372.759 143.636 371.592C140.321 371.543 136.668 371.861 132.75 372.766C128.003 373.861 123.88 374.486 120.311 374.623C120.205 375.79 120.099 376.931 119.993 378.037Z" fill="#E3E3E3"/>
<path d="M146.921 389.165C147.44 389.131 147.955 389.093 148.474 389.055C151.543 371.012 149.774 344.527 149.114 336.411C148.432 327.984 149.743 317.148 152.71 306.69C155.014 298.567 153.6 279.732 152.467 264.599C152.149 260.352 151.846 256.339 151.668 253.043C151.088 242.388 154.945 222.671 157.071 212.789C156.601 212.539 156.135 212.293 155.673 212.046C153.544 221.829 149.546 241.994 150.152 253.126C150.334 256.438 150.637 260.458 150.955 264.713C152.08 279.729 153.482 298.412 151.254 306.274C148.238 316.902 146.908 327.932 147.605 336.532C148.262 344.66 150.043 371.311 146.921 389.165Z" fill="#264CBE"/>
<path d="M115.484 315.75C117.288 326.844 116.719 334.051 116.06 342.39C115.848 345.088 115.628 347.873 115.473 350.949C114.992 360.603 113.359 380.044 112.635 388.452C113.139 388.509 113.639 388.562 114.143 388.611C114.867 380.203 116.504 360.713 116.988 351.025C117.14 347.971 117.359 345.194 117.572 342.511C118.235 334.073 118.811 326.783 116.977 315.507C116.587 313.086 116.17 310.631 115.757 308.187C113.715 296.096 111.6 283.593 112.601 277.603C112.843 276.14 113.154 274.481 113.488 272.723C114.844 265.494 116.538 256.499 116.004 248.693C115.473 240.956 112.302 220.007 111.086 212.111C110.616 212.365 110.147 212.623 109.673 212.88C110.942 221.136 113.977 241.282 114.492 248.795C115.011 256.407 113.34 265.3 111.999 272.442C111.665 274.208 111.351 275.875 111.105 277.352C110.067 283.593 112.105 295.66 114.265 308.44C114.677 310.882 115.09 313.333 115.484 315.75Z" fill="#264CBE"/>
<path d="M85.66 238.623C85.66 238.623 70.223 290.102 66.4 308.448C62.577 326.794 62.281 364.933 62.281 364.933C62.281 364.933 55.532 378.943 55.373 385.177C55.203 391.823 58.692 397.112 58.294 401.461C57.896 405.811 63.191 403.449 61.695 394.639C60.199 385.829 64.443 377.85 66.275 378.106C68.107 378.362 64.759 387.725 66.386 391.099C68.012 394.473 70.118 387.919 72.211 383.942C74.385 379.812 74.257 370.802 73.268 364.37C72.279 357.938 83.938 318.87 83.994 307.55L98.758 257.661C98.758 257.661 93.881 236.835 85.66 238.623Z" fill="#FFA681"/>
<path d="M100.65 256.408C100.127 259.716 98.297 265.395 95.933 272.541V272.545C95.732 273.147 95.527 273.761 95.323 274.386C95.312 274.412 95.3 274.443 95.293 274.473C94.702 276.25 94.084 278.11 93.448 280.035C93.444 280.046 93.441 280.058 93.437 280.069C90.819 288.018 87.92 297.112 85.488 306.455C84.651 309.653 83.87 312.885 83.177 316.105C82.29 320.216 81.54 324.316 80.991 328.328C79.017 342.783 75.243 361.091 75.243 361.091C69.707 363.364 61.053 360.364 61.053 360.364C61.053 360.364 60.829 333.997 62.065 323.751C63.592 311.084 65.536 302.067 67.945 291.715C74.576 263.226 86.246 235.351 89.447 227.958C89.701 227.367 89.902 226.908 90.042 226.59H92.797C98.218 230.037 102.064 247.496 100.65 256.408Z" fill="#006BDE"/>
<path d="M60.602 355.086L61.036 361.153C61.036 361.153 69.264 363.827 75.432 361.944L77.063 356.532C71.124 356.846 65.637 356.7 60.602 355.086Z" fill="#009CF8"/>
<path d="M95.933 272.541V272.545C95.933 272.632 95.918 272.719 95.888 272.806C95.702 273.318 95.513 273.844 95.323 274.386C95.312 274.412 95.3 274.443 95.293 274.473C94.687 276.193 94.069 278.065 93.448 280.035C93.444 280.046 93.441 280.058 93.437 280.069C90.213 290.314 86.935 303.204 85.427 311.438C85.442 309.782 85.461 308.119 85.488 306.456C84.651 309.654 83.87 312.886 83.177 316.106C83.488 313.086 84.352 308.562 85.53 303.436C87.91 293.062 91.562 280.213 94.464 272.287C94.608 271.893 95.044 271.692 95.438 271.836C95.744 271.95 95.933 272.234 95.933 272.541Z" fill="#264CBE"/>
<path d="M372.072 408.681H408.537C408.416 406.152 408.296 403.727 408.18 401.438C407.544 388.952 407.004 380.45 407.004 380.45L377.349 381.767L374.89 381.878L370.528 382.073C370.528 382.073 370.949 389.675 371.604 400.813C371.748 403.276 371.905 405.915 372.072 408.681Z" fill="#18315B"/>
<path d="M374.889 381.878L370.527 382.073C370.527 382.073 370.948 389.675 371.603 400.813C382.997 401.763 395.437 402.15 408.179 401.437C407.543 388.951 407.003 380.449 407.003 380.449L377.348 381.766L374.889 381.878Z" fill="#000B29"/>
<path d="M378.86 408.681C378.193 397.124 377.647 387.25 377.347 381.768L374.888 381.879C375.187 387.336 375.731 397.164 376.396 408.681H378.86Z" fill="#000B29"/>
<path d="M361.374 408.681C361.562 405.55 361.738 402.581 361.899 399.844C362.527 389.235 362.921 382.073 362.921 382.073L358.187 381.862L355.732 381.751L326.441 380.449C326.441 380.449 326.119 385.516 325.679 393.57C325.446 397.862 325.179 403.006 324.909 408.68H361.374V408.681Z" fill="#18315B"/>
<path d="M325.678 393.57C333.629 395.439 346.448 398.063 361.898 399.843C362.526 389.234 362.92 382.072 362.92 382.072L358.186 381.861L355.731 381.75L326.44 380.448C326.44 380.448 326.119 385.516 325.678 393.57Z" fill="#000B29"/>
<path d="M356.679 408.681C357.344 397.152 357.888 387.316 358.186 381.863L355.731 381.752C355.431 387.231 354.884 397.112 354.217 408.681H356.679Z" fill="#000B29"/>
<path d="M412.298 386.133C404.87 388.177 397.443 389.72 390.015 390.755C387.432 391.118 384.851 391.42 382.27 391.657C378.789 391.98 375.309 392.196 371.831 392.305C366.077 392.481 360.323 392.355 354.566 391.929C343.438 391.115 332.313 389.172 321.183 386.132C321.08 375.756 321.236 338.545 322.015 302.654C322.053 301.043 322.088 299.433 322.128 297.83C322.133 297.49 322.143 297.149 322.151 296.809C322.159 296.438 322.169 296.068 322.179 295.7C322.204 294.561 322.234 293.427 322.262 292.298C322.32 289.992 322.38 287.706 322.446 285.443C322.486 284.09 322.527 282.744 322.567 281.41C322.574 281.133 322.585 280.858 322.592 280.583C322.62 279.703 322.647 278.829 322.675 277.959C322.675 277.959 322.675 277.959 322.675 277.956C322.685 277.686 322.693 277.417 322.703 277.147C322.728 276.345 322.756 275.549 322.781 274.76C322.806 274.087 322.829 273.424 322.852 272.759C323.714 248.548 324.974 229.451 326.779 226.759C329.839 222.195 340.261 216.136 348.643 211.203C351.63 209.449 355.196 207.624 357.237 206.271C360.214 208.668 362.374 210.833 366.787 210.684C371.724 210.515 372.942 207.546 374.825 205C375.974 205.746 378.893 208.14 380.41 209.03C381.708 209.796 383.114 210.608 384.581 211.452C386.849 212.75 389.261 214.129 391.651 215.535C395.192 217.619 398.683 219.769 401.579 221.823C404.47 223.877 406.766 225.84 407.903 227.542C409.541 230.002 410.602 245.928 411.285 266.888C411.313 267.621 411.333 268.365 411.361 269.113C411.364 269.204 411.364 269.294 411.364 269.388C411.392 270.149 411.415 270.931 411.432 271.712C411.5 274.071 411.563 276.481 411.629 278.93C411.642 279.447 411.654 279.968 411.662 280.488C411.672 280.879 411.685 281.272 411.687 281.657C411.71 282.665 411.732 283.676 411.755 284.696C411.76 284.9 411.763 285.104 411.768 285.309C411.824 287.998 411.876 290.725 411.924 293.475C411.939 294.279 411.952 295.086 411.964 295.892C412.585 333.629 412.441 374.983 412.298 386.133Z" fill="#006BDE"/>
<path d="M411.962 295.896L400.2 307.827L389.241 296.717L378.285 307.827L367.286 296.672L356.282 307.827L345.21 296.599L334.135 307.827L322.178 295.701C322.203 294.562 322.233 293.428 322.261 292.299C322.319 289.993 322.379 287.707 322.445 285.444L334.135 273.588L345.21 284.819L356.282 273.588L367.286 284.743L378.285 273.588L389.241 284.698L400.2 273.588L411.766 285.313C411.822 288.002 411.874 290.729 411.922 293.479C411.937 294.283 411.95 295.089 411.962 295.896Z" fill="#264CBE"/>
<path d="M391.659 357.392H391.656C375.906 357.323 362.463 350.156 353.959 344.156C344.762 337.667 339.188 331.092 339.133 331.026C338.864 330.706 338.905 330.228 339.225 329.958C339.546 329.689 340.024 329.73 340.293 330.05C340.347 330.114 345.82 336.564 354.868 342.942C363.187 348.806 376.324 355.809 391.663 355.877C392.081 355.879 392.419 356.22 392.418 356.638C392.415 357.055 392.076 357.392 391.659 357.392Z" fill="#264CBE"/>
<path d="M381.835 348.077C368.425 345.441 356.555 335.17 356.016 334.699C355.701 334.423 355.669 333.945 355.944 333.63C356.22 333.315 356.698 333.284 357.013 333.558C357.152 333.68 371.121 345.759 385.356 347.058C385.779 347.093 386.08 347.465 386.042 347.881C386.004 348.298 385.635 348.605 385.219 348.567C384.084 348.464 382.954 348.297 381.835 348.077Z" fill="#264CBE"/>
<path d="M354.978 231.528C354.621 231.528 354.303 231.275 354.234 230.911C354.156 230.5 354.426 230.103 354.837 230.025C374.039 226.381 379.826 214.029 379.883 213.904C380.055 213.523 380.504 213.353 380.886 213.526C381.267 213.698 381.437 214.147 381.264 214.529C381.021 215.066 375.088 227.726 355.12 231.515C355.073 231.523 355.025 231.528 354.978 231.528Z" fill="#264CBE"/>
<path d="M331.549 264.779V264.784C331.531 264.867 331.493 264.95 331.446 265.026C331.159 265.487 330.859 265.964 330.559 266.45C330.544 266.478 330.526 266.5 330.514 266.531C329.554 268.084 328.553 269.78 327.522 271.572C327.519 271.585 327.514 271.592 327.504 271.602C325.893 274.422 324.225 277.48 322.592 280.585C322.62 279.705 322.647 278.831 322.675 277.961C322.675 277.961 322.675 277.961 322.675 277.958C322.685 277.688 322.693 277.419 322.703 277.149C325.337 272.259 327.963 267.685 330.166 264.217C330.393 263.862 330.859 263.761 331.214 263.983C331.489 264.162 331.615 264.479 331.549 264.779Z" fill="#264CBE"/>
<path d="M428.308 236.693C428.308 236.693 452.863 228.801 460.129 212.688C462.231 208.021 444.917 160.642 444.917 160.642L436.56 161.046C436.56 161.046 438.942 177.485 440.385 186.793C441.572 194.446 443.49 203.591 444.137 206.602C444.278 207.255 444.357 207.618 444.357 207.618C443.947 207.689 443.536 207.768 443.118 207.851C431.646 210.181 416.998 217.654 416.998 217.654L428.308 236.693Z" fill="#FFA681"/>
<path d="M450.525 212.16C450.874 212.414 451.373 212.338 451.623 211.987C451.887 211.631 451.807 211.138 451.45 210.889C449.664 209.591 446.968 208.068 444.137 206.603C444.278 207.256 444.357 207.619 444.357 207.619C443.947 207.69 443.536 207.769 443.118 207.852C446 209.333 448.759 210.875 450.525 212.16Z" fill="#F97853"/>
<path d="M390.737 215.017C390.737 215.017 383.31 232.447 402.219 242.151C415.305 248.867 445.115 231.333 445.115 231.333L434.487 208.768C434.487 208.768 407.212 220.019 390.737 215.017Z" fill="#006BDE"/>
<path d="M440.639 134.004C439.899 134.523 440.05 137.724 440.376 140.739C440.272 140.754 440.165 140.772 440.058 140.791C439.179 136.767 437.429 129.923 435.933 131.229C434.953 132.084 436.265 137.986 437.159 141.515C436.974 141.572 436.789 141.63 436.604 141.69C435.477 137.5 433.047 129.429 431.43 130.998C430.351 132.045 432.422 139.152 433.572 142.777C433.411 142.84 433.255 142.901 433.101 142.962C432.001 139.445 429.651 132.792 428.041 134.355C426.583 135.77 430.76 145.828 430.76 145.828L431.855 149.776C431.855 149.776 430.554 150.338 428.522 148.04C426.49 145.742 424.062 145.338 425.749 148.662C427.656 152.419 430.478 155.113 431.72 157.771C432.963 160.429 436.871 161.308 436.871 161.308L444.718 160.929C444.718 160.929 446.24 147.666 443.313 141.344C442.811 137.588 441.927 133.101 440.639 134.004Z" fill="#FFA681"/>
<path d="M343.549 164.591C343.549 177.957 351.777 187.167 365.138 187.167C378.504 187.167 387.822 177.266 387.822 163.899C387.822 160.213 387.221 156.771 386.064 153.725C385.996 153.544 385.928 153.362 385.854 153.186C385.712 152.84 385.565 152.494 385.406 152.16C385.173 151.644 384.913 151.139 384.64 150.652C381.158 144.391 374.92 140.41 366.539 140.41C350.513 140.411 343.549 151.225 343.549 164.591Z" fill="#18315B"/>
<path d="M346.55 170.346C346.55 170.346 342.837 165.395 340.076 169.489C337.315 173.583 341.219 185.675 347.978 182.723L346.55 170.346Z" fill="#F97853"/>
<path d="M346.502 178.987C346.252 178.987 346.023 178.822 345.952 178.57C344.904 174.837 341.037 173.324 340.998 173.309C340.704 173.196 340.555 172.867 340.667 172.572C340.779 172.277 341.108 172.129 341.403 172.24C341.584 172.308 345.846 173.962 347.052 178.261C347.137 178.565 346.96 178.88 346.656 178.965C346.605 178.98 346.553 178.987 346.502 178.987Z" fill="#EA5143"/>
<path d="M342.598 177.106C342.492 177.106 342.385 177.077 342.289 177.015C342.024 176.844 341.947 176.491 342.118 176.225C342.147 176.181 342.831 175.137 344.262 174.497C344.549 174.367 344.888 174.497 345.017 174.785C345.146 175.073 345.017 175.411 344.729 175.539C343.622 176.034 343.084 176.836 343.079 176.844C342.97 177.014 342.786 177.106 342.598 177.106Z" fill="#EA5143"/>
<path d="M384.817 170.346C384.817 170.346 388.53 165.395 391.291 169.489C394.052 173.583 390.148 185.675 383.388 182.723L384.817 170.346Z" fill="#F97853"/>
<path d="M384.865 178.987C385.114 178.987 385.344 178.822 385.415 178.57C386.463 174.837 390.33 173.324 390.369 173.309C390.663 173.196 390.812 172.867 390.7 172.572C390.588 172.277 390.259 172.129 389.964 172.24C389.783 172.308 385.521 173.962 384.314 178.261C384.229 178.565 384.406 178.88 384.71 178.965C384.762 178.98 384.814 178.987 384.865 178.987Z" fill="#EA5143"/>
<path d="M388.769 177.106C388.875 177.106 388.982 177.077 389.078 177.015C389.343 176.844 389.42 176.491 389.249 176.225C389.221 176.181 388.536 175.137 387.105 174.497C386.819 174.367 386.479 174.497 386.35 174.785C386.221 175.073 386.35 175.411 386.638 175.539C387.745 176.034 388.283 176.836 388.288 176.844C388.397 177.014 388.581 177.106 388.769 177.106Z" fill="#EA5143"/>
<path d="M374.824 192.979V205.004C374.824 205.004 371.238 211.128 366.388 211.545C361.543 211.968 357.238 206.272 357.238 206.272V193.824L374.824 192.979Z" fill="#FFA681"/>
<path d="M374.824 192.979V198.315C371.57 201.926 365.79 202.828 357.238 201.565V193.824L374.824 192.979Z" fill="#F97853"/>
<path d="M387.502 162.097C387.279 166.77 386.833 172.614 385.942 177.287C385.719 178.452 385.468 179.549 385.188 180.532C382.657 189.392 376.328 204.588 358.607 198.258C350.781 195.464 347.153 186.747 345.537 177.881C344.44 171.86 344.274 165.776 344.355 161.429C344.441 156.991 346.863 152.934 350.725 150.746C361.185 144.816 372.222 147.027 379.488 149.821C384.531 151.757 387.759 156.71 387.502 162.097Z" fill="#FFA681"/>
<path d="M358.085 171.915C358.085 173.199 357.423 174.239 356.607 174.239C355.791 174.239 355.129 173.199 355.129 171.915C355.129 170.631 355.791 169.591 356.607 169.591C357.424 169.591 358.085 170.632 358.085 171.915Z" fill="#18315B"/>
<path d="M375.502 171.868C375.502 173.152 374.841 174.192 374.024 174.192C373.208 174.192 372.546 173.152 372.546 171.868C372.546 170.584 373.208 169.544 374.024 169.544C374.84 169.543 375.502 170.584 375.502 171.868Z" fill="#18315B"/>
<path d="M378.841 163.88C378.841 163.88 374.179 162.037 370.589 163.588L370.948 165.584C370.948 165.584 376.217 165.138 378.871 166.214C379.109 165.447 379.144 164.67 378.841 163.88Z" fill="#18315B"/>
<path d="M351.677 163.88C351.677 163.88 356.339 162.037 359.929 163.588L359.57 165.584C359.57 165.584 354.302 165.138 351.647 166.214C351.409 165.447 351.374 164.67 351.677 163.88Z" fill="#18315B"/>
<path d="M365.882 181.656C366.846 181.656 367.801 181.281 367.95 181.22C368.242 181.101 368.381 180.768 368.262 180.475C368.143 180.183 367.809 180.043 367.518 180.162C367.002 180.371 365.763 180.7 365.226 180.379C365.123 180.317 364.981 180.194 364.945 179.847C364.739 177.852 365.285 171.165 365.29 171.098C365.316 170.784 365.082 170.508 364.768 170.482C364.452 170.455 364.178 170.69 364.152 171.004C364.129 171.283 363.592 177.865 363.809 179.964C363.891 180.754 364.306 181.159 364.64 181.359C365.006 181.579 365.445 181.656 365.882 181.656Z" fill="#F97853"/>
<path d="M358.211 184.557C359.161 187.853 361.86 191.141 365.579 191.187C369.294 191.142 371.994 187.853 372.943 184.557H358.211Z" fill="white"/>
<path d="M365.261 194.767C366.74 194.767 367.993 194.018 368.046 193.986C368.316 193.823 368.402 193.471 368.239 193.201C368.076 192.931 367.724 192.845 367.454 193.008C367.445 193.014 366.413 193.623 365.261 193.623C364.204 193.623 363.192 193.017 363.182 193.01C362.914 192.845 362.562 192.927 362.396 193.196C362.23 193.464 362.313 193.816 362.582 193.982C362.633 194.016 363.865 194.767 365.261 194.767Z" fill="#F97853"/>
<path d="M386.898 170.447H384.309C384.595 167.848 385.005 163.27 382.871 162.614C376.125 160.542 384.867 155.775 381.822 153.398C378.777 151.016 371.198 152.037 365.927 151.866C360.624 151.694 352.101 151.769 350.033 152.249C347.959 152.723 349.096 156.166 349.856 158.834C350.622 161.496 347.314 164.444 346.76 167.204C346.601 167.996 346.634 169.172 346.761 170.447H344.603C344.347 167.089 344.309 163.963 344.355 161.428C344.441 156.99 346.863 152.933 350.725 150.745C361.185 144.815 372.222 147.026 379.488 149.82C384.532 151.756 387.76 156.709 387.503 162.096C387.38 164.657 387.19 167.569 386.898 170.447Z" fill="#18315B"/>
<path d="M356.347 178.645C352.781 178.645 349.88 175.744 349.88 172.178C349.88 168.612 352.781 165.711 356.347 165.711C359.913 165.711 362.814 168.612 362.814 172.178C362.814 175.744 359.913 178.645 356.347 178.645ZM356.347 166.719C353.337 166.719 350.888 169.168 350.888 172.178C350.888 175.188 353.337 177.637 356.347 177.637C359.357 177.637 361.806 175.188 361.806 172.178C361.806 169.168 359.357 166.719 356.347 166.719Z" fill="white"/>
<path d="M374.024 178.645C370.458 178.645 367.557 175.744 367.557 172.178C367.557 168.612 370.458 165.711 374.024 165.711C377.59 165.711 380.491 168.612 380.491 172.178C380.491 175.744 377.59 178.645 374.024 178.645ZM374.024 166.719C371.014 166.719 368.565 169.168 368.565 172.178C368.565 175.188 371.014 177.637 374.024 177.637C377.034 177.637 379.483 175.188 379.483 172.178C379.483 169.168 377.034 166.719 374.024 166.719Z" fill="white"/>
<path d="M350.973 170.095C350.845 170.095 350.716 170.046 350.618 169.949C350.589 169.92 347.651 167.07 343.797 167.969C343.527 168.033 343.255 167.864 343.192 167.593C343.129 167.322 343.297 167.051 343.568 166.988C347.975 165.96 351.193 169.1 351.328 169.235C351.525 169.431 351.526 169.751 351.33 169.948C351.232 170.046 351.102 170.095 350.973 170.095Z" fill="white"/>
<path d="M379.517 170.095C379.353 170.095 379.191 170.014 379.094 169.866C378.942 169.633 379.007 169.321 379.24 169.169C379.433 169.043 384.009 166.091 387.903 166.732C388.178 166.777 388.364 167.037 388.318 167.311C388.273 167.585 388.015 167.771 387.739 167.726C384.234 167.149 379.836 169.983 379.791 170.012C379.707 170.069 379.612 170.095 379.517 170.095Z" fill="white"/>
<path d="M367.912 170.726C367.901 170.71 366.703 169.091 365.128 169.091C363.569 169.091 362.486 170.708 362.476 170.724L361.632 170.173C361.688 170.088 363.017 168.083 365.128 168.083C367.223 168.083 368.669 170.053 368.729 170.137L367.912 170.726Z" fill="white"/>
<path d="M329.42 263.829C329.42 263.829 322.607 277.021 314.585 287.47C312.218 290.552 309.748 293.395 307.314 295.591C303.37 299.152 299.524 301.015 296.391 299.434C284.772 293.577 258.87 246.962 258.87 246.962L265.249 239.396C265.249 239.396 276.777 252.709 285.208 260.676C292.983 268.023 298.962 273.515 298.962 273.515C300.038 271.877 301.185 270.082 302.377 268.182C303.645 266.166 304.96 264.031 306.299 261.836C316.007 245.897 326.78 226.762 326.78 226.762L329.42 263.829Z" fill="#FFA681"/>
<path d="M314.585 287.47C312.218 290.552 309.748 293.395 307.314 295.591L302.377 268.182C303.645 266.166 304.96 264.031 306.299 261.836L314.585 287.47Z" fill="#F97853"/>
<path d="M326.778 226.762L303.494 263.382L311.309 295.591L330.577 264.217C330.577 264.217 332.913 242.753 326.778 226.762Z" fill="#006BDE"/>
<path d="M297.501 408.681C295.838 399.465 294.199 389.071 292.709 378.978C292.382 376.746 292.063 374.533 291.747 372.349C290.552 363.992 289.485 356.09 288.628 349.532C288.301 347.041 288.008 344.741 287.741 342.689C286.91 336.143 286.422 332.077 286.422 332.077L249.653 333.467L212.771 332.077C212.771 332.077 211.82 340.122 210.298 351.786C210.02 353.909 209.723 356.148 209.411 358.486C208.592 364.607 207.656 371.367 206.649 378.289C206.634 378.39 206.619 378.492 206.604 378.593C206.288 380.75 205.969 382.922 205.638 385.094C205.634 385.124 205.631 385.15 205.623 385.18V385.184C204.834 390.433 204.007 395.675 203.166 400.718C202.82 402.8 202.471 404.844 202.117 406.835C202.008 407.456 201.898 408.069 201.789 408.679H297.501V408.681Z" fill="#006BDE"/>
<path d="M221.247 343.121C221.247 345.035 219.696 346.587 217.782 346.587C215.868 346.587 214.316 345.035 214.316 343.121C214.316 341.207 215.868 339.656 217.782 339.656C219.696 339.656 221.247 341.207 221.247 343.121Z" fill="#264CBE"/>
<path d="M229.847 356.547C229.847 358.461 228.295 360.012 226.382 360.012C224.468 360.012 222.916 358.46 222.916 356.547C222.916 354.633 224.468 353.082 226.382 353.082C228.295 353.081 229.847 354.633 229.847 356.547Z" fill="#264CBE"/>
<path d="M246.766 349.616C246.766 351.53 245.214 353.081 243.301 353.081C241.387 353.081 239.836 351.529 239.836 349.616C239.836 347.702 241.387 346.151 243.301 346.151C245.215 346.151 246.766 347.702 246.766 349.616Z" fill="#264CBE"/>
<path d="M220.063 370.805C220.063 372.719 218.511 374.271 216.598 374.271C214.684 374.271 213.133 372.719 213.133 370.805C213.133 368.891 214.684 367.34 216.598 367.34C218.511 367.34 220.063 368.891 220.063 370.805Z" fill="#264CBE"/>
<path d="M241.205 369.323C241.205 371.237 239.654 372.788 237.74 372.788C235.826 372.788 234.275 371.237 234.275 369.323C234.275 367.409 235.827 365.858 237.74 365.858C239.653 365.858 241.205 367.409 241.205 369.323Z" fill="#264CBE"/>
<path d="M212.554 355.037C212.554 356.841 211.179 358.325 209.413 358.487C209.725 356.15 210.022 353.91 210.3 351.787C211.619 352.279 212.554 353.545 212.554 355.037Z" fill="#264CBE"/>
<path d="M275.658 389.683C275.658 391.597 274.107 393.148 272.193 393.148C270.279 393.148 268.727 391.596 268.727 389.683C268.727 387.769 270.279 386.217 272.193 386.217C274.106 386.217 275.658 387.769 275.658 389.683Z" fill="#264CBE"/>
<path d="M274.021 370.805C274.021 372.719 272.469 374.271 270.556 374.271C268.642 374.271 267.091 372.719 267.091 370.805C267.091 368.891 268.643 367.34 270.556 367.34C272.469 367.34 274.021 368.891 274.021 370.805Z" fill="#264CBE"/>
<path d="M292.709 378.977C292.292 379.154 291.83 379.251 291.349 379.251C289.436 379.251 287.884 377.699 287.884 375.786C287.884 373.873 289.436 372.322 291.349 372.322C291.484 372.322 291.616 372.329 291.747 372.348C292.063 374.532 292.382 376.745 292.709 378.977Z" fill="#264CBE"/>
<path d="M277.486 403.518C277.486 405.432 275.934 406.983 274.021 406.983C272.107 406.983 270.556 405.432 270.556 403.518C270.556 401.604 272.107 400.052 274.021 400.052C275.934 400.052 277.486 401.604 277.486 403.518Z" fill="#264CBE"/>
<path d="M292.309 397.986C292.309 399.9 290.757 401.451 288.843 401.451C286.929 401.451 285.378 399.899 285.378 397.986C285.378 396.072 286.929 394.521 288.843 394.521C290.758 394.52 292.309 396.072 292.309 397.986Z" fill="#264CBE"/>
<path d="M261.465 408.681C260.842 407.77 259.797 407.171 258.609 407.171C257.421 407.171 256.376 407.77 255.753 408.681H261.465Z" fill="#264CBE"/>
<path d="M217.782 392.697C217.782 394.611 216.23 396.162 214.316 396.162C212.402 396.162 210.851 394.611 210.851 392.697C210.851 390.783 212.402 389.231 214.316 389.231C216.231 389.231 217.782 390.783 217.782 392.697Z" fill="#264CBE"/>
<path d="M208.639 381.75C208.639 383.509 207.328 384.963 205.625 385.181C205.633 385.151 205.636 385.125 205.64 385.095C205.971 382.923 206.29 380.751 206.606 378.594C207.804 379.143 208.639 380.349 208.639 381.75Z" fill="#264CBE"/>
<path d="M204.588 403.515C204.588 405.082 203.547 406.405 202.119 406.837C202.472 404.846 202.822 402.801 203.168 400.72C204.028 401.35 204.588 402.369 204.588 403.515Z" fill="#264CBE"/>
<path d="M226.382 404.982C226.382 406.896 224.83 408.448 222.916 408.448C221.002 408.448 219.451 406.896 219.451 404.982C219.451 403.068 221.003 401.517 222.916 401.517C224.83 401.516 226.382 403.068 226.382 404.982Z" fill="#264CBE"/>
<path d="M244.67 402.268C244.67 404.182 243.118 405.734 241.205 405.734C239.292 405.734 237.74 404.182 237.74 402.268C237.74 400.354 239.291 398.803 241.205 398.803C243.119 398.803 244.67 400.354 244.67 402.268Z" fill="#264CBE"/>
<path d="M231.623 385.229C231.623 387.143 230.071 388.695 228.157 388.695C226.243 388.695 224.692 387.143 224.692 385.229C224.692 383.315 226.243 381.764 228.157 381.764C230.071 381.764 231.623 383.316 231.623 385.229Z" fill="#264CBE"/>
<path d="M250.232 381.764C250.232 383.678 248.681 385.229 246.767 385.229C244.853 385.229 243.302 383.678 243.302 381.764C243.302 379.85 244.854 378.299 246.767 378.299C248.68 378.299 250.232 379.85 250.232 381.764Z" fill="#264CBE"/>
<path d="M258.609 363.478C258.609 365.392 257.058 366.943 255.144 366.943C253.23 366.943 251.678 365.391 251.678 363.478C251.678 361.564 253.23 360.012 255.144 360.012C257.057 360.012 258.609 361.564 258.609 363.478Z" fill="#264CBE"/>
<path d="M288.628 349.532C288.388 349.588 288.14 349.615 287.884 349.615C285.967 349.615 284.419 348.063 284.419 346.15C284.419 344.286 285.892 342.761 287.741 342.689C288.008 344.741 288.302 347.041 288.628 349.532Z" fill="#264CBE"/>
<path d="M270.555 349.616C270.555 351.53 269.003 353.081 267.09 353.081C265.176 353.081 263.625 351.529 263.625 349.616C263.625 347.702 265.176 346.151 267.09 346.151C269.004 346.151 270.555 347.702 270.555 349.616Z" fill="#264CBE"/>
<path d="M283.248 361.966C283.248 363.88 281.697 365.431 279.783 365.431C277.869 365.431 276.318 363.879 276.318 361.966C276.318 360.052 277.87 358.5 279.783 358.5C281.696 358.5 283.248 360.052 283.248 361.966Z" fill="#264CBE"/>
<path d="M262.074 392.697C262.074 394.611 260.522 396.162 258.609 396.162C256.695 396.162 255.144 394.611 255.144 392.697C255.144 390.783 256.695 389.231 258.609 389.231C260.523 389.231 262.074 390.783 262.074 392.697Z" fill="#264CBE"/>
<path d="M288.659 332.987C269.262 345.65 233.647 344.658 211.266 332.987C213.404 319.67 216.219 306.337 215.614 288.613C215.546 286.67 215.464 284.739 215.366 282.826C215.28 281.161 215.182 279.508 215.077 277.873C213.145 248.386 208.114 224.277 210.586 221.162C211.665 219.798 213.464 218.325 215.685 216.818C216.557 216.224 217.489 215.623 218.473 215.022C220.795 213.605 223.377 212.177 225.969 210.787C232.12 207.503 238.365 204.455 241.496 202.374C244.6 203.727 247.072 204.467 249.737 204.452C249.808 204.452 249.887 204.452 249.966 204.444C250.038 204.452 250.116 204.452 250.188 204.452C252.852 204.467 255.325 203.727 258.432 202.374C261.337 204.306 266.804 207 272.384 209.938C276.484 212.099 280.643 214.391 283.882 216.615C286.001 218.069 287.734 219.497 288.793 220.835C290.018 222.379 289.503 229.151 288.455 239.184C287.418 249.055 285.866 262.091 284.927 276.419C284.668 280.398 284.454 284.475 284.311 288.613C283.71 306.338 286.521 319.67 288.659 332.987Z" fill="#009CF8"/>
<path d="M276.797 318.26H276.794C261.174 318.191 247.842 311.084 239.408 305.133C230.287 298.698 224.759 292.177 224.704 292.111C224.437 291.794 224.478 291.319 224.795 291.052C225.113 290.785 225.587 290.826 225.854 291.143C225.908 291.207 231.335 297.604 240.308 303.928C248.558 309.743 261.587 316.689 276.799 316.756C277.214 316.758 277.549 317.096 277.547 317.511C277.547 317.926 277.21 318.26 276.797 318.26Z" fill="#006BDE"/>
<path d="M266.456 309.167C253.157 306.553 241.384 296.367 240.85 295.899C240.538 295.625 240.506 295.151 240.779 294.839C241.052 294.526 241.527 294.496 241.84 294.768C241.978 294.889 255.832 306.868 269.949 308.157C270.369 308.191 270.667 308.561 270.629 308.973C270.591 309.386 270.226 309.691 269.812 309.653C268.686 309.55 267.565 309.385 266.456 309.167Z" fill="#006BDE"/>
<path d="M246.766 240.36C246.412 240.36 246.097 240.109 246.028 239.748C245.951 239.34 246.219 238.947 246.626 238.869C265.669 235.255 271.409 223.004 271.465 222.881C271.636 222.503 272.081 222.335 272.46 222.506C272.838 222.677 273.006 223.122 272.835 223.5C272.594 224.033 266.71 236.588 246.907 240.345C246.859 240.355 246.812 240.36 246.766 240.36Z" fill="#006BDE"/>
<path d="M272.383 209.939C268.603 218.561 259.311 227.489 247.227 225.401C235.525 223.378 229.975 217.189 225.97 210.787C232.122 207.502 238.368 204.458 241.496 202.375C244.6 203.726 247.073 204.466 249.735 204.454C249.807 204.454 249.888 204.454 249.964 204.446C250.036 204.454 250.117 204.454 250.189 204.454C252.851 204.466 255.324 203.726 258.433 202.375C261.337 204.305 266.806 206.999 272.383 209.939Z" fill="#FFA681"/>
<path d="M262.281 203.006C261.947 203.002 261.682 203.27 261.679 203.6C261.675 204.085 261.477 215.481 251.247 216.364C241.758 217.189 237.83 208.105 236.617 204.337C236.546 204.116 236.341 203.968 236.109 203.968H235.997C235.632 203.968 235.374 204.324 235.489 204.67C236.784 208.558 240.92 217.947 250.587 217.602C250.838 217.593 251.092 217.577 251.35 217.555C262.672 216.578 262.874 203.737 262.875 203.607C262.877 203.277 262.611 203.008 262.281 203.006Z" fill="white"/>
<path d="M269.513 142.43C269.513 142.43 278.656 156.592 277.654 171.343C276.652 186.094 279.002 203.122 265.802 202.374C252.603 201.626 229.059 207.666 221.576 196.177C214.093 184.689 269.513 142.43 269.513 142.43Z" fill="#18315B"/>
<path d="M272.901 168.47C272.901 168.47 275.274 189.852 265.128 195.739C254.982 201.626 247.639 195.053 247.639 195.053C247.639 195.053 269.026 165.25 272.901 168.47Z" fill="#000B29"/>
<path d="M230.757 168.371C230.757 168.371 227.114 163.514 224.405 167.53C221.696 171.547 225.526 183.41 232.158 180.514L230.757 168.371Z" fill="#F97853"/>
<path d="M230.71 176.848C230.465 176.848 230.24 176.686 230.17 176.439C229.142 172.776 225.348 171.292 225.309 171.277C225.02 171.167 224.875 170.843 224.984 170.554C225.094 170.265 225.417 170.119 225.706 170.228C225.883 170.295 230.065 171.918 231.249 176.136C231.332 176.434 231.159 176.743 230.861 176.827C230.811 176.841 230.76 176.848 230.71 176.848Z" fill="#EA5143"/>
<path d="M226.879 175.003C226.775 175.003 226.67 174.974 226.576 174.914C226.316 174.746 226.241 174.4 226.408 174.139C226.436 174.096 227.107 173.072 228.512 172.443C228.793 172.316 229.126 172.443 229.252 172.726C229.378 173.008 229.252 173.34 228.969 173.466C227.883 173.952 227.355 174.738 227.35 174.746C227.244 174.913 227.064 175.003 226.879 175.003Z" fill="#EA5143"/>
<path d="M268.302 168.371C268.302 168.371 271.945 163.514 274.654 167.53C277.363 171.547 273.533 183.41 266.901 180.514L268.302 168.371Z" fill="#F97853"/>
<path d="M268.348 176.848C268.593 176.848 268.818 176.686 268.888 176.439C269.916 172.776 273.71 171.292 273.749 171.277C274.038 171.167 274.183 170.843 274.074 170.554C273.964 170.265 273.641 170.119 273.352 170.228C273.175 170.295 268.993 171.918 267.809 176.136C267.726 176.434 267.899 176.743 268.197 176.827C268.248 176.841 268.299 176.848 268.348 176.848Z" fill="#EA5143"/>
<path d="M272.179 175.003C272.283 175.003 272.388 174.974 272.482 174.914C272.742 174.746 272.817 174.4 272.65 174.139C272.622 174.096 271.951 173.072 270.546 172.443C270.265 172.316 269.932 172.443 269.806 172.726C269.68 173.008 269.806 173.34 270.089 173.466C271.175 173.952 271.703 174.738 271.708 174.746C271.814 174.913 271.995 175.003 272.179 175.003Z" fill="#EA5143"/>
<path d="M258.497 190.577V202.375C258.497 202.375 254.978 208.383 250.22 208.793C245.467 209.208 241.243 203.62 241.243 203.62V191.407L258.497 190.577Z" fill="#FFA681"/>
<path d="M258.497 190.577V195.812C255.304 199.355 249.636 200.61 241.244 199.372L241.243 191.407L258.497 190.577Z" fill="#F97853"/>
<path d="M270.936 160.277C270.717 164.862 270.28 170.595 269.406 175.18C269.187 176.323 268.941 177.399 268.666 178.364C266.183 187.057 259.973 201.966 242.587 195.756C234.908 193.015 231.349 184.462 229.763 175.764C228.687 169.856 228.524 163.887 228.603 159.622C228.687 155.267 231.063 151.288 234.852 149.141C245.114 143.323 255.943 145.492 263.072 148.233C268.021 150.133 271.188 154.992 270.936 160.277Z" fill="#FFA681"/>
<path d="M241.873 169.063C241.873 170.322 241.224 171.344 240.423 171.344C239.622 171.344 238.973 170.323 238.973 169.063C238.973 167.804 239.622 166.783 240.423 166.783C241.223 166.783 241.873 167.804 241.873 169.063Z" fill="#18315B"/>
<path d="M259.775 169.063C259.775 170.322 259.126 171.344 258.325 171.344C257.524 171.344 256.875 170.323 256.875 169.063C256.875 167.804 257.524 166.783 258.325 166.783C259.126 166.783 259.775 167.804 259.775 169.063Z" fill="#18315B"/>
<path d="M237.551 162.274C238.755 161.934 241.187 161.352 243.753 161.345C244.428 161.343 244.945 161.943 244.826 162.608L244.823 162.625C244.728 163.156 244.253 163.531 243.714 163.506C241.968 163.425 237.386 163.67 235.222 164.547C235.178 164.171 235.4 163.759 235.715 163.394C236.193 162.839 236.847 162.473 237.551 162.274Z" fill="#18315B"/>
<path d="M260.976 162.321C259.771 161.981 257.34 161.399 254.774 161.392C254.099 161.39 253.582 161.99 253.701 162.655L253.704 162.672C253.799 163.203 254.274 163.578 254.812 163.553C256.558 163.472 261.14 163.717 263.304 164.594C263.348 164.218 263.126 163.806 262.811 163.44C262.334 162.885 261.679 162.519 260.976 162.321Z" fill="#18315B"/>
<path d="M249.724 179.467C249.295 179.467 248.864 179.391 248.505 179.176C248.178 178.98 247.77 178.583 247.69 177.808C247.477 175.748 248.004 169.291 248.027 169.017C248.052 168.708 248.323 168.479 248.632 168.504C248.941 168.529 249.17 168.8 249.145 169.109C249.139 169.175 248.604 175.736 248.806 177.693C248.841 178.033 248.98 178.154 249.082 178.215C249.608 178.53 250.824 178.208 251.33 178.003C251.616 177.885 251.944 178.024 252.06 178.31C252.177 178.596 252.04 178.923 251.753 179.04C251.607 179.099 250.67 179.467 249.724 179.467Z" fill="#F97853"/>
<path d="M242.606 183.006C243.03 185.138 244.438 189.06 249.182 189.06C253.938 189.06 255.272 185.476 255.73 183.006H242.606Z" fill="white"/>
<path d="M249.115 192.331C247.746 192.331 246.537 191.594 246.486 191.562C246.223 191.399 246.141 191.054 246.304 190.791C246.466 190.528 246.811 190.447 247.074 190.608C247.084 190.614 248.07 191.21 249.115 191.21C250.245 191.21 251.258 190.611 251.268 190.605C251.534 190.446 251.877 190.531 252.037 190.796C252.197 191.06 252.112 191.404 251.848 191.564C251.795 191.596 250.565 192.331 249.115 192.331Z" fill="#F97853"/>
<path d="M273.193 159.364C273.013 159.875 272.513 160.202 271.844 160.397C271.893 161.633 271.763 163.12 271.641 164.545C270.949 172.646 268.906 174.068 268.444 172.065C268.14 170.735 268.158 163.106 268.305 160.618C266.704 160.513 265.336 160.246 265.336 160.246L263.457 152.381L262.799 160.148C259.981 161.129 253.405 159.558 253.405 159.558L251.199 151.806L249.835 159.265C245.608 161.324 240.324 159.953 240.324 159.953L239.11 151.908L236.307 159.953C236.307 159.953 227.289 163.188 227.191 159.953C227.131 158.07 228.51 152.768 229.675 148.661C230.945 144.182 233.887 140.398 237.867 138.264C249.053 132.259 260.883 135.453 264.941 137.877C273.546 143.014 273.193 159.364 273.193 159.364Z" fill="#18315B"/>
<path d="M232.158 143.029C232.158 143.029 224.734 151.859 222.291 167.63C219.848 183.401 216.466 195.053 225.97 200.261C236.256 205.897 235.365 194.338 235.217 191.196C235.069 188.054 226.32 179.467 232.158 155.281C234.043 147.473 232.158 143.029 232.158 143.029Z" fill="#18315B"/>
<path d="M230.423 175.619C230.423 175.619 230.423 175.627 230.423 175.638C230.427 175.755 230.434 176.382 230.479 177.363C230.502 177.972 230.539 178.712 230.595 179.554C230.945 184.867 231.978 194.044 235.014 197.226C236.213 198.485 238.524 199.116 241.244 199.372V195.197C238.377 193.837 236.141 191.601 234.409 188.85C233.338 186.531 231.493 182.902 230.629 177.194L230.423 175.619Z" fill="#000B29"/>
<path d="M271.07 180.781C271.07 181.506 270.482 182.094 269.757 182.094C269.032 182.094 268.444 181.506 268.444 180.781C268.444 180.056 269.032 179.468 269.757 179.468C270.482 179.468 271.07 180.055 271.07 180.781Z" fill="white"/>
<path d="M297.83 279.702C294.111 290.35 277.453 289.575 258.481 283.754C258.454 283.746 258.426 283.736 258.399 283.729C258.339 283.712 258.282 283.692 258.222 283.674L255.612 282.842C255.252 282.725 254.89 282.605 254.53 282.482C252.485 281.797 250.426 281.057 248.358 280.272C241.579 277.697 234.748 274.645 228.306 271.391L228.351 271.279L230.291 266.24L230.953 264.525C230.953 264.525 266.125 268.357 283.809 264.66C284.109 264.597 284.401 264.535 284.689 264.468C284.619 264.076 284.597 263.675 284.487 263.301C275.117 231.401 285.364 225.285 288.794 220.836C288.794 220.834 304.852 259.6 297.83 279.702Z" fill="#009CF8"/>
<path d="M292.099 269.829C291.994 269.879 291.882 269.904 291.771 269.904C291.494 269.904 291.226 269.749 291.096 269.484C289.756 266.739 285.207 265.107 283.81 264.66C284.11 264.597 284.402 264.535 284.69 264.468C284.62 264.076 284.553 263.686 284.488 263.301C286.265 263.888 290.907 265.678 292.444 268.828C292.626 269.196 292.471 269.646 292.099 269.829Z" fill="#006BDE"/>
<path d="M242.837 268.492C235.659 268.492 229.83 268.079 229.322 268.042C228.909 268.012 228.599 267.653 228.629 267.24C228.659 266.827 229.018 266.52 229.432 266.547C229.697 266.566 256.08 268.432 266.482 264.213C266.865 264.058 267.303 264.242 267.459 264.626C267.614 265.01 267.43 265.447 267.046 265.603C261.287 267.938 251.156 268.492 242.837 268.492Z" fill="#006BDE"/>
<path d="M255.612 282.841C255.615 282.841 255.615 282.841 255.615 282.841C261.634 281.181 267.106 279.564 270.265 278.552C274.652 277.145 278.281 272.711 279.931 268.941C280.096 268.561 280.538 268.389 280.918 268.556C281.298 268.721 281.47 269.163 281.305 269.543C279.52 273.62 275.556 278.429 270.722 279.981C268.429 280.716 264.927 281.766 260.88 282.921C259.155 283.415 257.321 283.387 255.612 282.841Z" fill="#006BDE"/>
<path d="M271.837 277.685C217.481 295.992 200.759 284.011 200.759 284.011C197.1 250.919 210.585 221.161 210.585 221.161C214.569 227.73 219.074 239.196 219.074 239.196L220.264 264.562L220.174 265.267L220.131 265.599L219.906 267.334L219.901 267.369C220.016 267.394 220.133 267.419 220.251 267.444C236.693 270.913 266.763 267.037 266.763 267.037L271.837 277.685Z" fill="#009CF8"/>
<path d="M220.251 267.444C217.316 269.904 214.529 272.738 212.045 275.995C211.795 276.325 211.323 276.39 210.993 276.138C210.663 275.888 210.601 275.418 210.848 275.088C210.851 275.088 210.851 275.085 210.851 275.085C213.643 271.418 216.807 268.279 220.132 265.599L219.907 267.334L219.902 267.369C220.016 267.394 220.133 267.419 220.251 267.444Z" fill="#006BDE"/>
<path d="M266.763 267.037C266.763 267.037 272.781 253.367 281.93 254.584L284.689 264.468C279.681 266.595 278.948 275.182 271.838 277.685L266.763 267.037Z" fill="#FFA681"/>
<path d="M230.955 264.525C230.955 264.525 227.155 255.605 217.153 253.016C207.151 250.426 200.779 255.14 200.108 256.918C199.437 258.697 203.88 256.997 203.88 256.997C203.88 256.997 200.986 257.816 199.326 260.536C197.666 263.256 203.367 260.321 203.367 260.321C203.367 260.321 199.279 262.113 198.759 263.774C198.239 265.435 203.631 262.629 204.644 262.682C204.644 262.682 199.829 264.596 199.862 266.31C199.895 268.024 205.393 265.229 209.498 265.45C213.604 265.671 219.899 267.372 219.899 267.372C223.259 268.011 226.47 268.485 229.375 268.619L230.955 264.525Z" fill="#FFA681"/>
<path d="M327.535 125.831C323.833 125.831 320.821 122.819 320.821 119.117C320.821 115.415 323.833 112.403 327.535 112.403C331.237 112.403 334.249 115.415 334.249 119.117C334.249 122.819 331.237 125.831 327.535 125.831ZM327.535 114.51C324.994 114.51 322.927 116.577 322.927 119.118C322.927 121.659 324.994 123.725 327.535 123.725C330.076 123.725 332.142 121.658 332.142 119.118C332.143 116.577 330.076 114.51 327.535 114.51Z" fill="#006BDE"/>
<path d="M386.11 114.425C382.408 114.425 379.396 111.413 379.396 107.711C379.396 104.009 382.408 100.997 386.11 100.997C389.812 100.997 392.824 104.009 392.824 107.711C392.824 111.413 389.812 114.425 386.11 114.425ZM386.11 103.104C383.569 103.104 381.502 105.171 381.502 107.712C381.502 110.253 383.569 112.32 386.11 112.32C388.65 112.32 390.717 110.253 390.717 107.712C390.718 105.17 388.651 103.104 386.11 103.104Z" fill="#009CF8"/>
<path d="M394.405 136.242C393.824 136.242 393.352 135.771 393.352 135.189V130.545C393.352 129.963 393.824 129.492 394.405 129.492C394.987 129.492 395.458 129.963 395.458 130.545V135.189C395.458 135.77 394.987 136.242 394.405 136.242Z" fill="#006BDE"/>
<path d="M394.405 144.369C393.824 144.369 393.352 143.898 393.352 143.316V138.672C393.352 138.09 393.824 137.619 394.405 137.619C394.987 137.619 395.458 138.09 395.458 138.672V143.316C395.458 143.898 394.987 144.369 394.405 144.369Z" fill="#006BDE"/>
<path d="M400.924 137.983H396.752C396.17 137.983 395.699 137.512 395.699 136.93C395.699 136.348 396.171 135.877 396.752 135.877H400.924C401.505 135.877 401.977 136.348 401.977 136.93C401.977 137.512 401.506 137.983 400.924 137.983Z" fill="#006BDE"/>
<path d="M392.058 137.983H387.886C387.305 137.983 386.833 137.512 386.833 136.93C386.833 136.348 387.305 135.877 387.886 135.877H392.058C392.64 135.877 393.111 136.348 393.111 136.93C393.111 137.512 392.64 137.983 392.058 137.983Z" fill="#006BDE"/>
<path d="M358.943 108.107C358.361 108.107 357.89 107.635 357.89 107.054V102.41C357.89 101.828 358.362 101.357 358.943 101.357C359.524 101.357 359.996 101.828 359.996 102.41V107.054C359.996 107.635 359.525 108.107 358.943 108.107Z" fill="#1C31B5"/>
<path d="M358.943 116.234C358.361 116.234 357.89 115.763 357.89 115.181V110.537C357.89 109.955 358.362 109.484 358.943 109.484C359.524 109.484 359.996 109.955 359.996 110.537V115.181C359.996 115.763 359.525 116.234 358.943 116.234Z" fill="#1C31B5"/>
<path d="M365.462 109.849H361.29C360.709 109.849 360.237 109.377 360.237 108.796C360.237 108.214 360.709 107.743 361.29 107.743H365.462C366.044 107.743 366.515 108.214 366.515 108.796C366.515 109.377 366.044 109.849 365.462 109.849Z" fill="#1C31B5"/>
<path d="M356.596 109.849H352.424C351.842 109.849 351.371 109.377 351.371 108.796C351.371 108.214 351.843 107.743 352.424 107.743H356.596C357.178 107.743 357.649 108.214 357.649 108.796C357.65 109.377 357.178 109.849 356.596 109.849Z" fill="#1C31B5"/>
<path d="M87.568 102.082C87.568 98.38 90.58 95.368 94.282 95.368C97.984 95.368 100.996 98.38 100.996 102.082C100.996 105.784 97.984 108.796 94.282 108.796C90.58 108.795 87.568 105.784 87.568 102.082ZM89.675 102.082C89.675 104.623 91.742 106.689 94.282 106.689C96.823 106.689 98.889 104.622 98.889 102.082C98.889 99.541 96.822 97.474 94.282 97.474C91.742 97.474 89.675 99.541 89.675 102.082Z" fill="#006BDE"/>
<path d="M60.607 127.672C60.607 123.97 63.619 120.958 67.321 120.958C71.023 120.958 74.035 123.97 74.035 127.672C74.035 131.374 71.023 134.386 67.321 134.386C63.618 134.386 60.607 131.374 60.607 127.672ZM62.713 127.672C62.713 130.213 64.78 132.279 67.321 132.279C69.862 132.279 71.928 130.212 71.928 127.672C71.928 125.131 69.861 123.064 67.321 123.064C64.78 123.064 62.713 125.131 62.713 127.672Z" fill="#009CF8"/>
<path d="M46.648 137.093C47.23 137.093 47.701 136.622 47.701 136.04V131.396C47.701 130.814 47.229 130.343 46.648 130.343C46.067 130.343 45.595 130.814 45.595 131.396V136.04C45.595 136.622 46.067 137.093 46.648 137.093Z" fill="#006BDE"/>
<path d="M46.648 145.221C47.23 145.221 47.701 144.75 47.701 144.168V139.524C47.701 138.942 47.229 138.471 46.648 138.471C46.067 138.471 45.595 138.942 45.595 139.524V144.168C45.595 144.749 46.067 145.221 46.648 145.221Z" fill="#006BDE"/>
<path d="M40.129 138.835H44.301C44.883 138.835 45.354 138.363 45.354 137.782C45.354 137.2 44.882 136.729 44.301 136.729H40.129C39.548 136.729 39.076 137.2 39.076 137.782C39.076 138.363 39.548 138.835 40.129 138.835Z" fill="#006BDE"/>
<path d="M48.995 138.835H53.167C53.749 138.835 54.22 138.363 54.22 137.782C54.22 137.2 53.748 136.729 53.167 136.729H48.995C48.413 136.729 47.942 137.2 47.942 137.782C47.942 138.363 48.414 138.835 48.995 138.835Z" fill="#006BDE"/>
<path d="M70.915 101.393C71.496 101.393 71.968 100.922 71.968 100.34V95.696C71.968 95.114 71.496 94.643 70.915 94.643C70.334 94.643 69.862 95.114 69.862 95.696V100.34C69.862 100.922 70.333 101.393 70.915 101.393Z" fill="#1C31B5"/>
<path d="M70.915 109.521C71.496 109.521 71.968 109.05 71.968 108.468V103.824C71.968 103.242 71.496 102.771 70.915 102.771C70.334 102.771 69.862 103.243 69.862 103.824V108.468C69.862 109.049 70.333 109.521 70.915 109.521Z" fill="#1C31B5"/>
<path d="M64.396 103.135H68.568C69.149 103.135 69.621 102.664 69.621 102.082C69.621 101.5 69.149 101.029 68.568 101.029H64.396C63.814 101.029 63.343 101.501 63.343 102.082C63.343 102.663 63.814 103.135 64.396 103.135Z" fill="#1C31B5"/>
<path d="M73.262 103.135H77.434C78.016 103.135 78.487 102.664 78.487 102.082C78.487 101.5 78.015 101.029 77.434 101.029H73.262C72.68 101.029 72.209 101.501 72.209 102.082C72.209 102.663 72.68 103.135 73.262 103.135Z" fill="#1C31B5"/>
<path d="M271.69 102.564C271.568 102.577 271.442 102.56 271.321 102.509C270.043 101.97 269.294 101.718 269.286 101.715C268.894 101.584 268.683 101.161 268.813 100.769C268.944 100.377 269.367 100.166 269.759 100.296C269.791 100.307 270.564 100.566 271.902 101.13C272.282 101.291 272.461 101.729 272.3 102.11C272.191 102.371 271.952 102.536 271.69 102.564Z" fill="#BBE2F2"/>
<path d="M309.799 142.673C310.308 144.03 310.784 145.429 311.215 146.832C311.322 147.179 311.659 147.393 312.008 147.356C312.055 147.351 312.103 147.341 312.15 147.327C312.545 147.206 312.766 146.787 312.645 146.393C312.205 144.961 311.719 143.533 311.2 142.149C311.055 141.763 310.626 141.567 310.238 141.711C309.85 141.855 309.654 142.286 309.799 142.673Z" fill="#BBE2F2"/>
<path d="M312.38 151.068C312.723 152.473 313.032 153.919 313.301 155.367C313.373 155.753 313.73 156.015 314.114 155.974C314.133 155.972 314.153 155.969 314.172 155.966C314.578 155.89 314.846 155.5 314.771 155.094C314.498 153.619 314.182 152.145 313.833 150.713C313.735 150.312 313.33 150.066 312.929 150.164C312.528 150.262 312.283 150.667 312.38 151.068Z" fill="#BBE2F2"/>
<path d="M315.534 173.65C315.905 173.611 316.196 173.3 316.202 172.918C316.225 171.418 316.214 169.912 316.17 168.443C316.158 168.03 315.813 167.706 315.4 167.718C314.982 167.733 314.663 168.075 314.675 168.488C314.719 169.934 314.729 171.417 314.707 172.895C314.701 173.308 315.03 173.648 315.443 173.654C315.474 173.655 315.504 173.653 315.534 173.65Z" fill="#BBE2F2"/>
<path d="M314.628 158.873C314.218 158.926 313.929 159.301 313.983 159.711C314.071 160.387 314.151 161.07 314.222 161.741C314.304 162.515 314.377 163.306 314.438 164.09C314.47 164.502 314.83 164.809 315.242 164.777C315.249 164.776 315.255 164.776 315.262 164.775C315.663 164.733 315.96 164.378 315.929 163.973C315.866 163.176 315.793 162.372 315.71 161.584C315.638 160.901 315.556 160.206 315.467 159.518C315.415 159.115 315.05 158.828 314.648 158.871C314.641 158.872 314.634 158.872 314.628 158.873Z" fill="#BBE2F2"/>
<path d="M308.131 138.61C308.266 138.913 308.579 139.081 308.892 139.048C308.968 139.04 309.045 139.02 309.119 138.987C309.496 138.818 309.665 138.376 309.496 137.999C308.887 136.637 308.227 135.279 307.535 133.964C307.343 133.598 306.891 133.458 306.525 133.65C306.16 133.842 306.019 134.294 306.211 134.66C306.889 135.948 307.534 137.276 308.131 138.61Z" fill="#BBE2F2"/>
<path d="M275.293 104.368C276.577 105.024 277.873 105.738 279.145 106.491C279.289 106.576 279.45 106.608 279.604 106.591C279.831 106.567 280.044 106.44 280.17 106.228C280.38 105.873 280.263 105.414 279.908 105.204C278.61 104.435 277.286 103.706 275.975 103.036C275.608 102.849 275.157 102.994 274.969 103.362C274.78 103.729 274.925 104.179 275.293 104.368Z" fill="#BBE2F2"/>
<path d="M286.437 111.409C286.595 111.53 286.786 111.578 286.969 111.558C287.166 111.537 287.355 111.438 287.485 111.268C287.736 110.94 287.673 110.47 287.344 110.22C286.16 109.316 284.934 108.436 283.7 107.603C283.357 107.372 282.893 107.462 282.662 107.805C282.431 108.147 282.521 108.612 282.864 108.843C284.074 109.659 285.276 110.523 286.437 111.409Z" fill="#BBE2F2"/>
<path d="M299.002 123.652C299.167 123.859 299.42 123.954 299.665 123.928C299.802 123.913 299.937 123.861 300.053 123.768C300.375 123.51 300.428 123.039 300.169 122.717C299.24 121.557 298.26 120.408 297.256 119.304C296.979 118.998 296.506 118.975 296.2 119.253C295.894 119.531 295.872 120.004 296.15 120.309C297.132 121.391 298.092 122.516 299.002 123.652Z" fill="#BBE2F2"/>
<path d="M293.095 117.15C293.261 117.311 293.482 117.38 293.696 117.358C293.864 117.34 294.026 117.266 294.153 117.136C294.441 116.84 294.434 116.367 294.139 116.079C293.076 115.044 291.962 114.025 290.829 113.048C290.516 112.778 290.044 112.814 289.775 113.126C289.505 113.439 289.54 113.911 289.853 114.18C290.962 115.137 292.053 116.136 293.095 117.15Z" fill="#BBE2F2"/>
<path d="M304.045 130.84C304.201 131.095 304.484 131.224 304.762 131.194C304.869 131.183 304.975 131.148 305.073 131.089C305.425 130.874 305.537 130.413 305.321 130.061C304.545 128.79 303.718 127.527 302.863 126.307C302.626 125.969 302.16 125.887 301.821 126.124C301.483 126.361 301.401 126.828 301.638 127.166C302.475 128.36 303.285 129.596 304.045 130.84Z" fill="#BBE2F2"/>
<path d="M271.675 97.448L274.948 85.328L234.85 85.672L271.675 97.448Z" fill="#009CF8"/>
<path d="M234.85 85.671L269.729 100.374L269.821 100.414L271.322 102.899L271.675 97.448L234.85 85.671Z" fill="#006BDE"/>
<path d="M271.322 102.899L268.071 102.387L269.821 100.414L271.322 102.899Z" fill="#006BDE"/>
<path d="M265.433 98.563L269.822 100.413L260.783 110.598L234.85 85.672L265.433 98.563Z" fill="#009CF8"/>
<path d="M456.055 416.312V417.043C456.055 421.257 452.637 424.675 448.421 424.675H52.473C48.256 424.675 44.841 421.257 44.841 417.043V416.312C44.841 412.098 48.256 408.68 52.473 408.68H448.421C452.638 408.681 456.055 412.098 456.055 416.312Z" fill="#1C31B5"/>
<path d="M456.055 416.312V416.677H44.841V416.312C44.841 412.098 48.256 408.68 52.473 408.68H448.421C452.638 408.681 456.055 412.098 456.055 416.312Z" fill="#006BDE"/>
<path d="M311.044 384.671H186.658C183.686 384.671 181.277 382.262 181.277 379.29V314.213C181.277 311.241 183.686 308.832 186.658 308.832H311.043C314.015 308.832 316.424 311.241 316.424 314.213V379.29C316.425 382.262 314.015 384.671 311.044 384.671Z" fill="#18315B"/>
<path d="M259.317 384.585H238.386V408.446H259.317V384.585Z" fill="#000B29"/>
<path d="M248.617 358.069C254.354 358.069 259.005 353.418 259.005 347.681C259.005 341.944 254.354 337.293 248.617 337.293C242.88 337.293 238.229 341.944 238.229 347.681C238.229 353.418 242.88 358.069 248.617 358.069Z" fill="#1D567E"/>
<path d="M275.51 408.445H221.522V406.626C221.522 402.956 224.497 399.98 228.167 399.98H268.864C272.534 399.98 275.509 402.955 275.509 406.626V408.445H275.51Z" fill="#18315B"/>
</g>
<defs>
<clipPath id="clip0_46_2">
<rect width="500" height="500" fill="white"/>
</clipPath>
</defs>
</svg>
