<svg width="224" height="84" viewBox="0 0 224 84" fill="none" xmlns="http://www.w3.org/2000/svg">
<path d="M11.844 70.396V80H10.472V72.006H10.388L7.07 80H5.908L2.604 72.006H2.534V80H1.288V70.396H3.444L6.538 77.956H6.594L9.702 70.396H11.844ZM17.1147 72.706C18.0573 72.706 18.7573 72.8927 19.2147 73.266C19.6813 73.6393 19.9147 74.1807 19.9147 74.89V78.6C19.9147 78.768 19.952 78.894 20.0267 78.978C20.1013 79.0527 20.1947 79.09 20.3067 79.09C20.5213 79.09 20.736 79.0247 20.9507 78.894V79.86C20.6333 80.0467 20.274 80.14 19.8727 80.14C19.4713 80.14 19.1727 80.028 18.9767 79.804C18.7807 79.5707 18.6733 79.2533 18.6547 78.852C18.076 79.7107 17.2407 80.14 16.1487 80.14C15.3647 80.14 14.7767 79.972 14.3847 79.636C14.002 79.2907 13.8107 78.7493 13.8107 78.012C13.8107 77.4333 13.96 76.9807 14.2587 76.654C14.5573 76.318 15.052 76.0753 15.7427 75.926C16.4333 75.7767 17.3853 75.702 18.5987 75.702V75.044C18.5987 74.568 18.4587 74.2367 18.1787 74.05C17.8987 73.854 17.4927 73.756 16.9607 73.756C16.4567 73.756 16.0647 73.854 15.7847 74.05C15.5047 74.246 15.3647 74.5213 15.3647 74.876V75.044H14.0767C14.058 74.9133 14.0487 74.7593 14.0487 74.582C14.0487 74.2553 14.1793 73.9473 14.4407 73.658C14.702 73.3687 15.0567 73.14 15.5047 72.972C15.9527 72.7947 16.4473 72.706 16.9887 72.706H17.1147ZM18.5987 76.724C17.6187 76.724 16.8767 76.7753 16.3727 76.878C15.878 76.9713 15.5467 77.116 15.3787 77.312C15.2107 77.508 15.1267 77.7787 15.1267 78.124C15.1267 78.768 15.6167 79.09 16.5967 79.09C16.942 79.09 17.2687 79.006 17.5767 78.838C17.8847 78.6607 18.132 78.4133 18.3187 78.096C18.5053 77.7787 18.5987 77.4147 18.5987 77.004V76.724ZM23.8061 69.92V76.836L26.9981 72.846H28.4401L25.6821 76.318L28.6221 80H27.0261L24.8841 77.34L23.8061 78.46V80H22.4901V69.92H23.8061ZM31.3263 69.92V71.138H29.9543V69.92H31.3263ZM31.2983 72.846V80H29.9823V72.846H31.2983ZM37.147 72.706C37.931 72.706 38.547 72.916 38.995 73.336C39.443 73.756 39.667 74.372 39.667 75.184V80H38.351V75.422C38.351 74.3113 37.847 73.756 36.839 73.756C36.503 73.756 36.1904 73.8447 35.901 74.022C35.6117 74.1993 35.3784 74.442 35.201 74.75C35.0237 75.0487 34.935 75.38 34.935 75.744V80H33.619V72.846H34.571L34.753 73.896C35.3504 73.1027 36.1484 72.706 37.147 72.706ZM48.4699 71.558C48.4699 72.034 48.3439 72.4353 48.0919 72.762C47.8399 73.0793 47.4899 73.2847 47.0419 73.378L47.0139 73.42C47.4805 73.8307 47.7139 74.344 47.7139 74.96C47.7139 75.632 47.4619 76.1733 46.9579 76.584C46.4539 76.9947 45.7679 77.2 44.8999 77.2H43.9479C43.6679 77.2 43.4345 77.2747 43.2479 77.424C43.0612 77.564 42.9679 77.746 42.9679 77.97C42.9679 78.194 43.0565 78.3713 43.2339 78.502C43.4112 78.6327 43.6492 78.698 43.9479 78.698H46.6499C47.2005 78.698 47.6392 78.8707 47.9659 79.216C48.3019 79.5613 48.4699 80 48.4699 80.532C48.4699 81.1667 48.2272 81.6753 47.7419 82.058C47.2659 82.4407 46.6219 82.632 45.8099 82.632H42.9959C42.6785 82.632 42.3845 82.548 42.1139 82.38C41.8525 82.212 41.6425 81.9973 41.4839 81.736C41.3345 81.484 41.2599 81.2227 41.2599 80.952C41.2599 80.56 41.3532 80.2193 41.5399 79.93C41.7359 79.6407 41.9925 79.426 42.3099 79.286C41.8805 79.0247 41.6659 78.6373 41.6659 78.124C41.6659 77.788 41.7639 77.4987 41.9599 77.256C42.1559 77.0133 42.4312 76.8313 42.7859 76.71C42.1605 76.3647 41.8479 75.7813 41.8479 74.96C41.8479 74.2693 42.0999 73.7233 42.6039 73.322C43.1172 72.9113 43.8265 72.706 44.7319 72.706H44.7879C45.3105 72.706 45.7865 72.7853 46.2159 72.944C46.8785 72.6173 47.2565 72.1553 47.3499 71.558H48.4699ZM44.7739 73.756C44.2792 73.756 43.8825 73.854 43.5839 74.05C43.2945 74.2367 43.1499 74.54 43.1499 74.96C43.1499 75.38 43.2945 75.6833 43.5839 75.87C43.8825 76.0567 44.2792 76.15 44.7739 76.15C45.2685 76.15 45.6652 76.0567 45.9639 75.87C46.2625 75.6833 46.4119 75.38 46.4119 74.96C46.4119 74.54 46.2625 74.2367 45.9639 74.05C45.6652 73.854 45.2685 73.756 44.7739 73.756ZM43.3739 79.958C43.1499 79.958 42.9585 80.0373 42.7999 80.196C42.6412 80.3547 42.5619 80.546 42.5619 80.77C42.5619 80.994 42.6412 81.1853 42.7999 81.344C42.9585 81.5027 43.1499 81.582 43.3739 81.582H46.0759C46.3745 81.582 46.6312 81.4933 46.8459 81.316C47.0605 81.148 47.1679 80.952 47.1679 80.728C47.1679 80.4947 47.0885 80.308 46.9299 80.168C46.7712 80.028 46.5472 79.958 46.2579 79.958H43.3739ZM54.6369 69.92V71.138H53.2649V69.92H54.6369ZM54.6089 72.846V80H53.2929V72.846H54.6089ZM60.4576 72.706C61.2416 72.706 61.8576 72.916 62.3056 73.336C62.7536 73.756 62.9776 74.372 62.9776 75.184V80H61.6616V75.422C61.6616 74.3113 61.1576 73.756 60.1496 73.756C59.8136 73.756 59.5009 73.8447 59.2116 74.022C58.9222 74.1993 58.6889 74.442 58.5116 74.75C58.3342 75.0487 58.2456 75.38 58.2456 75.744V80H56.9296V72.846H57.8816L58.0636 73.896C58.6609 73.1027 59.4589 72.706 60.4576 72.706ZM66.7 72.846H68.366V73.896H66.7V78.166C66.7 78.502 66.7654 78.7447 66.896 78.894C67.0267 79.0433 67.2274 79.118 67.498 79.118C67.7407 79.118 68.03 79.048 68.366 78.908V79.888C68.03 80.056 67.596 80.14 67.064 80.14C66.5134 80.14 66.0934 79.9767 65.804 79.65C65.524 79.3233 65.384 78.8053 65.384 78.096V73.896H64.6V72.846H65.426L65.874 70.564H66.7V72.846ZM72.8699 72.706C73.4579 72.706 73.9759 72.832 74.4239 73.084C74.8812 73.3267 75.2359 73.6767 75.4879 74.134C75.7399 74.5913 75.8659 75.1233 75.8659 75.73V76.724H70.8679C70.8866 77.48 71.0639 78.0633 71.3999 78.474C71.7359 78.8847 72.2352 79.09 72.8979 79.09C73.4859 79.09 73.9199 78.9173 74.1999 78.572C74.4799 78.2267 74.6199 77.816 74.6199 77.34H75.8659C75.8659 77.9 75.7352 78.39 75.4739 78.81C75.2219 79.23 74.8672 79.5567 74.4099 79.79C73.9619 80.0233 73.4486 80.14 72.8699 80.14H72.8139C71.8059 80.14 71.0079 79.818 70.4199 79.174C69.8412 78.5207 69.5519 77.6527 69.5519 76.57V76.29C69.5519 75.5807 69.6826 74.9553 69.9439 74.414C70.2052 73.8727 70.5786 73.4527 71.0639 73.154C71.5492 72.8553 72.1186 72.706 72.7719 72.706H72.8699ZM72.7999 73.756C72.2679 73.756 71.8339 73.9193 71.4979 74.246C71.1712 74.5727 70.9706 75.058 70.8959 75.702H74.5639V75.534C74.5639 75.002 74.4006 74.5727 74.0739 74.246C73.7566 73.9193 73.3319 73.756 72.7999 73.756ZM80.9992 72.706C81.6619 72.706 82.1799 72.9207 82.5532 73.35C82.9265 73.77 83.1132 74.302 83.1132 74.946L83.0712 75.478H81.9092V75.17C81.9092 74.89 81.8392 74.6427 81.6992 74.428C81.5592 74.2133 81.3819 74.05 81.1672 73.938C80.9525 73.8167 80.7379 73.756 80.5232 73.756C80.0752 73.756 79.7252 73.9333 79.4732 74.288C79.2212 74.6427 79.0952 75.1233 79.0952 75.73V80H77.7792V72.846H78.7172L78.9132 73.91C78.9692 73.7233 79.0952 73.5367 79.2912 73.35C79.4872 73.1633 79.7299 73.0093 80.0192 72.888C80.3179 72.7667 80.6445 72.706 80.9992 72.706ZM88.1705 72.706C88.9545 72.706 89.5705 72.916 90.0185 73.336C90.4665 73.756 90.6905 74.372 90.6905 75.184V80H89.3745V75.422C89.3745 74.3113 88.8705 73.756 87.8625 73.756C87.5265 73.756 87.2138 73.8447 86.9245 74.022C86.6351 74.1993 86.4018 74.442 86.2245 74.75C86.0471 75.0487 85.9585 75.38 85.9585 75.744V80H84.6425V72.846H85.5945L85.7765 73.896C86.3738 73.1027 87.1718 72.706 88.1705 72.706ZM95.8113 72.706C96.3993 72.706 96.9173 72.832 97.3653 73.084C97.8226 73.3267 98.1773 73.6767 98.4293 74.134C98.6813 74.5913 98.8073 75.1233 98.8073 75.73V76.724H93.8093C93.828 77.48 94.0053 78.0633 94.3413 78.474C94.6773 78.8847 95.1766 79.09 95.8393 79.09C96.4273 79.09 96.8613 78.9173 97.1413 78.572C97.4213 78.2267 97.5613 77.816 97.5613 77.34H98.8073C98.8073 77.9 98.6766 78.39 98.4153 78.81C98.1633 79.23 97.8086 79.5567 97.3513 79.79C96.9033 80.0233 96.39 80.14 95.8113 80.14H95.7553C94.7473 80.14 93.9493 79.818 93.3613 79.174C92.7826 78.5207 92.4933 77.6527 92.4933 76.57V76.29C92.4933 75.5807 92.624 74.9553 92.8853 74.414C93.1466 73.8727 93.52 73.4527 94.0053 73.154C94.4906 72.8553 95.06 72.706 95.7133 72.706H95.8113ZM95.7413 73.756C95.2093 73.756 94.7753 73.9193 94.4393 74.246C94.1126 74.5727 93.912 75.058 93.8373 75.702H97.5053V75.534C97.5053 75.002 97.342 74.5727 97.0153 74.246C96.698 73.9193 96.2733 73.756 95.7413 73.756ZM102.261 72.846H103.927V73.896H102.261V78.166C102.261 78.502 102.326 78.7447 102.457 78.894C102.587 79.0433 102.788 79.118 103.059 79.118C103.301 79.118 103.591 79.048 103.927 78.908V79.888C103.591 80.056 103.157 80.14 102.625 80.14C102.074 80.14 101.654 79.9767 101.365 79.65C101.085 79.3233 100.945 78.8053 100.945 78.096V73.896H100.161V72.846H100.987L101.435 70.564H102.261V72.846ZM111.848 72.706C112.436 72.706 112.954 72.832 113.402 73.084C113.86 73.3267 114.214 73.6767 114.466 74.134C114.718 74.5913 114.844 75.1233 114.844 75.73V76.724H109.846C109.865 77.48 110.042 78.0633 110.378 78.474C110.714 78.8847 111.214 79.09 111.876 79.09C112.464 79.09 112.898 78.9173 113.178 78.572C113.458 78.2267 113.598 77.816 113.598 77.34H114.844C114.844 77.9 114.714 78.39 114.452 78.81C114.2 79.23 113.846 79.5567 113.388 79.79C112.94 80.0233 112.427 80.14 111.848 80.14H111.792C110.784 80.14 109.986 79.818 109.398 79.174C108.82 78.5207 108.53 77.6527 108.53 76.57V76.29C108.53 75.5807 108.661 74.9553 108.922 74.414C109.184 73.8727 109.557 73.4527 110.042 73.154C110.528 72.8553 111.097 72.706 111.75 72.706H111.848ZM111.778 73.756C111.246 73.756 110.812 73.9193 110.476 74.246C110.15 74.5727 109.949 75.058 109.874 75.702H113.542V75.534C113.542 75.002 113.379 74.5727 113.052 74.246C112.735 73.9193 112.31 73.756 111.778 73.756ZM119.572 72.706C120.514 72.706 121.214 72.8927 121.672 73.266C122.138 73.6393 122.372 74.1807 122.372 74.89V78.6C122.372 78.768 122.409 78.894 122.484 78.978C122.558 79.0527 122.652 79.09 122.764 79.09C122.978 79.09 123.193 79.0247 123.408 78.894V79.86C123.09 80.0467 122.731 80.14 122.33 80.14C121.928 80.14 121.63 80.028 121.434 79.804C121.238 79.5707 121.13 79.2533 121.112 78.852C120.533 79.7107 119.698 80.14 118.606 80.14C117.822 80.14 117.234 79.972 116.842 79.636C116.459 79.2907 116.268 78.7493 116.268 78.012C116.268 77.4333 116.417 76.9807 116.716 76.654C117.014 76.318 117.509 76.0753 118.2 75.926C118.89 75.7767 119.842 75.702 121.056 75.702V75.044C121.056 74.568 120.916 74.2367 120.636 74.05C120.356 73.854 119.95 73.756 119.418 73.756C118.914 73.756 118.522 73.854 118.242 74.05C117.962 74.246 117.822 74.5213 117.822 74.876V75.044H116.534C116.515 74.9133 116.506 74.7593 116.506 74.582C116.506 74.2553 116.636 73.9473 116.898 73.658C117.159 73.3687 117.514 73.14 117.962 72.972C118.41 72.7947 118.904 72.706 119.446 72.706H119.572ZM121.056 76.724C120.076 76.724 119.334 76.7753 118.83 76.878C118.335 76.9713 118.004 77.116 117.836 77.312C117.668 77.508 117.584 77.7787 117.584 78.124C117.584 78.768 118.074 79.09 119.054 79.09C119.399 79.09 119.726 79.006 120.034 78.838C120.342 78.6607 120.589 78.4133 120.776 78.096C120.962 77.7787 121.056 77.4147 121.056 77.004V76.724ZM127.677 72.706C128.209 72.706 128.68 72.79 129.091 72.958C129.511 73.126 129.833 73.3593 130.057 73.658C130.29 73.9567 130.407 74.288 130.407 74.652L130.393 74.904H129.091V74.778C129.091 74.0967 128.564 73.756 127.509 73.756C126.464 73.756 125.941 74.0687 125.941 74.694C125.941 74.9833 126.09 75.198 126.389 75.338C126.688 75.4687 127.145 75.5947 127.761 75.716C128.349 75.8373 128.83 75.9633 129.203 76.094C129.586 76.2247 129.908 76.43 130.169 76.71C130.44 76.99 130.575 77.368 130.575 77.844C130.575 78.6093 130.314 79.1833 129.791 79.566C129.268 79.9487 128.517 80.14 127.537 80.14H127.327C126.739 80.14 126.226 80.0513 125.787 79.874C125.348 79.6873 125.008 79.44 124.765 79.132C124.532 78.8147 124.42 78.46 124.429 78.068V77.76H125.731V77.9C125.731 78.6933 126.398 79.09 127.733 79.09C128.125 79.09 128.475 79.0013 128.783 78.824C129.1 78.6467 129.259 78.404 129.259 78.096C129.259 77.8347 129.17 77.6293 128.993 77.48C128.825 77.3307 128.615 77.2187 128.363 77.144C128.111 77.0693 127.761 76.9947 127.313 76.92C126.734 76.808 126.268 76.696 125.913 76.584C125.558 76.4627 125.255 76.262 125.003 75.982C124.751 75.702 124.625 75.3193 124.625 74.834C124.625 74.1713 124.886 73.6533 125.409 73.28C125.932 72.8973 126.646 72.706 127.551 72.706H127.677ZM135.59 79.72C135.272 80.504 134.978 81.1013 134.708 81.512C134.437 81.932 134.162 82.2167 133.882 82.366C133.602 82.5247 133.275 82.604 132.902 82.604C132.556 82.604 132.23 82.5387 131.922 82.408V81.33C132.23 81.4607 132.463 81.526 132.622 81.526C133.004 81.526 133.322 81.3953 133.574 81.134C133.835 80.882 134.05 80.4807 134.218 79.93L131.432 72.846H132.832L134.89 78.124H134.946L136.976 72.846H138.264L135.59 79.72ZM144.954 69.808C145.486 69.808 145.924 69.8967 146.27 70.074V71.04C145.99 70.9187 145.752 70.858 145.556 70.858C145.182 70.858 144.93 70.928 144.8 71.068C144.669 71.1987 144.604 71.4227 144.604 71.74V72.846H146.27V73.896H144.604V80H143.288V73.896H142.504V72.846H143.288V71.88C143.288 70.4987 143.843 69.808 144.954 69.808ZM150.526 72.706C151.524 72.706 152.322 73.014 152.92 73.63C153.517 74.246 153.816 75.0907 153.816 76.164V76.682C153.816 77.7553 153.522 78.6 152.934 79.216C152.346 79.832 151.543 80.14 150.526 80.14C149.508 80.14 148.706 79.832 148.118 79.216C147.53 78.6 147.236 77.7553 147.236 76.682V76.164C147.236 75.0907 147.534 74.246 148.132 73.63C148.729 73.014 149.527 72.706 150.526 72.706ZM150.526 73.756C149.9 73.756 149.415 73.9707 149.07 74.4C148.724 74.8293 148.552 75.4593 148.552 76.29V76.556C148.552 77.368 148.72 77.9933 149.056 78.432C149.401 78.8707 149.891 79.09 150.526 79.09C151.142 79.09 151.622 78.8753 151.968 78.446C152.322 78.0073 152.5 77.3773 152.5 76.556V76.29C152.5 75.478 152.327 74.8527 151.982 74.414C151.646 73.9753 151.16 73.756 150.526 73.756ZM158.929 72.706C159.592 72.706 160.11 72.9207 160.483 73.35C160.856 73.77 161.043 74.302 161.043 74.946L161.001 75.478H159.839V75.17C159.839 74.89 159.769 74.6427 159.629 74.428C159.489 74.2133 159.312 74.05 159.097 73.938C158.882 73.8167 158.668 73.756 158.453 73.756C158.005 73.756 157.655 73.9333 157.403 74.288C157.151 74.6427 157.025 75.1233 157.025 75.73V80H155.709V72.846H156.647L156.843 73.91C156.899 73.7233 157.025 73.5367 157.221 73.35C157.417 73.1633 157.66 73.0093 157.949 72.888C158.248 72.7667 158.574 72.706 158.929 72.706ZM167.306 73.756C167.521 73.448 167.81 73.196 168.174 73C168.547 72.804 168.949 72.706 169.378 72.706C170.293 72.706 171.002 73.028 171.506 73.672C172.01 74.3067 172.262 75.17 172.262 76.262V76.416C172.262 77.5733 172.001 78.4833 171.478 79.146C170.965 79.8087 170.26 80.14 169.364 80.14C168.3 80.14 167.497 79.7153 166.956 78.866L166.494 80H165.99V69.92H167.306V73.756ZM169.112 73.756C168.487 73.756 168.025 73.9753 167.726 74.414C167.437 74.8433 167.292 75.5153 167.292 76.43C167.292 77.3447 167.441 78.0167 167.74 78.446C168.039 78.8753 168.496 79.09 169.112 79.09C170.335 79.09 170.946 78.2033 170.946 76.43C170.946 75.5153 170.792 74.8433 170.484 74.414C170.176 73.9753 169.719 73.756 169.112 73.756ZM180.13 78.6C180.13 78.768 180.168 78.894 180.242 78.978C180.317 79.0527 180.41 79.09 180.522 79.09C180.728 79.09 180.938 79.0247 181.152 78.894V79.86C180.863 80.0467 180.569 80.14 180.27 80.14C179.766 80.14 179.412 80.0373 179.206 79.832C179.01 79.6267 178.903 79.3373 178.884 78.964C178.632 79.3373 178.306 79.6267 177.904 79.832C177.512 80.0373 177.06 80.14 176.546 80.14C175.828 80.14 175.235 79.93 174.768 79.51C174.311 79.0807 174.082 78.4647 174.082 77.662V72.846H175.398V77.424C175.398 78.5347 175.902 79.09 176.91 79.09C177.237 79.09 177.545 79.0013 177.834 78.824C178.133 78.6467 178.371 78.4087 178.548 78.11C178.726 77.802 178.814 77.466 178.814 77.102V72.846H180.13V78.6ZM185.537 72.706C186.069 72.706 186.54 72.79 186.951 72.958C187.371 73.126 187.693 73.3593 187.917 73.658C188.15 73.9567 188.267 74.288 188.267 74.652L188.253 74.904H186.951V74.778C186.951 74.0967 186.423 73.756 185.369 73.756C184.323 73.756 183.801 74.0687 183.801 74.694C183.801 74.9833 183.95 75.198 184.249 75.338C184.547 75.4687 185.005 75.5947 185.621 75.716C186.209 75.8373 186.689 75.9633 187.063 76.094C187.445 76.2247 187.767 76.43 188.029 76.71C188.299 76.99 188.435 77.368 188.435 77.844C188.435 78.6093 188.173 79.1833 187.651 79.566C187.128 79.9487 186.377 80.14 185.397 80.14H185.187C184.599 80.14 184.085 80.0513 183.647 79.874C183.208 79.6873 182.867 79.44 182.625 79.132C182.391 78.8147 182.279 78.46 182.289 78.068V77.76H183.591V77.9C183.591 78.6933 184.258 79.09 185.593 79.09C185.985 79.09 186.335 79.0013 186.643 78.824C186.96 78.6467 187.119 78.404 187.119 78.096C187.119 77.8347 187.03 77.6293 186.853 77.48C186.685 77.3307 186.475 77.2187 186.223 77.144C185.971 77.0693 185.621 76.9947 185.173 76.92C184.594 76.808 184.127 76.696 183.773 76.584C183.418 76.4627 183.115 76.262 182.863 75.982C182.611 75.702 182.485 75.3193 182.485 74.834C182.485 74.1713 182.746 73.6533 183.269 73.28C183.791 72.8973 184.505 72.706 185.411 72.706H185.537ZM191.629 69.92V71.138H190.257V69.92H191.629ZM191.601 72.846V80H190.285V72.846H191.601ZM197.45 72.706C198.234 72.706 198.85 72.916 199.298 73.336C199.746 73.756 199.97 74.372 199.97 75.184V80H198.654V75.422C198.654 74.3113 198.15 73.756 197.142 73.756C196.806 73.756 196.493 73.8447 196.204 74.022C195.914 74.1993 195.681 74.442 195.504 74.75C195.326 75.0487 195.238 75.38 195.238 75.744V80H193.922V72.846H194.874L195.056 73.896C195.653 73.1027 196.451 72.706 197.45 72.706ZM205.091 72.706C205.679 72.706 206.197 72.832 206.645 73.084C207.102 73.3267 207.457 73.6767 207.709 74.134C207.961 74.5913 208.087 75.1233 208.087 75.73V76.724H203.089C203.107 77.48 203.285 78.0633 203.621 78.474C203.957 78.8847 204.456 79.09 205.119 79.09C205.707 79.09 206.141 78.9173 206.421 78.572C206.701 78.2267 206.841 77.816 206.841 77.34H208.087C208.087 77.9 207.956 78.39 207.695 78.81C207.443 79.23 207.088 79.5567 206.631 79.79C206.183 80.0233 205.669 80.14 205.091 80.14H205.035C204.027 80.14 203.229 79.818 202.641 79.174C202.062 78.5207 201.773 77.6527 201.773 76.57V76.29C201.773 75.5807 201.903 74.9553 202.165 74.414C202.426 73.8727 202.799 73.4527 203.285 73.154C203.77 72.8553 204.339 72.706 204.993 72.706H205.091ZM205.021 73.756C204.489 73.756 204.055 73.9193 203.719 74.246C203.392 74.5727 203.191 75.058 203.117 75.702H206.785V75.534C206.785 75.002 206.621 74.5727 206.295 74.246C205.977 73.9193 205.553 73.756 205.021 73.756ZM212.73 72.706C213.262 72.706 213.733 72.79 214.144 72.958C214.564 73.126 214.886 73.3593 215.11 73.658C215.343 73.9567 215.46 74.288 215.46 74.652L215.446 74.904H214.144V74.778C214.144 74.0967 213.617 73.756 212.562 73.756C211.517 73.756 210.994 74.0687 210.994 74.694C210.994 74.9833 211.143 75.198 211.442 75.338C211.741 75.4687 212.198 75.5947 212.814 75.716C213.402 75.8373 213.883 75.9633 214.256 76.094C214.639 76.2247 214.961 76.43 215.222 76.71C215.493 76.99 215.628 77.368 215.628 77.844C215.628 78.6093 215.367 79.1833 214.844 79.566C214.321 79.9487 213.57 80.14 212.59 80.14H212.38C211.792 80.14 211.279 80.0513 210.84 79.874C210.401 79.6873 210.061 79.44 209.818 79.132C209.585 78.8147 209.473 78.46 209.482 78.068V77.76H210.784V77.9C210.784 78.6933 211.451 79.09 212.786 79.09C213.178 79.09 213.528 79.0013 213.836 78.824C214.153 78.6467 214.312 78.404 214.312 78.096C214.312 77.8347 214.223 77.6293 214.046 77.48C213.878 77.3307 213.668 77.2187 213.416 77.144C213.164 77.0693 212.814 76.9947 212.366 76.92C211.787 76.808 211.321 76.696 210.966 76.584C210.611 76.4627 210.308 76.262 210.056 75.982C209.804 75.702 209.678 75.3193 209.678 74.834C209.678 74.1713 209.939 73.6533 210.462 73.28C210.985 72.8973 211.699 72.706 212.604 72.706H212.73ZM220.208 72.706C220.74 72.706 221.212 72.79 221.622 72.958C222.042 73.126 222.364 73.3593 222.588 73.658C222.822 73.9567 222.938 74.288 222.938 74.652L222.924 74.904H221.622V74.778C221.622 74.0967 221.095 73.756 220.04 73.756C218.995 73.756 218.472 74.0687 218.472 74.694C218.472 74.9833 218.622 75.198 218.92 75.338C219.219 75.4687 219.676 75.5947 220.292 75.716C220.88 75.8373 221.361 75.9633 221.734 76.094C222.117 76.2247 222.439 76.43 222.7 76.71C222.971 76.99 223.106 77.368 223.106 77.844C223.106 78.6093 222.845 79.1833 222.322 79.566C221.8 79.9487 221.048 80.14 220.068 80.14H219.858C219.27 80.14 218.757 80.0513 218.318 79.874C217.88 79.6873 217.539 79.44 217.296 79.132C217.063 78.8147 216.951 78.46 216.96 78.068V77.76H218.262V77.9C218.262 78.6933 218.93 79.09 220.264 79.09C220.656 79.09 221.006 79.0013 221.314 78.824C221.632 78.6467 221.79 78.404 221.79 78.096C221.79 77.8347 221.702 77.6293 221.524 77.48C221.356 77.3307 221.146 77.2187 220.894 77.144C220.642 77.0693 220.292 76.9947 219.844 76.92C219.266 76.808 218.799 76.696 218.444 76.584C218.09 76.4627 217.786 76.262 217.534 75.982C217.282 75.702 217.156 75.3193 217.156 74.834C217.156 74.1713 217.418 73.6533 217.94 73.28C218.463 72.8973 219.177 72.706 220.082 72.706H220.208Z" fill="black"/>
<path d="M82.976 16.096L80.224 26.528H62.88L61.856 33.696H77.984L76.576 43.552H60.448L58.144 60H45.024L51.232 16.096H82.976ZM99.6465 13.92L98.3665 23.072H85.7585L87.0385 13.92H99.6465ZM97.7905 27.296L93.1825 60H80.6385L85.1825 27.296H97.7905ZM125.816 26.656C128.76 26.656 131.021 27.424 132.6 28.96C134.221 30.496 135.032 32.48 135.032 34.912C135.032 35.7653 134.669 38.688 133.944 43.68L133.304 48.16L132.728 52.32C132.173 56.3733 131.811 58.9333 131.64 60H118.968C119.565 55.3493 120.163 51.1893 120.76 47.52C121.528 42.144 121.912 39.264 121.912 38.88C121.912 37.9413 121.656 37.1733 121.144 36.576C120.632 35.9787 119.907 35.68 118.968 35.68C117.901 35.68 117.027 36.0427 116.344 36.768C115.661 37.4933 115.235 38.4107 115.064 39.52L112.184 60H99.512L104.12 27.296H113.656L114.232 32.032C116.963 28.448 120.824 26.656 125.816 26.656ZM173.732 31.712L173.284 34.976C171.833 44.8747 171.129 50.1013 171.172 50.656C171.172 51.424 171.257 52 171.428 52.384C171.641 52.768 172.089 52.96 172.772 52.96C173.497 52.96 174.286 52.6827 175.14 52.128L174.18 59.168C173.284 59.6373 172.217 60 170.979 60.256C169.785 60.512 168.654 60.64 167.588 60.64C165.369 60.64 163.513 60.3413 162.02 59.744C160.569 59.1467 159.588 57.9733 159.076 56.224C157.796 57.5893 156.452 58.6773 155.044 59.488C153.678 60.256 151.929 60.64 149.796 60.64C146.254 60.64 143.46 59.552 141.411 57.376C139.364 55.1573 138.34 51.9147 138.34 47.648C138.34 43.168 139.044 39.3493 140.452 36.192C141.902 33.0347 143.78 30.6667 146.084 29.088C148.388 27.4667 150.82 26.656 153.38 26.656C157.39 26.656 160.014 28 161.252 30.688L163.62 13.92H176.292L173.732 31.712ZM156.708 34.656C155.556 34.656 154.532 35.0827 153.635 35.936C152.782 36.7893 152.27 37.856 152.1 39.136C151.204 45.4507 150.756 48.7787 150.756 49.12C150.756 50.2293 151.076 51.1467 151.716 51.872C152.356 52.5547 153.166 52.896 154.148 52.896C155.47 52.896 156.516 52.4907 157.284 51.68C158.052 50.8267 158.542 49.7387 158.756 48.416L159.396 43.808L159.652 41.76C159.95 39.8827 160.1 38.752 160.1 38.368C160.1 37.1733 159.78 36.256 159.14 35.616C158.542 34.976 157.732 34.656 156.708 34.656ZM202.767 26.656C205.284 26.656 207.204 27.296 208.527 28.576C209.892 29.8133 210.575 31.5413 210.575 33.76C210.575 34.528 210.319 36.192 209.807 38.752C209.764 39.2213 209.657 39.8187 209.487 40.544H199.119C199.119 40.1173 199.14 39.7333 199.183 39.392C199.268 39.0507 199.311 38.752 199.311 38.496C199.311 36.704 198.564 35.808 197.071 35.808C196.217 35.808 195.492 36.1067 194.895 36.704C194.34 37.3013 193.999 38.0693 193.871 39.008L190.927 60H178.575L183.183 27.296H192.655L193.359 32.032C193.615 31.5627 194.169 30.9013 195.023 30.048C195.919 29.1947 197.028 28.4267 198.351 27.744C199.716 27.0187 201.188 26.656 202.767 26.656Z" fill="black"/>
<path d="M22.0001 38.2861H44.2861V16.0001L22.0001 16.0001L22.0001 38.2861Z" fill="black"/>
<path d="M0.000137329 60.2861H22.2861L22.2861 38.0001H0.000137329L0.000137329 60.2861Z" fill="black"/>
</svg>
