<svg width="254" height="68" viewBox="0 0 254 68" fill="none" xmlns="http://www.w3.org/2000/svg">
<path d="M244.579 59.502L11.555 67.2141L3 38L253.734 45.999L244.579 59.502Z" fill="black"/>
<path d="M22.0875 53.997L21.1195 51.3515C21.0718 51.2342 21.0223 51.0948 20.971 50.9335C20.9197 50.7722 20.8683 50.598 20.817 50.411C20.7693 50.598 20.7198 50.774 20.6685 50.939C20.6172 51.1003 20.5677 51.2415 20.52 51.3625L19.5575 53.997H22.0875ZM24.7 57H23.556C23.4277 57 23.3232 56.9688 23.2425 56.9065C23.1618 56.8405 23.1013 56.7598 23.061 56.6645L22.467 55.042H19.1725L18.5785 56.6645C18.5492 56.7488 18.4923 56.8258 18.408 56.8955C18.3237 56.9652 18.2192 57 18.0945 57H16.9395L20.069 49.047H21.576L24.7 57ZM28.9768 55.537C29.1308 55.724 29.2976 55.856 29.4773 55.933C29.6606 56.01 29.8531 56.0485 30.0548 56.0485C30.2638 56.0485 30.4508 56.0118 30.6158 55.9385C30.7844 55.8615 30.9274 55.7442 31.0448 55.5865C31.1621 55.4252 31.2519 55.2217 31.3143 54.976C31.3766 54.7267 31.4078 54.4297 31.4078 54.085C31.4078 53.4653 31.3051 53.018 31.0998 52.743C30.8944 52.4643 30.5993 52.325 30.2143 52.325C29.9539 52.325 29.7266 52.3855 29.5323 52.5065C29.3379 52.6238 29.1528 52.7907 28.9768 53.007V55.537ZM28.9768 52.05C29.2041 51.8117 29.4553 51.6228 29.7303 51.4835C30.0089 51.3405 30.3261 51.269 30.6818 51.269C31.0081 51.269 31.3014 51.3332 31.5618 51.4615C31.8258 51.5898 32.0494 51.775 32.2328 52.017C32.4198 52.2553 32.5628 52.545 32.6618 52.886C32.7608 53.227 32.8103 53.6102 32.8103 54.0355C32.8103 54.4938 32.7534 54.91 32.6398 55.284C32.5261 55.658 32.3629 55.9788 32.1503 56.2465C31.9413 56.5105 31.6883 56.7158 31.3913 56.8625C31.0943 57.0092 30.7643 57.0825 30.4013 57.0825C30.2253 57.0825 30.0658 57.0642 29.9228 57.0275C29.7798 56.9945 29.6478 56.9468 29.5268 56.8845C29.4058 56.8222 29.2939 56.747 29.1913 56.659C29.0923 56.5673 28.9969 56.4665 28.9053 56.3565L28.8448 56.736C28.8228 56.8313 28.7843 56.8992 28.7293 56.9395C28.6779 56.9798 28.6064 57 28.5148 57H27.6183V48.827H28.9768V52.05ZM37.495 53.5295C37.495 53.3535 37.4693 53.1885 37.418 53.0345C37.3703 52.8768 37.297 52.7393 37.198 52.622C37.099 52.5047 36.9725 52.413 36.8185 52.347C36.6681 52.2773 36.4921 52.2425 36.2905 52.2425C35.8981 52.2425 35.5883 52.3543 35.361 52.578C35.1373 52.8017 34.9943 53.1188 34.932 53.5295H37.495ZM34.9045 54.349C34.9265 54.6387 34.9778 54.8898 35.0585 55.1025C35.1391 55.3115 35.2455 55.4857 35.3775 55.625C35.5095 55.7607 35.6653 55.8633 35.845 55.933C36.0283 55.999 36.23 56.032 36.45 56.032C36.67 56.032 36.8588 56.0063 37.0165 55.955C37.1778 55.9037 37.3171 55.8468 37.4345 55.7845C37.5555 55.7222 37.66 55.6653 37.748 55.614C37.8396 55.5627 37.9276 55.537 38.012 55.537C38.1256 55.537 38.21 55.5792 38.265 55.6635L38.6555 56.1585C38.5051 56.3345 38.3365 56.483 38.1495 56.604C37.9625 56.7213 37.7663 56.8167 37.561 56.89C37.3593 56.9597 37.1521 57.0092 36.9395 57.0385C36.7305 57.0678 36.527 57.0825 36.329 57.0825C35.9366 57.0825 35.5718 57.0183 35.2345 56.89C34.8971 56.758 34.6038 56.5655 34.3545 56.3125C34.1051 56.0558 33.909 55.7405 33.766 55.3665C33.623 54.9888 33.5515 54.5525 33.5515 54.0575C33.5515 53.6725 33.6138 53.3113 33.7385 52.974C33.8631 52.633 34.041 52.3378 34.272 52.0885C34.5066 51.8355 34.7908 51.6357 35.1245 51.489C35.4618 51.3423 35.8413 51.269 36.263 51.269C36.6186 51.269 36.9468 51.3258 37.2475 51.4395C37.5481 51.5532 37.8066 51.72 38.023 51.94C38.2393 52.1563 38.408 52.424 38.529 52.743C38.6536 53.0583 38.716 53.4195 38.716 53.8265C38.716 54.0318 38.694 54.1712 38.65 54.2445C38.606 54.3142 38.5216 54.349 38.397 54.349H34.9045ZM41.5627 57.088C41.0714 57.088 40.6937 56.9505 40.4297 56.6755C40.1694 56.3968 40.0392 56.0137 40.0392 55.526V52.3745H39.4617C39.3884 52.3745 39.3261 52.3507 39.2747 52.303C39.2234 52.2553 39.1977 52.1838 39.1977 52.0885V51.5495L40.1052 51.401L40.3912 49.861C40.4096 49.7877 40.4444 49.7308 40.4957 49.6905C40.5471 49.6502 40.6131 49.63 40.6937 49.63H41.3977V51.4065H43.7462L44.0377 49.861C44.0561 49.7877 44.0891 49.7308 44.1367 49.6905C44.1881 49.6502 44.2559 49.63 44.3402 49.63H45.0387V51.4065H46.5457V52.3745H45.0387V55.4325C45.0387 55.6085 45.0827 55.746 45.1707 55.845C45.2587 55.944 45.3779 55.9935 45.5282 55.9935C45.6089 55.9935 45.6786 55.9843 45.7372 55.966C45.7959 55.944 45.8454 55.922 45.8857 55.9C45.9297 55.878 45.9682 55.8578 46.0012 55.8395C46.0342 55.8175 46.0672 55.8065 46.1002 55.8065C46.1406 55.8065 46.1736 55.8175 46.1992 55.8395C46.2249 55.8578 46.2524 55.8872 46.2817 55.9275L46.6887 56.5875C46.4907 56.7525 46.2634 56.8772 46.0067 56.9615C45.7501 57.0458 45.4842 57.088 45.2092 57.088C44.7179 57.088 44.3402 56.9505 44.0762 56.6755C43.8122 56.3968 43.6802 56.0137 43.6802 55.526V52.3745H41.3977V55.4325C41.3977 55.6085 41.4399 55.746 41.5242 55.845C41.6122 55.944 41.7314 55.9935 41.8817 55.9935C41.9661 55.9935 42.0357 55.9843 42.0907 55.966C42.1494 55.944 42.1989 55.922 42.2392 55.9C42.2832 55.878 42.3217 55.8578 42.3547 55.8395C42.3877 55.8175 42.4207 55.8065 42.4537 55.8065C42.4941 55.8065 42.5271 55.8175 42.5527 55.8395C42.5784 55.8578 42.6059 55.8872 42.6352 55.9275L43.0422 56.5875C42.8442 56.7525 42.6169 56.8772 42.3602 56.9615C42.1036 57.0458 41.8377 57.088 41.5627 57.088ZM51.0086 53.5295C51.0086 53.3535 50.983 53.1885 50.9316 53.0345C50.884 52.8768 50.8106 52.7393 50.7116 52.622C50.6126 52.5047 50.4861 52.413 50.3321 52.347C50.1818 52.2773 50.0058 52.2425 49.8041 52.2425C49.4118 52.2425 49.102 52.3543 48.8746 52.578C48.651 52.8017 48.508 53.1188 48.4456 53.5295H51.0086ZM48.4181 54.349C48.4401 54.6387 48.4915 54.8898 48.5721 55.1025C48.6528 55.3115 48.7591 55.4857 48.8911 55.625C49.0231 55.7607 49.179 55.8633 49.3586 55.933C49.542 55.999 49.7436 56.032 49.9636 56.032C50.1836 56.032 50.3725 56.0063 50.5301 55.955C50.6915 55.9037 50.8308 55.8468 50.9481 55.7845C51.0691 55.7222 51.1736 55.6653 51.2616 55.614C51.3533 55.5627 51.4413 55.537 51.5256 55.537C51.6393 55.537 51.7236 55.5792 51.7786 55.6635L52.1691 56.1585C52.0188 56.3345 51.8501 56.483 51.6631 56.604C51.4761 56.7213 51.28 56.8167 51.0746 56.89C50.873 56.9597 50.6658 57.0092 50.4531 57.0385C50.2441 57.0678 50.0406 57.0825 49.8426 57.0825C49.4503 57.0825 49.0855 57.0183 48.7481 56.89C48.4108 56.758 48.1175 56.5655 47.8681 56.3125C47.6188 56.0558 47.4226 55.7405 47.2796 55.3665C47.1366 54.9888 47.0651 54.5525 47.0651 54.0575C47.0651 53.6725 47.1275 53.3113 47.2521 52.974C47.3768 52.633 47.5546 52.3378 47.7856 52.0885C48.0203 51.8355 48.3045 51.6357 48.6381 51.489C48.9755 51.3423 49.355 51.269 49.7766 51.269C50.1323 51.269 50.4605 51.3258 50.7611 51.4395C51.0618 51.5532 51.3203 51.72 51.5366 51.94C51.753 52.1563 51.9216 52.424 52.0426 52.743C52.1673 53.0583 52.2296 53.4195 52.2296 53.8265C52.2296 54.0318 52.2076 54.1712 52.1636 54.2445C52.1196 54.3142 52.0353 54.349 51.9106 54.349H48.4181ZM54.5306 52.336C54.7066 51.9987 54.9156 51.7347 55.1576 51.544C55.3996 51.3497 55.6856 51.2525 56.0156 51.2525C56.276 51.2525 56.485 51.3093 56.6426 51.423L56.5546 52.4405C56.5363 52.5065 56.5088 52.5542 56.4721 52.5835C56.4391 52.6092 56.3933 52.622 56.3346 52.622C56.2796 52.622 56.1971 52.6128 56.0871 52.5945C55.9808 52.5762 55.8763 52.567 55.7736 52.567C55.6233 52.567 55.4895 52.589 55.3721 52.633C55.2548 52.677 55.1485 52.7412 55.0531 52.8255C54.9615 52.9062 54.879 53.0052 54.8056 53.1225C54.736 53.2398 54.67 53.3737 54.6076 53.524V57H53.2491V51.357H54.0466C54.186 51.357 54.2831 51.3827 54.3381 51.434C54.3931 51.4817 54.4298 51.5697 54.4481 51.698L54.5306 52.336ZM61.1496 55.537C61.3036 55.724 61.4705 55.856 61.6501 55.933C61.8335 56.01 62.026 56.0485 62.2276 56.0485C62.4366 56.0485 62.6236 56.0118 62.7886 55.9385C62.9573 55.8615 63.1003 55.7442 63.2176 55.5865C63.335 55.4252 63.4248 55.2217 63.4871 54.976C63.5495 54.7267 63.5806 54.4297 63.5806 54.085C63.5806 53.4653 63.478 53.018 63.2726 52.743C63.0673 52.4643 62.7721 52.325 62.3871 52.325C62.1268 52.325 61.8995 52.3855 61.7051 52.5065C61.5108 52.6238 61.3256 52.7907 61.1496 53.007V55.537ZM61.1496 52.05C61.377 51.8117 61.6281 51.6228 61.9031 51.4835C62.1818 51.3405 62.499 51.269 62.8546 51.269C63.181 51.269 63.4743 51.3332 63.7346 51.4615C63.9986 51.5898 64.2223 51.775 64.4056 52.017C64.5926 52.2553 64.7356 52.545 64.8346 52.886C64.9336 53.227 64.9831 53.6102 64.9831 54.0355C64.9831 54.4938 64.9263 54.91 64.8126 55.284C64.699 55.658 64.5358 55.9788 64.3231 56.2465C64.1141 56.5105 63.8611 56.7158 63.5641 56.8625C63.2671 57.0092 62.9371 57.0825 62.5741 57.0825C62.3981 57.0825 62.2386 57.0642 62.0956 57.0275C61.9526 56.9945 61.8206 56.9468 61.6996 56.8845C61.5786 56.8222 61.4668 56.747 61.3641 56.659C61.2651 56.5673 61.1698 56.4665 61.0781 56.3565L61.0176 56.736C60.9956 56.8313 60.9571 56.8992 60.9021 56.9395C60.8508 56.9798 60.7793 57 60.6876 57H59.7911V48.827H61.1496V52.05ZM70.8943 51.357V57H70.0638C69.8842 57 69.7705 56.9175 69.7228 56.7525L69.6293 56.3015C69.3983 56.5362 69.1435 56.7268 68.8648 56.8735C68.5862 57.0165 68.258 57.088 67.8803 57.088C67.5723 57.088 67.2992 57.0367 67.0608 56.934C66.8262 56.8277 66.6282 56.6792 66.4668 56.4885C66.3055 56.2978 66.1827 56.0723 66.0983 55.812C66.0177 55.548 65.9773 55.2583 65.9773 54.943V51.357H67.3358V54.943C67.3358 55.2877 67.4147 55.5553 67.5723 55.746C67.7337 55.933 67.9738 56.0265 68.2928 56.0265C68.5275 56.0265 68.7475 55.9752 68.9528 55.8725C69.1582 55.7662 69.3525 55.6213 69.5358 55.438V51.357H70.8943ZM75.6843 52.457C75.6476 52.5157 75.6091 52.5578 75.5688 52.5835C75.5285 52.6055 75.4771 52.6165 75.4148 52.6165C75.3488 52.6165 75.2773 52.5982 75.2003 52.5615C75.127 52.5248 75.0408 52.4845 74.9418 52.4405C74.8428 52.3928 74.7291 52.3507 74.6008 52.314C74.4761 52.2773 74.3276 52.259 74.1553 52.259C73.8876 52.259 73.6768 52.3158 73.5228 52.4295C73.3725 52.5432 73.2973 52.6917 73.2973 52.875C73.2973 52.996 73.3358 53.0987 73.4128 53.183C73.4935 53.2637 73.598 53.3352 73.7263 53.3975C73.8583 53.4598 74.0068 53.5167 74.1718 53.568C74.3368 53.6157 74.5036 53.6688 74.6723 53.7275C74.8446 53.7862 75.0133 53.854 75.1783 53.931C75.3433 54.0043 75.49 54.0997 75.6183 54.217C75.7503 54.3307 75.8548 54.4682 75.9318 54.6295C76.0125 54.7908 76.0528 54.9852 76.0528 55.2125C76.0528 55.4838 76.0033 55.735 75.9043 55.966C75.809 56.1933 75.666 56.3913 75.4753 56.56C75.2846 56.725 75.0481 56.8552 74.7658 56.9505C74.4871 57.0422 74.1645 57.088 73.7978 57.088C73.6035 57.088 73.4128 57.0697 73.2258 57.033C73.0425 57 72.8646 56.9523 72.6923 56.89C72.5236 56.8277 72.366 56.7543 72.2193 56.67C72.0763 56.5857 71.9498 56.494 71.8398 56.395L72.1533 55.878C72.1936 55.8157 72.2413 55.768 72.2963 55.735C72.3513 55.702 72.421 55.6855 72.5053 55.6855C72.5896 55.6855 72.6685 55.7093 72.7418 55.757C72.8188 55.8047 72.9068 55.856 73.0058 55.911C73.1048 55.966 73.2203 56.0173 73.3523 56.065C73.488 56.1127 73.6585 56.1365 73.8638 56.1365C74.0251 56.1365 74.1626 56.1182 74.2763 56.0815C74.3936 56.0412 74.489 55.9898 74.5623 55.9275C74.6393 55.8652 74.6943 55.7937 74.7273 55.713C74.764 55.6287 74.7823 55.5425 74.7823 55.4545C74.7823 55.3225 74.742 55.2143 74.6613 55.13C74.5843 55.0457 74.4798 54.9723 74.3478 54.91C74.2195 54.8477 74.071 54.7927 73.9023 54.745C73.7373 54.6937 73.5668 54.6387 73.3908 54.58C73.2185 54.5213 73.048 54.4535 72.8793 54.3765C72.7143 54.2958 72.5658 54.195 72.4338 54.074C72.3055 53.953 72.201 53.8045 72.1203 53.6285C72.0433 53.4525 72.0048 53.2398 72.0048 52.9905C72.0048 52.7595 72.0506 52.5395 72.1423 52.3305C72.234 52.1215 72.3678 51.94 72.5438 51.786C72.7235 51.6283 72.9453 51.5037 73.2093 51.412C73.477 51.3167 73.785 51.269 74.1333 51.269C74.522 51.269 74.8758 51.3332 75.1948 51.4615C75.5138 51.5898 75.7796 51.7585 75.9923 51.9675L75.6843 52.457ZM78.4833 51.357V57H77.1193V51.357H78.4833ZM78.6703 49.7125C78.6703 49.8298 78.6465 49.9398 78.5988 50.0425C78.5511 50.1452 78.487 50.235 78.4063 50.312C78.3293 50.389 78.2376 50.4513 78.1313 50.499C78.025 50.543 77.9113 50.565 77.7903 50.565C77.673 50.565 77.5611 50.543 77.4548 50.499C77.3521 50.4513 77.2623 50.389 77.1853 50.312C77.1083 50.235 77.046 50.1452 76.9983 50.0425C76.9543 49.9398 76.9323 49.8298 76.9323 49.7125C76.9323 49.5915 76.9543 49.4778 76.9983 49.3715C77.046 49.2652 77.1083 49.1735 77.1853 49.0965C77.2623 49.0195 77.3521 48.959 77.4548 48.915C77.5611 48.8673 77.673 48.8435 77.7903 48.8435C77.9113 48.8435 78.025 48.8673 78.1313 48.915C78.2376 48.959 78.3293 49.0195 78.4063 49.0965C78.487 49.1735 78.5511 49.2652 78.5988 49.3715C78.6465 49.4778 78.6703 49.5915 78.6703 49.7125ZM81.1388 52.05C81.2524 51.9363 81.3716 51.8318 81.4963 51.7365C81.6246 51.6375 81.7584 51.555 81.8978 51.489C82.0408 51.4193 82.1929 51.3662 82.3543 51.3295C82.5156 51.2892 82.6916 51.269 82.8823 51.269C83.1903 51.269 83.4634 51.3222 83.7018 51.4285C83.9401 51.5312 84.1381 51.6778 84.2958 51.8685C84.4571 52.0555 84.5781 52.281 84.6588 52.545C84.7431 52.8053 84.7853 53.0932 84.7853 53.4085V57H83.4268V53.4085C83.4268 53.0638 83.3479 52.798 83.1903 52.611C83.0326 52.4203 82.7924 52.325 82.4698 52.325C82.2351 52.325 82.0151 52.3782 81.8098 52.4845C81.6044 52.5908 81.4101 52.7357 81.2268 52.919V57H79.8683V51.357H80.6988C80.8748 51.357 80.9903 51.4395 81.0453 51.6045L81.1388 52.05ZM89.7128 53.5295C89.7128 53.3535 89.6871 53.1885 89.6358 53.0345C89.5881 52.8768 89.5148 52.7393 89.4158 52.622C89.3168 52.5047 89.1903 52.413 89.0363 52.347C88.8859 52.2773 88.7099 52.2425 88.5083 52.2425C88.1159 52.2425 87.8061 52.3543 87.5788 52.578C87.3551 52.8017 87.2121 53.1188 87.1498 53.5295H89.7128ZM87.1223 54.349C87.1443 54.6387 87.1956 54.8898 87.2763 55.1025C87.3569 55.3115 87.4633 55.4857 87.5953 55.625C87.7273 55.7607 87.8831 55.8633 88.0628 55.933C88.2461 55.999 88.4478 56.032 88.6678 56.032C88.8878 56.032 89.0766 56.0063 89.2343 55.955C89.3956 55.9037 89.5349 55.8468 89.6523 55.7845C89.7733 55.7222 89.8778 55.6653 89.9658 55.614C90.0574 55.5627 90.1454 55.537 90.2298 55.537C90.3434 55.537 90.4278 55.5792 90.4828 55.6635L90.8733 56.1585C90.7229 56.3345 90.5543 56.483 90.3673 56.604C90.1803 56.7213 89.9841 56.8167 89.7788 56.89C89.5771 56.9597 89.3699 57.0092 89.1573 57.0385C88.9483 57.0678 88.7448 57.0825 88.5468 57.0825C88.1544 57.0825 87.7896 57.0183 87.4523 56.89C87.1149 56.758 86.8216 56.5655 86.5723 56.3125C86.3229 56.0558 86.1268 55.7405 85.9838 55.3665C85.8408 54.9888 85.7692 54.5525 85.7692 54.0575C85.7692 53.6725 85.8316 53.3113 85.9563 52.974C86.0809 52.633 86.2588 52.3378 86.4898 52.0885C86.7244 51.8355 87.0086 51.6357 87.3423 51.489C87.6796 51.3423 88.0591 51.269 88.4808 51.269C88.8364 51.269 89.1646 51.3258 89.4653 51.4395C89.7659 51.5532 90.0244 51.72 90.2408 51.94C90.4571 52.1563 90.6258 52.424 90.7468 52.743C90.8714 53.0583 90.9337 53.4195 90.9337 53.8265C90.9337 54.0318 90.9118 54.1712 90.8678 54.2445C90.8238 54.3142 90.7394 54.349 90.6148 54.349H87.1223ZM95.3962 52.457C95.3596 52.5157 95.3211 52.5578 95.2807 52.5835C95.2404 52.6055 95.1891 52.6165 95.1267 52.6165C95.0607 52.6165 94.9892 52.5982 94.9122 52.5615C94.8389 52.5248 94.7527 52.4845 94.6537 52.4405C94.5547 52.3928 94.4411 52.3507 94.3127 52.314C94.1881 52.2773 94.0396 52.259 93.8672 52.259C93.5996 52.259 93.3887 52.3158 93.2347 52.4295C93.0844 52.5432 93.0092 52.6917 93.0092 52.875C93.0092 52.996 93.0477 53.0987 93.1247 53.183C93.2054 53.2637 93.3099 53.3352 93.4382 53.3975C93.5702 53.4598 93.7187 53.5167 93.8837 53.568C94.0487 53.6157 94.2156 53.6688 94.3842 53.7275C94.5566 53.7862 94.7252 53.854 94.8902 53.931C95.0552 54.0043 95.2019 54.0997 95.3302 54.217C95.4622 54.3307 95.5667 54.4682 95.6437 54.6295C95.7244 54.7908 95.7647 54.9852 95.7647 55.2125C95.7647 55.4838 95.7152 55.735 95.6162 55.966C95.5209 56.1933 95.3779 56.3913 95.1872 56.56C94.9966 56.725 94.7601 56.8552 94.4777 56.9505C94.1991 57.0422 93.8764 57.088 93.5097 57.088C93.3154 57.088 93.1247 57.0697 92.9377 57.033C92.7544 57 92.5766 56.9523 92.4042 56.89C92.2356 56.8277 92.0779 56.7543 91.9312 56.67C91.7882 56.5857 91.6617 56.494 91.5517 56.395L91.8652 55.878C91.9056 55.8157 91.9532 55.768 92.0082 55.735C92.0632 55.702 92.1329 55.6855 92.2172 55.6855C92.3016 55.6855 92.3804 55.7093 92.4537 55.757C92.5307 55.8047 92.6187 55.856 92.7177 55.911C92.8167 55.966 92.9322 56.0173 93.0642 56.065C93.1999 56.1127 93.3704 56.1365 93.5757 56.1365C93.7371 56.1365 93.8746 56.1182 93.9882 56.0815C94.1056 56.0412 94.2009 55.9898 94.2742 55.9275C94.3512 55.8652 94.4062 55.7937 94.4392 55.713C94.4759 55.6287 94.4942 55.5425 94.4942 55.4545C94.4942 55.3225 94.4539 55.2143 94.3732 55.13C94.2962 55.0457 94.1917 54.9723 94.0597 54.91C93.9314 54.8477 93.7829 54.7927 93.6142 54.745C93.4492 54.6937 93.2787 54.6387 93.1027 54.58C92.9304 54.5213 92.7599 54.4535 92.5912 54.3765C92.4262 54.2958 92.2777 54.195 92.1457 54.074C92.0174 53.953 91.9129 53.8045 91.8322 53.6285C91.7552 53.4525 91.7167 53.2398 91.7167 52.9905C91.7167 52.7595 91.7626 52.5395 91.8542 52.3305C91.9459 52.1215 92.0797 51.94 92.2557 51.786C92.4354 51.6283 92.6572 51.5037 92.9212 51.412C93.1889 51.3167 93.4969 51.269 93.8452 51.269C94.2339 51.269 94.5877 51.3332 94.9067 51.4615C95.2257 51.5898 95.4916 51.7585 95.7042 51.9675L95.3962 52.457ZM100.23 52.457C100.194 52.5157 100.155 52.5578 100.115 52.5835C100.074 52.6055 100.023 52.6165 99.9607 52.6165C99.8947 52.6165 99.8232 52.5982 99.7462 52.5615C99.6729 52.5248 99.5867 52.4845 99.4877 52.4405C99.3887 52.3928 99.275 52.3507 99.1467 52.314C99.022 52.2773 98.8735 52.259 98.7012 52.259C98.4335 52.259 98.2227 52.3158 98.0687 52.4295C97.9184 52.5432 97.8432 52.6917 97.8432 52.875C97.8432 52.996 97.8817 53.0987 97.9587 53.183C98.0394 53.2637 98.1439 53.3352 98.2722 53.3975C98.4042 53.4598 98.5527 53.5167 98.7177 53.568C98.8827 53.6157 99.0495 53.6688 99.2182 53.7275C99.3905 53.7862 99.5592 53.854 99.7242 53.931C99.8892 54.0043 100.036 54.0997 100.164 54.217C100.296 54.3307 100.401 54.4682 100.478 54.6295C100.558 54.7908 100.599 54.9852 100.599 55.2125C100.599 55.4838 100.549 55.735 100.45 55.966C100.355 56.1933 100.212 56.3913 100.021 56.56C99.8305 56.725 99.594 56.8552 99.3117 56.9505C99.033 57.0422 98.7104 57.088 98.3437 57.088C98.1494 57.088 97.9587 57.0697 97.7717 57.033C97.5884 57 97.4105 56.9523 97.2382 56.89C97.0695 56.8277 96.9119 56.7543 96.7652 56.67C96.6222 56.5857 96.4957 56.494 96.3857 56.395L96.6992 55.878C96.7395 55.8157 96.7872 55.768 96.8422 55.735C96.8972 55.702 96.9669 55.6855 97.0512 55.6855C97.1355 55.6855 97.2144 55.7093 97.2877 55.757C97.3647 55.8047 97.4527 55.856 97.5517 55.911C97.6507 55.966 97.7662 56.0173 97.8982 56.065C98.0339 56.1127 98.2044 56.1365 98.4097 56.1365C98.571 56.1365 98.7085 56.1182 98.8222 56.0815C98.9395 56.0412 99.0349 55.9898 99.1082 55.9275C99.1852 55.8652 99.2402 55.7937 99.2732 55.713C99.3099 55.6287 99.3282 55.5425 99.3282 55.4545C99.3282 55.3225 99.2879 55.2143 99.2072 55.13C99.1302 55.0457 99.0257 54.9723 98.8937 54.91C98.7654 54.8477 98.6169 54.7927 98.4482 54.745C98.2832 54.6937 98.1127 54.6387 97.9367 54.58C97.7644 54.5213 97.5939 54.4535 97.4252 54.3765C97.2602 54.2958 97.1117 54.195 96.9797 54.074C96.8514 53.953 96.7469 53.8045 96.6662 53.6285C96.5892 53.4525 96.5507 53.2398 96.5507 52.9905C96.5507 52.7595 96.5965 52.5395 96.6882 52.3305C96.7799 52.1215 96.9137 51.94 97.0897 51.786C97.2694 51.6283 97.4912 51.5037 97.7552 51.412C98.0229 51.3167 98.3309 51.269 98.6792 51.269C99.0679 51.269 99.4217 51.3332 99.7407 51.4615C100.06 51.5898 100.326 51.7585 100.538 51.9675L100.23 52.457ZM107.739 52.457C107.702 52.5157 107.664 52.5578 107.624 52.5835C107.583 52.6055 107.532 52.6165 107.47 52.6165C107.404 52.6165 107.332 52.5982 107.255 52.5615C107.182 52.5248 107.096 52.4845 106.997 52.4405C106.898 52.3928 106.784 52.3507 106.655 52.314C106.531 52.2773 106.382 52.259 106.21 52.259C105.942 52.259 105.732 52.3158 105.578 52.4295C105.427 52.5432 105.352 52.6917 105.352 52.875C105.352 52.996 105.391 53.0987 105.468 53.183C105.548 53.2637 105.653 53.3352 105.781 53.3975C105.913 53.4598 106.062 53.5167 106.227 53.568C106.392 53.6157 106.558 53.6688 106.727 53.7275C106.899 53.7862 107.068 53.854 107.233 53.931C107.398 54.0043 107.545 54.0997 107.673 54.217C107.805 54.3307 107.91 54.4682 107.987 54.6295C108.067 54.7908 108.108 54.9852 108.108 55.2125C108.108 55.4838 108.058 55.735 107.959 55.966C107.864 56.1933 107.721 56.3913 107.53 56.56C107.339 56.725 107.103 56.8552 106.821 56.9505C106.542 57.0422 106.219 57.088 105.853 57.088C105.658 57.088 105.468 57.0697 105.281 57.033C105.097 57 104.919 56.9523 104.747 56.89C104.578 56.8277 104.421 56.7543 104.274 56.67C104.131 56.5857 104.005 56.494 103.895 56.395L104.208 55.878C104.248 55.8157 104.296 55.768 104.351 55.735C104.406 55.702 104.476 55.6855 104.56 55.6855C104.644 55.6855 104.723 55.7093 104.797 55.757C104.874 55.8047 104.962 55.856 105.061 55.911C105.16 55.966 105.275 56.0173 105.407 56.065C105.543 56.1127 105.713 56.1365 105.919 56.1365C106.08 56.1365 106.217 56.1182 106.331 56.0815C106.448 56.0412 106.544 55.9898 106.617 55.9275C106.694 55.8652 106.749 55.7937 106.782 55.713C106.819 55.6287 106.837 55.5425 106.837 55.4545C106.837 55.3225 106.797 55.2143 106.716 55.13C106.639 55.0457 106.535 54.9723 106.402 54.91C106.274 54.8477 106.126 54.7927 105.957 54.745C105.792 54.6937 105.622 54.6387 105.446 54.58C105.273 54.5213 105.103 54.4535 104.934 54.3765C104.769 54.2958 104.621 54.195 104.489 54.074C104.36 53.953 104.256 53.8045 104.175 53.6285C104.098 53.4525 104.06 53.2398 104.06 52.9905C104.06 52.7595 104.105 52.5395 104.197 52.3305C104.289 52.1215 104.423 51.94 104.599 51.786C104.778 51.6283 105 51.5037 105.264 51.412C105.532 51.3167 105.84 51.269 106.188 51.269C106.577 51.269 106.931 51.3332 107.25 51.4615C107.569 51.5898 107.834 51.7585 108.047 51.9675L107.739 52.457ZM111.011 57.088C110.52 57.088 110.142 56.9505 109.878 56.6755C109.618 56.3968 109.487 56.0137 109.487 55.526V52.3745H108.91C108.837 52.3745 108.774 52.3507 108.723 52.303C108.672 52.2553 108.646 52.1838 108.646 52.0885V51.5495L109.553 51.401L109.839 49.861C109.858 49.7877 109.893 49.7308 109.944 49.6905C109.995 49.6502 110.061 49.63 110.142 49.63H110.846V51.4065H112.353V52.3745H110.846V55.4325C110.846 55.6085 110.888 55.746 110.972 55.845C111.06 55.944 111.18 55.9935 111.33 55.9935C111.414 55.9935 111.484 55.9843 111.539 55.966C111.598 55.944 111.647 55.922 111.687 55.9C111.731 55.878 111.77 55.8578 111.803 55.8395C111.836 55.8175 111.869 55.8065 111.902 55.8065C111.942 55.8065 111.975 55.8175 112.001 55.8395C112.027 55.8578 112.054 55.8872 112.083 55.9275L112.49 56.5875C112.292 56.7525 112.065 56.8772 111.808 56.9615C111.552 57.0458 111.286 57.088 111.011 57.088ZM116.204 54.591C115.811 54.6093 115.481 54.6442 115.214 54.6955C114.946 54.7432 114.732 54.8055 114.57 54.8825C114.409 54.9595 114.293 55.0493 114.224 55.152C114.154 55.2547 114.119 55.3665 114.119 55.4875C114.119 55.7258 114.189 55.8963 114.328 55.999C114.471 56.1017 114.656 56.153 114.884 56.153C115.162 56.153 115.403 56.1035 115.604 56.0045C115.81 55.9018 116.009 55.7478 116.204 55.5425V54.591ZM113.091 52.1435C113.74 51.5495 114.521 51.2525 115.434 51.2525C115.764 51.2525 116.059 51.3075 116.319 51.4175C116.58 51.5238 116.8 51.6742 116.979 51.8685C117.159 52.0592 117.295 52.2883 117.386 52.556C117.482 52.8237 117.529 53.117 117.529 53.436V57H116.913C116.785 57 116.686 56.9817 116.616 56.945C116.547 56.9047 116.492 56.8258 116.451 56.7085L116.33 56.3015C116.187 56.4298 116.048 56.5435 115.912 56.6425C115.777 56.7378 115.635 56.8185 115.489 56.8845C115.342 56.9505 115.184 57 115.016 57.033C114.851 57.0697 114.667 57.088 114.466 57.088C114.227 57.088 114.007 57.0568 113.806 56.9945C113.604 56.9285 113.43 56.8313 113.283 56.703C113.137 56.5747 113.023 56.4152 112.942 56.2245C112.862 56.0338 112.821 55.812 112.821 55.559C112.821 55.416 112.845 55.2748 112.893 55.1355C112.94 54.9925 113.017 54.8568 113.124 54.7285C113.234 54.6002 113.375 54.4792 113.547 54.3655C113.72 54.2518 113.93 54.1528 114.18 54.0685C114.433 53.9842 114.726 53.9163 115.06 53.865C115.393 53.81 115.775 53.777 116.204 53.766V53.436C116.204 53.0583 116.123 52.7797 115.962 52.6C115.8 52.4167 115.568 52.325 115.263 52.325C115.043 52.325 114.86 52.3507 114.713 52.402C114.57 52.4533 114.444 52.512 114.334 52.578C114.224 52.6403 114.123 52.6972 114.031 52.7485C113.943 52.7998 113.844 52.8255 113.734 52.8255C113.639 52.8255 113.558 52.8017 113.492 52.754C113.426 52.7027 113.373 52.644 113.333 52.578L113.091 52.1435ZM120.09 52.336C120.266 51.9987 120.475 51.7347 120.717 51.544C120.959 51.3497 121.245 51.2525 121.575 51.2525C121.836 51.2525 122.045 51.3093 122.202 51.423L122.114 52.4405C122.096 52.5065 122.068 52.5542 122.032 52.5835C121.999 52.6092 121.953 52.622 121.894 52.622C121.839 52.622 121.757 52.6128 121.647 52.5945C121.54 52.5762 121.436 52.567 121.333 52.567C121.183 52.567 121.049 52.589 120.932 52.633C120.814 52.677 120.708 52.7412 120.613 52.8255C120.521 52.9062 120.439 53.0052 120.365 53.1225C120.296 53.2398 120.23 53.3737 120.167 53.524V57H118.809V51.357H119.606C119.746 51.357 119.843 51.3827 119.898 51.434C119.953 51.4817 119.989 51.5697 120.008 51.698L120.09 52.336ZM124.793 57.088C124.302 57.088 123.924 56.9505 123.66 56.6755C123.4 56.3968 123.27 56.0137 123.27 55.526V52.3745H122.692C122.619 52.3745 122.557 52.3507 122.505 52.303C122.454 52.2553 122.428 52.1838 122.428 52.0885V51.5495L123.336 51.401L123.622 49.861C123.64 49.7877 123.675 49.7308 123.726 49.6905C123.778 49.6502 123.844 49.63 123.924 49.63H124.628V51.4065H126.135V52.3745H124.628V55.4325C124.628 55.6085 124.67 55.746 124.755 55.845C124.843 55.944 124.962 55.9935 125.112 55.9935C125.197 55.9935 125.266 55.9843 125.321 55.966C125.38 55.944 125.429 55.922 125.47 55.9C125.514 55.878 125.552 55.8578 125.585 55.8395C125.618 55.8175 125.651 55.8065 125.684 55.8065C125.725 55.8065 125.758 55.8175 125.783 55.8395C125.809 55.8578 125.836 55.8872 125.866 55.9275L126.273 56.5875C126.075 56.7525 125.847 56.8772 125.591 56.9615C125.334 57.0458 125.068 57.088 124.793 57.088ZM130.448 52.457C130.411 52.5157 130.373 52.5578 130.332 52.5835C130.292 52.6055 130.241 52.6165 130.178 52.6165C130.112 52.6165 130.041 52.5982 129.964 52.5615C129.891 52.5248 129.804 52.4845 129.705 52.4405C129.606 52.3928 129.493 52.3507 129.364 52.314C129.24 52.2773 129.091 52.259 128.919 52.259C128.651 52.259 128.44 52.3158 128.286 52.4295C128.136 52.5432 128.061 52.6917 128.061 52.875C128.061 52.996 128.099 53.0987 128.176 53.183C128.257 53.2637 128.362 53.3352 128.49 53.3975C128.622 53.4598 128.77 53.5167 128.935 53.568C129.1 53.6157 129.267 53.6688 129.436 53.7275C129.608 53.7862 129.777 53.854 129.942 53.931C130.107 54.0043 130.254 54.0997 130.382 54.217C130.514 54.3307 130.618 54.4682 130.695 54.6295C130.776 54.7908 130.816 54.9852 130.816 55.2125C130.816 55.4838 130.767 55.735 130.668 55.966C130.573 56.1933 130.43 56.3913 130.239 56.56C130.048 56.725 129.812 56.8552 129.529 56.9505C129.251 57.0422 128.928 57.088 128.561 57.088C128.367 57.088 128.176 57.0697 127.989 57.033C127.806 57 127.628 56.9523 127.456 56.89C127.287 56.8277 127.13 56.7543 126.983 56.67C126.84 56.5857 126.713 56.494 126.603 56.395L126.917 55.878C126.957 55.8157 127.005 55.768 127.06 55.735C127.115 55.702 127.185 55.6855 127.269 55.6855C127.353 55.6855 127.432 55.7093 127.505 55.757C127.582 55.8047 127.67 55.856 127.769 55.911C127.868 55.966 127.984 56.0173 128.116 56.065C128.252 56.1127 128.422 56.1365 128.627 56.1365C128.789 56.1365 128.926 56.1182 129.04 56.0815C129.157 56.0412 129.253 55.9898 129.326 55.9275C129.403 55.8652 129.458 55.7937 129.491 55.713C129.528 55.6287 129.546 55.5425 129.546 55.4545C129.546 55.3225 129.506 55.2143 129.425 55.13C129.348 55.0457 129.243 54.9723 129.111 54.91C128.983 54.8477 128.835 54.7927 128.666 54.745C128.501 54.6937 128.33 54.6387 128.154 54.58C127.982 54.5213 127.812 54.4535 127.643 54.3765C127.478 54.2958 127.329 54.195 127.197 54.074C127.069 53.953 126.965 53.8045 126.884 53.6285C126.807 53.4525 126.768 53.2398 126.768 52.9905C126.768 52.7595 126.814 52.5395 126.906 52.3305C126.998 52.1215 127.131 51.94 127.307 51.786C127.487 51.6283 127.709 51.5037 127.973 51.412C128.241 51.3167 128.549 51.269 128.897 51.269C129.286 51.269 129.639 51.3332 129.958 51.4615C130.277 51.5898 130.543 51.7585 130.756 51.9675L130.448 52.457ZM142.346 51.357L140.553 57H139.464C139.339 57 139.253 56.9193 139.205 56.758L138.193 53.4965C138.16 53.3865 138.129 53.2783 138.1 53.172C138.074 53.062 138.052 52.952 138.034 52.842C138.012 52.952 137.986 53.0638 137.957 53.1775C137.931 53.2875 137.902 53.3975 137.869 53.5075L136.84 56.758C136.796 56.9193 136.699 57 136.549 57H135.504L133.716 51.357H134.8C134.899 51.357 134.983 51.3808 135.053 51.4285C135.122 51.4762 135.168 51.5367 135.19 51.61L135.999 54.624C136.039 54.789 136.074 54.9503 136.103 55.108C136.136 55.2657 136.164 55.4233 136.186 55.581C136.226 55.4233 136.268 55.2657 136.312 55.108C136.36 54.9503 136.409 54.789 136.461 54.624L137.396 51.599C137.418 51.5257 137.46 51.4652 137.522 51.4175C137.588 51.3698 137.667 51.346 137.759 51.346H138.358C138.454 51.346 138.534 51.3698 138.6 51.4175C138.67 51.4652 138.716 51.5257 138.738 51.599L139.645 54.624C139.693 54.789 139.737 54.9522 139.777 55.1135C139.821 55.2712 139.863 55.4288 139.904 55.5865C139.951 55.2748 140.019 54.954 140.107 54.624L140.938 51.61C140.963 51.5367 141.009 51.4762 141.075 51.4285C141.141 51.3808 141.22 51.357 141.312 51.357H142.346ZM144.526 51.357V57H143.162V51.357H144.526ZM144.713 49.7125C144.713 49.8298 144.689 49.9398 144.642 50.0425C144.594 50.1452 144.53 50.235 144.449 50.312C144.372 50.389 144.281 50.4513 144.174 50.499C144.068 50.543 143.954 50.565 143.833 50.565C143.716 50.565 143.604 50.543 143.498 50.499C143.395 50.4513 143.305 50.389 143.228 50.312C143.151 50.235 143.089 50.1452 143.041 50.0425C142.997 49.9398 142.975 49.8298 142.975 49.7125C142.975 49.5915 142.997 49.4778 143.041 49.3715C143.089 49.2652 143.151 49.1735 143.228 49.0965C143.305 49.0195 143.395 48.959 143.498 48.915C143.604 48.8673 143.716 48.8435 143.833 48.8435C143.954 48.8435 144.068 48.8673 144.174 48.915C144.281 48.959 144.372 49.0195 144.449 49.0965C144.53 49.1735 144.594 49.2652 144.642 49.3715C144.689 49.4778 144.713 49.5915 144.713 49.7125ZM147.792 57.088C147.301 57.088 146.923 56.9505 146.659 56.6755C146.399 56.3968 146.269 56.0137 146.269 55.526V52.3745H145.691C145.618 52.3745 145.556 52.3507 145.504 52.303C145.453 52.2553 145.427 52.1838 145.427 52.0885V51.5495L146.335 51.401L146.621 49.861C146.639 49.7877 146.674 49.7308 146.725 49.6905C146.777 49.6502 146.843 49.63 146.923 49.63H147.627V51.4065H149.134V52.3745H147.627V55.4325C147.627 55.6085 147.669 55.746 147.754 55.845C147.842 55.944 147.961 55.9935 148.111 55.9935C148.196 55.9935 148.265 55.9843 148.32 55.966C148.379 55.944 148.428 55.922 148.469 55.9C148.513 55.878 148.551 55.8578 148.584 55.8395C148.617 55.8175 148.65 55.8065 148.683 55.8065C148.724 55.8065 148.757 55.8175 148.782 55.8395C148.808 55.8578 148.835 55.8872 148.865 55.9275L149.272 56.5875C149.074 56.7525 148.846 56.8772 148.59 56.9615C148.333 57.0458 148.067 57.088 147.792 57.088ZM151.363 51.962C151.583 51.7567 151.825 51.5898 152.089 51.4615C152.353 51.3332 152.662 51.269 153.018 51.269C153.326 51.269 153.599 51.3222 153.838 51.4285C154.076 51.5312 154.274 51.6778 154.432 51.8685C154.593 52.0555 154.714 52.281 154.795 52.545C154.879 52.8053 154.921 53.0932 154.921 53.4085V57H153.563V53.4085C153.563 53.0638 153.484 52.798 153.326 52.611C153.168 52.4203 152.928 52.325 152.606 52.325C152.371 52.325 152.151 52.3782 151.946 52.4845C151.74 52.5908 151.546 52.7357 151.363 52.919V57H150.004V48.827H151.363V51.962ZM160.769 57.088C160.277 57.088 159.9 56.9505 159.636 56.6755C159.375 56.3968 159.245 56.0137 159.245 55.526V52.3745H158.668C158.594 52.3745 158.532 52.3507 158.481 52.303C158.429 52.2553 158.404 52.1838 158.404 52.0885V51.5495L159.311 51.401L159.597 49.861C159.616 49.7877 159.65 49.7308 159.702 49.6905C159.753 49.6502 159.819 49.63 159.9 49.63H160.604V51.4065H162.111V52.3745H160.604V55.4325C160.604 55.6085 160.646 55.746 160.73 55.845C160.818 55.944 160.937 55.9935 161.088 55.9935C161.172 55.9935 161.242 55.9843 161.297 55.966C161.355 55.944 161.405 55.922 161.445 55.9C161.489 55.878 161.528 55.8578 161.561 55.8395C161.594 55.8175 161.627 55.8065 161.66 55.8065C161.7 55.8065 161.733 55.8175 161.759 55.8395C161.784 55.8578 161.812 55.8872 161.841 55.9275L162.248 56.5875C162.05 56.7525 161.823 56.8772 161.566 56.9615C161.31 57.0458 161.044 57.088 160.769 57.088ZM165.435 51.269C165.853 51.269 166.232 51.3368 166.573 51.4725C166.918 51.6082 167.211 51.8007 167.453 52.05C167.699 52.2993 167.888 52.6037 168.02 52.963C168.152 53.3223 168.218 53.7238 168.218 54.1675C168.218 54.6148 168.152 55.0182 168.02 55.3775C167.888 55.7368 167.699 56.043 167.453 56.296C167.211 56.549 166.918 56.7433 166.573 56.879C166.232 57.0147 165.853 57.0825 165.435 57.0825C165.013 57.0825 164.63 57.0147 164.285 56.879C163.94 56.7433 163.645 56.549 163.4 56.296C163.158 56.043 162.969 55.7368 162.833 55.3775C162.701 55.0182 162.635 54.6148 162.635 54.1675C162.635 53.7238 162.701 53.3223 162.833 52.963C162.969 52.6037 163.158 52.2993 163.4 52.05C163.645 51.8007 163.94 51.6082 164.285 51.4725C164.63 51.3368 165.013 51.269 165.435 51.269ZM165.435 56.0375C165.904 56.0375 166.25 55.8798 166.474 55.5645C166.701 55.2492 166.815 54.7872 166.815 54.1785C166.815 53.5698 166.701 53.106 166.474 52.787C166.25 52.468 165.904 52.3085 165.435 52.3085C164.958 52.3085 164.604 52.4698 164.373 52.7925C164.146 53.1115 164.032 53.5735 164.032 54.1785C164.032 54.7835 164.146 55.2455 164.373 55.5645C164.604 55.8798 164.958 56.0375 165.435 56.0375ZM172.796 52.798C172.642 52.611 172.473 52.479 172.29 52.402C172.11 52.325 171.916 52.2865 171.707 52.2865C171.502 52.2865 171.317 52.325 171.152 52.402C170.987 52.479 170.845 52.5963 170.728 52.754C170.611 52.908 170.521 53.106 170.459 53.348C170.396 53.5863 170.365 53.8687 170.365 54.195C170.365 54.525 170.391 54.8055 170.442 55.0365C170.497 55.2638 170.574 55.4508 170.673 55.5975C170.772 55.7405 170.893 55.845 171.036 55.911C171.179 55.9733 171.339 56.0045 171.515 56.0045C171.797 56.0045 172.037 55.9458 172.235 55.8285C172.433 55.7112 172.62 55.5443 172.796 55.328V52.798ZM174.155 48.827V57H173.324C173.144 57 173.031 56.9175 172.983 56.7525L172.868 56.208C172.64 56.4683 172.378 56.6792 172.081 56.8405C171.788 57.0018 171.445 57.0825 171.053 57.0825C170.745 57.0825 170.462 57.0183 170.206 56.89C169.949 56.7617 169.727 56.5765 169.54 56.3345C169.357 56.0888 169.214 55.7863 169.111 55.427C169.012 55.0677 168.963 54.657 168.963 54.195C168.963 53.777 169.019 53.3883 169.133 53.029C169.247 52.6697 169.41 52.358 169.623 52.094C169.835 51.83 170.09 51.6247 170.387 51.478C170.684 51.3277 171.018 51.2525 171.388 51.2525C171.703 51.2525 171.973 51.302 172.197 51.401C172.42 51.5 172.62 51.6338 172.796 51.8025V48.827H174.155ZM178.476 54.591C178.084 54.6093 177.754 54.6442 177.486 54.6955C177.219 54.7432 177.004 54.8055 176.843 54.8825C176.681 54.9595 176.566 55.0493 176.496 55.152C176.427 55.2547 176.392 55.3665 176.392 55.4875C176.392 55.7258 176.461 55.8963 176.601 55.999C176.744 56.1017 176.929 56.153 177.156 56.153C177.435 56.153 177.675 56.1035 177.877 56.0045C178.082 55.9018 178.282 55.7478 178.476 55.5425V54.591ZM175.363 52.1435C176.012 51.5495 176.793 51.2525 177.706 51.2525C178.036 51.2525 178.331 51.3075 178.592 51.4175C178.852 51.5238 179.072 51.6742 179.252 51.8685C179.431 52.0592 179.567 52.2883 179.659 52.556C179.754 52.8237 179.802 53.117 179.802 53.436V57H179.186C179.057 57 178.958 56.9817 178.889 56.945C178.819 56.9047 178.764 56.8258 178.724 56.7085L178.603 56.3015C178.46 56.4298 178.32 56.5435 178.185 56.6425C178.049 56.7378 177.908 56.8185 177.761 56.8845C177.615 56.9505 177.457 57 177.288 57.033C177.123 57.0697 176.94 57.088 176.738 57.088C176.5 57.088 176.28 57.0568 176.078 56.9945C175.877 56.9285 175.702 56.8313 175.556 56.703C175.409 56.5747 175.295 56.4152 175.215 56.2245C175.134 56.0338 175.094 55.812 175.094 55.559C175.094 55.416 175.118 55.2748 175.165 55.1355C175.213 54.9925 175.29 54.8568 175.396 54.7285C175.506 54.6002 175.647 54.4792 175.82 54.3655C175.992 54.2518 176.203 54.1528 176.452 54.0685C176.705 53.9842 176.999 53.9163 177.332 53.865C177.666 53.81 178.047 53.777 178.476 53.766V53.436C178.476 53.0583 178.396 52.7797 178.234 52.6C178.073 52.4167 177.84 52.325 177.536 52.325C177.316 52.325 177.132 52.3507 176.986 52.402C176.843 52.4533 176.716 52.512 176.606 52.578C176.496 52.6403 176.395 52.6972 176.304 52.7485C176.216 52.7998 176.117 52.8255 176.007 52.8255C175.911 52.8255 175.831 52.8017 175.765 52.754C175.699 52.7027 175.646 52.644 175.605 52.578L175.363 52.1435ZM186.046 51.357L182.972 58.551C182.931 58.6463 182.878 58.7178 182.812 58.7655C182.75 58.8168 182.653 58.8425 182.521 58.8425H181.509L182.565 56.5765L180.282 51.357H181.476C181.582 51.357 181.664 51.3827 181.723 51.434C181.785 51.4853 181.831 51.544 181.861 51.61L183.06 54.536C183.1 54.635 183.133 54.734 183.159 54.833C183.188 54.932 183.215 55.0328 183.241 55.1355C183.274 55.0328 183.307 54.932 183.34 54.833C183.373 54.7303 183.41 54.6295 183.45 54.5305L184.583 51.61C184.612 51.5367 184.66 51.4762 184.726 51.4285C184.796 51.3808 184.873 51.357 184.957 51.357H186.046ZM186.291 58.3475C186.225 58.2925 186.192 58.2247 186.192 58.144C186.192 58.1147 186.201 58.0817 186.219 58.045C186.241 58.0083 186.267 57.9753 186.296 57.946C186.336 57.902 186.386 57.847 186.445 57.781C186.503 57.7187 186.562 57.6453 186.621 57.561C186.679 57.4803 186.732 57.3905 186.78 57.2915C186.831 57.1962 186.87 57.0935 186.896 56.9835C186.778 56.9835 186.672 56.9633 186.577 56.923C186.481 56.879 186.399 56.8203 186.329 56.747C186.263 56.6737 186.21 56.5875 186.17 56.4885C186.133 56.3895 186.115 56.2813 186.115 56.164C186.115 56.0613 186.133 55.966 186.17 55.878C186.21 55.7863 186.265 55.7075 186.335 55.6415C186.404 55.5718 186.489 55.5187 186.588 55.482C186.687 55.4417 186.795 55.4215 186.912 55.4215C187.051 55.4215 187.172 55.4472 187.275 55.4985C187.381 55.5462 187.468 55.614 187.534 55.702C187.603 55.7863 187.655 55.8853 187.688 55.999C187.724 56.109 187.743 56.2263 187.743 56.351C187.743 56.527 187.715 56.7122 187.66 56.9065C187.609 57.1008 187.532 57.2952 187.429 57.4895C187.326 57.6838 187.198 57.8727 187.044 58.056C186.894 58.2393 186.721 58.408 186.527 58.562L186.291 58.3475ZM199.397 51.357L197.604 57H196.515C196.391 57 196.305 56.9193 196.257 56.758L195.245 53.4965C195.212 53.3865 195.181 53.2783 195.151 53.172C195.126 53.062 195.104 52.952 195.085 52.842C195.063 52.952 195.038 53.0638 195.008 53.1775C194.983 53.2875 194.953 53.3975 194.92 53.5075L193.892 56.758C193.848 56.9193 193.751 57 193.6 57H192.555L190.768 51.357H191.851C191.95 51.357 192.035 51.3808 192.104 51.4285C192.174 51.4762 192.22 51.5367 192.242 51.61L193.05 54.624C193.091 54.789 193.126 54.9503 193.155 55.108C193.188 55.2657 193.215 55.4233 193.237 55.581C193.278 55.4233 193.32 55.2657 193.364 55.108C193.412 54.9503 193.461 54.789 193.512 54.624L194.447 51.599C194.469 51.5257 194.512 51.4652 194.574 51.4175C194.64 51.3698 194.719 51.346 194.81 51.346H195.41C195.505 51.346 195.586 51.3698 195.652 51.4175C195.722 51.4652 195.767 51.5257 195.789 51.599L196.697 54.624C196.745 54.789 196.789 54.9522 196.829 55.1135C196.873 55.2712 196.915 55.4288 196.955 55.5865C197.003 55.2748 197.071 54.954 197.159 54.624L197.989 51.61C198.015 51.5367 198.061 51.4762 198.127 51.4285C198.193 51.3808 198.272 51.357 198.363 51.357H199.397ZM201.578 51.357V57H200.214V51.357H201.578ZM201.765 49.7125C201.765 49.8298 201.741 49.9398 201.694 50.0425C201.646 50.1452 201.582 50.235 201.501 50.312C201.424 50.389 201.332 50.4513 201.226 50.499C201.12 50.543 201.006 50.565 200.885 50.565C200.768 50.565 200.656 50.543 200.55 50.499C200.447 50.4513 200.357 50.389 200.28 50.312C200.203 50.235 200.141 50.1452 200.093 50.0425C200.049 49.9398 200.027 49.8298 200.027 49.7125C200.027 49.5915 200.049 49.4778 200.093 49.3715C200.141 49.2652 200.203 49.1735 200.28 49.0965C200.357 49.0195 200.447 48.959 200.55 48.915C200.656 48.8673 200.768 48.8435 200.885 48.8435C201.006 48.8435 201.12 48.8673 201.226 48.915C201.332 48.959 201.424 49.0195 201.501 49.0965C201.582 49.1735 201.646 49.2652 201.694 49.3715C201.741 49.4778 201.765 49.5915 201.765 49.7125ZM204.844 57.088C204.353 57.088 203.975 56.9505 203.711 56.6755C203.451 56.3968 203.32 56.0137 203.32 55.526V52.3745H202.743C202.67 52.3745 202.607 52.3507 202.556 52.303C202.505 52.2553 202.479 52.1838 202.479 52.0885V51.5495L203.386 51.401L203.672 49.861C203.691 49.7877 203.726 49.7308 203.777 49.6905C203.828 49.6502 203.894 49.63 203.975 49.63H204.679V51.4065H206.186V52.3745H204.679V55.4325C204.679 55.6085 204.721 55.746 204.805 55.845C204.893 55.944 205.013 55.9935 205.163 55.9935C205.247 55.9935 205.317 55.9843 205.372 55.966C205.431 55.944 205.48 55.922 205.52 55.9C205.564 55.878 205.603 55.8578 205.636 55.8395C205.669 55.8175 205.702 55.8065 205.735 55.8065C205.775 55.8065 205.808 55.8175 205.834 55.8395C205.86 55.8578 205.887 55.8872 205.916 55.9275L206.323 56.5875C206.125 56.7525 205.898 56.8772 205.641 56.9615C205.385 57.0458 205.119 57.088 204.844 57.088ZM208.414 51.962C208.634 51.7567 208.876 51.5898 209.14 51.4615C209.404 51.3332 209.714 51.269 210.07 51.269C210.378 51.269 210.651 51.3222 210.889 51.4285C211.128 51.5312 211.326 51.6778 211.483 51.8685C211.645 52.0555 211.766 52.281 211.846 52.545C211.931 52.8053 211.973 53.0932 211.973 53.4085V57H210.614V53.4085C210.614 53.0638 210.535 52.798 210.378 52.611C210.22 52.4203 209.98 52.325 209.657 52.325C209.423 52.325 209.203 52.3782 208.997 52.4845C208.792 52.5908 208.598 52.7357 208.414 52.919V57H207.056V48.827H208.414V51.962ZM220.786 51.357L217.712 58.551C217.671 58.6463 217.618 58.7178 217.552 58.7655C217.49 58.8168 217.393 58.8425 217.261 58.8425H216.249L217.305 56.5765L215.022 51.357H216.216C216.322 51.357 216.405 51.3827 216.463 51.434C216.526 51.4853 216.571 51.544 216.601 51.61L217.8 54.536C217.84 54.635 217.873 54.734 217.899 54.833C217.928 54.932 217.956 55.0328 217.981 55.1355C218.014 55.0328 218.047 54.932 218.08 54.833C218.113 54.7303 218.15 54.6295 218.19 54.5305L219.323 51.61C219.353 51.5367 219.4 51.4762 219.466 51.4285C219.536 51.3808 219.613 51.357 219.697 51.357H220.786ZM223.786 51.269C224.204 51.269 224.584 51.3368 224.925 51.4725C225.269 51.6082 225.563 51.8007 225.805 52.05C226.05 52.2993 226.239 52.6037 226.371 52.963C226.503 53.3223 226.569 53.7238 226.569 54.1675C226.569 54.6148 226.503 55.0182 226.371 55.3775C226.239 55.7368 226.05 56.043 225.805 56.296C225.563 56.549 225.269 56.7433 224.925 56.879C224.584 57.0147 224.204 57.0825 223.786 57.0825C223.364 57.0825 222.981 57.0147 222.637 56.879C222.292 56.7433 221.997 56.549 221.751 56.296C221.509 56.043 221.32 55.7368 221.185 55.3775C221.053 55.0182 220.987 54.6148 220.987 54.1675C220.987 53.7238 221.053 53.3223 221.185 52.963C221.32 52.6037 221.509 52.2993 221.751 52.05C221.997 51.8007 222.292 51.6082 222.637 51.4725C222.981 51.3368 223.364 51.269 223.786 51.269ZM223.786 56.0375C224.255 56.0375 224.602 55.8798 224.826 55.5645C225.053 55.2492 225.167 54.7872 225.167 54.1785C225.167 53.5698 225.053 53.106 224.826 52.787C224.602 52.468 224.255 52.3085 223.786 52.3085C223.309 52.3085 222.956 52.4698 222.725 52.7925C222.497 53.1115 222.384 53.5735 222.384 54.1785C222.384 54.7835 222.497 55.2455 222.725 55.5645C222.956 55.8798 223.309 56.0375 223.786 56.0375ZM232.468 51.357V57H231.637C231.457 57 231.344 56.9175 231.296 56.7525L231.203 56.3015C230.972 56.5362 230.717 56.7268 230.438 56.8735C230.159 57.0165 229.831 57.088 229.454 57.088C229.146 57.088 228.872 57.0367 228.634 56.934C228.399 56.8277 228.201 56.6792 228.04 56.4885C227.879 56.2978 227.756 56.0723 227.672 55.812C227.591 55.548 227.551 55.2583 227.551 54.943V51.357H228.909V54.943C228.909 55.2877 228.988 55.5553 229.146 55.746C229.307 55.933 229.547 56.0265 229.866 56.0265C230.101 56.0265 230.321 55.9752 230.526 55.8725C230.731 55.7662 230.926 55.6213 231.109 55.438V51.357H232.468ZM233.617 56.252C233.617 56.1383 233.637 56.0302 233.677 55.9275C233.721 55.8248 233.78 55.7368 233.853 55.6635C233.926 55.5902 234.014 55.5315 234.117 55.4875C234.22 55.4435 234.33 55.4215 234.447 55.4215C234.564 55.4215 234.673 55.4435 234.772 55.4875C234.874 55.5315 234.962 55.5902 235.036 55.6635C235.113 55.7368 235.173 55.8248 235.217 55.9275C235.261 56.0302 235.283 56.1383 235.283 56.252C235.283 56.3693 235.261 56.4793 235.217 56.582C235.173 56.681 235.113 56.7672 235.036 56.8405C234.962 56.9138 234.874 56.9707 234.772 57.011C234.673 57.055 234.564 57.077 234.447 57.077C234.33 57.077 234.22 57.055 234.117 57.011C234.014 56.9707 233.926 56.9138 233.853 56.8405C233.78 56.7672 233.721 56.681 233.677 56.582C233.637 56.4793 233.617 56.3693 233.617 56.252Z" fill="#E2D659"/>
<path d="M2.40509 5.63915H21.7433V11.0019H9.58786V14.0895H19.9883V19.2247H9.58786V22.6373H21.9708V28H2.40509V5.63915ZM37.236 10.4493C39.2294 10.4493 40.7245 11.0019 41.7212 12.1069C42.7179 13.2119 43.2162 14.8045 43.2162 16.8846V28H36.7485V17.6646C36.7485 16.9279 36.5535 16.3429 36.1635 15.9095C35.7951 15.4545 35.2643 15.227 34.5709 15.227C33.7692 15.227 33.1192 15.487 32.6208 16.007C32.1225 16.5271 31.8733 17.1663 31.8733 17.9246V28H25.4056V10.8393H30.7033L31.1258 13.4394C31.7975 12.5294 32.675 11.8036 33.7584 11.2619C34.8634 10.7202 36.0226 10.4493 37.236 10.4493ZM58.5241 10.8393V15.227H54.8839V21.7598C54.8839 22.5398 55.0139 23.114 55.2739 23.4823C55.5339 23.829 56.0106 24.0023 56.704 24.0023H58.5241V27.805C58.004 27.9783 57.3323 28.1192 56.509 28.2275C55.6856 28.3358 54.9706 28.39 54.3639 28.39C52.4572 28.39 50.9838 28.0433 49.9437 27.35C48.9254 26.6566 48.4162 25.4757 48.4162 23.8073V15.227H46.0111V10.8393H48.6762L50.0737 5.63915H54.8839V10.8393H58.5241ZM71.958 10.4168C72.4563 10.4168 72.9005 10.4818 73.2905 10.6118C73.6805 10.7202 73.8756 10.7852 73.8756 10.8068V16.2346H71.7955C70.4521 16.2346 69.4771 16.5812 68.8704 17.2746C68.2853 17.968 67.9928 18.9972 67.9928 20.3622V28H61.5251V10.8393H66.8228L67.2453 13.4394C67.6353 12.4427 68.2528 11.6952 69.0979 11.1969C69.9429 10.6768 70.8963 10.4168 71.958 10.4168ZM85.3472 10.4493C88.489 10.4493 90.8833 11.186 92.53 12.6594C94.1984 14.1328 95.0326 16.3862 95.0326 19.4197V20.5247H82.1621C82.1621 21.7598 82.4329 22.6915 82.9746 23.3198C83.538 23.9482 84.4155 24.2624 85.6072 24.2624C86.6906 24.2624 87.4815 24.0348 87.9798 23.5798C88.4998 23.1248 88.7598 22.5181 88.7598 21.7598H95.0326C95.0326 23.8398 94.2417 25.4649 92.66 26.6349C91.0783 27.805 88.7707 28.39 85.7372 28.39C82.5521 28.39 80.082 27.6533 78.327 26.1799C76.5719 24.6849 75.6944 22.4315 75.6944 19.4197C75.6944 16.4729 76.5502 14.2411 78.2619 12.7244C79.9737 11.2077 82.3354 10.4493 85.3472 10.4493ZM85.6072 14.577C83.5705 14.577 82.4329 15.5412 82.1946 17.4696H88.4998C88.4998 16.5812 88.2398 15.877 87.7198 15.357C87.2215 14.837 86.5173 14.577 85.6072 14.577ZM109.463 10.4493C111.781 10.4493 113.569 11.2077 114.826 12.7244C116.082 14.2411 116.711 16.4837 116.711 19.4522C116.711 22.399 116.082 24.6307 114.826 26.1474C113.569 27.6425 111.781 28.39 109.463 28.39C107.469 28.39 105.866 27.74 104.653 26.4399V34.4027H98.185V10.8393H103.45L104.003 13.2769C105.259 11.3919 107.079 10.4493 109.463 10.4493ZM107.448 15.227C106.494 15.227 105.779 15.5629 105.303 16.2346C104.826 16.9062 104.588 17.7838 104.588 18.8672V19.9397C104.588 21.0231 104.826 21.9114 105.303 22.6048C105.779 23.2765 106.494 23.6123 107.448 23.6123C109.311 23.6123 110.243 22.4965 110.243 20.2647V18.5421C110.243 16.3321 109.311 15.227 107.448 15.227ZM130.263 10.4168C130.762 10.4168 131.206 10.4818 131.596 10.6118C131.986 10.7202 132.181 10.7852 132.181 10.8068V16.2346H130.101C128.758 16.2346 127.782 16.5812 127.176 17.2746C126.591 17.968 126.298 18.9972 126.298 20.3622V28H119.831V10.8393H125.128L125.551 13.4394C125.941 12.4427 126.558 11.6952 127.403 11.1969C128.248 10.6768 129.202 10.4168 130.263 10.4168ZM143.653 10.4493C146.794 10.4493 149.189 11.186 150.835 12.6594C152.504 14.1328 153.338 16.3862 153.338 19.4197V20.5247H140.468C140.468 21.7598 140.738 22.6915 141.28 23.3198C141.843 23.9482 142.721 24.2624 143.913 24.2624C144.996 24.2624 145.787 24.0348 146.285 23.5798C146.805 23.1248 147.065 22.5181 147.065 21.7598H153.338C153.338 23.8398 152.547 25.4649 150.965 26.6349C149.384 27.805 147.076 28.39 144.043 28.39C140.858 28.39 138.387 27.6533 136.632 26.1799C134.877 24.6849 134 22.4315 134 19.4197C134 16.4729 134.856 14.2411 136.567 12.7244C138.279 11.2077 140.641 10.4493 143.653 10.4493ZM143.913 14.577C141.876 14.577 140.738 15.5412 140.5 17.4696H146.805C146.805 16.5812 146.545 15.877 146.025 15.357C145.527 14.837 144.823 14.577 143.913 14.577ZM172.904 28L163.511 17.1446V28H156.913V5.63915H163.186L172.578 16.6571V5.63915H179.176V28H172.904ZM195.102 5.24914C198.959 5.24914 201.938 6.23501 204.04 8.20675C206.142 10.1785 207.193 13.0494 207.193 16.8196C207.193 20.5897 206.142 23.4607 204.04 25.4324C201.938 27.4041 198.959 28.39 195.102 28.39C191.245 28.39 188.266 27.415 186.164 25.4649C184.084 23.4932 183.044 20.6114 183.044 16.8196C183.044 13.0278 184.084 10.1568 186.164 8.20675C188.266 6.23501 191.245 5.24914 195.102 5.24914ZM195.102 10.6118C193.564 10.6118 192.394 11.0777 191.592 12.0094C190.79 12.9411 190.389 14.1978 190.389 15.7795V17.8596C190.389 19.4413 190.79 20.6981 191.592 21.6298C192.394 22.5615 193.564 23.0273 195.102 23.0273C196.64 23.0273 197.811 22.5615 198.612 21.6298C199.436 20.6981 199.847 19.4413 199.847 17.8596V15.7795C199.847 14.1978 199.436 12.9411 198.612 12.0094C197.811 11.0777 196.64 10.6118 195.102 10.6118ZM227.324 28L224.431 14.382H224.301L221.409 28H213.511L208.278 5.63915H215.754L218.321 18.3146H218.451L220.986 5.63915H228.072L230.769 18.3146H230.899L233.304 5.63915H240.455L235.222 28H227.324ZM243.932 20.0047L242.145 5.63915H249.912L248.06 20.0047H243.932ZM242.795 28V21.9873H249.23V28H242.795Z" fill="black"/>
</svg>
