<?xml version="1.0" encoding="utf-8"?>
<!-- Generator: Adobe Illustrator 27.5.0, SVG Export Plug-In . SVG Version: 6.00 Build 0)  -->
<svg version="1.1" xmlns="http://www.w3.org/2000/svg" xmlns:xlink="http://www.w3.org/1999/xlink" x="0px" y="0px"
	 viewBox="0 0 1200 1200" style="enable-background:new 0 0 1200 1200;" xml:space="preserve">
<g id="Background">
	<rect style="fill:#F7F6F5;" width="1200" height="1200"/>
</g>
<g id="Graphic_Elements">
	<polyline style="fill:none;stroke:#ED9B26;stroke-width:10;stroke-miterlimit:10;" points="942.027,855.067 942.027,898.348 
		995.158,898.348 995.158,939.823 	"/>
	
		<line style="fill:none;stroke:#ED9B26;stroke-width:10;stroke-miterlimit:10;" x1="942.027" y1="939.823" x2="942.027" y2="913.201"/>
	<polygon points="714.954,627.753 481.93,635.465 473.375,606.251 724.109,614.25 	"/>
	<path style="fill:#EAAB28;" d="M927.402,142.967l53.75,13.965c2.267,0.589,4.565-0.841,5.039-3.135l5.746-27.847
		c0.391-1.893-0.593-3.803-2.364-4.576c-10.225-4.467-44.098-16.06-64.589,15.424C923.465,139.13,924.709,142.268,927.402,142.967z"
		/>
	<path style="fill:#83E8B7;" d="M968.925,204.315l-15.792-52.902c-0.67-2.245-3.083-3.47-5.291-2.687l-26.922,9.548
		c-1.768,0.627-2.888,2.373-2.708,4.24c1.017,10.565,7.329,43.763,46.478,47.055C967.551,209.809,969.747,207.067,968.925,204.315z"
		/>
	<path style="fill:#BAC2FC;" d="M1001.541,139.007l-38.957,39.12c-1.653,1.66-1.579,4.365,0.163,5.932l21.237,19.104
		c1.394,1.254,3.463,1.405,5.018,0.357c8.799-5.935,34.963-27.322,19.177-63.298
		C1007.024,137.593,1003.567,136.972,1001.541,139.007z"/>
	<polygon style="fill:#BB1521;" points="144.429,622.13 117.642,622.13 117.723,590.114 144.429,578.414 	"/>
	<path style="fill:#3266B1;" d="M148.032,622.13v-54.265l107.493,18.333l0.651-3.816L148.032,563.93l-48.7,20.948l1.53,3.556
		l6.87-2.955l-0.104,40.522H147.2h0.832H364.5v-3.871H148.032z M144.161,622.13h-32.653l0.098-38.318l32.555-14.003V622.13z"/>
	
		<ellipse transform="matrix(0.1691 -0.9856 0.9856 0.1691 83.2014 504.7174)" style="fill:#E8B82D;" cx="340.956" cy="203.011" rx="15.928" ry="15.928"/>
	<path d="M598.905,178.241c0,10.844-8.823,19.667-19.667,19.667s-19.667-8.822-19.667-19.667c0-10.844,8.823-19.667,19.667-19.667
		v-24.355c-24.274,0-44.022,19.748-44.022,44.022c0,24.274,19.748,44.022,44.022,44.022c24.274,0,44.022-19.748,44.022-44.022
		H598.905z"/>
	<path d="M619.985,133.903c-24.269-0.447-44.377,18.937-44.822,43.206l24.351,0.447c0.197-10.721,8.98-19.306,19.658-19.306
		c0.121,0,0.244,0.001,0.366,0.003c10.842,0.199,19.502,9.182,19.303,20.025c-0.199,10.842-9.18,19.506-20.024,19.303l-0.447,24.351
		c0.274,0.005,0.547,0.008,0.82,0.007c23.9,0,43.562-19.218,44.002-43.214C663.637,154.456,644.254,134.349,619.985,133.903z"/>
	<rect x="941.858" y="585.602" width="46.479" height="18.215"/>
	<path d="M1003.899,537.55c0,0,3.52-7.064,2.063-18.76c-2.264-0.996-10.104-3.427-10.104-3.427l-7.246,17.304l4.698,10.803
		L1003.899,537.55z"/>
	<path d="M964.085,548.895c0,0,6.484-8.254,11.638-14.126c-2.642-3.663-9.835-15.742-9.835-15.742s-15.262,3.603-17.054,3.789
		c-0.459,1.494-1.792,14.458-1.176,18.615C948.644,541.794,964.085,548.895,964.085,548.895z"/>
	<path d="M937.332,513.776c0,0,2.258-8.865,8.449-14.856c-3.638-2.626-4.864-3.307-4.864-3.307s-12.672,9.434-13.405,22.378
		C930.041,516.281,937.332,513.776,937.332,513.776z"/>
	<path d="M941.974,556.565c0,0-11.336-5.502-15.077-22.223c2.422,3.368,9.476,8.468,11.582,10.56
		C938.826,547.057,938.7,553.057,941.974,556.565z"/>
	<path d="M988.994,502.753c0,0,0.624-8.84-0.791-11.567c-1.979-1.605-12.306-5.497-15.93-5.833c-4.043,1.867-9.223,5.1-9.787,6.222
		c0.509,0.097,7.754,7.268,10.405,11.811C975.118,502.754,984.311,501.513,988.994,502.753z"/>
	<path d="M983.946,560.566l0.561-4.546c0,0-10.052,2.338-16.599,1.829c-0.684-0.09-4.482,5.25-8.984,6.401
		C958.708,564.57,972.991,567.137,983.946,560.566z"/>
	<g>
		<path d="M973.658,485.8c7.635,0.935,15.141,4.163,21.103,9.37c2.974,2.594,5.656,5.584,7.796,8.957
			c2.149,3.366,3.773,7.066,4.915,10.919c2.249,7.74,2.041,16.124-0.248,23.901c-1.202,3.884-3.038,7.538-5.223,10.962
			c-2.32,3.336-5.022,6.403-8.117,9.05c-3.179,2.533-6.634,4.73-10.374,6.339c-0.918,0.434-1.9,0.718-2.848,1.081l-1.434,0.515
			c-0.484,0.151-0.982,0.258-1.473,0.388c-0.986,0.242-1.966,0.512-2.957,0.727l-3.014,0.431c-1.001,0.178-2.017,0.183-3.028,0.223
			c-1.012,0.013-2.023,0.127-3.033,0.051l-3.027-0.195l-0.756-0.05l-0.749-0.121l-1.495-0.249c-2.009-0.252-3.941-0.872-5.886-1.396
			c-0.953-0.326-1.883-0.723-2.823-1.082c-0.466-0.189-0.941-0.358-1.399-0.565l-1.345-0.685
			c-7.234-3.521-13.269-9.263-17.269-16.072l-1.424-2.596l-1.17-2.714c-0.425-0.887-0.688-1.839-0.991-2.771
			c-0.274-0.941-0.65-1.849-0.801-2.822c-0.962-3.799-1.133-7.72-1-11.555l0.327,2.865c0.061,0.475,0.093,0.951,0.178,1.421
			l0.306,1.402c0.215,0.93,0.349,1.872,0.618,2.783l0.853,2.712c0.13,0.454,0.286,0.899,0.488,1.329l0.548,1.305
			c0.367,0.867,0.691,1.75,1.174,2.562l1.33,2.477l1.559,2.333c2.155,3.035,4.597,5.883,7.515,8.166
			c0.356,0.294,0.695,0.607,1.063,0.884l1.133,0.795c0.765,0.513,1.472,1.109,2.279,1.554l2.391,1.37
			c0.794,0.46,1.664,0.774,2.488,1.17l1.251,0.566c0.425,0.167,0.866,0.297,1.297,0.448c0.87,0.282,1.725,0.604,2.601,0.857
			c1.783,0.396,3.531,0.929,5.353,1.091l1.352,0.186l0.676,0.092l0.683,0.022l2.727,0.096c0.908,0.046,1.815-0.094,2.721-0.13
			c0.906-0.062,1.815-0.086,2.705-0.279l2.682-0.438c0.882-0.202,1.752-0.455,2.629-0.677c0.436-0.12,0.88-0.216,1.31-0.355
			l1.272-0.475c0.84-0.335,1.714-0.587,2.527-0.985c3.316-1.462,6.361-3.46,9.175-5.723c2.772-2.329,5.2-5.036,7.304-7.984
			c1.985-3.03,3.604-6.286,4.788-9.717c0.298-0.855,0.492-1.744,0.746-2.615l0.362-1.313l0.227-1.343
			c0.141-0.897,0.322-1.79,0.436-2.692l0.178-2.726c0.099-0.909,0.046-1.821,0.018-2.732c-0.034-0.911-0.021-1.828-0.154-2.732
			c-0.108-0.906-0.181-1.819-0.315-2.724l-0.541-2.692c-0.855-3.565-2.226-7.002-3.987-10.25c-1.761-3.256-4.084-6.199-6.703-8.85
			C987.953,491.504,981.087,487.782,973.658,485.8z"/>
	</g>
	<path style="fill:none;stroke:#222221;stroke-width:9.6755;stroke-linecap:square;stroke-miterlimit:10;" d="M601.524,952.349"/>
	<path style="fill:none;stroke:#222221;stroke-width:9.6755;stroke-linecap:square;stroke-miterlimit:10;" d="M601.524,952.349"/>
	<g>
		<path d="M618.321,954.338c-0.693-2.994-1.193-5.987-1.624-8.981c-0.218-1.497-0.404-2.994-0.586-4.49l-0.246-2.306
			c-0.086-0.952-0.029-1.898,0.121-2.837c0.294-1.875,1.039-3.728,2.325-5.397c0.557-0.705,1.158-1.355,1.687-1.918
			c0.525-0.567,0.964-1.034,1.312-1.468c0.344-0.431,0.645-0.893,0.823-1.271c0.209-0.408,0.403-0.873,0.549-1.384
			c0.284-1.02,0.472-2.175,0.483-3.303l-0.001-2.155l0.023-2.245c0.006-1.497,0.082-2.994,0.12-4.49
			c0.069-1.497,0.14-2.994,0.238-4.49l0.163-2.245l0.041-0.561l0.026-0.281c0.002-0.01,0.005-0.075,0.006-0.041
			c0.001,0.054,0.006,0.108,0.013,0.161c0.016,0.104,0.032,0.217,0.065,0.323c0.252,0.884,0.981,1.486,1.861,1.574
			c0.22,0.023,0.449,0.007,0.663-0.038c0.108-0.023,0.211-0.057,0.306-0.092c0.036-0.014,0.122-0.052,0.114-0.052l-0.099,0.031
			c-0.267,0.086-0.53,0.164-0.748,0.211c-0.468,0.119-0.89,0.178-1.314,0.24c-0.845,0.12-1.651,0.188-2.461,0.228
			c-1.612,0.065-3.193,0.011-4.756-0.131c-3.124-0.311-6.176-0.957-9.085-2.062c3.055-0.6,6.003-1.092,8.858-1.755
			c1.424-0.326,2.825-0.68,4.17-1.087c0.666-0.209,1.334-0.408,1.942-0.65c0.303-0.113,0.606-0.246,0.849-0.36
			c0.141-0.059,0.228-0.114,0.31-0.162l0.033-0.018l0.247-0.099c0.183-0.07,0.377-0.123,0.577-0.163
			c0.397-0.082,0.816-0.097,1.221-0.051c1.627,0.185,3.006,1.377,3.423,2.996c0.048,0.198,0.091,0.402,0.107,0.6l0.029,0.4
			l0.026,0.281l0.041,0.561l0.163,2.245c0.097,1.497,0.169,2.994,0.238,4.49c0.038,1.497,0.114,2.994,0.12,4.49l0.023,2.245
			l0.006,1.123l-0.018,1.212c-0.062,1.863-0.37,3.695-1.044,5.512c-0.334,0.906-0.758,1.814-1.314,2.693
			c-0.589,0.909-1.215,1.631-1.882,2.303c-0.664,0.671-1.33,1.214-1.904,1.664c-0.571,0.452-1.05,0.84-1.493,1.25
			c-0.706,0.572-1.324,1.478-1.773,2.498c-0.215,0.512-0.386,1.055-0.502,1.6c-0.032,0.117-0.052,0.31-0.071,0.501l-0.06,0.561
			l-0.125,1.123c-0.182,1.497-0.368,2.994-0.586,4.49C619.514,948.351,619.013,951.345,618.321,954.338z"/>
	</g>
	<g>
		<path d="M578.833,938.867c-4.702,0.641-9.366,1.577-13.982,2.612c-2.308,0.52-4.6,1.101-6.849,1.783
			c-2.239,0.686-4.478,1.46-6.459,2.532c-0.967,0.531-1.922,1.18-2.39,1.882c-0.187,0.352-0.294,0.617-0.19,0.887
			c-0.017,0.066,0.069,0.149,0.094,0.224c0.05,0.081,0.039,0.145,0.133,0.251c0.152,0.191,0.276,0.397,0.44,0.581
			c1.323,1.498,3.485,2.37,5.62,3.032c2.184,0.643,4.462,1.046,6.807,1.444c2.348,0.427,4.591,0.777,6.922,0.985
			c2.314,0.22,4.644,0.326,6.981,0.364c1.169,0.017,2.339,0.017,3.512,0.003l0.88-0.014l0.207-0.005l0.103-0.011
			c0.069,0,0.133-0.027,0.2-0.033c0.255-0.074,0.499-0.196,0.684-0.389c0.194-0.183,0.321-0.422,0.393-0.664
			c0.024-0.125,0.055-0.248,0.046-0.379l-0.012-0.808l-0.068-3.56l-0.11-7.121l-0.395-28.483l-0.126-14.242l-0.06-7.121l-0.03-3.56
			l-0.007-0.894c0.001-0.378,0.013-0.757,0.047-1.134c0.064-0.754,0.196-1.504,0.392-2.236c0.393-1.459,1.063-2.868,1.932-4.083
			l2.054-2.908l2.054-2.908c0.656-0.951,1.471-2.025,1.846-2.692c0.442-0.777,0.763-1.621,0.949-2.494
			c0.093-0.436,0.153-0.88,0.179-1.325c0.016-0.242,0.015-0.402,0.016-0.712l-0.003-0.89l-0.02-7.121l-0.02-7.121l-0.01-3.56
			l-0.001-0.451c0.013-0.296,0.037-0.594,0.073-0.889c0.102-0.622,0.309-1.319,0.733-1.97c0.403-0.644,0.984-1.172,1.545-1.523
			c0.559-0.346,1.102-0.552,1.586-0.688c0.97-0.263,1.769-0.307,2.503-0.328c0.728-0.016,1.394,0.019,1.972,0.045l0.754,0.023
			c0.633-0.002,1.343,0.125,1.955,0.371c1.247,0.492,2.263,1.431,2.855,2.629c0.296,0.598,0.481,1.263,0.533,1.937l0.018,0.449
			l0.001,0.222l0.001,0.445l0.005,1.78l0.01,3.56l-0.01,14.083c0.044,0.894,0.221,1.781,0.524,2.624
			c0.151,0.422,0.334,0.832,0.546,1.227c0.105,0.198,0.218,0.392,0.339,0.58l0.463,0.71l3.91,5.951l-0.186-0.251
			c1.538,1.864,2.533,4.173,2.83,6.568c0.305,2.394-0.088,4.875-1.113,7.056l-0.008,0.018c-0.073,0.154-0.167,0.311-0.262,0.446
			c-1.966,2.727-4.012,5.148-5.378,7.61c-0.692,1.227-1.212,2.46-1.524,3.738l-0.196,0.968l-0.119,0.987l-0.047,1.005l-0.011,1.206
			l-0.081,9.667l-0.01,1.208l-0.005,0.601l0.007,0.499c0.022,0.666,0.091,1.336,0.214,1.987c0.247,1.3,0.695,2.538,1.343,3.523
			c0.46,0.78,1.491,1.501,2.9,2.449c0.695,0.485,1.452,0.996,2.246,1.77c0.757,0.746,1.413,1.601,1.908,2.528
			c1.013,1.84,1.412,3.949,1.375,5.875l-0.067,4.833l-0.067,4.833l-0.018,1.224c-0.014,0.578-0.086,1.147-0.216,1.697
			c-0.269,1.096-0.743,2.124-1.427,3.02c-0.672,0.899-1.564,1.67-2.62,2.206c-0.493,0.258-1.229,0.489-1.522,0.555l-1.167,0.314
			l-2.334,0.628l-1.06,0.283c0.049-0.015,0.356-0.148,0.586-0.498c0.22-0.351,0.21-0.592,0.208-0.639l-1.702-2.076
			c1.559,0.322,3.363,0.546,5.077,0.701c1.745,0.147,3.473,0.249,5.257,0.273c3.534,0.075,7.109-0.018,10.657-0.236
			c3.555-0.216,7.079-0.597,10.593-1.159c3.503-0.582,7.006-1.252,10.37-2.269c1.676-0.508,3.332-1.095,4.825-1.863
			c1.476-0.708,2.878-1.924,2.592-2.713c-0.109-0.461-0.6-1.065-1.251-1.538c-0.301-0.254-0.686-0.457-1.024-0.694
			c-0.362-0.217-0.753-0.407-1.129-0.614c-1.561-0.759-3.215-1.412-4.911-1.963c-6.803-2.171-13.874-3.787-21.041-4.468
			c1.801-0.07,3.606,0.165,5.403,0.295c1.793,0.171,3.609,0.291,5.392,0.613c3.583,0.556,7.135,1.234,10.664,2.171
			c1.765,0.46,3.514,1.028,5.242,1.744c0.859,0.378,1.718,0.791,2.541,1.359c0.409,0.296,0.819,0.591,1.19,1.017
			c0.094,0.1,0.191,0.193,0.281,0.302l0.244,0.382l0.233,0.39c0.067,0.141,0.107,0.311,0.156,0.469l0.125,0.486
			c0.003,0.171,0.001,0.344-0.006,0.517c0.01,0.36-0.095,0.666-0.208,0.974c-0.095,0.332-0.269,0.557-0.427,0.812
			c-0.156,0.268-0.342,0.46-0.528,0.659c-0.746,0.801-1.573,1.349-2.406,1.837c-1.672,0.966-3.402,1.667-5.145,2.294
			c-6.984,2.422-14.208,3.715-21.488,4.471c-3.64,0.365-7.276,0.601-10.954,0.667c-1.822,0.04-3.701,0.025-5.552-0.088
			c-1.88-0.123-3.669-0.28-5.653-0.631c-0.996-0.176-1.697-1.04-1.703-2.016v-0.06c-0.003-0.446,0.051-1.105,0.499-1.793
			c0.454-0.69,1.127-1.039,1.553-1.187l1.263-0.384l2.315-0.692c0.735-0.228,1.713-0.483,1.899-0.624
			c0.372-0.209,0.73-0.52,1.006-0.923c0.286-0.393,0.48-0.869,0.581-1.338c0.047-0.236,0.066-0.471,0.067-0.698l-0.016-1.193
			l-0.067-4.833l-0.067-4.833c-0.01-1.29-0.312-2.435-0.865-3.419c-0.583-1.018-1.257-1.605-2.593-2.473
			c-0.64-0.427-1.376-0.885-2.147-1.485c-0.754-0.579-1.612-1.391-2.223-2.328c-1.149-1.698-1.817-3.549-2.207-5.401
			c-0.192-0.929-0.305-1.865-0.352-2.808l-0.021-0.709l-0.005-0.608l-0.01-1.208l-0.081-9.667l-0.01-1.211l0.042-1.409l0.147-1.415
			l0.259-1.406c0.417-1.864,1.142-3.634,2.007-5.226c1.76-3.191,3.923-5.704,5.693-8.221l-0.271,0.463
			c0.556-1.204,0.761-2.558,0.587-3.87c-0.172-1.312-0.721-2.563-1.567-3.577c-0.062-0.075-0.12-0.152-0.173-0.231l-0.013-0.02
			l-3.943-5.929l-0.513-0.778c-0.201-0.31-0.389-0.628-0.565-0.953c-0.353-0.649-0.658-1.324-0.912-2.018
			c-0.508-1.388-0.809-2.851-0.891-4.327c-0.039-0.801-0.022-1.34-0.028-1.938l-0.005-1.78l-0.01-3.56l-0.005-7.121l0.01-3.56
			l0.005-1.78l0.001-0.445l0.001-0.222c0-0.093-0.005,0.01,0,0.005c0.006,0.083,0.031,0.166,0.065,0.232
			c0.07,0.132,0.157,0.211,0.3,0.268c0.061,0.027,0.178,0.044,0.218,0.039c-0.386-0.005-0.721-0.019-1.026-0.035
			c-0.607-0.032-1.127-0.058-1.586-0.049c-0.451,0.005-0.845,0.052-1.021,0.101c-0.087,0.022-0.1,0.039-0.046,0.003
			c0.064-0.032,0.193-0.153,0.285-0.292c0.094-0.155,0.128-0.272,0.128-0.314c0.009,0,0.008-0.002-0.005-0.003l-0.002,0.439
			l-0.01,3.56l-0.02,7.121l-0.02,7.121l-0.003,0.89c-0.002,0.283-0.005,0.717-0.032,1.067c-0.047,0.739-0.151,1.475-0.31,2.198
			c-0.318,1.446-0.859,2.843-1.598,4.125c-0.822,1.385-1.51,2.162-2.205,3.16l-2.102,2.873l-2.102,2.874
			c-0.524,0.708-0.899,1.471-1.142,2.299c-0.118,0.412-0.2,0.835-0.244,1.262c-0.024,0.214-0.033,0.428-0.039,0.643l-0.008,0.886
			l-0.03,3.56l-0.06,7.121l-0.126,14.242l-0.395,28.483l-0.11,7.121l-0.069,3.56l-0.009,0.445c-0.004,0.159-0.001,0.258-0.018,0.527
			c-0.017,0.464-0.119,0.925-0.256,1.369c-0.299,0.883-0.821,1.685-1.518,2.29c-0.686,0.616-1.548,1.027-2.449,1.21
			c-0.227,0.033-0.454,0.077-0.682,0.083l-0.342,0.012l-0.238-0.004l-0.9-0.02c-1.201-0.032-2.404-0.079-3.607-0.142
			c-2.407-0.132-4.818-0.334-7.221-0.656c-2.388-0.31-4.829-0.765-7.126-1.314c-2.311-0.511-4.698-1.048-7.035-1.864
			c-1.169-0.418-2.33-0.907-3.45-1.539c-1.114-0.63-2.209-1.421-3.076-2.515c-0.216-0.269-0.397-0.579-0.591-0.868
			c-0.099-0.125-0.177-0.362-0.258-0.545c-0.069-0.204-0.178-0.373-0.192-0.612c-0.031-0.226-0.053-0.454-0.066-0.679
			c0.017-0.224,0.068-0.449,0.113-0.67c0.034-0.233,0.14-0.408,0.231-0.599c0.098-0.181,0.182-0.392,0.309-0.525
			c0.951-1.223,2.105-1.826,3.226-2.38c2.268-1.054,4.594-1.692,6.925-2.262c2.333-0.558,4.679-1.006,7.031-1.392
			c2.352-0.388,4.713-0.69,7.075-0.967C574.097,939.266,576.458,938.983,578.833,938.867z"/>
	</g>
	
		<line style="fill:none;stroke:#000000;stroke-width:1.2978;stroke-miterlimit:10;" x1="637.396" y1="1042.3" x2="650.508" y2="1042.3"/>
	
		<line style="fill:none;stroke:#000000;stroke-width:1.2978;stroke-miterlimit:10;" x1="547.105" y1="1042.3" x2="560.216" y2="1042.3"/>
	
		<rect x="123.243" y="931.216" transform="matrix(-1 -1.224647e-16 1.224647e-16 -1 268.772 1884.7181)" width="22.286" height="22.286"/>
	
		<rect x="100.956" y="953.502" transform="matrix(-1 -1.224647e-16 1.224647e-16 -1 224.1992 1929.291)" width="22.286" height="22.286"/>
</g>
<g id="Text">
	<text transform="matrix(1 0 0 1 138.2612 217.2221)"><tspan x="0" y="0" style="fill:#B20006; font-family:'Montserrat-ExtraBold'; font-size:103px; letter-spacing:-10;">A</tspan><tspan x="52.736" y="0" style="fill:#498032; font-family:'Montserrat-ExtraBold'; font-size:103px; letter-spacing:-9;">R</tspan><tspan x="98.879" y="0" style="fill:#508CD3; font-family:'Montserrat-ExtraBold'; font-size:103px; letter-spacing:-10;">T</tspan></text>
	<g>
		<text transform="matrix(1 0 0 1 136.959 269.4526)"><tspan x="0" y="0" style="fill:#498032; font-family:'Montserrat-Bold'; font-size:63px; letter-spacing:-7;">a</tspan><tspan x="22.806" y="0" style="fill:#B80606; font-family:'Montserrat-Bold'; font-size:63px; letter-spacing:-5;">c</tspan><tspan x="45.737" y="0" style="fill:#E8B82D; font-family:'Montserrat-Bold'; font-size:63px; letter-spacing:-8;">a</tspan><tspan x="67.913" y="0" style="fill:#508DD4; font-family:'Montserrat-Bold'; font-size:63px; letter-spacing:-6;">d</tspan><tspan x="96.515" y="0" style="fill:#B80606; font-family:'Montserrat-Bold'; font-size:63px; letter-spacing:-8;">e</tspan><tspan x="119.887" y="0" style="fill:#488033; font-family:'Montserrat-Bold'; font-size:63px; letter-spacing:-8;">m</tspan><tspan x="164.239" y="0" style="fill:#4F8BD1; font-family:'Montserrat-Bold'; font-size:63px; letter-spacing:-3;">y</tspan></text>
	</g>
	<text transform="matrix(1 0 0 1 110.5596 290.5171)" style="fill:#498032; font-family:'Montserrat-Medium'; font-size:12px;">draw and paint narrative scenes</text>
	<text transform="matrix(1 0 0 1 493.4121 300.5485)" style="font-family:'Lato-Bold'; font-size:12px;">COSMIC LEVEL OF STYLE &amp; COMFORT</text>
	<text transform="matrix(1 0 0 1 486.8809 278.566)" style="font-family:'Lato-Black'; font-size:30px; letter-spacing:1;">COSMIC SPORTS</text>
	<text transform="matrix(1 0 0 1 842.7936 269.4384)"><tspan x="0" y="0" style="font-family:'Asap-Bold'; font-size:36px;">DESIGNOC</tspan><tspan x="162.105" y="0" style="font-family:'Asap-Bold'; font-size:36px; letter-spacing:2;">R</tspan><tspan x="183.813" y="0" style="font-family:'Asap-Bold'; font-size:36px;">A</tspan><tspan x="205.306" y="0" style="font-family:'Asap-Bold'; font-size:36px;">CY</tspan></text>
	<text transform="matrix(1 0 0 1 861.6999 294.4897)" style="font-family:'Asap-Regular'; font-size:18px;">creative and passionate</text>
	<text transform="matrix(0.97 0 0 1 501.9126 595.9121)" style="font-family:'ArchivoBlack-Regular'; font-size:33px;">EntrepreNOW!</text>
	<text transform="matrix(1 0 0 1 490.0645 623.8281)" style="fill:#E2D659; font-family:'Lato-Bold'; font-size:11px;">A better business starts with today, with you.</text>
	
		<text transform="matrix(0.98 0 0 1 866.5075 643.6022)" style="font-family:'Montserrat-ExtraBold'; font-size:36px; letter-spacing:1.02;">MUSKETEERS</text>
	<text transform="matrix(0.98 0 0 1 882.7048 665.5143)" style="font-family:'Montserrat-Regular'; font-size:15px;">MOTIVATED AND FEARLESS</text>
	
		<text transform="matrix(0.98 0 0 1 951.1804 600.3268)" style="fill:#FFFFFF; font-family:'Montserrat-SemiBold'; font-size:17px;">THE</text>
	<text transform="matrix(1 0 0 1 173.8892 640.7695)" style="font-family:'Montserrat-Regular'; font-size:12px;">Great designs for great moments</text>
	<text transform="matrix(0.97 0 0 1 171.7412 617.4053)"><tspan x="0" y="0" style="font-family:'Montserrat-Regular'; font-size:35px;">Direct</tspan><tspan x="86.694" y="0" style="font-family:'Montserrat-Regular'; font-size:35px; letter-spacing:-2.062;"> </tspan><tspan x="91.138" y="0" style="font-family:'Montserrat-Regular'; font-size:35px;">Decor</tspan></text>
	<text transform="matrix(1 0 0 1 161.4294 975.7892)" style="font-family:'Chivo-BlackItalic'; font-size:64px; letter-spacing:1;">Findr</text>
	<text transform="matrix(1 0 0 1 115.1731 1004.2843)"><tspan x="0" y="0" style="font-family:'Chivo-Regular'; font-size:14px;">Making internet easy for </tspan><tspan x="153.003" y="0" style="font-family:'Chivo-Bold'; font-size:14px;">business</tspan></text>
	
		<text transform="matrix(1 0 0 1 492.0083 1003.5201)" style="stroke:#ECECEC;stroke-width:0.4451;stroke-miterlimit:10; font-family:'CormorantGaramond-Bold'; font-size:36px;">RENDEZ-VOUS</text>
	<text transform="matrix(1 0 0 1 565.7427 1045.8326)"><tspan x="0" y="0" style="font-family:'Montserrat-SemiBold'; font-size:9px;">DEPUIS  </tspan><tspan x="32.517" y="0" style="font-family:'Montserrat-SemiBold'; font-size:9px;">1999</tspan></text>
	<g id="SVGID_x5F_1_x5F_">
		<path style="fill:none;" d="M514.44,1037.394c0,0,82.832-25.302,174.168,0"/>
	</g>
	<text>	<textPath  xlink:href="#SVGID_x5F_1_x5F_" startOffset="6.689%">
<tspan  style="font-family:'Montserrat-Regular'; font-size:10px; letter-spacing:40;">AUTHENTIC FRENCH CUISINE</tspan>	</textPath>
</text>
	<text transform="matrix(1 0 0 1 879.5664 1027.8984)" style="fill:#3B3B3B; font-family:'Montserrat-Medium'; font-size:11px;">It’s the art, not just a design</text>
	
		<text transform="matrix(1 0 0 1 861.1426 1001.4111)" style="fill:#3B3B3B; font-family:'Montserrat-Bold'; font-size:49px; letter-spacing:4;">intdeco</text>
</g>
</svg>
