<svg width="238" height="147" viewBox="0 0 238 147" fill="none" xmlns="http://www.w3.org/2000/svg">
<path d="M112.689 44.3457C112.689 55.1897 103.866 64.0127 93.022 64.0127C82.178 64.0127 73.355 55.1907 73.355 44.3457C73.355 33.5017 82.178 24.6787 93.022 24.6787V0.32373C68.748 0.32373 49 20.0717 49 44.3457C49 68.6197 68.748 88.3677 93.022 88.3677C117.296 88.3677 137.044 68.6197 137.044 44.3457H112.689Z" fill="black"/>
<path d="M133.769 0.00757823C109.5 -0.439422 89.3923 18.9446 88.9473 43.2136L113.298 43.6606C113.495 32.9396 122.278 24.3546 132.956 24.3546C133.077 24.3546 133.2 24.3556 133.322 24.3576C144.164 24.5566 152.824 33.5396 152.625 44.3826C152.426 55.2246 143.445 63.8886 132.601 63.6856L132.154 88.0366C132.428 88.0416 132.701 88.0446 132.974 88.0436C156.874 88.0436 176.536 68.8256 176.976 44.8296C177.421 20.5606 158.038 0.453578 133.769 0.00757823Z" fill="black"/>
<path d="M13.4553 142.936C13.5433 142.936 13.6213 142.97 13.6893 143.038L14.3253 143.728C13.9733 144.164 13.5393 144.498 13.0233 144.73C12.5113 144.962 11.8953 145.078 11.1753 145.078C10.5313 145.078 9.95125 144.968 9.43525 144.748C8.92325 144.528 8.48525 144.222 8.12125 143.83C7.75725 143.438 7.47725 142.97 7.28125 142.426C7.08925 141.882 6.99325 141.288 6.99325 140.644C6.99325 139.992 7.09725 139.396 7.30525 138.856C7.51325 138.312 7.80525 137.844 8.18125 137.452C8.56125 137.06 9.01325 136.756 9.53725 136.54C10.0613 136.32 10.6413 136.21 11.2773 136.21C11.9093 136.21 12.4693 136.314 12.9573 136.522C13.4493 136.73 13.8673 137.002 14.2113 137.338L13.6713 138.088C13.6393 138.136 13.5973 138.178 13.5453 138.214C13.4973 138.25 13.4293 138.268 13.3413 138.268C13.2813 138.268 13.2193 138.252 13.1553 138.22C13.0913 138.184 13.0213 138.142 12.9453 138.094C12.8693 138.042 12.7813 137.986 12.6813 137.926C12.5813 137.866 12.4653 137.812 12.3333 137.764C12.2013 137.712 12.0473 137.67 11.8713 137.638C11.6993 137.602 11.4993 137.584 11.2713 137.584C10.8833 137.584 10.5273 137.654 10.2033 137.794C9.88325 137.93 9.60725 138.13 9.37525 138.394C9.14325 138.654 8.96325 138.974 8.83525 139.354C8.70725 139.73 8.64325 140.16 8.64325 140.644C8.64325 141.132 8.71125 141.566 8.84725 141.946C8.98725 142.326 9.17525 142.646 9.41125 142.906C9.64725 143.166 9.92525 143.366 10.2453 143.506C10.5653 143.642 10.9093 143.71 11.2773 143.71C11.4973 143.71 11.6953 143.698 11.8713 143.674C12.0513 143.65 12.2153 143.612 12.3633 143.56C12.5153 143.508 12.6573 143.442 12.7893 143.362C12.9253 143.278 13.0593 143.176 13.1913 143.056C13.2313 143.02 13.2733 142.992 13.3173 142.972C13.3613 142.948 13.4073 142.936 13.4553 142.936ZM23.5173 140.644C23.5173 141.28 23.4113 141.87 23.1993 142.414C22.9913 142.954 22.6953 143.422 22.3113 143.818C21.9273 144.214 21.4653 144.524 20.9253 144.748C20.3853 144.968 19.7853 145.078 19.1253 145.078C18.4693 145.078 17.8713 144.968 17.3313 144.748C16.7913 144.524 16.3273 144.214 15.9393 143.818C15.5553 143.422 15.2573 142.954 15.0453 142.414C14.8333 141.87 14.7273 141.28 14.7273 140.644C14.7273 140.008 14.8333 139.42 15.0453 138.88C15.2573 138.336 15.5553 137.866 15.9393 137.47C16.3273 137.074 16.7913 136.766 17.3313 136.546C17.8713 136.322 18.4693 136.21 19.1253 136.21C19.5653 136.21 19.9793 136.262 20.3673 136.366C20.7553 136.466 21.1113 136.61 21.4353 136.798C21.7593 136.982 22.0493 137.208 22.3053 137.476C22.5653 137.74 22.7853 138.036 22.9653 138.364C23.1453 138.692 23.2813 139.048 23.3733 139.432C23.4693 139.816 23.5173 140.22 23.5173 140.644ZM21.8673 140.644C21.8673 140.168 21.8033 139.742 21.6753 139.366C21.5473 138.986 21.3653 138.664 21.1293 138.4C20.8933 138.136 20.6053 137.934 20.2653 137.794C19.9293 137.654 19.5493 137.584 19.1253 137.584C18.7013 137.584 18.3193 137.654 17.9793 137.794C17.6433 137.934 17.3553 138.136 17.1153 138.4C16.8793 138.664 16.6973 138.986 16.5693 139.366C16.4413 139.742 16.3773 140.168 16.3773 140.644C16.3773 141.12 16.4413 141.548 16.5693 141.928C16.6973 142.304 16.8793 142.624 17.1153 142.888C17.3553 143.148 17.6433 143.348 17.9793 143.488C18.3193 143.628 18.7013 143.698 19.1253 143.698C19.5493 143.698 19.9293 143.628 20.2653 143.488C20.6053 143.348 20.8933 143.148 21.1293 142.888C21.3653 142.624 21.5473 142.304 21.6753 141.928C21.8033 141.548 21.8673 141.12 21.8673 140.644ZM29.5548 137.884C29.5068 137.968 29.4548 138.03 29.3988 138.07C29.3468 138.106 29.2808 138.124 29.2008 138.124C29.1168 138.124 29.0248 138.094 28.9248 138.034C28.8288 137.97 28.7128 137.9 28.5768 137.824C28.4408 137.748 28.2808 137.68 28.0968 137.62C27.9168 137.556 27.7028 137.524 27.4548 137.524C27.2308 137.524 27.0348 137.552 26.8668 137.608C26.6988 137.66 26.5568 137.734 26.4408 137.83C26.3288 137.926 26.2448 138.042 26.1888 138.178C26.1328 138.31 26.1048 138.456 26.1048 138.616C26.1048 138.82 26.1608 138.99 26.2728 139.126C26.3888 139.262 26.5408 139.378 26.7288 139.474C26.9168 139.57 27.1308 139.656 27.3708 139.732C27.6108 139.808 27.8568 139.89 28.1088 139.978C28.3608 140.062 28.6068 140.162 28.8468 140.278C29.0868 140.39 29.3008 140.534 29.4888 140.71C29.6768 140.882 29.8268 141.094 29.9388 141.346C30.0548 141.598 30.1128 141.904 30.1128 142.264C30.1128 142.656 30.0448 143.024 29.9088 143.368C29.7768 143.708 29.5808 144.006 29.3208 144.262C29.0648 144.514 28.7508 144.714 28.3788 144.862C28.0068 145.006 27.5808 145.078 27.1008 145.078C26.8248 145.078 26.5528 145.05 26.2848 144.994C26.0168 144.942 25.7588 144.866 25.5107 144.766C25.2668 144.666 25.0368 144.546 24.8208 144.406C24.6048 144.266 24.4128 144.11 24.2448 143.938L24.7188 143.164C24.7588 143.108 24.8108 143.062 24.8748 143.026C24.9388 142.986 25.0068 142.966 25.0788 142.966C25.1788 142.966 25.2868 143.008 25.4028 143.092C25.5188 143.172 25.6568 143.262 25.8168 143.362C25.9768 143.462 26.1628 143.554 26.3748 143.638C26.5908 143.718 26.8488 143.758 27.1488 143.758C27.6088 143.758 27.9648 143.65 28.2168 143.434C28.4688 143.214 28.5948 142.9 28.5948 142.492C28.5948 142.264 28.5368 142.078 28.4208 141.934C28.3088 141.79 28.1588 141.67 27.9708 141.574C27.7828 141.474 27.5688 141.39 27.3288 141.322C27.0888 141.254 26.8448 141.18 26.5968 141.1C26.3488 141.02 26.1048 140.924 25.8648 140.812C25.6248 140.7 25.4108 140.554 25.2228 140.374C25.0348 140.194 24.8828 139.97 24.7668 139.702C24.6548 139.43 24.5988 139.096 24.5988 138.7C24.5988 138.384 24.6608 138.076 24.7848 137.776C24.9128 137.476 25.0968 137.21 25.3368 136.978C25.5768 136.746 25.8728 136.56 26.2248 136.42C26.5768 136.28 26.9808 136.21 27.4368 136.21C27.9488 136.21 28.4208 136.29 28.8528 136.45C29.2848 136.61 29.6528 136.834 29.9568 137.122L29.5548 137.884ZM40.9287 136.306V144.982H39.5067V139.378C39.5067 139.154 39.5187 138.912 39.5427 138.652L36.9207 143.578C36.7967 143.814 36.6067 143.932 36.3507 143.932H36.1227C35.8667 143.932 35.6767 143.814 35.5527 143.578L32.9007 138.634C32.9127 138.766 32.9227 138.896 32.9307 139.024C32.9387 139.152 32.9427 139.27 32.9427 139.378V144.982H31.5207V136.306H32.7387C32.8107 136.306 32.8727 136.308 32.9247 136.312C32.9767 136.316 33.0227 136.326 33.0627 136.342C33.1067 136.358 33.1447 136.384 33.1767 136.42C33.2127 136.456 33.2467 136.504 33.2787 136.564L35.8767 141.382C35.9447 141.51 36.0067 141.642 36.0627 141.778C36.1227 141.914 36.1807 142.054 36.2367 142.198C36.2927 142.05 36.3507 141.908 36.4107 141.772C36.4707 141.632 36.5347 141.498 36.6027 141.37L39.1647 136.564C39.1967 136.504 39.2307 136.456 39.2667 136.42C39.3027 136.384 39.3407 136.358 39.3807 136.342C39.4247 136.326 39.4727 136.316 39.5247 136.312C39.5767 136.308 39.6387 136.306 39.7107 136.306H40.9287ZM44.4844 144.982H42.8644V136.306H44.4844V144.982ZM52.3849 142.936C52.4729 142.936 52.5509 142.97 52.6189 143.038L53.2549 143.728C52.9029 144.164 52.4689 144.498 51.9529 144.73C51.4409 144.962 50.8249 145.078 50.1049 145.078C49.4609 145.078 48.8809 144.968 48.3649 144.748C47.8529 144.528 47.4149 144.222 47.0509 143.83C46.6869 143.438 46.4069 142.97 46.2109 142.426C46.0189 141.882 45.9229 141.288 45.9229 140.644C45.9229 139.992 46.0269 139.396 46.2349 138.856C46.4429 138.312 46.7349 137.844 47.1109 137.452C47.4909 137.06 47.9429 136.756 48.4669 136.54C48.9909 136.32 49.5709 136.21 50.2069 136.21C50.8389 136.21 51.3989 136.314 51.8869 136.522C52.3789 136.73 52.7969 137.002 53.1409 137.338L52.6009 138.088C52.5689 138.136 52.5269 138.178 52.4749 138.214C52.4269 138.25 52.3589 138.268 52.2709 138.268C52.2109 138.268 52.1489 138.252 52.0849 138.22C52.0209 138.184 51.9509 138.142 51.8749 138.094C51.7989 138.042 51.7109 137.986 51.6109 137.926C51.5109 137.866 51.3949 137.812 51.2629 137.764C51.1309 137.712 50.9769 137.67 50.8009 137.638C50.6289 137.602 50.4289 137.584 50.2009 137.584C49.8129 137.584 49.4569 137.654 49.1329 137.794C48.8129 137.93 48.5369 138.13 48.3049 138.394C48.0729 138.654 47.8929 138.974 47.7649 139.354C47.6369 139.73 47.5729 140.16 47.5729 140.644C47.5729 141.132 47.6409 141.566 47.7769 141.946C47.9169 142.326 48.1049 142.646 48.3409 142.906C48.5769 143.166 48.8549 143.366 49.1749 143.506C49.4949 143.642 49.8389 143.71 50.2069 143.71C50.4269 143.71 50.6249 143.698 50.8009 143.674C50.9809 143.65 51.1449 143.612 51.2929 143.56C51.4449 143.508 51.5869 143.442 51.7189 143.362C51.8549 143.278 51.9889 143.176 52.1209 143.056C52.1609 143.02 52.2029 142.992 52.2469 142.972C52.2909 142.948 52.3369 142.936 52.3849 142.936ZM62.3605 143.65V144.982H57.2785V136.306H58.8925V143.65H62.3605ZM65.1329 137.59V139.996H68.1689V141.238H65.1329V143.692H68.9849V144.982H63.5129V136.306H68.9849V137.59H65.1329ZM77.8492 136.306L74.3452 144.982H72.8872L69.3832 136.306H70.6792C70.8192 136.306 70.9332 136.34 71.0212 136.408C71.1092 136.476 71.1752 136.564 71.2192 136.672L73.2652 141.964C73.3332 142.136 73.3972 142.326 73.4572 142.534C73.5212 142.738 73.5812 142.952 73.6372 143.176C73.6852 142.952 73.7372 142.738 73.7932 142.534C73.8492 142.326 73.9112 142.136 73.9792 141.964L76.0132 136.672C76.0452 136.58 76.1072 136.496 76.1992 136.42C76.2952 136.344 76.4112 136.306 76.5472 136.306H77.8492ZM80.3673 137.59V139.996H83.4033V141.238H80.3673V143.692H84.2193V144.982H78.7473V136.306H84.2193V137.59H80.3673ZM90.7316 143.65V144.982H85.6496V136.306H87.2636V143.65H90.7316ZM102.713 140.644C102.713 141.28 102.607 141.87 102.395 142.414C102.187 142.954 101.891 143.422 101.507 143.818C101.123 144.214 100.661 144.524 100.121 144.748C99.5807 144.968 98.9807 145.078 98.3207 145.078C97.6647 145.078 97.0667 144.968 96.5267 144.748C95.9867 144.524 95.5227 144.214 95.1347 143.818C94.7507 143.422 94.4527 142.954 94.2407 142.414C94.0287 141.87 93.9227 141.28 93.9227 140.644C93.9227 140.008 94.0287 139.42 94.2407 138.88C94.4527 138.336 94.7507 137.866 95.1347 137.47C95.5227 137.074 95.9867 136.766 96.5267 136.546C97.0667 136.322 97.6647 136.21 98.3207 136.21C98.7607 136.21 99.1747 136.262 99.5627 136.366C99.9507 136.466 100.307 136.61 100.631 136.798C100.955 136.982 101.245 137.208 101.501 137.476C101.761 137.74 101.981 138.036 102.161 138.364C102.341 138.692 102.477 139.048 102.569 139.432C102.665 139.816 102.713 140.22 102.713 140.644ZM101.063 140.644C101.063 140.168 100.999 139.742 100.871 139.366C100.743 138.986 100.561 138.664 100.325 138.4C100.089 138.136 99.8007 137.934 99.4607 137.794C99.1247 137.654 98.7447 137.584 98.3207 137.584C97.8967 137.584 97.5147 137.654 97.1747 137.794C96.8387 137.934 96.5507 138.136 96.3107 138.4C96.0747 138.664 95.8927 138.986 95.7647 139.366C95.6367 139.742 95.5727 140.168 95.5727 140.644C95.5727 141.12 95.6367 141.548 95.7647 141.928C95.8927 142.304 96.0747 142.624 96.3107 142.888C96.5507 143.148 96.8387 143.348 97.1747 143.488C97.5147 143.628 97.8967 143.698 98.3207 143.698C98.7447 143.698 99.1247 143.628 99.4607 143.488C99.8007 143.348 100.089 143.148 100.325 142.888C100.561 142.624 100.743 142.304 100.871 141.928C100.999 141.548 101.063 141.12 101.063 140.644ZM105.75 137.59V140.158H109.002V141.448H105.75V144.982H104.13V136.306H109.602V137.59H105.75ZM118.172 137.884C118.124 137.968 118.072 138.03 118.016 138.07C117.964 138.106 117.898 138.124 117.818 138.124C117.734 138.124 117.642 138.094 117.542 138.034C117.446 137.97 117.33 137.9 117.194 137.824C117.058 137.748 116.898 137.68 116.714 137.62C116.534 137.556 116.32 137.524 116.072 137.524C115.848 137.524 115.652 137.552 115.484 137.608C115.316 137.66 115.174 137.734 115.058 137.83C114.946 137.926 114.862 138.042 114.806 138.178C114.75 138.31 114.722 138.456 114.722 138.616C114.722 138.82 114.778 138.99 114.89 139.126C115.006 139.262 115.158 139.378 115.346 139.474C115.534 139.57 115.748 139.656 115.988 139.732C116.228 139.808 116.474 139.89 116.726 139.978C116.978 140.062 117.224 140.162 117.464 140.278C117.704 140.39 117.918 140.534 118.106 140.71C118.294 140.882 118.444 141.094 118.556 141.346C118.672 141.598 118.73 141.904 118.73 142.264C118.73 142.656 118.662 143.024 118.526 143.368C118.394 143.708 118.198 144.006 117.938 144.262C117.682 144.514 117.368 144.714 116.996 144.862C116.624 145.006 116.198 145.078 115.718 145.078C115.442 145.078 115.17 145.05 114.902 144.994C114.634 144.942 114.376 144.866 114.128 144.766C113.884 144.666 113.654 144.546 113.438 144.406C113.222 144.266 113.03 144.11 112.862 143.938L113.336 143.164C113.376 143.108 113.428 143.062 113.492 143.026C113.556 142.986 113.624 142.966 113.696 142.966C113.796 142.966 113.904 143.008 114.02 143.092C114.136 143.172 114.274 143.262 114.434 143.362C114.594 143.462 114.78 143.554 114.992 143.638C115.208 143.718 115.466 143.758 115.766 143.758C116.226 143.758 116.582 143.65 116.834 143.434C117.086 143.214 117.212 142.9 117.212 142.492C117.212 142.264 117.154 142.078 117.038 141.934C116.926 141.79 116.776 141.67 116.588 141.574C116.4 141.474 116.186 141.39 115.946 141.322C115.706 141.254 115.462 141.18 115.214 141.1C114.966 141.02 114.722 140.924 114.482 140.812C114.242 140.7 114.028 140.554 113.84 140.374C113.652 140.194 113.5 139.97 113.384 139.702C113.272 139.43 113.216 139.096 113.216 138.7C113.216 138.384 113.278 138.076 113.402 137.776C113.53 137.476 113.714 137.21 113.954 136.978C114.194 136.746 114.49 136.56 114.842 136.42C115.194 136.28 115.598 136.21 116.054 136.21C116.566 136.21 117.038 136.29 117.47 136.45C117.902 136.61 118.27 136.834 118.574 137.122L118.172 137.884ZM126.198 137.632H123.582V144.982H121.968V137.632H119.352V136.306H126.198V137.632ZM131.059 141.622V144.982H129.451V141.622L126.289 136.306H127.711C127.851 136.306 127.961 136.34 128.041 136.408C128.125 136.476 128.195 136.562 128.251 136.666L129.835 139.564C129.927 139.736 130.007 139.898 130.075 140.05C130.147 140.202 130.211 140.354 130.267 140.506C130.319 140.354 130.379 140.202 130.447 140.05C130.515 139.898 130.593 139.736 130.681 139.564L132.259 136.666C132.303 136.578 132.369 136.496 132.457 136.42C132.545 136.344 132.657 136.306 132.793 136.306H134.221L131.059 141.622ZM140.196 143.65V144.982H135.114V136.306H136.728V143.65H140.196ZM142.969 137.59V139.996H146.005V141.238H142.969V143.692H146.821V144.982H141.349V136.306H146.821V137.59H142.969ZM153.071 140.926C152.751 141.134 152.517 141.37 152.369 141.634C152.225 141.894 152.153 142.174 152.153 142.474C152.153 142.694 152.191 142.892 152.267 143.068C152.343 143.244 152.445 143.394 152.573 143.518C152.705 143.638 152.857 143.732 153.029 143.8C153.205 143.864 153.391 143.896 153.587 143.896C153.939 143.896 154.261 143.842 154.553 143.734C154.845 143.622 155.109 143.468 155.345 143.272L153.071 140.926ZM158.849 144.982H157.397C157.245 144.982 157.121 144.964 157.025 144.928C156.933 144.892 156.835 144.816 156.731 144.7L156.131 144.082C155.751 144.394 155.325 144.638 154.853 144.814C154.381 144.99 153.871 145.078 153.323 145.078C152.991 145.078 152.663 145.022 152.339 144.91C152.019 144.794 151.733 144.628 151.481 144.412C151.229 144.196 151.025 143.936 150.869 143.632C150.717 143.324 150.641 142.978 150.641 142.594C150.641 142.322 150.685 142.066 150.773 141.826C150.861 141.582 150.983 141.356 151.139 141.148C151.295 140.94 151.481 140.754 151.697 140.59C151.913 140.422 152.149 140.278 152.405 140.158C152.189 139.858 152.033 139.566 151.937 139.282C151.841 138.994 151.793 138.708 151.793 138.424C151.793 138.124 151.847 137.84 151.955 137.572C152.067 137.3 152.227 137.064 152.435 136.864C152.643 136.664 152.899 136.506 153.203 136.39C153.507 136.27 153.851 136.21 154.235 136.21C154.587 136.21 154.901 136.264 155.177 136.372C155.457 136.48 155.695 136.624 155.891 136.804C156.091 136.984 156.247 137.19 156.359 137.422C156.475 137.654 156.543 137.894 156.563 138.142L155.621 138.34C155.445 138.376 155.317 138.3 155.237 138.112C155.201 138.008 155.153 137.91 155.093 137.818C155.037 137.722 154.969 137.64 154.889 137.572C154.809 137.5 154.715 137.444 154.607 137.404C154.499 137.36 154.375 137.338 154.235 137.338C154.067 137.338 153.917 137.368 153.785 137.428C153.653 137.484 153.541 137.562 153.449 137.662C153.361 137.758 153.293 137.872 153.245 138.004C153.197 138.132 153.173 138.268 153.173 138.412C153.173 138.532 153.185 138.648 153.209 138.76C153.233 138.872 153.273 138.984 153.329 139.096C153.385 139.208 153.457 139.324 153.545 139.444C153.637 139.56 153.749 139.686 153.881 139.822L156.185 142.216C156.317 141.964 156.423 141.698 156.503 141.418C156.583 141.138 156.635 140.854 156.659 140.566C156.671 140.474 156.703 140.4 156.755 140.344C156.807 140.288 156.879 140.26 156.971 140.26H157.895C157.891 140.788 157.815 141.292 157.667 141.772C157.519 142.252 157.307 142.694 157.031 143.098L158.849 144.982ZM168.729 142.936C168.817 142.936 168.895 142.97 168.963 143.038L169.599 143.728C169.247 144.164 168.813 144.498 168.297 144.73C167.785 144.962 167.169 145.078 166.449 145.078C165.805 145.078 165.225 144.968 164.709 144.748C164.197 144.528 163.759 144.222 163.395 143.83C163.031 143.438 162.751 142.97 162.555 142.426C162.363 141.882 162.267 141.288 162.267 140.644C162.267 139.992 162.371 139.396 162.579 138.856C162.787 138.312 163.079 137.844 163.455 137.452C163.835 137.06 164.287 136.756 164.811 136.54C165.335 136.32 165.915 136.21 166.551 136.21C167.183 136.21 167.743 136.314 168.231 136.522C168.723 136.73 169.141 137.002 169.485 137.338L168.945 138.088C168.913 138.136 168.871 138.178 168.819 138.214C168.771 138.25 168.703 138.268 168.615 138.268C168.555 138.268 168.493 138.252 168.429 138.22C168.365 138.184 168.295 138.142 168.219 138.094C168.143 138.042 168.055 137.986 167.955 137.926C167.855 137.866 167.739 137.812 167.607 137.764C167.475 137.712 167.321 137.67 167.145 137.638C166.973 137.602 166.773 137.584 166.545 137.584C166.157 137.584 165.801 137.654 165.477 137.794C165.157 137.93 164.881 138.13 164.649 138.394C164.417 138.654 164.237 138.974 164.109 139.354C163.981 139.73 163.917 140.16 163.917 140.644C163.917 141.132 163.985 141.566 164.121 141.946C164.261 142.326 164.449 142.646 164.685 142.906C164.921 143.166 165.199 143.366 165.519 143.506C165.839 143.642 166.183 143.71 166.551 143.71C166.771 143.71 166.969 143.698 167.145 143.674C167.325 143.65 167.489 143.612 167.637 143.56C167.789 143.508 167.931 143.442 168.063 143.362C168.199 143.278 168.333 143.176 168.465 143.056C168.505 143.02 168.547 142.992 168.591 142.972C168.635 142.948 168.681 142.936 168.729 142.936ZM178.791 140.644C178.791 141.28 178.685 141.87 178.473 142.414C178.265 142.954 177.969 143.422 177.585 143.818C177.201 144.214 176.739 144.524 176.199 144.748C175.659 144.968 175.059 145.078 174.399 145.078C173.743 145.078 173.145 144.968 172.605 144.748C172.065 144.524 171.601 144.214 171.213 143.818C170.829 143.422 170.531 142.954 170.319 142.414C170.107 141.87 170.001 141.28 170.001 140.644C170.001 140.008 170.107 139.42 170.319 138.88C170.531 138.336 170.829 137.866 171.213 137.47C171.601 137.074 172.065 136.766 172.605 136.546C173.145 136.322 173.743 136.21 174.399 136.21C174.839 136.21 175.253 136.262 175.641 136.366C176.029 136.466 176.385 136.61 176.709 136.798C177.033 136.982 177.323 137.208 177.579 137.476C177.839 137.74 178.059 138.036 178.239 138.364C178.419 138.692 178.555 139.048 178.647 139.432C178.743 139.816 178.791 140.22 178.791 140.644ZM177.141 140.644C177.141 140.168 177.077 139.742 176.949 139.366C176.821 138.986 176.639 138.664 176.403 138.4C176.167 138.136 175.879 137.934 175.539 137.794C175.203 137.654 174.823 137.584 174.399 137.584C173.975 137.584 173.593 137.654 173.253 137.794C172.917 137.934 172.629 138.136 172.389 138.4C172.153 138.664 171.971 138.986 171.843 139.366C171.715 139.742 171.651 140.168 171.651 140.644C171.651 141.12 171.715 141.548 171.843 141.928C171.971 142.304 172.153 142.624 172.389 142.888C172.629 143.148 172.917 143.348 173.253 143.488C173.593 143.628 173.975 143.698 174.399 143.698C174.823 143.698 175.203 143.628 175.539 143.488C175.879 143.348 176.167 143.148 176.403 142.888C176.639 142.624 176.821 142.304 176.949 141.928C177.077 141.548 177.141 141.12 177.141 140.644ZM189.616 136.306V144.982H188.194V139.378C188.194 139.154 188.206 138.912 188.23 138.652L185.608 143.578C185.484 143.814 185.294 143.932 185.038 143.932H184.81C184.554 143.932 184.364 143.814 184.24 143.578L181.588 138.634C181.6 138.766 181.61 138.896 181.618 139.024C181.626 139.152 181.63 139.27 181.63 139.378V144.982H180.208V136.306H181.426C181.498 136.306 181.56 136.308 181.612 136.312C181.664 136.316 181.71 136.326 181.75 136.342C181.794 136.358 181.832 136.384 181.864 136.42C181.9 136.456 181.934 136.504 181.966 136.564L184.564 141.382C184.632 141.51 184.694 141.642 184.75 141.778C184.81 141.914 184.868 142.054 184.924 142.198C184.98 142.05 185.038 141.908 185.098 141.772C185.158 141.632 185.222 141.498 185.29 141.37L187.852 136.564C187.884 136.504 187.918 136.456 187.954 136.42C187.99 136.384 188.028 136.358 188.068 136.342C188.112 136.326 188.16 136.316 188.212 136.312C188.264 136.308 188.326 136.306 188.398 136.306H189.616ZM193.172 137.59V140.158H196.424V141.448H193.172V144.982H191.552V136.306H197.024V137.59H193.172ZM206.541 140.644C206.541 141.28 206.435 141.87 206.223 142.414C206.015 142.954 205.719 143.422 205.335 143.818C204.951 144.214 204.489 144.524 203.949 144.748C203.409 144.968 202.809 145.078 202.149 145.078C201.493 145.078 200.895 144.968 200.355 144.748C199.815 144.524 199.351 144.214 198.963 143.818C198.579 143.422 198.281 142.954 198.069 142.414C197.857 141.87 197.751 141.28 197.751 140.644C197.751 140.008 197.857 139.42 198.069 138.88C198.281 138.336 198.579 137.866 198.963 137.47C199.351 137.074 199.815 136.766 200.355 136.546C200.895 136.322 201.493 136.21 202.149 136.21C202.589 136.21 203.003 136.262 203.391 136.366C203.779 136.466 204.135 136.61 204.459 136.798C204.783 136.982 205.073 137.208 205.329 137.476C205.589 137.74 205.809 138.036 205.989 138.364C206.169 138.692 206.305 139.048 206.397 139.432C206.493 139.816 206.541 140.22 206.541 140.644ZM204.891 140.644C204.891 140.168 204.827 139.742 204.699 139.366C204.571 138.986 204.389 138.664 204.153 138.4C203.917 138.136 203.629 137.934 203.289 137.794C202.953 137.654 202.573 137.584 202.149 137.584C201.725 137.584 201.343 137.654 201.003 137.794C200.667 137.934 200.379 138.136 200.139 138.4C199.903 138.664 199.721 138.986 199.593 139.366C199.465 139.742 199.401 140.168 199.401 140.644C199.401 141.12 199.465 141.548 199.593 141.928C199.721 142.304 199.903 142.624 200.139 142.888C200.379 143.148 200.667 143.348 201.003 143.488C201.343 143.628 201.725 143.698 202.149 143.698C202.573 143.698 202.953 143.628 203.289 143.488C203.629 143.348 203.917 143.148 204.153 142.888C204.389 142.624 204.571 142.304 204.699 141.928C204.827 141.548 204.891 141.12 204.891 140.644ZM210.58 140.434C210.884 140.434 211.148 140.396 211.372 140.32C211.6 140.244 211.786 140.14 211.93 140.008C212.078 139.872 212.188 139.712 212.26 139.528C212.332 139.344 212.368 139.142 212.368 138.922C212.368 138.482 212.222 138.144 211.93 137.908C211.642 137.672 211.2 137.554 210.604 137.554H209.572V140.434H210.58ZM214.732 144.982H213.274C212.998 144.982 212.798 144.874 212.674 144.658L210.85 141.88C210.782 141.776 210.706 141.702 210.622 141.658C210.542 141.614 210.422 141.592 210.262 141.592H209.572V144.982H207.958V136.306H210.604C211.192 136.306 211.696 136.368 212.116 136.492C212.54 136.612 212.886 136.782 213.154 137.002C213.426 137.222 213.626 137.486 213.754 137.794C213.882 138.098 213.946 138.434 213.946 138.802C213.946 139.094 213.902 139.37 213.814 139.63C213.73 139.89 213.606 140.126 213.442 140.338C213.282 140.55 213.082 140.736 212.842 140.896C212.606 141.056 212.336 141.182 212.032 141.274C212.136 141.334 212.232 141.406 212.32 141.49C212.408 141.57 212.488 141.666 212.56 141.778L214.732 144.982ZM221.506 137.632H218.89V144.982H217.276V137.632H214.66V136.306H221.506V137.632Z" fill="black"/>
<path d="M17.1 117.645C17.35 117.645 17.56 117.735 17.73 117.915L19.515 119.82C18.635 120.94 17.54 121.79 16.23 122.37C14.93 122.95 13.38 123.24 11.58 123.24C9.95 123.24 8.485 122.965 7.185 122.415C5.885 121.855 4.78 121.08 3.87 120.09C2.96 119.1 2.26 117.925 1.77 116.565C1.28 115.205 1.035 113.72 1.035 112.11C1.035 111.03 1.15 110.005 1.38 109.035C1.62 108.055 1.965 107.155 2.415 106.335C2.865 105.515 3.405 104.775 4.035 104.115C4.675 103.455 5.395 102.895 6.195 102.435C6.995 101.965 7.865 101.61 8.805 101.37C9.755 101.12 10.765 100.995 11.835 100.995C12.635 100.995 13.39 101.065 14.1 101.205C14.82 101.345 15.49 101.54 16.11 101.79C16.73 102.04 17.3 102.345 17.82 102.705C18.35 103.055 18.825 103.44 19.245 103.86L17.73 105.93C17.64 106.06 17.525 106.175 17.385 106.275C17.245 106.375 17.055 106.425 16.815 106.425C16.575 106.425 16.33 106.34 16.08 106.17C15.84 106 15.54 105.81 15.18 105.6C14.83 105.39 14.385 105.2 13.845 105.03C13.315 104.86 12.64 104.775 11.82 104.775C10.91 104.775 10.075 104.94 9.315 105.27C8.555 105.6 7.9 106.08 7.35 106.71C6.81 107.33 6.39 108.095 6.09 109.005C5.79 109.915 5.64 110.95 5.64 112.11C5.64 113.28 5.8 114.325 6.12 115.245C6.45 116.155 6.895 116.925 7.455 117.555C8.025 118.185 8.685 118.665 9.435 118.995C10.195 119.315 11.005 119.475 11.865 119.475C12.375 119.475 12.835 119.45 13.245 119.4C13.665 119.35 14.05 119.265 14.4 119.145C14.76 119.025 15.095 118.87 15.405 118.68C15.725 118.49 16.045 118.25 16.365 117.96C16.475 117.87 16.59 117.795 16.71 117.735C16.83 117.675 16.96 117.645 17.1 117.645ZM42.6166 112.11C42.6166 113.7 42.3466 115.175 41.8066 116.535C41.2766 117.895 40.5216 119.07 39.5416 120.06C38.5716 121.05 37.4016 121.83 36.0316 122.4C34.6616 122.96 33.1416 123.24 31.4716 123.24C29.8016 123.24 28.2816 122.96 26.9116 122.4C25.5416 121.83 24.3666 121.05 23.3866 120.06C22.4066 119.07 21.6466 117.895 21.1066 116.535C20.5766 115.175 20.3116 113.7 20.3116 112.11C20.3116 110.52 20.5766 109.05 21.1066 107.7C21.6466 106.34 22.4066 105.165 23.3866 104.175C24.3666 103.185 25.5416 102.41 26.9116 101.85C28.2816 101.28 29.8016 100.995 31.4716 100.995C33.1416 100.995 34.6616 101.28 36.0316 101.85C37.4016 102.41 38.5716 103.19 39.5416 104.19C40.5216 105.18 41.2766 106.355 41.8066 107.715C42.3466 109.065 42.6166 110.53 42.6166 112.11ZM38.0116 112.11C38.0116 110.97 37.8616 109.95 37.5616 109.05C37.2616 108.14 36.8266 107.37 36.2566 106.74C35.6966 106.1 35.0116 105.615 34.2016 105.285C33.4016 104.945 32.4916 104.775 31.4716 104.775C30.4516 104.775 29.5366 104.945 28.7266 105.285C27.9166 105.615 27.2266 106.1 26.6566 106.74C26.0966 107.37 25.6666 108.14 25.3666 109.05C25.0666 109.95 24.9166 110.97 24.9166 112.11C24.9166 113.26 25.0666 114.29 25.3666 115.2C25.6666 116.1 26.0966 116.865 26.6566 117.495C27.2266 118.125 27.9166 118.61 28.7266 118.95C29.5366 119.28 30.4516 119.445 31.4716 119.445C32.4916 119.445 33.4016 119.28 34.2016 118.95C35.0116 118.61 35.6966 118.125 36.2566 117.495C36.8266 116.865 37.2616 116.1 37.5616 115.2C37.8616 114.29 38.0116 113.26 38.0116 112.11ZM57.693 105.405C57.553 105.635 57.408 105.805 57.258 105.915C57.118 106.015 56.933 106.065 56.703 106.065C56.483 106.065 56.243 105.99 55.983 105.84C55.733 105.68 55.438 105.51 55.098 105.33C54.758 105.15 54.368 104.985 53.928 104.835C53.488 104.675 52.973 104.595 52.383 104.595C51.343 104.595 50.563 104.83 50.043 105.3C49.523 105.76 49.263 106.365 49.263 107.115C49.263 107.595 49.403 107.995 49.683 108.315C49.973 108.625 50.348 108.895 50.808 109.125C51.278 109.355 51.808 109.56 52.398 109.74C52.988 109.92 53.593 110.12 54.213 110.34C54.833 110.55 55.438 110.8 56.028 111.09C56.618 111.38 57.143 111.745 57.603 112.185C58.073 112.625 58.448 113.165 58.728 113.805C59.018 114.435 59.163 115.205 59.163 116.115C59.163 117.105 58.988 118.035 58.638 118.905C58.298 119.765 57.803 120.52 57.153 121.17C56.503 121.81 55.698 122.315 54.738 122.685C53.788 123.055 52.708 123.24 51.498 123.24C50.808 123.24 50.118 123.17 49.428 123.03C48.748 122.89 48.088 122.695 47.448 122.445C46.818 122.195 46.223 121.895 45.663 121.545C45.103 121.195 44.613 120.805 44.193 120.375L45.513 118.245C45.623 118.085 45.768 117.955 45.948 117.855C46.128 117.745 46.318 117.69 46.518 117.69C46.788 117.69 47.073 117.79 47.373 117.99C47.673 118.19 48.018 118.41 48.408 118.65C48.798 118.89 49.248 119.11 49.758 119.31C50.278 119.51 50.898 119.61 51.618 119.61C52.668 119.61 53.478 119.37 54.048 118.89C54.628 118.41 54.918 117.695 54.918 116.745C54.918 116.195 54.773 115.75 54.483 115.41C54.203 115.07 53.833 114.785 53.373 114.555C52.913 114.325 52.388 114.13 51.798 113.97C51.208 113.8 50.603 113.615 49.983 113.415C49.363 113.215 48.758 112.975 48.168 112.695C47.578 112.415 47.053 112.045 46.593 111.585C46.133 111.125 45.758 110.555 45.468 109.875C45.188 109.195 45.048 108.35 45.048 107.34C45.048 106.53 45.208 105.745 45.528 104.985C45.848 104.225 46.318 103.55 46.938 102.96C47.558 102.37 48.318 101.895 49.218 101.535C50.128 101.175 51.168 100.995 52.338 100.995C53.648 100.995 54.858 101.2 55.968 101.61C57.088 102.01 58.033 102.57 58.803 103.29L57.693 105.405ZM86.4265 101.235V123H82.4515V109.635C82.4515 109.355 82.4565 109.055 82.4665 108.735C82.4865 108.415 82.5165 108.09 82.5565 107.76L76.3315 119.565C75.9915 120.215 75.4665 120.54 74.7565 120.54H74.1265C73.7765 120.54 73.4665 120.46 73.1965 120.3C72.9265 120.13 72.7115 119.885 72.5515 119.565L66.2965 107.715C66.3265 108.065 66.3515 108.405 66.3715 108.735C66.3915 109.055 66.4015 109.355 66.4015 109.635V123H62.4265V101.235H65.8465C66.0365 101.235 66.2065 101.24 66.3565 101.25C66.5065 101.26 66.6365 101.29 66.7465 101.34C66.8665 101.38 66.9715 101.45 67.0615 101.55C67.1615 101.64 67.2565 101.77 67.3465 101.94L73.4365 113.55C73.6265 113.9 73.8015 114.26 73.9615 114.63C74.1315 115 74.2915 115.38 74.4415 115.77C74.5915 115.37 74.7465 114.98 74.9065 114.6C75.0765 114.22 75.2565 113.855 75.4465 113.505L81.4915 101.94C81.5815 101.77 81.6765 101.64 81.7765 101.55C81.8765 101.45 81.9815 101.38 82.0915 101.34C82.2115 101.29 82.3415 101.26 82.4815 101.25C82.6315 101.24 82.8065 101.235 83.0065 101.235H86.4265ZM95.4916 123H90.9616V101.235H95.4916V123ZM114.864 117.645C115.114 117.645 115.324 117.735 115.494 117.915L117.279 119.82C116.399 120.94 115.304 121.79 113.994 122.37C112.694 122.95 111.144 123.24 109.344 123.24C107.714 123.24 106.249 122.965 104.949 122.415C103.649 121.855 102.544 121.08 101.634 120.09C100.724 119.1 100.024 117.925 99.5337 116.565C99.0437 115.205 98.7987 113.72 98.7987 112.11C98.7987 111.03 98.9137 110.005 99.1437 109.035C99.3837 108.055 99.7287 107.155 100.179 106.335C100.629 105.515 101.169 104.775 101.799 104.115C102.439 103.455 103.159 102.895 103.959 102.435C104.759 101.965 105.629 101.61 106.569 101.37C107.519 101.12 108.529 100.995 109.599 100.995C110.399 100.995 111.154 101.065 111.864 101.205C112.584 101.345 113.254 101.54 113.874 101.79C114.494 102.04 115.064 102.345 115.584 102.705C116.114 103.055 116.589 103.44 117.009 103.86L115.494 105.93C115.404 106.06 115.289 106.175 115.149 106.275C115.009 106.375 114.819 106.425 114.579 106.425C114.339 106.425 114.094 106.34 113.844 106.17C113.604 106 113.304 105.81 112.944 105.6C112.594 105.39 112.149 105.2 111.609 105.03C111.079 104.86 110.404 104.775 109.584 104.775C108.674 104.775 107.839 104.94 107.079 105.27C106.319 105.6 105.664 106.08 105.114 106.71C104.574 107.33 104.154 108.095 103.854 109.005C103.554 109.915 103.404 110.95 103.404 112.11C103.404 113.28 103.564 114.325 103.884 115.245C104.214 116.155 104.659 116.925 105.219 117.555C105.789 118.185 106.449 118.665 107.199 118.995C107.959 119.315 108.769 119.475 109.629 119.475C110.139 119.475 110.599 119.45 111.009 119.4C111.429 119.35 111.814 119.265 112.164 119.145C112.524 119.025 112.859 118.87 113.169 118.68C113.489 118.49 113.809 118.25 114.129 117.96C114.239 117.87 114.354 117.795 114.474 117.735C114.594 117.675 114.724 117.645 114.864 117.645ZM138.728 105.405C138.588 105.635 138.443 105.805 138.293 105.915C138.153 106.015 137.968 106.065 137.738 106.065C137.518 106.065 137.278 105.99 137.018 105.84C136.768 105.68 136.473 105.51 136.133 105.33C135.793 105.15 135.403 104.985 134.963 104.835C134.523 104.675 134.008 104.595 133.418 104.595C132.378 104.595 131.598 104.83 131.078 105.3C130.558 105.76 130.298 106.365 130.298 107.115C130.298 107.595 130.438 107.995 130.718 108.315C131.008 108.625 131.383 108.895 131.843 109.125C132.313 109.355 132.843 109.56 133.433 109.74C134.023 109.92 134.628 110.12 135.248 110.34C135.868 110.55 136.473 110.8 137.063 111.09C137.653 111.38 138.178 111.745 138.638 112.185C139.108 112.625 139.483 113.165 139.763 113.805C140.053 114.435 140.198 115.205 140.198 116.115C140.198 117.105 140.023 118.035 139.673 118.905C139.333 119.765 138.838 120.52 138.188 121.17C137.538 121.81 136.733 122.315 135.773 122.685C134.823 123.055 133.743 123.24 132.533 123.24C131.843 123.24 131.153 123.17 130.463 123.03C129.783 122.89 129.123 122.695 128.483 122.445C127.853 122.195 127.258 121.895 126.698 121.545C126.138 121.195 125.648 120.805 125.228 120.375L126.548 118.245C126.658 118.085 126.803 117.955 126.983 117.855C127.163 117.745 127.353 117.69 127.553 117.69C127.823 117.69 128.108 117.79 128.408 117.99C128.708 118.19 129.053 118.41 129.443 118.65C129.833 118.89 130.283 119.11 130.793 119.31C131.313 119.51 131.933 119.61 132.653 119.61C133.703 119.61 134.513 119.37 135.083 118.89C135.663 118.41 135.953 117.695 135.953 116.745C135.953 116.195 135.808 115.75 135.518 115.41C135.238 115.07 134.868 114.785 134.408 114.555C133.948 114.325 133.423 114.13 132.833 113.97C132.243 113.8 131.638 113.615 131.018 113.415C130.398 113.215 129.793 112.975 129.203 112.695C128.613 112.415 128.088 112.045 127.628 111.585C127.168 111.125 126.793 110.555 126.503 109.875C126.223 109.195 126.083 108.35 126.083 107.34C126.083 106.53 126.243 105.745 126.563 104.985C126.883 104.225 127.353 103.55 127.973 102.96C128.593 102.37 129.353 101.895 130.253 101.535C131.163 101.175 132.203 100.995 133.373 100.995C134.683 100.995 135.893 101.2 137.003 101.61C138.123 102.01 139.068 102.57 139.838 103.29L138.728 105.405ZM150.812 112.065C152.222 112.065 153.252 111.725 153.902 111.045C154.562 110.365 154.892 109.435 154.892 108.255C154.892 107.715 154.807 107.225 154.637 106.785C154.477 106.335 154.227 105.955 153.887 105.645C153.557 105.325 153.137 105.08 152.627 104.91C152.117 104.74 151.512 104.655 150.812 104.655H147.962V112.065H150.812ZM150.812 101.235C152.302 101.235 153.587 101.41 154.667 101.76C155.757 102.11 156.652 102.6 157.352 103.23C158.052 103.85 158.567 104.59 158.897 105.45C159.237 106.31 159.407 107.245 159.407 108.255C159.407 109.325 159.232 110.305 158.882 111.195C158.532 112.085 158.002 112.85 157.292 113.49C156.582 114.13 155.687 114.63 154.607 114.99C153.527 115.34 152.262 115.515 150.812 115.515H147.962V123H143.462V101.235H150.812ZM183.3 112.11C183.3 113.7 183.03 115.175 182.49 116.535C181.96 117.895 181.205 119.07 180.225 120.06C179.255 121.05 178.085 121.83 176.715 122.4C175.345 122.96 173.825 123.24 172.155 123.24C170.485 123.24 168.965 122.96 167.595 122.4C166.225 121.83 165.05 121.05 164.07 120.06C163.09 119.07 162.33 117.895 161.79 116.535C161.26 115.175 160.995 113.7 160.995 112.11C160.995 110.52 161.26 109.05 161.79 107.7C162.33 106.34 163.09 105.165 164.07 104.175C165.05 103.185 166.225 102.41 167.595 101.85C168.965 101.28 170.485 100.995 172.155 100.995C173.825 100.995 175.345 101.28 176.715 101.85C178.085 102.41 179.255 103.19 180.225 104.19C181.205 105.18 181.96 106.355 182.49 107.715C183.03 109.065 183.3 110.53 183.3 112.11ZM178.695 112.11C178.695 110.97 178.545 109.95 178.245 109.05C177.945 108.14 177.51 107.37 176.94 106.74C176.38 106.1 175.695 105.615 174.885 105.285C174.085 104.945 173.175 104.775 172.155 104.775C171.135 104.775 170.22 104.945 169.41 105.285C168.6 105.615 167.91 106.1 167.34 106.74C166.78 107.37 166.35 108.14 166.05 109.05C165.75 109.95 165.6 110.97 165.6 112.11C165.6 113.26 165.75 114.29 166.05 115.2C166.35 116.1 166.78 116.865 167.34 117.495C167.91 118.125 168.6 118.61 169.41 118.95C170.22 119.28 171.135 119.445 172.155 119.445C173.175 119.445 174.085 119.28 174.885 118.95C175.695 118.61 176.38 118.125 176.94 117.495C177.51 116.865 177.945 116.1 178.245 115.2C178.545 114.29 178.695 113.26 178.695 112.11ZM193.397 111.54C194.127 111.54 194.757 111.45 195.287 111.27C195.817 111.08 196.252 110.825 196.592 110.505C196.932 110.175 197.182 109.79 197.342 109.35C197.502 108.91 197.582 108.43 197.582 107.91C197.582 106.88 197.237 106.08 196.547 105.51C195.867 104.94 194.827 104.655 193.427 104.655H191.087V111.54H193.397ZM203.942 123H199.877C199.117 123 198.567 122.71 198.227 122.13L194.087 115.455C193.917 115.195 193.727 115.005 193.517 114.885C193.317 114.765 193.017 114.705 192.617 114.705H191.087V123H186.587V101.235H193.427C194.947 101.235 196.247 101.395 197.327 101.715C198.407 102.025 199.292 102.46 199.982 103.02C200.672 103.58 201.177 104.25 201.497 105.03C201.817 105.8 201.977 106.65 201.977 107.58C201.977 108.3 201.872 108.985 201.662 109.635C201.462 110.275 201.167 110.86 200.777 111.39C200.387 111.92 199.907 112.39 199.337 112.8C198.767 113.21 198.117 113.54 197.387 113.79C197.677 113.95 197.947 114.145 198.197 114.375C198.447 114.595 198.672 114.86 198.872 115.17L203.942 123ZM220.976 104.865H214.616V123H210.101V104.865H203.741V101.235H220.976V104.865ZM235.437 105.405C235.297 105.635 235.152 105.805 235.002 105.915C234.862 106.015 234.677 106.065 234.447 106.065C234.227 106.065 233.987 105.99 233.727 105.84C233.477 105.68 233.182 105.51 232.842 105.33C232.502 105.15 232.112 104.985 231.672 104.835C231.232 104.675 230.717 104.595 230.127 104.595C229.087 104.595 228.307 104.83 227.787 105.3C227.267 105.76 227.007 106.365 227.007 107.115C227.007 107.595 227.147 107.995 227.427 108.315C227.717 108.625 228.092 108.895 228.552 109.125C229.022 109.355 229.552 109.56 230.142 109.74C230.732 109.92 231.337 110.12 231.957 110.34C232.577 110.55 233.182 110.8 233.772 111.09C234.362 111.38 234.887 111.745 235.347 112.185C235.817 112.625 236.192 113.165 236.472 113.805C236.762 114.435 236.907 115.205 236.907 116.115C236.907 117.105 236.732 118.035 236.382 118.905C236.042 119.765 235.547 120.52 234.897 121.17C234.247 121.81 233.442 122.315 232.482 122.685C231.532 123.055 230.452 123.24 229.242 123.24C228.552 123.24 227.862 123.17 227.172 123.03C226.492 122.89 225.832 122.695 225.192 122.445C224.562 122.195 223.967 121.895 223.407 121.545C222.847 121.195 222.357 120.805 221.937 120.375L223.257 118.245C223.367 118.085 223.512 117.955 223.692 117.855C223.872 117.745 224.062 117.69 224.262 117.69C224.532 117.69 224.817 117.79 225.117 117.99C225.417 118.19 225.762 118.41 226.152 118.65C226.542 118.89 226.992 119.11 227.502 119.31C228.022 119.51 228.642 119.61 229.362 119.61C230.412 119.61 231.222 119.37 231.792 118.89C232.372 118.41 232.662 117.695 232.662 116.745C232.662 116.195 232.517 115.75 232.227 115.41C231.947 115.07 231.577 114.785 231.117 114.555C230.657 114.325 230.132 114.13 229.542 113.97C228.952 113.8 228.347 113.615 227.727 113.415C227.107 113.215 226.502 112.975 225.912 112.695C225.322 112.415 224.797 112.045 224.337 111.585C223.877 111.125 223.502 110.555 223.212 109.875C222.932 109.195 222.792 108.35 222.792 107.34C222.792 106.53 222.952 105.745 223.272 104.985C223.592 104.225 224.062 103.55 224.682 102.96C225.302 102.37 226.062 101.895 226.962 101.535C227.872 101.175 228.912 100.995 230.082 100.995C231.392 100.995 232.602 101.2 233.712 101.61C234.832 102.01 235.777 102.57 236.547 103.29L235.437 105.405Z" fill="black"/>
</svg>
