<svg width="266" height="77" viewBox="0 0 266 77" fill="none" xmlns="http://www.w3.org/2000/svg">
<path d="M63.0227 68C62.929 67.7131 62.8054 67.456 62.652 67.2287C62.5014 66.9986 62.321 66.8026 62.1108 66.6406C61.9034 66.4787 61.6676 66.3551 61.4034 66.2699C61.1392 66.1847 60.8494 66.142 60.5341 66.142C60.017 66.142 59.5469 66.2756 59.1236 66.5426C58.7003 66.8097 58.3636 67.2031 58.1136 67.723C57.8636 68.2429 57.7386 68.8807 57.7386 69.6364C57.7386 70.392 57.8651 71.0298 58.1179 71.5497C58.3707 72.0696 58.7131 72.4631 59.1449 72.7301C59.5767 72.9972 60.0625 73.1307 60.6023 73.1307C61.1023 73.1307 61.5426 73.0241 61.9233 72.8111C62.3068 72.5952 62.6051 72.2912 62.8182 71.8991C63.0341 71.5043 63.142 71.0398 63.142 70.5057L63.4659 70.5739H60.8409V69.6364H64.1648V70.5739C64.1648 71.2926 64.0114 71.9176 63.7045 72.4489C63.4006 72.9801 62.9801 73.392 62.4432 73.6847C61.9091 73.9744 61.2955 74.1193 60.6023 74.1193C59.8295 74.1193 59.1506 73.9375 58.5653 73.5739C57.983 73.2102 57.5284 72.6932 57.2017 72.0227C56.8778 71.3523 56.7159 70.5568 56.7159 69.6364C56.7159 68.946 56.8082 68.3253 56.9929 67.7741C57.1804 67.2202 57.4446 66.7486 57.7855 66.3594C58.1264 65.9702 58.5298 65.6719 58.9957 65.4645C59.4616 65.2571 59.9744 65.1534 60.5341 65.1534C60.9943 65.1534 61.4233 65.223 61.821 65.3622C62.2216 65.4986 62.5781 65.6932 62.8906 65.946C63.206 66.196 63.4688 66.4957 63.679 66.8452C63.8892 67.1918 64.0341 67.5767 64.1136 68H63.0227ZM65.8384 74V67.4545H66.81V68.4432H66.8782C66.9975 68.1193 67.2134 67.8565 67.5259 67.6548C67.8384 67.4531 68.1907 67.3523 68.5827 67.3523C68.6566 67.3523 68.7489 67.3537 68.8597 67.3565C68.9705 67.3594 69.0543 67.3636 69.1112 67.3693V68.392C69.0771 68.3835 68.9989 68.3707 68.8768 68.3537C68.7575 68.3338 68.631 68.3239 68.4975 68.3239C68.1793 68.3239 67.8952 68.3906 67.6452 68.5241C67.3981 68.6548 67.2021 68.8366 67.0572 69.0696C66.9151 69.2997 66.8441 69.5625 66.8441 69.858V74H65.8384ZM72.8484 74.1364C72.2177 74.1364 71.6737 73.9972 71.2163 73.7188C70.7617 73.4375 70.4109 73.0455 70.1637 72.5426C69.9194 72.0369 69.7972 71.4489 69.7972 70.7784C69.7972 70.108 69.9194 69.517 70.1637 69.0057C70.4109 68.4915 70.7546 68.0909 71.195 67.804C71.6381 67.5142 72.1552 67.3693 72.7461 67.3693C73.087 67.3693 73.4237 67.4261 73.756 67.5398C74.0884 67.6534 74.391 67.8381 74.6637 68.0938C74.9364 68.3466 75.1538 68.6818 75.3157 69.0994C75.4776 69.517 75.5586 70.0312 75.5586 70.642V71.0682H70.5131V70.1989H74.5359C74.5359 69.8295 74.462 69.5 74.3143 69.2102C74.1694 68.9205 73.962 68.6918 73.6921 68.5241C73.4251 68.3565 73.1097 68.2727 72.7461 68.2727C72.3455 68.2727 71.9989 68.3722 71.7063 68.571C71.4165 68.767 71.1935 69.0227 71.0373 69.3381C70.881 69.6534 70.8029 69.9915 70.8029 70.3523V70.9318C70.8029 71.4261 70.8881 71.8452 71.0586 72.1889C71.2319 72.5298 71.4719 72.7898 71.7788 72.9688C72.0856 73.1449 72.4421 73.233 72.8484 73.233C73.1126 73.233 73.3512 73.196 73.5643 73.1222C73.7802 73.0455 73.9663 72.9318 74.1225 72.7812C74.2788 72.6278 74.3995 72.4375 74.4847 72.2102L75.4563 72.483C75.354 72.8125 75.1822 73.1023 74.9407 73.3523C74.6992 73.5994 74.4009 73.7926 74.0458 73.9318C73.6907 74.0682 73.2915 74.1364 72.8484 74.1364ZM79.0146 74.1534C78.5998 74.1534 78.2234 74.0753 77.8853 73.919C77.5472 73.7599 77.2788 73.5312 77.0799 73.233C76.881 72.9318 76.7816 72.5682 76.7816 72.142C76.7816 71.767 76.8555 71.4631 77.0032 71.2301C77.1509 70.9943 77.3484 70.8097 77.5955 70.6761C77.8427 70.5426 78.1154 70.4432 78.4137 70.3778C78.7148 70.3097 79.0174 70.2557 79.3214 70.2159C79.7191 70.1648 80.0415 70.1264 80.2887 70.1009C80.5387 70.0724 80.7205 70.0256 80.8342 69.9602C80.9506 69.8949 81.0089 69.7812 81.0089 69.6193V69.5852C81.0089 69.1648 80.8938 68.8381 80.6637 68.6051C80.4364 68.3722 80.0913 68.2557 79.6282 68.2557C79.1481 68.2557 78.7717 68.3608 78.4989 68.571C78.2262 68.7812 78.0344 69.0057 77.9237 69.2443L76.9691 68.9034C77.1396 68.5057 77.3668 68.196 77.6509 67.9744C77.9379 67.75 78.2504 67.5937 78.5884 67.5057C78.9293 67.4148 79.2646 67.3693 79.5941 67.3693C79.8043 67.3693 80.0458 67.3949 80.3185 67.446C80.5941 67.4943 80.8597 67.5952 81.1154 67.7486C81.3739 67.902 81.5884 68.1335 81.7589 68.4432C81.9293 68.7528 82.0146 69.1676 82.0146 69.6875V74H81.0089V73.1136H80.9577C80.8896 73.2557 80.7759 73.4077 80.6168 73.5696C80.4577 73.7315 80.2461 73.8693 79.9819 73.983C79.7177 74.0966 79.3952 74.1534 79.0146 74.1534ZM79.168 73.25C79.5657 73.25 79.9009 73.1719 80.1737 73.0156C80.4492 72.8594 80.6566 72.6577 80.7958 72.4105C80.9379 72.1634 81.0089 71.9034 81.0089 71.6307V70.7102C80.9663 70.7614 80.8725 70.8082 80.7276 70.8509C80.5856 70.8906 80.4208 70.9261 80.2333 70.9574C80.0487 70.9858 79.8683 71.0114 79.6921 71.0341C79.5188 71.054 79.3782 71.071 79.2702 71.0852C79.0089 71.1193 78.7646 71.1747 78.5373 71.2514C78.3129 71.3253 78.131 71.4375 77.9918 71.5881C77.8555 71.7358 77.7873 71.9375 77.7873 72.1932C77.7873 72.5426 77.9165 72.8068 78.1751 72.9858C78.4364 73.1619 78.7674 73.25 79.168 73.25ZM86.6967 67.4545V68.3068H83.3047V67.4545H86.6967ZM84.2933 65.8864H85.299V72.125C85.299 72.4091 85.3402 72.6222 85.4226 72.7642C85.5078 72.9034 85.6158 72.9972 85.7464 73.0455C85.88 73.0909 86.0206 73.1136 86.1683 73.1136C86.2791 73.1136 86.37 73.108 86.4411 73.0966C86.5121 73.0824 86.5689 73.071 86.6115 73.0625L86.8161 73.9659C86.7479 73.9915 86.6527 74.017 86.5305 74.0426C86.4084 74.071 86.2536 74.0852 86.0661 74.0852C85.782 74.0852 85.5036 74.0241 85.2308 73.902C84.9609 73.7798 84.7365 73.5938 84.5575 73.3438C84.3814 73.0938 84.2933 72.7784 84.2933 72.3977V65.8864ZM94.0561 74.1364C93.5107 74.1364 93.0291 73.9986 92.6115 73.723C92.1939 73.4446 91.8672 73.0526 91.6314 72.5469C91.3956 72.0384 91.2777 71.4375 91.2777 70.7443C91.2777 70.0568 91.3956 69.4602 91.6314 68.9545C91.8672 68.4489 92.1953 68.0582 92.6158 67.7827C93.0362 67.5071 93.522 67.3693 94.0732 67.3693C94.4993 67.3693 94.8359 67.4403 95.0831 67.5824C95.3331 67.7216 95.5234 67.8807 95.6541 68.0597C95.7876 68.2358 95.8913 68.3807 95.9652 68.4943H96.0504V65.2727H97.0561V74H96.0845V72.9943H95.9652C95.8913 73.1136 95.7862 73.2642 95.6499 73.446C95.5135 73.625 95.3189 73.7855 95.0661 73.9276C94.8132 74.0668 94.4766 74.1364 94.0561 74.1364ZM94.1925 73.233C94.5959 73.233 94.9368 73.1278 95.2152 72.9176C95.4936 72.7045 95.7053 72.4105 95.8501 72.0355C95.995 71.6577 96.0675 71.2216 96.0675 70.7273C96.0675 70.2386 95.9964 69.8111 95.8544 69.4446C95.7124 69.0753 95.5021 68.7884 95.2237 68.5838C94.9453 68.3764 94.6016 68.2727 94.1925 68.2727C93.7663 68.2727 93.4112 68.3821 93.1271 68.6009C92.8459 68.8168 92.6342 69.1108 92.4922 69.483C92.353 69.8523 92.2834 70.267 92.2834 70.7273C92.2834 71.1932 92.3544 71.6165 92.4964 71.9972C92.6413 72.375 92.8544 72.6761 93.1357 72.9006C93.4197 73.1222 93.772 73.233 94.1925 73.233ZM101.782 74.1364C101.151 74.1364 100.607 73.9972 100.15 73.7188C99.6953 73.4375 99.3445 73.0455 99.0973 72.5426C98.853 72.0369 98.7308 71.4489 98.7308 70.7784C98.7308 70.108 98.853 69.517 99.0973 69.0057C99.3445 68.4915 99.6882 68.0909 100.129 67.804C100.572 67.5142 101.089 67.3693 101.68 67.3693C102.021 67.3693 102.357 67.4261 102.69 67.5398C103.022 67.6534 103.325 67.8381 103.597 68.0938C103.87 68.3466 104.087 68.6818 104.249 69.0994C104.411 69.517 104.492 70.0312 104.492 70.642V71.0682H99.4467V70.1989H103.469C103.469 69.8295 103.396 69.5 103.248 69.2102C103.103 68.9205 102.896 68.6918 102.626 68.5241C102.359 68.3565 102.043 68.2727 101.68 68.2727C101.279 68.2727 100.933 68.3722 100.64 68.571C100.35 68.767 100.127 69.0227 99.9709 69.3381C99.8146 69.6534 99.7365 69.9915 99.7365 70.3523V70.9318C99.7365 71.4261 99.8217 71.8452 99.9922 72.1889C100.165 72.5298 100.406 72.7898 100.712 72.9688C101.019 73.1449 101.376 73.233 101.782 73.233C102.046 73.233 102.285 73.196 102.498 73.1222C102.714 73.0455 102.9 72.9318 103.056 72.7812C103.212 72.6278 103.333 72.4375 103.418 72.2102L104.39 72.483C104.288 72.8125 104.116 73.1023 103.874 73.3523C103.633 73.5994 103.335 73.7926 102.979 73.9318C102.624 74.0682 102.225 74.1364 101.782 74.1364ZM110.658 68.9205L109.755 69.1761C109.698 69.0256 109.614 68.8793 109.504 68.7372C109.396 68.5923 109.248 68.473 109.06 68.3793C108.873 68.2855 108.633 68.2386 108.34 68.2386C107.94 68.2386 107.606 68.331 107.339 68.5156C107.075 68.6974 106.942 68.929 106.942 69.2102C106.942 69.4602 107.033 69.6577 107.215 69.8026C107.397 69.9474 107.681 70.0682 108.067 70.1648L109.039 70.4034C109.624 70.5455 110.06 70.7628 110.347 71.0554C110.634 71.3452 110.778 71.7187 110.778 72.1761C110.778 72.5511 110.67 72.8864 110.454 73.1818C110.241 73.4773 109.942 73.7102 109.559 73.8807C109.175 74.0511 108.729 74.1364 108.221 74.1364C107.553 74.1364 107.001 73.9915 106.563 73.7017C106.126 73.4119 105.849 72.9886 105.732 72.4318L106.687 72.1932C106.778 72.5455 106.95 72.8097 107.202 72.9858C107.458 73.1619 107.792 73.25 108.204 73.25C108.673 73.25 109.045 73.1506 109.32 72.9517C109.599 72.75 109.738 72.5085 109.738 72.2273C109.738 72 109.658 71.8097 109.499 71.6562C109.34 71.5 109.096 71.3835 108.766 71.3068L107.675 71.0511C107.076 70.9091 106.636 70.6889 106.354 70.3906C106.076 70.0895 105.937 69.7131 105.937 69.2614C105.937 68.892 106.04 68.5653 106.248 68.2812C106.458 67.9972 106.744 67.7741 107.104 67.6122C107.468 67.4503 107.88 67.3693 108.34 67.3693C108.988 67.3693 109.496 67.5114 109.866 67.7955C110.238 68.0795 110.502 68.4545 110.658 68.9205ZM112.292 74V67.4545H113.297V74H112.292ZM112.803 66.3636C112.607 66.3636 112.438 66.2969 112.296 66.1634C112.157 66.0298 112.087 65.8693 112.087 65.6818C112.087 65.4943 112.157 65.3338 112.296 65.2003C112.438 65.0668 112.607 65 112.803 65C112.999 65 113.167 65.0668 113.306 65.2003C113.448 65.3338 113.519 65.4943 113.519 65.6818C113.519 65.8693 113.448 66.0298 113.306 66.1634C113.167 66.2969 112.999 66.3636 112.803 66.3636ZM117.781 76.5909C117.295 76.5909 116.878 76.5284 116.528 76.4034C116.179 76.2812 115.888 76.1193 115.655 75.9176C115.425 75.7188 115.241 75.5057 115.105 75.2784L115.906 74.7159C115.997 74.8352 116.112 74.9716 116.251 75.125C116.391 75.2812 116.581 75.4162 116.822 75.5298C117.067 75.6463 117.386 75.7045 117.781 75.7045C118.31 75.7045 118.746 75.5767 119.089 75.321C119.433 75.0653 119.605 74.6648 119.605 74.1193V72.7898H119.52C119.446 72.9091 119.341 73.0568 119.205 73.233C119.071 73.4062 118.878 73.5611 118.625 73.6974C118.375 73.831 118.037 73.8977 117.611 73.8977C117.082 73.8977 116.608 73.7727 116.188 73.5227C115.77 73.2727 115.439 72.9091 115.195 72.4318C114.953 71.9545 114.832 71.375 114.832 70.6932C114.832 70.0227 114.95 69.4389 115.186 68.9418C115.422 68.4418 115.75 68.0554 116.17 67.7827C116.591 67.5071 117.077 67.3693 117.628 67.3693C118.054 67.3693 118.392 67.4403 118.642 67.5824C118.895 67.7216 119.088 67.8807 119.222 68.0597C119.358 68.2358 119.463 68.3807 119.537 68.4943H119.639V67.4545H120.611V74.1875C120.611 74.75 120.483 75.2074 120.227 75.5597C119.974 75.9148 119.634 76.1747 119.205 76.3395C118.778 76.5071 118.304 76.5909 117.781 76.5909ZM117.747 72.9943C118.151 72.9943 118.491 72.902 118.77 72.7173C119.048 72.5327 119.26 72.267 119.405 71.9205C119.55 71.5739 119.622 71.1591 119.622 70.6761C119.622 70.2045 119.551 69.7884 119.409 69.4276C119.267 69.0668 119.057 68.7841 118.778 68.5795C118.5 68.375 118.156 68.2727 117.747 68.2727C117.321 68.2727 116.966 68.3807 116.682 68.5966C116.401 68.8125 116.189 69.1023 116.047 69.4659C115.908 69.8295 115.838 70.233 115.838 70.6761C115.838 71.1307 115.909 71.5327 116.051 71.8821C116.196 72.2287 116.409 72.5014 116.69 72.7003C116.974 72.8963 117.327 72.9943 117.747 72.9943ZM123.457 70.0625V74H122.452V67.4545H123.423V68.4773H123.509C123.662 68.1449 123.895 67.8778 124.207 67.6761C124.52 67.4716 124.923 67.3693 125.418 67.3693C125.861 67.3693 126.249 67.4602 126.581 67.642C126.913 67.821 127.172 68.0938 127.357 68.4602C127.541 68.8239 127.634 69.2841 127.634 69.8409V74H126.628V69.9091C126.628 69.3949 126.494 68.9943 126.227 68.7074C125.96 68.4176 125.594 68.2727 125.128 68.2727C124.807 68.2727 124.52 68.3423 124.267 68.4815C124.017 68.6207 123.82 68.8239 123.675 69.0909C123.53 69.358 123.457 69.6818 123.457 70.0625ZM134.108 68.9205L133.204 69.1761C133.147 69.0256 133.064 68.8793 132.953 68.7372C132.845 68.5923 132.697 68.473 132.51 68.3793C132.322 68.2855 132.082 68.2386 131.789 68.2386C131.389 68.2386 131.055 68.331 130.788 68.5156C130.524 68.6974 130.392 68.929 130.392 69.2102C130.392 69.4602 130.483 69.6577 130.664 69.8026C130.846 69.9474 131.13 70.0682 131.517 70.1648L132.488 70.4034C133.074 70.5455 133.51 70.7628 133.797 71.0554C134.083 71.3452 134.227 71.7187 134.227 72.1761C134.227 72.5511 134.119 72.8864 133.903 73.1818C133.69 73.4773 133.392 73.7102 133.008 73.8807C132.625 74.0511 132.179 74.1364 131.67 74.1364C131.002 74.1364 130.45 73.9915 130.012 73.7017C129.575 73.4119 129.298 72.9886 129.181 72.4318L130.136 72.1932C130.227 72.5455 130.399 72.8097 130.652 72.9858C130.907 73.1619 131.241 73.25 131.653 73.25C132.122 73.25 132.494 73.1506 132.77 72.9517C133.048 72.75 133.187 72.5085 133.187 72.2273C133.187 72 133.108 71.8097 132.949 71.6562C132.789 71.5 132.545 71.3835 132.216 71.3068L131.125 71.0511C130.525 70.9091 130.085 70.6889 129.804 70.3906C129.525 70.0895 129.386 69.7131 129.386 69.2614C129.386 68.892 129.49 68.5653 129.697 68.2812C129.907 67.9972 130.193 67.7741 130.554 67.6122C130.917 67.4503 131.329 67.3693 131.789 67.3693C132.437 67.3693 132.946 67.5114 133.315 67.7955C133.687 68.0795 133.951 68.4545 134.108 68.9205ZM142.031 67.4545V68.3068H138.502V67.4545H142.031ZM139.559 74V66.5511C139.559 66.1761 139.647 65.8636 139.823 65.6136C139.999 65.3636 140.228 65.1761 140.509 65.0511C140.79 64.9261 141.087 64.8636 141.4 64.8636C141.647 64.8636 141.849 64.8835 142.005 64.9233C142.161 64.9631 142.278 65 142.354 65.0341L142.065 65.9034C142.013 65.8864 141.942 65.8651 141.852 65.8395C141.763 65.8139 141.647 65.8011 141.502 65.8011C141.17 65.8011 140.93 65.8849 140.782 66.0526C140.637 66.2202 140.565 66.4659 140.565 66.7898V74H139.559ZM145.83 74.1364C145.239 74.1364 144.72 73.9957 144.274 73.7145C143.831 73.4332 143.484 73.0398 143.234 72.5341C142.987 72.0284 142.864 71.4375 142.864 70.7614C142.864 70.0795 142.987 69.4844 143.234 68.9759C143.484 68.4673 143.831 68.0724 144.274 67.7912C144.72 67.5099 145.239 67.3693 145.83 67.3693C146.42 67.3693 146.938 67.5099 147.381 67.7912C147.827 68.0724 148.173 68.4673 148.42 68.9759C148.67 69.4844 148.795 70.0795 148.795 70.7614C148.795 71.4375 148.67 72.0284 148.42 72.5341C148.173 73.0398 147.827 73.4332 147.381 73.7145C146.938 73.9957 146.42 74.1364 145.83 74.1364ZM145.83 73.233C146.278 73.233 146.648 73.1179 146.938 72.8878C147.227 72.6577 147.442 72.3551 147.581 71.9801C147.72 71.6051 147.79 71.1989 147.79 70.7614C147.79 70.3239 147.72 69.9162 147.581 69.5384C147.442 69.1605 147.227 68.8551 146.938 68.6222C146.648 68.3892 146.278 68.2727 145.83 68.2727C145.381 68.2727 145.011 68.3892 144.722 68.6222C144.432 68.8551 144.217 69.1605 144.078 69.5384C143.939 69.9162 143.869 70.3239 143.869 70.7614C143.869 71.1989 143.939 71.6051 144.078 71.9801C144.217 72.3551 144.432 72.6577 144.722 72.8878C145.011 73.1179 145.381 73.233 145.83 73.233ZM150.331 74V67.4545H151.302V68.4432H151.37C151.49 68.1193 151.706 67.8565 152.018 67.6548C152.331 67.4531 152.683 67.3523 153.075 67.3523C153.149 67.3523 153.241 67.3537 153.352 67.3565C153.463 67.3594 153.547 67.3636 153.603 67.3693V68.392C153.569 68.3835 153.491 68.3707 153.369 68.3537C153.25 68.3338 153.123 68.3239 152.99 68.3239C152.672 68.3239 152.387 68.3906 152.137 68.5241C151.89 68.6548 151.694 68.8366 151.549 69.0696C151.407 69.2997 151.336 69.5625 151.336 69.858V74H150.331ZM160.812 76.5909C160.327 76.5909 159.909 76.5284 159.56 76.4034C159.21 76.2812 158.919 76.1193 158.686 75.9176C158.456 75.7188 158.273 75.5057 158.136 75.2784L158.938 74.7159C159.028 74.8352 159.143 74.9716 159.283 75.125C159.422 75.2812 159.612 75.4162 159.854 75.5298C160.098 75.6463 160.418 75.7045 160.812 75.7045C161.341 75.7045 161.777 75.5767 162.121 75.321C162.464 75.0653 162.636 74.6648 162.636 74.1193V72.7898H162.551C162.477 72.9091 162.372 73.0568 162.236 73.233C162.102 73.4062 161.909 73.5611 161.656 73.6974C161.406 73.831 161.068 73.8977 160.642 73.8977C160.114 73.8977 159.639 73.7727 159.219 73.5227C158.801 73.2727 158.47 72.9091 158.226 72.4318C157.984 71.9545 157.864 71.375 157.864 70.6932C157.864 70.0227 157.982 69.4389 158.217 68.9418C158.453 68.4418 158.781 68.0554 159.202 67.7827C159.622 67.5071 160.108 67.3693 160.659 67.3693C161.085 67.3693 161.423 67.4403 161.673 67.5824C161.926 67.7216 162.119 67.8807 162.253 68.0597C162.389 68.2358 162.494 68.3807 162.568 68.4943H162.67V67.4545H163.642V74.1875C163.642 74.75 163.514 75.2074 163.259 75.5597C163.006 75.9148 162.665 76.1747 162.236 76.3395C161.81 76.5071 161.335 76.5909 160.812 76.5909ZM160.778 72.9943C161.182 72.9943 161.523 72.902 161.801 72.7173C162.08 72.5327 162.291 72.267 162.436 71.9205C162.581 71.5739 162.653 71.1591 162.653 70.6761C162.653 70.2045 162.582 69.7884 162.44 69.4276C162.298 69.0668 162.088 68.7841 161.81 68.5795C161.531 68.375 161.188 68.2727 160.778 68.2727C160.352 68.2727 159.997 68.3807 159.713 68.5966C159.432 68.8125 159.22 69.1023 159.078 69.4659C158.939 69.8295 158.869 70.233 158.869 70.6761C158.869 71.1307 158.94 71.5327 159.082 71.8821C159.227 72.2287 159.44 72.5014 159.722 72.7003C160.006 72.8963 160.358 72.9943 160.778 72.9943ZM165.483 74V67.4545H166.455V68.4432H166.523C166.642 68.1193 166.858 67.8565 167.17 67.6548C167.483 67.4531 167.835 67.3523 168.227 67.3523C168.301 67.3523 168.393 67.3537 168.504 67.3565C168.615 67.3594 168.699 67.3636 168.756 67.3693V68.392C168.722 68.3835 168.643 68.3707 168.521 68.3537C168.402 68.3338 168.276 68.3239 168.142 68.3239C167.824 68.3239 167.54 68.3906 167.29 68.5241C167.043 68.6548 166.847 68.8366 166.702 69.0696C166.56 69.2997 166.489 69.5625 166.489 69.858V74H165.483ZM172.493 74.1364C171.862 74.1364 171.318 73.9972 170.861 73.7188C170.406 73.4375 170.055 73.0455 169.808 72.5426C169.564 72.0369 169.442 71.4489 169.442 70.7784C169.442 70.108 169.564 69.517 169.808 69.0057C170.055 68.4915 170.399 68.0909 170.839 67.804C171.283 67.5142 171.8 67.3693 172.391 67.3693C172.732 67.3693 173.068 67.4261 173.401 67.5398C173.733 67.6534 174.036 67.8381 174.308 68.0938C174.581 68.3466 174.798 68.6818 174.96 69.0994C175.122 69.517 175.203 70.0312 175.203 70.642V71.0682H170.158V70.1989H174.18C174.18 69.8295 174.107 69.5 173.959 69.2102C173.814 68.9205 173.607 68.6918 173.337 68.5241C173.07 68.3565 172.754 68.2727 172.391 68.2727C171.99 68.2727 171.643 68.3722 171.351 68.571C171.061 68.767 170.838 69.0227 170.682 69.3381C170.526 69.6534 170.447 69.9915 170.447 70.3523V70.9318C170.447 71.4261 170.533 71.8452 170.703 72.1889C170.876 72.5298 171.116 72.7898 171.423 72.9688C171.73 73.1449 172.087 73.233 172.493 73.233C172.757 73.233 172.996 73.196 173.209 73.1222C173.425 73.0455 173.611 72.9318 173.767 72.7812C173.923 72.6278 174.044 72.4375 174.129 72.2102L175.101 72.483C174.999 72.8125 174.827 73.1023 174.585 73.3523C174.344 73.5994 174.045 73.7926 173.69 73.9318C173.335 74.0682 172.936 74.1364 172.493 74.1364ZM178.659 74.1534C178.244 74.1534 177.868 74.0753 177.53 73.919C177.192 73.7599 176.923 73.5312 176.724 73.233C176.526 72.9318 176.426 72.5682 176.426 72.142C176.426 71.767 176.5 71.4631 176.648 71.2301C176.795 70.9943 176.993 70.8097 177.24 70.6761C177.487 70.5426 177.76 70.4432 178.058 70.3778C178.359 70.3097 178.662 70.2557 178.966 70.2159C179.364 70.1648 179.686 70.1264 179.933 70.1009C180.183 70.0724 180.365 70.0256 180.479 69.9602C180.595 69.8949 180.653 69.7812 180.653 69.6193V69.5852C180.653 69.1648 180.538 68.8381 180.308 68.6051C180.081 68.3722 179.736 68.2557 179.273 68.2557C178.793 68.2557 178.416 68.3608 178.143 68.571C177.871 68.7812 177.679 69.0057 177.568 69.2443L176.614 68.9034C176.784 68.5057 177.011 68.196 177.295 67.9744C177.582 67.75 177.895 67.5937 178.233 67.5057C178.574 67.4148 178.909 67.3693 179.239 67.3693C179.449 67.3693 179.69 67.3949 179.963 67.446C180.239 67.4943 180.504 67.5952 180.76 67.7486C181.018 67.902 181.233 68.1335 181.403 68.4432C181.574 68.7528 181.659 69.1676 181.659 69.6875V74H180.653V73.1136H180.602C180.534 73.2557 180.42 73.4077 180.261 73.5696C180.102 73.7315 179.891 73.8693 179.626 73.983C179.362 74.0966 179.04 74.1534 178.659 74.1534ZM178.812 73.25C179.21 73.25 179.545 73.1719 179.818 73.0156C180.094 72.8594 180.301 72.6577 180.44 72.4105C180.582 72.1634 180.653 71.9034 180.653 71.6307V70.7102C180.611 70.7614 180.517 70.8082 180.372 70.8509C180.23 70.8906 180.065 70.9261 179.878 70.9574C179.693 70.9858 179.513 71.0114 179.337 71.0341C179.163 71.054 179.023 71.071 178.915 71.0852C178.653 71.1193 178.409 71.1747 178.182 71.2514C177.957 71.3253 177.776 71.4375 177.636 71.5881C177.5 71.7358 177.432 71.9375 177.432 72.1932C177.432 72.5426 177.561 72.8068 177.82 72.9858C178.081 73.1619 178.412 73.25 178.812 73.25ZM186.341 67.4545V68.3068H182.949V67.4545H186.341ZM183.938 65.8864H184.944V72.125C184.944 72.4091 184.985 72.6222 185.067 72.7642C185.152 72.9034 185.26 72.9972 185.391 73.0455C185.525 73.0909 185.665 73.1136 185.813 73.1136C185.924 73.1136 186.015 73.108 186.086 73.0966C186.157 73.0824 186.213 73.071 186.256 73.0625L186.461 73.9659C186.392 73.9915 186.297 74.017 186.175 74.0426C186.053 74.071 185.898 74.0852 185.711 74.0852C185.426 74.0852 185.148 74.0241 184.875 73.902C184.605 73.7798 184.381 73.5938 184.202 73.3438C184.026 73.0938 183.938 72.7784 183.938 72.3977V65.8864ZM191.229 74V67.4545H192.201V68.4773H192.286C192.422 68.1278 192.642 67.8565 192.946 67.6634C193.25 67.4673 193.615 67.3693 194.042 67.3693C194.473 67.3693 194.833 67.4673 195.12 67.6634C195.409 67.8565 195.635 68.1278 195.797 68.4773H195.865C196.033 68.1392 196.284 67.8707 196.62 67.6719C196.955 67.4702 197.357 67.3693 197.826 67.3693C198.411 67.3693 198.89 67.5526 199.262 67.919C199.634 68.2827 199.82 68.8494 199.82 69.6193V74H198.814V69.6193C198.814 69.1364 198.682 68.7912 198.418 68.5838C198.154 68.3764 197.843 68.2727 197.485 68.2727C197.025 68.2727 196.668 68.4119 196.415 68.6903C196.162 68.9659 196.036 69.3153 196.036 69.7386V74H195.013V69.517C195.013 69.1449 194.892 68.8452 194.651 68.6179C194.409 68.3878 194.098 68.2727 193.718 68.2727C193.456 68.2727 193.212 68.3423 192.985 68.4815C192.76 68.6207 192.578 68.8139 192.439 69.0611C192.303 69.3054 192.235 69.5881 192.235 69.9091V74H191.229ZM204.318 74.1364C203.727 74.1364 203.208 73.9957 202.762 73.7145C202.319 73.4332 201.973 73.0398 201.723 72.5341C201.475 72.0284 201.352 71.4375 201.352 70.7614C201.352 70.0795 201.475 69.4844 201.723 68.9759C201.973 68.4673 202.319 68.0724 202.762 67.7912C203.208 67.5099 203.727 67.3693 204.318 67.3693C204.909 67.3693 205.426 67.5099 205.869 67.7912C206.315 68.0724 206.662 68.4673 206.909 68.9759C207.159 69.4844 207.284 70.0795 207.284 70.7614C207.284 71.4375 207.159 72.0284 206.909 72.5341C206.662 73.0398 206.315 73.4332 205.869 73.7145C205.426 73.9957 204.909 74.1364 204.318 74.1364ZM204.318 73.233C204.767 73.233 205.136 73.1179 205.426 72.8878C205.716 72.6577 205.93 72.3551 206.069 71.9801C206.208 71.6051 206.278 71.1989 206.278 70.7614C206.278 70.3239 206.208 69.9162 206.069 69.5384C205.93 69.1605 205.716 68.8551 205.426 68.6222C205.136 68.3892 204.767 68.2727 204.318 68.2727C203.869 68.2727 203.5 68.3892 203.21 68.6222C202.92 68.8551 202.706 69.1605 202.566 69.5384C202.427 69.9162 202.358 70.3239 202.358 70.7614C202.358 71.1989 202.427 71.6051 202.566 71.9801C202.706 72.3551 202.92 72.6577 203.21 72.8878C203.5 73.1179 203.869 73.233 204.318 73.233ZM208.819 74V67.4545H209.79V68.4773H209.876C210.012 68.1278 210.232 67.8565 210.536 67.6634C210.84 67.4673 211.205 67.3693 211.631 67.3693C212.063 67.3693 212.423 67.4673 212.71 67.6634C212.999 67.8565 213.225 68.1278 213.387 68.4773H213.455C213.623 68.1392 213.874 67.8707 214.21 67.6719C214.545 67.4702 214.947 67.3693 215.415 67.3693C216.001 67.3693 216.479 67.5526 216.852 67.919C217.224 68.2827 217.41 68.8494 217.41 69.6193V74H216.404V69.6193C216.404 69.1364 216.272 68.7912 216.008 68.5838C215.744 68.3764 215.433 68.2727 215.075 68.2727C214.614 68.2727 214.258 68.4119 214.005 68.6903C213.752 68.9659 213.626 69.3153 213.626 69.7386V74H212.603V69.517C212.603 69.1449 212.482 68.8452 212.241 68.6179C211.999 68.3878 211.688 68.2727 211.308 68.2727C211.046 68.2727 210.802 68.3423 210.575 68.4815C210.35 68.6207 210.168 68.8139 210.029 69.0611C209.893 69.3054 209.825 69.5881 209.825 69.9091V74H208.819ZM221.993 74.1364C221.362 74.1364 220.818 73.9972 220.361 73.7188C219.906 73.4375 219.555 73.0455 219.308 72.5426C219.064 72.0369 218.942 71.4489 218.942 70.7784C218.942 70.108 219.064 69.517 219.308 69.0057C219.555 68.4915 219.899 68.0909 220.339 67.804C220.783 67.5142 221.3 67.3693 221.891 67.3693C222.232 67.3693 222.568 67.4261 222.901 67.5398C223.233 67.6534 223.536 67.8381 223.808 68.0938C224.081 68.3466 224.298 68.6818 224.46 69.0994C224.622 69.517 224.703 70.0312 224.703 70.642V71.0682H219.658V70.1989H223.68C223.68 69.8295 223.607 69.5 223.459 69.2102C223.314 68.9205 223.107 68.6918 222.837 68.5241C222.57 68.3565 222.254 68.2727 221.891 68.2727C221.49 68.2727 221.143 68.3722 220.851 68.571C220.561 68.767 220.338 69.0227 220.182 69.3381C220.026 69.6534 219.947 69.9915 219.947 70.3523V70.9318C219.947 71.4261 220.033 71.8452 220.203 72.1889C220.376 72.5298 220.616 72.7898 220.923 72.9688C221.23 73.1449 221.587 73.233 221.993 73.233C222.257 73.233 222.496 73.196 222.709 73.1222C222.925 73.0455 223.111 72.9318 223.267 72.7812C223.423 72.6278 223.544 72.4375 223.629 72.2102L224.601 72.483C224.499 72.8125 224.327 73.1023 224.085 73.3523C223.844 73.5994 223.545 73.7926 223.19 73.9318C222.835 74.0682 222.436 74.1364 221.993 74.1364ZM227.239 70.0625V74H226.233V67.4545H227.205V68.4773H227.29C227.443 68.1449 227.676 67.8778 227.989 67.6761C228.301 67.4716 228.705 67.3693 229.199 67.3693C229.642 67.3693 230.03 67.4602 230.362 67.642C230.695 67.821 230.953 68.0938 231.138 68.4602C231.322 68.8239 231.415 69.2841 231.415 69.8409V74H230.409V69.9091C230.409 69.3949 230.276 68.9943 230.009 68.7074C229.741 68.4176 229.375 68.2727 228.909 68.2727C228.588 68.2727 228.301 68.3423 228.048 68.4815C227.798 68.6207 227.601 68.8239 227.456 69.0909C227.311 69.358 227.239 69.6818 227.239 70.0625ZM236.099 67.4545V68.3068H232.707V67.4545H236.099ZM233.696 65.8864H234.701V72.125C234.701 72.4091 234.743 72.6222 234.825 72.7642C234.91 72.9034 235.018 72.9972 235.149 73.0455C235.282 73.0909 235.423 73.1136 235.571 73.1136C235.681 73.1136 235.772 73.108 235.843 73.0966C235.914 73.0824 235.971 73.071 236.014 73.0625L236.218 73.9659C236.15 73.9915 236.055 74.017 235.933 74.0426C235.811 74.071 235.656 74.0852 235.468 74.0852C235.184 74.0852 234.906 74.0241 234.633 73.902C234.363 73.7798 234.139 73.5938 233.96 73.3438C233.784 73.0938 233.696 72.7784 233.696 72.3977V65.8864ZM242.131 68.9205L241.228 69.1761C241.171 69.0256 241.087 68.8793 240.976 68.7372C240.868 68.5923 240.721 68.473 240.533 68.3793C240.346 68.2855 240.105 68.2386 239.813 68.2386C239.412 68.2386 239.078 68.331 238.811 68.5156C238.547 68.6974 238.415 68.929 238.415 69.2102C238.415 69.4602 238.506 69.6577 238.688 69.8026C238.87 69.9474 239.154 70.0682 239.54 70.1648L240.512 70.4034C241.097 70.5455 241.533 70.7628 241.82 71.0554C242.107 71.3452 242.25 71.7187 242.25 72.1761C242.25 72.5511 242.142 72.8864 241.926 73.1818C241.713 73.4773 241.415 73.7102 241.032 73.8807C240.648 74.0511 240.202 74.1364 239.694 74.1364C239.026 74.1364 238.473 73.9915 238.036 73.7017C237.598 73.4119 237.321 72.9886 237.205 72.4318L238.159 72.1932C238.25 72.5455 238.422 72.8097 238.675 72.9858C238.931 73.1619 239.265 73.25 239.676 73.25C240.145 73.25 240.517 73.1506 240.793 72.9517C241.071 72.75 241.211 72.5085 241.211 72.2273C241.211 72 241.131 71.8097 240.972 71.6562C240.813 71.5 240.569 71.3835 240.239 71.3068L239.148 71.0511C238.549 70.9091 238.108 70.6889 237.827 70.3906C237.549 70.0895 237.409 69.7131 237.409 69.2614C237.409 68.892 237.513 68.5653 237.721 68.2812C237.931 67.9972 238.216 67.7741 238.577 67.6122C238.941 67.4503 239.353 67.3693 239.813 67.3693C240.461 67.3693 240.969 67.5114 241.338 67.7955C241.711 68.0795 241.975 68.4545 242.131 68.9205Z" fill="black"/>
<path d="M61.7722 53H54.0358V27.9302H62.1149C64.5468 27.9302 66.6278 28.4321 68.3579 29.4358C70.088 30.4314 71.4141 31.8637 72.3363 33.7325C73.2584 35.5931 73.7195 37.821 73.7195 40.4161C73.7195 43.0276 73.2544 45.2759 72.324 47.161C71.3937 49.038 70.039 50.4824 68.26 51.4943C66.4809 52.4981 64.3183 53 61.7722 53ZM57.0716 50.307H61.5763C63.6492 50.307 65.367 49.9071 66.7298 49.1073C68.0927 48.3076 69.1087 47.1691 69.7779 45.692C70.4471 44.215 70.7817 42.4563 70.7817 40.4161C70.7817 38.3923 70.4511 36.6499 69.7901 35.1892C69.1291 33.7202 68.1417 32.594 66.8278 31.8106C65.5139 31.019 63.8777 30.6232 61.9191 30.6232H57.0716V50.307ZM78.4201 53V34.1976H81.309V53H78.4201ZM79.8891 31.0639C79.326 31.0639 78.8404 30.8721 78.4324 30.4886C78.0325 30.105 77.8325 29.6439 77.8325 29.1053C77.8325 28.5667 78.0325 28.1056 78.4324 27.7221C78.8404 27.3385 79.326 27.1467 79.8891 27.1467C80.4521 27.1467 80.9336 27.3385 81.3335 27.7221C81.7415 28.1056 81.9456 28.5667 81.9456 29.1053C81.9456 29.6439 81.7415 30.105 81.3335 30.4886C80.9336 30.8721 80.4521 31.0639 79.8891 31.0639ZM86.6002 53V34.1976H89.3912V37.0376H89.5871C89.9298 36.1072 90.5501 35.3524 91.4477 34.773C92.3454 34.1936 93.3573 33.9038 94.4835 33.9038C94.6957 33.9038 94.9609 33.9079 95.2792 33.9161C95.5975 33.9242 95.8382 33.9365 96.0014 33.9528V36.8907C95.9035 36.8662 95.6791 36.8295 95.3282 36.7805C94.9854 36.7234 94.6223 36.6948 94.2387 36.6948C93.3247 36.6948 92.5086 36.8866 91.7905 37.2702C91.0805 37.6455 90.5174 38.1678 90.1012 38.837C89.6932 39.498 89.4892 40.2529 89.4892 41.1016V53H86.6002ZM106.737 53.3917C104.925 53.3917 103.362 52.9918 102.049 52.1921C100.743 51.3842 99.735 50.258 99.025 48.8135C98.3232 47.3609 97.9723 45.6716 97.9723 43.7457C97.9723 41.8198 98.3232 40.1223 99.025 38.6534C99.735 37.1763 100.722 36.0256 101.987 35.2014C103.26 34.369 104.746 33.9528 106.443 33.9528C107.422 33.9528 108.389 34.116 109.344 34.4425C110.299 34.7689 111.168 35.2993 111.952 36.0338C112.735 36.7601 113.359 37.7231 113.825 38.9227C114.29 40.1223 114.522 41.5994 114.522 43.354V44.5781H100.029V42.0809H111.584C111.584 41.02 111.372 40.0734 110.948 39.241C110.532 38.4086 109.936 37.7516 109.161 37.2702C108.394 36.7887 107.488 36.5479 106.443 36.5479C105.292 36.5479 104.297 36.8336 103.456 37.4048C102.624 37.9679 101.983 38.7024 101.534 39.6082C101.086 40.5141 100.861 41.4852 100.861 42.5216V44.1864C100.861 45.6064 101.106 46.8101 101.596 47.7975C102.093 48.7768 102.783 49.5235 103.664 50.0376C104.546 50.5436 105.57 50.7966 106.737 50.7966C107.496 50.7966 108.181 50.6905 108.793 50.4783C109.414 50.258 109.948 49.9316 110.397 49.499C110.846 49.0584 111.193 48.5116 111.437 47.8587L114.228 48.6422C113.935 49.5888 113.441 50.4212 112.747 51.1393C112.054 51.8493 111.197 52.4043 110.177 52.8041C109.157 53.1959 108.01 53.3917 106.737 53.3917ZM126.555 53.3917C124.793 53.3917 123.275 52.9755 122.002 52.1431C120.729 51.3107 119.749 50.1641 119.064 48.7034C118.378 47.2426 118.035 45.5737 118.035 43.6967C118.035 41.7871 118.386 40.1019 119.088 38.6412C119.798 37.1722 120.786 36.0256 122.051 35.2014C123.324 34.369 124.809 33.9528 126.506 33.9528C127.828 33.9528 129.02 34.1976 130.081 34.6873C131.142 35.1769 132.011 35.8624 132.688 36.7438C133.365 37.6251 133.786 38.6534 133.949 39.8286H131.06C130.84 38.9717 130.35 38.2127 129.591 37.5517C128.84 36.8825 127.828 36.5479 126.555 36.5479C125.429 36.5479 124.442 36.8417 123.593 37.4293C122.752 38.0087 122.095 38.8289 121.622 39.8898C121.157 40.9425 120.924 42.1788 120.924 43.5988C120.924 45.0514 121.153 46.3163 121.61 47.3936C122.075 48.4708 122.728 49.3073 123.568 49.903C124.417 50.4987 125.413 50.7966 126.555 50.7966C127.306 50.7966 127.987 50.666 128.6 50.4049C129.212 50.1437 129.73 49.7683 130.154 49.2787C130.579 48.7891 130.88 48.2015 131.06 47.516H133.949C133.786 48.6258 133.382 49.6255 132.737 50.5151C132.101 51.3964 131.256 52.0982 130.203 52.6205C129.159 53.1347 127.943 53.3917 126.555 53.3917ZM146.349 34.1976V36.6459H136.605V34.1976H146.349ZM139.445 29.6929H142.334V47.6139C142.334 48.43 142.452 49.042 142.689 49.4501C142.934 49.85 143.244 50.1193 143.619 50.258C144.003 50.3886 144.407 50.4538 144.831 50.4538C145.15 50.4538 145.411 50.4375 145.615 50.4049C145.819 50.3641 145.982 50.3314 146.104 50.307L146.692 52.9021C146.496 52.9755 146.223 53.049 145.872 53.1224C145.521 53.204 145.076 53.2448 144.537 53.2448C143.721 53.2448 142.922 53.0694 142.138 52.7185C141.363 52.3675 140.718 51.833 140.204 51.1149C139.698 50.3967 139.445 49.4909 139.445 48.3973V29.6929ZM158.988 53H151.133V27.5455H159.336C161.805 27.5455 163.918 28.055 165.675 29.0742C167.432 30.0851 168.778 31.5393 169.714 33.4368C170.651 35.326 171.119 37.5881 171.119 40.223C171.119 42.8745 170.647 45.1573 169.702 47.0714C168.757 48.9772 167.382 50.4438 165.576 51.4712C163.769 52.4904 161.573 53 158.988 53ZM154.215 50.2656H158.789C160.894 50.2656 162.638 49.8596 164.022 49.0476C165.406 48.2356 166.437 47.0797 167.117 45.5799C167.796 44.0801 168.136 42.2945 168.136 40.223C168.136 38.1681 167.8 36.399 167.129 34.9158C166.458 33.4244 165.455 32.2809 164.121 31.4854C162.787 30.6817 161.126 30.2798 159.137 30.2798H154.215V50.2656ZM183.896 53.3977C182.056 53.3977 180.47 52.9917 179.136 52.1797C177.81 51.3594 176.786 50.2159 176.066 48.7493C175.353 47.2744 174.997 45.5592 174.997 43.6037C174.997 41.6482 175.353 39.9247 176.066 38.4332C176.786 36.9335 177.789 35.7652 179.073 34.9283C180.366 34.0831 181.874 33.6605 183.598 33.6605C184.592 33.6605 185.574 33.8262 186.543 34.1577C187.513 34.4891 188.395 35.0277 189.191 35.7734C189.986 36.5109 190.62 37.4886 191.092 38.7067C191.565 39.9247 191.801 41.4245 191.801 43.206V44.4489H177.085V41.9134H188.818C188.818 40.8362 188.602 39.875 188.171 39.0298C187.749 38.1847 187.144 37.5176 186.357 37.0288C185.578 36.5399 184.658 36.2955 183.598 36.2955C182.429 36.2955 181.418 36.5855 180.565 37.1655C179.72 37.7372 179.069 38.483 178.614 39.4027C178.158 40.3224 177.93 41.3085 177.93 42.3608V44.0511C177.93 45.4929 178.179 46.7151 178.676 47.7177C179.181 48.712 179.881 49.4702 180.776 49.9922C181.671 50.5059 182.711 50.7628 183.896 50.7628C184.666 50.7628 185.362 50.6551 185.984 50.4396C186.614 50.2159 187.156 49.8845 187.612 49.4453C188.068 48.9979 188.42 48.4427 188.669 47.7798L191.502 48.5753C191.204 49.5365 190.703 50.3816 189.998 51.1108C189.294 51.8317 188.424 52.3951 187.388 52.8011C186.353 53.1989 185.188 53.3977 183.896 53.3977ZM204.018 53.3977C202.229 53.3977 200.687 52.9751 199.395 52.13C198.102 51.2848 197.108 50.1206 196.412 48.6374C195.716 47.1542 195.368 45.4598 195.368 43.554C195.368 41.6151 195.724 39.904 196.437 38.4208C197.158 36.9293 198.16 35.7652 199.445 34.9283C200.737 34.0831 202.245 33.6605 203.969 33.6605C205.311 33.6605 206.521 33.9091 207.598 34.4062C208.675 34.9034 209.558 35.5994 210.245 36.4943C210.933 37.3892 211.36 38.4332 211.525 39.6264H208.592C208.369 38.7564 207.871 37.9858 207.101 37.3146C206.338 36.6352 205.311 36.2955 204.018 36.2955C202.875 36.2955 201.872 36.5937 201.011 37.1903C200.157 37.7786 199.49 38.6114 199.009 39.6886C198.537 40.7575 198.301 42.0128 198.301 43.4545C198.301 44.9295 198.533 46.2138 198.997 47.3075C199.469 48.4013 200.132 49.2506 200.986 49.8555C201.847 50.4603 202.858 50.7628 204.018 50.7628C204.781 50.7628 205.473 50.6302 206.094 50.3651C206.715 50.0999 207.242 49.7188 207.672 49.2216C208.103 48.7244 208.41 48.1278 208.592 47.4318H211.525C211.36 48.5587 210.95 49.5737 210.295 50.4769C209.649 51.3718 208.791 52.0844 207.722 52.6147C206.662 53.1367 205.427 53.3977 204.018 53.3977ZM223.569 53.3977C221.846 53.3977 220.333 52.9876 219.033 52.1673C217.74 51.3469 216.729 50.1993 216 48.7244C215.279 47.2495 214.919 45.526 214.919 43.554C214.919 41.5653 215.279 39.8294 216 38.3462C216.729 36.863 217.74 35.7113 219.033 34.891C220.333 34.0707 221.846 33.6605 223.569 33.6605C225.293 33.6605 226.801 34.0707 228.093 34.891C229.394 35.7113 230.405 36.863 231.126 38.3462C231.855 39.8294 232.22 41.5653 232.22 43.554C232.22 45.526 231.855 47.2495 231.126 48.7244C230.405 50.1993 229.394 51.3469 228.093 52.1673C226.801 52.9876 225.293 53.3977 223.569 53.3977ZM223.569 50.7628C224.878 50.7628 225.956 50.4272 226.801 49.756C227.646 49.0849 228.271 48.2024 228.677 47.1087C229.083 46.0149 229.286 44.83 229.286 43.554C229.286 42.2779 229.083 41.0889 228.677 39.9869C228.271 38.8848 227.646 37.9941 226.801 37.3146C225.956 36.6352 224.878 36.2955 223.569 36.2955C222.26 36.2955 221.183 36.6352 220.338 37.3146C219.492 37.9941 218.867 38.8848 218.461 39.9869C218.055 41.0889 217.852 42.2779 217.852 43.554C217.852 44.83 218.055 46.0149 218.461 47.1087C218.867 48.2024 219.492 49.0849 220.338 49.756C221.183 50.4272 222.26 50.7628 223.569 50.7628ZM236.697 53V33.9091H239.531V36.7926H239.73C240.078 35.848 240.708 35.0816 241.619 34.4933C242.531 33.9049 243.558 33.6108 244.702 33.6108C244.917 33.6108 245.186 33.6149 245.509 33.6232C245.833 33.6315 246.077 33.6439 246.243 33.6605V36.6435C246.143 36.6186 245.915 36.5813 245.559 36.5316C245.211 36.4736 244.842 36.4446 244.453 36.4446C243.525 36.4446 242.696 36.6393 241.967 37.0288C241.246 37.4099 240.675 37.9402 240.252 38.6197C239.838 39.2908 239.631 40.0573 239.631 40.919V53H236.697Z" fill="black"/>
<path d="M41.787 52.716H15L15.081 20.7L41.787 9V52.716Z" fill="#BB1521"/>
<path d="M48.7 58.2V3.935L156.193 22.268L156.844 18.452L48.7 0L0 20.948L1.53 24.504L8.4 21.549L8.296 62.071H47.868H48.7H265.168V58.2H48.7ZM44.829 58.2H12.176L12.274 19.882L44.829 5.87903V58.2Z" fill="#3266B1"/>
</svg>
