<svg width="500" height="500" viewBox="0 0 500 500" fill="none" xmlns="http://www.w3.org/2000/svg">
<path d="M430.361 408.532H113.297V369.043H129.297V392.532H414.361V107.468H338.878V91.468H430.361V408.532Z" fill="#28B0CD"/>
<path opacity="0.3" d="M430.361 158.346C424.551 151.83 419.47 146.08 414.361 143.076V356.836C419.215 353.648 424.852 349.691 430.361 345.248V158.346Z" fill="#28B0CD"/>
<path d="M142.083 234.551C219.858 183.026 315.383 95.267 323.166 152.916C330.949 210.565 378.899 167.342 407.098 163.672C504.026 151.056 486.237 269.738 418.692 314.05C351.148 358.363 236.545 379.354 254.081 328.158C271.617 276.962 211.359 335.329 165.32 325.004C119.282 314.678 113.365 253.576 142.083 234.551Z" fill="#9ED7F0"/>
<path d="M93.9063 93.5851H89.4427C89.1787 92.3012 88.7167 91.1733 88.0568 90.2014C87.4089 89.2295 86.6169 88.4136 85.681 87.7536C84.7571 87.0817 83.7312 86.5777 82.6033 86.2417C81.4754 85.9058 80.2995 85.7378 79.0756 85.7378C76.8438 85.7378 74.8219 86.3017 73.0101 87.4296C71.2103 88.5575 69.7764 90.2194 68.7085 92.4152C67.6526 94.611 67.1246 97.3048 67.1246 100.497C67.1246 103.688 67.6526 106.382 68.7085 108.578C69.7764 110.774 71.2103 112.435 73.0101 113.563C74.8219 114.691 76.8438 115.255 79.0756 115.255C80.2995 115.255 81.4754 115.087 82.6033 114.751C83.7312 114.415 84.7571 113.917 85.681 113.257C86.6169 112.585 87.4089 111.764 88.0568 110.792C88.7167 109.808 89.1787 108.68 89.4427 107.408H93.9063C93.5703 109.292 92.9584 110.978 92.0704 112.465C91.1825 113.953 90.0786 115.219 88.7587 116.263C87.4389 117.295 85.957 118.081 84.3131 118.621C82.6813 119.161 80.9354 119.431 79.0756 119.431C75.9318 119.431 73.1361 118.663 70.6883 117.127C68.2405 115.591 66.3147 113.407 64.9108 110.576C63.5069 107.744 62.805 104.384 62.805 100.497C62.805 96.6088 63.5069 93.2491 64.9108 90.4174C66.3147 87.5856 68.2405 85.4018 70.6883 83.866C73.1361 82.3301 75.9318 81.5622 79.0756 81.5622C80.9354 81.5622 82.6813 81.8321 84.3131 82.3721C85.957 82.912 87.4389 83.704 88.7587 84.7479C90.0786 85.7798 91.1825 87.0397 92.0704 88.5275C92.9584 90.0034 93.5703 91.6893 93.9063 93.5851ZM132.22 100.497C132.22 104.384 131.519 107.744 130.115 110.576C128.711 113.407 126.785 115.591 124.337 117.127C121.889 118.663 119.094 119.431 115.95 119.431C112.806 119.431 110.01 118.663 107.563 117.127C105.115 115.591 103.189 113.407 101.785 110.576C100.381 107.744 99.6793 104.384 99.6793 100.497C99.6793 96.6088 100.381 93.2491 101.785 90.4174C103.189 87.5856 105.115 85.4018 107.563 83.866C110.01 82.3301 112.806 81.5622 115.95 81.5622C119.094 81.5622 121.889 82.3301 124.337 83.866C126.785 85.4018 128.711 87.5856 130.115 90.4174C131.519 93.2491 132.22 96.6088 132.22 100.497ZM127.901 100.497C127.901 97.3048 127.367 94.611 126.299 92.4152C125.243 90.2194 123.809 88.5575 121.997 87.4296C120.198 86.3017 118.182 85.7378 115.95 85.7378C113.718 85.7378 111.696 86.3017 109.884 87.4296C108.085 88.5575 106.651 90.2194 105.583 92.4152C104.527 94.611 103.999 97.3048 103.999 100.497C103.999 103.688 104.527 106.382 105.583 108.578C106.651 110.774 108.085 112.435 109.884 113.563C111.696 114.691 113.718 115.255 115.95 115.255C118.182 115.255 120.198 114.691 121.997 113.563C123.809 112.435 125.243 110.774 126.299 108.578C127.367 106.382 127.901 103.688 127.901 100.497ZM168.955 82.0661V118.927H164.636L144.549 89.9854H144.189V118.927H139.726V82.0661H144.045L164.204 111.08H164.564V82.0661H168.955ZM175.871 86.0258V82.0661H203.517V86.0258H191.926V118.927H187.462V86.0258H175.871ZM207.611 118.927H202.932L216.467 82.0661H221.074L234.609 118.927H229.929L218.914 87.8976H218.626L207.611 118.927ZM209.339 104.528H228.202V108.488H209.339V104.528ZM268.28 93.5851H263.816C263.552 92.3012 263.09 91.1733 262.43 90.2014C261.782 89.2295 260.99 88.4136 260.054 87.7536C259.13 87.0817 258.105 86.5777 256.977 86.2417C255.849 85.9058 254.673 85.7378 253.449 85.7378C251.217 85.7378 249.195 86.3017 247.383 87.4296C245.584 88.5575 244.15 90.2194 243.082 92.4152C242.026 94.611 241.498 97.3048 241.498 100.497C241.498 103.688 242.026 106.382 243.082 108.578C244.15 110.774 245.584 112.435 247.383 113.563C249.195 114.691 251.217 115.255 253.449 115.255C254.673 115.255 255.849 115.087 256.977 114.751C258.105 114.415 259.13 113.917 260.054 113.257C260.99 112.585 261.782 111.764 262.43 110.792C263.09 109.808 263.552 108.68 263.816 107.408H268.28C267.944 109.292 267.332 110.978 266.444 112.465C265.556 113.953 264.452 115.219 263.132 116.263C261.812 117.295 260.33 118.081 258.686 118.621C257.055 119.161 255.309 119.431 253.449 119.431C250.305 119.431 247.509 118.663 245.062 117.127C242.614 115.591 240.688 113.407 239.284 110.576C237.88 107.744 237.178 104.384 237.178 100.497C237.178 96.6088 237.88 93.2491 239.284 90.4174C240.688 87.5856 242.614 85.4018 245.062 83.866C247.509 82.3301 250.305 81.5622 253.449 81.5622C255.309 81.5622 257.055 81.8321 258.686 82.3721C260.33 82.912 261.812 83.704 263.132 84.7479C264.452 85.7798 265.556 87.0397 266.444 88.5275C267.332 90.0034 267.944 91.6893 268.28 93.5851ZM273.477 86.0258V82.0661H301.122V86.0258H289.531V118.927H285.068V86.0258H273.477Z" fill="#28B0CD"/>
<path d="M88.4348 126.066H92.8984V150.472C92.8984 152.992 92.3044 155.242 91.1165 157.221C89.9406 159.189 88.2788 160.743 86.131 161.883C83.9832 163.011 81.4634 163.575 78.5716 163.575C75.6799 163.575 73.1601 163.011 71.0123 161.883C68.8645 160.743 67.1966 159.189 66.0087 157.221C64.8328 155.242 64.2449 152.992 64.2449 150.472V126.066H68.7085V150.112C68.7085 151.912 69.1044 153.514 69.8964 154.918C70.6883 156.309 71.8162 157.407 73.2801 158.211C74.756 159.003 76.5198 159.399 78.5716 159.399C80.6234 159.399 82.3873 159.003 83.8632 158.211C85.339 157.407 86.4669 156.309 87.2469 154.918C88.0388 153.514 88.4348 151.912 88.4348 150.112V126.066ZM121.97 135.281C121.754 133.457 120.878 132.042 119.343 131.034C117.807 130.026 115.923 129.522 113.691 129.522C112.059 129.522 110.631 129.786 109.407 130.314C108.196 130.842 107.248 131.568 106.564 132.492C105.892 133.415 105.556 134.465 105.556 135.641C105.556 136.625 105.79 137.471 106.258 138.179C106.738 138.875 107.35 139.457 108.094 139.925C108.837 140.381 109.617 140.759 110.433 141.059C111.249 141.347 111.999 141.581 112.683 141.761L116.427 142.769C117.387 143.021 118.455 143.369 119.631 143.813C120.818 144.256 121.952 144.862 123.032 145.63C124.124 146.386 125.024 147.358 125.732 148.546C126.44 149.734 126.794 151.192 126.794 152.92C126.794 154.912 126.272 156.711 125.228 158.319C124.196 159.927 122.684 161.205 120.692 162.153C118.713 163.101 116.307 163.575 113.475 163.575C110.835 163.575 108.55 163.149 106.618 162.297C104.698 161.445 103.186 160.257 102.082 158.733C100.99 157.209 100.372 155.44 100.228 153.424H104.836C104.956 154.816 105.424 155.967 106.24 156.879C107.068 157.779 108.112 158.451 109.371 158.895C110.643 159.327 112.011 159.543 113.475 159.543C115.179 159.543 116.709 159.267 118.065 158.715C119.421 158.151 120.494 157.371 121.286 156.375C122.078 155.368 122.474 154.192 122.474 152.848C122.474 151.624 122.132 150.628 121.448 149.86C120.764 149.092 119.865 148.468 118.749 147.988C117.633 147.508 116.427 147.088 115.131 146.728L110.595 145.432C107.716 144.604 105.436 143.423 103.756 141.887C102.076 140.351 101.236 138.341 101.236 135.857C101.236 133.793 101.794 131.994 102.91 130.458C104.038 128.91 105.55 127.71 107.446 126.858C109.353 125.994 111.483 125.562 113.835 125.562C116.211 125.562 118.323 125.988 120.171 126.84C122.018 127.68 123.482 128.832 124.562 130.296C125.654 131.76 126.23 133.421 126.29 135.281H121.97Z" fill="#28B0CD"/>
<path d="M149.131 356.988C198.478 356.988 238.481 347.705 238.481 336.254C238.481 324.803 198.478 315.52 149.131 315.52C99.7846 315.52 59.7812 324.803 59.7812 336.254C59.7812 347.705 99.7846 356.988 149.131 356.988Z" fill="#063B59"/>
<path d="M128.868 215.434H124.058C120.696 215.434 117.97 218.16 117.97 221.522V240.573C117.97 243.935 120.696 246.661 124.058 246.661H128.868C132.23 246.661 134.956 243.935 134.956 240.573V221.522C134.956 218.159 132.231 215.434 128.868 215.434Z" fill="#28B0CD"/>
<path opacity="0.25" d="M127.624 215.434H126.463V246.661H127.624C131.674 246.661 134.957 243.378 134.957 239.329V222.767C134.956 218.717 131.674 215.434 127.624 215.434Z" fill="#28B0CD"/>
<path d="M168.897 215.434H173.707C177.069 215.434 179.795 218.16 179.795 221.522V240.573C179.795 243.935 177.069 246.661 173.707 246.661H168.897C165.535 246.661 162.809 243.935 162.809 240.573V221.522C162.809 218.159 165.534 215.434 168.897 215.434Z" fill="#28B0CD"/>
<path opacity="0.25" d="M170.141 215.434H171.302V246.661H170.141C166.091 246.661 162.809 243.378 162.809 239.329V222.767C162.809 218.717 166.092 215.434 170.141 215.434Z" fill="#28B0CD"/>
<path d="M207.101 245.675C205.387 239.482 200.108 234.935 193.727 234.168C183.291 232.914 166.401 231.291 148.873 231.291C131.389 231.291 114.733 232.906 104.44 234.158C98.1091 234.929 92.8621 239.425 91.1211 245.561L74.2611 304.974C73.6661 307.07 73.5381 309.271 73.8841 311.423L77.1791 331.866C77.9731 336.792 81.9071 340.608 86.8551 341.246C99.6961 342.901 125.286 345.759 148.872 345.759C172.459 345.759 198.048 342.901 210.889 341.246C215.837 340.608 219.772 336.792 220.565 331.866L223.868 311.372C224.209 309.253 224.09 307.086 223.518 305.018L207.101 245.675Z" fill="#28B0CD"/>
<g opacity="0.2">
<path d="M194.733 270.7L174.612 250.579H121.784L115.959 301.367L137.317 322.725C141.106 322.925 144.955 323.04 148.876 323.04C166.066 323.04 186.389 319.735 204.231 315.894L194.733 270.7Z" fill="#28B0CD"/>
</g>
<path d="M165.134 260.534C165.155 260.548 165.176 260.561 165.197 260.575C165.218 260.589 165.239 260.602 165.26 260.616C165.28 260.63 165.302 260.643 165.323 260.657C165.344 260.671 165.365 260.684 165.386 260.698C165.407 260.712 165.428 260.725 165.449 260.739C165.47 260.753 165.491 260.766 165.512 260.78C165.533 260.794 165.554 260.807 165.575 260.821C165.596 260.835 165.617 260.848 165.638 260.862C165.659 260.876 165.68 260.889 165.701 260.903C165.722 260.917 165.743 260.93 165.764 260.944C165.785 260.958 165.806 260.971 165.827 260.985C165.847 260.999 165.869 261.012 165.89 261.026C165.911 261.04 165.932 261.053 165.953 261.067C165.974 261.081 165.995 261.094 166.016 261.108C166.037 261.122 166.058 261.135 166.079 261.149C166.1 261.163 166.121 261.176 166.141 261.19C167.309 261.984 168.718 262.45 170.237 262.45C174.264 262.45 177.528 259.186 177.528 255.159C177.528 252.624 176.233 250.393 174.27 249.087C174.249 249.073 174.228 249.06 174.207 249.046C174.186 249.032 174.165 249.019 174.144 249.005C174.123 248.991 174.102 248.978 174.081 248.964C174.061 248.95 174.039 248.937 174.018 248.923C173.997 248.909 173.976 248.896 173.955 248.882C173.934 248.868 173.913 248.855 173.892 248.841C173.871 248.827 173.85 248.814 173.829 248.8C173.808 248.786 173.787 248.773 173.766 248.759C173.746 248.745 173.724 248.732 173.703 248.718C173.682 248.704 173.661 248.691 173.64 248.677C173.619 248.663 173.598 248.65 173.577 248.636C173.556 248.622 173.535 248.609 173.514 248.595C173.494 248.581 173.472 248.568 173.451 248.554C173.43 248.54 173.409 248.527 173.388 248.513C173.367 248.499 173.346 248.486 173.326 248.473C173.305 248.459 173.284 248.446 173.263 248.432C172.095 247.638 170.686 247.172 169.167 247.172C165.141 247.172 161.876 250.436 161.876 254.463C161.876 256.997 163.171 259.227 165.134 260.534Z" fill="#014B7C"/>
<path d="M167.333 284.027C167.354 284.041 167.375 284.054 167.396 284.068C167.416 284.082 167.438 284.095 167.459 284.109C167.48 284.123 167.501 284.136 167.522 284.15C167.543 284.164 167.564 284.177 167.585 284.191C167.606 284.205 167.627 284.218 167.648 284.232C167.668 284.246 167.69 284.259 167.71 284.273C167.731 284.287 167.752 284.3 167.773 284.314C167.794 284.328 167.815 284.341 167.836 284.355C167.857 284.369 167.878 284.382 167.899 284.396C167.92 284.41 167.941 284.423 167.962 284.437C167.982 284.451 168.004 284.464 168.025 284.478C168.046 284.492 168.067 284.505 168.088 284.519C168.109 284.533 168.13 284.546 168.151 284.56C168.172 284.574 168.193 284.587 168.214 284.601C168.235 284.615 168.256 284.628 168.277 284.642C169.444 285.436 170.854 285.901 172.372 285.901C176.399 285.901 179.663 282.637 179.663 278.61C179.663 276.075 178.368 273.845 176.405 272.538C176.384 272.524 176.363 272.511 176.342 272.497C176.321 272.483 176.3 272.47 176.279 272.456C176.258 272.442 176.237 272.429 176.216 272.415C176.196 272.401 176.174 272.388 176.153 272.374C176.132 272.36 176.111 272.347 176.09 272.333C176.069 272.319 176.048 272.306 176.027 272.292C176.006 272.278 175.985 272.265 175.964 272.251C175.943 272.237 175.922 272.224 175.901 272.21C175.88 272.196 175.859 272.183 175.838 272.169C175.817 272.155 175.796 272.142 175.775 272.128C175.754 272.114 175.733 272.101 175.712 272.087C175.691 272.073 175.67 272.06 175.649 272.046C175.629 272.032 175.607 272.019 175.586 272.005C175.565 271.991 175.544 271.978 175.523 271.964C175.502 271.95 175.481 271.937 175.46 271.923C175.439 271.909 175.418 271.896 175.397 271.882C174.23 271.088 172.82 270.622 171.301 270.622C167.275 270.622 164.01 273.886 164.01 277.913C164.01 280.448 165.305 282.679 167.268 283.985C167.291 284 167.312 284.013 167.333 284.027Z" fill="#014B7C"/>
<path d="M133.688 249.084C133.667 249.07 133.646 249.057 133.626 249.043C133.605 249.029 133.584 249.016 133.563 249.002C133.542 248.988 133.521 248.975 133.5 248.961C133.479 248.947 133.458 248.934 133.437 248.92C133.416 248.906 133.395 248.893 133.374 248.879C133.353 248.865 133.332 248.852 133.311 248.838C133.29 248.824 133.269 248.811 133.248 248.797C133.227 248.783 133.206 248.77 133.185 248.756C133.164 248.742 133.143 248.729 133.122 248.715C133.101 248.701 133.08 248.688 133.059 248.674C133.038 248.66 133.017 248.647 132.996 248.633C132.975 248.619 132.954 248.606 132.933 248.592C132.912 248.578 132.891 248.565 132.87 248.551C132.849 248.537 132.828 248.524 132.807 248.51C132.786 248.496 132.765 248.483 132.744 248.469C132.723 248.455 132.702 248.442 132.681 248.428C131.513 247.634 130.104 247.168 128.585 247.168C124.558 247.168 121.294 250.432 121.294 254.459C121.294 256.994 122.589 259.225 124.552 260.531C124.573 260.545 124.594 260.558 124.615 260.572C124.636 260.586 124.657 260.599 124.677 260.613C124.698 260.627 124.719 260.64 124.74 260.654C124.761 260.668 124.782 260.681 124.803 260.695C124.824 260.709 124.845 260.722 124.866 260.736C124.887 260.75 124.908 260.763 124.929 260.777C124.95 260.791 124.971 260.804 124.992 260.818C125.013 260.832 125.034 260.845 125.055 260.859C125.076 260.873 125.097 260.886 125.118 260.9C125.139 260.914 125.16 260.927 125.181 260.941C125.202 260.955 125.223 260.968 125.244 260.982C125.265 260.996 125.286 261.009 125.307 261.023C125.328 261.037 125.349 261.05 125.37 261.064C125.391 261.078 125.412 261.091 125.433 261.105C125.454 261.119 125.475 261.132 125.496 261.146C125.517 261.16 125.538 261.173 125.559 261.187C126.726 261.981 128.136 262.447 129.655 262.447C133.682 262.447 136.946 259.183 136.946 255.156C136.947 252.621 135.651 250.39 133.688 249.084Z" fill="#014B7C"/>
<path d="M153.978 249.084C153.957 249.07 153.936 249.057 153.915 249.043C153.894 249.029 153.873 249.016 153.852 249.002C153.831 248.988 153.81 248.975 153.789 248.961C153.768 248.947 153.747 248.934 153.726 248.92C153.705 248.906 153.684 248.893 153.663 248.879C153.642 248.865 153.621 248.852 153.6 248.838C153.579 248.824 153.558 248.811 153.537 248.797C153.516 248.783 153.495 248.77 153.474 248.756C153.454 248.742 153.432 248.729 153.412 248.715C153.391 248.701 153.37 248.688 153.349 248.674C153.328 248.66 153.307 248.647 153.286 248.633C153.265 248.619 153.244 248.606 153.223 248.592C153.202 248.578 153.181 248.565 153.16 248.551C153.139 248.537 153.118 248.524 153.096 248.51C153.076 248.496 153.054 248.483 153.034 248.47C153.013 248.456 152.992 248.443 152.971 248.429C151.804 247.635 150.394 247.169 148.875 247.169C144.848 247.169 141.584 250.433 141.584 254.46C141.584 256.995 142.879 259.226 144.842 260.532C144.863 260.546 144.884 260.559 144.905 260.573C144.926 260.587 144.947 260.6 144.968 260.614C144.989 260.628 145.01 260.641 145.031 260.655C145.052 260.669 145.073 260.682 145.094 260.696C145.115 260.71 145.136 260.723 145.157 260.737C145.178 260.751 145.199 260.764 145.22 260.778C145.24 260.792 145.262 260.805 145.283 260.819C145.304 260.833 145.325 260.846 145.346 260.86C145.367 260.874 145.388 260.887 145.409 260.901C145.43 260.915 145.451 260.928 145.472 260.942C145.493 260.956 145.514 260.969 145.535 260.983C145.556 260.997 145.577 261.01 145.598 261.024C145.619 261.038 145.64 261.051 145.661 261.065C145.682 261.079 145.703 261.092 145.724 261.106C145.745 261.12 145.766 261.133 145.787 261.147C145.808 261.161 145.829 261.174 145.85 261.188C147.018 261.982 148.427 262.448 149.946 262.448C153.973 262.448 157.237 259.184 157.237 255.157C157.236 252.621 155.941 250.39 153.978 249.084Z" fill="#014B7C"/>
<path d="M131.554 272.537C131.533 272.523 131.512 272.51 131.492 272.496C131.471 272.482 131.45 272.469 131.429 272.455C131.408 272.441 131.387 272.428 131.366 272.414C131.345 272.4 131.324 272.387 131.303 272.373C131.282 272.359 131.261 272.346 131.24 272.332C131.219 272.318 131.198 272.305 131.177 272.291C131.156 272.277 131.135 272.264 131.114 272.25C131.093 272.236 131.072 272.223 131.051 272.209C131.03 272.195 131.009 272.182 130.988 272.168C130.967 272.154 130.946 272.141 130.925 272.127C130.904 272.113 130.883 272.1 130.862 272.086C130.841 272.072 130.82 272.059 130.799 272.045C130.778 272.031 130.757 272.018 130.736 272.004C130.715 271.99 130.694 271.977 130.673 271.963C130.652 271.949 130.631 271.936 130.61 271.922C130.589 271.908 130.568 271.895 130.547 271.881C129.379 271.087 127.97 270.621 126.451 270.621C122.424 270.621 119.16 273.885 119.16 277.912C119.16 280.447 120.455 282.678 122.418 283.984C122.439 283.998 122.46 284.011 122.481 284.025C122.502 284.039 122.523 284.052 122.544 284.066C122.565 284.08 122.586 284.093 122.607 284.107C122.628 284.121 122.649 284.134 122.67 284.148C122.691 284.162 122.712 284.175 122.733 284.189C122.754 284.203 122.775 284.216 122.796 284.23C122.817 284.244 122.838 284.257 122.859 284.271C122.88 284.285 122.901 284.298 122.922 284.312C122.943 284.326 122.964 284.339 122.985 284.353C123.006 284.367 123.027 284.38 123.048 284.394C123.069 284.408 123.09 284.421 123.111 284.435C123.132 284.449 123.153 284.462 123.174 284.476C123.195 284.49 123.216 284.503 123.237 284.517C123.258 284.531 123.279 284.544 123.3 284.558C123.321 284.572 123.342 284.585 123.363 284.599C123.384 284.613 123.405 284.626 123.426 284.64C124.594 285.434 126.003 285.899 127.521 285.899C131.548 285.899 134.812 282.635 134.812 278.608C134.812 276.074 133.517 273.843 131.554 272.537Z" fill="#014B7C"/>
<path d="M153.978 272.537C153.957 272.523 153.936 272.51 153.915 272.496C153.894 272.482 153.873 272.469 153.852 272.455C153.831 272.441 153.81 272.428 153.789 272.414C153.768 272.4 153.747 272.387 153.726 272.373C153.705 272.359 153.684 272.346 153.663 272.332C153.642 272.318 153.621 272.305 153.6 272.291C153.579 272.277 153.558 272.264 153.537 272.25C153.516 272.236 153.495 272.223 153.474 272.209C153.454 272.195 153.432 272.182 153.412 272.168C153.391 272.154 153.37 272.141 153.349 272.127C153.328 272.113 153.307 272.1 153.286 272.086C153.265 272.072 153.244 272.059 153.223 272.045C153.202 272.031 153.181 272.018 153.16 272.004C153.139 271.99 153.118 271.977 153.097 271.963C153.076 271.949 153.055 271.936 153.034 271.922C153.013 271.908 152.992 271.895 152.971 271.881C151.804 271.087 150.394 270.621 148.875 270.621C144.848 270.621 141.584 273.885 141.584 277.912C141.584 280.447 142.879 282.678 144.842 283.984C144.863 283.998 144.884 284.011 144.905 284.025C144.926 284.039 144.947 284.052 144.968 284.066C144.989 284.08 145.01 284.093 145.031 284.107C145.052 284.121 145.073 284.134 145.094 284.148C145.115 284.162 145.136 284.175 145.157 284.189C145.178 284.203 145.199 284.216 145.22 284.23C145.24 284.244 145.262 284.257 145.283 284.271C145.304 284.285 145.325 284.298 145.346 284.312C145.367 284.326 145.388 284.339 145.409 284.353C145.43 284.367 145.451 284.38 145.472 284.394C145.493 284.408 145.514 284.421 145.535 284.435C145.556 284.449 145.577 284.462 145.598 284.476C145.619 284.49 145.64 284.503 145.661 284.517C145.682 284.531 145.703 284.544 145.724 284.558C145.745 284.572 145.766 284.585 145.787 284.599C145.808 284.613 145.829 284.626 145.851 284.64C147.018 285.434 148.428 285.899 149.946 285.899C153.973 285.899 157.237 282.635 157.237 278.608C157.236 276.074 155.941 273.843 153.978 272.537Z" fill="#014B7C"/>
<path d="M128.352 295.99C128.332 295.976 128.31 295.963 128.289 295.949C128.268 295.935 128.247 295.922 128.226 295.908C128.205 295.894 128.184 295.881 128.163 295.867C128.142 295.853 128.121 295.84 128.1 295.826C128.079 295.812 128.058 295.799 128.037 295.785C128.016 295.771 127.995 295.758 127.974 295.744C127.953 295.73 127.932 295.717 127.911 295.703C127.89 295.689 127.869 295.676 127.848 295.662C127.827 295.648 127.806 295.635 127.785 295.621C127.764 295.607 127.743 295.594 127.722 295.58C127.701 295.566 127.68 295.553 127.659 295.539C127.638 295.525 127.617 295.512 127.596 295.498C127.575 295.484 127.554 295.471 127.533 295.457C127.512 295.443 127.491 295.43 127.47 295.416C127.449 295.402 127.428 295.389 127.407 295.375C127.386 295.361 127.365 295.348 127.344 295.334C126.176 294.54 124.767 294.074 123.248 294.074C119.221 294.074 115.957 297.338 115.957 301.365C115.957 303.9 117.252 306.131 119.215 307.437C119.236 307.451 119.257 307.464 119.278 307.478C119.299 307.492 119.32 307.505 119.341 307.519C119.362 307.533 119.383 307.546 119.404 307.56C119.425 307.574 119.446 307.587 119.467 307.601C119.488 307.615 119.509 307.628 119.53 307.642C119.551 307.656 119.572 307.669 119.593 307.683C119.614 307.697 119.635 307.71 119.656 307.724C119.677 307.738 119.698 307.751 119.719 307.765C119.74 307.779 119.761 307.792 119.782 307.806C119.803 307.82 119.824 307.833 119.844 307.846C119.865 307.86 119.886 307.873 119.907 307.887C119.928 307.901 119.949 307.914 119.97 307.928C119.991 307.942 120.012 307.955 120.033 307.969C120.054 307.983 120.075 307.996 120.096 308.01C120.117 308.024 120.138 308.037 120.158 308.051C120.179 308.065 120.2 308.078 120.221 308.092C121.388 308.886 122.798 309.352 124.317 309.352C128.344 309.352 131.608 306.088 131.608 302.061C131.61 299.527 130.315 297.296 128.352 295.99Z" fill="#014B7C"/>
<path d="M179.605 295.99C179.584 295.976 179.563 295.963 179.542 295.949C179.521 295.935 179.5 295.922 179.479 295.908C179.458 295.894 179.437 295.881 179.416 295.867C179.395 295.853 179.374 295.84 179.353 295.826C179.332 295.812 179.311 295.799 179.29 295.785C179.269 295.771 179.248 295.758 179.227 295.744C179.206 295.73 179.185 295.717 179.164 295.703C179.143 295.689 179.122 295.676 179.101 295.662C179.08 295.648 179.059 295.635 179.038 295.621C179.017 295.607 178.996 295.594 178.975 295.58C178.954 295.566 178.933 295.553 178.912 295.539C178.891 295.525 178.87 295.512 178.849 295.498C178.829 295.484 178.807 295.471 178.786 295.457C178.765 295.443 178.744 295.43 178.723 295.416C178.702 295.402 178.681 295.389 178.66 295.375C178.639 295.361 178.618 295.348 178.597 295.334C177.43 294.54 176.02 294.074 174.501 294.074C170.474 294.074 167.21 297.338 167.21 301.365C167.21 303.9 168.505 306.131 170.468 307.437C170.489 307.451 170.51 307.464 170.531 307.478C170.552 307.492 170.573 307.505 170.594 307.519C170.615 307.533 170.636 307.546 170.656 307.56C170.677 307.574 170.698 307.587 170.719 307.601C170.74 307.615 170.761 307.628 170.782 307.642C170.803 307.656 170.824 307.669 170.845 307.683C170.866 307.697 170.887 307.71 170.908 307.724C170.929 307.738 170.95 307.751 170.971 307.765C170.992 307.779 171.013 307.792 171.034 307.806C171.055 307.82 171.076 307.833 171.096 307.846C171.117 307.86 171.138 307.873 171.159 307.887C171.18 307.901 171.201 307.914 171.222 307.928C171.243 307.942 171.264 307.955 171.285 307.969C171.306 307.983 171.327 307.996 171.348 308.01C171.369 308.024 171.39 308.037 171.411 308.051C171.431 308.065 171.453 308.078 171.474 308.092C172.642 308.886 174.051 309.352 175.57 309.352C179.597 309.352 182.861 306.088 182.861 302.061C182.863 299.527 181.568 297.296 179.605 295.99Z" fill="#014B7C"/>
<path d="M153.978 295.99C153.957 295.976 153.936 295.963 153.915 295.949C153.894 295.935 153.873 295.922 153.852 295.908C153.831 295.894 153.81 295.881 153.789 295.867C153.768 295.853 153.747 295.84 153.726 295.826C153.705 295.812 153.684 295.799 153.663 295.785C153.642 295.771 153.621 295.758 153.6 295.744C153.579 295.73 153.558 295.717 153.537 295.703C153.516 295.689 153.495 295.676 153.474 295.662C153.454 295.648 153.432 295.635 153.412 295.621C153.391 295.607 153.37 295.594 153.349 295.58C153.328 295.566 153.307 295.553 153.286 295.539C153.265 295.525 153.244 295.512 153.223 295.498C153.202 295.484 153.181 295.471 153.16 295.457C153.139 295.443 153.118 295.43 153.097 295.416C153.076 295.402 153.055 295.389 153.034 295.375C153.013 295.361 152.992 295.348 152.971 295.334C151.804 294.54 150.394 294.074 148.875 294.074C144.848 294.074 141.584 297.338 141.584 301.365C141.584 303.9 142.879 306.131 144.842 307.437C144.863 307.451 144.884 307.464 144.905 307.478C144.926 307.492 144.947 307.505 144.968 307.519C144.989 307.533 145.01 307.546 145.031 307.56C145.052 307.574 145.073 307.587 145.094 307.601C145.115 307.615 145.136 307.628 145.157 307.642C145.178 307.656 145.199 307.669 145.22 307.683C145.24 307.697 145.262 307.71 145.283 307.724C145.304 307.738 145.325 307.751 145.346 307.765C145.367 307.779 145.388 307.792 145.409 307.806C145.43 307.82 145.451 307.833 145.471 307.846C145.492 307.86 145.513 307.873 145.534 307.887C145.555 307.901 145.576 307.914 145.597 307.928C145.618 307.942 145.639 307.955 145.66 307.969C145.681 307.983 145.702 307.996 145.723 308.01C145.744 308.024 145.765 308.037 145.786 308.051C145.807 308.065 145.828 308.078 145.849 308.092C147.017 308.886 148.426 309.352 149.945 309.352C153.972 309.352 157.236 306.088 157.236 302.061C157.236 299.527 155.941 297.296 153.978 295.99Z" fill="#014B7C"/>
<path d="M128.588 261.753C132.615 261.753 135.879 258.489 135.879 254.462C135.879 250.435 132.615 247.171 128.588 247.171C124.562 247.171 121.297 250.435 121.297 254.462C121.297 258.489 124.562 261.753 128.588 261.753Z" fill="#D2EFF7"/>
<path d="M169.167 261.753C173.194 261.753 176.458 258.489 176.458 254.462C176.458 250.435 173.194 247.171 169.167 247.171C165.141 247.171 161.876 250.435 161.876 254.462C161.876 258.489 165.141 261.753 169.167 261.753Z" fill="#D2EFF7"/>
<path d="M148.877 261.753C152.904 261.753 156.168 258.489 156.168 254.462C156.168 250.435 152.904 247.171 148.877 247.171C144.851 247.171 141.586 250.435 141.586 254.462C141.586 258.489 144.851 261.753 148.877 261.753Z" fill="#D2EFF7"/>
<path d="M126.454 285.205C130.48 285.205 133.745 281.941 133.745 277.914C133.745 273.887 130.48 270.623 126.454 270.623C122.427 270.623 119.163 273.887 119.163 277.914C119.163 281.941 122.427 285.205 126.454 285.205Z" fill="#D2EFF7"/>
<path d="M171.302 285.205C175.329 285.205 178.593 281.941 178.593 277.914C178.593 273.887 175.329 270.623 171.302 270.623C167.276 270.623 164.011 273.887 164.011 277.914C164.011 281.941 167.276 285.205 171.302 285.205Z" fill="#D2EFF7"/>
<path d="M148.877 285.205C152.904 285.205 156.168 281.941 156.168 277.914C156.168 273.887 152.904 270.623 148.877 270.623C144.851 270.623 141.586 273.887 141.586 277.914C141.586 281.941 144.851 285.205 148.877 285.205Z" fill="#D2EFF7"/>
<path d="M128.403 306.522C131.25 303.674 131.25 299.058 128.403 296.211C125.556 293.363 120.939 293.363 118.092 296.211C115.245 299.058 115.245 303.674 118.092 306.522C120.939 309.369 125.556 309.369 128.403 306.522Z" fill="#D2EFF7"/>
<path d="M175.657 308.553C179.631 307.91 182.332 304.166 181.688 300.191C181.045 296.216 177.301 293.516 173.326 294.159C169.352 294.803 166.651 298.547 167.294 302.521C167.938 306.496 171.682 309.197 175.657 308.553Z" fill="#D2EFF7"/>
<path d="M150.534 308.464C154.453 307.542 156.883 303.617 155.961 299.698C155.039 295.778 151.114 293.348 147.194 294.27C143.275 295.192 140.845 299.117 141.767 303.037C142.689 306.956 146.614 309.386 150.534 308.464Z" fill="#D2EFF7"/>
<path d="M148.877 323.041C120.225 323.041 95.0675 317.389 73.7935 310.558C73.8225 310.847 73.8385 311.137 73.8845 311.424L77.1795 331.867C77.9735 336.793 81.9075 340.609 86.8555 341.247C99.6965 342.902 125.286 345.76 148.872 345.76C172.458 345.76 198.048 342.902 210.89 341.247C215.838 340.609 219.773 336.793 220.566 331.867L223.869 311.373C223.875 311.337 223.875 311.3 223.881 311.264C202.969 316.614 172.86 323.041 148.877 323.041Z" fill="#014B7C"/>
<path opacity="0.25" d="M93.4711 316.139L110.856 233.43C108.518 233.677 106.367 233.924 104.44 234.159C98.1091 234.93 92.8621 239.426 91.1211 245.562L74.2611 304.975C73.6661 307.071 73.5381 309.272 73.8841 311.424L77.1791 331.867C77.9731 336.793 81.9071 340.609 86.8551 341.247C90.4571 341.711 95.0631 342.27 100.346 342.834L93.4711 316.139Z" fill="#28B0CD"/>
<path opacity="0.25" d="M204.284 316.139L186.899 233.43C189.237 233.677 191.388 233.924 193.315 234.159C199.646 234.93 204.893 239.426 206.634 245.562L223.493 304.975C224.088 307.071 224.217 309.272 223.87 311.424L220.575 331.867C219.781 336.793 215.847 340.609 210.899 341.247C207.297 341.711 202.691 342.27 197.408 342.834L204.284 316.139Z" fill="#28B0CD"/>
<path d="M255.197 209.932C243.861 204.541 232.214 200.06 220.362 196.491C173.926 182.506 124.335 182.507 77.8992 196.491C66.0472 200.06 54.4002 204.541 43.0642 209.932C35.7732 213.394 32.5752 221.16 35.7292 226.746C36.4012 227.969 37.0732 229.191 37.7462 230.414C41.4162 234.333 45.0122 238.306 48.5332 242.331C50.8322 244.936 54.7502 245.596 58.0342 244.017C64.6182 240.842 71.3282 238.031 78.1342 235.583C81.5272 234.36 83.7462 231.118 83.4842 227.656C83.0562 222.331 82.7152 216.989 82.4602 211.632C125.923 198.543 172.34 198.543 215.803 211.632C215.548 216.988 215.206 222.33 214.779 227.656C214.517 231.117 216.736 234.359 220.128 235.583C226.934 238.031 233.644 240.842 240.228 244.017C243.512 245.596 247.429 244.936 249.729 242.331C253.25 238.306 256.846 234.333 260.516 230.414C261.188 229.191 261.86 227.969 262.533 226.746C265.686 221.16 262.487 213.393 255.197 209.932Z" fill="#28B0CD"/>
<g opacity="0.25">
<path d="M75.2341 205.726C123.407 191.218 174.854 191.218 223.027 205.726C235.323 209.429 247.405 214.077 259.165 219.67C260.918 220.502 262.431 221.581 263.698 222.809C264.063 217.949 260.883 212.632 255.197 209.932C243.861 204.541 232.214 200.06 220.362 196.491C173.926 182.507 124.335 182.507 77.8991 196.491C66.0471 200.06 54.4001 204.541 43.0651 209.932C37.3781 212.632 34.1981 217.949 34.5641 222.81C35.8311 221.582 37.3441 220.503 39.0971 219.671C50.8571 214.077 62.9391 209.429 75.2341 205.726Z" fill="#28B0CD"/>
</g>
<path d="M44.1802 237.438C45.6412 239.062 47.0982 240.689 48.5342 242.331C50.8332 244.936 54.7512 245.596 58.0352 244.017C64.6192 240.842 71.3292 238.031 78.1352 235.583C81.5282 234.36 83.7472 231.118 83.4852 227.656C83.3612 226.108 83.2592 224.555 83.1492 223.004C81.3962 223.49 79.6452 223.989 77.9002 224.515C66.4342 227.967 55.1642 232.28 44.1802 237.438Z" fill="#014B7C"/>
<path d="M220.127 235.582C226.933 238.03 233.643 240.841 240.227 244.016C243.511 245.595 247.428 244.935 249.728 242.33C251.164 240.689 252.621 239.062 254.082 237.437C243.097 232.279 231.827 227.966 220.362 224.513C218.617 223.988 216.867 223.488 215.113 223.003C215.003 224.554 214.902 226.107 214.778 227.655C214.516 231.117 216.735 234.359 220.127 235.582Z" fill="#014B7C"/>
<path d="M325.834 260.927V251.585H326.842V252.664H326.966C327.043 252.546 327.149 252.396 327.285 252.213C327.423 252.027 327.621 251.862 327.877 251.717C328.137 251.57 328.488 251.496 328.93 251.496C329.502 251.496 330.007 251.639 330.443 251.925C330.879 252.211 331.22 252.617 331.465 253.142C331.71 253.667 331.832 254.286 331.832 255C331.832 255.719 331.71 256.343 331.465 256.871C331.22 257.396 330.881 257.803 330.447 258.092C330.014 258.378 329.514 258.521 328.948 258.521C328.511 258.521 328.162 258.448 327.899 258.304C327.637 258.156 327.435 257.99 327.293 257.804C327.152 257.615 327.043 257.459 326.966 257.335H326.878V260.927H325.834ZM326.86 254.982C326.86 255.495 326.935 255.948 327.086 256.34C327.236 256.729 327.456 257.034 327.745 257.256C328.034 257.474 328.388 257.583 328.806 257.583C329.243 257.583 329.607 257.468 329.899 257.238C330.194 257.005 330.415 256.692 330.562 256.3C330.713 255.905 330.788 255.465 330.788 254.982C330.788 254.504 330.714 254.074 330.567 253.69C330.422 253.304 330.203 252.999 329.908 252.774C329.616 252.547 329.249 252.434 328.806 252.434C328.382 252.434 328.025 252.541 327.736 252.757C327.447 252.969 327.229 253.267 327.081 253.65C326.934 254.031 326.86 254.475 326.86 254.982ZM334.468 254.292V258.379H333.425V249.32H334.468V252.646H334.557C334.716 252.295 334.955 252.017 335.274 251.81C335.595 251.601 336.023 251.496 336.556 251.496C337.019 251.496 337.425 251.589 337.773 251.775C338.121 251.958 338.391 252.239 338.582 252.62C338.777 252.997 338.874 253.478 338.874 254.062V258.379H337.83V254.133C337.83 253.593 337.69 253.176 337.41 252.881C337.133 252.583 336.748 252.434 336.256 252.434C335.914 252.434 335.607 252.506 335.336 252.651C335.067 252.795 334.855 253.006 334.699 253.283C334.545 253.56 334.468 253.897 334.468 254.292ZM343.545 258.521C342.931 258.521 342.393 258.375 341.93 258.083C341.47 257.791 341.11 257.382 340.851 256.857C340.594 256.333 340.466 255.719 340.466 255.017C340.466 254.309 340.594 253.692 340.851 253.164C341.11 252.636 341.47 252.226 341.93 251.934C342.393 251.642 342.931 251.496 343.545 251.496C344.158 251.496 344.695 251.642 345.155 251.934C345.618 252.226 345.978 252.636 346.234 253.164C346.494 253.692 346.623 254.309 346.623 255.017C346.623 255.719 346.494 256.333 346.234 256.857C345.978 257.382 345.618 257.791 345.155 258.083C344.695 258.375 344.158 258.521 343.545 258.521ZM343.545 257.583C344.011 257.583 344.394 257.463 344.695 257.225C344.996 256.986 345.218 256.672 345.363 256.282C345.507 255.893 345.579 255.471 345.579 255.017C345.579 254.563 345.507 254.14 345.363 253.748C345.218 253.355 344.996 253.038 344.695 252.797C344.394 252.555 344.011 252.434 343.545 252.434C343.079 252.434 342.695 252.555 342.394 252.797C342.094 253.038 341.871 253.355 341.726 253.748C341.582 254.14 341.51 254.563 341.51 255.017C341.51 255.471 341.582 255.893 341.726 256.282C341.871 256.672 342.094 256.986 342.394 257.225C342.695 257.463 343.079 257.583 343.545 257.583ZM349.261 254.292V258.379H348.217V251.585H349.226V252.646H349.314C349.473 252.301 349.715 252.024 350.039 251.815C350.364 251.602 350.783 251.496 351.296 251.496C351.756 251.496 352.158 251.59 352.503 251.779C352.848 251.965 353.117 252.248 353.309 252.628C353.5 253.006 353.596 253.484 353.596 254.062V258.379H352.552V254.133C352.552 253.599 352.413 253.183 352.136 252.885C351.859 252.584 351.479 252.434 350.995 252.434C350.662 252.434 350.364 252.506 350.101 252.651C349.842 252.795 349.637 253.006 349.487 253.283C349.336 253.56 349.261 253.897 349.261 254.292ZM358.353 258.521C357.698 258.521 357.133 258.376 356.658 258.087C356.186 257.795 355.822 257.388 355.566 256.866C355.312 256.341 355.185 255.731 355.185 255.035C355.185 254.339 355.312 253.726 355.566 253.195C355.822 252.661 356.179 252.245 356.636 251.947C357.096 251.646 357.633 251.496 358.246 251.496C358.6 251.496 358.95 251.555 359.295 251.673C359.64 251.791 359.954 251.983 360.237 252.248C360.52 252.511 360.746 252.859 360.914 253.292C361.082 253.726 361.166 254.259 361.166 254.893V255.336H355.928V254.433H360.104C360.104 254.05 360.028 253.708 359.874 253.407C359.724 253.106 359.509 252.869 359.228 252.695C358.951 252.521 358.624 252.434 358.246 252.434C357.831 252.434 357.471 252.537 357.167 252.744C356.866 252.947 356.635 253.212 356.472 253.54C356.31 253.867 356.229 254.218 356.229 254.593V255.194C356.229 255.707 356.318 256.142 356.495 256.499C356.674 256.853 356.924 257.123 357.242 257.309C357.561 257.491 357.931 257.583 358.353 257.583C358.627 257.583 358.874 257.545 359.096 257.468C359.32 257.388 359.513 257.27 359.675 257.114C359.837 256.955 359.963 256.757 360.051 256.521L361.06 256.804C360.954 257.146 360.775 257.447 360.524 257.707C360.274 257.963 359.964 258.164 359.596 258.308C359.227 258.45 358.813 258.521 358.353 258.521ZM367.301 254.292V258.379H366.257V251.585H367.266V252.646H367.354C367.514 252.301 367.756 252.024 368.08 251.815C368.404 251.602 368.823 251.496 369.336 251.496C369.796 251.496 370.199 251.59 370.544 251.779C370.889 251.965 371.157 252.248 371.349 252.628C371.541 253.006 371.637 253.484 371.637 254.062V258.379H370.593V254.133C370.593 253.599 370.454 253.183 370.177 252.885C369.9 252.584 369.519 252.434 369.035 252.434C368.702 252.434 368.404 252.506 368.142 252.651C367.882 252.795 367.677 253.006 367.527 253.283C367.377 253.56 367.301 253.897 367.301 254.292ZM377.826 255.601V251.585H378.87V258.379H377.826V257.229H377.755C377.596 257.574 377.348 257.867 377.012 258.109C376.676 258.348 376.251 258.468 375.738 258.468C375.314 258.468 374.936 258.375 374.606 258.189C374.276 258 374.016 257.717 373.827 257.34C373.639 256.959 373.544 256.48 373.544 255.902V251.585H374.588V255.831C374.588 256.327 374.727 256.722 375.004 257.017C375.284 257.312 375.641 257.459 376.074 257.459C376.334 257.459 376.598 257.393 376.866 257.26C377.138 257.127 377.365 256.924 377.548 256.65C377.733 256.375 377.826 256.026 377.826 255.601ZM380.782 258.379V251.585H381.791V252.646H381.879C382.021 252.283 382.249 252.002 382.565 251.801C382.881 251.598 383.259 251.496 383.702 251.496C384.15 251.496 384.523 251.598 384.821 251.801C385.122 252.002 385.356 252.283 385.524 252.646H385.595C385.769 252.295 386.03 252.017 386.378 251.81C386.726 251.601 387.143 251.496 387.63 251.496C388.237 251.496 388.734 251.686 389.121 252.067C389.507 252.444 389.7 253.033 389.7 253.832V258.379H388.656V253.832C388.656 253.33 388.519 252.972 388.245 252.757C387.971 252.541 387.648 252.434 387.276 252.434C386.798 252.434 386.428 252.578 386.166 252.867C385.903 253.153 385.772 253.516 385.772 253.956V258.379H384.71V253.726C384.71 253.339 384.585 253.028 384.334 252.792C384.084 252.553 383.761 252.434 383.366 252.434C383.094 252.434 382.841 252.506 382.605 252.651C382.372 252.795 382.183 252.996 382.039 253.252C381.897 253.506 381.826 253.799 381.826 254.133V258.379H380.782ZM391.751 258.379V249.32H392.795V252.664H392.883C392.96 252.546 393.066 252.396 393.201 252.213C393.34 252.027 393.538 251.862 393.794 251.717C394.054 251.57 394.405 251.496 394.847 251.496C395.419 251.496 395.923 251.639 396.36 251.925C396.796 252.211 397.137 252.617 397.382 253.142C397.627 253.667 397.749 254.286 397.749 255C397.749 255.719 397.627 256.343 397.382 256.871C397.137 257.396 396.798 257.803 396.364 258.092C395.931 258.378 395.431 258.521 394.865 258.521C394.428 258.521 394.079 258.448 393.816 258.304C393.554 258.156 393.352 257.99 393.21 257.804C393.069 257.615 392.96 257.459 392.883 257.335H392.759V258.379H391.751ZM392.777 254.982C392.777 255.495 392.852 255.948 393.002 256.34C393.153 256.729 393.373 257.034 393.662 257.256C393.951 257.474 394.304 257.583 394.723 257.583C395.16 257.583 395.524 257.468 395.816 257.238C396.111 257.005 396.332 256.692 396.479 256.3C396.63 255.905 396.705 255.465 396.705 254.982C396.705 254.504 396.631 254.074 396.484 253.69C396.339 253.304 396.12 252.999 395.825 252.774C395.533 252.547 395.166 252.434 394.723 252.434C394.299 252.434 393.942 252.541 393.653 252.757C393.364 252.969 393.145 253.267 392.998 253.65C392.851 254.031 392.777 254.475 392.777 254.982ZM402.195 258.521C401.54 258.521 400.975 258.376 400.5 258.087C400.029 257.795 399.664 257.388 399.408 256.866C399.154 256.341 399.027 255.731 399.027 255.035C399.027 254.339 399.154 253.726 399.408 253.195C399.664 252.661 400.021 252.245 400.478 251.947C400.938 251.646 401.475 251.496 402.088 251.496C402.442 251.496 402.792 251.555 403.137 251.673C403.482 251.791 403.796 251.983 404.079 252.248C404.362 252.511 404.588 252.859 404.756 253.292C404.924 253.726 405.008 254.259 405.008 254.893V255.336H399.77V254.433H403.946C403.946 254.05 403.87 253.708 403.716 253.407C403.566 253.106 403.351 252.869 403.07 252.695C402.793 252.521 402.466 252.434 402.088 252.434C401.673 252.434 401.313 252.537 401.009 252.744C400.708 252.947 400.477 253.212 400.315 253.54C400.152 253.867 400.071 254.218 400.071 254.593V255.194C400.071 255.707 400.16 256.142 400.337 256.499C400.517 256.853 400.766 257.123 401.084 257.309C401.403 257.491 401.773 257.583 402.195 257.583C402.469 257.583 402.717 257.545 402.938 257.468C403.162 257.388 403.355 257.27 403.517 257.114C403.679 256.955 403.805 256.757 403.893 256.521L404.902 256.804C404.796 257.146 404.617 257.447 404.367 257.707C404.116 257.963 403.806 258.164 403.438 258.308C403.069 258.45 402.655 258.521 402.195 258.521ZM406.596 258.379V251.585H407.605V252.611H407.675C407.799 252.275 408.023 252.002 408.348 251.792C408.672 251.583 409.038 251.478 409.445 251.478C409.522 251.478 409.617 251.48 409.732 251.483C409.847 251.486 409.934 251.49 409.993 251.496V252.558C409.958 252.549 409.877 252.536 409.75 252.518C409.626 252.497 409.495 252.487 409.356 252.487C409.026 252.487 408.731 252.556 408.472 252.695C408.215 252.831 408.012 253.019 407.861 253.261C407.714 253.5 407.64 253.773 407.64 254.079V258.379H406.596Z" fill="#28B0CD"/>
<path d="M324.547 210.507V203.713H325.591V210.507H324.547ZM325.077 202.58C324.874 202.58 324.698 202.511 324.551 202.372C324.406 202.234 324.334 202.067 324.334 201.872C324.334 201.678 324.406 201.511 324.551 201.372C324.698 201.234 324.874 201.165 325.077 201.165C325.281 201.165 325.455 201.234 325.599 201.372C325.747 201.511 325.821 201.678 325.821 201.872C325.821 202.067 325.747 202.234 325.599 202.372C325.455 202.511 325.281 202.58 325.077 202.58ZM328.547 206.42V210.507H327.503V203.713H328.511V204.774H328.6C328.759 204.429 329.001 204.152 329.325 203.943C329.65 203.73 330.068 203.624 330.581 203.624C331.041 203.624 331.444 203.718 331.789 203.907C332.134 204.093 332.402 204.376 332.594 204.756C332.786 205.134 332.882 205.612 332.882 206.19V210.507H331.838V206.261C331.838 205.727 331.699 205.311 331.422 205.013C331.145 204.712 330.764 204.562 330.281 204.562C329.947 204.562 329.65 204.634 329.387 204.779C329.128 204.923 328.923 205.134 328.772 205.411C328.622 205.688 328.547 206.025 328.547 206.42ZM337.815 203.713V204.597H334.152V203.713H337.815ZM335.249 210.507V202.775C335.249 202.385 335.341 202.061 335.524 201.802C335.707 201.542 335.944 201.347 336.236 201.218C336.528 201.088 336.836 201.023 337.16 201.023C337.417 201.023 337.626 201.044 337.789 201.085C337.951 201.126 338.072 201.165 338.151 201.2L337.85 202.102C337.797 202.085 337.724 202.063 337.629 202.036C337.538 202.009 337.417 201.996 337.267 201.996C336.922 201.996 336.672 202.083 336.519 202.257C336.369 202.431 336.293 202.686 336.293 203.022V210.507H335.249ZM341.759 210.649C341.145 210.649 340.607 210.503 340.144 210.211C339.684 209.919 339.324 209.51 339.065 208.985C338.808 208.46 338.68 207.847 338.68 207.145C338.68 206.437 338.808 205.82 339.065 205.292C339.324 204.764 339.684 204.354 340.144 204.062C340.607 203.77 341.145 203.624 341.759 203.624C342.372 203.624 342.909 203.77 343.369 204.062C343.832 204.354 344.192 204.764 344.448 205.292C344.708 205.82 344.838 206.437 344.838 207.145C344.838 207.847 344.708 208.46 344.448 208.985C344.192 209.51 343.832 209.919 343.369 210.211C342.909 210.503 342.372 210.649 341.759 210.649ZM341.759 209.711C342.225 209.711 342.608 209.591 342.909 209.353C343.21 209.114 343.432 208.8 343.577 208.41C343.721 208.021 343.794 207.599 343.794 207.145C343.794 206.691 343.721 206.268 343.577 205.876C343.432 205.483 343.21 205.166 342.909 204.925C342.608 204.683 342.225 204.562 341.759 204.562C341.293 204.562 340.909 204.683 340.609 204.925C340.308 205.166 340.085 205.483 339.941 205.876C339.796 206.268 339.724 206.691 339.724 207.145C339.724 207.599 339.796 208.021 339.941 208.41C340.085 208.8 340.308 209.114 340.609 209.353C340.909 209.591 341.293 209.711 341.759 209.711ZM351.651 212.896C350.749 212.896 349.951 212.772 349.258 212.524C348.565 212.28 347.982 211.918 347.51 211.441C347.039 210.963 346.682 210.377 346.44 209.684C346.198 208.991 346.077 208.198 346.077 207.304C346.077 206.44 346.2 205.668 346.444 204.987C346.692 204.305 347.05 203.727 347.519 203.252C347.991 202.775 348.563 202.411 349.236 202.16C349.911 201.909 350.675 201.784 351.527 201.784C352.356 201.784 353.081 201.919 353.703 202.191C354.329 202.459 354.851 202.823 355.269 203.283C355.691 203.741 356.007 204.255 356.216 204.827C356.428 205.399 356.535 205.989 356.535 206.597C356.535 207.024 356.514 207.458 356.473 207.897C356.431 208.337 356.344 208.741 356.212 209.109C356.079 209.475 355.874 209.77 355.597 209.994C355.323 210.218 354.951 210.33 354.482 210.33C354.276 210.33 354.049 210.298 353.801 210.233C353.553 210.168 353.333 210.06 353.142 209.91C352.95 209.76 352.836 209.558 352.801 209.304H352.748C352.677 209.475 352.568 209.637 352.421 209.791C352.276 209.944 352.086 210.066 351.85 210.158C351.617 210.249 351.332 210.289 350.996 210.277C350.613 210.262 350.275 210.177 349.983 210.021C349.691 209.861 349.447 209.646 349.249 209.375C349.054 209.1 348.907 208.783 348.807 208.424C348.709 208.061 348.661 207.67 348.661 207.251C348.661 206.853 348.72 206.489 348.838 206.159C348.956 205.828 349.119 205.539 349.329 205.292C349.541 205.044 349.789 204.846 350.072 204.699C350.358 204.549 350.666 204.456 350.996 204.42C351.291 204.391 351.56 204.404 351.801 204.46C352.043 204.513 352.242 204.594 352.399 204.703C352.555 204.81 352.654 204.928 352.695 205.057H352.748V204.562H353.686V208.561C353.686 208.808 353.755 209.027 353.894 209.215C354.032 209.404 354.234 209.499 354.5 209.499C354.801 209.499 355.031 209.395 355.19 209.189C355.352 208.982 355.463 208.664 355.522 208.233C355.583 207.803 355.614 207.251 355.614 206.579C355.614 206.184 355.56 205.795 355.451 205.411C355.345 205.025 355.182 204.664 354.964 204.327C354.749 203.991 354.476 203.695 354.146 203.438C353.816 203.182 353.428 202.981 352.982 202.837C352.54 202.689 352.037 202.615 351.474 202.615C350.781 202.615 350.16 202.723 349.612 202.938C349.066 203.151 348.602 203.462 348.218 203.872C347.838 204.279 347.547 204.774 347.347 205.358C347.149 205.939 347.05 206.6 347.05 207.34C347.05 208.092 347.149 208.76 347.347 209.344C347.547 209.928 347.842 210.42 348.232 210.821C348.624 211.222 349.109 211.526 349.687 211.732C350.265 211.942 350.931 212.047 351.686 212.047C352.011 212.047 352.331 212.016 352.646 211.954C352.962 211.892 353.24 211.824 353.482 211.75C353.724 211.676 353.898 211.622 354.004 211.586L354.252 212.4C354.069 212.477 353.83 212.554 353.535 212.63C353.243 212.707 352.931 212.771 352.598 212.821C352.267 212.871 351.952 212.896 351.651 212.896ZM351.138 209.375C351.533 209.375 351.853 209.295 352.098 209.136C352.342 208.977 352.521 208.736 352.633 208.415C352.745 208.093 352.801 207.688 352.801 207.198C352.801 206.703 352.739 206.317 352.615 206.039C352.491 205.762 352.309 205.567 352.067 205.455C351.825 205.343 351.527 205.287 351.173 205.287C350.837 205.287 350.549 205.376 350.311 205.553C350.075 205.727 349.893 205.96 349.766 206.252C349.643 206.541 349.581 206.856 349.581 207.198C349.581 207.576 349.631 207.931 349.731 208.264C349.831 208.595 349.995 208.863 350.222 209.069C350.449 209.273 350.754 209.375 351.138 209.375ZM358.097 210.507V203.713H359.106V204.739H359.177C359.3 204.403 359.525 204.13 359.849 203.92C360.173 203.711 360.539 203.606 360.946 203.606C361.023 203.606 361.119 203.608 361.234 203.611C361.349 203.614 361.436 203.618 361.495 203.624V204.686C361.459 204.677 361.378 204.664 361.251 204.646C361.127 204.625 360.996 204.615 360.858 204.615C360.527 204.615 360.232 204.684 359.973 204.823C359.716 204.958 359.513 205.147 359.362 205.389C359.215 205.628 359.141 205.901 359.141 206.207V210.507H358.097ZM364.731 210.666C364.301 210.666 363.91 210.585 363.559 210.423C363.208 210.258 362.93 210.021 362.723 209.711C362.517 209.398 362.414 209.021 362.414 208.578C362.414 208.189 362.49 207.874 362.644 207.632C362.797 207.387 363.002 207.195 363.258 207.057C363.515 206.918 363.798 206.815 364.108 206.747C364.42 206.676 364.734 206.62 365.05 206.579C365.463 206.526 365.798 206.486 366.054 206.46C366.314 206.43 366.502 206.381 366.62 206.314C366.741 206.246 366.802 206.128 366.802 205.96V205.924C366.802 205.488 366.682 205.149 366.443 204.907C366.207 204.665 365.849 204.544 365.368 204.544C364.87 204.544 364.479 204.653 364.196 204.872C363.913 205.09 363.714 205.323 363.599 205.57L362.608 205.217C362.785 204.804 363.021 204.482 363.316 204.252C363.614 204.019 363.938 203.857 364.289 203.766C364.643 203.671 364.991 203.624 365.333 203.624C365.551 203.624 365.802 203.651 366.085 203.704C366.371 203.754 366.647 203.859 366.912 204.018C367.181 204.177 367.403 204.417 367.58 204.739C367.757 205.06 367.846 205.491 367.846 206.03V210.507H366.802V209.587H366.749C366.678 209.734 366.56 209.892 366.395 210.06C366.23 210.228 366.01 210.371 365.736 210.489C365.461 210.607 365.127 210.666 364.731 210.666ZM364.891 209.729C365.304 209.729 365.652 209.647 365.935 209.485C366.221 209.323 366.436 209.114 366.581 208.857C366.728 208.601 366.802 208.331 366.802 208.048V207.092C366.757 207.145 366.66 207.194 366.51 207.238C366.362 207.279 366.191 207.316 365.997 207.349C365.805 207.378 365.618 207.405 365.435 207.428C365.255 207.449 365.109 207.467 364.997 207.481C364.726 207.517 364.472 207.574 364.236 207.654C364.003 207.731 363.814 207.847 363.67 208.003C363.528 208.157 363.457 208.366 363.457 208.632C363.457 208.994 363.592 209.269 363.86 209.454C364.131 209.637 364.475 209.729 364.891 209.729ZM370.795 206.42V210.507H369.751V203.713H370.76V204.774H370.848C371.007 204.429 371.249 204.152 371.574 203.943C371.898 203.73 372.317 203.624 372.83 203.624C373.29 203.624 373.693 203.718 374.038 203.907C374.383 204.093 374.651 204.376 374.843 204.756C375.034 205.134 375.13 205.612 375.13 206.19V210.507H374.086V206.261C374.086 205.727 373.948 205.311 373.67 205.013C373.393 204.712 373.013 204.562 372.529 204.562C372.196 204.562 371.898 204.634 371.636 204.779C371.376 204.923 371.171 205.134 371.021 205.411C370.87 205.688 370.795 206.025 370.795 206.42ZM378.011 208.03L377.993 206.738H378.206L381.178 203.713H382.47L379.303 206.915H379.214L378.011 208.03ZM377.038 210.507V201.448H378.082V210.507H377.038ZM381.355 210.507L378.701 207.145L379.444 206.42L382.682 210.507H381.355ZM383.814 210.507V203.713H384.822V204.739H384.893C385.017 204.403 385.241 204.13 385.565 203.92C385.89 203.711 386.255 203.606 386.662 203.606C386.739 203.606 386.835 203.608 386.95 203.611C387.065 203.614 387.152 203.618 387.211 203.624V204.686C387.176 204.677 387.094 204.664 386.968 204.646C386.844 204.625 386.713 204.615 386.574 204.615C386.244 204.615 385.949 204.684 385.689 204.823C385.433 204.958 385.229 205.147 385.079 205.389C384.931 205.628 384.858 205.901 384.858 206.207V210.507H383.814ZM388.448 210.507V203.713H389.492V210.507H388.448ZM388.979 202.58C388.776 202.58 388.6 202.511 388.453 202.372C388.308 202.234 388.236 202.067 388.236 201.872C388.236 201.678 388.308 201.511 388.453 201.372C388.6 201.234 388.776 201.165 388.979 201.165C389.183 201.165 389.357 201.234 389.501 201.372C389.649 201.511 389.722 201.678 389.722 201.872C389.722 202.067 389.649 202.234 389.501 202.372C389.357 202.511 389.183 202.58 388.979 202.58ZM391.21 210.507V209.711L395.067 204.756V204.686H391.334V203.713H396.412V204.544L392.661 209.463V209.534H396.536V210.507H391.21ZM397.949 210.507V209.711L401.807 204.756V204.686H398.073V203.713H403.151V204.544L399.4 209.463V209.534H403.275V210.507H397.949ZM405.644 210.578C405.426 210.578 405.239 210.5 405.082 210.343C404.926 210.187 404.848 210 404.848 209.782C404.848 209.563 404.926 209.376 405.082 209.22C405.239 209.064 405.426 208.985 405.644 208.985C405.862 208.985 406.05 209.064 406.206 209.22C406.362 209.376 406.44 209.563 406.44 209.782C406.44 209.926 406.403 210.059 406.33 210.18C406.259 210.301 406.163 210.398 406.042 210.472C405.924 210.543 405.791 210.578 405.644 210.578ZM411.074 210.649C410.437 210.649 409.888 210.498 409.428 210.197C408.968 209.897 408.614 209.482 408.367 208.954C408.119 208.427 407.995 207.824 407.995 207.145C407.995 206.455 408.122 205.846 408.376 205.318C408.632 204.787 408.989 204.373 409.446 204.075C409.906 203.774 410.443 203.624 411.056 203.624C411.534 203.624 411.965 203.713 412.348 203.889C412.731 204.066 413.045 204.314 413.29 204.633C413.535 204.951 413.687 205.323 413.746 205.747H412.702C412.622 205.438 412.445 205.163 412.171 204.925C411.9 204.683 411.534 204.562 411.074 204.562C410.667 204.562 410.31 204.668 410.003 204.88C409.7 205.09 409.462 205.386 409.291 205.769C409.123 206.15 409.039 206.597 409.039 207.11C409.039 207.635 409.122 208.092 409.287 208.481C409.455 208.87 409.691 209.173 409.995 209.388C410.301 209.603 410.661 209.711 411.074 209.711C411.345 209.711 411.592 209.664 411.813 209.569C412.034 209.475 412.221 209.339 412.375 209.162C412.528 208.985 412.637 208.773 412.702 208.525H413.746C413.687 208.926 413.541 209.288 413.308 209.609C413.078 209.928 412.773 210.181 412.392 210.37C412.015 210.556 411.575 210.649 411.074 210.649ZM418.032 210.649C417.419 210.649 416.881 210.503 416.418 210.211C415.958 209.919 415.598 209.51 415.338 208.985C415.082 208.46 414.953 207.847 414.953 207.145C414.953 206.437 415.082 205.82 415.338 205.292C415.598 204.764 415.958 204.354 416.418 204.062C416.881 203.77 417.419 203.624 418.032 203.624C418.646 203.624 419.182 203.77 419.642 204.062C420.105 204.354 420.465 204.764 420.722 205.292C420.981 205.82 421.111 206.437 421.111 207.145C421.111 207.847 420.981 208.46 420.722 208.985C420.465 209.51 420.105 209.919 419.642 210.211C419.182 210.503 418.646 210.649 418.032 210.649ZM418.032 209.711C418.498 209.711 418.882 209.591 419.182 209.353C419.483 209.114 419.706 208.8 419.85 208.41C419.995 208.021 420.067 207.599 420.067 207.145C420.067 206.691 419.995 206.268 419.85 205.876C419.706 205.483 419.483 205.166 419.182 204.925C418.882 204.683 418.498 204.562 418.032 204.562C417.566 204.562 417.183 204.683 416.882 204.925C416.581 205.166 416.359 205.483 416.214 205.876C416.07 206.268 415.997 206.691 415.997 207.145C415.997 207.599 416.07 208.021 416.214 208.41C416.359 208.8 416.581 209.114 416.882 209.353C417.183 209.591 417.566 209.711 418.032 209.711ZM422.705 210.507V203.713H423.713V204.774H423.802C423.943 204.411 424.172 204.13 424.487 203.929C424.803 203.726 425.182 203.624 425.624 203.624C426.073 203.624 426.446 203.726 426.743 203.929C427.044 204.13 427.279 204.411 427.447 204.774H427.518C427.692 204.423 427.953 204.145 428.301 203.938C428.649 203.729 429.066 203.624 429.552 203.624C430.16 203.624 430.657 203.814 431.043 204.195C431.429 204.572 431.623 205.161 431.623 205.96V210.507H430.579V205.96C430.579 205.458 430.442 205.1 430.167 204.885C429.893 204.669 429.57 204.562 429.198 204.562C428.721 204.562 428.351 204.706 428.088 204.995C427.826 205.281 427.694 205.644 427.694 206.084V210.507H426.633V205.854C426.633 205.467 426.507 205.156 426.257 204.92C426.006 204.681 425.683 204.562 425.288 204.562C425.017 204.562 424.763 204.634 424.527 204.779C424.294 204.923 424.105 205.124 423.961 205.38C423.819 205.634 423.749 205.927 423.749 206.261V210.507H422.705Z" fill="#28B0CD"/>
<path d="M326.193 295.728V304.787H325.149V295.728H326.193ZM330.865 304.929C330.252 304.929 329.714 304.783 329.251 304.491C328.791 304.199 328.431 303.791 328.171 303.266C327.915 302.741 327.786 302.127 327.786 301.425C327.786 300.718 327.915 300.1 328.171 299.572C328.431 299.044 328.791 298.634 329.251 298.342C329.714 298.05 330.252 297.904 330.865 297.904C331.479 297.904 332.015 298.05 332.475 298.342C332.938 298.634 333.298 299.044 333.555 299.572C333.814 300.1 333.944 300.718 333.944 301.425C333.944 302.127 333.814 302.741 333.555 303.266C333.298 303.791 332.938 304.199 332.475 304.491C332.015 304.783 331.479 304.929 330.865 304.929ZM330.865 303.991C331.331 303.991 331.715 303.872 332.015 303.633C332.316 303.394 332.539 303.08 332.683 302.691C332.828 302.301 332.9 301.88 332.9 301.425C332.9 300.971 332.828 300.548 332.683 300.156C332.539 299.764 332.316 299.447 332.015 299.205C331.715 298.963 331.331 298.842 330.865 298.842C330.399 298.842 330.016 298.963 329.715 299.205C329.414 299.447 329.192 299.764 329.047 300.156C328.903 300.548 328.83 300.971 328.83 301.425C328.83 301.88 328.903 302.301 329.047 302.691C329.192 303.08 329.414 303.394 329.715 303.633C330.016 303.872 330.399 303.991 330.865 303.991ZM338.298 304.929C337.661 304.929 337.112 304.779 336.652 304.478C336.192 304.177 335.838 303.763 335.591 303.235C335.343 302.707 335.219 302.104 335.219 301.425C335.219 300.735 335.346 300.126 335.6 299.598C335.856 299.068 336.213 298.653 336.67 298.355C337.13 298.055 337.667 297.904 338.28 297.904C338.758 297.904 339.189 297.993 339.572 298.17C339.955 298.347 340.269 298.594 340.514 298.913C340.759 299.231 340.911 299.603 340.97 300.028H339.926C339.846 299.718 339.669 299.444 339.395 299.205C339.124 298.963 338.758 298.842 338.298 298.842C337.891 298.842 337.534 298.948 337.227 299.161C336.924 299.37 336.686 299.666 336.515 300.05C336.347 300.43 336.263 300.877 336.263 301.39C336.263 301.915 336.346 302.372 336.511 302.761C336.679 303.151 336.915 303.453 337.219 303.668C337.525 303.883 337.885 303.991 338.298 303.991C338.569 303.991 338.816 303.944 339.037 303.85C339.258 303.755 339.445 303.62 339.598 303.443C339.752 303.266 339.861 303.053 339.926 302.806H340.97C340.911 303.207 340.765 303.568 340.532 303.889C340.302 304.208 339.997 304.461 339.616 304.65C339.239 304.836 338.799 304.929 338.298 304.929ZM344.495 304.947C344.065 304.947 343.674 304.866 343.323 304.703C342.972 304.538 342.694 304.301 342.487 303.991C342.281 303.679 342.177 303.301 342.177 302.859C342.177 302.469 342.254 302.154 342.407 301.912C342.561 301.667 342.766 301.476 343.022 301.337C343.279 301.198 343.562 301.095 343.872 301.027C344.184 300.957 344.498 300.901 344.814 300.859C345.227 300.806 345.561 300.766 345.818 300.74C346.078 300.71 346.266 300.662 346.384 300.594C346.505 300.526 346.566 300.408 346.566 300.24V300.205C346.566 299.768 346.446 299.429 346.207 299.187C345.971 298.945 345.613 298.824 345.132 298.824C344.634 298.824 344.243 298.933 343.96 299.152C343.677 299.37 343.478 299.603 343.363 299.851L342.372 299.497C342.549 299.084 342.785 298.762 343.08 298.532C343.378 298.299 343.702 298.137 344.053 298.046C344.407 297.951 344.755 297.904 345.097 297.904C345.315 297.904 345.566 297.931 345.849 297.984C346.135 298.034 346.411 298.139 346.676 298.298C346.945 298.457 347.167 298.698 347.344 299.019C347.521 299.34 347.61 299.771 347.61 300.311V304.787H346.566V303.867H346.513C346.442 304.015 346.324 304.172 346.159 304.341C345.993 304.509 345.774 304.652 345.5 304.77C345.225 304.888 344.891 304.947 344.495 304.947ZM344.655 304.009C345.067 304.009 345.415 303.928 345.699 303.766C345.985 303.603 346.2 303.394 346.344 303.137C346.492 302.881 346.566 302.611 346.566 302.328V301.372C346.521 301.425 346.424 301.474 346.274 301.518C346.126 301.56 345.955 301.596 345.761 301.629C345.569 301.658 345.382 301.685 345.199 301.709C345.019 301.729 344.873 301.747 344.761 301.762C344.489 301.797 344.236 301.855 344 301.934C343.767 302.011 343.578 302.127 343.434 302.284C343.292 302.437 343.221 302.646 343.221 302.912C343.221 303.274 343.356 303.549 343.624 303.735C343.895 303.917 344.239 304.009 344.655 304.009ZM352.47 297.993V298.877H348.949V297.993H352.47ZM349.975 296.365H351.019V302.841C351.019 303.136 351.062 303.357 351.147 303.505C351.236 303.649 351.348 303.746 351.484 303.796C351.622 303.844 351.768 303.867 351.921 303.867C352.036 303.867 352.131 303.861 352.205 303.85C352.278 303.835 352.337 303.823 352.382 303.814L352.594 304.752C352.523 304.779 352.424 304.805 352.297 304.832C352.171 304.861 352.01 304.876 351.815 304.876C351.52 304.876 351.231 304.812 350.948 304.686C350.668 304.559 350.435 304.366 350.249 304.106C350.067 303.847 349.975 303.519 349.975 303.124V296.365ZM354.04 304.787V297.993H355.084V304.787H354.04ZM354.571 296.86C354.368 296.86 354.192 296.791 354.045 296.652C353.9 296.514 353.828 296.347 353.828 296.153C353.828 295.958 353.9 295.791 354.045 295.653C354.192 295.514 354.368 295.445 354.571 295.445C354.775 295.445 354.949 295.514 355.093 295.653C355.241 295.791 355.314 295.958 355.314 296.153C355.314 296.347 355.241 296.514 355.093 296.652C354.949 296.791 354.775 296.86 354.571 296.86ZM359.757 304.929C359.143 304.929 358.605 304.783 358.142 304.491C357.682 304.199 357.322 303.791 357.063 303.266C356.806 302.741 356.678 302.127 356.678 301.425C356.678 300.718 356.806 300.1 357.063 299.572C357.322 299.044 357.682 298.634 358.142 298.342C358.605 298.05 359.143 297.904 359.757 297.904C360.37 297.904 360.907 298.05 361.367 298.342C361.83 298.634 362.19 299.044 362.446 299.572C362.706 300.1 362.836 300.718 362.836 301.425C362.836 302.127 362.706 302.741 362.446 303.266C362.19 303.791 361.83 304.199 361.367 304.491C360.907 304.783 360.37 304.929 359.757 304.929ZM359.757 303.991C360.223 303.991 360.606 303.872 360.907 303.633C361.208 303.394 361.43 303.08 361.575 302.691C361.719 302.301 361.792 301.88 361.792 301.425C361.792 300.971 361.719 300.548 361.575 300.156C361.43 299.764 361.208 299.447 360.907 299.205C360.606 298.963 360.223 298.842 359.757 298.842C359.291 298.842 358.907 298.963 358.607 299.205C358.306 299.447 358.083 299.764 357.939 300.156C357.794 300.548 357.722 300.971 357.722 301.425C357.722 301.88 357.794 302.301 357.939 302.691C358.083 303.08 358.306 303.394 358.607 303.633C358.907 303.872 359.291 303.991 359.757 303.991ZM365.473 300.7V304.787H364.429V297.993H365.438V299.054H365.526C365.685 298.709 365.927 298.432 366.252 298.223C366.576 298.01 366.995 297.904 367.508 297.904C367.968 297.904 368.371 297.999 368.716 298.187C369.061 298.373 369.329 298.656 369.521 299.037C369.712 299.414 369.808 299.892 369.808 300.47V304.787H368.764V300.541C368.764 300.007 368.626 299.591 368.348 299.293C368.071 298.992 367.691 298.842 367.207 298.842C366.874 298.842 366.576 298.914 366.314 299.059C366.054 299.203 365.849 299.414 365.699 299.691C365.548 299.969 365.473 300.305 365.473 300.7Z" fill="#28B0CD"/>
<path d="M295.795 225.247C305.695 225.247 313.72 217.222 313.72 207.322C313.72 197.422 305.695 189.397 295.795 189.397C285.895 189.397 277.87 197.422 277.87 207.322C277.87 217.222 285.895 225.247 295.795 225.247Z" fill="#28B0CD"/>
<path d="M299.271 210.644C297.446 212.568 294.404 212.626 292.48 210.801C291.518 209.898 290.988 208.623 290.988 207.308C290.988 204.658 293.147 202.499 295.797 202.499C298.447 202.499 300.606 204.658 300.606 207.308V208.741C300.606 209.546 301.254 210.174 302.039 210.174C302.844 210.174 303.472 209.526 303.472 208.741V207.308C303.472 203.069 300.018 199.614 295.778 199.614C291.538 199.614 288.084 203.068 288.084 207.308C288.084 211.547 291.538 215.002 295.778 215.002C296.779 215.002 297.78 214.806 298.722 214.413C299.193 214.177 299.782 214.354 300.017 214.845C300.253 215.336 300.076 215.905 299.585 216.14C299.546 216.16 299.506 216.179 299.448 216.199C294.541 218.24 288.908 215.905 286.887 210.998C284.865 206.091 287.181 200.458 292.088 198.437C296.995 196.415 302.628 198.731 304.649 203.638C305.179 204.796 305.434 206.052 305.434 207.308V208.741C305.434 210.606 303.942 212.117 302.078 212.117C300.959 212.136 299.899 211.567 299.271 210.644ZM295.816 210.193C297.406 210.193 298.701 208.898 298.701 207.308C298.701 205.718 297.406 204.423 295.816 204.423C294.226 204.423 292.931 205.718 292.931 207.308C292.931 208.897 294.227 210.193 295.816 210.193Z" fill="white"/>
<path opacity="0.2" d="M295.795 189.397C285.896 189.397 277.87 197.422 277.87 207.322C277.87 212.303 279.904 216.806 283.184 220.055L308.528 194.711C305.279 191.431 300.775 189.397 295.795 189.397Z" fill="#28B0CD"/>
<path d="M295.795 273.117C305.695 273.117 313.72 265.092 313.72 255.192C313.72 245.292 305.695 237.267 295.795 237.267C285.895 237.267 277.87 245.292 277.87 255.192C277.87 265.092 285.895 273.117 295.795 273.117Z" fill="#28B0CD"/>
<path d="M304.484 260.06C303.227 259.693 299.593 257.91 299.179 258.28C298.764 258.649 297.003 260.219 297.003 260.219C295.838 259.956 293.818 258.314 292.757 257.123C291.696 255.933 290.298 253.737 290.17 252.549C290.17 252.549 291.933 250.979 292.347 250.61C292.762 250.241 291.408 246.427 291.188 245.136C290.968 243.845 288.893 244.02 287.994 244.263C287.095 244.506 283.247 251.094 290.449 259.179C297.652 267.264 304.639 264.199 304.985 263.334C305.328 262.468 305.741 260.427 304.484 260.06Z" fill="white"/>
<path opacity="0.2" d="M295.795 237.268C285.896 237.268 277.87 245.293 277.87 255.193C277.87 260.037 279.8 264.425 282.923 267.651L308.253 242.321C305.027 239.198 300.639 237.268 295.795 237.268Z" fill="#28B0CD"/>
<path d="M308.466 314.277C315.466 307.276 315.466 295.927 308.466 288.927C301.466 281.927 290.117 281.927 283.116 288.927C276.116 295.927 276.116 307.276 283.116 314.277C290.116 321.277 301.466 321.277 308.466 314.277Z" fill="#28B0CD"/>
<path d="M295.845 289.443C291.156 289.443 287.365 293.234 287.365 297.923C287.365 302.512 291.156 308.697 294.448 313.087C295.146 313.985 296.443 313.985 297.141 313.087C300.433 308.698 304.224 302.512 304.224 297.923C304.225 293.234 300.434 289.443 295.845 289.443ZM295.795 303.082C293.028 303.082 290.785 300.839 290.785 298.072C290.785 295.305 293.028 293.062 295.795 293.062C298.562 293.062 300.805 295.305 300.805 298.072C300.805 300.839 298.562 303.082 295.795 303.082Z" fill="white"/>
<path opacity="0.2" d="M295.795 283.677C285.896 283.677 277.87 291.702 277.87 301.602C277.87 306.442 279.797 310.825 282.914 314.05L308.243 288.721C305.018 285.604 300.634 283.677 295.795 283.677Z" fill="#28B0CD"/>
</svg>
