<svg width="500" height="500" viewBox="0 0 500 500" fill="none" xmlns="http://www.w3.org/2000/svg">
<path d="M463.446 43.556H299.619V337.86H463.446V43.556Z" fill="#EBEBEB"/>
<path d="M455.213 52.091H306.166V329.093H455.213V52.091Z" fill="#FAFAFA"/>
<path d="M470.376 340.513L463.447 337.86V38.565H470.376V340.513Z" fill="#E0E0E0"/>
<path d="M342.705 231.019C355.608 219.026 368.51 207.033 381.413 195.041C386.318 190.482 392.729 185.571 399.037 187.818C402.072 188.899 404.355 191.489 407.328 192.728C413.271 195.204 420.059 191.63 424.629 187.095C429.198 182.56 432.805 176.887 438.34 173.6C443.875 170.312 452.477 170.73 455.213 176.557V215.715L398.959 239.8L342.705 231.019Z" fill="#F5F5F5"/>
<path d="M306.166 208.513C320.43 202.704 334.664 207.641 344.873 219.173C347.022 221.601 348.978 224.404 351.931 225.743C355.93 227.556 360.549 226.199 364.911 225.705C376.834 224.354 389.287 230.39 395.613 240.586L347.99 264.01L306.165 263.706L306.166 208.513Z" fill="#E0E0E0"/>
<path d="M455.212 208.707C445.817 204.17 437.547 209.659 428.88 215.466C420.213 221.274 412.159 228.721 401.992 231.06C395.199 232.623 387.92 231.756 381.353 234.095C367.974 238.86 360.238 255.849 346.058 256.659C338.359 257.099 331.454 252.432 324.583 248.931C317.712 245.43 312.292 242.105 306.165 246.788V329.091H455.212V208.707Z" fill="#EBEBEB"/>
<path d="M458.449 131.776H306.166V134.725H458.449V131.776Z" fill="#E0E0E0"/>
<path d="M458.449 197.741H306.166V200.69H458.449V197.741Z" fill="#E0E0E0"/>
<path d="M458.449 263.706H306.166V266.655H458.449V263.706Z" fill="#E0E0E0"/>
<path d="M376.924 133.251V336.947H384.455V133.251H376.924Z" fill="#E0E0E0"/>
<path d="M338.277 52.091H334.866V133.251H338.277V52.091Z" fill="#E0E0E0"/>
<path d="M367.7 52.091H364.289V133.251H367.7V52.091Z" fill="#E0E0E0"/>
<path d="M397.123 52.091H393.712V133.251H397.123V52.091Z" fill="#E0E0E0"/>
<path d="M426.546 52.091H423.135V133.251H426.546V52.091Z" fill="#E0E0E0"/>
<path d="M299.619 38.565H292.69V339.682H299.619V38.565Z" fill="#E0E0E0"/>
<path d="M470.375 35.526H292.69V43.556H470.375V35.526Z" fill="#E0E0E0"/>
<path d="M475.066 341.503H287.774V348.985H475.066V341.503Z" fill="#E0E0E0"/>
<path d="M463.447 337.86L475.066 341.503H287.774L299.619 337.86H463.447Z" fill="#EBEBEB"/>
<path d="M89.26 68.174C89.192 68.172 89.104 67.38 89 65.884C88.967 65.135 88.898 64.212 88.693 63.134C88.525 62.053 88.372 60.803 87.971 59.439C87.366 56.675 86.114 53.406 84.134 49.934C82.138 46.476 79.248 42.854 75.295 39.753C71.353 36.681 66.37 34.038 60.586 32.894C54.841 31.788 48.334 31.83 42.098 34.047C38.961 35.059 35.923 36.627 33.119 38.628C31.671 39.574 30.399 40.772 29.066 41.919C27.859 43.198 26.589 44.446 25.54 45.904C21.094 51.539 18.491 58.849 18.235 66.443C18.12 74.043 20.364 81.474 24.531 87.32C25.509 88.828 26.716 90.136 27.86 91.473C29.136 92.684 30.349 93.943 31.749 94.958C34.453 97.094 37.412 98.807 40.497 99.97C46.619 102.488 53.117 102.845 58.909 102.019C64.742 101.157 69.848 98.758 73.934 95.881C78.033 92.976 81.094 89.498 83.256 86.141C85.401 82.769 86.811 79.565 87.549 76.834C88.016 75.492 88.23 74.25 88.45 73.179C88.707 72.113 88.82 71.195 88.89 70.448C89.066 68.959 89.191 68.172 89.26 68.174C89.328 68.176 89.336 68.967 89.287 70.483C89.281 71.243 89.229 72.181 89.03 73.276C88.868 74.375 88.709 75.653 88.291 77.04C87.65 79.861 86.315 83.197 84.193 86.731C82.054 90.249 78.963 93.921 74.756 97.016C70.564 100.082 65.267 102.664 59.172 103.641C53.12 104.581 46.3 104.268 39.834 101.671C36.579 100.468 33.45 98.685 30.588 96.451C29.108 95.387 27.819 94.071 26.472 92.797C25.256 91.396 23.981 90.018 22.941 88.432C18.524 82.281 16.127 74.421 16.255 66.397C16.519 58.379 19.294 50.647 24.005 44.72C25.12 43.188 26.46 41.873 27.742 40.533C29.15 39.326 30.501 38.075 32.03 37.084C34.997 34.992 38.208 33.363 41.517 32.32C48.101 30.039 54.927 30.058 60.926 31.29C66.966 32.56 72.131 35.397 76.17 38.662C80.222 41.957 83.132 45.774 85.098 49.392C87.047 53.025 88.219 56.421 88.722 59.271C89.072 60.677 89.169 61.961 89.278 63.067C89.424 64.17 89.43 65.109 89.399 65.869C89.374 67.385 89.328 68.175 89.26 68.174Z" fill="#EBEBEB"/>
<path d="M82.055 45.672C82.134 45.783 81.485 46.348 80.231 47.281C79.543 47.775 78.774 48.327 77.913 48.945C77.454 49.259 76.973 49.615 76.438 49.95C75.871 50.246 75.28 50.555 74.664 50.877C69.845 53.662 62.209 56.506 53.49 56.209C52.408 56.161 51.339 56.113 50.285 56.066C49.244 55.903 48.218 55.743 47.209 55.585C46.706 55.5 46.204 55.433 45.714 55.334C45.231 55.205 44.752 55.078 44.278 54.952C43.334 54.69 42.399 54.468 41.509 54.183C37.975 52.954 34.923 51.521 32.525 50.044C27.699 47.126 25.349 44.471 25.532 44.3C25.727 44.077 28.35 46.299 33.212 48.823C35.628 50.105 38.634 51.353 42.056 52.442C42.917 52.692 43.819 52.882 44.727 53.115C45.183 53.228 45.643 53.342 46.107 53.457C46.58 53.528 47.058 53.601 47.539 53.673C48.503 53.815 49.484 53.959 50.478 54.106C51.483 54.147 52.502 54.188 53.533 54.229C61.822 54.515 69.165 52.03 74.036 49.625C74.659 49.355 75.257 49.095 75.83 48.846C76.376 48.561 76.873 48.254 77.35 47.99C78.262 47.487 79.079 47.037 79.808 46.635C81.176 45.912 81.976 45.561 82.055 45.672Z" fill="#EBEBEB"/>
<path d="M24.437 89.462C24.357 89.351 25.007 88.786 26.261 87.853C26.949 87.359 27.718 86.807 28.579 86.19C29.038 85.876 29.519 85.52 30.054 85.185C30.621 84.889 31.212 84.58 31.828 84.258C36.647 81.473 44.283 78.629 53.002 78.926C54.084 78.974 55.153 79.022 56.207 79.069C57.248 79.232 58.274 79.392 59.283 79.55C59.786 79.635 60.288 79.702 60.778 79.801C61.261 79.93 61.74 80.057 62.214 80.183C63.158 80.445 64.093 80.667 64.983 80.953C68.517 82.182 71.569 83.615 73.966 85.092C78.793 88.01 81.142 90.665 80.959 90.836C80.764 91.059 78.141 88.837 73.279 86.313C70.864 85.031 67.857 83.783 64.436 82.694C63.575 82.444 62.673 82.255 61.765 82.021C61.309 81.908 60.849 81.794 60.385 81.679C59.912 81.607 59.434 81.535 58.953 81.463C57.988 81.321 57.008 81.177 56.014 81.031C55.009 80.99 53.99 80.949 52.959 80.908C44.669 80.622 37.327 83.107 32.456 85.512C31.833 85.782 31.235 86.042 30.662 86.291C30.116 86.577 29.619 86.883 29.142 87.147C28.229 87.65 27.414 88.1 26.684 88.502C25.316 89.221 24.516 89.573 24.437 89.462Z" fill="#EBEBEB"/>
<path d="M89.239 69.01C89.226 69.557 73.093 69.608 53.209 69.126C33.319 68.643 17.211 67.808 17.224 67.262C17.237 66.715 33.367 66.664 53.257 67.147C73.141 67.629 89.253 68.464 89.239 69.01Z" fill="#EBEBEB"/>
<path d="M51.572 103.273C51.025 103.26 50.974 87.132 51.456 67.255C51.939 47.371 52.773 31.268 53.32 31.282C53.866 31.295 53.918 47.419 53.435 67.303C52.953 87.18 52.118 103.286 51.572 103.273Z" fill="#EBEBEB"/>
<path d="M51.573 103.219C51.437 103.428 47.47 100.738 42.89 94.647C40.626 91.605 38.25 87.691 36.453 82.96C34.665 78.238 33.545 72.679 33.666 66.823C33.77 60.949 35.246 55.452 37.301 50.849C39.356 46.227 41.937 42.453 44.335 39.522C49.185 33.661 53.185 31.063 53.319 31.272C53.513 31.497 49.89 34.445 45.438 40.385C43.236 43.355 40.86 47.093 38.975 51.574C37.09 56.041 35.745 61.279 35.645 66.861C35.53 72.447 36.54 77.762 38.166 82.333C39.799 86.913 41.97 90.772 44.031 93.837C48.201 99.976 51.773 103.001 51.573 103.219Z" fill="#EBEBEB"/>
<path d="M54.127 31.292C54.263 31.083 58.231 33.773 62.81 39.863C65.074 42.905 67.45 46.819 69.247 51.55C71.035 56.272 72.155 61.831 72.034 67.687C71.93 73.561 70.454 79.057 68.399 83.661C66.344 88.283 63.764 92.057 61.365 94.988C56.515 100.849 52.515 103.447 52.381 103.238C52.187 103.013 55.81 100.065 60.262 94.125C62.464 91.156 64.84 87.417 66.724 82.936C68.609 78.469 69.955 73.231 70.054 67.649C70.169 62.063 69.159 56.748 67.533 52.177C65.899 47.597 63.729 43.738 61.668 40.673C57.498 34.535 53.926 31.51 54.127 31.292Z" fill="#EBEBEB"/>
<path d="M478.829 464.737C478.829 464.881 376.371 464.997 250.011 464.997C123.608 464.997 21.171 464.88 21.171 464.737C21.171 464.593 123.607 464.477 250.011 464.477C376.37 464.476 478.829 464.593 478.829 464.737Z" fill="#263238"/>
<path d="M51.332 415.111L58.498 465.016H84.574L91.126 415.111H51.332Z" fill="#455A64"/>
<path d="M48.462 415.111C48.589 411.756 49.357 408.764 51.923 406.788H91.126C93.278 408.416 93.935 411.575 94.223 415.111H48.462Z" fill="#455A64"/>
<path d="M54.44 406.788L57.753 401.917H84.922L87.813 406.788H54.44Z" fill="#455A64"/>
<path d="M90.951 406.622C90.951 406.765 82.529 406.88 72.142 406.88C61.752 406.88 53.331 406.765 53.331 406.622C53.331 406.48 61.751 406.364 72.142 406.364C82.529 406.365 90.951 406.48 90.951 406.622Z" fill="#263238"/>
<path d="M94.222 415.111C94.222 415.254 84.068 415.369 71.546 415.369C59.019 415.369 48.868 415.254 48.868 415.111C48.868 414.969 59.019 414.853 71.546 414.853C84.069 414.853 94.222 414.968 94.222 415.111Z" fill="#263238"/>
<path d="M52.95 426.38H89.646L87.5 442.733H55.298L52.95 426.38Z" fill="#263238"/>
<path d="M69.924 348.6C69.924 348.6 70.124 348.61 70.456 348.775C70.784 348.937 71.258 349.261 71.646 349.859C72.038 350.448 72.342 351.296 72.357 352.308C72.377 353.328 72.005 354.454 71.383 355.541C70.764 356.635 69.888 357.69 69.032 358.844C68.198 359.997 67.332 361.323 67.142 362.887C66.933 364.456 67.58 366.078 68.545 367.515C69.524 368.966 70.785 370.305 71.921 371.834C72.502 372.587 72.998 373.406 73.399 374.258C73.79 375.121 73.999 376.054 74.027 376.981C74.043 378.868 73.129 380.507 72.149 381.814C71.15 383.142 70.006 384.209 69.044 385.279C68.074 386.342 67.256 387.41 66.762 388.513C66.242 389.607 66.126 390.717 66.259 391.665C66.373 392.616 66.732 393.388 67.126 393.929C67.963 395.016 68.83 395.115 68.783 395.184C68.781 395.193 68.733 395.185 68.642 395.162C68.553 395.133 68.41 395.114 68.244 395.032C67.901 394.899 67.421 394.598 66.966 394.053C66.526 393.503 66.12 392.702 65.971 391.706C65.8 390.722 65.902 389.516 66.426 388.363C66.922 387.197 67.754 386.079 68.723 384.989C69.687 383.89 70.81 382.818 71.765 381.525C72.708 380.248 73.542 378.697 73.517 376.982C73.485 376.133 73.296 375.278 72.926 374.467C72.545 373.664 72.072 372.88 71.502 372.142C70.393 370.648 69.125 369.296 68.12 367.796C67.128 366.313 66.421 364.543 66.665 362.826C66.892 361.114 67.825 359.746 68.684 358.585C69.571 357.422 70.445 356.401 71.064 355.353C71.685 354.315 72.057 353.255 72.065 352.305C72.078 351.352 71.818 350.538 71.473 349.965C70.754 348.795 69.873 348.662 69.924 348.6Z" fill="#263238"/>
<path d="M76.503 348.6C76.503 348.6 76.703 348.61 77.035 348.775C77.363 348.937 77.837 349.261 78.224 349.859C78.616 350.448 78.92 351.296 78.935 352.308C78.955 353.328 78.583 354.454 77.961 355.541C77.342 356.635 76.466 357.69 75.61 358.844C74.776 359.997 73.91 361.323 73.72 362.887C73.511 364.456 74.159 366.078 75.123 367.515C76.102 368.966 77.363 370.305 78.499 371.834C79.08 372.587 79.576 373.406 79.977 374.258C80.368 375.121 80.577 376.054 80.605 376.981C80.621 378.868 79.707 380.507 78.727 381.814C77.728 383.142 76.584 384.209 75.622 385.279C74.652 386.342 73.834 387.41 73.34 388.513C72.82 389.607 72.704 390.717 72.837 391.665C72.951 392.616 73.311 393.388 73.704 393.929C74.541 395.016 75.408 395.115 75.361 395.184C75.359 395.193 75.311 395.185 75.22 395.162C75.131 395.133 74.988 395.114 74.822 395.032C74.479 394.899 73.999 394.598 73.544 394.053C73.104 393.503 72.698 392.702 72.549 391.706C72.378 390.722 72.48 389.516 73.004 388.363C73.5 387.197 74.332 386.079 75.301 384.989C76.265 383.89 77.388 382.818 78.343 381.525C79.286 380.248 80.12 378.697 80.095 376.982C80.063 376.133 79.874 375.278 79.504 374.467C79.123 373.664 78.65 372.88 78.08 372.142C76.971 370.648 75.703 369.296 74.698 367.796C73.706 366.313 72.999 364.543 73.243 362.826C73.47 361.114 74.403 359.746 75.262 358.585C76.149 357.422 77.023 356.401 77.642 355.353C78.263 354.315 78.635 353.255 78.643 352.305C78.656 351.352 78.396 350.538 78.051 349.965C77.333 348.795 76.452 348.662 76.503 348.6Z" fill="#263238"/>
<path d="M265.594 83.925H73.929V336.463H265.594V83.925Z" fill="white"/>
<path d="M265.594 336.462C265.592 334.395 265.498 233.603 265.359 83.925L265.594 84.16C208.175 84.168 142.896 84.176 73.951 84.186H73.93L74.19 83.926C74.173 177.88 74.157 265.01 74.144 336.463L73.93 336.249C189.814 336.378 263.819 336.46 265.594 336.462C263.821 336.464 189.815 336.547 73.929 336.676H73.715V336.461C73.702 265.008 73.686 177.877 73.669 83.924V83.664H73.929H73.95C142.895 83.673 208.174 83.682 265.593 83.69H265.828V83.925C265.689 233.603 265.595 334.396 265.594 336.462Z" fill="#263238"/>
<path d="M265.594 102.374C265.594 102.459 222.685 102.528 169.766 102.528C116.829 102.528 73.929 102.459 73.929 102.374C73.929 102.289 116.829 102.22 169.766 102.22C222.684 102.22 265.594 102.289 265.594 102.374Z" fill="#263238"/>
<path d="M206.858 93.743C206.858 93.828 192.22 93.897 174.167 93.897C156.108 93.897 141.473 93.828 141.473 93.743C141.473 93.658 156.108 93.589 174.167 93.589C192.22 93.589 206.858 93.658 206.858 93.743Z" fill="#455A64"/>
<path d="M83.509 93.743C83.509 94.913 82.56 95.862 81.39 95.862C80.22 95.862 79.271 94.913 79.271 93.743C79.271 92.573 80.22 91.624 81.39 91.624C82.56 91.624 83.509 92.573 83.509 93.743Z" fill="#E0E0E0"/>
<path d="M90.694 93.743C90.694 94.913 89.745 95.862 88.575 95.862C87.405 95.862 86.456 94.913 86.456 93.743C86.456 92.573 87.405 91.624 88.575 91.624C89.746 91.624 90.694 92.573 90.694 93.743Z" fill="#E0E0E0"/>
<path d="M97.88 93.743C97.88 94.913 96.931 95.862 95.761 95.862C94.591 95.862 93.642 94.913 93.642 93.743C93.642 92.573 94.591 91.624 95.761 91.624C96.931 91.624 97.88 92.573 97.88 93.743Z" fill="#E0E0E0"/>
<path d="M146.842 128.176H142.45L141.612 130.203H139.369L143.586 120.743H145.748L149.978 130.203H147.681L146.842 128.176ZM146.153 126.513L144.653 122.891L143.153 126.513H146.153Z" fill="#455A64"/>
<path d="M156.989 130.203L155.165 127.568H155.057H153.151V130.203H150.962V120.743H155.057C157.584 120.743 159.165 122.054 159.165 124.175C159.165 125.594 158.449 126.635 157.219 127.162L159.341 130.203H156.989ZM154.935 122.527H153.152V125.824H154.935C156.273 125.824 156.949 125.202 156.949 124.175C156.949 123.135 156.273 122.527 154.935 122.527Z" fill="#455A64"/>
<path d="M162.717 122.527H159.69V120.743H167.933V122.527H164.906V130.203H162.717V122.527Z" fill="#455A64"/>
<path d="M169.108 120.743H171.297V130.203H169.108V120.743Z" fill="#455A64"/>
<path d="M172.945 125.473C172.945 122.622 175.134 120.581 178.08 120.581C179.715 120.581 181.08 121.176 181.972 122.257L180.566 123.554C179.931 122.824 179.134 122.446 178.188 122.446C176.418 122.446 175.161 123.689 175.161 125.473C175.161 127.257 176.418 128.5 178.188 128.5C179.134 128.5 179.931 128.122 180.566 127.378L181.972 128.675C181.08 129.77 179.715 130.364 178.067 130.364C175.134 130.365 172.945 128.324 172.945 125.473Z" fill="#455A64"/>
<path d="M183.444 120.743H185.633V128.419H190.376V130.203H183.444V120.743Z" fill="#455A64"/>
<path d="M198.929 128.446V130.203H191.605V120.743H198.753V122.5H193.78V124.554H198.172V126.257H193.78V128.446H198.929Z" fill="#455A64"/>
<path d="M134.694 126.319C134.694 126.404 124.548 126.473 112.036 126.473C99.519 126.473 89.376 126.404 89.376 126.319C89.376 126.234 99.519 126.165 112.036 126.165C124.548 126.165 134.694 126.234 134.694 126.319Z" fill="#263238"/>
<path d="M255.189 126.319C255.189 126.404 244.537 126.473 231.4 126.473C218.258 126.473 207.608 126.404 207.608 126.319C207.608 126.234 218.258 126.165 231.4 126.165C244.537 126.165 255.189 126.234 255.189 126.319Z" fill="#263238"/>
<path d="M246.604 279.304H200.639V323.774H246.604V279.304Z" fill="#455A64"/>
<g opacity="0.3">
<path d="M204.203 319.967L216.918 297.084L227.318 311.71L233.638 303.943L243.04 319.967H204.203Z" fill="black"/>
</g>
<g opacity="0.3">
<path d="M230.864 290.21C233.561 293.751 229.558 297.753 226.017 295.056C223.321 291.515 227.323 287.513 230.864 290.21Z" fill="black"/>
</g>
<g opacity="0.3">
<path d="M243.04 320.091C243.037 320.087 243.033 320.026 243.029 319.909C243.027 319.776 243.023 319.606 243.019 319.391C243.014 318.918 243.007 318.25 242.997 317.39C242.986 315.626 242.969 313.076 242.948 309.838C242.925 303.343 242.891 294.093 242.852 282.987L243.04 283.175C231.792 283.184 218.458 283.195 204.207 283.206C204.155 283.252 204.618 282.794 204.422 282.993V283.003V283.023V283.063V283.142V283.301V283.618V284.251V285.514C204.422 286.354 204.422 287.191 204.422 288.024C204.422 289.69 204.421 291.341 204.421 292.975C204.419 296.243 204.418 299.443 204.416 302.558C204.409 308.786 204.402 314.674 204.395 320.091L204.204 319.9C215.795 319.94 225.477 319.974 232.284 319.997C235.678 320.018 238.354 320.035 240.204 320.047C241.108 320.056 241.809 320.064 242.305 320.069C242.532 320.073 242.71 320.077 242.849 320.08C242.972 320.084 243.036 320.088 243.04 320.091C243.044 320.094 242.987 320.098 242.87 320.102C242.736 320.105 242.565 320.108 242.346 320.113C241.859 320.118 241.17 320.126 240.282 320.135C238.442 320.147 235.78 320.164 232.405 320.185C225.568 320.209 215.844 320.242 204.202 320.282L204.011 320.283V320.091C204.004 314.674 203.997 308.786 203.99 302.558C203.988 299.443 203.986 296.243 203.984 292.975C203.984 291.341 203.983 289.69 203.983 288.024C203.983 287.191 203.983 286.354 203.983 285.514V284.251V283.618V283.3V283.141V283.062V283.022V283.002V282.992C203.788 283.184 204.249 282.718 204.206 282.767C218.458 282.779 231.791 282.789 243.039 282.798H243.228L243.227 282.986C243.187 294.141 243.154 303.432 243.131 309.956C243.11 313.176 243.093 315.713 243.082 317.466C243.073 318.311 243.065 318.967 243.06 319.431C243.055 319.638 243.052 319.801 243.049 319.929C243.047 320.04 243.044 320.095 243.04 320.091Z" fill="black"/>
</g>
<path d="M133.905 143.161C133.905 143.305 123.855 143.421 111.46 143.421C99.061 143.421 89.012 143.304 89.012 143.161C89.012 143.017 99.06 142.901 111.46 142.901C123.854 142.901 133.905 143.018 133.905 143.161Z" fill="#263238"/>
<path d="M168.526 153.936C168.526 154.08 150.725 154.196 128.771 154.196C106.809 154.196 89.012 154.079 89.012 153.936C89.012 153.792 106.81 153.676 128.771 153.676C150.725 153.675 168.526 153.792 168.526 153.936Z" fill="#263238"/>
<path d="M195.709 153.148C195.709 153.292 190.886 153.409 184.938 153.409C178.988 153.409 174.166 153.292 174.166 153.148C174.166 153.004 178.988 152.888 184.938 152.888C190.886 152.888 195.709 153.005 195.709 153.148Z" fill="#263238"/>
<path d="M248.422 152.69C248.422 152.834 238.468 152.95 226.192 152.95C213.912 152.95 203.96 152.833 203.96 152.69C203.96 152.546 213.912 152.43 226.192 152.43C238.468 152.43 248.422 152.546 248.422 152.69Z" fill="#263238"/>
<path d="M247.964 161.857C247.964 162.001 212.253 162.117 168.21 162.117C124.153 162.117 88.449 162 88.449 161.857C88.449 161.713 124.153 161.597 168.21 161.597C212.252 161.597 247.964 161.714 247.964 161.857Z" fill="#263238"/>
<path d="M162.706 171.483C162.706 171.627 146.184 171.743 125.808 171.743C105.425 171.743 88.907 171.626 88.907 171.483C88.907 171.339 105.425 171.223 125.808 171.223C146.184 171.223 162.706 171.339 162.706 171.483Z" fill="#263238"/>
<path d="M189.75 171.483C189.75 171.627 185.235 171.743 179.666 171.743C174.096 171.743 169.581 171.626 169.581 171.483C169.581 171.339 174.095 171.223 179.666 171.223C185.235 171.223 189.75 171.339 189.75 171.483Z" fill="#263238"/>
<path d="M247.964 170.566C247.964 170.71 236.368 170.826 222.067 170.826C207.761 170.826 196.167 170.709 196.167 170.566C196.167 170.422 207.761 170.306 222.067 170.306C236.368 170.306 247.964 170.423 247.964 170.566Z" fill="#263238"/>
<path d="M167.522 253.964C167.522 254.108 149.721 254.225 127.767 254.225C105.805 254.225 88.008 254.108 88.008 253.964C88.008 253.82 105.806 253.704 127.767 253.704C149.721 253.703 167.522 253.82 167.522 253.964Z" fill="#263238"/>
<path d="M194.705 253.176C194.705 253.32 189.882 253.436 183.934 253.436C177.984 253.436 173.162 253.319 173.162 253.176C173.162 253.032 177.984 252.916 183.934 252.916C189.882 252.916 194.705 253.032 194.705 253.176Z" fill="#263238"/>
<path d="M247.418 252.718C247.418 252.862 237.464 252.978 225.188 252.978C212.908 252.978 202.956 252.861 202.956 252.718C202.956 252.575 212.908 252.458 225.188 252.458C237.464 252.457 247.418 252.574 247.418 252.718Z" fill="#263238"/>
<path d="M246.96 261.885C246.96 262.029 211.249 262.145 167.207 262.145C123.15 262.145 87.446 262.028 87.446 261.885C87.446 261.741 123.15 261.625 167.207 261.625C211.248 261.625 246.96 261.741 246.96 261.885Z" fill="#263238"/>
<path d="M161.702 271.511C161.702 271.655 145.18 271.771 124.805 271.771C104.422 271.771 87.904 271.654 87.904 271.511C87.904 271.368 104.422 271.251 124.805 271.251C145.18 271.251 161.702 271.367 161.702 271.511Z" fill="#263238"/>
<path d="M188.746 271.511C188.746 271.655 184.231 271.771 178.662 271.771C173.092 271.771 168.577 271.654 168.577 271.511C168.577 271.368 173.091 271.251 178.662 271.251C184.231 271.251 188.746 271.367 188.746 271.511Z" fill="#263238"/>
<path d="M246.96 270.594C246.96 270.738 235.364 270.854 221.063 270.854C206.757 270.854 195.164 270.737 195.164 270.594C195.164 270.45 206.757 270.334 221.063 270.334C235.364 270.334 246.96 270.451 246.96 270.594Z" fill="#263238"/>
<path d="M189.75 282.072C189.75 282.216 167.21 282.332 139.412 282.332C111.605 282.332 89.07 282.215 89.07 282.072C89.07 281.929 111.605 281.812 139.412 281.812C167.21 281.812 189.75 281.928 189.75 282.072Z" fill="#263238"/>
<path d="M188.746 292.633C188.746 292.777 166.253 292.893 138.513 292.893C110.763 292.893 88.275 292.776 88.275 292.633C88.275 292.489 110.763 292.373 138.513 292.373C166.253 292.373 188.746 292.489 188.746 292.633Z" fill="#263238"/>
<path d="M185.966 181.671H88.343V243.997H185.966V181.671Z" fill="#FF725E"/>
<path d="M181.767 239.041C181.767 239.041 181.753 238.704 181.745 238.068C181.74 237.418 181.732 236.481 181.722 235.26C181.71 232.789 181.693 229.18 181.671 224.553C181.645 215.295 181.609 201.973 181.564 185.652L181.767 185.855C157.853 185.871 126.947 185.891 93.305 185.913H93.298L93.558 185.653C93.551 204.568 93.545 222.616 93.539 239.042L93.298 238.801C119.219 238.849 141.303 238.89 156.925 238.919C164.739 238.947 170.933 238.969 175.193 238.984C177.311 238.997 178.944 239.007 180.067 239.013C180.612 239.019 181.03 239.024 181.329 239.027C181.615 239.031 181.767 239.041 181.767 239.041C181.767 239.041 181.634 239.051 181.358 239.055C181.065 239.058 180.656 239.063 180.123 239.069C179.011 239.076 177.394 239.086 175.298 239.098C171.05 239.113 164.875 239.135 157.084 239.163C141.423 239.192 119.283 239.233 93.298 239.281L93.057 239.282V239.04C93.051 222.614 93.045 204.566 93.038 185.651V185.391H93.299H93.306C126.949 185.413 157.855 185.433 181.768 185.448H181.972L181.971 185.651C181.926 202.025 181.889 215.389 181.864 224.677C181.842 229.285 181.825 232.878 181.813 235.339C181.803 236.544 181.796 237.468 181.79 238.109C181.781 238.732 181.767 239.041 181.767 239.041Z" fill="#263238"/>
<g opacity="0.2">
<path d="M95.689 239.041L121.279 206.061L139.773 227.184L153.926 214.445L179.666 239.041H95.689Z" fill="black"/>
</g>
<g opacity="0.2">
<path d="M145.497 202.136C145.497 205.287 142.942 207.842 139.791 207.842C136.64 207.842 134.085 205.287 134.085 202.136C134.085 198.985 136.639 196.43 139.791 196.43C142.942 196.43 145.497 198.985 145.497 202.136Z" fill="black"/>
</g>
<path d="M247.964 181.128C247.964 181.272 235.711 181.388 220.599 181.388C205.482 181.388 193.232 181.271 193.232 181.128C193.232 180.985 205.483 180.868 220.599 180.868C235.711 180.867 247.964 180.984 247.964 181.128Z" fill="#263238"/>
<path d="M247.964 190.828C247.964 190.972 235.711 191.088 220.599 191.088C205.482 191.088 193.232 190.971 193.232 190.828C193.232 190.684 205.483 190.568 220.599 190.568C235.711 190.568 247.964 190.685 247.964 190.828Z" fill="#263238"/>
<path d="M246.002 233.047C246.002 233.191 233.749 233.307 218.637 233.307C203.52 233.307 191.27 233.19 191.27 233.047C191.27 232.904 203.521 232.787 218.637 232.787C233.749 232.787 246.002 232.903 246.002 233.047Z" fill="#263238"/>
<path d="M246.002 243.997C246.002 244.141 233.749 244.257 218.637 244.257C203.52 244.257 191.27 244.14 191.27 243.997C191.27 243.853 203.521 243.737 218.637 243.737C233.749 243.737 246.002 243.853 246.002 243.997Z" fill="#263238"/>
<path d="M230.087 200.529C230.087 200.673 221.836 200.789 211.66 200.789C201.481 200.789 193.232 200.672 193.232 200.529C193.232 200.385 201.481 200.269 211.66 200.269C221.836 200.269 230.087 200.385 230.087 200.529Z" fill="#263238"/>
<path d="M248.375 200.417C248.375 200.561 245.294 200.677 241.495 200.677C237.694 200.677 234.614 200.56 234.614 200.417C234.614 200.273 237.694 200.157 241.495 200.157C245.294 200.156 248.375 200.273 248.375 200.417Z" fill="#263238"/>
<path d="M248.375 211.169C248.375 211.313 240.155 211.429 230.018 211.429C219.877 211.429 211.659 211.312 211.659 211.169C211.659 211.025 219.877 210.909 230.018 210.909C240.155 210.908 248.375 211.025 248.375 211.169Z" fill="#263238"/>
<path d="M230.087 222.033C230.087 222.177 221.836 222.293 211.66 222.293C201.481 222.293 193.232 222.176 193.232 222.033C193.232 221.89 201.481 221.773 211.66 221.773C221.836 221.772 230.087 221.889 230.087 222.033Z" fill="#263238"/>
<path d="M248.375 221.92C248.375 222.064 245.294 222.18 241.495 222.18C237.694 222.18 234.614 222.063 234.614 221.92C234.614 221.776 237.694 221.66 241.495 221.66C245.294 221.66 248.375 221.777 248.375 221.92Z" fill="#263238"/>
<path d="M204.375 210.919C204.375 211.063 202.105 211.18 199.305 211.18C196.504 211.18 194.235 211.063 194.235 210.919C194.235 210.775 196.505 210.659 199.305 210.659C202.105 210.658 204.375 210.775 204.375 210.919Z" fill="#263238"/>
<path d="M189.75 302.975C189.75 303.119 167.032 303.235 139.015 303.235C110.988 303.235 88.275 303.119 88.275 302.975C88.275 302.831 110.988 302.715 139.015 302.715C167.033 302.714 189.75 302.831 189.75 302.975Z" fill="#263238"/>
<path d="M191.276 314.678C191.276 314.822 168.558 314.938 140.541 314.938C112.514 314.938 89.801 314.822 89.801 314.678C89.801 314.534 112.514 314.418 140.541 314.418C168.558 314.418 191.276 314.534 191.276 314.678Z" fill="#263238"/>
<path d="M255.689 77.34H64.024V329.878H255.689V77.34Z" fill="white"/>
<path d="M255.689 329.877C255.687 327.809 255.593 227.018 255.454 77.339L255.689 77.574C198.27 77.582 132.99 77.591 64.045 77.6H64.024L64.284 77.34C64.267 171.294 64.251 258.425 64.238 329.877L64.024 329.663C179.909 329.793 253.914 329.875 255.689 329.877C253.916 329.879 179.91 329.962 64.024 330.091H63.81V329.877C63.797 258.424 63.781 171.293 63.764 77.34V77.08H64.024H64.045C132.99 77.089 198.269 77.098 255.688 77.106H255.923V77.341C255.784 227.018 255.691 327.811 255.689 329.877Z" fill="#263238"/>
<path d="M255.689 95.789C255.689 95.874 212.78 95.943 159.861 95.943C106.924 95.943 64.024 95.874 64.024 95.789C64.024 95.704 106.924 95.635 159.861 95.635C212.78 95.635 255.689 95.704 255.689 95.789Z" fill="#263238"/>
<path d="M196.953 87.158C196.953 87.243 182.315 87.312 164.262 87.312C146.203 87.312 131.568 87.243 131.568 87.158C131.568 87.073 146.203 87.004 164.262 87.004C182.315 87.004 196.953 87.073 196.953 87.158Z" fill="#455A64"/>
<path d="M71.485 89.277C72.6553 89.277 73.604 88.3283 73.604 87.158C73.604 85.9877 72.6553 85.039 71.485 85.039C70.3147 85.039 69.366 85.9877 69.366 87.158C69.366 88.3283 70.3147 89.277 71.485 89.277Z" fill="#E0E0E0"/>
<path d="M80.789 87.158C80.789 88.328 79.84 89.277 78.67 89.277C77.5 89.277 76.551 88.328 76.551 87.158C76.551 85.988 77.5 85.039 78.67 85.039C79.841 85.039 80.789 85.988 80.789 87.158Z" fill="#E0E0E0"/>
<path d="M87.975 87.158C87.975 88.328 87.026 89.277 85.856 89.277C84.686 89.277 83.737 88.328 83.737 87.158C83.737 85.988 84.686 85.039 85.856 85.039C87.026 85.039 87.975 85.988 87.975 87.158Z" fill="#E0E0E0"/>
<path d="M136.938 121.59H132.546L131.708 123.617H129.465L133.682 114.157H135.844L140.074 123.617H137.777L136.938 121.59ZM136.249 119.928L134.749 116.306L133.249 119.928H136.249Z" fill="#455A64"/>
<path d="M147.084 123.618L145.26 120.983H145.152H143.246V123.618H141.057V114.158H145.152C147.679 114.158 149.26 115.469 149.26 117.59C149.26 119.009 148.544 120.05 147.314 120.577L149.436 123.618H147.084ZM145.03 115.942H143.247V119.239H145.03C146.368 119.239 147.044 118.618 147.044 117.59C147.044 116.55 146.369 115.942 145.03 115.942Z" fill="#455A64"/>
<path d="M152.813 115.942H149.786V114.158H158.029V115.942H155.002V123.618H152.813V115.942Z" fill="#455A64"/>
<path d="M159.204 114.158H161.393V123.618H159.204V114.158Z" fill="#455A64"/>
<path d="M163.041 118.888C163.041 116.037 165.23 113.996 168.176 113.996C169.811 113.996 171.176 114.591 172.068 115.672L170.662 116.969C170.027 116.239 169.229 115.861 168.284 115.861C166.514 115.861 165.257 117.104 165.257 118.888C165.257 120.672 166.514 121.915 168.284 121.915C169.23 121.915 170.027 121.537 170.662 120.793L172.068 122.09C171.176 123.185 169.811 123.779 168.163 123.779C165.229 123.78 163.041 121.739 163.041 118.888Z" fill="#455A64"/>
<path d="M173.539 114.158H175.728V121.834H180.471V123.618H173.539V114.158Z" fill="#455A64"/>
<path d="M189.024 121.861V123.618H181.7V114.158H188.848V115.915H183.875V117.969H188.267V119.672H183.875V121.861H189.024Z" fill="#455A64"/>
<path d="M124.789 119.734C124.789 119.819 114.643 119.888 102.131 119.888C89.614 119.888 79.471 119.819 79.471 119.734C79.471 119.649 89.614 119.58 102.131 119.58C114.643 119.58 124.789 119.649 124.789 119.734Z" fill="#263238"/>
<path d="M245.285 119.734C245.285 119.819 234.633 119.888 221.496 119.888C208.354 119.888 197.704 119.819 197.704 119.734C197.704 119.649 208.354 119.58 221.496 119.58C234.632 119.58 245.285 119.649 245.285 119.734Z" fill="#263238"/>
<path d="M236.699 272.719H190.734V317.189H236.699V272.719Z" fill="#455A64"/>
<g opacity="0.3">
<path d="M194.298 313.383L207.013 290.499L217.413 305.125L223.733 297.358L233.135 313.383H194.298Z" fill="black"/>
</g>
<g opacity="0.3">
<path d="M220.959 283.625C223.656 287.166 219.653 291.168 216.112 288.471C213.416 284.93 217.418 280.928 220.959 283.625Z" fill="black"/>
</g>
<g opacity="0.3">
<path d="M233.135 313.506C233.132 313.503 233.128 313.441 233.124 313.324C233.122 313.191 233.118 313.021 233.114 312.806C233.109 312.333 233.102 311.665 233.092 310.805C233.081 309.042 233.064 306.491 233.043 303.253C233.02 296.758 232.986 287.508 232.947 276.402L233.135 276.59C221.887 276.599 208.553 276.61 194.302 276.621C194.25 276.667 194.713 276.209 194.517 276.408V276.418V276.438V276.478V276.557V276.716V277.033V277.666V278.929C194.517 279.769 194.517 280.606 194.517 281.439C194.517 283.105 194.516 284.756 194.516 286.39C194.514 289.658 194.513 292.858 194.511 295.972C194.504 302.2 194.497 308.088 194.49 313.505L194.299 313.314C205.89 313.354 215.572 313.388 222.379 313.411C225.773 313.432 228.449 313.449 230.299 313.461C231.203 313.471 231.904 313.478 232.4 313.483C232.627 313.487 232.805 313.491 232.944 313.494C233.067 313.499 233.132 313.503 233.135 313.506C233.139 313.51 233.082 313.513 232.965 313.517C232.831 313.52 232.66 313.524 232.441 313.528C231.954 313.533 231.265 313.541 230.377 313.55C228.537 313.562 225.875 313.578 222.5 313.6C215.664 313.624 205.939 313.657 194.297 313.697L194.106 313.698V313.506C194.099 308.089 194.092 302.201 194.085 295.973C194.083 292.858 194.081 289.659 194.079 286.391C194.079 284.757 194.078 283.106 194.078 281.44C194.078 280.607 194.078 279.77 194.078 278.93V277.667V277.034V276.717V276.558V276.479V276.439V276.419V276.409C193.883 276.601 194.344 276.135 194.301 276.184C208.553 276.195 221.886 276.206 233.134 276.215H233.323L233.322 276.403C233.282 287.558 233.249 296.849 233.226 303.373C233.205 306.593 233.188 309.13 233.177 310.883C233.168 311.728 233.16 312.384 233.155 312.848C233.15 313.055 233.147 313.218 233.144 313.346C233.142 313.455 233.139 313.51 233.135 313.506Z" fill="black"/>
</g>
<path d="M124 136.576C124 136.72 113.949 136.837 101.554 136.837C89.155 136.837 79.106 136.72 79.106 136.576C79.106 136.432 89.154 136.316 101.554 136.316C113.95 136.316 124 136.433 124 136.576Z" fill="#263238"/>
<path d="M158.621 147.351C158.621 147.495 140.82 147.611 118.866 147.611C96.904 147.611 79.107 147.494 79.107 147.351C79.107 147.207 96.904 147.091 118.866 147.091C140.82 147.09 158.621 147.207 158.621 147.351Z" fill="#263238"/>
<path d="M185.804 146.563C185.804 146.707 180.981 146.823 175.033 146.823C169.083 146.823 164.261 146.706 164.261 146.563C164.261 146.42 169.083 146.303 175.033 146.303C180.981 146.303 185.804 146.419 185.804 146.563Z" fill="#263238"/>
<path d="M238.517 146.105C238.517 146.249 228.563 146.365 216.287 146.365C204.007 146.365 194.055 146.248 194.055 146.105C194.055 145.961 204.007 145.845 216.287 145.845C228.563 145.844 238.517 145.961 238.517 146.105Z" fill="#263238"/>
<path d="M238.059 155.272C238.059 155.416 202.347 155.532 158.305 155.532C114.248 155.532 78.544 155.415 78.544 155.272C78.544 155.128 114.248 155.012 158.305 155.012C202.348 155.012 238.059 155.129 238.059 155.272Z" fill="#263238"/>
<path d="M152.801 164.898C152.801 165.042 136.279 165.158 115.903 165.158C95.52 165.158 79.002 165.041 79.002 164.898C79.002 164.754 95.52 164.638 115.903 164.638C136.28 164.638 152.801 164.754 152.801 164.898Z" fill="#263238"/>
<path d="M179.845 164.898C179.845 165.042 175.33 165.158 169.761 165.158C164.191 165.158 159.676 165.041 159.676 164.898C159.676 164.754 164.19 164.638 169.761 164.638C175.33 164.638 179.845 164.754 179.845 164.898Z" fill="#263238"/>
<path d="M238.059 163.981C238.059 164.125 226.463 164.241 212.162 164.241C197.856 164.241 186.262 164.124 186.262 163.981C186.262 163.837 197.856 163.721 212.162 163.721C226.463 163.721 238.059 163.838 238.059 163.981Z" fill="#263238"/>
<path d="M157.617 247.379C157.617 247.523 139.816 247.639 117.862 247.639C95.9 247.639 78.103 247.522 78.103 247.379C78.103 247.236 95.901 247.119 117.862 247.119C139.816 247.118 157.617 247.235 157.617 247.379Z" fill="#263238"/>
<path d="M184.8 246.591C184.8 246.735 179.977 246.851 174.029 246.851C168.079 246.851 163.257 246.734 163.257 246.591C163.257 246.447 168.079 246.331 174.029 246.331C179.977 246.331 184.8 246.447 184.8 246.591Z" fill="#263238"/>
<path d="M237.513 246.133C237.513 246.277 227.559 246.393 215.283 246.393C203.003 246.393 193.051 246.276 193.051 246.133C193.051 245.989 203.003 245.873 215.283 245.873C227.559 245.872 237.513 245.989 237.513 246.133Z" fill="#263238"/>
<path d="M237.055 255.3C237.055 255.444 201.344 255.56 157.302 255.56C113.245 255.56 77.541 255.443 77.541 255.3C77.541 255.156 113.245 255.04 157.302 255.04C201.344 255.04 237.055 255.156 237.055 255.3Z" fill="#263238"/>
<path d="M151.797 264.926C151.797 265.07 135.275 265.186 114.9 265.186C94.517 265.186 77.999 265.07 77.999 264.926C77.999 264.782 94.517 264.666 114.9 264.666C135.275 264.666 151.797 264.782 151.797 264.926Z" fill="#263238"/>
<path d="M178.841 264.926C178.841 265.07 174.326 265.186 168.757 265.186C163.187 265.186 158.672 265.07 158.672 264.926C158.672 264.782 163.186 264.666 168.757 264.666C174.326 264.666 178.841 264.782 178.841 264.926Z" fill="#263238"/>
<path d="M237.055 264.009C237.055 264.153 225.459 264.269 211.158 264.269C196.852 264.269 185.259 264.152 185.259 264.009C185.259 263.866 196.852 263.749 211.158 263.749C225.459 263.749 237.055 263.866 237.055 264.009Z" fill="#263238"/>
<path d="M179.845 275.487C179.845 275.631 157.305 275.747 129.507 275.747C101.7 275.747 79.165 275.63 79.165 275.487C79.165 275.344 101.7 275.227 129.507 275.227C157.306 275.227 179.845 275.343 179.845 275.487Z" fill="#263238"/>
<path d="M178.841 286.048C178.841 286.192 156.348 286.308 128.608 286.308C100.858 286.308 78.37 286.191 78.37 286.048C78.37 285.904 100.858 285.788 128.608 285.788C156.348 285.788 178.841 285.904 178.841 286.048Z" fill="#263238"/>
<path d="M176.061 175.086H78.438V237.412H176.061V175.086Z" fill="#FF725E"/>
<path d="M171.862 232.456C171.862 232.456 171.848 232.119 171.84 231.483C171.835 230.833 171.827 229.896 171.818 228.675C171.806 226.204 171.789 222.595 171.767 217.968C171.741 208.71 171.705 195.388 171.66 179.067L171.863 179.27C147.949 179.286 117.043 179.306 83.401 179.327H83.394L83.654 179.067C83.647 197.982 83.641 216.03 83.635 232.456L83.394 232.215C109.315 232.263 131.399 232.304 147.021 232.333C154.835 232.361 161.029 232.383 165.289 232.398C167.407 232.411 169.04 232.421 170.163 232.428C170.708 232.434 171.126 232.439 171.425 232.442C171.71 232.446 171.862 232.456 171.862 232.456C171.862 232.456 171.729 232.466 171.453 232.47C171.16 232.473 170.751 232.478 170.218 232.484C169.106 232.491 167.489 232.501 165.393 232.513C161.146 232.528 154.97 232.55 147.179 232.578C131.518 232.607 109.378 232.648 83.393 232.696H83.152V232.454C83.146 216.028 83.14 197.98 83.133 179.065V178.805H83.394H83.4C117.043 178.827 147.949 178.847 171.862 178.862H172.066L172.065 179.065C172.02 195.439 171.983 208.803 171.958 218.091C171.936 222.699 171.919 226.292 171.907 228.753C171.897 229.958 171.89 230.882 171.884 231.523C171.876 232.147 171.862 232.456 171.862 232.456Z" fill="#263238"/>
<g opacity="0.2">
<path d="M85.784 232.456L111.375 199.476L129.868 220.599L144.021 207.86L169.761 232.456H85.784Z" fill="black"/>
</g>
<g opacity="0.2">
<path d="M135.592 195.551C135.592 198.702 133.037 201.257 129.886 201.257C126.735 201.257 124.18 198.702 124.18 195.551C124.18 192.4 126.735 189.845 129.886 189.845C133.038 189.845 135.592 192.4 135.592 195.551Z" fill="black"/>
</g>
<path d="M238.059 174.542C238.059 174.686 225.806 174.802 210.694 174.802C195.577 174.802 183.327 174.685 183.327 174.542C183.327 174.398 195.578 174.282 210.694 174.282C225.806 174.282 238.059 174.399 238.059 174.542Z" fill="#263238"/>
<path d="M238.059 184.243C238.059 184.387 225.806 184.503 210.694 184.503C195.577 184.503 183.327 184.386 183.327 184.243C183.327 184.099 195.578 183.983 210.694 183.983C225.806 183.983 238.059 184.1 238.059 184.243Z" fill="#263238"/>
<path d="M236.097 226.462C236.097 226.606 223.844 226.722 208.732 226.722C193.615 226.722 181.365 226.605 181.365 226.462C181.365 226.318 193.616 226.202 208.732 226.202C223.844 226.202 236.097 226.318 236.097 226.462Z" fill="#263238"/>
<path d="M236.097 237.412C236.097 237.556 223.844 237.672 208.732 237.672C193.615 237.672 181.365 237.555 181.365 237.412C181.365 237.268 193.616 237.152 208.732 237.152C223.844 237.152 236.097 237.268 236.097 237.412Z" fill="#263238"/>
<path d="M220.182 193.944C220.182 194.088 211.931 194.204 201.756 194.204C191.577 194.204 183.328 194.087 183.328 193.944C183.328 193.801 191.577 193.684 201.756 193.684C211.931 193.684 220.182 193.8 220.182 193.944Z" fill="#263238"/>
<path d="M238.47 193.832C238.47 193.976 235.389 194.092 231.59 194.092C227.789 194.092 224.709 193.975 224.709 193.832C224.709 193.688 227.789 193.572 231.59 193.572C235.389 193.572 238.47 193.688 238.47 193.832Z" fill="#263238"/>
<path d="M238.47 204.584C238.47 204.728 230.25 204.844 220.113 204.844C209.972 204.844 201.755 204.727 201.755 204.584C201.755 204.441 209.973 204.324 220.113 204.324C230.25 204.323 238.47 204.44 238.47 204.584Z" fill="#263238"/>
<path d="M220.182 215.448C220.182 215.592 211.931 215.708 201.756 215.708C191.577 215.708 183.328 215.591 183.328 215.448C183.328 215.304 191.577 215.188 201.756 215.188C211.931 215.187 220.182 215.304 220.182 215.448Z" fill="#263238"/>
<path d="M238.47 215.335C238.47 215.479 235.389 215.595 231.59 215.595C227.789 215.595 224.709 215.478 224.709 215.335C224.709 215.192 227.789 215.075 231.59 215.075C235.389 215.075 238.47 215.191 238.47 215.335Z" fill="#263238"/>
<path d="M194.47 204.334C194.47 204.478 192.2 204.594 189.4 204.594C186.599 204.594 184.33 204.477 184.33 204.334C184.33 204.191 186.6 204.074 189.4 204.074C192.201 204.073 194.47 204.19 194.47 204.334Z" fill="#263238"/>
<path d="M179.845 296.39C179.845 296.534 157.127 296.65 129.11 296.65C101.083 296.65 78.37 296.533 78.37 296.39C78.37 296.247 101.083 296.13 129.11 296.13C157.128 296.129 179.845 296.246 179.845 296.39Z" fill="#263238"/>
<path d="M181.371 308.093C181.371 308.237 158.653 308.353 130.636 308.353C102.609 308.353 79.896 308.236 79.896 308.093C79.896 307.95 102.609 307.833 130.636 307.833C158.653 307.833 181.371 307.949 181.371 308.093Z" fill="#263238"/>
<path d="M246.161 67.812H54.496V320.35H246.161V67.812Z" fill="white"/>
<path d="M246.161 320.349C246.159 318.282 246.065 217.49 245.926 67.812L246.161 68.047C188.742 68.055 123.463 68.063 54.518 68.073H54.497L54.757 67.813C54.74 161.767 54.724 248.898 54.711 320.35L54.497 320.136C170.382 320.265 244.387 320.348 246.161 320.349C244.388 320.351 170.382 320.434 54.496 320.563H54.282V320.349C54.269 248.896 54.253 161.765 54.236 67.812V67.552H54.497H54.518C123.463 67.561 188.742 67.57 246.161 67.578H246.396V67.813C246.257 217.49 246.163 318.284 246.161 320.349Z" fill="#263238"/>
<path d="M246.161 86.262C246.161 86.347 203.252 86.416 150.333 86.416C97.396 86.416 54.496 86.347 54.496 86.262C54.496 86.177 97.396 86.108 150.333 86.108C203.252 86.107 246.161 86.177 246.161 86.262Z" fill="#263238"/>
<path d="M187.426 77.631C187.426 77.716 172.788 77.785 154.735 77.785C136.676 77.785 122.041 77.716 122.041 77.631C122.041 77.546 136.676 77.477 154.735 77.477C172.787 77.476 187.426 77.546 187.426 77.631Z" fill="#455A64"/>
<path d="M61.957 79.75C63.1273 79.75 64.076 78.8013 64.076 77.631C64.076 76.4607 63.1273 75.512 61.957 75.512C60.7867 75.512 59.838 76.4607 59.838 77.631C59.838 78.8013 60.7867 79.75 61.957 79.75Z" fill="#E0E0E0"/>
<path d="M71.262 77.631C71.262 78.801 70.313 79.75 69.143 79.75C67.973 79.75 67.024 78.801 67.024 77.631C67.024 76.461 67.973 75.512 69.143 75.512C70.313 75.512 71.262 76.46 71.262 77.631Z" fill="#E0E0E0"/>
<path d="M78.447 77.631C78.447 78.801 77.498 79.75 76.328 79.75C75.158 79.75 74.209 78.801 74.209 77.631C74.209 76.461 75.158 75.512 76.328 75.512C77.499 75.512 78.447 76.46 78.447 77.631Z" fill="#E0E0E0"/>
<path d="M127.41 112.063H123.018L122.18 114.09H119.937L124.154 104.63H126.316L130.545 114.09H128.248L127.41 112.063ZM126.721 110.401L125.221 106.779L123.721 110.401H126.721Z" fill="#455A64"/>
<path d="M137.557 114.09L135.733 111.455H135.625H133.72V114.09H131.531V104.63H135.626C138.153 104.63 139.734 105.941 139.734 108.062C139.734 109.481 139.018 110.522 137.788 111.049L139.91 114.09H137.557ZM135.503 106.414H133.72V109.711H135.503C136.841 109.711 137.517 109.089 137.517 108.062C137.516 107.022 136.841 106.414 135.503 106.414Z" fill="#455A64"/>
<path d="M143.285 106.414H140.258V104.63H148.501V106.414H145.474V114.09H143.285V106.414Z" fill="#455A64"/>
<path d="M149.676 104.63H151.865V114.09H149.676V104.63Z" fill="#455A64"/>
<path d="M153.513 109.36C153.513 106.509 155.702 104.468 158.648 104.468C160.283 104.468 161.648 105.063 162.54 106.144L161.134 107.441C160.499 106.711 159.701 106.333 158.756 106.333C156.986 106.333 155.729 107.576 155.729 109.36C155.729 111.144 156.986 112.387 158.756 112.387C159.702 112.387 160.499 112.009 161.134 111.266L162.54 112.563C161.648 113.658 160.283 114.252 158.635 114.252C155.702 114.252 153.513 112.212 153.513 109.36Z" fill="#455A64"/>
<path d="M164.011 104.63H166.2V112.306H170.943V114.09H164.011V104.63Z" fill="#455A64"/>
<path d="M179.496 112.333V114.09H172.172V104.63H179.32V106.387H174.347V108.441H178.739V110.144H174.347V112.333H179.496Z" fill="#455A64"/>
<path d="M115.261 110.206C115.261 110.291 105.115 110.36 92.603 110.36C80.086 110.36 69.943 110.291 69.943 110.206C69.943 110.121 80.086 110.052 92.603 110.052C105.116 110.052 115.261 110.121 115.261 110.206Z" fill="#263238"/>
<path d="M235.757 110.206C235.757 110.291 225.105 110.36 211.968 110.36C198.826 110.36 188.176 110.291 188.176 110.206C188.176 110.121 198.826 110.052 211.968 110.052C225.105 110.052 235.757 110.121 235.757 110.206Z" fill="#263238"/>
<path d="M227.171 263.191H181.206V307.661H227.171V263.191Z" fill="#455A64"/>
<g opacity="0.3">
<path d="M184.77 303.855L197.485 280.971L207.886 295.597L214.205 287.83L223.607 303.855H184.77Z" fill="black"/>
</g>
<g opacity="0.3">
<path d="M211.431 274.097C214.128 277.638 210.125 281.64 206.584 278.943C203.889 275.402 207.891 271.401 211.431 274.097Z" fill="black"/>
</g>
<g opacity="0.3">
<path d="M223.607 303.979C223.604 303.976 223.6 303.914 223.596 303.797C223.594 303.664 223.59 303.494 223.586 303.279C223.581 302.806 223.574 302.138 223.564 301.278C223.553 299.514 223.536 296.964 223.515 293.726C223.492 287.231 223.458 277.981 223.419 266.875L223.607 267.063C212.359 267.072 199.025 267.083 184.774 267.094C184.722 267.14 185.185 266.682 184.989 266.881V266.891V266.911V266.951V267.03V267.189V267.506V268.14V269.403C184.989 270.243 184.989 271.08 184.989 271.913C184.989 273.579 184.988 275.23 184.988 276.864C184.986 280.132 184.984 283.331 184.983 286.446C184.976 292.674 184.969 298.562 184.962 303.979L184.771 303.788C196.363 303.828 206.045 303.862 212.851 303.885C216.245 303.906 218.921 303.923 220.771 303.935C221.675 303.945 222.376 303.952 222.872 303.957C223.099 303.961 223.277 303.965 223.416 303.968C223.539 303.971 223.604 303.975 223.607 303.979C223.611 303.982 223.553 303.986 223.437 303.99C223.303 303.993 223.132 303.997 222.913 304.001C222.426 304.006 221.737 304.014 220.849 304.023C219.009 304.035 216.347 304.051 212.972 304.073C206.135 304.097 196.411 304.13 184.769 304.17L184.578 304.171V303.979C184.571 298.562 184.564 292.674 184.557 286.446C184.555 283.331 184.553 280.131 184.551 276.864C184.551 275.23 184.55 273.579 184.55 271.913C184.55 271.08 184.55 270.243 184.55 269.403V268.14V267.506V267.189V267.03V266.951V266.911V266.891V266.881C184.355 267.073 184.816 266.607 184.773 266.656C199.025 266.667 212.358 266.678 223.606 266.687L223.795 266.688L223.794 266.876C223.754 278.031 223.721 287.322 223.698 293.846C223.677 297.066 223.661 299.603 223.649 301.356C223.639 302.201 223.632 302.857 223.627 303.321C223.623 303.528 223.619 303.691 223.616 303.819C223.614 303.928 223.611 303.982 223.607 303.979Z" fill="black"/>
</g>
<path d="M114.472 127.049C114.472 127.193 104.422 127.309 92.026 127.309C79.627 127.309 69.578 127.192 69.578 127.049C69.578 126.905 79.626 126.789 92.026 126.789C104.422 126.788 114.472 126.905 114.472 127.049Z" fill="#263238"/>
<path d="M149.094 137.823C149.094 137.967 131.293 138.083 109.339 138.083C87.377 138.083 69.58 137.966 69.58 137.823C69.58 137.68 87.377 137.563 109.339 137.563C131.292 137.563 149.094 137.679 149.094 137.823Z" fill="#263238"/>
<path d="M176.277 137.036C176.277 137.18 171.454 137.296 165.506 137.296C159.556 137.296 154.734 137.179 154.734 137.036C154.734 136.892 159.556 136.776 165.506 136.776C171.454 136.775 176.277 136.892 176.277 137.036Z" fill="#263238"/>
<path d="M228.99 136.577C228.99 136.721 219.036 136.837 206.76 136.837C194.48 136.837 184.528 136.72 184.528 136.577C184.528 136.433 194.48 136.317 206.76 136.317C219.036 136.317 228.99 136.433 228.99 136.577Z" fill="#263238"/>
<path d="M228.531 145.745C228.531 145.889 192.82 146.005 148.777 146.005C104.72 146.005 69.016 145.888 69.016 145.745C69.016 145.601 104.72 145.485 148.777 145.485C192.82 145.484 228.531 145.601 228.531 145.745Z" fill="#263238"/>
<path d="M143.274 155.37C143.274 155.514 126.752 155.63 106.377 155.63C85.994 155.63 69.476 155.513 69.476 155.37C69.476 155.226 85.994 155.11 106.377 155.11C126.752 155.11 143.274 155.227 143.274 155.37Z" fill="#263238"/>
<path d="M170.318 155.37C170.318 155.514 165.803 155.63 160.234 155.63C154.664 155.63 150.149 155.513 150.149 155.37C150.149 155.226 154.663 155.11 160.234 155.11C165.802 155.11 170.318 155.227 170.318 155.37Z" fill="#263238"/>
<path d="M228.531 154.454C228.531 154.598 216.935 154.714 202.634 154.714C188.328 154.714 176.735 154.597 176.735 154.454C176.735 154.311 188.328 154.194 202.634 154.194C216.935 154.193 228.531 154.31 228.531 154.454Z" fill="#263238"/>
<path d="M148.09 237.851C148.09 237.995 130.289 238.111 108.335 238.111C86.373 238.111 68.576 237.994 68.576 237.851C68.576 237.708 86.374 237.591 108.335 237.591C130.288 237.59 148.09 237.707 148.09 237.851Z" fill="#263238"/>
<path d="M175.272 237.063C175.272 237.207 170.449 237.323 164.501 237.323C158.551 237.323 153.729 237.206 153.729 237.063C153.729 236.919 158.551 236.803 164.501 236.803C170.449 236.803 175.272 236.92 175.272 237.063Z" fill="#263238"/>
<path d="M227.986 236.605C227.986 236.749 218.032 236.865 205.756 236.865C193.476 236.865 183.524 236.748 183.524 236.605C183.524 236.461 193.476 236.345 205.756 236.345C218.032 236.345 227.986 236.461 227.986 236.605Z" fill="#263238"/>
<path d="M227.527 245.773C227.527 245.917 191.816 246.033 147.773 246.033C103.716 246.033 68.012 245.916 68.012 245.773C68.012 245.629 103.716 245.513 147.773 245.513C191.816 245.512 227.527 245.629 227.527 245.773Z" fill="#263238"/>
<path d="M142.27 255.398C142.27 255.542 125.748 255.658 105.373 255.658C84.99 255.658 68.472 255.541 68.472 255.398C68.472 255.254 84.99 255.138 105.373 255.138C125.748 255.138 142.27 255.255 142.27 255.398Z" fill="#263238"/>
<path d="M169.314 255.398C169.314 255.542 164.799 255.658 159.23 255.658C153.66 255.658 149.145 255.541 149.145 255.398C149.145 255.254 153.659 255.138 159.23 255.138C164.798 255.138 169.314 255.255 169.314 255.398Z" fill="#263238"/>
<path d="M227.527 254.482C227.527 254.626 215.931 254.742 201.63 254.742C187.324 254.742 175.731 254.625 175.731 254.482C175.731 254.339 187.324 254.222 201.63 254.222C215.931 254.221 227.527 254.338 227.527 254.482Z" fill="#263238"/>
<path d="M170.318 265.959C170.318 266.103 147.778 266.219 119.98 266.219C92.172 266.219 69.637 266.102 69.637 265.959C69.637 265.815 92.172 265.699 119.98 265.699C147.778 265.699 170.318 265.816 170.318 265.959Z" fill="#263238"/>
<path d="M169.314 276.52C169.314 276.664 146.821 276.78 119.081 276.78C91.331 276.78 68.843 276.663 68.843 276.52C68.843 276.377 91.331 276.26 119.081 276.26C146.821 276.26 169.314 276.376 169.314 276.52Z" fill="#263238"/>
<path d="M166.534 165.559H68.91V227.885H166.534V165.559Z" fill="#FF725E"/>
<path d="M162.334 222.928C162.334 222.928 162.32 222.59 162.312 221.955C162.307 221.305 162.299 220.368 162.289 219.147C162.277 216.676 162.26 213.067 162.238 208.44C162.212 199.182 162.176 185.86 162.131 169.539L162.334 169.742C138.42 169.758 107.514 169.778 73.872 169.799H73.865L74.125 169.539C74.118 188.453 74.112 206.502 74.106 222.928L73.865 222.687C99.786 222.735 121.87 222.776 137.492 222.805C145.306 222.833 151.5 222.855 155.76 222.87C157.878 222.883 159.511 222.893 160.634 222.899C161.179 222.905 161.597 222.91 161.896 222.913C162.182 222.918 162.334 222.928 162.334 222.928C162.334 222.928 162.201 222.937 161.925 222.942C161.632 222.945 161.223 222.95 160.69 222.956C159.578 222.963 157.961 222.973 155.865 222.985C151.618 223 145.442 223.022 137.651 223.05C121.99 223.079 99.85 223.12 73.865 223.168H73.624V222.926C73.618 206.5 73.612 188.452 73.605 169.537V169.277H73.866H73.873C107.515 169.299 138.422 169.319 162.335 169.334H162.539L162.538 169.537C162.493 185.911 162.456 199.275 162.431 208.563C162.409 213.171 162.391 216.764 162.38 219.225C162.37 220.43 162.363 221.354 162.357 221.995C162.349 222.619 162.334 222.928 162.334 222.928Z" fill="#263238"/>
<g opacity="0.2">
<path d="M76.256 222.928L101.847 189.948L120.341 211.071L134.494 198.332L160.233 222.928H76.256Z" fill="black"/>
</g>
<g opacity="0.2">
<path d="M126.064 186.023C126.064 189.174 123.51 191.729 120.358 191.729C117.207 191.729 114.652 189.174 114.652 186.023C114.652 182.872 117.206 180.317 120.358 180.317C123.51 180.318 126.064 182.872 126.064 186.023Z" fill="black"/>
</g>
<path d="M228.531 165.015C228.531 165.159 216.278 165.275 201.166 165.275C186.049 165.275 173.799 165.158 173.799 165.015C173.799 164.871 186.05 164.755 201.166 164.755C216.278 164.755 228.531 164.871 228.531 165.015Z" fill="#263238"/>
<path d="M228.531 174.716C228.531 174.86 216.278 174.976 201.166 174.976C186.049 174.976 173.799 174.859 173.799 174.716C173.799 174.573 186.05 174.456 201.166 174.456C216.278 174.455 228.531 174.572 228.531 174.716Z" fill="#263238"/>
<path d="M226.569 216.934C226.569 217.078 214.316 217.194 199.204 217.194C184.087 217.194 171.837 217.077 171.837 216.934C171.837 216.79 184.088 216.674 199.204 216.674C214.316 216.674 226.569 216.791 226.569 216.934Z" fill="#263238"/>
<path d="M226.569 227.884C226.569 228.028 214.316 228.144 199.204 228.144C184.087 228.144 171.837 228.027 171.837 227.884C171.837 227.74 184.088 227.624 199.204 227.624C214.316 227.624 226.569 227.74 226.569 227.884Z" fill="#263238"/>
<path d="M210.654 184.417C210.654 184.561 202.403 184.677 192.227 184.677C182.048 184.677 173.799 184.56 173.799 184.417C173.799 184.273 182.048 184.157 192.227 184.157C202.403 184.156 210.654 184.273 210.654 184.417Z" fill="#263238"/>
<path d="M228.942 184.304C228.942 184.448 225.861 184.564 222.062 184.564C218.261 184.564 215.181 184.447 215.181 184.304C215.181 184.161 218.261 184.044 222.062 184.044C225.861 184.044 228.942 184.16 228.942 184.304Z" fill="#263238"/>
<path d="M228.942 195.056C228.942 195.2 220.722 195.316 210.585 195.316C200.444 195.316 192.227 195.199 192.227 195.056C192.227 194.912 200.445 194.796 210.585 194.796C220.723 194.796 228.942 194.912 228.942 195.056Z" fill="#263238"/>
<path d="M210.654 205.92C210.654 206.064 202.403 206.18 192.227 206.18C182.048 206.18 173.799 206.063 173.799 205.92C173.799 205.776 182.048 205.66 192.227 205.66C202.403 205.66 210.654 205.776 210.654 205.92Z" fill="#263238"/>
<path d="M228.942 205.808C228.942 205.952 225.861 206.068 222.062 206.068C218.261 206.068 215.181 205.951 215.181 205.808C215.181 205.665 218.261 205.548 222.062 205.548C225.861 205.547 228.942 205.664 228.942 205.808Z" fill="#263238"/>
<path d="M184.943 194.806C184.943 194.95 182.673 195.066 179.873 195.066C177.072 195.066 174.803 194.949 174.803 194.806C174.803 194.662 177.073 194.546 179.873 194.546C182.673 194.546 184.943 194.662 184.943 194.806Z" fill="#263238"/>
<path d="M170.318 286.862C170.318 287.006 147.6 287.122 119.583 287.122C91.556 287.122 68.843 287.005 68.843 286.862C68.843 286.719 91.556 286.602 119.583 286.602C147.6 286.602 170.318 286.718 170.318 286.862Z" fill="#263238"/>
<path d="M171.844 298.565C171.844 298.709 149.126 298.825 121.109 298.825C93.082 298.825 70.369 298.708 70.369 298.565C70.369 298.422 93.082 298.305 121.109 298.305C149.126 298.305 171.844 298.422 171.844 298.565Z" fill="#263238"/>
<path d="M50.69 212.734C58.0829 212.734 64.076 206.741 64.076 199.348C64.076 191.955 58.0829 185.962 50.69 185.962C43.2971 185.962 37.304 191.955 37.304 199.348C37.304 206.741 43.2971 212.734 50.69 212.734Z" fill="#EBEBEB"/>
<path d="M64.076 199.348C63.998 199.355 64.081 198.154 63.559 196.104C63.043 194.094 61.7 191.139 58.677 188.854C57.179 187.738 55.294 186.79 53.12 186.411C50.962 186.045 48.527 186.117 46.211 187.001C45.045 187.407 43.921 188.021 42.889 188.795C41.844 189.554 40.896 190.496 40.115 191.587C38.5 193.737 37.59 196.499 37.564 199.346C37.59 202.194 38.499 204.957 40.114 207.108C40.895 208.2 41.844 209.142 42.888 209.901C43.921 210.675 45.045 211.289 46.211 211.695C48.527 212.579 50.962 212.65 53.12 212.285C55.293 211.905 57.179 210.958 58.677 209.842C61.7 207.557 63.042 204.602 63.558 202.592C64.081 200.541 63.998 199.341 64.076 199.348C64.094 199.348 64.097 199.642 64.085 200.204C64.086 200.486 64.072 200.834 64.005 201.241C63.952 201.649 63.901 202.124 63.756 202.641C63.292 204.695 61.979 207.746 58.902 210.134C57.378 211.3 55.443 212.298 53.201 212.709C50.975 213.106 48.456 213.049 46.049 212.146C44.838 211.73 43.669 211.1 42.594 210.301C41.507 209.517 40.52 208.542 39.705 207.411C38.022 205.182 37.07 202.306 37.045 199.347C37.071 196.389 38.023 193.514 39.706 191.286C40.521 190.155 41.508 189.18 42.595 188.397C43.67 187.598 44.839 186.968 46.05 186.552C48.457 185.649 50.976 185.592 53.202 185.989C55.444 186.4 57.378 187.397 58.903 188.563C61.981 190.951 63.294 194.002 63.758 196.056C63.903 196.573 63.954 197.047 64.008 197.456C64.075 197.863 64.089 198.211 64.088 198.493C64.097 199.054 64.094 199.348 64.076 199.348Z" fill="#263238"/>
<path d="M251.442 212.734C258.835 212.734 264.828 206.741 264.828 199.348C264.828 191.955 258.835 185.962 251.442 185.962C244.049 185.962 238.056 191.955 238.056 199.348C238.056 206.741 244.049 212.734 251.442 212.734Z" fill="#EBEBEB"/>
<path d="M264.828 199.348C264.75 199.355 264.833 198.154 264.311 196.104C263.795 194.094 262.453 191.139 259.429 188.854C257.931 187.738 256.046 186.79 253.873 186.411C251.714 186.045 249.28 186.117 246.964 187.001C245.798 187.407 244.674 188.021 243.642 188.795C242.597 189.554 241.65 190.496 240.868 191.587C239.253 193.737 238.343 196.499 238.317 199.346C238.343 202.194 239.252 204.957 240.867 207.108C241.648 208.2 242.597 209.142 243.641 209.901C244.674 210.675 245.798 211.289 246.964 211.695C249.28 212.579 251.715 212.65 253.873 212.285C256.046 211.905 257.932 210.958 259.43 209.842C262.453 207.557 263.795 204.602 264.311 202.592C264.833 200.541 264.75 199.341 264.828 199.348C264.846 199.348 264.849 199.642 264.837 200.204C264.838 200.486 264.824 200.834 264.757 201.241C264.704 201.649 264.653 202.124 264.507 202.641C264.043 204.695 262.731 207.746 259.653 210.134C258.129 211.3 256.194 212.298 253.952 212.709C251.726 213.106 249.207 213.049 246.8 212.146C245.589 211.73 244.42 211.1 243.345 210.301C242.258 209.517 241.271 208.542 240.456 207.411C238.773 205.182 237.821 202.306 237.796 199.347C237.822 196.389 238.774 193.514 240.457 191.286C241.272 190.155 242.259 189.18 243.346 188.397C244.421 187.598 245.59 186.968 246.8 186.552C249.207 185.649 251.726 185.592 253.952 185.989C256.194 186.4 258.128 187.397 259.653 188.563C262.731 190.951 264.044 194.002 264.508 196.056C264.653 196.573 264.704 197.047 264.757 197.456C264.824 197.863 264.838 198.211 264.837 198.493C264.848 199.054 264.846 199.348 264.828 199.348Z" fill="#263238"/>
<path d="M249.854 203.747C249.711 203.747 249.569 203.686 249.47 203.568C249.293 203.356 249.32 203.041 249.532 202.863L253.725 199.347L249.532 195.83C249.32 195.652 249.293 195.337 249.47 195.125C249.648 194.914 249.963 194.887 250.174 195.063L254.824 198.963C254.937 199.058 255.003 199.198 255.003 199.346C255.003 199.494 254.938 199.634 254.824 199.729L250.174 203.628C250.081 203.709 249.967 203.747 249.854 203.747Z" fill="#263238"/>
<path d="M53.015 203.747C52.902 203.747 52.788 203.708 52.694 203.63L48.044 199.731C47.931 199.636 47.865 199.496 47.865 199.348C47.865 199.2 47.93 199.06 48.044 198.965L52.694 195.065C52.907 194.889 53.221 194.916 53.399 195.127C53.576 195.338 53.548 195.654 53.337 195.832L49.144 199.349L53.337 202.865C53.548 203.043 53.576 203.358 53.399 203.57C53.3 203.686 53.158 203.747 53.015 203.747Z" fill="#263238"/>
<path d="M303.545 331.012L280.147 408.023L230.951 431.388L234.207 457.816L280.391 446.819C304.611 441.92 317.321 432.862 322.686 410.118L331.95 379.835L303.545 331.012Z" fill="#FF725E"/>
<path d="M421.731 308.955C421.732 308.991 421.235 309.031 420.339 309.101C419.445 309.174 418.146 309.271 416.576 309.565C415.011 309.862 413.176 310.404 411.337 311.433C409.515 312.464 407.55 313.781 405.859 315.499C404.193 317.264 402.913 319.223 401.896 321.074C400.873 322.925 400.094 324.671 399.485 326.155C398.879 327.64 398.437 328.862 398.133 329.708C397.832 330.555 397.66 331.023 397.626 331.013C397.596 331.004 397.706 330.517 397.952 329.65C398.202 328.784 398.596 327.539 399.164 326.029C399.736 324.521 400.488 322.746 401.501 320.86C402.509 318.975 403.796 316.975 405.506 315.163C407.264 313.381 409.242 312.076 411.122 311.038C413.016 310.007 414.917 309.483 416.514 309.226C418.117 308.972 419.427 308.928 420.327 308.912C421.232 308.9 421.73 308.924 421.731 308.955Z" fill="#263238"/>
<path d="M249.51 436.116L264.073 426.464C265.524 425.543 267.255 425.169 268.957 425.409L280.101 426.98L305.637 439.787L318.49 438.799L317.441 461.045C317.441 461.045 306.06 461.027 301.615 460.028C297.17 459.028 291.162 454.69 291.162 454.69C291.162 454.69 292.532 457.018 291.686 458.72C290.84 460.423 284.703 462.829 284.703 462.829C284.703 462.829 280.381 464.087 279.801 461.053C279.801 461.053 272.267 461.63 271.855 455.605C271.855 455.605 260.534 453.026 262.457 447.857C263.885 444.017 265.279 441.232 265.279 441.232L269.071 433.943L265.321 433.073C265.321 433.073 258.184 437.801 255.165 438.132C252.146 438.463 249.51 436.116 249.51 436.116Z" fill="#FFBE9D"/>
<path d="M277.715 438.586C277.76 438.669 276.637 439.15 275.18 440.408C273.753 441.65 271.974 443.79 271.244 446.605C270.932 448.014 270.982 449.428 271.079 450.692C271.193 451.96 271.38 453.098 271.551 454.052C271.902 455.958 272.157 457.136 272.085 457.153C272.053 457.161 271.949 456.877 271.794 456.355C271.638 455.833 271.431 455.072 271.214 454.121C270.999 453.169 270.774 452.026 270.633 450.735C270.511 449.447 270.44 447.996 270.77 446.497C271.544 443.518 273.435 441.359 274.96 440.144C275.733 439.532 276.426 439.13 276.92 438.893C277.413 438.652 277.703 438.56 277.715 438.586Z" fill="#EB996E"/>
<path d="M283.418 445.189C283.407 445.234 283.128 445.163 282.625 445.166C282.127 445.176 281.393 445.306 280.622 445.755C279.856 446.194 279.045 446.949 278.529 447.999C278.015 449.052 277.799 450.37 277.86 451.742C277.913 453.123 278.207 454.415 278.463 455.608C278.716 456.797 278.961 457.861 279.2 458.745C279.673 460.516 280.103 461.57 280.033 461.6C280.005 461.612 279.856 461.366 279.643 460.894C279.43 460.422 279.15 459.725 278.869 458.843C278.584 457.962 278.302 456.895 278.024 455.707C277.746 454.529 277.427 453.197 277.372 451.762C277.309 450.331 277.546 448.929 278.127 447.797C278.714 446.664 279.611 445.885 280.456 445.453C281.306 445.011 282.107 444.927 282.63 444.977C283.16 445.034 283.425 445.169 283.418 445.189Z" fill="#EB996E"/>
<path d="M287.332 454.782C287.283 454.749 287.391 454.485 287.734 454.213C288.071 453.941 288.633 453.685 289.296 453.632C289.955 453.574 290.591 453.765 290.924 454.087C291.263 454.405 291.287 454.708 291.237 454.722C291.166 454.756 291.029 454.541 290.718 454.363C290.414 454.176 289.906 454.071 289.334 454.117C288.153 454.189 287.422 454.857 287.332 454.782Z" fill="#EB996E"/>
<path d="M288.274 450.339C288.324 450.3 288.537 450.506 288.664 450.927C288.794 451.342 288.854 451.941 288.767 452.59C288.681 453.239 288.451 453.814 288.165 454.159C287.884 454.512 287.597 454.6 287.571 454.548C287.53 454.484 287.71 454.313 287.876 453.972C288.05 453.634 288.205 453.118 288.284 452.525C288.363 451.933 288.362 451.385 288.327 450.997C288.297 450.606 288.215 450.379 288.274 450.339Z" fill="#EB996E"/>
<path d="M262.458 447.857C262.427 447.843 262.543 447.525 262.777 446.963C263.011 446.401 263.365 445.595 263.811 444.603C264.703 442.62 265.966 439.894 267.388 436.897C267.901 435.824 268.395 434.79 268.857 433.825L268.875 433.788L268.901 433.762C269.823 432.848 270.924 432.279 271.955 432.006C272.988 431.717 273.949 431.703 274.722 431.8C275.497 431.899 276.09 432.102 276.474 432.277C276.857 432.458 277.046 432.588 277.035 432.608C277.005 432.687 276.196 432.208 274.693 432.092C273.237 431.968 270.952 432.348 269.234 434.088L269.278 434.025C268.822 434.992 268.334 436.03 267.827 437.106C266.405 440.103 265.093 442.805 264.121 444.751C263.635 445.724 263.234 446.508 262.947 447.044C262.661 447.582 262.488 447.872 262.458 447.857Z" fill="#EB996E"/>
<path d="M447.677 404.253C447.677 404.253 445.413 335.568 442.524 326.076C439.635 316.584 436.101 311.366 428.956 306.748C420.817 301.487 392.36 295.534 391.386 294.665L343.513 295.613L340.636 295.932C324.317 297.74 310.215 308.66 305.06 324.249C304.862 324.847 304.672 325.457 304.491 326.077C298.692 345.926 321.437 374.466 321.435 373.212C321.491 379.139 321.881 384.818 322.893 388.869C326.195 402.08 355.083 424.248 356.734 430.703C358.385 437.159 359.221 464.75 359.221 464.75C359.221 464.75 404.334 465.092 424.522 464.991C440.932 464.909 476.037 464.75 476.037 464.75L447.677 404.253Z" fill="#FF725E"/>
<path d="M319.786 322.811C319.802 322.806 319.892 323.075 320.05 323.594C320.2 324.114 320.459 324.874 320.658 325.886C321.128 327.891 321.585 330.855 321.698 334.539C321.825 338.222 321.647 342.611 321.24 347.456C320.861 352.304 320.276 357.615 319.997 363.207C319.702 368.797 319.811 374.146 320.521 378.938C321.207 383.732 322.542 387.922 324.045 391.255C325.553 394.595 327.222 397.065 328.4 398.739C329.007 399.565 329.518 400.177 329.84 400.612C330.169 401.042 330.335 401.273 330.323 401.284C330.31 401.295 330.119 401.085 329.765 400.675C329.418 400.26 328.882 399.665 328.249 398.853C327.018 397.206 325.294 394.749 323.732 391.399C322.176 388.057 320.793 383.835 320.077 379.005C319.337 374.178 319.214 368.792 319.51 363.183C319.79 357.571 320.39 352.258 320.793 347.42C321.223 342.584 321.436 338.216 321.354 334.55C321.285 330.883 320.883 327.933 320.472 325.926C320.302 324.913 320.074 324.149 319.955 323.622C319.829 323.095 319.77 322.815 319.786 322.811Z" fill="#263238"/>
<g opacity="0.3">
<path d="M435.156 354.247C425.168 385.635 417.401 417.729 411.932 450.21L406.621 459.607C413.304 458.676 418.89 453.735 422.293 447.908C425.696 442.081 427.262 435.393 428.783 428.819C434.454 404.316 440.146 378.898 435.156 354.247Z" fill="black"/>
</g>
<path d="M314.946 436.356L381.725 428.577C381.725 428.577 395.675 344.134 396.064 342.632C396.453 341.13 401.122 314.836 414.351 312.582C427.58 310.328 439.641 315.587 440.419 328.358C441.041 338.574 426.221 411.931 416.881 445.902C414.195 455.672 403.485 464.323 393.017 464.52C365.727 465.035 315.257 464.52 315.257 464.52L314.946 436.356Z" fill="#FF725E"/>
<path d="M396.064 342.631C395.798 344.249 390.489 376.525 381.921 428.609L381.898 428.749L381.758 428.773C362.092 432.144 339.653 432.593 315.224 436.78L315.42 436.545C315.508 444.357 315.403 456.072 315.498 464.517L315.259 464.278C323.34 464.334 331.869 464.394 340.523 464.454C354.654 464.519 368.45 464.534 381.772 464.43C385.102 464.388 388.403 464.347 391.672 464.306C394.93 464.322 398.131 463.796 401.061 462.527C406.907 460.065 411.85 455.72 414.773 450.401L415.313 449.402L415.763 448.365C416.091 447.685 416.295 446.962 416.533 446.254C416.967 444.818 417.321 443.351 417.715 441.916C418.5 439.04 419.199 436.182 419.912 433.373C421.315 427.747 422.617 422.27 423.841 416.966C426.287 406.358 428.435 396.447 430.338 387.386C434.1 369.257 436.889 354.532 438.526 344.308C438.937 341.752 439.299 339.482 439.553 337.506C439.688 336.52 439.812 335.609 439.926 334.775C440.013 333.94 440.091 333.182 440.162 332.504C440.336 331.151 440.353 330.113 440.371 329.415C440.395 328.717 440.42 328.359 440.42 328.359C440.42 328.359 440.429 328.716 440.421 329.415C440.419 330.115 440.419 331.157 440.26 332.513C440.196 333.193 440.126 333.953 440.047 334.79C439.94 335.625 439.823 336.538 439.697 337.526C439.457 339.506 439.109 341.78 438.713 344.339C437.133 354.576 434.395 369.314 430.675 387.457C428.793 396.524 426.664 406.441 424.234 417.057C423.018 422.364 421.724 427.846 420.327 433.477C419.616 436.29 418.921 439.149 418.138 442.03C417.744 443.471 417.395 444.926 416.957 446.383C416.715 447.107 416.506 447.847 416.172 448.541L415.713 449.6L415.164 450.618C412.189 456.039 407.185 460.445 401.236 462.958C398.27 464.251 394.954 464.795 391.679 464.779C388.409 464.822 385.107 464.865 381.775 464.909C368.449 465.02 354.651 465.009 340.519 464.943C331.864 464.882 323.335 464.821 315.252 464.763L315.015 464.761L315.012 464.524C314.921 456.079 315.03 444.364 314.946 436.552L314.944 436.35L315.143 436.316C339.577 432.156 362.02 431.731 381.69 428.382L381.527 428.546C385.889 402.462 389.482 380.981 391.986 366.009C393.263 358.539 394.262 352.695 394.944 348.707C395.296 346.727 395.566 345.21 395.75 344.177C395.942 343.152 396.064 342.631 396.064 342.631Z" fill="#263238"/>
<g opacity="0.3">
<path d="M319.095 368.698C318.925 358.204 321.919 347.193 321.875 335.788C318.431 344.785 316.117 354.215 315.003 363.784C314.239 370.348 314.055 377.114 315.931 383.451C317.807 389.788 322 395.689 328.049 398.351C321.78 389.933 319.265 379.192 319.095 368.698Z" fill="black"/>
</g>
<path d="M316.95 242.197C311.551 238.399 308.725 231.242 310.064 224.76C310.214 224.033 310.403 223.235 310.052 222.581C309.751 222.02 309.133 221.724 308.572 221.427C305.487 219.794 302.965 216.966 302.06 213.583C301.155 210.2 302.024 206.305 304.548 203.889C299.45 202.135 297.228 195.291 299.566 190.414C301.904 185.537 307.741 182.962 313.099 183.535C311.223 180.825 311.981 176.887 314.157 174.413C316.332 171.939 319.592 170.702 322.817 170.072C327.156 169.225 332.383 169.673 334.913 173.314C335.118 170.602 337.807 168.74 340.428 168.058C347.461 166.229 355.526 170.758 357.658 177.735C359.881 176.061 362.452 174.634 365.23 174.575C368.008 174.516 370.971 176.196 371.618 178.911C372.764 176.412 375.744 175.349 378.47 175.071C380.437 174.87 382.517 174.967 384.25 175.926C385.982 176.885 387.256 178.885 386.874 180.835C390.43 179.429 394.919 181.167 396.615 184.608C398.312 188.048 396.97 192.688 393.701 194.678C396.638 196.278 398.648 199.474 398.824 202.826C399 206.177 397.336 209.568 394.583 211.469C396.243 211.588 397.098 213.821 396.372 215.325C395.646 216.829 393.935 217.601 392.29 217.858C393.013 223.576 393.736 229.295 394.459 235.013C394.925 238.703 395.39 242.467 394.689 246.12C393.988 249.772 391.911 253.36 388.545 254.909" fill="#263238"/>
<path d="M314.971 225.675C313.953 211.748 326.882 195.921 340.777 195.491L386.357 197.867L387.225 205.317L393.094 299.545L351.468 336.597L346.205 294.221C346.205 294.221 328.243 293.708 321.464 271.192C318.091 259.994 316.102 241.148 314.971 225.675Z" fill="#FFBE9D"/>
<path d="M323.166 242.829C323.324 244.395 324.775 245.553 326.406 245.417C328.034 245.282 329.229 243.906 329.072 242.339C328.914 240.773 327.464 239.614 325.835 239.748C324.203 239.884 323.008 241.263 323.166 242.829Z" fill="#263238"/>
<path d="M320.356 234.88C320.773 235.214 322.774 233.254 325.937 232.827C329.09 232.356 331.634 233.67 331.924 233.233C332.069 233.038 331.603 232.394 330.492 231.795C329.397 231.196 327.603 230.714 325.634 230.993C323.666 231.275 322.109 232.231 321.259 233.108C320.388 233.991 320.154 234.732 320.356 234.88Z" fill="#263238"/>
<path d="M352.906 239.984C353.064 241.551 354.515 242.707 356.146 242.572C357.775 242.437 358.97 241.061 358.812 239.494C358.655 237.928 357.204 236.769 355.575 236.904C353.944 237.038 352.749 238.417 352.906 239.984Z" fill="#263238"/>
<path d="M351.528 231.891C351.945 232.226 353.949 230.264 357.109 229.838C360.262 229.366 362.806 230.68 363.097 230.244C363.241 230.049 362.779 229.405 361.664 228.805C360.569 228.205 358.775 227.723 356.807 228.003C354.838 228.285 353.281 229.242 352.43 230.118C351.562 231.001 351.326 231.743 351.528 231.891Z" fill="#263238"/>
<path d="M343.259 256.331C343.249 256.148 341.237 256.078 337.996 256.107C337.177 256.134 336.391 256.078 336.179 255.543C335.909 254.983 336.127 254.062 336.39 253.065C336.881 250.997 337.395 248.831 337.936 246.56C340.052 237.31 341.465 229.749 341.094 229.667C340.722 229.584 338.705 237.015 336.589 246.265C336.087 248.543 335.606 250.715 335.15 252.793C334.97 253.757 334.587 254.874 335.165 256.033C335.465 256.61 336.119 256.968 336.655 257.037C337.194 257.124 337.649 257.071 338.052 257.039C341.281 256.773 343.271 256.513 343.259 256.331Z" fill="#263238"/>
<path d="M346.204 294.221C346.204 294.221 361.754 293.098 375.768 281.776C375.768 281.776 370.289 300.132 347.063 301.133L346.204 294.221Z" fill="#EB996E"/>
<path d="M345.641 263.803C346.572 262.136 348.45 261.032 350.459 260.974C351.851 260.934 353.329 261.408 354.315 262.416C355.302 263.424 355.694 264.993 355.082 266.168C354.393 267.491 352.648 268.014 351.08 267.792C349.512 267.569 348.077 266.749 346.708 265.925C346.33 265.696 345.941 265.458 345.677 265.11C345.413 264.763 345.3 264.275 345.521 263.927" fill="#EB996E"/>
<path d="M352.864 257.248C352.345 257.288 352.81 260.737 350.205 263.589C347.608 266.447 343.896 266.564 343.935 267.05C343.916 267.272 344.841 267.607 346.391 267.437C347.913 267.281 350.058 266.488 351.651 264.744C353.239 262.997 353.736 260.888 353.66 259.457C353.596 257.997 353.096 257.196 352.864 257.248Z" fill="#263238"/>
<path d="M349.025 220.673C349.455 221.494 352.556 220.649 356.327 220.588C360.098 220.451 363.238 221.13 363.624 220.287C363.793 219.886 363.161 219.146 361.837 218.476C360.525 217.806 358.502 217.276 356.242 217.333C353.982 217.395 351.99 218.031 350.715 218.769C349.429 219.509 348.836 220.282 349.025 220.673Z" fill="#263238"/>
<path d="M320.264 225.527C320.919 226.172 322.995 225.123 325.61 224.728C328.211 224.24 330.513 224.547 330.921 223.722C331.094 223.325 330.647 222.65 329.584 222.101C328.536 221.551 326.863 221.215 325.07 221.518C323.279 221.823 321.808 222.691 320.998 223.555C320.173 224.424 319.971 225.209 320.264 225.527Z" fill="#263238"/>
<path d="M320.796 197.85C319.888 202.242 321.884 207.096 325.614 209.564C329.344 212.031 334.572 211.955 338.23 209.381C336.908 211.051 337.531 213.708 339.139 215.102C340.748 216.497 343.026 216.841 345.145 216.683C349.598 216.35 353.857 213.958 356.47 210.321C357.401 213.786 360.055 216.737 363.392 218.019C366.729 219.301 370.666 218.88 373.66 216.922C370.969 220.297 370.686 225.406 372.987 229.061C375.288 232.716 380.005 234.649 384.194 233.654C388.383 232.659 391.738 228.808 392.165 224.506C395.234 222.672 397.373 219.35 397.78 215.787C398.186 212.224 396.85 208.501 394.274 206.017C396.489 204.989 397.791 202.513 397.957 200.068C398.123 197.622 397.315 195.208 396.245 193.005C393.627 187.612 389.136 182.928 383.436 181.136C377.736 179.344 370.853 180.936 367.258 185.727C366.852 186.268 366.441 186.88 365.796 187.079C364.915 187.351 364.026 186.742 363.306 186.162C360.117 183.592 356.775 180.811 352.723 180.268C347.831 179.612 342.703 182.858 341.182 187.575C337.814 183.232 331.552 181.042 326.534 183.254C321.515 185.466 318.961 192.475 322.082 197" fill="#263238"/>
<path d="M381.42 230.511C382.289 235.151 383.823 239.664 385.961 243.869C386.868 245.654 388.184 247.586 390.172 247.759C391.982 247.916 393.615 246.427 394.219 244.706C394.822 242.985 394.623 241.095 394.349 239.291C393.378 232.883 391.562 226.638 389.751 220.415" fill="#263238"/>
<path d="M386.923 233.471C387.189 233.291 397.935 227.826 399.727 239.544C401.519 251.263 389.438 250.652 389.366 250.319C389.294 249.986 386.923 233.471 386.923 233.471Z" fill="#FFBE9D"/>
<path d="M392.25 245.33C392.296 245.285 392.475 245.441 392.843 245.547C393.201 245.649 393.793 245.666 394.366 245.343C395.529 244.699 396.266 242.573 396 240.453C395.867 239.382 395.489 238.401 394.984 237.618C394.497 236.815 393.853 236.302 393.216 236.287C392.577 236.239 392.195 236.68 392.103 237.032C391.997 237.383 392.107 237.606 392.048 237.636C392.02 237.671 391.767 237.478 391.787 236.979C391.8 236.739 391.894 236.442 392.134 236.175C392.379 235.903 392.773 235.723 393.212 235.703C394.121 235.627 395.058 236.333 395.613 237.193C396.218 238.049 396.668 239.148 396.817 240.35C397.103 242.722 396.238 245.118 394.627 245.868C393.839 246.21 393.117 246.066 392.721 245.844C392.315 245.609 392.213 245.357 392.25 245.33Z" fill="#EB996E"/>
<path d="M356.721 207.915C356.725 207.928 356.605 207.977 356.37 208.058C356.135 208.141 355.781 208.249 355.314 208.371C354.381 208.607 352.984 208.924 351.165 208.926C350.259 208.924 349.246 208.839 348.181 208.552C347.119 208.276 345.99 207.799 344.98 206.995C343.974 206.199 343.077 205.115 342.489 203.782C341.922 202.455 341.698 200.823 342.229 199.273L342.649 199.547C340.416 201.678 337.26 203.271 333.702 203.667C331.93 203.877 330.068 203.766 328.242 203.31C327.332 203.073 326.419 202.743 325.583 202.219C324.748 201.704 324.012 200.948 323.563 200.037C323.019 198.97 322.843 197.79 322.816 196.666C322.787 195.534 322.9 194.435 323.032 193.361C323.174 192.282 323.39 191.209 323.842 190.217C324.273 189.235 325.083 188.314 326.16 188.026L326.361 188.558C324.399 189.473 322.224 189.597 320.312 189.144C318.388 188.707 316.696 187.737 315.435 186.48C314.187 185.213 313.37 183.653 313.094 182.12C312.792 180.59 312.895 179.127 313.205 177.872C313.84 175.337 315.242 173.687 316.294 172.798C317.376 171.904 318.109 171.666 318.109 171.666C318.141 171.72 317.438 172.022 316.419 172.941C315.428 173.855 314.115 175.494 313.549 177.955C313.274 179.173 313.201 180.58 313.509 182.032C313.792 183.489 314.581 184.944 315.775 186.134C316.982 187.312 318.599 188.221 320.428 188.622C322.246 189.04 324.293 188.902 326.115 188.044L326.316 188.576C325.44 188.817 324.767 189.561 324.369 190.463C323.96 191.366 323.751 192.391 323.617 193.437C323.381 195.524 323.136 197.822 324.095 199.765C324.897 201.428 326.668 202.298 328.389 202.735C330.139 203.176 331.928 203.289 333.637 203.093C337.068 202.726 340.123 201.206 342.294 199.171L343.064 198.449L342.714 199.445C342.222 200.845 342.405 202.344 342.923 203.597C343.46 204.852 344.297 205.895 345.242 206.665C346.188 207.44 347.252 207.913 348.276 208.2C349.298 208.497 350.282 208.601 351.168 208.625C352.947 208.667 354.34 208.402 355.276 208.217C356.217 208.02 356.712 207.884 356.721 207.915Z" fill="white"/>
<path d="M319.891 207.736C319.909 207.766 319.668 207.968 319.159 208.215C318.653 208.461 317.86 208.732 316.835 208.794C315.823 208.84 314.55 208.712 313.346 207.964C312.764 207.584 312.193 206.99 312.013 206.176C311.836 205.408 312.009 204.424 312.777 203.867L313.078 204.383C313.017 204.409 312.95 204.438 312.883 204.467C309.908 205.798 306.802 205.192 305.004 204.241C304.08 203.769 303.417 203.245 303.01 202.838C302.604 202.429 302.422 202.166 302.448 202.143C302.527 202.053 303.362 203.047 305.184 203.857C306.95 204.671 309.878 205.157 312.638 203.92C312.7 203.893 312.762 203.867 312.819 203.842L315.5 202.692L313.12 204.358C312.614 204.712 312.448 205.443 312.583 206.05C312.707 206.662 313.151 207.165 313.65 207.506C314.681 208.186 315.877 208.37 316.824 208.373C318.768 208.346 319.851 207.626 319.891 207.736Z" fill="white"/>
<path d="M400.208 247.678C400.233 247.624 401.043 247.889 402.278 248.78C403.49 249.664 405.191 251.218 406.318 253.767C407.455 256.268 407.694 259.926 405.935 263.239C404.273 266.581 400.231 269.084 395.89 268.789C393.721 268.668 391.679 267.75 390.15 266.439C388.598 265.135 387.475 263.502 386.741 261.816C385.258 258.425 385.517 254.787 386.856 252.335C388.171 249.85 390.137 248.525 391.524 247.932C392.938 247.324 393.811 247.348 393.814 247.4C393.839 247.506 393.007 247.642 391.726 248.344C390.467 249.029 388.714 250.381 387.603 252.707C386.476 254.986 386.328 258.289 387.736 261.376C389.082 264.403 392.075 267.41 395.967 267.61C399.834 267.862 403.444 265.688 404.98 262.721C406.614 259.758 406.505 256.443 405.548 254.084C404.599 251.676 403.08 250.099 401.994 249.139C400.886 248.169 400.157 247.767 400.208 247.678Z" fill="#455A64"/>
<path d="M334.045 248.642C333.966 248.649 334.052 247.418 333.518 245.316C332.989 243.255 331.614 240.224 328.514 237.88C326.978 236.735 325.045 235.763 322.816 235.374C320.602 234.999 318.105 235.072 315.73 235.978C314.534 236.395 313.381 237.024 312.322 237.817C311.251 238.595 310.278 239.561 309.477 240.68C307.82 242.885 306.887 245.718 306.86 248.638C306.886 251.559 307.819 254.394 309.476 256.599C310.278 257.719 311.25 258.685 312.322 259.463C313.381 260.257 314.534 260.886 315.73 261.303C318.106 262.21 320.603 262.282 322.817 261.907C325.046 261.518 326.98 260.546 328.515 259.401C331.615 257.057 332.99 254.026 333.519 251.965C334.052 249.865 333.966 248.635 334.045 248.642C334.063 248.642 334.065 248.943 334.053 249.52C334.054 249.809 334.039 250.166 333.97 250.583C333.915 251.002 333.863 251.488 333.714 252.017C333.238 254.122 331.892 257.249 328.737 259.696C327.174 260.891 325.192 261.913 322.895 262.334C320.614 262.741 318.032 262.682 315.566 261.756C314.325 261.33 313.127 260.684 312.026 259.865C310.912 259.062 309.9 258.063 309.065 256.903C307.341 254.618 306.365 251.672 306.339 248.639C306.365 245.607 307.341 242.662 309.066 240.378C309.901 239.219 310.913 238.22 312.026 237.417C313.127 236.598 314.325 235.952 315.566 235.526C318.032 234.601 320.614 234.541 322.895 234.948C325.192 235.369 327.175 236.391 328.737 237.586C331.892 240.033 333.238 243.159 333.715 245.265C333.864 245.795 333.916 246.281 333.971 246.7C334.04 247.117 334.055 247.474 334.054 247.763C334.065 248.34 334.063 248.642 334.045 248.642Z" fill="#263238"/>
<path d="M369.353 246.299C369.274 246.306 369.36 245.075 368.825 242.973C368.296 240.912 366.921 237.881 363.821 235.537C362.285 234.392 360.351 233.42 358.123 233.031C355.909 232.656 353.412 232.729 351.037 233.635C349.841 234.052 348.688 234.681 347.629 235.474C346.557 236.252 345.585 237.218 344.784 238.337C343.127 240.542 342.194 243.375 342.167 246.296C342.193 249.217 343.126 252.052 344.783 254.257C345.585 255.377 346.557 256.343 347.629 257.121C348.688 257.915 349.841 258.544 351.037 258.961C353.413 259.868 355.91 259.94 358.124 259.565C360.353 259.176 362.287 258.203 363.822 257.058C366.922 254.714 368.297 251.683 368.826 249.622C369.359 247.523 369.273 246.293 369.353 246.299C369.371 246.299 369.373 246.6 369.361 247.177C369.362 247.466 369.347 247.823 369.278 248.24C369.223 248.658 369.171 249.145 369.022 249.674C368.546 251.78 367.2 254.906 364.045 257.353C362.482 258.548 360.5 259.57 358.203 259.991C355.922 260.398 353.34 260.339 350.874 259.413C349.633 258.987 348.435 258.341 347.334 257.522C346.22 256.719 345.208 255.72 344.373 254.56C342.649 252.275 341.673 249.329 341.647 246.296C341.673 243.264 342.649 240.319 344.374 238.035C345.209 236.876 346.221 235.877 347.335 235.074C348.436 234.255 349.634 233.609 350.875 233.183C353.341 232.258 355.923 232.198 358.204 232.605C360.501 233.026 362.484 234.048 364.046 235.243C367.201 237.69 368.547 240.816 369.024 242.922C369.173 243.452 369.226 243.938 369.28 244.357C369.349 244.774 369.364 245.131 369.363 245.42C369.373 245.998 369.37 246.299 369.353 246.299Z" fill="#263238"/>
<path d="M342.422 243.413C342.362 243.48 341.93 243.11 341.127 242.739C340.329 242.363 339.123 242.054 337.78 242.145C336.437 242.245 335.287 242.721 334.55 243.206C333.807 243.687 333.432 244.114 333.363 244.057C333.319 244.028 333.599 243.502 334.335 242.907C335.062 242.311 336.293 241.731 337.743 241.625C339.192 241.525 340.493 241.925 341.297 242.412C342.11 242.897 342.462 243.378 342.422 243.413Z" fill="#263238"/>
<path d="M388.168 234.157C388.208 234.295 383.817 235.697 378.362 237.289C372.904 238.881 368.449 240.059 368.409 239.921C368.369 239.783 372.759 238.381 378.216 236.789C383.671 235.197 388.128 234.019 388.168 234.157Z" fill="#263238"/>
<path d="M319.252 258.667C319.248 258.699 319.005 258.709 318.568 258.661C318.131 258.614 317.503 258.486 316.758 258.221C315.277 257.709 313.308 256.509 311.938 254.473C310.572 252.434 310.206 250.157 310.292 248.593C310.329 247.803 310.448 247.173 310.57 246.751C310.69 246.328 310.792 246.106 310.823 246.115C310.913 246.136 310.639 247.069 310.66 248.598C310.67 250.11 311.078 252.256 312.37 254.183C313.665 256.107 315.496 257.297 316.892 257.879C318.299 258.475 319.267 258.575 319.252 258.667Z" fill="white"/>
<path d="M346.307 255.233C346.282 255.254 346.072 255.057 345.743 254.654C345.413 254.253 344.981 253.632 344.547 252.806C343.674 251.172 342.876 248.602 343.108 245.727C343.341 242.851 344.542 240.443 345.666 238.97C346.228 238.225 346.754 237.681 347.144 237.338C347.533 236.994 347.772 236.833 347.794 236.858C347.859 236.926 346.986 237.676 345.967 239.184C344.948 240.673 343.852 243.012 343.627 245.77C343.405 248.527 344.111 251.012 344.878 252.645C345.642 254.296 346.383 255.176 346.307 255.233Z" fill="white"/>
<path d="M350.929 257.777C350.865 257.906 350.379 257.793 349.845 257.526C349.31 257.259 348.929 256.938 348.993 256.809C349.057 256.68 349.543 256.793 350.077 257.06C350.612 257.327 350.993 257.648 350.929 257.777Z" fill="white"/>
<path d="M261.932 464.737H123.5L102.646 369.424C101.631 364.786 105.169 360.401 109.916 360.411L232.626 360.678C236.094 360.686 239.095 363.092 239.855 366.476L261.932 464.737Z" fill="#E0E0E0"/>
<path d="M261.932 464.737H327.45C327.45 460.088 323.681 456.319 319.032 456.319H254.477L261.932 464.737Z" fill="#E0E0E0"/>
<path d="M254.476 464.737C254.467 464.739 254.436 464.651 254.384 464.476C254.326 464.272 254.253 464.015 254.163 463.696C253.97 462.97 253.703 461.962 253.363 460.684C252.675 458.067 251.719 454.269 250.563 449.571C248.248 440.175 245.203 427.158 241.916 412.765C238.628 398.368 235.64 385.339 233.417 375.923C232.31 371.244 231.411 367.445 230.779 364.773C230.48 363.485 230.244 362.47 230.074 361.738C230.004 361.414 229.948 361.153 229.903 360.946C229.867 360.767 229.854 360.674 229.862 360.672C229.871 360.67 229.902 360.758 229.954 360.933C230.012 361.137 230.084 361.394 230.175 361.713C230.368 362.439 230.635 363.446 230.975 364.724C231.663 367.341 232.618 371.138 233.774 375.837C236.089 385.233 239.134 398.252 242.422 412.649C245.709 427.041 248.696 440.069 250.919 449.485C252.026 454.164 252.925 457.963 253.557 460.636C253.856 461.924 254.092 462.939 254.262 463.671C254.332 463.995 254.388 464.256 254.433 464.464C254.471 464.641 254.485 464.734 254.476 464.737Z" fill="#263238"/>
<path d="M174.239 401.985C172.036 401.516 169.939 403.541 169.449 405.74C168.903 408.195 169.929 410.954 172.008 412.368C174.088 413.782 177.104 413.691 179.029 412.073C180.954 410.455 181.546 407.416 180.279 405.243C179.013 403.07 174.36 401.161 172.106 402.277" fill="white"/>
<path d="M331.849 85.3281H329.983C329.949 85.0866 329.879 84.8722 329.774 84.6847C329.669 84.4943 329.534 84.3324 329.369 84.1989C329.205 84.0653 329.014 83.9631 328.798 83.892C328.585 83.821 328.354 83.7855 328.104 83.7855C327.652 83.7855 327.259 83.8977 326.923 84.1222C326.588 84.3437 326.328 84.6676 326.143 85.0938C325.959 85.517 325.866 86.0312 325.866 86.6364C325.866 87.2585 325.959 87.7812 326.143 88.2045C326.331 88.6278 326.592 88.9474 326.928 89.1634C327.263 89.3793 327.651 89.4872 328.091 89.4872C328.338 89.4872 328.567 89.4545 328.777 89.3892C328.99 89.3239 329.179 89.2287 329.344 89.1037C329.509 88.9759 329.645 88.821 329.753 88.6392C329.864 88.4574 329.94 88.25 329.983 88.017L331.849 88.0256C331.801 88.4261 331.68 88.8125 331.487 89.1847C331.297 89.554 331.04 89.8849 330.716 90.1776C330.395 90.4673 330.011 90.6974 329.565 90.8679C329.122 91.0355 328.621 91.1193 328.061 91.1193C327.283 91.1193 326.587 90.9432 325.973 90.5909C325.362 90.2386 324.879 89.7287 324.524 89.0611C324.172 88.3935 323.996 87.5852 323.996 86.6364C323.996 85.6847 324.175 84.875 324.533 84.2074C324.891 83.5398 325.376 83.0312 325.99 82.6818C326.604 82.3295 327.294 82.1534 328.061 82.1534C328.567 82.1534 329.036 82.2244 329.467 82.3665C329.902 82.5085 330.287 82.7159 330.622 82.9886C330.957 83.2585 331.23 83.5895 331.44 83.9815C331.653 84.3736 331.79 84.8224 331.849 85.3281ZM341.192 86.6364C341.192 87.5881 341.012 88.3977 340.651 89.0653C340.293 89.733 339.805 90.2429 339.185 90.5952C338.569 90.9446 337.876 91.1193 337.106 91.1193C336.33 91.1193 335.634 90.9432 335.018 90.5909C334.401 90.2386 333.914 89.7287 333.556 89.0611C333.198 88.3935 333.019 87.5852 333.019 86.6364C333.019 85.6847 333.198 84.875 333.556 84.2074C333.914 83.5398 334.401 83.0312 335.018 82.6818C335.634 82.3295 336.33 82.1534 337.106 82.1534C337.876 82.1534 338.569 82.3295 339.185 82.6818C339.805 83.0312 340.293 83.5398 340.651 84.2074C341.012 84.875 341.192 85.6847 341.192 86.6364ZM339.322 86.6364C339.322 86.0199 339.229 85.5 339.045 85.0767C338.863 84.6534 338.606 84.3324 338.273 84.1136C337.941 83.8949 337.552 83.7855 337.106 83.7855C336.66 83.7855 336.271 83.8949 335.938 84.1136C335.606 84.3324 335.347 84.6534 335.163 85.0767C334.981 85.5 334.89 86.0199 334.89 86.6364C334.89 87.2528 334.981 87.7727 335.163 88.196C335.347 88.6193 335.606 88.9403 335.938 89.1591C336.271 89.3778 336.66 89.4872 337.106 89.4872C337.552 89.4872 337.941 89.3778 338.273 89.1591C338.606 88.9403 338.863 88.6193 339.045 88.196C339.229 87.7727 339.322 87.2528 339.322 86.6364ZM349.859 82.2727V91H348.265L344.468 85.5071H344.404V91H342.559V82.2727H344.179L347.946 87.7614H348.022V82.2727H349.859ZM351.051 83.794V82.2727H358.219V83.794H355.547V91H353.723V83.794H351.051ZM359.399 91V82.2727H365.28V83.794H361.244V85.8736H364.977V87.3949H361.244V89.4787H365.297V91H359.399ZM374.047 82.2727V91H372.453L368.656 85.5071H368.592V91H366.747V82.2727H368.366L372.133 87.7614H372.21V82.2727H374.047ZM375.239 83.794V82.2727H382.406V83.794H379.734V91H377.911V83.794H375.239ZM388.328 91L385.831 82.2727H387.847L389.292 88.3366H389.364L390.958 82.2727H392.684L394.273 88.3494H394.35L395.794 82.2727H397.81L395.313 91H393.515L391.853 85.294H391.784L390.127 91H388.328ZM398.798 91V82.2727H402.241C402.9 82.2727 403.462 82.3906 403.928 82.6264C404.397 82.8594 404.754 83.1903 404.998 83.6193C405.245 84.0455 405.369 84.5469 405.369 85.1236C405.369 85.7031 405.244 86.2017 404.994 86.6193C404.744 87.0341 404.381 87.3523 403.907 87.5739C403.435 87.7955 402.864 87.9062 402.194 87.9062H399.888V86.4233H401.896C402.248 86.4233 402.54 86.375 402.773 86.2784C403.006 86.1818 403.18 86.0369 403.293 85.8438C403.41 85.6506 403.468 85.4105 403.468 85.1236C403.468 84.8338 403.41 84.5895 403.293 84.3906C403.18 84.1918 403.005 84.0412 402.769 83.9389C402.536 83.8338 402.242 83.7812 401.887 83.7812H400.643V91H398.798ZM403.511 87.0284L405.68 91H403.643L401.521 87.0284H403.511ZM408.518 82.2727V91H406.673V82.2727H408.518ZM409.703 83.794V82.2727H416.871V83.794H414.199V91H412.375V83.794H409.703ZM419.897 82.2727V91H418.051V82.2727H419.897ZM428.714 82.2727V91H427.121L423.324 85.5071H423.26V91H421.415V82.2727H423.034L426.801 87.7614H426.878V82.2727H428.714ZM436.026 85.0938C435.966 84.8864 435.882 84.7031 435.775 84.544C435.667 84.3821 435.534 84.2457 435.378 84.1349C435.225 84.0213 435.049 83.9347 434.85 83.875C434.654 83.8153 434.436 83.7855 434.198 83.7855C433.752 83.7855 433.36 83.8963 433.022 84.1179C432.686 84.3395 432.425 84.6619 432.238 85.0852C432.05 85.5057 431.956 86.0199 431.956 86.6278C431.956 87.2358 432.049 87.7528 432.233 88.179C432.418 88.6051 432.679 88.9304 433.017 89.1548C433.355 89.3764 433.755 89.4872 434.215 89.4872C434.632 89.4872 434.989 89.4134 435.284 89.2656C435.583 89.1151 435.81 88.9034 435.966 88.6307C436.125 88.358 436.205 88.0355 436.205 87.6634L436.58 87.7188H434.33V86.3295H437.982V87.429C437.982 88.196 437.82 88.8551 437.496 89.4062C437.172 89.9545 436.726 90.3778 436.158 90.6761C435.59 90.9716 434.939 91.1193 434.206 91.1193C433.388 91.1193 432.669 90.9389 432.05 90.5781C431.431 90.2145 430.948 89.6989 430.601 89.0312C430.257 88.3608 430.086 87.5653 430.086 86.6449C430.086 85.9375 430.188 85.3068 430.392 84.7528C430.6 84.196 430.89 83.7244 431.262 83.3381C431.634 82.9517 432.067 82.6577 432.561 82.456C433.056 82.2543 433.591 82.1534 434.168 82.1534C434.662 82.1534 435.123 82.2259 435.549 82.3707C435.975 82.5128 436.353 82.7145 436.682 82.9759C437.015 83.2372 437.286 83.5483 437.496 83.9091C437.706 84.267 437.841 84.6619 437.901 85.0938H436.026ZM358.169 99.7827C358.135 99.4389 357.988 99.1719 357.73 98.9815C357.471 98.7912 357.12 98.696 356.677 98.696C356.376 98.696 356.122 98.7386 355.914 98.8239C355.707 98.9062 355.548 99.0213 355.437 99.169C355.329 99.3168 355.275 99.4844 355.275 99.6719C355.27 99.8281 355.302 99.9645 355.373 100.081C355.447 100.197 355.548 100.298 355.676 100.384C355.804 100.466 355.951 100.538 356.119 100.601C356.287 100.661 356.466 100.712 356.656 100.754L357.44 100.942C357.821 101.027 358.17 101.141 358.488 101.283C358.806 101.425 359.082 101.599 359.315 101.807C359.548 102.014 359.728 102.259 359.856 102.54C359.987 102.821 360.054 103.143 360.056 103.507C360.054 104.041 359.917 104.504 359.647 104.896C359.38 105.286 358.994 105.588 358.488 105.804C357.985 106.017 357.379 106.124 356.669 106.124C355.964 106.124 355.35 106.016 354.828 105.8C354.308 105.584 353.902 105.264 353.609 104.841C353.319 104.415 353.167 103.888 353.153 103.26H354.939C354.958 103.553 355.042 103.797 355.19 103.993C355.341 104.186 355.541 104.332 355.791 104.432C356.044 104.528 356.329 104.577 356.647 104.577C356.96 104.577 357.231 104.531 357.461 104.44C357.694 104.349 357.875 104.223 358.002 104.061C358.13 103.899 358.194 103.713 358.194 103.503C358.194 103.307 358.136 103.142 358.02 103.009C357.906 102.875 357.738 102.761 357.517 102.668C357.298 102.574 357.029 102.489 356.711 102.412L355.761 102.173C355.025 101.994 354.444 101.714 354.018 101.334C353.592 100.953 353.38 100.44 353.383 99.7955C353.38 99.267 353.521 98.8054 353.805 98.4105C354.092 98.0156 354.485 97.7074 354.985 97.4858C355.485 97.2642 356.054 97.1534 356.69 97.1534C357.338 97.1534 357.903 97.2642 358.386 97.4858C358.872 97.7074 359.25 98.0156 359.52 98.4105C359.789 98.8054 359.929 99.2628 359.937 99.7827H358.169ZM361.298 106V97.2727H367.178V98.794H363.143V100.874H366.876V102.395H363.143V104.479H367.195V106H361.298ZM368.645 106V97.2727H372.088C372.748 97.2727 373.31 97.3906 373.776 97.6264C374.245 97.8594 374.601 98.1903 374.846 98.6193C375.093 99.0455 375.216 99.5469 375.216 100.124C375.216 100.703 375.091 101.202 374.841 101.619C374.591 102.034 374.229 102.352 373.755 102.574C373.283 102.795 372.712 102.906 372.042 102.906H369.736V101.423H371.743C372.096 101.423 372.388 101.375 372.621 101.278C372.854 101.182 373.027 101.037 373.141 100.844C373.257 100.651 373.316 100.411 373.316 100.124C373.316 99.8338 373.257 99.5895 373.141 99.3906C373.027 99.1918 372.853 99.0412 372.617 98.9389C372.384 98.8338 372.09 98.7812 371.735 98.7812H370.49V106H368.645ZM373.358 102.028L375.527 106H373.49L371.368 102.028H373.358ZM377.863 97.2727L379.972 103.903H380.053L382.167 97.2727H384.212L381.203 106H378.826L375.813 97.2727H377.863ZM387.108 97.2727V106H385.262V97.2727H387.108ZM396.326 100.328H394.46C394.425 100.087 394.356 99.8722 394.251 99.6847C394.146 99.4943 394.011 99.3324 393.846 99.1989C393.681 99.0653 393.491 98.9631 393.275 98.892C393.062 98.821 392.83 98.7855 392.58 98.7855C392.129 98.7855 391.735 98.8977 391.4 99.1222C391.065 99.3437 390.805 99.6676 390.62 100.094C390.435 100.517 390.343 101.031 390.343 101.636C390.343 102.259 390.435 102.781 390.62 103.205C390.808 103.628 391.069 103.947 391.404 104.163C391.739 104.379 392.127 104.487 392.567 104.487C392.815 104.487 393.043 104.455 393.254 104.389C393.467 104.324 393.656 104.229 393.82 104.104C393.985 103.976 394.121 103.821 394.229 103.639C394.34 103.457 394.417 103.25 394.46 103.017L396.326 103.026C396.278 103.426 396.157 103.812 395.964 104.185C395.773 104.554 395.516 104.885 395.192 105.178C394.871 105.467 394.488 105.697 394.042 105.868C393.599 106.036 393.097 106.119 392.538 106.119C391.759 106.119 391.063 105.943 390.45 105.591C389.839 105.239 389.356 104.729 389.001 104.061C388.648 103.393 388.472 102.585 388.472 101.636C388.472 100.685 388.651 99.875 389.009 99.2074C389.367 98.5398 389.853 98.0312 390.467 97.6818C391.08 97.3295 391.771 97.1534 392.538 97.1534C393.043 97.1534 393.512 97.2244 393.944 97.3665C394.379 97.5085 394.763 97.7159 395.099 97.9886C395.434 98.2585 395.707 98.5895 395.917 98.9815C396.13 99.3736 396.266 99.8224 396.326 100.328ZM397.649 106V97.2727H403.53V98.794H399.494V100.874H403.227V102.395H399.494V104.479H403.547V106H397.649ZM409.731 99.7827C409.697 99.4389 409.551 99.1719 409.292 98.9815C409.034 98.7912 408.683 98.696 408.24 98.696C407.939 98.696 407.684 98.7386 407.477 98.8239C407.27 98.9062 407.11 99.0213 407 99.169C406.892 99.3168 406.838 99.4844 406.838 99.6719C406.832 99.8281 406.865 99.9645 406.936 100.081C407.01 100.197 407.11 100.298 407.238 100.384C407.366 100.466 407.514 100.538 407.681 100.601C407.849 100.661 408.028 100.712 408.218 100.754L409.002 100.942C409.383 101.027 409.733 101.141 410.051 101.283C410.369 101.425 410.645 101.599 410.877 101.807C411.11 102.014 411.291 102.259 411.419 102.54C411.549 102.821 411.616 103.143 411.619 103.507C411.616 104.041 411.48 104.504 411.21 104.896C410.943 105.286 410.556 105.588 410.051 105.804C409.548 106.017 408.941 106.124 408.231 106.124C407.527 106.124 406.913 106.016 406.39 105.8C405.87 105.584 405.464 105.264 405.172 104.841C404.882 104.415 404.73 103.888 404.716 103.26H406.501C406.521 103.553 406.605 103.797 406.752 103.993C406.903 104.186 407.103 104.332 407.353 104.432C407.606 104.528 407.892 104.577 408.21 104.577C408.522 104.577 408.794 104.531 409.024 104.44C409.257 104.349 409.437 104.223 409.565 104.061C409.693 103.899 409.757 103.713 409.757 103.503C409.757 103.307 409.699 103.142 409.582 103.009C409.468 102.875 409.301 102.761 409.079 102.668C408.86 102.574 408.592 102.489 408.274 102.412L407.324 102.173C406.588 101.994 406.007 101.714 405.581 101.334C405.154 100.953 404.943 100.44 404.946 99.7955C404.943 99.267 405.083 98.8054 405.368 98.4105C405.654 98.0156 406.048 97.7074 406.548 97.4858C407.048 97.2642 407.616 97.1534 408.252 97.1534C408.9 97.1534 409.466 97.2642 409.949 97.4858C410.434 97.7074 410.812 98.0156 411.082 98.4105C411.352 98.8054 411.491 99.2628 411.5 99.7827H409.731Z" fill="#455A64"/>
</svg>
