<svg width="900" height="900" viewBox="0 0 900 900" fill="none" xmlns="http://www.w3.org/2000/svg">
<path opacity="0.3" d="M512.125 641.608L512.627 639.975H511.925C509.503 643.116 507.078 646.505 507.078 646.505C509.99 652.966 516.933 671.013 503.664 676.79C499.269 678.704 499.997 679.233 503.053 678.92C503.78 678.671 504.46 678.368 505.082 677.98C514.255 675.95 520.617 674.087 520.617 670.024C520.617 668.825 520.549 668.162 519.969 666.103C518.077 659.385 513.674 646.206 512.125 641.608Z" fill="#6FD8E5"/>
<path d="M520.618 670.023C520.618 668.824 520.55 668.161 519.97 666.102C518.078 659.384 513.674 646.206 512.126 641.607L512.628 639.974H511.575H381.986H380.933L381.434 641.607C379.886 646.205 375.482 659.383 373.59 666.102C373.009 668.161 372.942 668.824 372.942 670.023C372.942 682.082 428.942 683.563 448.31 684.116C464.869 684.589 478.483 682.272 488.849 680.777C495.807 679.773 501.391 680.283 505.083 677.979C514.255 675.949 520.618 674.087 520.618 670.023Z" fill="#9C7F61"/>
<path d="M448.867 664.723C477.09 664.68 505.089 659.976 516.588 655.128C514.836 649.69 513.013 644.242 512.126 641.608L512.628 639.975H511.575H381.986H380.933L381.434 641.608C380.592 644.108 378.907 649.144 377.24 654.299C387.617 659.498 418.359 664.77 448.867 664.723Z" fill="#9B3248"/>
<path d="M396.067 742.466C396.067 742.466 405.087 760.711 412.145 765.579C419.731 770.811 441.122 772.868 450.333 772.625C457.581 772.433 475.422 770.559 481.487 766.584C488.38 762.068 498.569 745.481 498.569 745.481L396.067 742.466Z" fill="#953551"/>
<path d="M379.976 734.427C379.976 734.427 388.343 743.722 392.035 745.48C404.418 751.378 431.226 753.52 446.301 753.52C512.626 753.52 515.641 733.421 515.641 733.421L379.976 734.427Z" fill="#C54A51"/>
<path d="M520.618 699.16C520.618 697.961 520.55 697.298 519.97 695.239C518.078 688.521 513.674 675.343 512.126 670.745L512.628 669.112H511.575H381.986H380.933L381.434 670.745C379.886 675.343 375.482 688.521 373.59 695.239C373.009 697.298 372.942 697.961 372.942 699.16C372.942 711.219 428.942 712.7 448.31 713.253C464.869 713.726 478.483 711.409 488.849 709.914C495.807 708.91 501.391 709.421 505.083 707.116C514.255 705.085 520.618 703.223 520.618 699.16Z" fill="#9C7F61"/>
<path d="M448.867 694.605C477.262 694.562 505.433 689.8 516.799 684.922C514.984 679.271 513.916 676.072 512.993 673.332L487.927 679.96L447.883 684.117L380.296 674.14C379.42 676.742 378.767 678.698 377.034 684.071C387.194 689.306 418.143 694.652 448.867 694.605Z" fill="#9B3248"/>
<path d="M520.618 728.059C520.618 726.86 520.55 726.197 519.97 724.138C518.078 717.42 513.674 704.242 512.126 699.643L512.628 698.01H511.575H381.986H380.933L381.434 699.643C379.886 704.241 375.482 717.419 373.59 724.138C373.009 726.197 372.942 726.86 372.942 728.059C372.942 740.118 428.942 741.599 448.31 742.152C464.869 742.625 478.483 740.308 488.849 738.813C495.807 737.809 501.391 738.319 505.083 736.015C514.255 733.984 520.618 732.122 520.618 728.059Z" fill="#9C7F61"/>
<path d="M520.147 724.386C519.339 721.516 518.072 717.467 516.765 713.412C515.13 714.101 513.152 714.787 510.897 715.457C512.17 721.251 512.254 727.721 508.249 732.019C515.07 730.121 519.566 728.121 520.592 726.385C520.642 726.583 520.681 726.766 520.727 726.957C520.649 726.319 520.488 725.595 520.147 724.386Z" fill="#E04C5A"/>
<path d="M448.867 724.048C477.262 724.005 505.433 719.243 516.799 714.365C514.984 708.714 513.916 705.515 512.993 702.775L487.927 709.403L447.883 713.56L380.296 703.583C379.42 706.185 378.767 708.141 377.034 713.514C387.194 718.749 418.143 724.095 448.867 724.048Z" fill="#9B3248"/>
<path d="M447.886 480.744L311.62 459.806C324.791 475.623 356.508 503.921 360.155 520.519C362.754 532.345 363.642 549.04 364.581 566.717C365.752 588.743 367.079 593.729 372.114 607.16C376.806 619.669 402.727 626.348 447.088 626.505L447.09 626.513C447.359 626.513 447.619 626.51 447.887 626.509C448.155 626.509 448.415 626.513 448.684 626.513L448.686 626.505C493.047 626.348 518.968 619.669 523.66 607.16C528.695 593.73 530.023 588.743 531.193 566.717C532.131 549.04 533.02 532.345 535.618 520.519C539.265 503.921 570.983 475.623 584.154 459.806L447.886 480.744Z" fill="#FFCF21"/>
<path d="M514.416 600.854C514.416 606.855 485.114 611.72 448.97 611.72C412.824 611.72 383.522 606.856 383.522 600.854C383.522 594.853 412.823 589.988 448.97 589.988C485.113 589.988 514.416 594.853 514.416 600.854Z" fill="#91704F"/>
<path d="M574.847 469.6C645.026 399.421 645.026 285.638 574.847 215.459C504.668 145.281 390.886 145.281 320.707 215.459C250.528 285.638 250.528 399.421 320.707 469.6C390.886 539.779 504.668 539.779 574.847 469.6Z" fill="#FFCF21"/>
<path d="M397.273 429.747H393.402C401.804 487.617 406.791 556.848 409.155 595.992C409.542 602.393 409.859 607.99 410.107 612.6C411.362 612.804 412.66 612.998 414.002 613.181C413.741 608.334 413.403 602.333 412.984 595.397C410.613 556.277 405.641 487.551 397.273 429.747Z" fill="white"/>
<path d="M485.243 516.505C483.329 545.995 482.563 573.298 482.279 593.416C482.18 600.503 482.139 606.698 482.128 611.78C483.462 611.613 484.748 611.431 485.999 611.243C486.014 606.4 486.058 600.578 486.157 593.956C486.646 560.308 488.512 506.014 494.92 454.503H490.929C488.602 473.34 486.703 494.012 485.243 516.505Z" fill="#58595B"/>
<path d="M428.673 514.053C426.122 513.605 423.694 515.308 423.247 517.858C422.797 520.409 424.502 522.84 427.05 523.288C429.602 523.737 432.028 522.031 432.48 519.483C432.928 516.932 431.223 514.5 428.673 514.053Z" fill="#2CA2DD"/>
<path d="M466.264 521.984L458.689 520.652C459.08 514.636 457.694 508.837 454.941 503.823L461.244 499.402C462.775 498.33 463.147 496.218 462.071 494.687C461 493.157 458.891 492.786 457.36 493.86L451.053 498.278C447.279 493.979 442.299 490.697 436.511 489.016L437.842 481.441C438.167 479.598 436.935 477.844 435.095 477.52C433.255 477.197 431.501 478.428 431.176 480.269L429.845 487.844C423.829 487.449 418.03 488.838 413.015 491.593L408.595 485.287C407.518 483.754 405.412 483.384 403.882 484.459C402.348 485.532 401.976 487.641 403.052 489.173L407.471 495.477C403.171 499.253 399.888 504.231 398.208 510.019L390.633 508.688C388.792 508.365 387.037 509.595 386.712 511.435C386.387 513.276 387.619 515.032 389.462 515.355L397.036 516.687C396.643 522.703 398.031 528.5 400.784 533.517L394.482 537.937C392.949 539.01 392.579 541.121 393.652 542.652C394.724 544.183 396.836 544.553 398.367 543.479L404.673 539.059C408.447 543.359 413.424 546.64 419.213 548.322L417.881 555.897C417.56 557.739 418.788 559.493 420.632 559.817C422.473 560.14 424.227 558.91 424.55 557.069L425.881 549.494C431.899 549.887 437.693 548.499 442.706 545.745L447.128 552.05C448.205 553.582 450.312 553.954 451.845 552.88C453.377 551.807 453.746 549.696 452.671 548.165L448.252 541.86C452.551 538.085 455.833 533.108 457.514 527.317L465.09 528.65C466.932 528.973 468.687 527.743 469.01 525.902C469.337 524.062 468.104 522.307 466.264 521.984ZM426.219 528.023C421.054 527.116 417.604 522.192 418.51 517.026C419.418 511.861 424.342 508.407 429.509 509.316C434.675 510.225 438.124 515.148 437.216 520.313C436.309 525.48 431.384 528.932 426.219 528.023Z" fill="#2CA2DD"/>
<path d="M448.72 247.007C446.351 246.237 443.808 247.532 443.041 249.902C442.27 252.27 443.566 254.814 445.935 255.584C448.303 256.354 450.846 255.056 451.617 252.689C452.387 250.319 451.089 247.774 448.72 247.007Z" fill="#4B7A22"/>
<path d="M483.461 259.612L476.426 257.326C477.606 251.648 477.066 245.939 475.116 240.793L481.714 237.429C483.317 236.613 483.954 234.652 483.136 233.049C482.321 231.448 480.361 230.811 478.761 231.628L472.161 234.989C469.142 230.387 464.84 226.591 459.552 224.213L461.838 217.176C462.395 215.465 461.459 213.628 459.749 213.073C458.039 212.516 456.201 213.454 455.646 215.164L453.36 222.2C447.681 221.016 441.972 221.561 436.824 223.511L433.463 216.91C432.642 215.305 430.687 214.67 429.084 215.488C427.477 216.303 426.842 218.263 427.662 219.866L431.02 226.465C426.419 229.484 422.625 233.785 420.243 239.072L413.206 236.785C411.498 236.231 409.659 237.166 409.106 238.877C408.546 240.586 409.483 242.425 411.196 242.979L418.232 245.266C417.05 250.943 417.594 256.653 419.541 261.8L412.943 265.163C411.339 265.979 410.702 267.941 411.519 269.543C412.334 271.146 414.297 271.782 415.9 270.965L422.498 267.603C425.516 272.205 429.816 276 435.104 278.379L432.817 285.415C432.264 287.126 433.197 288.962 434.911 289.519C436.621 290.074 438.458 289.139 439.012 287.429L441.298 280.392C446.978 281.575 452.682 281.032 457.829 279.081L461.192 285.681C462.013 287.284 463.97 287.922 465.575 287.104C467.18 286.288 467.814 284.328 466.995 282.724L463.634 276.125C468.236 273.106 472.029 268.807 474.411 263.517L481.447 265.804C483.157 266.36 484.997 265.423 485.548 263.714C486.109 262.004 485.171 260.166 483.461 259.612ZM462.847 238.762C464.947 237.709 467.506 238.559 468.557 240.66C469.61 242.762 468.758 245.318 466.657 246.371C464.557 247.424 462.001 246.574 460.947 244.473C459.895 242.37 460.744 239.815 462.847 238.762ZM449.439 231.46C450.18 229.229 452.589 228.022 454.819 228.764C457.051 229.505 458.256 231.915 457.514 234.145C456.774 236.376 454.364 237.583 452.134 236.842C449.904 236.099 448.7 233.689 449.439 231.46ZM424.797 243.803C425.54 241.573 427.949 240.366 430.18 241.108C432.407 241.849 433.615 244.258 432.873 246.488C432.132 248.719 429.724 249.924 427.493 249.184C425.262 248.442 424.055 246.032 424.797 243.803ZM431.812 263.828C429.709 264.88 427.151 264.031 426.101 261.93C425.047 259.829 425.897 257.272 427.998 256.219C430.1 255.166 432.657 256.016 433.708 258.117C434.762 260.219 433.915 262.775 431.812 263.828ZM434.795 235.776C433.742 233.674 434.593 231.118 436.694 230.065C438.797 229.012 441.351 229.862 442.404 231.964C443.457 234.064 442.608 236.622 440.508 237.674C438.407 238.728 435.848 237.878 434.795 235.776ZM445.219 271.13C444.476 273.36 442.068 274.567 439.839 273.826C437.607 273.084 436.401 270.674 437.144 268.444C437.883 266.213 440.293 265.007 442.522 265.749C444.754 266.49 445.958 268.899 445.219 271.13ZM444.509 259.984C439.71 258.426 437.085 253.272 438.643 248.472C440.203 243.674 445.356 241.046 450.155 242.606C454.954 244.166 457.578 249.318 456.019 254.117C454.46 258.917 449.304 261.542 444.509 259.984ZM457.963 272.524C455.863 273.576 453.305 272.727 452.253 270.625C451.2 268.522 452.049 265.966 454.149 264.912C456.251 263.859 458.807 264.711 459.861 266.812C460.914 268.914 460.064 271.471 457.963 272.524ZM469.859 258.786C469.116 261.016 466.708 262.223 464.476 261.48C462.247 260.739 461.041 258.33 461.783 256.099C462.522 253.868 464.932 252.662 467.164 253.404C469.395 254.146 470.602 256.556 469.859 258.786Z" fill="#4B7A22"/>
<path d="M527.473 286.176C512.736 284.448 499.385 294.999 497.658 309.74C495.932 324.48 506.479 337.83 521.22 339.558C535.959 341.286 549.308 330.736 551.036 315.996C552.763 301.254 542.215 287.903 527.473 286.176Z" fill="#EF4136"/>
<path d="M583.81 314.358L573.764 313.181C573.801 308.125 573.064 303.208 571.658 298.556L580.948 294.583C583.713 293.403 584.996 290.204 583.812 287.444C582.631 284.682 579.436 283.401 576.672 284.58L567.371 288.557C564.861 284.123 561.681 280.098 557.947 276.63L563.967 268.499C565.755 266.086 565.245 262.679 562.833 260.891C560.42 259.103 557.013 259.611 555.222 262.025L549.211 270.149C545.01 267.701 540.398 265.847 535.47 264.715L536.646 254.67C536.997 251.686 534.857 248.984 531.875 248.634C528.894 248.283 526.19 250.42 525.839 253.403L524.664 263.448C519.608 263.409 514.691 264.147 510.038 265.557L506.064 256.264C504.883 253.502 501.686 252.221 498.923 253.4C496.16 254.582 494.88 257.779 496.063 260.54L500.038 269.842C495.601 272.352 491.58 275.534 488.111 279.267L479.98 273.248C477.565 271.461 474.16 271.968 472.371 274.382C470.582 276.796 471.092 280.203 473.505 281.991L481.631 288.005C479.183 292.206 477.329 296.819 476.198 301.746L466.151 300.569C463.167 300.219 460.465 302.356 460.114 305.338C459.768 308.323 461.902 311.024 464.885 311.373L474.932 312.55C474.893 317.606 475.631 322.522 477.038 327.174L467.745 331.149C464.984 332.329 463.7 335.528 464.883 338.289C466.063 341.051 469.26 342.331 472.022 341.151L481.321 337.173C483.834 341.608 487.014 345.635 490.749 349.102L484.729 357.234C482.941 359.646 483.45 363.054 485.863 364.841C488.276 366.63 491.683 366.122 493.474 363.707L499.485 355.583C503.685 358.031 508.296 359.886 513.226 361.018L512.048 371.061C511.699 374.045 513.837 376.748 516.821 377.097C519.802 377.446 522.505 375.311 522.856 372.328L524.032 362.282C529.089 362.322 534.004 361.583 538.658 360.173L542.63 369.466C543.813 372.229 547.008 373.511 549.77 372.328C552.533 371.149 553.814 367.95 552.632 365.19L548.655 355.887C553.094 353.377 557.116 350.195 560.583 346.461L568.715 352.481C571.128 354.267 574.535 353.762 576.323 351.347C578.111 348.933 577.6 345.525 575.188 343.738L567.064 337.722C569.51 333.522 571.366 328.909 572.497 323.982L582.542 325.159C585.527 325.508 588.229 323.373 588.581 320.39C588.928 317.411 586.793 314.708 583.81 314.358ZM519.779 351.855C498.245 349.332 482.836 329.831 485.358 308.297C487.882 286.764 507.384 271.354 528.918 273.878C550.451 276.401 565.857 295.902 563.336 317.435C560.815 338.969 541.314 354.379 519.779 351.855Z" fill="#EF4136"/>
<path d="M478.964 362.374L472.394 361.957C472.362 359.764 472.221 357.598 472.003 355.453L478.479 354.259C481.759 353.655 483.925 350.507 483.32 347.232C482.712 343.955 479.57 341.789 476.291 342.393L469.834 343.584C469.027 340.551 468.047 337.585 466.881 334.714L472.726 331.778C475.704 330.282 476.908 326.656 475.412 323.678C473.914 320.7 470.289 319.499 467.311 320.995L461.444 323.942C460.202 321.894 458.845 319.922 457.417 318.007L462.375 313.661C464.878 311.463 465.131 307.653 462.931 305.146C460.736 302.643 456.921 302.391 454.418 304.589L449.456 308.938C447.863 307.389 446.202 305.913 444.481 304.509L448.221 299.077C450.113 296.331 449.419 292.575 446.675 290.685C443.93 288.795 440.176 289.488 438.283 292.233L434.548 297.655C432.153 296.269 429.677 295.014 427.124 293.893L429.277 287.676C430.366 284.526 428.699 281.09 425.549 280C422.403 278.911 418.963 280.577 417.878 283.727L415.724 289.943C413.307 289.317 410.852 288.79 408.346 288.405L408.833 281.859C409.082 278.535 406.587 275.641 403.264 275.394C399.941 275.147 397.046 277.64 396.799 280.963L396.31 287.525C393.262 287.541 390.259 287.744 387.305 288.11L385.969 281.67C385.291 278.407 382.097 276.31 378.833 276.989C375.575 277.666 373.476 280.859 374.153 284.122L375.49 290.56C373.358 291.181 371.274 291.906 369.223 292.707L366.347 286.78C364.89 283.783 361.283 282.531 358.284 283.986C355.288 285.441 354.033 289.051 355.493 292.048L358.368 297.977C355.96 299.397 353.636 300.946 351.408 302.616L347.047 297.664C344.844 295.165 341.033 294.921 338.531 297.126C336.033 299.328 335.791 303.141 337.991 305.64L342.351 310.59C340.616 312.383 338.956 314.25 337.401 316.207L331.939 312.549C329.171 310.696 325.422 311.436 323.568 314.205C321.717 316.973 322.456 320.722 325.226 322.575L330.666 326.219C329.49 328.313 328.423 330.472 327.447 332.685L321.259 330.53C318.11 329.435 314.67 331.098 313.573 334.245C312.48 337.391 314.142 340.829 317.29 341.927L323.503 344.09C322.799 346.806 322.222 349.573 321.818 352.399L315.259 351.983C311.934 351.773 309.066 354.296 308.856 357.624C308.645 360.948 311.167 363.815 314.494 364.026L321.064 364.444C321.101 366.634 321.239 368.8 321.456 370.943L314.979 372.137C311.701 372.743 309.535 375.888 310.138 379.167C310.743 382.442 313.889 384.608 317.167 384.006L323.622 382.816C324.431 385.849 325.411 388.815 326.578 391.687L320.732 394.625C317.755 396.12 316.55 399.745 318.048 402.725C319.542 405.701 323.168 406.903 326.146 405.408L332.013 402.462C333.256 404.508 334.613 406.48 336.041 408.394L331.083 412.74C328.579 414.937 328.328 418.749 330.526 421.256C332.722 423.761 336.534 424.011 339.041 421.813L343.999 417.464C345.592 419.013 347.254 420.489 348.977 421.894L345.236 427.325C343.346 430.07 344.039 433.828 346.785 435.718C349.527 437.607 353.284 436.914 355.176 434.171L358.91 428.749C361.305 430.134 363.781 431.389 366.334 432.51L364.18 438.725C363.09 441.874 364.758 445.31 367.907 446.402C371.057 447.492 374.492 445.823 375.583 442.675L377.735 436.462C380.15 437.086 382.607 437.614 385.112 438L384.626 444.546C384.377 447.869 386.872 450.763 390.195 451.01C393.515 451.257 396.412 448.764 396.66 445.44L397.148 438.88C400.196 438.864 403.2 438.662 406.155 438.295L407.492 444.734C408.169 447.997 411.361 450.092 414.624 449.416C417.887 448.739 419.984 445.544 419.306 442.281L417.968 435.843C420.1 435.221 422.185 434.497 424.235 433.696L427.111 439.623C428.566 442.62 432.176 443.871 435.173 442.417C438.171 440.961 439.423 437.351 437.965 434.354L435.088 428.425C437.498 427.005 439.821 425.456 442.051 423.786L446.411 428.738C448.614 431.239 452.424 431.48 454.925 429.28C457.428 427.076 457.667 423.262 455.465 420.763L451.106 415.812C452.84 414.019 454.5 412.153 456.055 410.195L461.518 413.853C464.286 415.707 468.034 414.965 469.89 412.199C471.743 409.429 471.002 405.682 468.231 403.827L462.792 400.183C463.967 398.089 465.036 395.929 466.01 393.717L472.199 395.872C475.347 396.968 478.788 395.305 479.884 392.159C480.977 389.011 479.314 385.574 476.168 384.477L469.955 382.313C470.66 379.597 471.236 376.828 471.64 374.002L478.198 374.418C481.522 374.628 484.39 372.103 484.603 368.78C484.812 365.451 482.287 362.584 478.964 362.374ZM407.612 298.281C426.6 301.44 442.793 312.722 452.58 328.395L426.375 341.556C421.348 334.682 413.982 329.625 405.435 327.547L407.612 298.281ZM395.575 297.411L393.401 326.644C384.219 327.47 375.997 331.688 370.012 338.042L345.644 321.723C357.499 307.141 375.454 297.757 395.575 297.411ZM335.453 387.225C332.744 380.326 331.168 372.865 330.952 365.068L331.706 353.025C332.887 345.415 335.369 338.245 338.915 331.74L363.292 348.066C362.309 350.234 361.53 352.514 360.984 354.884L360.222 366.926C360.471 369.381 360.958 371.767 361.668 374.058L335.453 387.225ZM385.848 428.115C366.859 424.956 350.667 413.674 340.879 398.002L367.087 384.838C372.112 391.714 379.48 396.77 388.025 398.85L385.848 428.115ZM396.546 379.606C387.485 379.504 380.219 372.075 380.323 363.013C380.424 353.951 387.855 346.687 396.918 346.789C405.979 346.891 413.241 354.32 413.139 363.382C413.036 372.445 405.61 379.708 396.546 379.606ZM397.884 428.984L400.059 399.752C409.242 398.926 417.463 394.708 423.447 388.354L447.813 404.671C435.96 419.254 418.006 428.641 397.884 428.984ZM461.751 373.372C460.57 380.98 458.09 388.15 454.544 394.654L430.167 378.329C431.151 376.161 431.929 373.883 432.475 371.513L433.236 359.471C432.989 357.015 432.501 354.629 431.791 352.339L458.005 339.173C460.712 346.072 462.29 353.532 462.505 361.329L461.751 373.372Z" fill="white"/>
<path d="M396.823 355.082C392.341 355.031 388.663 358.624 388.613 363.107C388.564 367.589 392.156 371.264 396.64 371.315C401.123 371.365 404.797 367.772 404.849 363.29C404.897 358.807 401.305 355.132 396.823 355.082Z" fill="white"/>
<path d="M481.275 418.866C477.442 418.385 473.944 421.104 473.464 424.938C472.985 428.772 475.704 432.268 479.539 432.748C483.374 433.228 486.868 430.509 487.348 426.675C487.829 422.841 485.11 419.345 481.275 418.866Z" fill="#58595B"/>
<path d="M525.557 303.204C520.221 302.535 515.351 306.321 514.683 311.657C514.016 316.994 517.8 321.861 523.139 322.529C528.477 323.196 533.341 319.412 534.01 314.074C534.68 308.738 530.896 303.871 525.557 303.204Z" fill="#FFCF21"/>
<path d="M545.629 428.959L538.339 428.047C538.512 423.721 538.209 419.469 537.455 415.35L544.518 413.418C547.165 412.694 548.723 409.959 547.999 407.311C547.279 404.664 544.542 403.104 541.895 403.829L534.817 405.765C533.322 401.716 531.39 397.862 529.061 394.272L534.858 389.765C537.024 388.08 537.415 384.957 535.731 382.791C534.044 380.623 530.922 380.233 528.755 381.917L522.96 386.425C520.083 383.313 516.862 380.514 513.346 378.086L516.981 371.712C518.34 369.328 517.508 366.292 515.125 364.933C512.741 363.572 509.704 364.403 508.345 366.787L504.714 373.15C500.875 371.379 496.788 370.017 492.509 369.109L493.422 361.82C493.763 359.095 491.829 356.61 489.107 356.271C486.385 355.93 483.899 357.861 483.559 360.585L482.644 367.874C478.321 367.702 474.069 368.003 469.95 368.757L468.019 361.695C467.293 359.046 464.557 357.487 461.912 358.211C459.263 358.936 457.704 361.669 458.431 364.318L460.366 371.394C456.318 372.89 452.464 374.823 448.872 377.151L444.365 371.355C442.679 369.187 439.556 368.797 437.39 370.481C435.222 372.166 434.83 375.289 436.517 377.457L441.023 383.254C437.914 386.13 435.116 389.352 432.685 392.867L426.314 389.233C423.928 387.872 420.892 388.703 419.532 391.088C418.173 393.47 419.001 396.507 421.388 397.867L427.75 401.497C425.976 405.337 424.616 409.422 423.709 413.7L416.418 412.788C413.696 412.448 411.209 414.38 410.868 417.103C410.527 419.826 412.461 422.312 415.184 422.652L422.474 423.563C422.3 427.889 422.604 432.143 423.357 436.26L416.292 438.194C413.645 438.919 412.088 441.652 412.809 444.3C413.534 446.948 416.266 448.507 418.916 447.783L425.994 445.846C427.488 449.895 429.422 453.75 431.751 457.339L425.954 461.846C423.788 463.531 423.396 466.654 425.081 468.821C426.763 470.987 429.889 471.379 432.056 469.693L437.85 465.186C440.729 468.297 443.951 471.094 447.464 473.525L443.829 479.899C442.466 482.283 443.298 485.318 445.686 486.679C448.067 488.037 451.101 487.208 452.463 484.824L456.094 478.46C459.933 480.232 464.02 481.594 468.297 482.502L467.384 489.791C467.045 492.514 468.977 494.999 471.702 495.34C474.422 495.681 476.91 493.749 477.25 491.025L478.162 483.736C482.488 483.907 486.741 483.606 490.859 482.852L492.791 489.915C493.516 492.564 496.251 494.123 498.898 493.398C501.545 492.674 503.104 489.94 502.379 487.291L500.444 480.215C504.493 478.719 508.345 476.787 511.935 474.458L516.445 480.253C518.129 482.421 521.251 482.81 523.419 481.126C525.585 479.441 525.975 476.319 524.292 474.151L519.785 468.355C522.895 465.479 525.693 462.257 528.124 458.742L534.496 462.377C536.884 463.736 539.918 462.906 541.275 460.522C542.635 458.137 541.809 455.103 539.422 453.743L533.056 450.114C534.831 446.273 536.192 442.187 537.1 437.907L544.39 438.82C547.114 439.161 549.598 437.228 549.938 434.505C550.284 431.785 548.353 429.3 545.629 428.959ZM444.04 400.956C447.306 396.173 453.836 394.943 458.623 398.212C463.407 401.481 464.634 408.013 461.365 412.795C458.097 417.581 451.564 418.809 446.782 415.54C441.996 412.269 440.769 405.74 444.04 400.956ZM454.459 449.529C449.21 451.985 442.963 449.719 440.509 444.47C438.056 439.224 440.317 432.976 445.568 430.52C450.816 428.065 457.063 430.331 459.518 435.578C461.974 440.826 459.709 447.075 454.459 449.529ZM485.877 382.099C491.627 382.819 495.704 388.064 494.985 393.814C494.266 399.564 489.021 403.642 483.271 402.923C477.522 402.204 473.443 396.959 474.163 391.208C474.883 385.459 480.13 381.38 485.877 382.099ZM474.936 469.514C469.189 468.795 465.109 463.548 465.828 457.799C466.548 452.049 471.796 447.97 477.544 448.689C483.293 449.408 487.372 454.654 486.652 460.404C485.932 466.154 480.689 470.233 474.936 469.514ZM478.785 438.775C471.624 437.879 466.542 431.345 467.437 424.183C468.334 417.021 474.871 411.94 482.031 412.836C489.195 413.733 494.273 420.266 493.379 427.429C492.48 434.591 485.948 439.672 478.785 438.775ZM506.352 402.082C511.601 399.626 517.847 401.892 520.304 407.14C522.758 412.389 520.493 418.635 515.246 421.091C509.999 423.546 503.749 421.282 501.293 416.033C498.841 410.785 501.105 404.537 506.352 402.082ZM516.774 450.655C513.505 455.441 506.975 456.669 502.191 453.401C497.407 450.131 496.18 443.601 499.448 438.816C502.716 434.034 509.248 432.803 514.031 436.073C518.814 439.342 520.043 445.874 516.774 450.655Z" fill="#58595B"/>
<path d="M495.796 280.109L483.93 296.209L502.929 310.211L514.795 294.111L495.796 280.109Z" fill="#EF4136"/>
<path d="M542.89 270.521L527.891 292.521L544.415 303.787L559.414 281.787L542.89 270.521Z" fill="#EF4136"/>
<path d="M542.902 313.265L531.432 329.649L551.431 343.65L562.901 327.266L542.902 313.265Z" fill="#EF4136"/>
<path d="M506.159 319.365L492.158 340.697L508.878 351.671L522.879 330.339L506.159 319.365Z" fill="#EF4136"/>
<path d="M509.377 652.349C511.732 657.968 514.706 674.66 500.179 679.851C485.651 685.042 449.239 683.93 449.239 683.93C449.239 683.93 492.147 684.733 498.015 658.876L509.377 652.349Z" fill="#9B3248"/>
<path d="M509.928 681.678C512.283 687.297 515.257 703.989 500.73 709.18C486.202 714.371 449.79 713.259 449.79 713.259C449.79 713.259 492.698 714.062 498.566 688.205L509.928 681.678Z" fill="#9B3248"/>
<path d="M509.928 710.295C512.283 715.914 515.257 732.606 500.73 737.797C486.202 742.988 449.79 741.876 449.79 741.876C449.79 741.876 492.698 742.679 498.566 716.822L509.928 710.295Z" fill="#9B3248"/>
<path d="M522.056 640.112C522.056 639.133 521.813 613.801 521.413 612.218C518.332 617.433 484.071 625.04 448.867 625.048C413.551 625.056 377.291 617.45 374.2 612.218C373.8 613.801 373.558 639.134 373.558 640.112C373.558 646.114 411.393 654.08 448.868 654.023C485.635 653.967 522.056 646 522.056 640.112Z" fill="#9C7F61"/>
<path opacity="0.7" d="M483.673 629.781C483.732 627.451 482.795 625.192 481.033 623.074C471.042 624.281 460.004 625.045 448.867 625.048C428.514 625.053 407.861 622.527 393.411 619.386C390.609 621.789 389.001 624.495 388.928 627.391C388.656 638.182 409.644 647.465 435.808 648.125C461.97 648.785 483.401 640.572 483.673 629.781Z" fill="#FFB699"/>
<path d="M537.066 245.004C559.001 332.35 419.668 416.902 335.599 367.262C269.857 328.443 292.685 223.178 398.689 187.04C478.652 165.367 527.746 207.888 537.066 245.004Z" fill="url(#paint0_linear_35_121)"/>
<path opacity="0.3" d="M627.488 342.529C627.488 243.28 547.031 162.823 447.782 162.823C348.533 162.823 268.076 243.28 268.076 342.529C268.076 387.348 284.487 428.331 311.622 459.807H311.62C324.791 475.624 356.508 503.922 360.155 520.52C362.754 532.346 363.642 549.041 364.581 566.718C365.752 588.744 367.079 593.73 372.114 607.161C376.806 619.67 402.727 626.349 447.088 626.506L447.09 626.514C447.359 626.514 447.619 626.511 447.887 626.51C448.155 626.51 448.415 626.514 448.684 626.514L448.686 626.506C493.047 626.349 518.968 619.67 523.66 607.161C528.695 593.731 530.023 588.744 531.193 566.718C532.131 549.041 533.02 532.346 535.618 520.52C539.265 503.922 570.983 475.624 584.154 459.807L583.912 459.844C611.065 428.363 627.488 387.364 627.488 342.529Z" stroke="#FFE6B3" stroke-width="19.9765" stroke-miterlimit="10"/>
<path d="M447.782 172.811C493.115 172.811 535.735 190.465 567.791 222.52C599.847 254.576 617.5 297.195 617.5 342.529C617.5 383.208 602.885 422.554 576.348 453.319L569.913 460.779C567.569 463.301 565.003 465.998 562.366 468.768C542.874 489.247 528.847 504.793 525.862 518.375C523.084 531.017 522.178 548.101 521.218 566.186C520.086 587.48 518.851 591.53 514.307 603.651C514.113 604.167 508.87 616.302 448.65 616.516L447.977 616.519L447.124 616.516C386.903 616.303 381.66 604.168 381.467 603.653C376.922 591.531 375.687 587.481 374.556 566.187C373.596 548.098 372.689 531.013 369.912 518.375C366.928 504.793 352.9 489.247 333.408 468.768C329.204 464.35 325.179 460.122 321.948 456.486L319.188 453.284C292.67 422.524 278.065 383.19 278.065 342.528C278.065 297.195 295.719 254.575 327.774 222.519C359.829 190.465 402.449 172.811 447.782 172.811ZM447.782 162.823C348.533 162.823 268.076 243.28 268.076 342.529C268.076 387.347 284.487 428.331 311.622 459.807L311.62 459.806C324.791 475.623 356.509 503.922 360.156 520.519C362.755 532.345 363.643 549.04 364.582 566.717C365.752 588.743 367.08 593.729 372.115 607.16C376.807 619.669 402.728 626.348 447.089 626.505L447.091 626.513C447.36 626.513 447.62 626.51 447.888 626.509C448.156 626.509 448.416 626.513 448.685 626.513L448.687 626.505C493.048 626.348 518.969 619.669 523.661 607.16C528.696 593.729 530.024 588.743 531.194 566.717C532.132 549.04 533.021 532.345 535.619 520.519C539.266 503.921 570.984 475.623 584.155 459.806L583.913 459.843C611.067 428.363 627.49 387.364 627.49 342.529C627.488 243.28 547.031 162.823 447.782 162.823Z" fill="#FFE6B3"/>
<path opacity="0.7" d="M448.867 664.723C426.394 664.757 403.805 661.905 389.311 658.323C392.227 667.931 411.839 675.774 435.807 676.378C458.084 676.94 476.92 671.067 482.195 662.649C471.86 663.912 460.383 664.706 448.867 664.723Z" fill="#FFB699"/>
<path opacity="0.7" d="M448.867 694.605C426.298 694.639 403.618 691.763 389.135 688.159C391.367 698.051 411.319 706.224 435.807 706.841C458.635 707.417 477.855 701.238 482.567 692.485C472.135 693.774 460.521 694.587 448.867 694.605Z" fill="#FFB699"/>
<path opacity="0.7" d="M448.867 724.049C426.48 724.083 403.983 721.253 389.487 717.69C392.948 727.055 412.281 734.623 435.808 735.217C457.615 735.767 476.122 730.151 481.842 722.018C471.597 723.254 460.251 724.031 448.867 724.049Z" fill="#FFB699"/>
<path d="M519.969 666.103C519.161 663.233 517.894 659.184 516.587 655.129C514.952 655.818 512.974 656.504 510.719 657.174C511.992 662.968 512.076 669.438 508.071 673.736C514.892 671.838 519.388 669.838 520.414 668.102C520.464 668.3 520.503 668.483 520.549 668.674C520.472 668.035 520.31 667.311 519.969 666.103Z" fill="#E04C5A"/>
<path d="M521.867 626.667C520.232 627.356 514.944 628.626 512.689 629.296C513.962 635.09 514.046 641.56 510.041 645.858C516.862 643.96 520.651 642.975 521.677 641.239C521.727 641.437 521.443 640.392 522.057 640.366C521.979 639.729 521.905 631.259 521.867 626.667Z" fill="#E04C5A"/>
<path d="M520.147 695.912C519.339 693.042 518.072 688.993 516.765 684.938C515.13 685.627 513.152 686.313 510.897 686.983C512.17 692.776 512.254 699.247 508.249 703.545C515.07 701.647 519.566 699.647 520.592 697.91C520.642 698.108 520.681 698.291 520.727 698.482C520.649 697.845 520.488 697.12 520.147 695.912Z" fill="#E04C5A"/>
<path d="M373.548 723.591C374.356 720.721 375.623 716.672 376.93 712.617C378.565 713.306 380.543 713.992 382.798 714.662C381.525 720.455 381.441 726.926 385.446 731.224C378.625 729.326 374.129 727.326 373.103 725.59C373.053 725.788 373.013 725.971 372.968 726.162C373.046 725.524 373.207 724.799 373.548 723.591Z" fill="#E04C5A"/>
<path d="M373.751 665.67C374.594 662.675 375.917 658.449 377.28 654.217C378.986 654.936 381.051 655.652 383.404 656.351C382.075 662.397 381.988 669.15 386.168 673.636C379.049 671.655 374.357 669.568 373.287 667.756C373.235 667.963 373.194 668.154 373.146 668.353C373.227 667.687 373.396 666.931 373.751 665.67Z" fill="#E04C5A"/>
<path d="M373.816 627.065C375.451 627.754 380.739 629.024 382.994 629.694C381.721 635.488 381.637 641.958 385.642 646.256C378.821 644.358 375.032 643.373 374.006 641.637C373.956 641.835 374.24 640.79 373.626 640.764C373.704 640.127 373.778 631.656 373.816 627.065Z" fill="#E04C5A"/>
<path d="M373.548 695.117C374.356 692.247 375.623 688.198 376.93 684.143C378.565 684.832 380.543 685.518 382.798 686.188C381.525 691.982 381.441 698.452 385.446 702.75C378.625 700.852 374.129 698.852 373.103 697.115C373.053 697.313 373.013 697.496 372.968 697.687C373.046 697.05 373.207 696.325 373.548 695.117Z" fill="#E04C5A"/>
<path d="M521.057 730.056C521.057 729.077 520.814 727.718 520.414 726.135C517.333 731.35 483.072 738.957 447.868 738.965C412.552 738.973 376.292 731.367 373.201 726.135C372.801 727.718 372.559 729.077 372.559 730.056C372.559 736.058 410.394 744.024 447.869 743.967C484.636 743.911 521.057 735.945 521.057 730.056Z" fill="#82334D"/>
<path d="M521.057 701.157C521.057 700.178 520.814 698.819 520.414 697.236C517.333 702.451 483.072 710.057 447.868 710.066C412.552 710.074 376.292 702.468 373.201 697.236C372.801 698.819 372.559 700.178 372.559 701.157C372.559 707.159 410.394 715.125 447.869 715.068C484.636 715.012 521.057 707.046 521.057 701.157Z" fill="#82334D"/>
<path d="M521.057 672.021C521.057 671.042 520.814 669.683 520.414 668.1C517.333 673.315 483.072 680.922 447.868 680.93C412.552 680.938 376.292 673.332 373.201 668.1C372.801 669.683 372.559 671.042 372.559 672.021C372.559 678.023 410.394 685.989 447.869 685.932C484.636 685.876 521.057 677.91 521.057 672.021Z" fill="#82334D"/>
<path d="M448.867 638.387C477.788 638.343 509.579 632.786 521.834 627.551C521.727 621.935 521.585 616.892 521.414 616.214C518.333 621.429 484.072 629.036 448.867 629.044C413.551 629.052 377.291 621.446 374.2 616.214C374.033 616.875 373.893 621.691 373.787 627.141C385.32 632.562 418.52 638.433 448.867 638.387Z" fill="#9B3248"/>
<path d="M527.195 610.369C527.195 609.39 526.95 600.04 526.547 598.457C523.439 603.672 483.837 612.278 448.323 612.286C412.696 612.294 372.086 603.689 368.968 598.457C368.564 600.04 368.32 609.39 368.32 610.369C368.32 616.371 410.519 625.336 448.324 625.279C485.415 625.223 527.195 616.257 527.195 610.369Z" fill="#FFE6B3"/>
<path d="M527.195 614.928C527.195 613.949 526.95 604.599 526.547 603.016C523.439 608.231 483.837 616.837 448.323 616.845C412.696 616.853 372.086 608.248 368.968 603.016C368.564 604.599 368.32 613.949 368.32 614.928C368.32 620.93 410.519 629.895 448.324 629.838C485.415 629.782 527.195 620.816 527.195 614.928Z" fill="#9C7F61"/>
<path d="M512.763 622.546C515.118 628.165 518.092 644.857 503.565 650.048C489.037 655.239 452.625 654.126 452.625 654.126C452.625 654.126 495.533 654.929 501.401 629.072L512.763 622.546Z" fill="#9B3248"/>
<path d="M448.867 653.024C411.889 653.08 374.587 645.326 373.604 639.354C373.574 641.998 373.558 643.856 373.558 644.107C373.558 650.109 411.393 658.075 448.868 658.018C485.636 657.962 522.057 649.995 522.057 644.107C522.057 643.856 522.041 642 522.011 639.358C521.027 645.221 485.128 652.969 448.867 653.024Z" fill="#82334D"/>
<path d="M297.522 191.603C296.617 191.603 295.712 191.251 295.031 190.551L263.256 157.882C261.918 156.507 261.948 154.307 263.324 152.969C264.7 151.631 266.9 151.662 268.237 153.037L300.011 185.706C301.349 187.082 301.319 189.281 299.943 190.619C299.269 191.276 298.395 191.603 297.522 191.603Z" fill="#FFCF21"/>
<path d="M624.123 538.308C623.183 538.308 622.246 537.929 621.561 537.181L590.955 503.786C589.659 502.371 589.754 500.174 591.169 498.877C592.583 497.581 594.781 497.676 596.077 499.091L626.683 532.486C627.979 533.901 627.884 536.098 626.469 537.395C625.803 538.006 624.962 538.308 624.123 538.308Z" fill="#FFCF21"/>
<path d="M239.822 289.566C239.509 289.566 239.191 289.523 238.874 289.434L195.284 277.103C193.438 276.581 192.365 274.661 192.887 272.814C193.409 270.967 195.33 269.894 197.176 270.417L240.766 282.747C242.612 283.269 243.685 285.189 243.163 287.036C242.73 288.567 241.337 289.566 239.822 289.566Z" fill="#FFCF21"/>
<path d="M696.045 426.548C695.699 426.548 695.347 426.496 695 426.386L651.792 412.767C649.962 412.19 648.946 410.239 649.523 408.409C650.1 406.579 652.048 405.563 653.881 406.14L697.089 419.759C698.919 420.336 699.935 422.287 699.358 424.117C698.891 425.6 697.521 426.548 696.045 426.548Z" fill="#FFCF21"/>
<path d="M195.943 413.796C194.39 413.796 192.976 412.748 192.578 411.174C192.107 409.314 193.233 407.424 195.093 406.953L239.01 395.836C240.869 395.366 242.759 396.491 243.23 398.351C243.701 400.211 242.575 402.101 240.715 402.571L196.797 413.688C196.512 413.761 196.226 413.796 195.943 413.796Z" fill="#FFCF21"/>
<path d="M659.159 303.07C657.566 303.07 656.13 301.967 655.771 300.347C655.356 298.474 656.537 296.619 658.41 296.203L702.641 286.393C704.514 285.975 706.369 287.159 706.785 289.032C707.201 290.905 706.019 292.761 704.146 293.176L659.914 302.986C659.662 303.043 659.408 303.07 659.159 303.07Z" fill="#FFCF21"/>
<path d="M264.012 531.008C263.107 531.008 262.202 530.656 261.521 529.956C260.183 528.581 260.213 526.381 261.589 525.043L294.058 493.462C295.434 492.124 297.634 492.155 298.971 493.53C300.309 494.905 300.279 497.105 298.903 498.443L266.434 530.024C265.759 530.681 264.885 531.008 264.012 531.008Z" fill="#FFCF21"/>
<path d="M609.735 203.668C608.795 203.668 607.858 203.289 607.173 202.541C605.877 201.126 605.972 198.929 607.387 197.632L640.785 167.023C642.198 165.727 644.397 165.822 645.693 167.237C646.989 168.652 646.894 170.849 645.479 172.146L612.081 202.755C611.415 203.366 610.573 203.668 609.735 203.668Z" fill="#FFCF21"/>
<path d="M516.337 141.569C515.991 141.569 515.639 141.517 515.292 141.407C513.462 140.83 512.446 138.879 513.023 137.049L526.641 93.8441C527.218 92.0141 529.168 90.997 530.999 91.575C532.829 92.152 533.845 94.1031 533.268 95.9331L519.65 139.138C519.183 140.621 517.813 141.569 516.337 141.569Z" fill="#FFCF21"/>
<path d="M403.359 135.066C401.766 135.066 400.33 133.963 399.971 132.343L390.163 88.119C389.748 86.246 390.929 84.39 392.802 83.975C394.674 83.558 396.531 84.741 396.946 86.614L406.754 130.838C407.169 132.711 405.988 134.567 404.115 134.982C403.862 135.039 403.608 135.066 403.359 135.066Z" fill="#FFCF21"/>
<path d="M452.563 115.273C452.547 115.273 452.531 115.273 452.514 115.273C450.596 115.247 449.062 113.67 449.088 111.752L450.125 36.259C450.151 34.341 451.708 32.816 453.647 32.833C455.565 32.859 457.099 34.436 457.073 36.354L456.036 111.847C456.01 113.749 454.46 115.273 452.563 115.273Z" fill="#FFCF21"/>
<path d="M332.763 146.26C331.537 146.26 330.349 145.61 329.716 144.46L293.571 78.756C292.646 77.075 293.26 74.962 294.941 74.037C296.621 73.113 298.734 73.725 299.659 75.406L335.804 141.11C336.729 142.791 336.115 144.904 334.434 145.828C333.903 146.121 333.329 146.26 332.763 146.26Z" fill="#FFCF21"/>
<path d="M589.581 623.12C588.335 623.12 587.131 622.448 586.507 621.27L552.615 557.22C551.717 555.524 552.365 553.422 554.061 552.524C555.757 551.627 557.859 552.274 558.757 553.97L592.649 618.02C593.547 619.716 592.899 621.818 591.203 622.716C590.685 622.99 590.128 623.12 589.581 623.12Z" fill="#FFCF21"/>
<path d="M245.735 233.347C245.116 233.347 244.49 233.182 243.924 232.835L180.421 193.948C178.785 192.946 178.271 190.807 179.273 189.171C180.275 187.535 182.413 187.019 184.05 188.023L247.553 226.91C249.189 227.912 249.703 230.051 248.701 231.687C248.046 232.757 246.904 233.347 245.735 233.347Z" fill="#FFCF21"/>
<path d="M707.124 517.856C706.499 517.856 705.867 517.687 705.296 517.334L643.271 478.866C641.641 477.855 641.138 475.713 642.149 474.082C643.16 472.451 645.301 471.95 646.933 472.961L708.958 511.428C710.588 512.439 711.091 514.581 710.08 516.211C709.422 517.273 708.287 517.856 707.124 517.856Z" fill="#FFCF21"/>
<path d="M214.854 351.382C214.821 351.382 214.788 351.381 214.755 351.381L141.058 349.322C139.14 349.269 137.629 347.67 137.682 345.752C137.736 343.834 139.339 342.312 141.252 342.376L214.949 344.435C216.867 344.488 218.378 346.087 218.325 348.005C218.272 349.89 216.727 351.382 214.854 351.382Z" fill="#FFCF21"/>
<path d="M757.228 367.018C757.193 367.018 757.159 367.018 757.123 367.017L683.46 364.844C681.542 364.787 680.033 363.187 680.09 361.269C680.146 359.351 681.733 357.842 683.665 357.899L757.328 360.072C759.246 360.129 760.755 361.729 760.698 363.647C760.643 365.529 759.099 367.018 757.228 367.018Z" fill="#FFCF21"/>
<path d="M182.487 502.716C181.255 502.716 180.06 502.058 179.431 500.899C178.515 499.213 179.14 497.104 180.827 496.188L244.998 461.351C246.684 460.436 248.793 461.06 249.709 462.747C250.624 464.433 249.999 466.542 248.314 467.458L184.143 502.295C183.615 502.581 183.047 502.716 182.487 502.716Z" fill="#FFCF21"/>
<path d="M659.478 245.171C658.239 245.171 657.04 244.507 656.414 243.338C655.507 241.647 656.143 239.541 657.833 238.634L723.42 203.45C725.11 202.543 727.216 203.178 728.124 204.869C729.031 206.56 728.395 208.666 726.705 209.573L661.118 244.757C660.595 245.038 660.032 245.171 659.478 245.171Z" fill="#FFCF21"/>
<path d="M293.707 614.563C293.094 614.563 292.473 614.401 291.91 614.06C290.269 613.066 289.745 610.929 290.739 609.288L328.299 547.298C329.294 545.657 331.43 545.133 333.07 546.127C334.711 547.121 335.235 549.258 334.241 550.898L296.682 612.888C296.028 613.966 294.881 614.563 293.707 614.563Z" fill="#FFCF21"/>
<path d="M577.529 153.219C576.899 153.219 576.261 153.048 575.688 152.688C574.062 151.669 573.57 149.525 574.589 147.899L614.397 84.372C615.416 82.746 617.561 82.254 619.186 83.273C620.812 84.292 621.304 86.436 620.285 88.062L580.477 151.589C579.817 152.642 578.686 153.219 577.529 153.219Z" fill="#FFCF21"/>
<defs>
<linearGradient id="paint0_linear_35_121" x1="381.074" y1="160.011" x2="484.394" y2="495.803" gradientUnits="userSpaceOnUse">
<stop stop-color="#FFCF21"/>
<stop offset="0.5429" stop-color="#FFCF21"/>
</linearGradient>
</defs>
</svg>
