<svg width="409" height="365" viewBox="0 0 409 365" fill="none" xmlns="http://www.w3.org/2000/svg">
<path d="M136.513 136.403C134.222 132.964 130.705 130.974 125.291 130.974C112.506 130.974 110.276 142.049 109.886 157.188C117.533 148.702 126.421 141.466 136.513 136.403Z" fill="#3FDDC7"/>
<path d="M115.574 165.405C122.291 157.384 129.975 148.808 139.362 143.672C138.817 141.219 138.07 139.04 137.024 137.22C135.223 138.115 133.452 139.077 131.722 140.117C123.516 145.047 116.236 151.311 109.856 158.47C109.802 161.287 109.801 164.232 109.801 167.267C109.801 168.84 109.906 170.386 110.082 171.906C111.921 169.741 113.756 167.576 115.574 165.405Z" fill="#EBD800"/>
<path d="M128.889 152.628C123.216 157.784 118.258 163.667 113.412 169.589C112.375 170.857 111.326 172.115 110.275 173.372C112.859 190.508 125.29 203.56 125.29 203.56C125.29 203.56 140.779 187.311 140.779 167.267C140.779 158.748 140.776 150.918 139.586 144.727C135.731 146.895 132.172 149.643 128.889 152.628Z" fill="#3FDDC7"/>
<path d="M161.906 188.85C147.733 203.023 125.29 203.561 125.29 203.561C125.29 203.561 125.827 181.119 140.001 166.945C154.175 152.771 176.617 152.234 176.617 152.234C176.617 152.234 176.08 174.676 161.906 188.85Z" fill="#6276EF"/>
<path d="M110.58 166.945C124.753 181.118 125.291 203.561 125.291 203.561C125.291 203.561 102.849 203.024 88.675 188.85C74.501 174.676 73.964 152.234 73.964 152.234C73.964 152.234 96.407 152.771 110.58 166.945Z" fill="#6276EF"/>
<path d="M92.0063 226.365V209.048H94.1033V224.505H102.153V226.365H92.0063ZM119.337 217.707C119.337 219.533 119.007 221.112 118.348 222.442C117.688 223.772 116.783 224.798 115.633 225.52C114.484 226.241 113.17 226.602 111.693 226.602C110.216 226.602 108.903 226.241 107.753 225.52C106.603 224.798 105.698 223.772 105.039 222.442C104.379 221.112 104.049 219.533 104.049 217.707C104.049 215.88 104.379 214.302 105.039 212.972C105.698 211.641 106.603 210.615 107.753 209.894C108.903 209.172 110.216 208.811 111.693 208.811C113.17 208.811 114.484 209.172 115.633 209.894C116.783 210.615 117.688 211.641 118.348 212.972C119.007 214.302 119.337 215.88 119.337 217.707ZM117.308 217.707C117.308 216.207 117.057 214.942 116.555 213.91C116.059 212.879 115.385 212.098 114.534 211.568C113.689 211.038 112.742 210.773 111.693 210.773C110.645 210.773 109.695 211.038 108.844 211.568C107.998 212.098 107.324 212.879 106.823 213.91C106.327 214.942 106.079 216.207 106.079 217.707C106.079 219.206 106.327 220.472 106.823 221.503C107.324 222.535 107.998 223.316 108.844 223.846C109.695 224.375 110.645 224.64 111.693 224.64C112.742 224.64 113.689 224.375 114.534 223.846C115.385 223.316 116.059 222.535 116.555 221.503C117.057 220.472 117.308 219.206 117.308 217.707ZM134.701 214.46C134.515 213.89 134.27 213.38 133.965 212.929C133.667 212.473 133.309 212.084 132.891 211.762C132.48 211.441 132.012 211.196 131.488 211.027C130.964 210.858 130.389 210.773 129.763 210.773C128.737 210.773 127.804 211.038 126.964 211.568C126.124 212.098 125.456 212.879 124.96 213.91C124.464 214.942 124.216 216.207 124.216 217.707C124.216 219.206 124.467 220.472 124.969 221.503C125.47 222.535 126.149 223.316 127.006 223.846C127.863 224.375 128.827 224.64 129.898 224.64C130.89 224.64 131.764 224.429 132.519 224.006C133.28 223.578 133.872 222.975 134.295 222.197C134.724 221.413 134.938 220.491 134.938 219.432L135.58 219.567H130.372V217.707H136.967V219.567C136.967 220.993 136.663 222.233 136.054 223.287C135.451 224.342 134.616 225.159 133.551 225.74C132.491 226.315 131.274 226.602 129.898 226.602C128.365 226.602 127.018 226.241 125.856 225.52C124.701 224.798 123.799 223.772 123.151 222.442C122.508 221.112 122.187 219.533 122.187 217.707C122.187 216.337 122.37 215.105 122.736 214.012C123.108 212.912 123.633 211.977 124.309 211.204C124.985 210.432 125.786 209.84 126.71 209.429C127.635 209.017 128.652 208.811 129.763 208.811C130.676 208.811 131.527 208.949 132.316 209.226C133.111 209.496 133.819 209.882 134.439 210.384C135.065 210.88 135.586 211.475 136.003 212.168C136.42 212.856 136.708 213.62 136.866 214.46H134.701ZM155.17 217.707C155.17 219.533 154.84 221.112 154.181 222.442C153.521 223.772 152.616 224.798 151.466 225.52C150.316 226.241 149.003 226.602 147.526 226.602C146.049 226.602 144.736 226.241 143.586 225.52C142.436 224.798 141.531 223.772 140.871 222.442C140.212 221.112 139.882 219.533 139.882 217.707C139.882 215.88 140.212 214.302 140.871 212.972C141.531 211.641 142.436 210.615 143.586 209.894C144.736 209.172 146.049 208.811 147.526 208.811C149.003 208.811 150.316 209.172 151.466 209.894C152.616 210.615 153.521 211.641 154.181 212.972C154.84 214.302 155.17 215.88 155.17 217.707ZM153.141 217.707C153.141 216.207 152.89 214.942 152.388 213.91C151.892 212.879 151.218 212.098 150.367 211.568C149.522 211.038 148.575 210.773 147.526 210.773C146.478 210.773 145.528 211.038 144.677 211.568C143.831 212.098 143.157 212.879 142.656 213.91C142.16 214.942 141.912 216.207 141.912 217.707C141.912 219.206 142.16 220.472 142.656 221.503C143.157 222.535 143.831 223.316 144.677 223.846C145.528 224.375 146.478 224.64 147.526 224.64C148.575 224.64 149.522 224.375 150.367 223.846C151.218 223.316 151.892 222.535 152.388 221.503C152.89 220.472 153.141 219.206 153.141 217.707Z" fill="#6276EF"/>
<path d="M0.697998 355.682H188.652C188.652 355.682 198.971 326.799 188.652 312.382C173.386 291.053 132.387 296.346 126.163 280.987C119.939 265.628 112.778 247.986 97.237 247.49C81.696 246.994 68.806 295.098 57.781 301.544C46.756 307.99 38.386 293.736 17.513 306.97C0.964996 317.46 0.697998 355.682 0.697998 355.682Z" fill="url(#paint0_linear_47_5)"/>
<path d="M216.3 355.682H404.254C404.254 355.682 414.573 326.799 404.254 312.382C388.988 291.053 347.989 296.346 341.765 280.987C335.541 265.628 328.38 247.986 312.839 247.49C297.298 246.994 284.408 295.098 273.383 301.544C262.358 307.99 253.988 293.736 233.115 306.97C216.567 317.46 216.3 355.682 216.3 355.682Z" fill="url(#paint1_linear_47_5)"/>
<path d="M391.118 355.742C388.611 344.712 386.203 304.806 368.351 301.275C348.48 297.345 347.996 322.585 331.795 320.679C308.899 317.986 309.227 339.976 301.045 337.748C267.491 328.612 239.516 355.741 239.516 355.741H391.118V355.742Z" fill="#3FDDC7"/>
<path d="M346.823 355.742C346.823 355.742 343.934 334.243 328.925 331.476C313.917 328.709 322.303 295.422 299.472 297.497C276.641 299.572 268.912 345.152 223.204 355.742" stroke="#4D61BC" stroke-miterlimit="10"/>
<path d="M299.053 355.639L311.782 303.946C312.654 300.405 316.018 298.061 319.642 298.47C323.47 298.902 326.294 302.25 326.074 306.096L323.084 355.73L299.053 355.639Z" fill="#4D61BC"/>
<path d="M319.012 303.692L310.317 355.682" stroke="#3FDDC7" stroke-miterlimit="10"/>
<path d="M312.22 314.243C312.22 314.243 312.402 319.7 315.788 322.965" stroke="#3FDDC7" stroke-miterlimit="10"/>
<path d="M322.22 330.051C322.22 330.051 318.798 336.412 313.934 335.87" stroke="#3FDDC7" stroke-miterlimit="10"/>
<path d="M305.585 340.537C305.585 340.537 306.707 345.868 311.575 348.16" stroke="#3FDDC7" stroke-miterlimit="10"/>
<path d="M323.168 307.945C323.168 307.945 321.846 312.818 318.117 311.625" stroke="#3FDDC7" stroke-miterlimit="10"/>
<path d="M357.685 355.685C357.685 355.685 360.253 345.142 368.121 341.437C376.978 337.266 374.81 323.826 384.998 325.538C392.931 326.871 395.272 355.685 395.272 355.685H357.685Z" fill="#4D61BC"/>
<path d="M172.432 355.742H40.42C40.42 355.742 45.295 326.949 74.413 333.165C84.819 335.387 81.515 288.959 110.243 292.339C130.571 294.73 125.37 330.96 140.496 335.144C155.623 339.328 169.287 341.902 172.432 355.742Z" fill="#4D61BC"/>
<path d="M156.518 355.742C156.518 355.742 158.296 336.255 138.635 332.63C118.974 329.005 122.599 289.578 92.689 292.297C62.779 295.016 40.574 347.585 4.77301 355.742" stroke="#3FDDC7" stroke-miterlimit="10"/>
<path d="M113.893 355.757L107.613 307.401C107.183 304.089 104.361 301.61 101.021 301.61C97.492 301.61 94.578 304.367 94.384 307.891L91.742 355.757H113.893Z" fill="#3FDDC7"/>
<path d="M101.059 306.428L103.696 355.757" stroke="#2D21A7" stroke-miterlimit="10"/>
<path d="M106.158 316.729C106.158 316.729 105.432 321.677 102.015 324.301" stroke="#2D21A7" stroke-miterlimit="10"/>
<path d="M95.434 330.09C95.434 330.09 97.895 336.231 102.378 336.237" stroke="#2D21A7" stroke-miterlimit="10"/>
<path d="M109.498 341.341C109.498 341.341 107.93 346.078 103.264 347.665" stroke="#2D21A7" stroke-miterlimit="10"/>
<path d="M96.84 309.872C96.84 309.872 97.543 314.443 101.059 313.74" stroke="#2D21A7" stroke-miterlimit="10"/>
<path d="M33.351 355.742C33.351 355.742 31.471 335.981 40.706 335.917C48.061 335.866 51.738 350.97 51.738 350.97C51.738 350.97 57.622 346.844 63.211 349.008C68.746 351.151 69.389 355.741 69.389 355.741H33.351V355.742Z" fill="#3FDDC7"/>
<path d="M131.128 355.742C131.128 355.742 129.05 333.901 139.257 333.831C147.386 333.775 151.45 350.469 151.45 350.469C151.45 350.469 157.953 345.909 164.131 348.301C170.249 350.669 170.959 355.743 170.959 355.743H131.128V355.742Z" fill="#3FDDC7"/>
<path d="M138.932 338.87L143.809 355.742" stroke="#4D61BC" stroke-miterlimit="10"/>
<path d="M278.09 47.589V107.422" stroke="#2D21A7" stroke-width="3" stroke-miterlimit="10"/>
<path d="M287.572 99.1952V51.2812H316.489V56.4282H293.374V72.6179H314.992V77.7649H293.374V94.0482H316.863V99.1952H287.572Z" fill="#6276EF"/>
<path d="M370.512 158.311H300.704V228.119H370.512V158.311Z" stroke="#6276EF" stroke-miterlimit="10"/>
<path d="M362.891 165.933H308.326V220.498H362.891V165.933Z" fill="#3FDDC7"/>
<path d="M308.326 220.497H362.891V192.549L338.775 208.481L322.746 199.471L308.326 213.033V220.497Z" fill="#4D61BC"/>
<path d="M338.132 198.621C342.821 198.621 346.622 194.82 346.622 190.131C346.622 185.442 342.821 181.641 338.132 181.641C333.443 181.641 329.642 185.442 329.642 190.131C329.642 194.82 333.443 198.621 338.132 198.621Z" fill="#EBD800"/>
<path d="M144.999 51.317H121.727V74.589H144.999V51.317Z" fill="#EBD800"/>
<path d="M168.271 51.317H144.999V74.589H168.271V51.317Z" fill="#3FDDC7"/>
<path d="M191.543 51.317H168.271V74.589H191.543V51.317Z" fill="#E75526"/>
<path d="M214.815 51.317H191.543V74.589H214.815V51.317Z" fill="#ED8CB1"/>
<path d="M130.112 70.352C130.112 77.894 123.998 84.008 116.456 84.008C108.914 84.008 102.8 77.894 102.8 70.352C102.8 62.81 116.456 39.787 116.456 39.787C116.456 39.787 130.112 62.81 130.112 70.352Z" fill="#6276EF"/>
<path d="M211.189 137.027C211.026 137.223 208.179 149.934 209.982 151.545C211.785 153.156 216.391 152.18 220.944 151.855L221.779 137.027H211.189Z" fill="#252639"/>
<path d="M210.938 208.107C210.938 208.107 219.129 209.408 225.935 209.408C232.741 209.408 243.453 207.24 243.453 207.24C243.453 207.24 257.172 228.543 266.882 265.009C276.117 299.696 284.209 350.827 280.601 357.736C277.178 364.29 218.269 364.075 231.748 364.289C233.713 364.32 183.176 362.491 184.135 355.756C184.135 355.756 189.944 288.922 195.515 262.171C200.86 236.509 210.938 208.107 210.938 208.107Z" fill="#252639"/>
<path d="M219.068 141.282C219.068 141.282 219.511 148.563 216.644 150.692C213.777 152.821 202.908 159.089 202.908 159.089C202.908 159.089 221.024 161.503 229.116 160.787C237.208 160.071 248.983 157.92 248.983 157.92C248.983 157.92 243.247 154.287 237.034 150.945C230.984 147.691 227.377 118.842 227.377 118.842L219.068 141.282Z" fill="#F09F79"/>
<path d="M272.673 242.436C272.673 242.436 273.647 245.636 274.423 247.487C275.199 249.339 278.186 250.224 280.249 249.152C282.312 248.08 282.367 245.132 280.602 243.288C278.837 241.444 275.498 239.674 275.498 239.674L272.673 242.436Z" fill="#F09F79"/>
<path d="M224.945 125.138C226.361 133.651 225.884 143.144 217.988 148.916L219.145 137.925L224.945 125.138Z" fill="#F09F79"/>
<path d="M222.519 133.431C223.441 138.975 223.13 145.157 217.988 148.916L218.742 141.758L222.519 133.431Z" fill="#EE7557"/>
<path d="M276.904 240.874C276.904 240.874 266.842 205.077 260.361 183.504C256.631 184.714 253.396 185.001 249.848 186.105C257.085 209.024 270.034 239.63 272.988 243.264C273.516 243.913 273.901 244.137 274.655 243.774L276.248 243.006C277.194 242.55 277.43 241.783 276.904 240.874Z" fill="#F09F79"/>
<path d="M148.724 149.839C148.724 149.839 147.355 146.604 146.34 144.756C145.325 142.908 142.108 142.312 140.071 143.658C138.034 145.005 138.302 148.09 140.348 149.821C142.395 151.552 146.077 153.034 146.077 153.034L148.724 149.839Z" fill="#F09F79"/>
<path d="M175.279 171.34L148.416 149.126C147.74 148.483 147.442 148.958 146.74 149.572L145.826 150.583C145.134 151.188 145.007 152.215 145.529 152.971C145.529 152.971 168.202 179.844 170.174 181.132C173.47 183.284 176.241 182.931 179.513 181.911L193.487 175.719C190.995 172.203 189.086 165.572 189.086 165.572L175.279 171.34Z" fill="#F09F79"/>
<path d="M256.08 165.918C253.402 159.853 251.284 155.919 243.968 154.456C243.373 154.337 238.606 159.234 222.254 159.442C211.615 159.577 211.574 153.893 206.738 156.082C204.457 157.114 197.61 159.493 189.607 163.069C188.927 163.373 188.531 164.106 188.68 164.836C189.587 169.278 191.312 173.285 193.653 176.855C194.074 177.496 194.905 177.731 195.612 177.434L207.253 172.556C207.253 172.556 206.745 182.715 206.711 187.682C206.658 195.519 205.519 206.029 210.867 208.102C210.867 208.102 218.788 210.219 225.946 210.219C233.104 210.219 243.454 207.238 243.454 207.238C248.984 206.046 245.505 192.062 245.64 176.791C246.51 180.226 247.413 182.423 248.503 185.699C248.772 186.508 249.624 186.979 250.446 186.752C253.646 185.871 257.376 185.142 260.697 184.195C261.566 183.947 262.066 183.037 261.803 182.172C258.469 171.212 256.967 167.926 256.08 165.918Z" fill="#E75526"/>
<path d="M244.361 206.03L244.108 206.041C244.188 206.053 244.272 206.05 244.361 206.03Z" fill="#6276EF"/>
<path d="M217.132 141.386C222.253 141.654 226.662 137.684 226.93 132.563L227.533 121.047C227.801 115.926 223.831 111.517 218.71 111.249C213.589 110.981 209.181 114.951 208.912 120.072L208.309 131.588C208.041 136.708 212.011 141.117 217.132 141.386Z" fill="#F09F79"/>
<path d="M212.688 118.842C212.688 118.842 220.564 128.173 224.954 128.01C224.954 128.01 225.864 148.815 227.982 150.933C230.099 153.05 243.086 152.18 244.235 149.687C245.385 147.194 243.495 121.606 229.073 113.161C223.242 109.747 207.775 108.121 208.772 122.754C208.772 122.754 211.062 120.946 212.688 118.842Z" fill="#252639"/>
<path d="M212.688 112.727C209.618 114.409 204.671 120.746 208.608 125.896L209.564 120.37L212.688 112.727Z" fill="#252639"/>
<path d="M208.049 192.329C208.049 192.329 220.665 194.833 244.515 191.419" stroke="white" stroke-miterlimit="10" stroke-linecap="round" stroke-linejoin="round"/>
<path d="M208.049 197.471C208.049 197.471 223.25 201.418 244.515 196.378" stroke="white" stroke-miterlimit="10" stroke-linecap="round" stroke-linejoin="round"/>
<path d="M226.62 134.52C227.221 134.52 227.709 134.032 227.709 133.431C227.709 132.83 227.221 132.342 226.62 132.342C226.019 132.342 225.531 132.83 225.531 133.431C225.531 134.032 226.019 134.52 226.62 134.52Z" fill="#EBD800"/>
<path d="M185.707 118.842H64.875V239.674H185.707V118.842Z" stroke="#2D21A7" stroke-miterlimit="10"/>
<path d="M69.39 234.445H59.887V243.948H69.39V234.445Z" fill="#6276EF"/>
<path d="M190.222 234.445H180.719V243.948H190.222V234.445Z" fill="#6276EF"/>
<path d="M69.39 114.091H59.887V123.594H69.39V114.091Z" fill="#6276EF"/>
<path d="M190.222 114.091H180.719V123.594H190.222V114.091Z" fill="#6276EF"/>
<path d="M20.371 103.203H109.378C109.378 103.203 108.159 84.753 88.789 89.955C88.789 89.955 89.188 78.491 78.145 77.19C69.78 76.204 66.001 86.295 66.001 86.295C66.001 86.295 64.874 66.723 46.534 70.625C36.792 72.698 36.781 88.419 36.781 88.419C36.781 88.419 22.27 91.739 20.371 103.203Z" fill="url(#paint2_linear_47_5)"/>
<path d="M174.247 32.924H273.094C273.094 32.924 270.059 19.051 254.452 19.051C254.452 19.051 253.97 1.025 231.793 0.826996C218.395 0.707996 212.893 16.814 212.893 16.814C212.893 16.814 201.812 11.094 194.197 13.451C186.582 15.808 187.835 25.356 187.835 25.356C187.835 25.356 173.38 23.387 174.247 32.924Z" fill="url(#paint3_linear_47_5)"/>
<path d="M278.693 143.241H373.482C373.482 143.241 367.04 127.136 348.864 134.268C348.864 134.268 350.244 123.225 339.661 121.384C331.192 119.911 328.388 127.366 328.388 127.366C328.388 127.366 320.534 115.236 312.058 119.689C305.614 123.074 305.575 131.672 305.575 131.672C305.575 131.672 281.684 134.038 278.693 143.241Z" fill="url(#paint4_linear_47_5)"/>
<defs>
<linearGradient id="paint0_linear_47_5" x1="0.697798" y1="301.584" x2="193.238" y2="301.584" gradientUnits="userSpaceOnUse">
<stop stop-color="white"/>
<stop offset="1" stop-color="#C3CAF4"/>
</linearGradient>
<linearGradient id="paint1_linear_47_5" x1="216.3" y1="301.584" x2="408.84" y2="301.584" gradientUnits="userSpaceOnUse">
<stop stop-color="white"/>
<stop offset="1" stop-color="#C3CAF4"/>
</linearGradient>
<linearGradient id="paint2_linear_47_5" x1="20.3711" y1="86.6567" x2="109.378" y2="86.6567" gradientUnits="userSpaceOnUse">
<stop stop-color="white"/>
<stop offset="1" stop-color="#C3CAF4"/>
</linearGradient>
<linearGradient id="paint3_linear_47_5" x1="174.21" y1="16.8755" x2="273.094" y2="16.8755" gradientUnits="userSpaceOnUse">
<stop stop-color="white"/>
<stop offset="1" stop-color="#C3CAF4"/>
</linearGradient>
<linearGradient id="paint4_linear_47_5" x1="278.693" y1="130.974" x2="373.482" y2="130.974" gradientUnits="userSpaceOnUse">
<stop stop-color="white"/>
<stop offset="1" stop-color="#C3CAF4"/>
</linearGradient>
</defs>
</svg>
