<svg width="500" height="500" viewBox="0 0 500 500" fill="none" xmlns="http://www.w3.org/2000/svg">
<path d="M339.932 170.135C339.932 173.494 342.657 176.218 346.016 176.218C349.375 176.218 352.098 173.494 352.098 170.135V133.062C352.098 129.703 349.375 126.98 346.016 126.98C342.657 126.98 339.932 129.703 339.932 133.062V170.135Z" fill="#808080"/>
<path d="M154.305 101.455C154.305 103.224 152.872 104.656 151.104 104.656C149.336 104.656 147.903 103.223 147.903 101.455V91.857C147.903 90.089 149.337 88.656 151.104 88.656C152.873 88.656 154.305 90.089 154.305 91.857V101.455Z" fill="#808080"/>
<path d="M156.527 142.219C156.527 144.601 154.596 146.532 152.214 146.532C149.832 146.532 147.901 144.601 147.901 142.219V122.219C147.901 119.837 149.832 117.906 152.214 117.906C154.596 117.906 156.527 119.837 156.527 122.219V142.219Z" fill="#808080"/>
<path d="M156.527 178.219C156.527 180.601 154.596 182.532 152.214 182.532C149.832 182.532 147.901 180.601 147.901 178.219V158.219C147.901 155.837 149.832 153.906 152.214 153.906C154.596 153.906 156.527 155.837 156.527 158.219V178.219Z" fill="#808080"/>
<path d="M349.865 403.667C349.865 420.718 335.914 434.667 318.865 434.667H181.42C164.37 434.667 150.42 420.718 150.42 403.667V65.667C150.42 48.617 164.37 34.667 181.42 34.667H318.865C335.914 34.667 349.865 48.617 349.865 65.667V403.667Z" fill="#CCCCCC"/>
<path d="M181.42 429.667C167.083 429.667 155.42 418.005 155.42 403.667V65.667C155.42 51.331 167.083 39.667 181.42 39.667H318.865C333.201 39.667 344.865 51.331 344.865 65.667V403.667C344.865 418.005 333.201 429.667 318.865 429.667H181.42Z" fill="#333333" stroke="black" stroke-width="2" stroke-miterlimit="10"/>
<path d="M318.865 43.667C330.996 43.667 340.865 53.536 340.865 65.667V403.667C340.865 415.798 330.996 425.667 318.865 425.667" stroke="#CCCCCC" stroke-width="2" stroke-miterlimit="10" stroke-linecap="round" stroke-linejoin="round"/>
<path d="M201.877 82.441C209.446 72.668 214.199 60.29 215.482 47.667H181.291C171.366 47.667 163.291 55.742 163.291 65.667V113.997C178.979 105.198 193.384 93.407 201.877 82.441Z" fill="#CC1740"/>
<path d="M172.08 228.667C189.838 209.872 208.442 193.079 228.881 176.444C252.483 157.235 253.453 127.187 244.076 99.673C239.337 85.77 232.343 64.432 221.771 47.666H215.482C214.199 60.289 209.446 72.667 201.877 82.44C193.384 93.406 178.979 105.197 163.291 113.996V236.24C166.259 234.243 169.185 231.731 172.08 228.667Z" fill="#CE1695"/>
<path d="M293.076 208.692C311.441 200.976 320.885 187.363 333.271 172.667C334.375 171.359 335.539 170.029 336.736 168.682V65.667C336.736 55.742 328.662 47.667 318.736 47.667H221.771C232.342 64.433 239.336 85.771 244.076 99.674C251.176 120.503 252.334 142.781 242.241 160.712C246.87 187.587 259.664 222.729 293.076 208.692Z" fill="#2E3CA2"/>
<path d="M231.877 296.72C250.734 257.833 248.184 212.609 231.064 174.575C230.358 175.209 229.632 175.833 228.88 176.445C208.442 193.08 189.837 209.873 172.079 228.668C169.184 231.732 166.258 234.244 163.29 236.242V318.392C166.004 319.619 168.622 320.73 171.072 321.716C197.78 332.452 219.47 322.306 231.877 296.72Z" fill="#E85F43"/>
<path d="M333.271 172.667C320.884 187.363 311.441 200.977 293.076 208.692C259.664 222.728 246.87 187.587 242.241 160.712C239.427 165.712 235.743 170.376 231.064 174.574C248.183 212.608 250.734 257.833 231.877 296.719C219.47 322.305 197.78 332.451 171.073 321.715C168.623 320.729 166.005 319.617 163.291 318.391V403.666C163.291 413.592 171.366 421.666 181.291 421.666H258.307C276.729 383.586 268.45 332.107 294.08 294.666C301.58 283.711 319.699 271.35 336.736 268.619V168.681C335.539 170.029 334.375 171.359 333.271 172.667Z" fill="#E0CDD3"/>
<path d="M323.08 355.644C326.766 349.349 331.682 344.345 336.736 339.718V268.62C319.699 271.35 301.58 283.712 294.08 294.667C268.449 332.108 276.728 383.587 258.307 421.667H318.737C323.825 421.667 328.419 419.536 331.696 416.13C325.514 407.341 320.778 397.39 319.251 391.644C316.221 380.247 317.135 365.8 323.08 355.644Z" fill="#CC1740"/>
<path d="M336.736 339.718C331.681 344.345 326.765 349.349 323.08 355.644C317.135 365.8 316.221 380.248 319.25 391.644C320.777 397.39 325.514 407.341 331.695 416.13C334.808 412.892 336.736 408.503 336.736 403.667V339.718Z" fill="#9647BA"/>
<path d="M201.681 47.454C201.447 48.338 201.309 49.262 201.309 50.22C201.309 56.165 206.129 60.985 212.075 60.985H288.212C294.157 60.985 298.978 56.166 298.978 50.22C298.978 49.262 298.841 48.338 298.605 47.454H201.681Z" fill="#333333"/>
<path d="M262.09 50.969C262.09 51.936 261.307 52.719 260.34 52.719H239.59C238.624 52.719 237.84 51.936 237.84 50.969C237.84 50.003 238.624 49.219 239.59 49.219H260.34C261.307 49.219 262.09 50.003 262.09 50.969Z" fill="black"/>
<path d="M268.215 54.219C270.01 54.219 271.465 52.7639 271.465 50.969C271.465 49.1741 270.01 47.719 268.215 47.719C266.42 47.719 264.965 49.1741 264.965 50.969C264.965 52.7639 266.42 54.219 268.215 54.219Z" fill="black"/>
<g opacity="0.65">
<path d="M193.393 406.532C201.539 406.532 208.143 399.928 208.143 391.782C208.143 383.636 201.539 377.032 193.393 377.032C185.247 377.032 178.643 383.636 178.643 391.782C178.643 399.928 185.247 406.532 193.393 406.532Z" fill="white"/>
<path d="M306.893 406.532C315.039 406.532 321.643 399.928 321.643 391.782C321.643 383.636 315.039 377.032 306.893 377.032C298.747 377.032 292.143 383.636 292.143 391.782C292.143 399.928 298.747 406.532 306.893 406.532Z" fill="white"/>
</g>
<path d="M216.96 121.587C218.413 121.598 219.866 121.875 221.319 122.417C222.773 122.959 224.099 123.859 225.298 125.116C226.498 126.361 227.461 128.062 228.187 130.219C228.914 132.375 229.277 135.08 229.277 138.332C229.277 141.481 228.977 144.277 228.377 146.722C227.789 149.156 226.936 151.208 225.817 152.881C224.71 154.553 223.361 155.821 221.769 156.686C220.189 157.551 218.402 157.984 216.406 157.984C214.423 157.984 212.653 157.592 211.096 156.807C209.55 156.012 208.282 154.91 207.29 153.503C206.31 152.085 205.681 150.441 205.404 148.573H209.625C210.006 150.199 210.761 151.543 211.891 152.604C213.033 153.653 214.538 154.178 216.406 154.178C219.14 154.178 221.296 152.984 222.876 150.597C224.468 148.21 225.264 144.837 225.264 140.477H224.987C224.341 141.446 223.574 142.282 222.686 142.986C221.798 143.689 220.812 144.231 219.728 144.612C218.644 144.992 217.491 145.183 216.268 145.183C214.238 145.183 212.376 144.681 210.681 143.677C208.997 142.663 207.647 141.273 206.633 139.508C205.629 137.732 205.128 135.703 205.128 133.419C205.128 131.251 205.612 129.267 206.581 127.468C207.561 125.658 208.933 124.216 210.698 123.144C212.474 122.071 214.561 121.552 216.96 121.587ZM216.96 125.392C215.507 125.392 214.198 125.756 213.033 126.482C211.88 127.197 210.963 128.166 210.283 129.389C209.614 130.599 209.279 131.943 209.279 133.419C209.279 134.895 209.602 136.239 210.248 137.45C210.905 138.649 211.799 139.606 212.929 140.321C214.071 141.025 215.369 141.377 216.822 141.377C217.917 141.377 218.938 141.163 219.884 140.737C220.829 140.298 221.654 139.704 222.357 138.955C223.072 138.194 223.632 137.335 224.035 136.377C224.439 135.409 224.641 134.399 224.641 133.35C224.641 131.966 224.306 130.669 223.637 129.458C222.98 128.247 222.069 127.267 220.904 126.517C219.751 125.767 218.436 125.392 216.96 125.392ZM239.124 152.967C238.271 152.967 237.539 152.661 236.927 152.05C236.316 151.439 236.011 150.707 236.011 149.853C236.011 149 236.316 148.267 236.927 147.656C237.539 147.045 238.271 146.739 239.124 146.739C239.978 146.739 240.71 147.045 241.321 147.656C241.933 148.267 242.238 149 242.238 149.853C242.238 150.418 242.094 150.937 241.806 151.41C241.529 151.883 241.154 152.264 240.681 152.552C240.22 152.829 239.701 152.967 239.124 152.967ZM239.124 135.045C238.271 135.045 237.539 134.74 236.927 134.128C236.316 133.517 236.011 132.785 236.011 131.931C236.011 131.078 236.316 130.346 236.927 129.734C237.539 129.123 238.271 128.818 239.124 128.818C239.978 128.818 240.71 129.123 241.321 129.734C241.933 130.346 242.238 131.078 242.238 131.931C242.238 132.497 242.094 133.016 241.806 133.488C241.529 133.961 241.154 134.342 240.681 134.63C240.22 134.907 239.701 135.045 239.124 135.045ZM248.665 150.234V146.705L264.234 122.071H266.794V127.538H265.064L253.301 146.151V146.428H274.267V150.234H248.665ZM265.341 157.499V149.161V147.518V122.071H269.424V157.499H265.341ZM292.73 122.071V157.499H288.44V126.569H288.232L279.582 132.312V127.953L288.44 122.071H292.73Z" fill="white"/>
<path d="M257.063 100.445C257.063 101.678 256.065 102.677 254.831 102.677H245.455C244.222 102.677 243.223 101.678 243.223 100.445V92.91C243.223 91.677 244.222 90.677 245.455 90.677H254.831C256.065 90.677 257.063 91.677 257.063 92.91V100.445Z" fill="white"/>
<path d="M254.08 92.388V85.801C254.08 83.605 256.078 81.824 258.545 81.824H259.438C261.905 81.824 263.903 83.604 263.903 85.801V92.388" stroke="white" stroke-width="2" stroke-miterlimit="10" stroke-linecap="round" stroke-linejoin="round"/>
<path d="M268.215 52.719C269.181 52.719 269.965 51.9355 269.965 50.969C269.965 50.0025 269.181 49.219 268.215 49.219C267.248 49.219 266.465 50.0025 266.465 50.969C266.465 51.9355 267.248 52.719 268.215 52.719Z" fill="#2E3CA2"/>
<path d="M210.263 238.438H207.774C207.729 238.116 207.636 237.83 207.496 237.58C207.356 237.326 207.176 237.11 206.956 236.932C206.736 236.754 206.482 236.617 206.195 236.523C205.911 236.428 205.602 236.381 205.268 236.381C204.666 236.381 204.142 236.53 203.695 236.83C203.248 237.125 202.901 237.557 202.655 238.125C202.409 238.689 202.286 239.375 202.286 240.182C202.286 241.011 202.409 241.708 202.655 242.273C202.905 242.837 203.253 243.263 203.7 243.551C204.147 243.839 204.664 243.983 205.251 243.983C205.581 243.983 205.886 243.939 206.166 243.852C206.45 243.765 206.702 243.638 206.922 243.472C207.142 243.301 207.323 243.095 207.467 242.852C207.615 242.61 207.717 242.333 207.774 242.023L210.263 242.034C210.198 242.568 210.037 243.083 209.78 243.58C209.526 244.072 209.183 244.513 208.751 244.903C208.323 245.29 207.812 245.597 207.217 245.824C206.626 246.047 205.958 246.159 205.212 246.159C204.174 246.159 203.246 245.924 202.428 245.455C201.613 244.985 200.969 244.305 200.496 243.415C200.026 242.525 199.791 241.447 199.791 240.182C199.791 238.913 200.03 237.833 200.507 236.943C200.984 236.053 201.632 235.375 202.45 234.909C203.268 234.439 204.189 234.205 205.212 234.205C205.886 234.205 206.511 234.299 207.087 234.489C207.666 234.678 208.179 234.955 208.626 235.318C209.073 235.678 209.437 236.119 209.717 236.642C210.001 237.165 210.183 237.763 210.263 238.438ZM217.578 242.284V237.273H219.999V246H217.675V244.415H217.584C217.387 244.926 217.059 245.337 216.601 245.648C216.146 245.958 215.591 246.114 214.936 246.114C214.353 246.114 213.839 245.981 213.396 245.716C212.953 245.451 212.607 245.074 212.357 244.585C212.11 244.097 211.985 243.511 211.982 242.83V237.273H214.402V242.398C214.406 242.913 214.544 243.32 214.817 243.619C215.089 243.919 215.455 244.068 215.913 244.068C216.205 244.068 216.478 244.002 216.732 243.869C216.985 243.733 217.19 243.532 217.345 243.267C217.504 243.002 217.582 242.674 217.578 242.284ZM229.196 239.761L226.98 239.898C226.942 239.708 226.861 239.538 226.736 239.386C226.611 239.231 226.446 239.108 226.241 239.017C226.041 238.922 225.8 238.875 225.52 238.875C225.145 238.875 224.829 238.955 224.571 239.114C224.313 239.269 224.185 239.477 224.185 239.739C224.185 239.947 224.268 240.123 224.435 240.267C224.601 240.411 224.887 240.527 225.293 240.614L226.872 240.932C227.721 241.106 228.353 241.386 228.77 241.773C229.187 242.159 229.395 242.667 229.395 243.295C229.395 243.867 229.226 244.369 228.889 244.801C228.556 245.233 228.098 245.57 227.514 245.813C226.935 246.051 226.266 246.17 225.509 246.17C224.353 246.17 223.433 245.93 222.747 245.449C222.065 244.964 221.666 244.305 221.548 243.472L223.929 243.347C224.001 243.699 224.175 243.968 224.452 244.153C224.728 244.335 225.082 244.426 225.514 244.426C225.938 244.426 226.279 244.345 226.537 244.182C226.798 244.015 226.931 243.801 226.935 243.54C226.931 243.32 226.838 243.14 226.656 243C226.474 242.856 226.194 242.746 225.815 242.67L224.304 242.369C223.452 242.199 222.817 241.903 222.401 241.483C221.988 241.063 221.781 240.527 221.781 239.875C221.781 239.314 221.933 238.831 222.236 238.426C222.543 238.021 222.973 237.708 223.526 237.489C224.082 237.269 224.734 237.159 225.48 237.159C226.582 237.159 227.45 237.392 228.082 237.858C228.719 238.324 229.09 238.958 229.196 239.761ZM235.561 237.273V239.091H230.305V237.273H235.561ZM231.499 235.182H233.919V243.318C233.919 243.542 233.953 243.716 234.021 243.841C234.089 243.962 234.184 244.047 234.305 244.097C234.43 244.146 234.574 244.17 234.737 244.17C234.851 244.17 234.964 244.161 235.078 244.142C235.192 244.119 235.279 244.102 235.339 244.091L235.72 245.892C235.599 245.93 235.429 245.973 235.209 246.023C234.989 246.076 234.722 246.108 234.408 246.119C233.824 246.142 233.313 246.064 232.874 245.886C232.438 245.708 232.099 245.432 231.857 245.057C231.614 244.682 231.495 244.208 231.499 243.636V235.182ZM240.987 246.17C240.105 246.17 239.341 245.983 238.697 245.608C238.057 245.229 237.563 244.703 237.214 244.028C236.866 243.35 236.692 242.564 236.692 241.67C236.692 240.769 236.866 239.981 237.214 239.307C237.563 238.629 238.057 238.102 238.697 237.727C239.341 237.348 240.105 237.159 240.987 237.159C241.87 237.159 242.631 237.348 243.271 237.727C243.915 238.102 244.411 238.629 244.76 239.307C245.108 239.981 245.283 240.769 245.283 241.67C245.283 242.564 245.108 243.35 244.76 244.028C244.411 244.703 243.915 245.229 243.271 245.608C242.631 245.983 241.87 246.17 240.987 246.17ZM240.999 244.295C241.4 244.295 241.735 244.182 242.004 243.955C242.273 243.723 242.476 243.409 242.612 243.011C242.752 242.614 242.822 242.161 242.822 241.653C242.822 241.146 242.752 240.693 242.612 240.295C242.476 239.898 242.273 239.583 242.004 239.352C241.735 239.121 241.4 239.006 240.999 239.006C240.593 239.006 240.252 239.121 239.976 239.352C239.703 239.583 239.497 239.898 239.357 240.295C239.22 240.693 239.152 241.146 239.152 241.653C239.152 242.161 239.22 242.614 239.357 243.011C239.497 243.409 239.703 243.723 239.976 243.955C240.252 244.182 240.593 244.295 240.999 244.295ZM246.857 246V237.273H249.163V238.813H249.266C249.447 238.301 249.75 237.898 250.175 237.602C250.599 237.307 251.107 237.159 251.697 237.159C252.296 237.159 252.805 237.309 253.226 237.608C253.646 237.903 253.927 238.305 254.067 238.813H254.158C254.336 238.313 254.658 237.913 255.124 237.614C255.593 237.311 256.148 237.159 256.788 237.159C257.603 237.159 258.264 237.419 258.771 237.938C259.283 238.453 259.538 239.184 259.538 240.131V246H257.124V240.608C257.124 240.123 256.995 239.759 256.737 239.517C256.48 239.275 256.158 239.153 255.771 239.153C255.332 239.153 254.989 239.294 254.743 239.574C254.497 239.85 254.374 240.216 254.374 240.67V246H252.027V240.557C252.027 240.129 251.904 239.788 251.658 239.534C251.415 239.28 251.095 239.153 250.697 239.153C250.429 239.153 250.186 239.222 249.97 239.358C249.758 239.491 249.589 239.678 249.464 239.92C249.339 240.159 249.277 240.439 249.277 240.761V246H246.857ZM265.199 246V234.364H267.659V243.972H272.648V246H265.199ZM278.175 246.17C277.292 246.17 276.529 245.983 275.885 245.608C275.245 245.229 274.75 244.703 274.402 244.028C274.054 243.35 273.879 242.564 273.879 241.67C273.879 240.769 274.054 239.981 274.402 239.307C274.75 238.629 275.245 238.102 275.885 237.727C276.529 237.348 277.292 237.159 278.175 237.159C279.057 237.159 279.819 237.348 280.459 237.727C281.103 238.102 281.599 238.629 281.947 239.307C282.296 239.981 282.47 240.769 282.47 241.67C282.47 242.564 282.296 243.35 281.947 244.028C281.599 244.703 281.103 245.229 280.459 245.608C279.819 245.983 279.057 246.17 278.175 246.17ZM278.186 244.295C278.588 244.295 278.923 244.182 279.192 243.955C279.461 243.723 279.663 243.409 279.8 243.011C279.94 242.614 280.01 242.161 280.01 241.653C280.01 241.146 279.94 240.693 279.8 240.295C279.663 239.898 279.461 239.583 279.192 239.352C278.923 239.121 278.588 239.006 278.186 239.006C277.781 239.006 277.44 239.121 277.163 239.352C276.891 239.583 276.684 239.898 276.544 240.295C276.408 240.693 276.339 241.146 276.339 241.653C276.339 242.161 276.408 242.614 276.544 243.011C276.684 243.409 276.891 243.723 277.163 243.955C277.44 244.182 277.781 244.295 278.186 244.295ZM287.976 249.455C287.192 249.455 286.519 249.347 285.959 249.131C285.402 248.919 284.959 248.629 284.629 248.261C284.3 247.894 284.086 247.481 283.987 247.023L286.226 246.722C286.294 246.896 286.402 247.059 286.55 247.21C286.697 247.362 286.893 247.483 287.135 247.574C287.381 247.669 287.68 247.716 288.033 247.716C288.559 247.716 288.993 247.587 289.334 247.33C289.679 247.076 289.851 246.65 289.851 246.051V244.455H289.749C289.643 244.697 289.483 244.926 289.271 245.142C289.059 245.358 288.786 245.534 288.453 245.67C288.12 245.807 287.722 245.875 287.26 245.875C286.605 245.875 286.008 245.723 285.47 245.42C284.936 245.114 284.51 244.646 284.192 244.017C283.877 243.384 283.72 242.585 283.72 241.619C283.72 240.631 283.881 239.805 284.203 239.142C284.525 238.479 284.953 237.983 285.487 237.653C286.025 237.324 286.614 237.159 287.254 237.159C287.743 237.159 288.152 237.242 288.482 237.409C288.811 237.572 289.076 237.777 289.277 238.023C289.482 238.265 289.639 238.504 289.749 238.739H289.839V237.273H292.243V246.085C292.243 246.828 292.061 247.449 291.697 247.949C291.334 248.449 290.83 248.824 290.186 249.074C289.546 249.328 288.809 249.455 287.976 249.455ZM288.027 244.057C288.417 244.057 288.747 243.96 289.016 243.767C289.288 243.57 289.497 243.29 289.641 242.926C289.788 242.559 289.862 242.119 289.862 241.608C289.862 241.097 289.79 240.653 289.646 240.278C289.502 239.9 289.294 239.606 289.021 239.398C288.749 239.189 288.417 239.085 288.027 239.085C287.629 239.085 287.294 239.193 287.021 239.409C286.749 239.621 286.542 239.917 286.402 240.295C286.262 240.674 286.192 241.112 286.192 241.608C286.192 242.112 286.262 242.547 286.402 242.915C286.546 243.278 286.752 243.561 287.021 243.761C287.294 243.958 287.629 244.057 288.027 244.057ZM298.112 246.17C297.23 246.17 296.466 245.983 295.822 245.608C295.182 245.229 294.688 244.703 294.339 244.028C293.991 243.35 293.817 242.564 293.817 241.67C293.817 240.769 293.991 239.981 294.339 239.307C294.688 238.629 295.182 238.102 295.822 237.727C296.466 237.348 297.23 237.159 298.112 237.159C298.995 237.159 299.756 237.348 300.396 237.727C301.04 238.102 301.536 238.629 301.885 239.307C302.233 239.981 302.408 240.769 302.408 241.67C302.408 242.564 302.233 243.35 301.885 244.028C301.536 244.703 301.04 245.229 300.396 245.608C299.756 245.983 298.995 246.17 298.112 246.17ZM298.124 244.295C298.525 244.295 298.86 244.182 299.129 243.955C299.398 243.723 299.601 243.409 299.737 243.011C299.877 242.614 299.947 242.161 299.947 241.653C299.947 241.146 299.877 240.693 299.737 240.295C299.601 239.898 299.398 239.583 299.129 239.352C298.86 239.121 298.525 239.006 298.124 239.006C297.718 239.006 297.377 239.121 297.101 239.352C296.828 239.583 296.622 239.898 296.482 240.295C296.345 240.693 296.277 241.146 296.277 241.653C296.277 242.161 296.345 242.614 296.482 243.011C296.622 243.409 296.828 243.723 297.101 243.955C297.377 244.182 297.718 244.295 298.124 244.295ZM199.05 265H194.925V253.364H199.085C200.255 253.364 201.263 253.597 202.107 254.063C202.952 254.525 203.602 255.189 204.056 256.057C204.514 256.924 204.744 257.962 204.744 259.17C204.744 260.383 204.514 261.424 204.056 262.295C203.602 263.167 202.948 263.835 202.096 264.301C201.247 264.767 200.232 265 199.05 265ZM197.386 262.892H198.948C199.675 262.892 200.287 262.763 200.783 262.506C201.283 262.244 201.658 261.841 201.908 261.295C202.162 260.746 202.289 260.038 202.289 259.17C202.289 258.311 202.162 257.608 201.908 257.063C201.658 256.517 201.285 256.116 200.789 255.858C200.293 255.6 199.681 255.472 198.954 255.472H197.386V262.892ZM210.498 265.17C209.6 265.17 208.827 264.989 208.18 264.625C207.536 264.258 207.04 263.739 206.691 263.068C206.343 262.394 206.168 261.597 206.168 260.676C206.168 259.778 206.343 258.991 206.691 258.313C207.04 257.634 207.53 257.106 208.163 256.727C208.799 256.348 209.545 256.159 210.401 256.159C210.977 256.159 211.513 256.252 212.009 256.438C212.509 256.619 212.945 256.894 213.316 257.261C213.691 257.629 213.983 258.091 214.191 258.648C214.399 259.201 214.504 259.848 214.504 260.591V261.256H207.134V259.756H212.225C212.225 259.407 212.149 259.098 211.998 258.83C211.846 258.561 211.636 258.35 211.367 258.199C211.102 258.044 210.793 257.966 210.441 257.966C210.074 257.966 209.748 258.051 209.464 258.222C209.183 258.388 208.964 258.614 208.805 258.898C208.646 259.178 208.564 259.491 208.56 259.835V261.261C208.56 261.693 208.64 262.066 208.799 262.381C208.962 262.695 209.191 262.938 209.487 263.108C209.782 263.278 210.132 263.364 210.538 263.364C210.807 263.364 211.053 263.326 211.276 263.25C211.5 263.174 211.691 263.061 211.85 262.909C212.009 262.758 212.13 262.572 212.214 262.352L214.452 262.5C214.339 263.038 214.106 263.508 213.754 263.909C213.405 264.307 212.954 264.617 212.401 264.841C211.852 265.061 211.218 265.17 210.498 265.17ZM223.344 258.761L221.129 258.898C221.091 258.708 221.009 258.538 220.884 258.386C220.759 258.231 220.594 258.108 220.39 258.017C220.189 257.922 219.949 257.875 219.668 257.875C219.293 257.875 218.977 257.955 218.719 258.114C218.462 258.269 218.333 258.477 218.333 258.739C218.333 258.947 218.416 259.123 218.583 259.267C218.75 259.411 219.036 259.527 219.441 259.614L221.021 259.932C221.869 260.106 222.502 260.386 222.918 260.773C223.335 261.159 223.543 261.667 223.543 262.295C223.543 262.867 223.375 263.369 223.038 263.801C222.704 264.233 222.246 264.57 221.663 264.813C221.083 265.051 220.415 265.17 219.657 265.17C218.502 265.17 217.581 264.93 216.896 264.449C216.214 263.964 215.814 263.305 215.697 262.472L218.077 262.347C218.149 262.699 218.324 262.968 218.6 263.153C218.877 263.335 219.231 263.426 219.663 263.426C220.087 263.426 220.428 263.345 220.685 263.182C220.947 263.015 221.079 262.801 221.083 262.54C221.079 262.32 220.987 262.14 220.805 262C220.623 261.856 220.343 261.746 219.964 261.67L218.452 261.369C217.6 261.199 216.966 260.903 216.549 260.483C216.136 260.063 215.93 259.527 215.93 258.875C215.93 258.314 216.081 257.831 216.384 257.426C216.691 257.021 217.121 256.708 217.674 256.489C218.231 256.269 218.882 256.159 219.629 256.159C220.731 256.159 221.598 256.392 222.231 256.858C222.867 257.324 223.238 257.958 223.344 258.761ZM225.067 265V256.273H227.488V265H225.067ZM226.283 255.148C225.924 255.148 225.615 255.028 225.357 254.79C225.103 254.547 224.977 254.258 224.977 253.92C224.977 253.587 225.103 253.301 225.357 253.063C225.615 252.82 225.924 252.699 226.283 252.699C226.643 252.699 226.95 252.82 227.204 253.063C227.461 253.301 227.59 253.587 227.59 253.92C227.59 254.258 227.461 254.547 227.204 254.79C226.95 255.028 226.643 255.148 226.283 255.148ZM233.359 268.455C232.575 268.455 231.902 268.347 231.342 268.131C230.785 267.919 230.342 267.629 230.012 267.261C229.683 266.894 229.469 266.481 229.37 266.023L231.609 265.722C231.677 265.896 231.785 266.059 231.933 266.21C232.08 266.362 232.275 266.483 232.518 266.574C232.764 266.669 233.063 266.716 233.415 266.716C233.942 266.716 234.376 266.587 234.717 266.33C235.061 266.076 235.234 265.65 235.234 265.051V263.455H235.131C235.025 263.697 234.866 263.926 234.654 264.142C234.442 264.358 234.169 264.534 233.836 264.67C233.503 264.807 233.105 264.875 232.643 264.875C231.987 264.875 231.391 264.723 230.853 264.42C230.319 264.114 229.893 263.646 229.575 263.017C229.26 262.384 229.103 261.585 229.103 260.619C229.103 259.631 229.264 258.805 229.586 258.142C229.908 257.479 230.336 256.983 230.87 256.653C231.408 256.324 231.997 256.159 232.637 256.159C233.126 256.159 233.535 256.242 233.864 256.409C234.194 256.572 234.459 256.777 234.66 257.023C234.864 257.265 235.022 257.504 235.131 257.739H235.222V256.273H237.626V265.085C237.626 265.828 237.444 266.449 237.08 266.949C236.717 267.449 236.213 267.824 235.569 268.074C234.929 268.328 234.192 268.455 233.359 268.455ZM233.41 263.057C233.8 263.057 234.129 262.96 234.398 262.767C234.671 262.57 234.879 262.29 235.023 261.926C235.171 261.559 235.245 261.119 235.245 260.608C235.245 260.097 235.173 259.653 235.029 259.278C234.885 258.9 234.677 258.606 234.404 258.398C234.131 258.189 233.8 258.085 233.41 258.085C233.012 258.085 232.677 258.193 232.404 258.409C232.131 258.621 231.925 258.917 231.785 259.295C231.645 259.674 231.575 260.112 231.575 260.608C231.575 261.112 231.645 261.547 231.785 261.915C231.929 262.278 232.135 262.561 232.404 262.761C232.677 262.958 233.012 263.057 233.41 263.057ZM241.972 259.955V265H239.552V256.273H241.859V257.813H241.961C242.154 257.305 242.478 256.903 242.933 256.608C243.387 256.309 243.938 256.159 244.586 256.159C245.192 256.159 245.72 256.292 246.171 256.557C246.622 256.822 246.972 257.201 247.222 257.693C247.472 258.182 247.597 258.765 247.597 259.443V265H245.177V259.875C245.181 259.341 245.044 258.924 244.768 258.625C244.491 258.322 244.111 258.17 243.626 258.17C243.3 258.17 243.012 258.241 242.762 258.381C242.516 258.521 242.323 258.725 242.183 258.994C242.046 259.259 241.976 259.58 241.972 259.955ZM259.566 256.71C259.521 256.252 259.326 255.896 258.981 255.642C258.636 255.388 258.168 255.261 257.577 255.261C257.176 255.261 256.837 255.318 256.56 255.432C256.284 255.542 256.072 255.695 255.924 255.892C255.78 256.089 255.708 256.313 255.708 256.563C255.701 256.771 255.744 256.953 255.839 257.108C255.937 257.263 256.072 257.398 256.242 257.511C256.413 257.621 256.61 257.718 256.833 257.801C257.057 257.881 257.295 257.949 257.549 258.006L258.594 258.256C259.102 258.369 259.568 258.521 259.992 258.71C260.416 258.9 260.784 259.133 261.094 259.409C261.405 259.686 261.646 260.011 261.816 260.386C261.99 260.761 262.079 261.191 262.083 261.676C262.079 262.388 261.897 263.006 261.538 263.528C261.182 264.047 260.666 264.451 259.992 264.739C259.322 265.023 258.513 265.165 257.566 265.165C256.627 265.165 255.808 265.021 255.112 264.733C254.418 264.445 253.877 264.019 253.487 263.455C253.1 262.886 252.897 262.184 252.879 261.347H255.259C255.286 261.737 255.397 262.063 255.594 262.324C255.795 262.581 256.062 262.777 256.396 262.909C256.733 263.038 257.113 263.102 257.538 263.102C257.954 263.102 258.316 263.042 258.623 262.92C258.933 262.799 259.174 262.631 259.344 262.415C259.515 262.199 259.6 261.951 259.6 261.67C259.6 261.409 259.522 261.189 259.367 261.011C259.216 260.833 258.992 260.682 258.697 260.557C258.405 260.432 258.047 260.318 257.623 260.216L256.356 259.898C255.375 259.659 254.6 259.286 254.032 258.778C253.464 258.271 253.182 257.587 253.185 256.727C253.182 256.023 253.369 255.407 253.748 254.881C254.13 254.354 254.655 253.943 255.322 253.648C255.988 253.352 256.746 253.205 257.594 253.205C258.458 253.205 259.212 253.352 259.856 253.648C260.504 253.943 261.007 254.354 261.367 254.881C261.727 255.407 261.913 256.017 261.924 256.71H259.566ZM267.67 265.17C266.772 265.17 265.999 264.989 265.352 264.625C264.708 264.258 264.211 263.739 263.863 263.068C263.514 262.394 263.34 261.597 263.34 260.676C263.34 259.778 263.514 258.991 263.863 258.313C264.211 257.634 264.702 257.106 265.335 256.727C265.971 256.348 266.717 256.159 267.573 256.159C268.149 256.159 268.685 256.252 269.181 256.438C269.681 256.619 270.117 256.894 270.488 257.261C270.863 257.629 271.155 258.091 271.363 258.648C271.571 259.201 271.675 259.848 271.675 260.591V261.256H264.306V259.756H269.397C269.397 259.407 269.321 259.098 269.17 258.83C269.018 258.561 268.808 258.35 268.539 258.199C268.274 258.044 267.965 257.966 267.613 257.966C267.246 257.966 266.92 258.051 266.636 258.222C266.355 258.388 266.136 258.614 265.977 258.898C265.817 259.178 265.736 259.491 265.732 259.835V261.261C265.732 261.693 265.812 262.066 265.971 262.381C266.134 262.695 266.363 262.938 266.658 263.108C266.954 263.278 267.304 263.364 267.71 263.364C267.978 263.364 268.225 263.326 268.448 263.25C268.672 263.174 268.863 263.061 269.022 262.909C269.181 262.758 269.302 262.572 269.386 262.352L271.624 262.5C271.511 263.038 271.278 263.508 270.925 263.909C270.577 264.307 270.126 264.617 269.573 264.841C269.024 265.061 268.389 265.17 267.67 265.17ZM273.255 265V256.273H275.602V257.795H275.692C275.852 257.254 276.119 256.845 276.494 256.568C276.869 256.288 277.3 256.148 277.789 256.148C277.91 256.148 278.041 256.155 278.181 256.17C278.321 256.186 278.444 256.206 278.55 256.233V258.381C278.437 258.347 278.28 258.316 278.079 258.29C277.878 258.263 277.694 258.25 277.528 258.25C277.172 258.25 276.853 258.328 276.573 258.483C276.297 258.634 276.077 258.847 275.914 259.119C275.755 259.392 275.675 259.706 275.675 260.063V265H273.255ZM288.204 256.273L285.153 265H282.425L279.374 256.273H281.931L283.744 262.517H283.835L285.641 256.273H288.204ZM289.442 265V256.273H291.863V265H289.442ZM290.658 255.148C290.299 255.148 289.99 255.028 289.732 254.79C289.478 254.547 289.352 254.258 289.352 253.92C289.352 253.587 289.478 253.301 289.732 253.063C289.99 252.82 290.299 252.699 290.658 252.699C291.018 252.699 291.325 252.82 291.579 253.063C291.836 253.301 291.965 253.587 291.965 253.92C291.965 254.258 291.836 254.547 291.579 254.79C291.325 255.028 291.018 255.148 290.658 255.148ZM297.745 265.17C296.851 265.17 296.082 264.981 295.438 264.602C294.798 264.22 294.306 263.689 293.961 263.011C293.62 262.333 293.45 261.553 293.45 260.67C293.45 259.777 293.622 258.992 293.967 258.318C294.315 257.64 294.809 257.112 295.45 256.733C296.09 256.35 296.851 256.159 297.734 256.159C298.495 256.159 299.162 256.297 299.734 256.574C300.306 256.85 300.758 257.239 301.092 257.739C301.425 258.239 301.609 258.826 301.643 259.5H299.359C299.294 259.064 299.124 258.714 298.847 258.449C298.575 258.18 298.217 258.045 297.773 258.045C297.398 258.045 297.071 258.148 296.79 258.352C296.514 258.553 296.298 258.847 296.143 259.233C295.987 259.619 295.91 260.087 295.91 260.636C295.91 261.193 295.986 261.667 296.137 262.057C296.292 262.447 296.51 262.744 296.79 262.949C297.071 263.153 297.398 263.256 297.773 263.256C298.05 263.256 298.298 263.199 298.518 263.085C298.741 262.972 298.925 262.807 299.069 262.591C299.217 262.371 299.313 262.108 299.359 261.801H301.643C301.605 262.468 301.423 263.055 301.097 263.563C300.775 264.066 300.33 264.46 299.762 264.744C299.194 265.028 298.522 265.17 297.745 265.17ZM307.17 265.17C306.272 265.17 305.499 264.989 304.852 264.625C304.208 264.258 303.711 263.739 303.363 263.068C303.014 262.394 302.84 261.597 302.84 260.676C302.84 259.778 303.014 258.991 303.363 258.313C303.711 257.634 304.202 257.106 304.835 256.727C305.471 256.348 306.217 256.159 307.073 256.159C307.649 256.159 308.185 256.252 308.681 256.438C309.181 256.619 309.617 256.894 309.988 257.261C310.363 257.629 310.655 258.091 310.863 258.648C311.071 259.201 311.175 259.848 311.175 260.591V261.256H303.806V259.756H308.897C308.897 259.407 308.821 259.098 308.67 258.83C308.518 258.561 308.308 258.35 308.039 258.199C307.774 258.044 307.465 257.966 307.113 257.966C306.746 257.966 306.42 258.051 306.136 258.222C305.855 258.388 305.636 258.614 305.477 258.898C305.317 259.178 305.236 259.491 305.232 259.835V261.261C305.232 261.693 305.312 262.066 305.471 262.381C305.634 262.695 305.863 262.938 306.158 263.108C306.454 263.278 306.804 263.364 307.21 263.364C307.478 263.364 307.725 263.326 307.948 263.25C308.172 263.174 308.363 263.061 308.522 262.909C308.681 262.758 308.802 262.572 308.886 262.352L311.124 262.5C311.011 263.038 310.778 263.508 310.425 263.909C310.077 264.307 309.626 264.617 309.073 264.841C308.524 265.061 307.889 265.17 307.17 265.17Z" fill="white"/>
</svg>
