<svg width="25847" height="8550" viewBox="0 0 25847 8550" fill="none" xmlns="http://www.w3.org/2000/svg">
<path d="M12573.4 3761.73C12573.4 3737.88 12580.8 3735.37 12595.4 3754.18C12955 4216.18 13322.1 4682.01 13696.6 5151.67C13794.6 5274.38 13894.3 5394.81 13995.5 5512.93C14068.2 5597.81 14159.3 5636.63 14268.9 5629.42C14408.2 5620.23 14477.5 5545.96 14476.9 5406.62C14473.4 4575.59 14475 3741.27 14481.8 2903.68C14481.8 2897.5 14479.4 2891.58 14475 2887.21C14470.6 2882.84 14464.7 2880.38 14458.5 2880.38L14014.9 2876.77C14003.7 2876.77 13998.2 2882.35 13998.2 2893.51V4741.18C13998.2 4743.01 13997.8 4744.82 13996.9 4746.43C13996 4748.04 13994.7 4749.4 13993.2 4750.36C13991.6 4751.32 13989.8 4751.86 13988 4751.92C13986.2 4751.98 13984.4 4751.56 13982.7 4750.7C13977.9 4748.51 13973.9 4745.34 13970.6 4741.18C13541.4 4196.06 13101.8 3642.51 12651.9 3080.54C12572.8 2981.45 12477.3 2847.9 12334.2 2870.54C12106.5 2906.3 12083.9 3050.35 12084.2 3262.32C12085.3 4033.63 12087.2 4811.4 12089.8 5595.62C12089.8 5619.9 12101.9 5631.93 12126.2 5631.71L12570.5 5627.12C12572 5627.12 12573.5 5626.82 12575 5626.24C12576.4 5625.66 12577.7 5624.8 12578.7 5623.73C12579.8 5622.66 12580.6 5621.39 12581.2 5620C12581.8 5618.61 12582 5617.13 12582 5615.63L12573.4 3761.73Z" stroke="white" stroke-width="2"/>
<path d="M8027.92 4627.98C8414.46 4558.09 8660.88 4227.67 8690.08 3839.82C8721.36 3421.57 8546.8 3126.37 8166.39 2954.21C8056.36 2904.12 7939 2878.85 7814.32 2878.42C7460.16 2876.67 7113.22 2876.99 6773.5 2879.4C6659.64 2880.38 6574 2946.99 6574.33 3063.81C6575.42 3921.09 6575.32 4771.59 6574 5615.31C6573.96 5617.75 6574.41 5620.17 6575.33 5622.44C6576.25 5624.7 6577.62 5626.77 6579.36 5628.51C6581.1 5630.25 6583.18 5631.63 6585.47 5632.58C6587.76 5633.52 6590.22 5634.01 6592.71 5634.01L7058.64 5633.68C7061.78 5633.68 7064.78 5632.47 7067 5630.32C7069.21 5628.16 7070.46 5625.24 7070.46 5622.2L7075.05 3335.82C7075.05 3331.09 7076.91 3326.55 7080.22 3323.18C7083.53 3319.8 7088.04 3317.86 7092.77 3317.77C7297.74 3314.27 7504.13 3313.95 7711.94 3316.79C7980.35 3320.4 8182.14 3455.59 8214.63 3720.06C8249.08 4004.21 8050.24 4204.37 7775.92 4242.43C7659.33 4258.62 7528.3 4262.01 7382.83 4252.6C7380.5 4252.42 7378.15 4252.73 7375.94 4253.51C7373.74 4254.28 7371.72 4255.52 7370.02 4257.13C7368.32 4258.73 7366.97 4260.68 7366.07 4262.84C7365.17 4265 7364.73 4267.33 7364.78 4269.66C7368.07 4518.06 7473.39 4656.85 7612.52 4867.18C7757.33 5085.28 7913.52 5311.46 8081.08 5545.74C8118.49 5597.92 8137.52 5640.9 8196.25 5639.26C8374.97 5634.88 8546.91 5632.92 8712.07 5633.35C8721.91 5633.35 8723.99 5629.42 8718.3 5621.54L8020.05 4647.67C8018.79 4645.96 8017.98 4643.95 8017.71 4641.85C8017.44 4639.74 8017.71 4637.6 8018.5 4635.63C8019.29 4633.66 8020.57 4631.92 8022.22 4630.58C8023.87 4629.24 8025.83 4628.34 8027.92 4627.98Z" stroke="white" stroke-width="2"/>
<path d="M10356.6 3663.94C10371.3 3682.1 10383.4 3703.1 10393.1 3726.95C10636.3 4331.57 10894.3 4962.77 11167.1 5620.55C11171.7 5631.49 11179.9 5636.85 11191.7 5636.63L11677 5629.74C11691.4 5629.52 11695.8 5622.74 11690.1 5609.4L10541 2889.9C10539.1 2885.15 10535.8 2881.08 10531.5 2878.22C10527.2 2875.36 10522.2 2873.83 10517.1 2873.82L10204.4 2874.8C10195.4 2874.8 10186.7 2877.47 10179.2 2882.5C10171.7 2887.52 10165.9 2894.66 10162.4 2903.02L9049.05 5608.09C9048.15 5610.41 9047.8 5612.92 9048.06 5615.4C9048.31 5617.88 9049.15 5620.26 9050.51 5622.32C9051.86 5624.39 9053.69 5626.08 9055.84 5627.26C9057.99 5628.44 9060.39 5629.07 9062.83 5629.09L9540.25 5633.02C9547.01 5633.11 9553.64 5631.15 9559.26 5627.41C9564.88 5623.66 9569.24 5618.3 9571.75 5612.02L10343.8 3665.92C10344.3 3664.71 10345.1 3663.65 10346.1 3662.84C10347.2 3662.03 10348.4 3661.5 10349.7 3661.31C10351 3661.11 10352.3 3661.24 10353.5 3661.71C10354.7 3662.17 10355.8 3662.94 10356.6 3663.94Z" stroke="white" stroke-width="2"/>
<path d="M15563.3 2894.82C15563.3 2890.38 15561.6 2886.13 15558.4 2882.99C15555.3 2879.85 15551 2878.09 15546.6 2878.09H15095.7C15091.3 2878.09 15087 2879.85 15083.9 2882.99C15080.8 2886.13 15079 2890.38 15079 2894.82V5616.95C15079 5621.38 15080.8 5625.64 15083.9 5628.78C15087 5631.92 15091.3 5633.68 15095.7 5633.68H15546.6C15551 5633.68 15555.3 5631.92 15558.4 5628.78C15561.6 5625.64 15563.3 5621.38 15563.3 5616.95V2894.82Z" stroke="white" stroke-width="2"/>
<path d="M16346.2 4199.12C16341.7 4193.23 16339.3 4186.02 16339.4 4178.65C16339.4 4171.27 16342 4164.15 16346.6 4158.43L17346 2904.01C17356.3 2891.1 17353.2 2884.54 17336.8 2884.32L16840.4 2877.43C16826.3 2877.21 16812.4 2881.33 16800.7 2889.24C16772.2 2908.06 16746.5 2931.13 16723.6 2958.48C16390.8 3355.51 16073.2 3759.54 15770.7 4170.57C15765.9 4177.09 15763.3 4185 15763.3 4193.1C15763.4 4201.21 15766.1 4209.08 15771 4215.53L16849.2 5597.26C16863.5 5615.63 16882.2 5624.82 16905.3 5624.82L17460.2 5624.49C17462.6 5624.53 17464.9 5623.88 17466.9 5622.64C17469 5621.39 17470.6 5619.59 17471.6 5617.46C17472.6 5615.32 17473 5612.93 17472.8 5610.58C17472.5 5608.22 17471.5 5605.99 17470.1 5604.15C17074.3 5122.9 16699.7 4654.56 16346.2 4199.12Z" stroke="white" stroke-width="2"/>
<path d="M19261.9 4619.45C19504.4 4557.76 19705.6 4417.32 19815.5 4197.81C20031.1 3766.98 19933.9 3247.88 19490 3010.32C19336.4 2928.29 19164.8 2874.15 18983.7 2877.1C18549 2884.54 18159.4 2886.95 17814.9 2884.32C17802 2884.1 17795.5 2890.45 17795.5 2903.35L17790.6 5606.78C17790.6 5612 17792.7 5617 17796.4 5620.7C17800.1 5624.39 17805.1 5626.46 17810.3 5626.46L18245.7 5627.78C18252.4 5627.78 18258.9 5625.11 18263.6 5620.38C18268.3 5615.64 18271 5609.21 18271 5602.51L18275.6 3345.34C18275.6 3342.04 18276.3 3338.77 18277.5 3335.72C18278.8 3332.67 18280.7 3329.91 18283 3327.59C18285.4 3325.27 18288.2 3323.44 18291.2 3322.2C18294.3 3320.97 18297.6 3320.36 18300.9 3320.4C18463.8 3322.59 18645.7 3321.82 18846.5 3318.1C19009.3 3315.26 19128.8 3333.09 19205.2 3371.59C19540.5 3539.92 19524.4 4043.92 19177 4186.32C18994.5 4261.14 18764.5 4242.43 18573.2 4237.84C18561.2 4237.62 18554.7 4243.64 18553.8 4255.89C18540.4 4488.53 18684.4 4668.67 18824.6 4864.56C18995.8 5103.87 19164.5 5343.4 19330.5 5583.15C19341 5598.26 19354.9 5610.62 19371.1 5619.19C19387.3 5627.76 19405.4 5632.28 19423.7 5632.37L19936.9 5634.99C19968.6 5635.21 19972.9 5624.49 19949.7 5602.84C19927.2 5581.4 19906.6 5557.99 19888 5532.62C19678.2 5246.93 19465.8 4952.82 19250.8 4650.29C19239.6 4634.54 19243.3 4624.26 19261.9 4619.45Z" stroke="white" stroke-width="2"/>
<path d="M20952.8 2896.56C20952.8 2894.19 20952.4 2891.84 20951.5 2889.65C20950.6 2887.46 20949.3 2885.46 20947.6 2883.79C20945.9 2882.11 20943.9 2880.77 20941.7 2879.86C20939.5 2878.95 20937.2 2878.48 20934.8 2878.48L20487.9 2877.7C20483.1 2877.69 20478.5 2879.59 20475.2 2882.96C20471.8 2886.34 20469.9 2890.93 20469.8 2895.71L20465.1 5613.24C20465.1 5615.61 20465.6 5617.96 20466.5 5620.15C20467.4 5622.34 20468.7 5624.34 20470.4 5626.01C20472 5627.69 20474 5629.03 20476.2 5629.94C20478.4 5630.85 20480.7 5631.32 20483.1 5631.32L20930 5632.1C20934.8 5632.11 20939.4 5630.21 20942.8 5626.84C20946.2 5623.46 20948.1 5618.87 20948.1 5614.08L20952.8 2896.56Z" stroke="white" stroke-width="2"/>
<path d="M22069 5173.98C22544.4 4501.32 22982.9 3889.92 23384.5 3339.76C23489.1 3196.7 23498.9 3051.01 23414 2902.7C23410 2895.53 23404 2889.57 23396.8 2885.42C23389.6 2881.27 23381.4 2879.08 23373 2879.07C22897.9 2882.57 22346 2884.1 21717.3 2883.66C21645.1 2883.66 21599.8 2885.52 21581.5 2889.24C21371.5 2930.26 21385.9 3339.76 21626.4 3334.84C22019.1 3326.96 22403.2 3325.32 22778.8 3329.91C22787.1 3329.91 22794.9 3331.99 22802.1 3336.15C22803.8 3337.16 22805.4 3338.54 22806.5 3340.19C22807.7 3341.85 22808.5 3343.74 22809 3345.75C22809.4 3347.77 22809.3 3349.85 22808.9 3351.87C22808.4 3353.89 22807.6 3355.8 22806.3 3357.48C22370.4 3948.32 21942.5 4531.73 21522.7 5107.69C21480.5 5165.66 21452.3 5219.48 21438.1 5269.13C21396.4 5412.2 21448.2 5632.37 21632.6 5632.69C22266.6 5634.44 22869.5 5635.1 23441.3 5634.67C23456.8 5634.67 23464.6 5626.9 23464.6 5611.37L23466.9 5202.52C23466.9 5192.68 23461.8 5187.76 23451.8 5187.76L22074 5183.49C22072.9 5183.53 22071.8 5183.26 22070.9 5182.71C22070 5182.16 22069.2 5181.35 22068.7 5180.37C22068.2 5179.39 22068 5178.28 22068 5177.15C22068.1 5176.03 22068.4 5174.93 22069 5173.98Z" stroke="white" stroke-width="2"/>
<path d="M24456.2 5172.34C24495.3 5101.68 24535.3 5038.03 24576.3 4981.37C24952.7 4458.12 25351.7 3905.89 25773.3 3324.67C25842.8 3229.07 25862.3 3124.29 25831.7 3010.32C25802.8 2903.68 25732.2 2874.15 25624.3 2874.81C25068.9 2878.31 24539.9 2879.51 24037.5 2878.42C23952.5 2878.09 23880.6 2875.14 23845.8 2960.12C23808.4 3051.01 23778.6 3330.57 23947.6 3328.28C24336.5 3323.24 24735.2 3323.24 25143.6 3328.28C25147.4 3328.33 25151.1 3329.41 25154.3 3331.4C25157.5 3333.39 25160.2 3336.22 25161.9 3339.58C25163.7 3342.95 25164.5 3346.73 25164.2 3350.51C25164 3354.3 25162.8 3357.95 25160.6 3361.09C24808 3865.09 24438.5 4380.35 24052.2 4906.88C23994.5 4985.85 23941.2 5063.73 23892.4 5140.51C23795.3 5292.76 23750.7 5633.03 24028 5632.37C24626 5630.62 25224.7 5630.95 25824.1 5633.35C25826.6 5633.4 25829 5632.95 25831.2 5632.05C25833.5 5631.15 25835.6 5629.8 25837.3 5628.09C25839.1 5626.38 25840.4 5624.34 25841.4 5622.09C25842.3 5619.84 25842.8 5617.42 25842.8 5614.98L25843.8 5202.53C25843.8 5188.31 25836.7 5181.31 25822.5 5181.53L24463.7 5184.81C24454.1 5184.81 24451.6 5180.65 24456.2 5172.34Z" stroke="white" stroke-width="2"/>
<path d="M7129.75 1783.5C7358.81 1783.5 7544.5 1597.81 7544.5 1368.75C7544.5 1139.69 7358.81 954 7129.75 954C6900.69 954 6715 1139.69 6715 1368.75C6715 1597.81 6900.69 1783.5 7129.75 1783.5Z" fill="white"/>
<path d="M12573.4 3775.73L12582 5629.63C12582 5631.13 12581.8 5632.61 12581.2 5634C12580.6 5635.39 12579.8 5636.66 12578.7 5637.73C12577.7 5638.8 12576.4 5639.66 12575 5640.24C12573.5 5640.82 12572 5641.12 12570.5 5641.12L12126.2 5645.71C12101.9 5645.93 12089.8 5633.9 12089.8 5609.62C12087.2 4825.4 12085.3 4047.63 12084.2 3276.32C12083.9 3064.35 12106.5 2920.3 12334.2 2884.54C12477.3 2861.9 12572.8 2995.45 12651.9 3094.54C13101.8 3656.51 13541.4 4210.06 13970.6 4755.18C13973.9 4759.34 13977.9 4762.51 13982.7 4764.7C13984.4 4765.56 13986.2 4765.98 13988 4765.92C13989.8 4765.86 13991.6 4765.32 13993.2 4764.36C13994.7 4763.4 13996 4762.04 13996.9 4760.43C13997.8 4758.82 13998.2 4757.01 13998.2 4755.18V2907.51C13998.2 2896.35 14003.7 2890.77 14014.9 2890.77L14458.5 2894.38C14464.7 2894.38 14470.6 2896.84 14475 2901.21C14479.4 2905.58 14481.8 2911.5 14481.8 2917.68C14475 3755.27 14473.4 4589.59 14476.9 5420.62C14477.5 5559.96 14408.2 5634.23 14268.9 5643.42C14159.3 5650.63 14068.2 5611.81 13995.5 5526.93C13894.3 5408.81 13794.6 5288.38 13696.6 5165.67C13322.1 4696.01 12955 4230.18 12595.4 3768.18C12580.8 3749.37 12573.4 3751.88 12573.4 3775.73Z" fill="white"/>
<path d="M8027.92 4641.97C8025.83 4642.34 8023.87 4643.24 8022.22 4644.58C8020.57 4645.92 8019.29 4647.65 8018.5 4649.63C8017.71 4651.6 8017.44 4653.74 8017.71 4655.85C8017.98 4657.95 8018.79 4659.96 8020.05 4661.66L8718.3 5635.54C8723.99 5643.41 8721.91 5647.35 8712.07 5647.35C8546.91 5646.91 8374.97 5648.88 8196.25 5653.26C8137.52 5654.9 8118.49 5611.91 8081.08 5559.74C7913.52 5325.46 7757.33 5099.27 7612.52 4881.18C7473.39 4670.85 7368.07 4532.05 7364.78 4283.66C7364.73 4281.32 7365.17 4279 7366.07 4276.84C7366.97 4274.68 7368.32 4272.73 7370.02 4271.12C7371.72 4269.52 7373.74 4268.28 7375.94 4267.5C7378.15 4266.72 7380.5 4266.42 7382.83 4266.6C7528.3 4276.01 7659.33 4272.62 7775.92 4256.43C8050.24 4218.37 8249.08 4018.21 8214.63 3734.05C8182.14 3469.58 7980.35 3334.4 7711.94 3330.79C7504.13 3327.95 7297.74 3328.27 7092.77 3331.77C7088.04 3331.86 7083.53 3333.8 7080.22 3337.17C7076.91 3340.55 7075.05 3345.09 7075.05 3349.82L7070.46 5636.2C7070.46 5639.24 7069.21 5642.16 7067 5644.31C7064.78 5646.47 7061.78 5647.68 7058.64 5647.68L6592.71 5648.01C6590.22 5648.01 6587.76 5647.52 6585.47 5646.58C6583.18 5645.63 6581.1 5644.25 6579.36 5642.51C6577.62 5640.77 6576.25 5638.7 6575.33 5636.44C6574.41 5634.17 6573.96 5631.74 6574 5629.3C6575.32 4785.59 6575.42 3935.08 6574.33 3077.8C6574 2960.99 6659.64 2894.38 6773.5 2893.4C7113.22 2890.99 7460.16 2890.66 7814.32 2892.41C7939 2892.85 8056.36 2918.12 8166.39 2968.21C8546.8 3140.37 8721.36 3435.57 8690.08 3853.82C8660.88 4241.66 8414.46 4572.08 8027.92 4641.97Z" fill="white"/>
<path d="M10356.6 3677.94C10355.8 3676.94 10354.7 3676.17 10353.5 3675.71C10352.3 3675.24 10351 3675.11 10349.7 3675.3C10348.4 3675.5 10347.2 3676.03 10346.1 3676.84C10345.1 3677.65 10344.3 3678.71 10343.8 3679.91L9571.75 5626.02C9569.24 5632.29 9564.88 5637.66 9559.26 5641.4C9553.64 5645.15 9547.01 5647.11 9540.25 5647.02L9062.83 5643.08C9060.39 5643.06 9057.99 5642.44 9055.84 5641.26C9053.69 5640.08 9051.86 5638.39 9050.51 5636.32C9049.15 5634.26 9048.31 5631.88 9048.06 5629.4C9047.8 5626.92 9048.15 5624.41 9049.05 5622.08L10162.4 2917.02C10165.9 2908.66 10171.7 2901.52 10179.2 2896.49C10186.7 2891.47 10195.4 2888.8 10204.4 2888.8L10517.1 2887.82C10522.2 2887.83 10527.2 2889.36 10531.5 2892.22C10535.8 2895.08 10539.1 2899.15 10541 2903.9L11690.1 5623.4C11695.8 5636.74 11691.4 5643.52 11677 5643.74L11191.7 5650.63C11179.9 5650.85 11171.7 5645.49 11167.1 5634.55C10894.3 4976.77 10636.3 4345.57 10393.1 3740.95C10383.4 3717.1 10371.3 3696.1 10356.6 3677.94Z" fill="white"/>
<path d="M15546.6 2892.09H15095.7C15086.5 2892.09 15079 2899.58 15079 2908.82V5630.94C15079 5640.19 15086.5 5647.68 15095.7 5647.68H15546.6C15555.8 5647.68 15563.3 5640.19 15563.3 5630.94V2908.82C15563.3 2899.58 15555.8 2892.09 15546.6 2892.09Z" fill="white"/>
<path d="M16346.2 4213.12C16699.7 4668.55 17074.3 5136.9 17470 5618.15C17471.5 5619.99 17472.5 5622.22 17472.8 5624.57C17473 5626.93 17472.6 5629.32 17471.6 5631.45C17470.6 5633.59 17468.9 5635.39 17466.9 5636.63C17464.9 5637.88 17462.6 5638.52 17460.2 5638.49L16905.3 5638.82C16882.2 5638.82 16863.5 5629.63 16849.2 5611.26L15771 4229.52C15766.1 4223.08 15763.4 4215.21 15763.3 4207.1C15763.3 4198.99 15765.9 4191.08 15770.7 4184.57C16073.2 3773.54 16390.8 3369.51 16723.6 2972.47C16746.5 2945.13 16772.2 2922.05 16800.7 2903.24C16812.4 2895.33 16826.3 2891.21 16840.4 2891.43L17336.8 2898.32C17353.2 2898.54 17356.3 2905.1 17346 2918.01L16346.5 4172.43C16342 4178.15 16339.4 4185.27 16339.4 4192.64C16339.3 4200.02 16341.7 4207.23 16346.2 4213.12Z" fill="white"/>
<path d="M19250.8 4664.29C19465.8 4966.82 19678.2 5260.93 19888 5546.62C19906.6 5571.99 19927.2 5595.4 19949.7 5616.84C19972.9 5638.49 19968.6 5649.21 19936.9 5648.99L19423.7 5646.37C19405.4 5646.28 19387.3 5641.76 19371.1 5633.19C19354.9 5624.62 19341 5612.26 19330.5 5597.15C19164.5 5357.4 18995.8 5117.87 18824.5 4878.55C18684.4 4682.66 18540.4 4502.52 18553.8 4269.88C18554.7 4257.63 18561.2 4251.62 18573.2 4251.84C18764.5 4256.43 18994.5 4275.13 19177 4200.32C19524.4 4057.91 19540.5 3553.91 19205.2 3385.59C19128.8 3347.09 19009.3 3329.26 18846.5 3332.1C18645.7 3335.82 18463.8 3336.59 18300.9 3334.4C18297.6 3334.36 18294.3 3334.97 18291.2 3336.2C18288.2 3337.43 18285.4 3339.27 18283 3341.59C18280.7 3343.91 18278.8 3346.67 18277.5 3349.72C18276.3 3352.76 18275.6 3356.03 18275.6 3359.34L18271 5616.51C18271 5623.21 18268.3 5629.64 18263.6 5634.37C18258.9 5639.11 18252.4 5641.77 18245.7 5641.77L17810.3 5640.46C17805.1 5640.46 17800.1 5638.39 17796.4 5634.69C17792.7 5631 17790.6 5625.99 17790.6 5620.77L17795.5 2917.35C17795.5 2904.44 17802 2898.1 17814.9 2898.32C18159.4 2900.95 18549 2898.54 18983.7 2891.1C19164.8 2888.15 19336.4 2942.29 19490 3024.32C19933.9 3261.88 20031.1 3780.98 19815.5 4211.8C19705.6 4431.32 19504.4 4571.76 19261.9 4633.45C19243.3 4638.26 19239.6 4648.54 19250.8 4664.29Z" fill="white"/>
<path d="M20934.8 2892.48L20487.9 2891.7C20478 2891.68 20469.9 2899.75 20469.8 2909.71L20465.1 5627.24C20465.1 5637.21 20473.1 5645.3 20483.1 5645.32L20930 5646.1C20940 5646.12 20948.1 5638.05 20948.1 5628.08L20952.8 2910.56C20952.9 2900.59 20944.8 2892.5 20934.8 2892.48Z" fill="white"/>
<path d="M22069 5187.98C22068.4 5188.93 22068.1 5190.03 22068 5191.15C22068 5192.28 22068.2 5193.39 22068.7 5194.37C22069.2 5195.35 22070 5196.16 22070.9 5196.71C22071.8 5197.26 22072.9 5197.53 22074 5197.49L23451.8 5201.76C23461.8 5201.76 23466.9 5206.68 23466.9 5216.52L23464.6 5625.37C23464.6 5640.9 23456.8 5648.67 23441.3 5648.67C22869.5 5649.1 22266.6 5648.44 21632.6 5646.69C21448.2 5646.37 21396.4 5426.2 21438.1 5283.13C21452.3 5233.48 21480.5 5179.66 21522.7 5121.69C21942.5 4545.73 22370.4 3962.32 22806.3 3371.48C22807.6 3369.8 22808.4 3367.89 22808.9 3365.87C22809.3 3363.85 22809.4 3361.77 22809 3359.75C22808.5 3357.74 22807.7 3355.85 22806.5 3354.19C22805.4 3352.54 22803.8 3351.16 22802.1 3350.15C22794.9 3345.99 22787.1 3343.91 22778.8 3343.91C22403.2 3339.32 22019.1 3340.96 21626.4 3348.84C21385.9 3353.76 21371.5 2944.26 21581.5 2903.24C21599.8 2899.52 21645.1 2897.66 21717.3 2897.66C22346 2898.1 22897.9 2896.57 23373 2893.07C23381.4 2893.08 23389.6 2895.27 23396.8 2899.42C23404 2903.57 23410 2909.53 23414 2916.7C23498.9 3065.01 23489.1 3210.7 23384.5 3353.76C22982.9 3903.92 22544.4 4515.32 22069 5187.98Z" fill="white"/>
<path d="M24456.2 5186.34C24451.6 5194.65 24454.1 5198.81 24463.7 5198.81L25822.5 5195.52C25836.7 5195.31 25843.8 5202.31 25843.8 5216.52L25842.8 5628.98C25842.8 5631.42 25842.3 5633.84 25841.4 5636.09C25840.4 5638.34 25839.1 5640.38 25837.3 5642.09C25835.6 5643.8 25833.5 5645.15 25831.2 5646.05C25829 5646.95 25826.6 5647.4 25824.1 5647.35C25224.7 5644.95 24626 5644.62 24028 5646.37C23750.7 5647.03 23795.3 5306.76 23892.4 5154.51C23941.2 5077.73 23994.5 4999.85 24052.2 4920.88C24438.5 4394.35 24808 3879.09 25160.6 3375.09C25162.8 3371.95 25164 3368.3 25164.2 3364.51C25164.5 3360.72 25163.7 3356.95 25161.9 3353.58C25160.2 3350.22 25157.5 3347.39 25154.3 3345.4C25151.1 3343.41 25147.4 3342.33 25143.6 3342.27C24735.2 3337.24 24336.5 3337.24 23947.6 3342.27C23778.6 3344.57 23808.4 3065.01 23845.8 2974.12C23880.6 2889.13 23952.5 2892.09 24037.5 2892.42C24539.9 2893.51 25068.9 2892.31 25624.3 2888.81C25732.2 2888.15 25802.8 2917.68 25831.7 3024.32C25862.3 3138.29 25842.8 3243.07 25773.3 3338.67C25351.7 3919.88 24952.7 4472.12 24576.3 4995.37C24535.3 5052.02 24495.3 5115.68 24456.2 5186.34Z" fill="white"/>
<path d="M2198.66 1407.82C2184.88 1407.82 2177.88 1414.71 2177.66 1428.49C2173.94 2650.43 2170.01 3892.49 2165.85 5154.68C2165.52 5249.51 2116.96 5285.6 2063.48 5350.57C1921.94 5522.94 1776.91 5692.26 1628.38 5858.51C1614.82 5873.6 1608.04 5871.09 1608.04 5850.96L1609.35 34.2888C1609.35 22.4763 1613.4 20.8349 1621.49 29.3661C2552.27 998.647 3485.68 1938.94 4421.71 2850.26C4423.38 2851.88 4424.7 2853.82 4425.61 2855.96C4426.51 2858.1 4426.98 2860.4 4426.98 2862.73C4426.98 2865.05 4426.51 2867.35 4425.61 2869.49C4424.7 2871.64 4423.38 2873.57 4421.71 2875.19L4052.57 3224.98C4047.37 3229.91 4040.45 3232.62 4033.24 3232.56C4026.03 3232.5 4019.09 3229.67 4013.85 3224.65C3466.54 2701.62 2919.44 2161.63 2372.57 1604.69C2320.29 1551.54 2268.99 1490.4 2218.68 1421.27C2216.27 1417.99 2213.21 1415.26 2209.49 1413.07C2203.59 1409.57 2199.98 1407.82 2198.66 1407.82Z" fill="#28B0CD"/>
<path d="M6489.88 1699.85C6003.38 2184.82 5510.87 2668.04 5012.34 3149.51C4867.09 3289.95 4706.52 3440.23 4530.65 3600.35C3476.93 4559.35 2447.05 5531.15 1441.02 6515.74C1272.37 6680.9 1114.87 6832.71 968.523 6971.18C648.492 7273.71 331.305 7572.85 16.9609 7868.6C15.8671 7869.7 14.8829 7869.7 14.0079 7868.6L7.77344 7862.7C2.74219 7857.45 2.74219 7852.19 7.77344 7846.94C412.898 7424.76 800.852 7005.74 1171.63 6589.9C1635.27 6069.82 2134.02 5588.46 2630.15 5079.87C3043.15 4656.37 3511.6 4155.54 4035.51 3577.38C4615.3 2938.2 5198.71 2359.38 5856.27 1698.54C6102.37 1451.46 6336.98 1199.46 6584.05 950.742C6769.77 764.039 6977.48 643.617 7244.9 671.508C7583.85 706.617 7842.09 959.93 7843.73 1315.62C7844.71 1573.85 7737.74 1780.9 7518.23 1916.09C7426.68 1972.19 7339.4 2025.02 7259.34 2099.18C6709.07 2609.41 6157.49 3136.05 5588.85 3616.76C5581.64 3622.89 5572.45 3626.23 5562.95 3626.17C5553.44 3626.11 5544.24 3622.66 5537.01 3616.43C5421.29 3516.02 5293.87 3439.79 5154.74 3387.73C5152.17 3386.76 5149.89 3385.15 5148.13 3383.03C5146.37 3380.91 5145.19 3378.37 5144.7 3375.64C5144.2 3372.91 5144.41 3370.08 5145.31 3367.43C5146.21 3364.78 5147.76 3362.39 5149.82 3360.49C5659.73 2906.15 6147.43 2431.9 6612.93 1937.74C6638.52 1910.4 6641.26 1880.98 6621.13 1849.48L6528.6 1704.12C6517.44 1686.62 6504.54 1685.2 6489.88 1699.85ZM7547.43 1374.35C7547.43 1264.35 7503.73 1158.86 7425.95 1081.08C7348.17 1003.3 7242.68 959.601 7132.68 959.601C7022.68 959.601 6917.19 1003.3 6839.41 1081.08C6761.63 1158.86 6717.93 1264.35 6717.93 1374.35C6717.93 1484.35 6761.63 1589.84 6839.41 1667.62C6917.19 1745.41 7022.68 1789.1 7132.68 1789.1C7242.68 1789.1 7348.17 1745.41 7425.95 1667.62C7503.73 1589.84 7547.43 1484.35 7547.43 1374.35Z" fill="#28B0CD"/>
<path d="M4883.14 4354.65C5093.3 4459.89 5344.58 4383.63 5444.38 4184.33C5544.19 3985.02 5454.73 3738.14 5244.56 3632.9C5034.4 3527.66 4783.12 3603.91 4683.32 3803.22C4583.51 4002.52 4672.98 4249.41 4883.14 4354.65Z" fill="#28B0CD"/>
<path d="M2186.85 7154.6C2186.85 7156.35 2187.51 7156.57 2188.82 7155.26C3032.32 6316.35 3876.15 5477.77 4720.3 4639.52C4748.52 4611.74 4781.01 4590.3 4817.76 4575.21C4828.43 4570.94 4840.33 4570.02 4851.88 4572.59C5067.46 4624.43 5291.9 4627.05 5452.68 4499.09C5458.93 4494.11 5466.75 4491.51 5474.74 4491.75C5482.73 4491.99 5490.38 4495.05 5496.32 4500.4C5661.04 4649.37 5805.85 4784.77 5930.76 4906.62C6913.38 5864.96 7885.94 6819.48 8848.44 7770.16C8853.91 7775.63 8856.65 7782.2 8856.65 7789.85L8853.04 8533.71C8853.07 8536.77 8852.2 8539.76 8850.53 8542.32C8848.86 8544.88 8846.46 8546.88 8843.65 8548.08C8840.84 8549.28 8837.73 8549.61 8834.73 8549.04C8831.73 8548.47 8828.97 8547.01 8826.79 8544.87C7630.01 7375.43 6431.7 6193.3 5231.85 4998.49C5223.98 4990.4 5215.99 4990.29 5207.9 4998.16C4496.3 5681.1 3781.32 6380.23 3062.95 7095.54C2594.71 7561.48 2114.34 8019.54 1648.4 8482.85C1629.37 8501.88 1619.85 8497.95 1619.85 8471.04C1622.7 7865.32 1625.98 7298.87 1629.69 6771.68C1630.02 6694.57 1593.27 6632.23 1661.52 6570.87C1843.09 6408.55 2019.84 6249.2 2191.77 6092.79C2218.9 6068.07 2228.85 6073.65 2221.63 6109.52C2208.73 6175.8 2201.62 6251.16 2200.3 6335.6C2196.15 6609.91 2191.66 6882.91 2186.85 7154.6Z" fill="#282C2D"/>
<path d="M2195.66 1384.82C2196.98 1384.82 2200.59 1386.57 2206.49 1390.07C2210.21 1392.26 2213.27 1394.99 2215.68 1398.27C2265.99 1467.4 2317.29 1528.54 2369.57 1581.69C2916.44 2138.63 3463.54 2678.62 4010.85 3201.65C4016.09 3206.67 4023.03 3209.5 4030.24 3209.56C4037.45 3209.62 4044.37 3206.91 4049.57 3201.98L4418.71 2852.19C4420.38 2850.57 4421.7 2848.64 4422.61 2846.49C4423.51 2844.35 4423.98 2842.05 4423.98 2839.73C4423.98 2837.4 4423.51 2835.1 4422.61 2832.96C4421.7 2830.82 4420.38 2828.88 4418.71 2827.26C3482.68 1915.94 2549.27 975.647 1618.49 6.36613C1610.4 -2.16512 1606.35 -0.523697 1606.35 11.2888L1605.04 5827.96C1605.04 5848.09 1611.82 5850.6 1625.38 5835.51C1773.91 5669.26 1918.94 5499.94 2060.48 5327.57C2113.96 5262.6 2162.52 5226.51 2162.85 5131.68C2167.01 3869.49 2170.94 2627.43 2174.66 1405.49C2174.88 1391.71 2181.88 1384.82 2195.66 1384.82Z" stroke="#28B0CD" stroke-width="2"/>
<path d="M6525.6 1681.12L6618.13 1826.48C6638.26 1857.98 6635.52 1887.4 6609.93 1914.74C6144.43 2408.9 5656.73 2883.15 5146.82 3337.49C5144.76 3339.39 5143.21 3341.78 5142.31 3344.43C5141.41 3347.08 5141.2 3349.91 5141.7 3352.64C5142.19 3355.37 5143.37 3357.91 5145.13 3360.03C5146.89 3362.15 5149.17 3363.76 5151.74 3364.73C5290.87 3416.79 5418.29 3493.02 5534.01 3593.43C5541.24 3599.66 5550.44 3603.11 5559.95 3603.17C5569.45 3603.23 5578.64 3599.89 5585.85 3593.76C6154.49 3113.05 6706.07 2586.41 7256.34 2076.18C7336.4 2002.02 7423.68 1949.19 7515.23 1893.09C7734.74 1757.9 7841.71 1550.85 7840.73 1292.62C7839.09 936.929 7580.85 683.617 7241.9 648.507C6974.48 620.617 6766.77 741.039 6581.05 927.742C6333.98 1176.46 6099.37 1428.46 5853.27 1675.54C5195.71 2336.38 4612.3 2915.19 4032.51 3554.38C3508.6 4132.54 3040.15 4633.37 2627.15 5056.87C2131.02 5565.46 1632.27 6046.82 1168.63 6566.9C797.852 6982.74 409.898 7401.76 4.77344 7823.94C-0.257813 7829.19 -0.257813 7834.45 4.77344 7839.7L11.0079 7845.6C11.8829 7846.7 12.8671 7846.7 13.9609 7845.6C328.305 7549.85 645.492 7250.71 965.523 6948.18C1111.87 6809.71 1269.37 6657.9 1438.02 6492.74C2444.05 5508.15 3473.93 4536.35 4527.65 3577.35C4703.52 3417.23 4864.09 3266.95 5009.34 3126.51C5507.87 2645.04 6000.38 2161.82 6486.88 1676.85C6501.54 1662.19 6514.44 1663.62 6525.6 1681.12Z" stroke="#28B0CD" stroke-width="2"/>
<path d="M5441.39 4161.33C5489.31 4065.62 5495.19 3953.75 5457.71 3850.34C5420.24 3746.93 5342.49 3660.44 5241.56 3609.9C5140.64 3559.36 5024.81 3548.91 4919.56 3580.85C4814.3 3612.79 4728.25 3684.51 4680.32 3780.22C4632.39 3875.93 4626.52 3987.79 4663.99 4091.21C4701.47 4194.62 4779.22 4281.11 4880.14 4331.65C4981.06 4382.19 5096.89 4392.63 5202.15 4360.69C5307.4 4328.75 5393.46 4257.04 5441.39 4161.33Z" stroke="#28B0CD" stroke-width="2"/>
<path d="M2183.85 7131.6C2188.66 6859.91 2193.15 6586.91 2197.3 6312.6C2198.62 6228.16 2205.73 6152.81 2218.63 6086.52C2225.85 6050.65 2215.9 6045.07 2188.77 6069.79C2016.84 6226.2 1840.09 6385.56 1658.52 6547.87C1590.27 6609.23 1627.02 6671.57 1626.69 6748.68C1622.98 7275.87 1619.7 7842.32 1616.85 8448.04C1616.85 8474.95 1626.37 8478.88 1645.4 8459.85C2111.34 7996.54 2591.71 7538.48 3059.95 7072.54C3778.32 6357.23 4493.3 5658.1 5204.9 4975.16C5212.99 4967.29 5220.98 4967.4 5228.85 4975.49C6428.7 6170.3 7627.01 7352.43 8823.79 8521.87C8825.97 8524.01 8828.73 8525.47 8831.73 8526.04C8834.73 8526.61 8837.84 8526.28 8840.65 8525.08C8843.46 8523.88 8845.86 8521.88 8847.53 8519.32C8849.2 8516.76 8850.07 8513.77 8850.04 8510.71L8853.65 7766.85C8853.65 7759.2 8850.91 7752.63 8845.44 7747.17C7882.94 6796.48 6910.38 5841.96 5927.76 4883.62C5802.85 4761.77 5658.04 4626.37 5493.32 4477.4C5487.38 4472.05 5479.73 4468.99 5471.74 4468.75C5463.75 4468.51 5455.93 4471.11 5449.68 4476.09C5288.9 4604.05 5064.46 4601.43 4848.88 4549.59C4837.33 4547.02 4825.43 4547.94 4814.76 4552.21C4778.01 4567.31 4745.52 4588.74 4717.3 4616.52C3873.15 5454.77 3029.32 6293.35 2185.82 7132.26C2184.51 7133.57 2183.85 7133.35 2183.85 7131.6Z" stroke="white" stroke-width="2"/>
<path d="M7544.43 1351.35C7544.43 1241.35 7500.73 1135.86 7422.95 1058.08C7345.17 980.298 7239.68 936.601 7129.68 936.601C7019.68 936.601 6914.19 980.298 6836.41 1058.08C6758.63 1135.86 6714.93 1241.35 6714.93 1351.35C6714.93 1461.35 6758.63 1566.84 6836.41 1644.62C6914.19 1722.4 7019.68 1766.1 7129.68 1766.1C7239.68 1766.1 7345.17 1722.4 7422.95 1644.62C7500.73 1566.84 7544.43 1461.35 7544.43 1351.35Z" stroke="#28B0CD" stroke-width="2"/>
</svg>
