<svg width="12694" height="12694" viewBox="0 0 12694 12694" fill="none" xmlns="http://www.w3.org/2000/svg">
<g clip-path="url(#clip0_68_26)">
<path d="M6347 12694C9852.35 12694 12694 9852.35 12694 6347C12694 2841.65 9852.35 0 6347 0C2841.65 0 0 2841.65 0 6347C0 9852.35 2841.65 12694 6347 12694Z" fill="#FBFBFB"/>
<path d="M3562.29 2737.89V2738.11V2738.34C3558.14 4101.48 3553.75 5487.06 3549.11 6895.1C3548.85 6969.05 3520.6 7001.5 3475.03 7053.83C3465.1 7065.23 3454.35 7077.57 3442.88 7091.5L3442.87 7091.51L3442.86 7091.53C3297.49 7268.55 3148.82 7442.69 2996.83 7613.91L2998.26 1250.48C4017.58 2310.87 5039.73 3340.12 6064.71 4338.26L5667.55 4714.58C5058.04 4132.09 4448.75 3530.72 3839.7 2910.48L3839.69 2910.47L3839.68 2910.46C3782.73 2852.56 3726.6 2785.71 3671.35 2709.79L3671.3 2709.73L3671.25 2709.67C3665.6 2701.97 3658.56 2695.8 3650.59 2691.11C3646.98 2688.96 3643.39 2686.95 3640.11 2685.36C3638.48 2684.57 3636.36 2683.61 3634 2682.77L3633.99 2682.76C3632.47 2682.22 3627.29 2680.39 3620.71 2680.39C3607.59 2680.39 3591.48 2683.7 3578.78 2696.21C3566.07 2708.71 3562.5 2724.76 3562.29 2737.89Z" fill="#28B0CD" stroke="#28B0CD" stroke-width="70"/>
<path d="M6615.53 6002.74C6849.99 6120.14 7130.32 6035.07 7241.65 5812.74C7353 5590.4 7253.2 5314.99 7018.73 5197.59C6784.28 5080.18 6503.95 5165.25 6392.61 5387.59C6281.26 5609.92 6381.08 5885.34 6615.53 6002.74Z" fill="#28B0CD"/>
<path d="M3572.54 9125.62V9125.93V9126.24C3572.54 9128.29 3572.65 9133.01 3574.48 9138.48C3576.27 9143.81 3581.98 9156.06 3596.99 9161.08C3610.9 9165.73 3622.06 9160.4 3625.73 9158.37C3630.08 9155.96 3633.05 9153.15 3634.46 9151.75C4575.44 8215.93 5516.78 7280.49 6458.48 6345.41C6486.66 6317.69 6519 6296.33 6555.71 6281.23C6560.79 6279.23 6566.74 6278.67 6572.82 6279.97C6816.13 6338.43 7080.36 6344.33 7272.71 6191.26V6191.25L7272.72 6191.24C7273.2 6190.86 7273.83 6190.65 7274.47 6190.67C7275.12 6190.68 7275.71 6190.93 7276.16 6191.32C7459.66 6357.28 7620.86 6508 7759.82 6643.55C8855.56 7712.16 9940.08 8776.52 11013.4 9836.59L11009.6 10622.8C9684.53 9327.95 8357.82 8019.11 7029.41 6696.34C7021.24 6688.02 7008.61 6679.35 6991.77 6679.12C6974.83 6678.89 6961.92 6687.29 6953.53 6695.42C6159.53 7457.41 5361.77 8237.45 4560.23 9035.54C4299.2 9295.28 4034.77 9552.84 3770.5 9810.19L3762.58 9817.9C3510.48 10063.4 3258.57 10308.7 3010.18 10555.3C3013.31 9894.54 3016.91 9275.88 3020.97 8699.32V8699.27V8699.22C3021.07 8675.11 3018.27 8652.54 3015.66 8632.82C3015.46 8631.25 3015.25 8629.71 3015.05 8628.18C3012.61 8609.79 3010.58 8594.51 3010.3 8579.82C3010.02 8564.49 3011.74 8551.58 3016.44 8539.63C3021.07 8527.85 3029.34 8515.06 3044.83 8501.12C3236.17 8330.08 3422.72 8161.98 3604.48 7996.81C3594.37 8062.1 3588.77 8133.88 3587.55 8212.05V8212.06V8212.07C3582.92 8518.05 3577.91 8822.56 3572.54 9125.62ZM3584.99 9102.23C3585.02 9102.19 3585.07 9102.15 3585.11 9102.1C3585.09 9102.12 3585.08 9102.14 3585.06 9102.16L3585.02 9102.19L3584.99 9102.23Z" fill="#282C2D"/>
<path d="M11039.5 10652.1L11039.6 10652.2M3572.54 9125.62V9125.93V9126.24C3572.54 9128.29 3572.65 9133.01 3574.48 9138.48C3576.27 9143.81 3581.98 9156.06 3596.99 9161.08C3610.9 9165.73 3622.06 9160.4 3625.73 9158.37C3630.08 9155.96 3633.05 9153.15 3634.46 9151.75C4575.44 8215.93 5516.78 7280.49 6458.48 6345.41C6486.66 6317.69 6519 6296.33 6555.71 6281.23C6560.79 6279.23 6566.74 6278.67 6572.82 6279.97C6816.13 6338.43 7080.36 6344.33 7272.71 6191.26V6191.25L7272.72 6191.24C7273.2 6190.86 7273.83 6190.65 7274.47 6190.67C7275.12 6190.68 7275.71 6190.93 7276.16 6191.32C7459.66 6357.28 7620.86 6508 7759.82 6643.55C8855.56 7712.16 9940.08 8776.52 11013.4 9836.59L11009.6 10622.8C9684.53 9327.95 8357.82 8019.11 7029.41 6696.34C7021.24 6688.02 7008.61 6679.35 6991.77 6679.12C6974.83 6678.89 6961.92 6687.29 6953.53 6695.42C6159.53 7457.41 5361.77 8237.45 4560.23 9035.54C4299.2 9295.28 4034.77 9552.84 3770.5 9810.19L3762.58 9817.9C3510.48 10063.4 3258.57 10308.7 3010.18 10555.3C3013.31 9894.54 3016.91 9275.88 3020.97 8699.32V8699.27V8699.22C3021.07 8675.11 3018.27 8652.54 3015.66 8632.82C3015.46 8631.25 3015.25 8629.71 3015.05 8628.18C3012.61 8609.79 3010.58 8594.51 3010.3 8579.82C3010.02 8564.49 3011.74 8551.58 3016.44 8539.63C3021.07 8527.85 3029.34 8515.06 3044.83 8501.12C3236.17 8330.08 3422.72 8161.98 3604.48 7996.81C3594.37 8062.1 3588.77 8133.88 3587.55 8212.05V8212.06V8212.07C3582.92 8518.05 3577.91 8822.56 3572.54 9125.62ZM3584.99 9102.23C3585.02 9102.19 3585.07 9102.15 3585.11 9102.1C3585.09 9102.12 3585.08 9102.14 3585.06 9102.16L3585.02 9102.19L3584.99 9102.23Z" stroke="black" stroke-width="70"/>
<path d="M3617.37 2689.73C3618.84 2689.73 3622.87 2691.68 3629.45 2695.58C3633.6 2698.03 3637.02 2701.07 3639.7 2704.73C3695.83 2781.85 3753.06 2850.06 3811.38 2909.35C4421.47 3530.64 5031.82 4133.03 5642.4 4716.5C5648.25 4722.1 5655.99 4725.26 5664.03 4725.33C5672.08 4725.39 5679.8 4722.37 5685.6 4716.87L6097.41 4326.66C6099.28 4324.85 6100.75 4322.7 6101.76 4320.3C6102.77 4317.91 6103.29 4315.35 6103.29 4312.76C6103.29 4310.16 6102.77 4307.6 6101.76 4305.21C6100.75 4302.82 6099.28 4300.66 6097.41 4298.85C5053.17 3282.22 4011.86 2233.27 2973.48 1151.99C2964.45 1142.47 2959.93 1144.3 2959.93 1157.48L2958.47 7646.3C2958.47 7668.75 2966.04 7671.55 2981.16 7654.72C3146.86 7469.26 3308.66 7280.37 3466.56 7088.08C3526.23 7015.61 3580.4 6975.35 3580.77 6869.56C3585.41 5461.52 3589.79 4075.93 3593.94 2712.79C3594.19 2697.41 3602 2689.73 3617.37 2689.73Z" stroke="#28B0CD" stroke-width="2"/>
<path d="M8447.87 3020.27L8551.09 3182.42C8573.55 3217.56 8570.49 3250.38 8541.95 3280.88C8022.63 3832.15 7478.55 4361.2 6909.69 4868.04C6907.4 4870.16 6905.67 4872.83 6904.66 4875.78C6903.66 4878.74 6903.43 4881.9 6903.98 4884.94C6904.53 4887.99 6905.85 4890.82 6907.81 4893.19C6909.77 4895.55 6912.32 4897.35 6915.18 4898.43C7070.4 4956.5 7212.55 5041.54 7341.64 5153.56C7349.71 5160.51 7359.97 5164.35 7370.58 5164.42C7381.18 5164.49 7391.43 5160.76 7399.48 5153.92C8033.85 4617.67 8649.2 4030.17 9263.08 3460.98C9352.4 3378.25 9449.77 3319.31 9551.9 3256.73C9796.79 3105.92 9916.12 2874.94 9915.03 2586.87C9913.2 2190.08 9625.11 1907.5 9246.97 1868.33C8948.64 1837.22 8716.92 1971.56 8509.73 2179.83C8234.09 2457.29 7972.36 2738.41 7697.81 3014.04C6964.24 3751.25 6313.38 4396.94 5666.57 5109.99C5082.09 5754.96 4559.49 6313.67 4098.74 6786.1C3545.26 7353.46 2988.85 7890.45 2471.61 8470.63C2057.97 8934.52 1625.17 9401.96 1173.21 9872.92C1167.6 9878.78 1167.6 9884.65 1173.21 9890.51L1180.16 9897.09C1181.14 9898.31 1182.24 9898.31 1183.46 9897.09C1534.14 9567.16 1888 9233.45 2245.03 8895.97C2408.29 8741.49 2584 8572.14 2772.14 8387.9C3894.48 7289.53 5043.41 6205.44 6218.95 5135.62C6415.15 4956.99 6594.28 4789.35 6756.32 4632.68C7312.48 4095.57 7861.93 3556.52 8404.67 3015.5C8421.02 2999.15 8435.42 3000.75 8447.87 3020.27Z" fill="#28B0CD" stroke="#28B0CD" stroke-width="2"/>
<path d="M7238.32 5787.08C7291.78 5680.31 7298.34 5555.51 7256.53 5440.15C7214.72 5324.79 7127.99 5228.31 7015.39 5171.93C6902.8 5115.55 6773.58 5103.89 6656.16 5139.52C6538.74 5175.15 6442.74 5255.16 6389.27 5361.93C6335.8 5468.7 6329.25 5593.49 6371.05 5708.86C6412.86 5824.22 6499.6 5920.7 6612.19 5977.08C6724.77 6033.46 6853.99 6045.11 6971.42 6009.48C7088.84 5973.85 7184.85 5893.85 7238.32 5787.08Z" stroke="#28B0CD" stroke-width="2"/>
<path d="M3604.2 9100.58C3609.56 8797.49 3614.57 8492.95 3619.2 8186.94C3620.67 8092.74 3628.6 8008.69 3643 7934.74C3651.05 7894.72 3639.95 7888.5 3609.68 7916.07C3417.88 8090.56 3220.7 8268.33 3018.14 8449.4C2942 8517.85 2982.99 8587.39 2982.63 8673.41C2978.49 9261.52 2974.83 9893.43 2971.65 10569.1C2971.65 10599.2 2982.27 10603.5 3003.5 10582.3C3523.3 10065.5 4059.21 9554.48 4581.58 9034.7C5382.99 8236.73 6180.63 7456.81 6974.49 6694.95C6983.51 6686.17 6992.43 6686.29 7001.21 6695.32C8339.76 8028.2 9676.6 9346.93 11011.7 10651.5C11014.2 10653.9 11017.2 10655.5 11020.6 10656.2C11023.9 10656.8 11027.4 10656.4 11030.5 10655.1C11033.7 10653.7 11036.4 10651.5 11038.2 10648.7C11040.1 10645.8 11041.1 10642.5 11041 10639.1L11045 9809.24C11045 9800.7 11042 9793.37 11035.9 9787.28C9962.12 8726.73 8877.13 7661.92 7780.91 6592.83C7641.56 6456.9 7480.01 6305.86 7296.25 6139.67C7289.62 6133.7 7281.09 6130.29 7272.18 6130.02C7263.26 6129.76 7254.54 6132.66 7247.57 6138.21C7068.2 6280.96 6817.81 6278.03 6577.31 6220.2C6564.43 6217.34 6551.15 6218.36 6539.25 6223.13C6498.25 6239.97 6462 6263.88 6430.52 6294.87C5488.78 7229.98 4547.4 8165.47 3606.39 9101.32C3604.93 9102.78 3604.2 9102.53 3604.2 9100.58Z" stroke="black" stroke-width="2"/>
<path d="M9584.47 2652.39C9584.47 2529.68 9535.72 2412 9448.95 2325.23C9362.18 2238.46 9244.49 2189.71 9121.78 2189.71C8999.06 2189.71 8881.38 2238.46 8794.61 2325.23C8707.83 2412 8659.08 2529.68 8659.08 2652.39C8659.08 2775.1 8707.83 2892.78 8794.61 2979.55C8881.38 3066.32 8999.06 3115.07 9121.78 3115.07C9244.49 3115.07 9362.18 3066.32 9448.95 2979.55C9535.72 2892.78 9584.47 2775.1 9584.47 2652.39Z" stroke="#28B0CD" stroke-width="2"/>
<path d="M9121.86 3134.48C9377.4 3134.48 9584.55 2927.33 9584.55 2671.8C9584.55 2416.27 9377.4 2209.12 9121.86 2209.12C8866.32 2209.12 8659.16 2416.27 8659.16 2671.8C8659.16 2927.33 8866.32 3134.48 9121.86 3134.48Z" fill="white"/>
<mask id="mask0_68_26" style="mask-type:luminance" maskUnits="userSpaceOnUse" x="6167" y="7544" width="2397" height="2746">
<path d="M8564 7544H6167V10290H8564V7544Z" fill="white"/>
<path d="M6267.06 10190V7644.55H7365.78C7554.7 7644.55 7720.01 7678.93 7861.7 7747.71C8003.39 7816.48 8113.59 7915.5 8192.31 8044.76C8271.03 8174.02 8310.39 8328.97 8310.39 8509.6C8310.39 8691.89 8269.79 8845.6 8188.58 8970.72C8108.21 9095.84 7995.1 9190.3 7849.27 9254.1C7704.27 9317.9 7534.82 9349.8 7340.93 9349.8H6684.68V8812.87H7201.72C7282.92 8812.87 7352.11 8802.93 7409.29 8783.04C7467.29 8762.32 7511.62 8729.6 7542.28 8684.85C7573.76 8640.11 7589.51 8581.69 7589.51 8509.6C7589.51 8436.69 7573.76 8377.44 7542.28 8331.87C7511.62 8285.47 7467.29 8251.49 7409.29 8229.95C7352.11 8207.58 7282.92 8196.39 7201.72 8196.39H6958.11V10190H6267.06ZM7758.54 9021.68L8394.9 10190H7644.19L7022.74 9021.68H7758.54Z" fill="black"/>
</mask>
<g mask="url(#mask0_68_26)">
<path d="M6267.06 10190H6167.06V10290H6267.06V10190ZM6267.06 7644.55V7544.55H6167.06V7644.55H6267.06ZM8188.58 8970.72L8104.7 8916.28L8104.57 8916.47L8104.45 8916.67L8188.58 8970.72ZM7849.27 9254.1L7809.19 9162.48L7809.09 9162.52L7809 9162.57L7849.27 9254.1ZM6684.68 9349.8H6584.68V9449.8H6684.68V9349.8ZM6684.68 8812.87V8712.87H6584.68V8812.87H6684.68ZM7409.29 8783.04L7442.14 8877.49L7442.53 8877.35L7442.92 8877.21L7409.29 8783.04ZM7542.28 8684.85L7460.49 8627.3L7460.14 8627.81L7459.78 8628.33L7542.28 8684.85ZM7542.28 8331.87L7458.84 8386.99L7459.41 8387.86L7460 8388.71L7542.28 8331.87ZM7409.29 8229.95L7372.85 8323.07L7373.65 8323.39L7374.47 8323.69L7409.29 8229.95ZM6958.11 8196.39V8096.39H6858.11V8196.39H6958.11ZM6958.11 10190V10290H7058.11V10190H6958.11ZM7758.54 9021.68L7846.36 8973.84L7817.94 8921.68H7758.54V9021.68ZM8394.9 10190V10290H8563.24L8482.72 10142.2L8394.9 10190ZM7644.19 10190L7555.91 10237L7584.12 10290H7644.19V10190ZM7022.74 9021.68V8921.68H6856.29L6934.46 9068.64L7022.74 9021.68ZM6367.06 10190V7644.55H6167.06V10190H6367.06ZM6267.06 7744.55H7365.78V7544.55H6267.06V7744.55ZM7365.78 7744.55C7542.56 7744.55 7692.4 7776.69 7818.03 7837.67L7905.37 7657.74C7747.62 7581.18 7566.85 7544.55 7365.78 7544.55V7744.55ZM7818.03 7837.67C7943.2 7898.42 8038.59 7984.59 8106.9 8096.77L8277.72 7992.75C8188.6 7846.4 8063.59 7734.54 7905.37 7657.74L7818.03 7837.67ZM8106.9 8096.77C8174.37 8207.56 8210.39 8343.74 8210.39 8509.6H8410.39C8410.39 8314.2 8367.68 8140.48 8277.72 7992.75L8106.9 8096.77ZM8210.39 8509.6C8210.39 8676.89 8173.26 8810.65 8104.7 8916.28L8272.46 9025.16C8366.31 8880.55 8410.39 8706.9 8410.39 8509.6H8210.39ZM8104.45 8916.67C8035.49 9024.01 7938.29 9106 7809.19 9162.48L7889.35 9345.71C8051.92 9274.59 8180.92 9167.66 8272.72 9024.76L8104.45 8916.67ZM7809 9162.57C7679.19 9219.68 7523.98 9249.8 7340.93 9249.8V9449.8C7545.66 9449.8 7729.34 9416.12 7889.55 9345.63L7809 9162.57ZM7340.93 9249.8H6684.68V9449.8H7340.93V9249.8ZM6784.68 9349.8V8812.87H6584.68V9349.8H6784.68ZM6684.68 8912.87H7201.72V8712.87H6684.68V8912.87ZM7201.72 8912.87C7290.53 8912.87 7371.48 8902.06 7442.14 8877.49L7376.43 8688.59C7332.74 8703.79 7275.31 8712.87 7201.72 8712.87V8912.87ZM7442.92 8877.21C7517.97 8850.41 7580.62 8805.81 7624.77 8741.37L7459.78 8628.33C7442.61 8653.38 7416.61 8674.24 7375.65 8688.87L7442.92 8877.21ZM7624.06 8742.4C7670.65 8676.19 7689.51 8595.82 7689.51 8509.6H7489.51C7489.51 8567.57 7476.88 8604.02 7460.49 8627.3L7624.06 8742.4ZM7689.51 8509.6C7689.51 8422.73 7670.73 8341.86 7624.55 8275.02L7460 8388.71C7476.8 8413.02 7489.51 8450.64 7489.51 8509.6H7689.51ZM7625.71 8276.74C7582.04 8210.66 7519.65 8164.27 7444.1 8136.21L7374.47 8323.69C7414.92 8338.72 7441.19 8360.28 7458.84 8386.99L7625.71 8276.74ZM7445.73 8136.83C7373.86 8108.7 7291.59 8096.39 7201.72 8096.39V8296.39C7274.26 8296.39 7330.36 8306.45 7372.85 8323.07L7445.73 8136.83ZM7201.72 8096.39H6958.11V8296.39H7201.72V8096.39ZM6858.11 8196.39V10190H7058.11V8196.39H6858.11ZM6958.11 10090H6267.06V10290H6958.11V10090ZM7670.72 9069.51L8307.09 10237.8L8482.72 10142.2L7846.36 8973.84L7670.72 9069.51ZM8394.9 10090H7644.19V10290H8394.9V10090ZM7732.48 10143L7111.03 8974.71L6934.46 9068.64L7555.91 10237L7732.48 10143ZM7022.74 9121.68H7758.54V8921.68H7022.74V9121.68Z" fill="black"/>
</g>
<mask id="mask1_68_26" style="mask-type:luminance" maskUnits="userSpaceOnUse" x="8009" y="4637" width="2397" height="2746">
<path d="M10406 4637H8009V7383H10406V4637Z" fill="white"/>
<path d="M8109.06 7283V4737.55H9207.78C9396.7 4737.55 9562.01 4771.93 9703.7 4840.71C9845.39 4909.48 9955.59 5008.5 10034.3 5137.76C10113 5267.02 10152.4 5421.97 10152.4 5602.6C10152.4 5784.89 10111.8 5938.6 10030.6 6063.72C9950.21 6188.84 9837.1 6283.3 9691.27 6347.1C9546.27 6410.9 9376.82 6442.8 9182.93 6442.8H8526.68V5905.87H9043.72C9124.92 5905.87 9194.11 5895.93 9251.29 5876.04C9309.29 5855.32 9353.62 5822.6 9384.28 5777.85C9415.76 5733.11 9431.51 5674.69 9431.51 5602.6C9431.51 5529.69 9415.76 5470.44 9384.28 5424.87C9353.62 5378.47 9309.29 5344.49 9251.29 5322.95C9194.11 5300.58 9124.92 5289.39 9043.72 5289.39H8800.11V7283H8109.06ZM9600.54 6114.68L10236.9 7283H9486.19L8864.74 6114.68H9600.54Z" fill="black"/>
</mask>
<g mask="url(#mask1_68_26)">
<path d="M8109.06 7283H8009.06V7383H8109.06V7283ZM8109.06 4737.55V4637.55H8009.06V4737.55H8109.06ZM10030.6 6063.72L9946.7 6009.28L9946.57 6009.47L9946.45 6009.67L10030.6 6063.72ZM9691.27 6347.1L9651.19 6255.48L9651.09 6255.52L9651 6255.57L9691.27 6347.1ZM8526.68 6442.8H8426.68V6542.8H8526.68V6442.8ZM8526.68 5905.87V5805.87H8426.68V5905.87H8526.68ZM9251.29 5876.04L9284.14 5970.49L9284.53 5970.35L9284.92 5970.21L9251.29 5876.04ZM9384.28 5777.85L9302.49 5720.3L9302.14 5720.81L9301.78 5721.33L9384.28 5777.85ZM9384.28 5424.87L9300.84 5479.99L9301.41 5480.86L9302 5481.71L9384.28 5424.87ZM9251.29 5322.95L9214.85 5416.07L9215.65 5416.39L9216.47 5416.69L9251.29 5322.95ZM8800.11 5289.39V5189.39H8700.11V5289.39H8800.11ZM8800.11 7283V7383H8900.11V7283H8800.11ZM9600.54 6114.68L9688.36 6066.84L9659.94 6014.68H9600.54V6114.68ZM10236.9 7283V7383H10405.2L10324.7 7235.17L10236.9 7283ZM9486.19 7283L9397.91 7329.96L9426.12 7383H9486.19V7283ZM8864.74 6114.68V6014.68H8698.29L8776.46 6161.64L8864.74 6114.68ZM8209.06 7283V4737.55H8009.06V7283H8209.06ZM8109.06 4837.55H9207.78V4637.55H8109.06V4837.55ZM9207.78 4837.55C9384.56 4837.55 9534.4 4869.69 9660.03 4930.67L9747.37 4750.74C9589.62 4674.18 9408.85 4637.55 9207.78 4637.55V4837.55ZM9660.03 4930.67C9785.2 4991.42 9880.59 5077.59 9948.9 5189.77L10119.7 5085.75C10030.6 4939.4 9905.59 4827.54 9747.37 4750.74L9660.03 4930.67ZM9948.9 5189.77C10016.4 5300.56 10052.4 5436.74 10052.4 5602.6H10252.4C10252.4 5407.2 10209.7 5233.48 10119.7 5085.75L9948.9 5189.77ZM10052.4 5602.6C10052.4 5769.89 10015.3 5903.65 9946.7 6009.28L10114.5 6118.16C10208.3 5973.55 10252.4 5799.9 10252.4 5602.6H10052.4ZM9946.45 6009.67C9877.49 6117.01 9780.29 6199 9651.19 6255.48L9731.35 6438.71C9893.92 6367.59 10022.9 6260.66 10114.7 6117.76L9946.45 6009.67ZM9651 6255.57C9521.19 6312.68 9365.98 6342.8 9182.93 6342.8V6542.8C9387.66 6542.8 9571.34 6509.12 9731.55 6438.63L9651 6255.57ZM9182.93 6342.8H8526.68V6542.8H9182.93V6342.8ZM8626.68 6442.8V5905.87H8426.68V6442.8H8626.68ZM8526.68 6005.87H9043.72V5805.87H8526.68V6005.87ZM9043.72 6005.87C9132.53 6005.87 9213.48 5995.06 9284.14 5970.49L9218.43 5781.59C9174.74 5796.79 9117.31 5805.87 9043.72 5805.87V6005.87ZM9284.92 5970.21C9359.97 5943.41 9422.62 5898.81 9466.77 5834.37L9301.78 5721.33C9284.61 5746.38 9258.61 5767.24 9217.65 5781.87L9284.92 5970.21ZM9466.06 5835.4C9512.65 5769.19 9531.51 5688.82 9531.51 5602.6H9331.51C9331.51 5660.57 9318.88 5697.02 9302.49 5720.3L9466.06 5835.4ZM9531.51 5602.6C9531.51 5515.73 9512.73 5434.86 9466.55 5368.02L9302 5481.71C9318.8 5506.02 9331.51 5543.64 9331.51 5602.6H9531.51ZM9467.71 5369.74C9424.04 5303.66 9361.65 5257.27 9286.1 5229.21L9216.47 5416.69C9256.92 5431.72 9283.19 5453.28 9300.84 5479.99L9467.71 5369.74ZM9287.73 5229.83C9215.86 5201.7 9133.59 5189.39 9043.72 5189.39V5389.39C9116.26 5389.39 9172.36 5399.45 9214.85 5416.07L9287.73 5229.83ZM9043.72 5189.39H8800.11V5389.39H9043.72V5189.39ZM8700.11 5289.39V7283H8900.11V5289.39H8700.11ZM8800.11 7183H8109.06V7383H8800.11V7183ZM9512.72 6162.51L10149.1 7330.83L10324.7 7235.17L9688.36 6066.84L9512.72 6162.51ZM10236.9 7183H9486.19V7383H10236.9V7183ZM9574.48 7236.04L8953.03 6067.71L8776.46 6161.64L9397.91 7329.96L9574.48 7236.04ZM8864.74 6214.68H9600.54V6014.68H8864.74V6214.68Z" fill="black"/>
</g>
</g>
<defs>
<clipPath id="clip0_68_26">
<rect width="12694" height="12694" fill="white"/>
</clipPath>
</defs>
</svg>
