<svg xmlns="http://www.w3.org/2000/svg" enable-background="new 0 0 512 512" viewBox="0 0 512 512" id="SeoContent"><path d="M433.557,7.929H150.607c-15.531,0-28.165,12.612-28.165,28.116v279.942c-31.063,9.462-55.705,25.413-67.646,45.392
					c-1.419,2.374-0.646,5.452,1.73,6.871c2.386,1.414,5.454,0.646,6.874-1.732c17.883-29.922,68.277-50.027,125.396-50.027
					c72.733,0,131.905,32.418,131.905,72.266s-59.172,72.266-131.905,72.266c-8.063,0-16.018-0.396-23.646-1.175
					c-1.187-0.093-2.41,0.201-3.399,0.891l-44.898,31.694l-3.196-41.419c-0.147-1.889-1.348-3.538-3.108-4.253
					c-25.711-10.468-43.67-25.581-50.568-42.554c-1.042-2.56-3.974-3.798-6.529-2.755c-2.564,1.042-3.798,3.969-2.755,6.534
					c7.652,18.827,26.489,35.389,53.201,46.856l3.22,41.732c0.181,2.868,1.906,5.432,4.503,6.69c1.116,0.538,2.32,0.808,3.526,0.808
					c1.632,0,3.267-0.494,4.674-1.463l46.188-32.604c7.388,0.69,15.042,1.042,22.787,1.042c32.161,0,61.844-6.244,85.671-16.738
					h82.464c0.042,0.001,0.082,0.024,0.123,0.024c1.302,0,2.584-0.509,3.543-1.463l71.145-71.051l28.459-28.401
					c0.077-0.076,0.106-0.184,0.177-0.264c0.309-0.352,0.57-0.73,0.766-1.143c0.103-0.215,0.164-0.434,0.236-0.662
					c0.107-0.341,0.175-0.682,0.207-1.038c0.014-0.151,0.088-0.288,0.088-0.441v-239.1c0-2.77-2.241-5.012-5.012-5.012
					c-2.77,0-5.012,2.241-5.012,5.012v234.083h-71.493c-15.504,0-28.116,12.602-28.116,28.087v71.346h-58.608
					c23.142-14.647,37.29-34.147,37.29-55.528c0-45.373-63.669-82.289-141.928-82.289c-19.827,0-38.904,2.408-56.331,6.748V36.046
					c0-9.979,8.139-18.093,18.142-18.093h282.951c9.979,0,18.093,8.114,18.093,18.093v32.575c0,2.77,2.241,5.012,5.012,5.012
					c2.77,0,5.012-2.241,5.012-5.012V36.046C461.674,20.542,449.062,7.929,433.557,7.929z M380.158,354.875h64.377l-22.673,22.642
					l-59.797,59.676v-64.254C362.065,362.979,370.179,354.875,380.158,354.875z" fill="#28b0cd" class="color000000 svgShape"></path><path d="M371.314 72.105H212.803c-2.768 0-5.012 2.241-5.012 5.012s2.244 5.012 5.012 5.012h158.512c2.77 0 5.012-2.241 5.012-5.012S374.085 72.105 371.314 72.105zM199.829 127.252c0 2.77 2.244 5.012 5.012 5.012h47.781c2.768 0 5.012-2.241 5.012-5.012 0-2.77-2.244-5.012-5.012-5.012H204.84C202.073 122.24 199.829 124.482 199.829 127.252zM379.282 122.24h-95.564c-2.768 0-5.012 2.241-5.012 5.012 0 2.77 2.244 5.012 5.012 5.012h95.564c2.77 0 5.012-2.241 5.012-5.012C384.294 124.482 382.052 122.24 379.282 122.24zM204.082 182.398h103.145c2.77 0 5.012-2.241 5.012-5.012 0-2.77-2.241-5.012-5.012-5.012H204.082c-2.768 0-5.012 2.241-5.012 5.012C199.07 180.157 201.314 182.398 204.082 182.398zM347.427 172.375c-2.77 0-5.012 2.241-5.012 5.012 0 2.77 2.241 5.012 5.012 5.012h32.614c2.77 0 5.012-2.241 5.012-5.012 0-2.77-2.241-5.012-5.012-5.012H347.427zM403.63 227.521c0-2.77-2.241-5.012-5.012-5.012h-213.12c-2.768 0-5.012 2.241-5.012 5.012 0 2.77 2.244 5.012 5.012 5.012h213.12C401.389 232.533 403.63 230.291 403.63 227.521zM238.969 272.645c-2.768 0-5.012 2.241-5.012 5.012s2.244 5.012 5.012 5.012h32.612c2.768 0 5.012-2.241 5.012-5.012s-2.244-5.012-5.012-5.012H238.969zM290.543 272.645c-2.768 0-5.012 2.241-5.012 5.012s2.244 5.012 5.012 5.012h102.389c2.77 0 5.012-2.241 5.012-5.012s-2.241-5.012-5.012-5.012H290.543zM191.188 272.645c-2.768 0-5.012 2.241-5.012 5.012s2.244 5.012 5.012 5.012h28.821c2.768 0 5.012-2.241 5.012-5.012s-2.244-5.012-5.012-5.012H191.188zM115.707 404.202c-2.768 0-5.012 2.241-5.012 5.012s2.244 5.012 5.012 5.012h23.944c4.202 0 7.62-3.436 7.62-7.654V386.97c0-4.219-3.419-7.649-7.62-7.649h-18.933v-14.78h21.541c2.768 0 5.012-2.241 5.012-5.012s-2.244-5.012-5.012-5.012h-23.944c-4.202 0-7.62 3.436-7.62 7.654v19.518c0 4.219 3.419 7.654 7.62 7.654h18.933v14.858H115.707zM194.208 364.541c2.768 0 5.012-2.241 5.012-5.012s-2.244-5.012-5.012-5.012h-23.944c-4.204 0-7.623 3.436-7.623 7.654v22.16 22.239c0 4.219 3.419 7.654 7.623 7.654h23.944c2.768 0 5.012-2.241 5.012-5.012s-2.244-5.012-5.012-5.012h-21.544v-14.858h15.216c2.768 0 5.012-2.241 5.012-5.012s-2.244-5.012-5.012-5.012h-15.216v-14.78H194.208zM266.846 384.347c0-17.301-14.046-31.376-31.312-31.376-17.242 0-31.268 14.075-31.268 31.376 0 17.33 14.026 31.425 31.268 31.425C252.8 415.772 266.846 401.677 266.846 384.347zM214.288 384.347c0-11.775 9.531-21.353 21.245-21.353 11.738 0 21.289 9.578 21.289 21.353 0 11.8-9.551 21.402-21.289 21.402C223.819 405.749 214.288 396.147 214.288 384.347z" fill="#28b0cd" class="color000000 svgShape"></path></svg>