<svg xmlns="http://www.w3.org/2000/svg" viewBox="0 0 68 68" id="WebLayout"><path d="M2 60.5C2 62.981 4.019 65 6.5 65h55c2.481 0 4.5-2.019 4.5-4.5v-53C66 5.019 63.981 3 61.5 3h-55A4.505 4.505 0 0 0 2 7.5v53zm63 0c0 1.93-1.57 3.5-3.5 3.5h-55C4.57 64 3 62.43 3 60.5V13h62v47.5zM3 7.5C3 5.57 4.57 4 6.5 4h55C63.43 4 65 5.57 65 7.5V12H3V7.5z" fill="#28b0cd" class="color000000 svgShape"></path><path d="M39.207 7.5H8.395a.5.5 0 1 0 0 1h30.812a.5.5 0 1 0 0-1zm6.752-1.44c-1.07 0-1.94.87-1.94 1.94 0 1.07.87 1.94 1.94 1.94S47.9 9.07 47.9 8c0-1.07-.87-1.94-1.94-1.94zm0 2.88a.941.941 0 0 1 0-1.88c.51 0 .94.43.94.94 0 .518-.421.94-.94.94zm6.103-2.88c-1.07 0-1.94.87-1.94 1.94 0 1.07.87 1.94 1.94 1.94s1.94-.87 1.94-1.94c0-1.07-.87-1.94-1.94-1.94zm0 2.88a.941.941 0 0 1 0-1.88c.51 0 .94.43.94.94 0 .518-.421.94-.94.94zm6.104-2.88c-1.07 0-1.94.87-1.94 1.94 0 1.07.87 1.94 1.94 1.94s1.94-.87 1.94-1.94c0-1.07-.87-1.94-1.94-1.94zm0 2.88a.941.941 0 0 1 0-1.88c.509 0 .94.43.94.94 0 .518-.422.94-.94.94zM6.5 24.874h15.53a.5.5 0 0 0 .5-.5c-.194-7.276.425-8.375-.5-8.375H6.5a.5.5 0 0 0-.5.5v7.875a.5.5 0 0 0 .5.5zM7 17h14.53v6.875H7V17zm15.03 10.375H11.5a.5.5 0 1 0 0 1h10.53a.5.5 0 1 0 0-1zm-15.53 4.5h15.53a.5.5 0 1 0 0-1H6.5a.5.5 0 1 0 0 1zm0 3.5h10.739a.5.5 0 1 0 0-1H6.5a.5.5 0 1 0 0 1zm35.265-8h-10.53a.5.5 0 1 0 0 1h10.53a.5.5 0 1 0 0-1zm-15.53 4.5h15.53a.5.5 0 1 0 0-1h-15.53a.5.5 0 1 0 0 1zm0 3.5h10.739a.5.5 0 1 0 0-1H26.235a.5.5 0 1 0 0 1zm35.265-8H50.97a.5.5 0 1 0 0 1H61.5a.5.5 0 1 0 0-1zm-15.53 4.5H61.5a.5.5 0 1 0 0-1H45.97a.5.5 0 1 0 0 1zm0 3.5H56.71a.5.5 0 1 0 0-1H45.97a.5.5 0 1 0 0 1zm0-10.5H61.5a.5.5 0 0 0 .5-.5V16.5a.5.5 0 0 0-.5-.5H45.97a.5.5 0 0 0-.5.5v7.875a.5.5 0 0 0 .5.5zm.5-7.875H61v6.875H46.47V17zm-20.235 7.875h15.53a.5.5 0 0 0 .5-.5V16.5a.5.5 0 0 0-.5-.5h-15.53a.5.5 0 0 0-.5.5v7.875a.5.5 0 0 0 .5.5zm.5-7.875h14.53v6.875h-14.53V17zM6.5 46.75h35.265a.5.5 0 0 0 .5-.5v-7.87a.5.5 0 0 0-.5-.5H6.5a.5.5 0 0 0-.5.5v7.87a.5.5 0 0 0 .5.5zm.5-7.87h34.265v6.87H7v-6.87zm-.5 11.37h35.265a.5.5 0 1 0 0-1H6.5a.5.5 0 1 0 0 1zm0 3.5h35.265a.5.5 0 1 0 0-1H6.5a.5.5 0 1 0 0 1zm0 3.5h30.265a.5.5 0 1 0 0-1H6.5a.5.5 0 1 0 0 1zm0 3.5h30.265a.5.5 0 1 0 0-1H6.5a.5.5 0 1 0 0 1zm39.47 0H61.5a.5.5 0 0 0 .5-.5V38.38a.5.5 0 0 0-.5-.5H45.97a.5.5 0 0 0-.5.5v21.87a.5.5 0 0 0 .5.5zm.5-21.87H61v20.87H46.47V38.88z" fill="#28b0cd" class="color000000 svgShape"></path></svg>