<svg xmlns="http://www.w3.org/2000/svg" fill="none" viewBox="0 0 24 24" id="FileOff"><path fill="#28b0cd" fill-rule="evenodd" d="M8 1C7.44772 1 7 1.44772 7 2C7 2.55228 7.44772 3 8 3H13V6C13 7.65685 14.3431 9 16 9H19V14C19 14.5523 19.4477 15 20 15C20.5523 15 21 14.5523 21 14V7.82843C21 7.03278 20.6839 6.26972 20.1213 5.70711L16.2929 1.87868C15.7303 1.31607 14.9672 1 14.1716 1H8ZM15 6V3.41421L18.5858 7H16C15.4477 7 15 6.55228 15 6ZM1.29289 1.29289C1.68342 0.902369 2.31658 0.902369 2.70711 1.29289L22.7071 21.2929C23.0976 21.6834 23.0976 22.3166 22.7071 22.7071C22.3166 23.0976 21.6834 23.0976 21.2929 22.7071L20.394 21.8082C19.8463 22.5322 18.9778 23 18 23H6C4.34315 23 3 21.6569 3 20V4.41421L1.29289 2.70711C0.902369 2.31658 0.902369 1.68342 1.29289 1.29289ZM5 6.41421L18.9367 20.3509C18.7946 20.7301 18.4288 21 18 21H6C5.44771 21 5 20.5523 5 20V6.41421Z" clip-rule="evenodd" class="color000000 svgShape"></path></svg>