<svg xmlns="http://www.w3.org/2000/svg" enable-background="new 0 0 512 512" viewBox="0 0 512 512" id="LocalSeo"><path fill="#83e9ff" d="M419.284,410.153l-23.003,12.729l-85.196,47.159l-49.965,27.714
					c-3.157,1.754-7.016,1.754-10.174,0L92.733,410.153c-4.059-2.255-5.863-6.565-5.362-10.574c0.351-3.157,2.205-6.164,5.362-7.918
					l163.326-90.358l0.251,0.15l162.975,90.207C426.501,395.67,426.551,406.094,419.284,410.153z" class="color83caff svgShape"></path><path fill="#b8f3ff" d="M396.281,422.883l-85.196,47.159l-49.965,27.714c-3.157,1.754-7.016,1.754-10.174,0
					L92.733,410.153c-4.059-2.255-5.863-6.565-5.362-10.574l140.323-77.629l0.251,0.201l162.975,90.157
					C394.978,414.564,396.782,418.873,396.281,422.883z" class="colorb8daff svgShape"></path><path fill="#83e9ff" d="M419.284,324.256l-108.199,59.938l-49.965,27.663c-0.602,0.351-1.253,0.652-1.904,0.802
					c-2.706,0.952-5.713,0.652-8.269-0.802L92.733,324.256c-7.267-4.009-7.267-14.483,0-18.493l137.115-75.875l26.21-14.483
					l0.251,0.2l162.975,90.157C426.501,309.772,426.551,320.247,419.284,324.256z" class="color83caff svgShape"></path><path fill="#b8f3ff" d="M392.823,338.639l-108.149,59.938l-25.458,14.082c-2.706,0.952-5.713,0.652-8.269-0.802
					L92.733,324.256c-7.267-4.009-7.267-14.483,0-18.493l137.115-75.875l0.05,0.05l162.925,90.207
					C400.09,324.155,400.09,334.63,392.823,338.639z" class="colorb8daff svgShape"></path><path fill="#dddddd" d="M371.625,129.007c0,53.874-81.939,148.241-107.848,176.706c-4.21,4.611-11.376,4.611-15.536,0
					c-1.554-1.704-3.308-3.608-5.262-5.763c-30.119-33.778-102.636-120.277-102.636-170.943c0-59.737,44.903-108.85,102.636-115.315
					c4.26-0.501,8.62-0.752,13.03-0.752C319.855,12.94,371.625,64.859,371.625,129.007z" class="colordddddd svgShape"></path><path fill="#ffffff" d="M345.615,129.007c0,50.667-72.517,137.165-102.636,170.943
					c-30.119-33.778-102.636-120.277-102.636-170.943c0-59.737,44.903-108.85,102.636-115.315
					C300.711,20.156,345.615,69.269,345.615,129.007z" class="colorffffff svgShape"></path><path fill="#28b0cd" d="M416.856,405.768L391.95,419.55c-2.423,1.341-3.299,4.39-1.958,6.813
					c1.341,2.427,4.395,3.303,6.813,1.958l24.921-13.791c5.016-2.799,8.007-7.894,8.002-13.635c-0.005-5.741-3-10.831-8.016-13.62
					l-52.934-29.301l15.403-8.535l0.517-0.284c0.006-0.003,0.009-0.008,0.015-0.011l36.989-20.495
					c5.021-2.785,8.021-7.875,8.021-13.625c0-5.755-3-10.85-8.026-13.635l-36.663-20.292c-0.117-0.078-0.211-0.18-0.336-0.249
					l-13.082-7.177l-51.369-28.431c28.494-38.271,56.39-83.965,56.39-116.23c0-66.765-54.114-121.079-120.629-121.079
					c-66.54,0-120.678,54.314-120.678,121.079c0,9.426,2.349,20.472,6.984,32.829c0.974,2.594,3.861,3.891,6.455,2.932
					c2.589-0.974,3.901-3.861,2.932-6.455c-4.214-11.227-6.348-21.089-6.348-29.306c0-61.235,49.641-111.056,110.655-111.056
					c60.99,0,110.606,49.822,110.606,111.056c0,52.244-81.55,145.877-106.539,173.328c-1.077,1.175-2.525,1.826-4.087,1.826
					c-0.005,0-0.01,0-0.015-0.005c-1.542,0-2.966-0.641-4.023-1.816c-15.157-16.674-53.233-60.065-79.318-102.731
					c-1.444-2.364-4.522-3.113-6.891-1.664c-2.364,1.444-3.108,4.532-1.664,6.891c8.42,13.771,17.95,27.482,27.623,40.45
					l-48.635,26.912l-15.762,8.648c-0.144,0.08-0.256,0.197-0.39,0.289l-36.599,20.252c-5.026,2.78-8.031,7.87-8.031,13.625
					c-0.005,5.751,2.995,10.85,8.021,13.635l36.912,20.442c0.032,0.018,0.055,0.047,0.087,0.065l3.198,1.755l12.764,7.068
					l-52.956,29.297c-5.021,2.77-8.021,7.85-8.036,13.581c-0.015,5.751,2.98,10.865,8.031,13.684l158.211,87.599
					c2.32,1.287,4.919,1.933,7.522,1.933c2.599,0,5.197-0.646,7.517-1.933l96.017-53.218c2.423-1.341,3.299-4.39,1.958-6.813
					c-1.341-2.427-4.395-3.299-6.813-1.958l-96.027,53.228c-1.639,0.901-3.675,0.901-5.315-0.005L95.174,405.778
					c-1.806-1.008-2.883-2.843-2.878-4.904c0-0.979,0.284-3.406,2.863-4.83l58.453-32.337l94.908,52.559
					c2.354,1.302,4.938,1.958,7.522,1.958c2.589,0,5.173-0.656,7.527-1.958l94.862-52.561l58.415,32.334
					c1.786,0.993,2.858,2.809,2.858,4.865C419.704,401.887,419.43,404.334,416.856,405.768z M309.426,379.017l-43.082-23.854
					l62.194-34.435l43.366,24.011L309.426,379.017z M419.699,315.022c0,0.984-0.279,3.431-2.853,4.855l-34.564,19.151L338.884,315
					l43.343-23.997l34.615,19.155C419.42,311.587,419.699,314.034,419.699,315.022z M365.792,281.909l6.085,3.367l-43.34,23.996
					l-41.189-22.805c8.087-9.52,17.297-20.759,26.662-32.969L365.792,281.909z M255.944,314.181c0.015,0,0.029,0.005,0.044,0.005
					c4.346,0,8.535-1.855,11.491-5.1c3.453-3.793,7.984-8.856,13.198-14.856L318.192,315l-62.193,34.435L193.807,315l37.517-20.773
					c4.915,5.646,9.399,10.666,13.197,14.844C247.438,312.306,251.603,314.171,255.944,314.181z M140.096,344.739l43.365-24.011
					l62.192,34.434l-43.084,23.854L140.096,344.739z M147.598,281.145l50.342-27.622c9.244,12.025,18.408,23.202,26.707,32.945
					l-41.186,22.804l-43.334-23.993L147.598,281.145z M92.306,315.018c0-0.989,0.279-3.436,2.858-4.86l34.614-19.152L173.115,315
					l-43.386,24.022l-34.57-19.145C93.373,318.889,92.301,317.068,92.306,315.018z M258.714,407.496c-1.679,0.93-3.671,0.92-5.339,0
					l-40.771-22.578l43.395-24.026l43.429,24.046L258.714,407.496z" class="color3f8cf4 svgShape"></path><path fill="#28b0cd" d="M194.597 140.534c-2.77 0-5.012 2.241-5.012 5.012 0 2.77 2.241 5.012 5.012 5.012h20.124c3.974 0 7.204-3.25 7.204-7.248v-16.581c0-3.998-3.23-7.248-7.204-7.248h-15.113v-10.958h17.305c2.77 0 5.012-2.241 5.012-5.012s-2.241-5.012-5.012-5.012h-20.124c-3.974 0-7.204 3.25-7.204 7.248v16.508c0 3.998 3.23 7.248 7.204 7.248h15.113v11.031H194.597zM260.569 108.522c2.77 0 5.012-2.241 5.012-5.012s-2.241-5.012-5.012-5.012h-20.124c-3.974 0-7.204 3.25-7.204 7.248v18.744 18.818c0 3.998 3.23 7.248 7.204 7.248h20.124c2.77 0 5.012-2.241 5.012-5.012 0-2.77-2.241-5.012-5.012-5.012h-17.305v-11.031h11.986c2.77 0 5.012-2.241 5.012-5.012s-2.241-5.012-5.012-5.012h-11.986v-10.958H260.569zM322.41 124.506c0-15.064-12.162-27.319-27.113-27.319-14.932 0-27.079 12.255-27.079 27.319 0 15.084 12.147 27.358 27.079 27.358C310.248 151.864 322.41 139.59 322.41 124.506zM278.241 124.506c0-9.539 7.649-17.296 17.056-17.296 9.421 0 17.09 7.757 17.09 17.296 0 9.558-7.669 17.335-17.09 17.335C285.891 141.841 278.241 134.064 278.241 124.506z" class="color3f8cf4 svgShape"></path></svg>