<svg xmlns="http://www.w3.org/2000/svg" viewBox="0 0 100 100" id="SeoOptimization"><g data-name="ICON 15" fill="#28b0cd" class="color000000 svgShape"><path d="M64.22,47.38A10.47,10.47,0,0,0,63,47a4.94,4.94,0,0,1-1-.32.51.51,0,0,1-.34-.49.62.62,0,0,1,.29-.53,1.65,1.65,0,0,1,.93-.2,3.54,3.54,0,0,1,1.78.5l.46-1.13a3.58,3.58,0,0,0-1-.42,4.81,4.81,0,0,0-1.2-.15,3.72,3.72,0,0,0-1.5.27,2,2,0,0,0-.91.72,1.8,1.8,0,0,0-.3,1,1.55,1.55,0,0,0,.33,1,2.07,2.07,0,0,0,.81.56c.31.11.71.23,1.2.35.32.07.57.14.76.2a1.33,1.33,0,0,1,.46.24.48.48,0,0,1,.18.38.56.56,0,0,1-.3.5,1.81,1.81,0,0,1-.94.19,3.77,3.77,0,0,1-1.14-.18,3.52,3.52,0,0,1-1-.49L60,50.2a3.56,3.56,0,0,0,1.14.54,5.24,5.24,0,0,0,1.48.21,3.72,3.72,0,0,0,1.5-.27,2.07,2.07,0,0,0,.92-.72,1.72,1.72,0,0,0,.31-1,1.45,1.45,0,0,0-.34-1A2,2,0,0,0,64.22,47.38Z" fill="#28b0cd" class="color000000 svgShape"></path><polygon points="67.86 48.15 70.85 48.15 70.85 46.99 67.86 46.99 67.86 45.6 71.25 45.6 71.25 44.4 66.38 44.4 66.38 50.84 71.36 50.84 71.36 49.64 67.86 49.64 67.86 48.15" fill="#28b0cd" class="color000000 svgShape"></polygon><path d="M77.45,44.72a3.69,3.69,0,0,0-1.8-.43,3.75,3.75,0,0,0-1.81.43,3.35,3.35,0,0,0-1.26,1.19,3.47,3.47,0,0,0,0,3.42,3.35,3.35,0,0,0,1.26,1.19,3.87,3.87,0,0,0,1.81.43,3.8,3.8,0,0,0,1.8-.43,3.29,3.29,0,0,0,0-5.8Zm0,4a1.87,1.87,0,0,1-.72.73,2.17,2.17,0,0,1-2.06,0,1.87,1.87,0,0,1-.72-.73,2.33,2.33,0,0,1,0-2.14,1.87,1.87,0,0,1,.72-.73,2.17,2.17,0,0,1,2.06,0,1.87,1.87,0,0,1,.72.73,2.33,2.33,0,0,1,0,2.14Z" fill="#28b0cd" class="color000000 svgShape"></path><polygon points="17.49 59.34 21.87 61.01 21.87 59.86 18.81 58.75 21.87 57.62 21.87 56.48 17.49 58.15 17.49 59.34" fill="#28b0cd" class="color000000 svgShape"></polygon><polygon points="22.13 62.88 23.41 62.88 26.44 54.22 25.16 54.22 22.13 62.88" fill="#28b0cd" class="color000000 svgShape"></polygon><polygon points="26.61 57.62 29.67 58.75 26.61 59.86 26.61 61.01 30.98 59.34 30.98 58.15 26.61 56.48 26.61 57.62" fill="#28b0cd" class="color000000 svgShape"></polygon><path d="M69.59,33.47A14.15,14.15,0,1,0,83.74,47.62,14.17,14.17,0,0,0,69.59,33.47Zm0,26.3A12.15,12.15,0,1,1,81.74,47.62,12.16,12.16,0,0,1,69.59,59.77Z" fill="#28b0cd" class="color000000 svgShape"></path><path d="M96.05 42.9l-7.72-1.71a20.69 20.69 0 0 0-1-2.27l4.26-6.67A1 1 0 0 0 91.5 31l-5.29-5.29A1 1 0 0 0 85 25.57l-6.67 4.26A20.69 20.69 0 0 0 76 28.88l-1.71-7.72a1 1 0 0 0-1-.78H65.85a1 1 0 0 0-1 .78l-1.71 7.72a20.69 20.69 0 0 0-2.27.95l-6.67-4.26a1 1 0 0 0-1.25.14L47.67 31a1 1 0 0 0-.14 1.25l4.27 6.67A19.15 19.15 0 0 0 50.92 41a.37.37 0 0 1-.25.24L43.13 42.9a1 1 0 0 0-.78 1v7.48a1 1 0 0 0 .78 1L50.67 54a.37.37 0 0 1 .25.24 20 20 0 0 0 .88 2.07L47.53 63a1 1 0 0 0 .14 1.25L53 69.53a1 1 0 0 0 1.25.14l6.67-4.26a18.25 18.25 0 0 0 2.27 1l1.71 7.72a1 1 0 0 0 1 .78h7.48a1 1 0 0 0 1-.78L76 66.36a18.25 18.25 0 0 0 2.27-1L85 69.67a1 1 0 0 0 1.25-.14l5.29-5.29A1 1 0 0 0 91.64 63l-4.26-6.67a20.69 20.69 0 0 0 1-2.27l7.72-1.71a1 1 0 0 0 .78-1V43.88A1 1 0 0 0 96.05 42.9zm-1.22 7.66l-7.49 1.66a1 1 0 0 0-.74.69 16.9 16.9 0 0 1-1.26 3 1 1 0 0 0 0 1l4.14 6.48-4.16 4.16-6.48-4.13a1 1 0 0 0-1 0 16.71 16.71 0 0 1-3 1.25 1 1 0 0 0-.69.74l-1.66 7.49H66.65L65 65.37a1 1 0 0 0-.69-.74 16.07 16.07 0 0 1-3-1.26 1 1 0 0 0-1 .05l-6.48 4.13-4.17-4.16 4.14-6.48a1 1 0 0 0 0-1 17.94 17.94 0 0 1-1-2.32 2.33 2.33 0 0 0-1.7-1.52l-6.75-1.5V44.68l6.75-1.5a2.33 2.33 0 0 0 1.7-1.52 17.35 17.35 0 0 1 1-2.32 1 1 0 0 0 0-1l-4.14-6.48 4.17-4.16 6.48 4.13a1 1 0 0 0 1 0 16.12 16.12 0 0 1 3-1.25 1 1 0 0 0 .69-.74l1.66-7.49h5.88l1.66 7.49a1 1 0 0 0 .69.74 16.12 16.12 0 0 1 3 1.25 1 1 0 0 0 1 0l6.48-4.13 4.16 4.16-4.14 6.48a1 1 0 0 0 0 1 16.9 16.9 0 0 1 1.26 3 1 1 0 0 0 .74.69l7.49 1.66zM24.24 48A10.58 10.58 0 1 0 34.81 58.55 10.59 10.59 0 0 0 24.24 48zm0 19.15a8.58 8.58 0 1 1 8.57-8.58A8.59 8.59 0 0 1 24.24 67.13z" fill="#28b0cd" class="color000000 svgShape"></path><path d="M44.53,54.71l-5.78-1.28a13.92,13.92,0,0,0-.64-1.51l3.19-5a1,1,0,0,0-.14-1.24l-4-4a1,1,0,0,0-1.24-.14l-5,3.19A15,15,0,0,0,29.36,44l-1.28-5.77a1,1,0,0,0-1-.79H21.38a1,1,0,0,0-1,.79L19.12,44a14.06,14.06,0,0,0-1.52.64l-5-3.19a1,1,0,0,0-1.25.14l-4,4a1,1,0,0,0-.14,1.24l3.19,5c-.24.5-.45,1-.64,1.52L4,54.71a1,1,0,0,0-.78,1v5.73a1,1,0,0,0,.78,1L9.74,63.7a14.29,14.29,0,0,0,.62,1.49l-3.19,5a1,1,0,0,0,.14,1.25l4.05,4a1,1,0,0,0,1.25.13l5-3.18a16.4,16.4,0,0,0,1.52.64l1.28,5.77a1,1,0,0,0,1,.78H27.1a1,1,0,0,0,1-.78l1.28-5.77a15,15,0,0,0,1.52-.64l5,3.18a1,1,0,0,0,1.24-.13l4-4a1,1,0,0,0,.14-1.25l-3.19-5a13.27,13.27,0,0,0,.64-1.52l5.78-1.28a1,1,0,0,0,.78-1V55.69A1,1,0,0,0,44.53,54.71Zm-1.22,5.9-5.55,1.23a1,1,0,0,0-.74.69,12.24,12.24,0,0,1-.94,2.25,1,1,0,0,0,0,1l3.06,4.8L36.27,73.5l-4.8-3.06a1,1,0,0,0-1,0,13,13,0,0,1-2.25.94,1,1,0,0,0-.68.74L26.3,77.62H22.18L21,72.08a1,1,0,0,0-.69-.74A13.31,13.31,0,0,1,18,70.4a1,1,0,0,0-1,0l-4.8,3.06L9.29,70.58l3.07-4.79a1,1,0,0,0,0-1A12.07,12.07,0,0,1,11.62,63a2,2,0,0,0-1.47-1.31l-5-1.11V56.49l5-1.1a2,2,0,0,0,1.47-1.31,11.61,11.61,0,0,1,.78-1.75,1,1,0,0,0,0-1l-3.07-4.8,2.92-2.91L17,46.67a1,1,0,0,0,1,0,13.31,13.31,0,0,1,2.25-.94A1,1,0,0,0,21,45l1.23-5.55H26.3L27.53,45a1,1,0,0,0,.68.74,12.24,12.24,0,0,1,2.25.94,1,1,0,0,0,1,0l4.8-3.06,2.91,2.91-3.06,4.8a1,1,0,0,0,0,1A12.24,12.24,0,0,1,37,54.58a1,1,0,0,0,.74.68l5.55,1.23Z" fill="#28b0cd" class="color000000 svgShape"></path></g></svg>