<?xml version="1.0" encoding="utf-8"?>
<!-- Generator: Adobe Illustrator 27.5.0, SVG Export Plug-In . SVG Version: 6.00 Build 0)  -->
<svg version="1.1" xmlns="http://www.w3.org/2000/svg" xmlns:xlink="http://www.w3.org/1999/xlink" x="0px" y="0px"
	 viewBox="0 0 500 500" style="enable-background:new 0 0 500 500;" xml:space="preserve">
<g id="BACKGROUND">
	<rect style="fill:#FFFFFF;" width="500" height="500"/>
</g>
<g id="DESIGNED_BY_FREEPIK">
	<g>
		<g id="XMLID_319_">
			<g id="XMLID_338_">
				<path id="XMLID_346_" style="fill:#A5B7C6;" d="M260.103,467.15c-0.432,0.443-0.803,0.932-1.107,1.453l-0.465-0.241
					c-0.068-0.297-0.35-0.502-0.66-0.466c-0.33,0.039-0.566,0.339-0.529,0.67c0.039,0.331,0.34,0.567,0.67,0.528
					c0.066-0.007,0.127-0.025,0.184-0.052l0.451,0.234c-0.25,0.554-0.432,1.139-0.539,1.743l0.748,0.132
					c0.229-1.306,0.85-2.507,1.791-3.473L260.103,467.15z"/>
				<path id="XMLID_345_" style="fill:#A5B7C6;" d="M265.592,464.849c-0.172,0-0.342,0.006-0.51,0.017l-0.074-0.626
					c0.188-0.149,0.297-0.389,0.266-0.645c-0.045-0.393-0.402-0.674-0.795-0.628c-0.393,0.046-0.674,0.402-0.627,0.796
					c0.029,0.254,0.189,0.461,0.404,0.564l0.072,0.624c-0.713,0.116-1.402,0.332-2.059,0.646l0.326,0.685
					c0.936-0.447,1.941-0.674,2.996-0.674c0.496,0,0.992,0.053,1.475,0.158l0.16-0.741
					C266.691,464.907,266.143,464.849,265.592,464.849z"/>
				<path id="XMLID_344_" style="fill:#A5B7C6;" d="M272.193,467.396c0.332-0.04,0.566-0.341,0.525-0.672
					c-0.039-0.331-0.34-0.566-0.672-0.525c-0.309,0.038-0.535,0.304-0.529,0.608l-0.416,0.363c-0.418-0.43-0.891-0.813-1.408-1.14
					l-0.404,0.642c1.135,0.715,2.021,1.727,2.564,2.925l0.69-0.313c-0.25-0.554-0.566-1.071-0.941-1.545l0.402-0.351
					C272.064,467.4,272.129,467.404,272.193,467.396z"/>
				<path id="XMLID_343_" style="fill:#A5B7C6;" d="M265.045,475.057c-0.387,0.023-0.775,0.035-1.158,0.035
					c-0.879,0-1.732-0.06-2.478-0.18c-0.391-0.062-0.846-0.154-1.27-0.292c1.047,1.861,3.068,3.125,5.389,3.125
					c2.855,0,5.262-1.916,5.949-4.503c-0.682,0.449-1.506,0.825-2.459,1.122C267.838,474.732,266.463,474.972,265.045,475.057z"/>
				<path id="XMLID_339_" style="fill:#A5B7C6;" d="M265.592,466.365c-3.352,0-6.08,2.666-6.08,5.943
					c0,0.425,0.047,0.849,0.137,1.261c0.674,0.483,2.707,0.891,5.348,0.732c2.881-0.174,5.297-0.958,6.672-2.159
					c-0.004-0.194-0.02-0.39-0.045-0.581C271.244,468.599,268.65,466.365,265.592,466.365z M263.432,472.88
					c-1.02,0-1.85-0.83-1.85-1.85c0-1.021,0.83-1.851,1.85-1.851c1.02,0,1.85,0.83,1.85,1.851
					C265.281,472.05,264.451,472.88,263.432,472.88z M268.17,471.972c-0.75,0-1.361-0.61-1.361-1.36s0.611-1.36,1.361-1.36
					s1.359,0.61,1.359,1.36S268.92,471.972,268.17,471.972z"/>
			</g>
			<path id="XMLID_336_" style="fill:#A5B7C6;" d="M281.596,468.232c-0.295-0.116-0.807-0.309-1.383-0.238
				c-0.551,0.069-0.844,0.341-0.844,1.007v0.866h2.229v1.717h-2.229v5.455h-1.932v-5.455h-1.34v-1.717h1.34v-0.889
				c0-1.68,0.895-2.782,2.568-2.782c0.643,0,1.156,0.121,1.59,0.308V468.232z"/>
			<path id="XMLID_334_" style="fill:#A5B7C6;" d="M286.297,471.564c-0.176-0.029-0.357-0.046-0.525-0.046
				c-0.894,0-1.51,0.548-1.51,1.613v3.908h-1.932v-7.172h1.873v0.784c0.451-0.673,1.139-0.977,2.02-0.977
				c0.414,0,0.848,0.128,1.096,0.337L286.297,471.564z"/>
			<path id="XMLID_331_" style="fill:#A5B7C6;" d="M293.965,473.442c0,0.222-0.016,0.488-0.037,0.651h-5.084
				c0.207,1.036,0.932,1.487,1.842,1.487c0.623,0,1.295-0.252,1.815-0.688l1.133,1.243c-0.814,0.748-1.852,1.089-3.057,1.089
				c-2.199,0-3.725-1.496-3.725-3.753c0-2.258,1.48-3.797,3.627-3.797C292.543,469.675,293.957,471.207,293.965,473.442z
				 M288.852,472.776h3.174c-0.178-0.918-0.732-1.437-1.561-1.437C289.555,471.34,289.021,471.888,288.852,472.776z"/>
			<path id="XMLID_328_" style="fill:#A5B7C6;" d="M301.619,473.442c0,0.222-0.016,0.488-0.037,0.651h-5.086
				c0.207,1.036,0.934,1.487,1.844,1.487c0.621,0,1.295-0.252,1.813-0.688l1.133,1.243c-0.814,0.748-1.85,1.089-3.057,1.089
				c-2.199,0-3.723-1.496-3.723-3.753c0-2.258,1.48-3.797,3.627-3.797C300.197,469.675,301.611,471.207,301.619,473.442z
				 M296.504,472.776h3.176c-0.178-0.918-0.734-1.437-1.563-1.437C297.207,471.34,296.674,471.888,296.504,472.776z"/>
			<path id="XMLID_325_" style="fill:#A5B7C6;" d="M309.965,473.449c0,2.154-1.496,3.775-3.473,3.775
				c-0.961,0-1.643-0.378-2.109-0.933V480h-1.924v-10.133h1.887v0.792c0.467-0.585,1.154-0.984,2.139-0.984
				C308.469,469.675,309.965,471.296,309.965,473.449z M304.287,473.449c0,1.133,0.748,1.977,1.844,1.977
				c1.139,0,1.85-0.881,1.85-1.977c0-1.095-0.711-1.976-1.85-1.976C305.035,471.474,304.287,472.317,304.287,473.449z"/>
			<path id="XMLID_322_" style="fill:#A5B7C6;" d="M313.068,467.521c0,0.696-0.541,1.229-1.236,1.229
				c-0.697,0-1.229-0.533-1.229-1.229c0-0.695,0.531-1.243,1.229-1.243C312.527,466.277,313.068,466.825,313.068,467.521z
				 M312.809,477.039h-1.932v-7.172h1.932V477.039z"/>
			<path id="XMLID_320_" style="fill:#A5B7C6;" d="M316.031,472.421l2.703-2.554h2.367l-3.479,3.375l3.502,3.797h-2.377
				l-2.717-2.901v2.901H314.1v-10.658h1.932V472.421z"/>
		</g>
		<g>
			<path style="fill:#A5B7C6;" d="M184.412,476.975v-1.055c-0.527,0.718-1.391,1.23-2.387,1.23c-1.846,0-3.15-1.406-3.15-3.706
				c0-2.256,1.289-3.721,3.15-3.721c0.951,0,1.816,0.469,2.387,1.245v-3.765h1.1v9.771H184.412z M184.412,475.056v-3.208
				c-0.395-0.615-1.244-1.143-2.123-1.143c-1.422,0-2.271,1.172-2.271,2.739c0,1.567,0.85,2.725,2.271,2.725
				C183.168,476.169,184.018,475.671,184.412,475.056z"/>
			<path style="fill:#A5B7C6;" d="M186.932,473.43c0-2.051,1.465-3.706,3.486-3.706c2.139,0,3.398,1.67,3.398,3.794v0.278h-5.727
				c0.088,1.333,1.025,2.446,2.549,2.446c0.805,0,1.625-0.322,2.182-0.894l0.527,0.718c-0.703,0.703-1.654,1.084-2.813,1.084
				C188.441,477.15,186.932,475.642,186.932,473.43z M190.404,470.632c-1.51,0-2.256,1.275-2.314,2.358h4.643
				C192.719,471.935,192.016,470.632,190.404,470.632z"/>
			<path style="fill:#A5B7C6;" d="M194.607,476.037l0.57-0.791c0.469,0.542,1.363,1.011,2.33,1.011c1.084,0,1.67-0.513,1.67-1.216
				c0-1.714-4.381-0.659-4.381-3.281c0-1.099,0.953-2.036,2.637-2.036c1.201,0,2.051,0.454,2.623,1.025l-0.514,0.762
				c-0.424-0.513-1.201-0.894-2.109-0.894c-0.967,0-1.566,0.483-1.566,1.113c0,1.553,4.379,0.527,4.379,3.281
				c0,1.187-0.951,2.139-2.783,2.139C196.307,477.15,195.324,476.799,194.607,476.037z"/>
			<path style="fill:#A5B7C6;" d="M201.477,468.156c0-0.41,0.338-0.747,0.732-0.747c0.41,0,0.748,0.337,0.748,0.747
				c0,0.41-0.338,0.732-0.748,0.732C201.814,468.889,201.477,468.566,201.477,468.156z M201.668,476.975v-7.075h1.098v7.075H201.668
				z"/>
			<path style="fill:#A5B7C6;" d="M204.582,478.791l0.557-0.82c0.586,0.703,1.289,0.967,2.299,0.967
				c1.172,0,2.271-0.571,2.271-2.124v-1.011c-0.514,0.718-1.377,1.26-2.373,1.26c-1.846,0-3.15-1.377-3.15-3.662
				c0-2.27,1.289-3.677,3.15-3.677c0.951,0,1.801,0.469,2.373,1.245v-1.069h1.098v6.87c0,2.344-1.641,3.076-3.369,3.076
				C206.236,479.846,205.416,479.61,204.582,478.791z M209.709,474.939v-3.091c-0.381-0.615-1.23-1.143-2.109-1.143
				c-1.422,0-2.27,1.128-2.27,2.695c0,1.553,0.848,2.695,2.27,2.695C208.479,476.096,209.328,475.554,209.709,474.939z"/>
			<path style="fill:#A5B7C6;" d="M217.414,476.975v-4.629c0-1.245-0.631-1.641-1.582-1.641c-0.865,0-1.686,0.527-2.096,1.099v5.171
				h-1.098v-7.075h1.098v1.025c0.498-0.586,1.465-1.201,2.52-1.201c1.48,0,2.256,0.747,2.256,2.285v4.966H217.414z"/>
			<path style="fill:#A5B7C6;" d="M219.932,473.43c0-2.051,1.465-3.706,3.486-3.706c2.139,0,3.398,1.67,3.398,3.794v0.278h-5.727
				c0.088,1.333,1.025,2.446,2.549,2.446c0.805,0,1.625-0.322,2.182-0.894l0.527,0.718c-0.703,0.703-1.654,1.084-2.813,1.084
				C221.441,477.15,219.932,475.642,219.932,473.43z M223.404,470.632c-1.51,0-2.256,1.275-2.314,2.358h4.643
				C225.719,471.935,225.016,470.632,223.404,470.632z"/>
			<path style="fill:#A5B7C6;" d="M233.35,476.975v-1.055c-0.527,0.718-1.391,1.23-2.387,1.23c-1.846,0-3.15-1.406-3.15-3.706
				c0-2.256,1.289-3.721,3.15-3.721c0.951,0,1.816,0.469,2.387,1.245v-3.765h1.1v9.771H233.35z M233.35,475.056v-3.208
				c-0.395-0.615-1.244-1.143-2.123-1.143c-1.422,0-2.271,1.172-2.271,2.739c0,1.567,0.85,2.725,2.271,2.725
				C232.105,476.169,232.955,475.671,233.35,475.056z"/>
			<path style="fill:#A5B7C6;" d="M239.691,476.975v-9.771h1.1v3.765c0.57-0.776,1.42-1.245,2.387-1.245
				c1.846,0,3.15,1.465,3.15,3.721c0,2.3-1.305,3.706-3.15,3.706c-0.996,0-1.859-0.513-2.387-1.23v1.055H239.691z M242.9,476.169
				c1.436,0,2.285-1.157,2.285-2.725c0-1.567-0.85-2.739-2.285-2.739c-0.865,0-1.729,0.527-2.109,1.143v3.208
				C241.172,475.671,242.035,476.169,242.9,476.169z"/>
			<path style="fill:#A5B7C6;" d="M247.529,478.747c0.16,0.073,0.424,0.117,0.6,0.117c0.484,0,0.807-0.161,1.055-0.747l0.469-1.069
				l-2.959-7.148h1.188l2.357,5.801l2.344-5.801h1.201l-3.545,8.511c-0.424,1.024-1.143,1.421-2.08,1.436
				c-0.234,0-0.6-0.044-0.805-0.104L247.529,478.747z"/>
		</g>
	</g>
</g>
<g id="OBJECTS">
	<ellipse style="fill:#EDF4F3;" cx="250" cy="399" rx="233" ry="18"/>
	<g>
		<path style="fill:#D5EEEB;" d="M324.72,373.533c0,16.563-13.552,30.114-30.115,30.114H55.862
			c-16.563,0-30.114-13.552-30.114-30.114V296.18c0-16.563,13.552-30.114,30.114-30.114h238.742
			c16.564,0,30.115,13.552,30.115,30.114V373.533z"/>
		<g>
			<path style="fill:#BCE2DD;" d="M294.604,388.444H55.862c-16.563,0-30.114-13.552-30.114-30.114v15.203
				c0,16.563,13.552,30.114,30.114,30.114h238.742c16.564,0,30.115-13.552,30.115-30.114V358.33
				C324.72,374.893,311.168,388.444,294.604,388.444z"/>
		</g>
	</g>
	<g>
		<path style="fill:#D36011;" d="M120.252,131.777c0,0-9.923-0.186-16.694,8.756c-6.771,8.942-1.649,21.61-4.21,25.708
			c-2.562,4.099-12.808,6.742-10.572,16.877c2.235,10.135-10.744,19.439-6.148,30.328c4.596,10.888,26.132,14.645,40.265,13.899
			c14.133-0.744,30.155-12.294,28.105-22.727c-2.049-10.433-7.474-13.786-6.625-19.002c0.849-5.217-0.828-13.6-2.504-17.698
			C140.192,163.82,148.935,134.199,120.252,131.777z"/>
		<path style="fill:#FFB89F;" d="M153.315,202.476c0,0,2.236,20.958-2.794,26.827l-5.03-2.516c0,0,1.677-13.972-1.118-24.311
			H153.315z"/>
		<path style="fill:#FFB89F;" d="M86.633,202.476c0,0-2.235,20.958,2.794,26.827l5.03-2.516c0,0-1.676-13.972,1.118-24.311H86.633z"
			/>
		<path style="fill:#FFB89F;" d="M136.684,157.385c0,11.886-7.417,21.521-16.563,21.521c-9.148,0-16.563-9.635-16.563-21.521
			c0-11.886,7.416-21.52,16.563-21.52C129.267,135.865,136.684,145.499,136.684,157.385z"/>
		<path style="fill:#FFB89F;" d="M116.165,174.625c0,0-0.983,7.043-6.225,10.155c0,0,8.681,6.716,16.872,0.983
			c0,0-1.966-6.388-2.294-11.138H116.165z"/>
		<path style="fill:#A350C4;" d="M109.94,184.78c0,0,8.893,5.042,16.872,0.983c0,0,15.291-2.744,17.852-1.078
			c5.216,3.394,10.433,22.914,10.433,22.914l-12.109,4.471l-1.677-8.011c0,0,1.118,12.854-5.402,15.09
			c0,0,0.373,28.315,5.589,44.338c0,0-34.092,3.913-47.319-6.521c0,0,6.521-20.865,7.824-37.072c0,0-7.079-8.197-4.285-16.767
			l-2.422,9.128l-11.736-5.589c0,0,5.775-21.61,10.433-23.1C98.649,182.077,109.94,184.78,109.94,184.78z"/>
		<g>
			<g>
				<path style="fill:#47C6C6;" d="M151.741,268.65c0,0-34.905-13.48-58.118-17.01c-23.216-3.528-33.147,5.493-25.708,15.847
					c7.374,10.263,58.705,16.138,83.67,11.83L151.741,268.65z"/>
				<path style="fill:#FFB89F;" d="M151.741,268.65c0,0,4.958,0.476,8.749-0.677c3.789-1.152,15.734-3.213,16.262,4.674
					c0.532,7.888-2.509,8.576-9.378,8.267c-6.868-0.312-11.678-3.472-15.79-1.597L151.741,268.65z"/>
				<path style="fill:#1D4F8C;" d="M167.087,266.871c0,0,16.318-2.525,17.698,6.271c1.378,8.795-15.646,8.61-18.2,7.722
					C166.585,280.863,180.621,275.207,167.087,266.871z"/>
			</g>
			<g>
				<path style="fill:#74CFD1;" d="M122.267,326.652c0,0-2.65-37.321,0.785-60.551c3.436-23.229,14.973-30.078,22.69-19.931
					c7.649,10.061-1.792,60.858-13.232,83.464L122.267,326.652z"/>
				<path style="fill:#FFB89F;" d="M122.267,326.652c0,0-0.998,4.88-3.212,8.165c-2.214,3.286-7.687,14.101-0.303,16.92
					c7.387,2.818,8.936,0.115,10.653-6.541c1.718-6.657,0.108-12.186,3.104-15.561L122.267,326.652z"/>
				<path style="fill:#1D4F8C;" d="M116.066,340.801c0,0-7.201,14.861,0.803,18.76c8.004,3.898,12.823-12.434,12.721-15.136
					C129.59,344.425,120.065,356.186,116.066,340.801z"/>
			</g>
		</g>
		<g>
			<g>
				<path style="fill:#485565;" d="M134.26,206.314c0,3.049-2.494,5.543-5.544,5.543h-17.193c-3.049,0-5.543-2.494-5.543-5.543
					v-25.351c0-3.049,2.494-5.544,5.543-5.544h17.193c3.049,0,5.544,2.495,5.544,5.544V206.314z"/>
				<path style="fill:#9C9C9C;" d="M134.386,207.854c0,3.076-2.516,5.593-5.592,5.593h-17.346c-3.076,0-5.592-2.517-5.592-5.593
					v-25.577c0-3.075,2.516-5.592,5.592-5.592h17.346c3.076,0,5.592,2.517,5.592,5.592V207.854z"/>
			</g>
			<path style="fill:#BFB9B8;" d="M122.893,195.42c0,1.53-1.241,2.771-2.772,2.771c-1.53,0-2.771-1.241-2.771-2.771
				c0-1.531,1.241-2.772,2.771-2.772C121.652,192.648,122.893,193.889,122.893,195.42z"/>
		</g>
		<path style="fill:#FFC7B8;" d="M108.896,188.783c-1.584-0.093-3.04,4.854-3.04,4.854s0-3.178-0.593-3.737
			c-0.593-0.559-1.937,5.508-1.937,5.508s-8.879,16.979-13.673,23.371c-4.794,6.393-1.277,11.509-1.277,11.509
			c2.227,0.905,5.294-0.689,8.852-3.835c3.559-3.147,8.5-27.61,8.5-27.61s5.403-3.633,5.775-5.206
			C111.875,192.064,110.479,188.876,108.896,188.783z"/>
		<path style="fill:#FFC7B8;" d="M131.053,188.783c1.583-0.093,3.04,4.854,3.04,4.854s0-3.178,0.593-3.737
			c0.593-0.559,1.937,5.508,1.937,5.508s8.879,16.979,13.673,23.371c4.794,6.393,1.276,11.509,1.276,11.509
			c-2.227,0.905-5.294-0.689-8.853-3.835c-3.559-3.147-8.5-27.61-8.5-27.61s-5.403-3.633-5.775-5.206
			C128.073,192.064,129.469,188.876,131.053,188.783z"/>
		<path style="fill:#D36011;" d="M114.856,147.799c0,0,1.677,5.961,9.129,8.196c7.452,2.236,10.755,5.332,11.432,9.652
			c0,0,5.521-7.789,3.099-16.545c-2.422-8.756-10.101-16.766-20.141-15.276c-10.039,1.49-23.4,15.577-13.553,31.82
			c0,0,5.231-2.4,5.117-8.262C109.827,151.524,114.856,147.799,114.856,147.799z"/>
	</g>
	<g>
		<g>
			<path style="fill:#1D4F8C;" d="M317.997,341.098l13.391,2.765c0,0,17.006,10.061,17.98,13.96l-0.324,1.576l-32.579-6.723
				C316.465,352.676,314.901,344.155,317.997,341.098z"/>
			<polygon style="fill:#D5EEEB;" points="315.983,354.902 348.581,361.629 349.044,359.398 316.446,352.673 			"/>
		</g>
		<g>
			<g>
				<path style="fill:#A0BCB8;" d="M282.948,158.334c0,0,2.108,0.066,2.989,0.721c1.188,0.882,2.873,3.181,2.446,4.489
					c-0.431,1.3-6.471,15.475-8.146,16.479c-1.685,0.984-1.626-0.339-1.626-0.339L282.948,158.334z"/>
				<g>
					<path style="fill:#A2EDE2;" d="M278.612,179.684c0,0,7.165-12.828,7.716-15.667c0.538-2.864-2.184-5.79-3.38-5.682
						c-1.193,0.113-6.706,13.701-6.921,14.91C275.81,174.448,276.862,179.569,278.612,179.684z"/>
					<g>
						<defs>
							<path id="SVGID_1_" d="M278.612,179.684c0,0,7.165-12.828,7.716-15.667c0.538-2.864-2.184-5.79-3.38-5.682
								c-1.193,0.113-6.706,13.701-6.921,14.91C275.81,174.448,276.862,179.569,278.612,179.684z"/>
						</defs>
						<clipPath id="SVGID_00000174593380158599662500000016108068853564467129_">
							<use xlink:href="#SVGID_1_"  style="overflow:visible;"/>
						</clipPath>
						<g style="opacity:0.4;clip-path:url(#SVGID_00000174593380158599662500000016108068853564467129_);">
							<path style="fill:#CCFFF6;" d="M277.155,164.75c0,0,11.93-4.25,13.096-3.75c1.166,0.5-0.667,2.667-0.667,2.667
								s-12.919,3.583-13.668,3.083C275.167,166.25,277.155,164.75,277.155,164.75z"/>
							<path style="fill:#CCFFF6;" d="M275.565,169.231c0,0,11.65-3.664,12.839-3.461c1.189,0.202-0.519,1.691-0.519,1.691
								s-12.672,3.344-13.445,3.105C273.667,170.326,275.565,169.231,275.565,169.231z"/>
							<path style="fill:#CCFFF6;" d="M273.793,175.427c0,0,11.93-4.25,13.096-3.75c1.166,0.5-0.667,2.667-0.667,2.667
								s-12.919,3.583-13.668,3.083C271.805,176.927,273.793,175.427,273.793,175.427z"/>
						</g>
					</g>
				</g>
			</g>
			<g>
				<path style="fill:#8DC7DF;" d="M221.706,242.08c0,0-9.143,24.665,12.857,27.1c0,0,59-1.565,66.5,1.685s13.19,48.25,14.22,75.5
					l16.28-2c0,0-6.5-74.518-13.75-85.509c0,0-8.107-9.81-58.554-16.775H221.706z"/>
				<g>
					<path style="fill:#6CBFD8;" d="M231.638,246.667c0.601,10.192,11.071,11.841,19.203,12.181
						c14.215,0.593,28.47,1.049,42.618,2.615c3.63,0.402,10.87,0.403,13.766,3.186c1.426,1.368,1.931,4.223,2.484,6.031
						c1.021,3.334,1.806,6.743,2.575,10.143c4.81,21.235,7.855,41.948,10.551,63.537c0.099,0.789,1.35,0.799,1.25,0
						c-2.61-20.895-5.669-40.798-10.054-61.402c-1.19-5.593-2.294-11.529-4.577-16.807c-1.315-3.038-3.304-3.72-6.449-4.459
						c-12.999-3.056-27.05-2.994-40.321-3.596c-9.287-0.422-29.005,2.004-29.796-11.429
						C232.841,245.866,231.59,245.861,231.638,246.667L231.638,246.667z"/>
				</g>
			</g>
			<g>
				<path style="fill:#EFAF84;" d="M269.297,173.864c0,0,6.978-7.228,7.809-6.114c0.831,1.114-2.544,4.687-2.544,4.687
					s1.75,5.052,1,7.677s-7.503,3.677-7.503,3.677L269.297,173.864z"/>
				<polygon style="fill:#3070AA;" points="249.813,184.364 269.297,172.438 270.771,186.289 253.813,196.239 				"/>
			</g>
			<g>
				<path style="fill:#F8C7A2;" d="M243.745,160.542l0.946,16.932c0,0-9.175-3.233-12.429-7.795l2.847-11.653L243.745,160.542z"/>
				<g>
					<path style="fill:#F8C7A2;" d="M252.849,124.51c0,0,13.012,3.756,10.847,15.006c-1.563,8.143-4.279,12.57-5.076,17.232
						c-0.795,4.661-7.101,14.33-17.953,9.118c-10.854-5.217-15.98-14.219-10.936-27.422
						C234.773,125.234,243.54,120.906,252.849,124.51z"/>
					<path style="fill:#C49D45;" d="M246.84,132.602c0,0,16.834,5.727,21.246,2.995c4.412-2.733-3.601-12.691-18.028-13.915
						c0,0-11.899-5.026-18.42,3.302c-6.517,8.328-8.44,27.54,0.011,34.071c0,0,5.793-6.942,7.042-11.182c0,0-4.43-3.59-1.311-5.849
						c3.124-2.261,3.32,2.022,3.32,2.022S244.852,134.128,246.84,132.602z"/>
				</g>
				<path style="fill:#1D4F8C;" d="M244.591,175.669l-11.958-7.509c0,0-9.243,3.21-10.926,12.968
					c-1.688,9.752-1.618,16.917-1.885,45.986c-0.072,7.844,0,18.25,0,18.25s29.646,1.633,41.225-4.015
					C261.047,241.35,263.939,188.133,244.591,175.669z"/>
			</g>
			<g>
				<path style="fill:#F8C7A2;" d="M271.795,180.34c0,0,3.879-8.248,4.842-7.892c0.961,0.355,0.289,4.444,0.289,4.444
					s5.297-5.416,6.967-4.456c1.67,0.96,0.461,8.244-1.268,9.438c-1.738,1.19-2.953,4.414-2.953,4.414L271.795,180.34z"/>
				<path style="fill:#3A77B8;" d="M257.607,202.102c0,0-21.209-26.718-24.915-28.463c-3.704-1.743-10.805,0.821-10.986,7.489
					c-0.179,6.666,30.53,41.439,35.157,42.323c4.627,0.879,24.629-31.146,27.029-36.825l-11.105-11.116L257.607,202.102z"/>
			</g>
		</g>
	</g>
	<g>
		<path style="fill:#FFB89F;" d="M388.153,203.528c0,0-2.863,9.306-2.092,10.639c0.772,1.333,19.561,5.91,23.583,10.455h-17.872
			c0,0-12.772-2.122-15.272-4.955c-2.5-2.834,2.563-20.466,2.563-20.466L388.153,203.528z"/>
		<path style="fill:#FFB89F;" d="M438.242,203.528c0,0,2.863,9.306,2.092,10.639c-0.772,1.333-19.562,5.91-23.583,10.455h17.872
			c0,0,12.772-2.122,15.272-4.955c2.5-2.834-2.563-20.466-2.563-20.466L438.242,203.528z"/>
		<path style="fill:#944342;" d="M396.682,140.989c0,0-1.523,9.931-5.102,16.346C388,163.75,380.5,173.5,393,184
			s26.917,5.859,34.75,1.564c7.833-4.295,11.25-11.814,10-16.814s-4.344-24.865-8.506-31.603L396.682,140.989z"/>
		<g>
			<g>
				<path style="fill:#3B8EBA;" d="M430.552,245.802c0,0,9.841,31.109,2.026,63.443c0,0,5.498,38.666-2.026,66.334
					c0,0,5.21,20.666-3.184,22.666c-8.394,2-3.184-23.666-3.184-23.666s-8.105-42.666-3.763-63c0,0-13.894-34.474-10.131-66.071
					L430.552,245.802z"/>
				<path style="fill:#FFB89F;" d="M430.552,375.579c0,0,5.21,20.666-3.184,22.666c-8.017,1.91-3.629-21.395-3.217-23.498h6.617
					C430.697,375.024,430.626,375.306,430.552,375.579z"/>
				<path style="fill:#1C2A51;" d="M431.986,384.376c0,0-1.688,6.119-5.16,6.119c-3.474,0-3.908-6.625-3.908-6.625
					s-3.148,16.875,3.039,16.875C432.145,400.745,433.674,390.507,431.986,384.376z"/>
				<g>
					<path style="fill:#3B8EBA;" d="M392.297,245.802c0,0-9.841,31.109-2.025,63.443c0,0-5.5,38.666,2.025,66.334
						c0,0-5.21,20.666,3.184,22.666c8.393,2,3.184-23.666,3.184-23.666s8.104-42.666,3.763-63c0,0,13.893-34.474,10.131-66.071
						L392.297,245.802z"/>
					<path style="fill:#FFB89F;" d="M392.297,375.579c0,0-5.21,20.666,3.184,22.666c8.017,1.91,3.629-21.395,3.217-23.498h-6.617
						C392.152,375.024,392.223,375.306,392.297,375.579z"/>
					<path style="fill:#1C2A51;" d="M390.862,384.376c0,0,1.688,6.119,5.16,6.119c3.474,0,3.907-6.625,3.907-6.625
						s3.148,16.875-3.039,16.875C390.705,400.745,389.174,390.507,390.862,384.376z"/>
				</g>
			</g>
			<g>
				<path style="fill:#FFB89F;" d="M430.653,149.186c0,11.887-7.417,21.521-16.563,21.521c-9.148,0-16.564-9.635-16.564-21.521
					c0-11.886,7.415-21.52,16.564-21.52C423.236,127.666,430.653,137.3,430.653,149.186z"/>
				<path style="fill:#FFB89F;" d="M410.134,166.427c0,0-0.982,7.043-6.225,10.154c0,0,8.682,6.717,16.872,0.983
					c0,0-1.966-6.388-2.294-11.138H410.134z"/>
				<path style="fill:#FFCC45;" d="M403.909,176.581c0,0,8.893,5.042,16.872,0.983c0,0,15.29,3.256,17.853,4.923
					c5.216,3.394,10.432,16.914,10.432,16.914l-12.109,4.471l-1.676-8.011c0,0,1.117,12.855-5.402,15.09
					c0,0,0.373,24.315,5.588,40.338c0,0-34.092,7.913-47.318-2.52c0,0,6.521-20.865,7.824-37.072c0,0-7.079-8.197-4.285-16.767
					l-2.422,9.128l-11.736-5.588c0,0,5.775-15.61,10.434-17.101C392.618,179.878,403.909,176.581,403.909,176.581z"/>
			</g>
		</g>
		<g>
			<path style="fill:#D5EEEB;" d="M465.783,373.533c0,16.563-13.552,30.114-30.115,30.114h-44.742
				c-16.563,0-30.114-13.552-30.114-30.114V257.18c0-16.562,13.552-30.114,30.114-30.114h44.742
				c16.563,0,30.115,13.552,30.115,30.114V373.533z"/>
			<g>
				<path style="fill:#BCE2DD;" d="M435.668,382.877h-44.742c-16.563,0-30.114-13.552-30.114-30.114v20.771
					c0,16.563,13.552,30.114,30.114,30.114h44.742c16.563,0,30.115-13.552,30.115-30.114v-20.771
					C465.783,369.325,452.231,382.877,435.668,382.877z"/>
			</g>
		</g>
		<path style="fill:#944342;" d="M396.167,147.833c0,0,14.094-2.333,17.13-7.333c0,0,11.703,11.501,18.703,11.333
			c0,0,0.427-26.333-18.703-26.333C396.123,125.5,396.214,143.78,396.167,147.833z"/>
		<g>
			<path style="fill:#3072B5;" d="M413.066,126.728c-0.807,0-1.631,0.043-2.45,0.128c-9.046,0.935-16.251,8.993-16.758,18.744
				c-0.017,0.306,0.083,0.588,0.278,0.794c0.202,0.212,0.498,0.334,0.813,0.334c0,0,0,0,0.001,0c0.547,0,1.119-0.37,1.156-1.077
				c0.464-8.904,7.033-15.768,15.977-16.691c0.607-0.063,1.22-0.095,1.819-0.095c8.924,0,16.365,7.146,17.694,16.993
				c0.071,0.53,0.471,0.887,0.993,0.887c0.348,0,0.693-0.159,0.927-0.425c0.224-0.256,0.322-0.586,0.275-0.927
				C432.285,134.229,423.956,126.728,413.066,126.728z"/>
			<g>
				<g>
					<path style="fill:#1D4F8C;" d="M394.735,142.846c0,0,0.954,9.539,0,13.672l3.374,0.636c0,0,1.257-11.128,0.531-14.308H394.735z
						"/>
					<path style="fill:#3072B5;" d="M394.735,142.846c0,0-9.062,6.2,0,13.672C394.735,156.518,397.438,148.41,394.735,142.846z"/>
				</g>
				<g>
					<path style="fill:#1D4F8C;" d="M433.834,142.846c0,0-0.954,9.539,0,13.672l-3.373,0.636c0,0-1.258-11.128-0.532-14.308H433.834
						z"/>
					<path style="fill:#3072B5;" d="M433.834,142.846c0,0,9.061,6.2,0,13.672C433.834,156.518,431.131,148.41,433.834,142.846z"/>
				</g>
			</g>
		</g>
		<g>
			<g>
				<path style="fill:#3072B5;" d="M393.254,155.577c-1.024,5.498-0.131,11.359,2.534,16.256c2.262,4.154,6.809,6.884,10.075,10.187
					c4.744,4.795,7.192,10.477,7.602,17.181c0.398,6.502,6.379,11.84,10.932,15.807c4.064,3.542,8.532,6.75,13.149,9.534
					c0.692,0.417,1.32-0.664,0.631-1.079c-4.222-2.546-8.233-5.48-12.036-8.61c-3.095-2.548-5.997-5.368-8.413-8.574
					c-2.472-3.281-2.654-6.288-3.285-10.192c-1.386-8.575-6.603-14.321-12.974-19.847c-5.931-5.145-8.454-12.571-7.01-20.33
					C394.605,155.121,393.401,154.785,393.254,155.577L393.254,155.577z"/>
			</g>
			<g>
				<path style="fill:#3072B5;" d="M434.209,154.333c0.501,6.885-0.632,14.669-4.948,20.225
					c-4.598,5.918-11.182,10.862-17.23,15.215c-0.648,0.466-0.024,1.551,0.631,1.079c6.37-4.583,14-9.921,18.35-16.525
					c3.788-5.751,4.943-13.194,4.448-19.993C435.4,153.535,434.15,153.529,434.209,154.333L434.209,154.333z"/>
			</g>
		</g>
		<g>
			<path style="fill:#9C9C9C;" d="M391.772,224.622c0,0-1.089-31.769,1.899-32.583c2.987-0.815,45.073-0.27,45.889,1.086
				c0.815,1.357,0,31.497,0,31.497H391.772z"/>
			<rect x="382.268" y="224.622" style="fill:#485565;" width="57.655" height="2.443"/>
			<path style="fill:#BFB9B8;" d="M421.208,208.14c0,3.013-2.442,5.457-5.457,5.457c-3.015,0-5.457-2.444-5.457-5.457
				c0-3.015,2.442-5.458,5.457-5.458C418.766,202.682,421.208,205.126,421.208,208.14z"/>
		</g>
	</g>
	<g>
		<g>
			<path style="fill:#5AA8E2;" d="M315.571,91.669c-14.476,0-28.209,13.203-28.209,25.789c0,8.08,6.84,15.172,14.132,19.219
				c-1.53,2.485-3.991,5.593-7.802,8.286c0,0,9.704-2.113,21.879-4.716c14.474,0,29.207-10.203,29.207-22.789
				C344.778,104.872,330.045,91.669,315.571,91.669z"/>
			<path style="fill:#FFFFFF;" d="M303.636,119.117c0,0-0.359-6.595,1.636-6.942c1.996-0.347,5.392-0.466,5.256,1.416
				c0,0,2.901-1.045,3.379-3.27c0.477-2.224-1.223-5.983,0-6.303c1.222-0.32,5.938,3.487,3.988,7.861c0,0,9.014-0.737,9.145,0.91
				c0.203,2.561-2.764,2.77-2.764,2.77s3.147-0.297,2.967,1.555c-0.181,1.852-2.88,2.002-2.88,2.002s2.888-0.267,2.878,2.169
				c-0.011,2.423-3.398,1.475-3.398,1.475s3.408,0.166,3.206,2.516c-0.144,1.663-2.946,1.393-5.549,1.393
				c-2.604,0-8.181,0.429-10.685-2c0,0,0.099,1.564-2.157,1.564C306.4,126.233,303.611,127.968,303.636,119.117z"/>
		</g>
	</g>
	<g>
		<g>
			<g>
				<path style="fill:#FFCC45;" d="M85.509,97.467c1.352,2.926,0.076,6.393-2.851,7.745c-2.925,1.351-6.392,0.075-7.744-2.851
					c-1.351-2.926-0.076-6.393,2.85-7.744C80.69,93.265,84.158,94.541,85.509,97.467z"/>
			</g>
		</g>
		<g>
			<path style="fill:#FFCC45;" d="M70.455,99.459c0.57-8.407,8.653-13.1,15.752-8.011c2.589,1.856,7.925-1.191,4.589-3.582
				c-10.826-7.761-25.968-2.147-26.907,11.695C63.667,102.831,70.229,102.78,70.455,99.459L70.455,99.459z"/>
		</g>
		<g>
			<path style="fill:#FFCC45;" d="M60.831,95.602c0.394-6.293,3.682-13.044,9.195-16.289c6.01-3.538,14.098-1.596,19.483,2.308
				c2.581,1.871,7.914-1.173,4.588-3.582c-7.264-5.265-16.799-6.907-25.261-3.974c-8.742,3.029-14.018,12.8-14.572,21.64
				C54.06,98.979,60.623,98.925,60.831,95.602L60.831,95.602z"/>
		</g>
	</g>
	<path style="fill:#74CFD1;" d="M188.191,148.821c-1.405-2.35-6.146-3.543-8.496-2.139c-0.477,0.285-0.84,0.702-1.139,1.172
		c-0.441-0.2-0.883-0.395-1.321-0.596c-2.085-0.957-4.669-1.935-6.934-3.203c0.159-0.486,0.267-0.995,0.267-1.534
		c0-1.041-0.322-2.184-0.87-3.203c2.25-1.508,5.449-3.502,8.125-5.131c1.555,1.706,4.145,2.141,6.202,0.911
		c2.35-1.405,4.179-5.084,2.773-7.434c-1.405-2.35-6.145-3.543-8.495-2.139c-1.893,1.132-2.327,4.005-1.697,6.313
		c-1.658,0.955-3.305,1.93-4.937,2.929c-0.826,0.506-2.378,1.309-3.93,2.281c-0.646-0.447-1.367-0.722-2.129-0.722
		c-2.738,0-6.195,3.457-6.195,6.195c0,2.738,3.457,4.958,6.195,4.958c1.073,0,2.063-0.35,2.874-0.931
		c1.35,0.624,2.604,1.12,3.254,1.437c1.979,0.967,3.983,1.886,5.998,2.783c-0.041,1.345,0.259,2.732,0.882,3.775
		c1.404,2.35,4.449,3.116,6.798,1.711C187.766,154.85,189.596,151.171,188.191,148.821z"/>
	<g>
		<path style="fill:#FFCC45;" d="M275.362,87.3c0,9.376-8.648,16.976-18.023,16.976c-9.377,0-18.025-6.552-18.025-15.927
			c0-9.376,8.648-18.024,18.025-18.024C266.714,70.324,275.362,77.924,275.362,87.3z"/>
		<g>
			<path style="fill:#A35B36;" d="M250.477,84.855c0,1.779-0.875,3.221-1.952,3.221c-1.078,0-1.952-1.442-1.952-3.221
				c0-1.779,0.874-3.221,1.952-3.221C249.602,81.634,250.477,83.076,250.477,84.855z"/>
			<path style="fill:#A35B36;" d="M267.835,84.855c0,1.779-0.875,3.221-1.952,3.221c-1.078,0-1.952-1.442-1.952-3.221
				c0-1.779,0.874-3.221,1.952-3.221C266.96,81.634,267.835,83.076,267.835,84.855z"/>
		</g>
		<path style="fill:#A35B36;" d="M250.477,91.438c0,0,1.447,5.29,6.86,5.29c5.414,0,6.594-5.29,6.594-5.29
			S258.606,89.17,250.477,91.438z"/>
	</g>
	<g>
		<path style="fill:#74CFD1;" d="M457.62,130.719c0,0-2.659-10.244-10.944-7.873c-8.285,2.371-12.173,1.171-17.579-16.755
			c-5.408-17.927-6.326-29.681,10.361-33.538c16.688-3.858,25.418,14.754,27.737,32.431
			C469.516,122.661,457.62,130.719,457.62,130.719z"/>
		<path style="fill:#FFFFFF;" d="M457.507,100.5c-0.056-0.064-0.131-0.107-0.195-0.162c0-0.001,0-0.002,0-0.003
			c-0.794-3.278-2.032-6.42-3.673-9.365c-0.909-1.632-2.746-4.635-4.985-4.578c-4.414,0.113-9.059,3.965-12.505,6.429
			c-0.411,0.293-0.916,1.041-0.383,1.46c3.046,2.392,4.526,6.568,5.301,10.435c-0.715,0.219-1.459,0.627-2.134,1.22
			c-1.737,1.527-2.353,3.666-1.374,4.776c0.977,1.112,3.175,0.774,4.911-0.752c1.451-1.276,2.104-2.97,1.715-4.144
			c-0.002-0.022,0.004-0.044,0.001-0.066c-0.647-4.367-2.045-9.502-5.353-12.641c0.778-0.528,1.563-1.047,2.357-1.55
			c1.461-0.926,4.52-3.364,6.355-2.985c1.972,0.407,3.451,3.79,4.262,5.353c1.033,1.99,1.834,4.125,2.436,6.291
			c-0.561,0.237-1.126,0.574-1.648,1.035c-1.736,1.527-2.351,3.666-1.373,4.776c0.976,1.112,3.176,0.774,4.912-0.753
			C457.87,103.748,458.484,101.611,457.507,100.5z"/>
	</g>
	<g>
		<g>
			<path style="fill:#FFCC45;" d="M404.414,87.3c0,12.144-11.202,21.988-23.346,21.988c-12.146,0-23.348-8.486-23.348-20.629
				c0-12.144,11.202-23.347,23.348-23.347C393.212,65.312,404.414,75.156,404.414,87.3z"/>
		</g>
		<path style="fill:#FFFFFF;" d="M380.893,83.183c0,0-4.982-9.186-11.511-4.9c-6.528,4.287,1.241,21.216,10.876,24.409
			c0,0,12.203-6.846,14.366-14.565C397.179,79.007,386.802,76.544,380.893,83.183z"/>
	</g>
	<g>
		<g>
			<g>
				<path style="fill:#5AA8E2;" d="M55.226,118.315c9.997,0,19.482,9.118,19.482,17.811c0,5.58-4.724,16.275-9.76,19.069
					c1.057,1.717,2.757,3.863,5.388,5.723c0,0-6.702-1.459-15.111-3.257c-9.996,0-20.171-12.843-20.171-21.535
					C35.055,127.434,45.23,118.315,55.226,118.315z"/>
			</g>
		</g>
		<g>
			<g>
				<path style="fill:#FFFFFF;" d="M58.677,132.919c0,2.072-1.68,3.752-3.752,3.752c-2.073,0-3.753-1.68-3.753-3.752
					c0-2.073,1.68-3.753,3.753-3.753C56.997,129.166,58.677,130.846,58.677,132.919z"/>
				<path style="fill:#FFFFFF;" d="M46.982,143.619c0,0,2.977-6.614,8.599-6.614c5.623,0,7.441,5.622,7.276,6.614
					C62.691,144.611,47.809,146.099,46.982,143.619z"/>
			</g>
		</g>
	</g>
	<g>
		<path style="fill:#5AA8E2;" d="M125.267,116.665c0,0-6-44.31,0-46.364c6-2.054,75.623-9.946,78.812,0
			c3.188,9.946,2.383,27.978-6.214,30.295c-8.597,2.317-51.46-0.626-57.029,3.179C135.267,107.58,128.6,119.082,125.267,116.665z"/>
		<g>
			<path style="fill:#FFFFFF;" d="M128.655,76.965c9.74-1.021,19.507-1.827,29.278-2.493c7.717-0.526,15.448-0.918,23.183-1.016
				c5.403-0.069,11.628-0.492,16.839,1.228c0.84,0.277,3.466-0.978,2.318-1.356c-4.758-1.569-10.176-1.417-15.121-1.448
				c-8.091-0.05-16.19,0.397-24.262,0.909c-10.619,0.672-21.233,1.551-31.816,2.66C127.698,75.592,126.639,77.176,128.655,76.965
				L128.655,76.965z"/>
		</g>
		<g>
			<path style="fill:#FFFFFF;" d="M128.655,86.786c9.74-1.021,19.507-1.827,29.278-2.493c7.717-0.526,15.448-0.919,23.183-1.016
				c5.403-0.069,11.628-0.492,16.839,1.228c0.84,0.277,3.466-0.978,2.318-1.356c-4.758-1.569-10.176-1.417-15.121-1.448
				c-8.091-0.05-16.19,0.397-24.262,0.909c-10.619,0.672-21.233,1.551-31.816,2.66C127.698,85.414,126.639,86.998,128.655,86.786
				L128.655,86.786z"/>
		</g>
		<g>
			<path style="fill:#FFFFFF;" d="M128.655,96.813c9.74-1.021,19.507-1.827,29.278-2.493c7.717-0.526,15.448-0.918,23.183-1.016
				c5.403-0.069,11.628-0.492,16.839,1.228c0.84,0.277,3.466-0.978,2.318-1.357c-4.758-1.569-10.176-1.417-15.121-1.448
				c-8.091-0.05-16.19,0.397-24.262,0.909c-10.619,0.672-21.233,1.551-31.816,2.66C127.698,95.44,126.639,97.024,128.655,96.813
				L128.655,96.813z"/>
		</g>
	</g>
	<g>
		<g>
			<path style="fill:#FFCC45;" d="M190.692,193.637c0,7.22-6.66,13.073-13.879,13.073c-7.221,0-13.881-5.045-13.881-12.265
				c0-7.22,6.66-13.88,13.881-13.88C184.033,180.565,190.692,186.417,190.692,193.637z"/>
		</g>
		<path style="fill:#FFFFFF;" d="M176.708,191.189c0,0-2.962-5.461-6.843-2.913c-3.881,2.548,0.738,12.614,6.466,14.512
			c0,0,7.255-4.07,8.541-8.659C186.391,188.707,180.221,187.243,176.708,191.189z"/>
	</g>
	<g>
		<g>
			<path style="fill:#FFCC45;" d="M381.067,142.846c0,5.112-4.716,9.256-9.827,9.256c-5.113,0-9.828-3.572-9.828-8.684
				c0-5.112,4.715-9.828,9.828-9.828C376.352,133.591,381.067,137.734,381.067,142.846z"/>
		</g>
		<path style="fill:#FFFFFF;" d="M371.166,141.113c0,0-2.098-3.867-4.846-2.063c-2.748,1.804,0.523,8.931,4.578,10.274
			c0,0,5.137-2.881,6.048-6.131C378.021,139.355,373.653,138.319,371.166,141.113z"/>
	</g>
	<g>
		<g>
			<path style="fill:#FFCC45;" d="M313.439,191.656c0,5.112-4.716,9.256-9.827,9.256c-5.113,0-9.828-3.572-9.828-8.684
				c0-5.112,4.715-9.828,9.828-9.828C308.723,182.401,313.439,186.544,313.439,191.656z"/>
		</g>
		<path style="fill:#FFFFFF;" d="M303.537,189.923c0,0-2.098-3.867-4.846-2.063c-2.748,1.804,0.523,8.931,4.578,10.275
			c0,0,5.137-2.881,6.048-6.131C310.393,188.165,306.024,187.129,303.537,189.923z"/>
	</g>
	<g>
		<g>
			<path style="fill:#74CFD1;" d="M333.716,169.881c0,0-3.43,20.052,0.674,22.466c4.104,2.414,27.872,3.192,30.18,0
				c2.308-3.192,0.495-20.013,0-22.466c-0.495-2.453-15.213,11.263-16.965,12.289C345.852,183.197,333.716,169.881,333.716,169.881z
				"/>
			<path style="fill:#37B7B3;" d="M333.716,169.881c0,0,7.109,14.017,12.427,13.666c5.316-0.351,18.427-13.959,18.427-13.959
				S339.452,166.376,333.716,169.881z"/>
		</g>
		<g>
			<path style="fill:#37B7B3;" d="M335.339,189.773c2.159-2.188,9.915-11.445,13.141-9.731c4.64,2.465,8.555,7.18,12.138,10.964
				c0.685,0.724,2.854-0.187,2.096-0.988c-3.622-3.826-9.013-10.968-14.442-12.001c-2.467-0.469-5.704,2.807-7.312,4.139
				c-2.633,2.179-5.119,4.562-7.519,6.993C332.439,190.162,334.655,190.465,335.339,189.773L335.339,189.773z"/>
		</g>
	</g>
</g>
</svg>
