<svg width="500" height="373" viewBox="0 0 500 373" fill="none" xmlns="http://www.w3.org/2000/svg">
<path d="M449.901 343.542H416.779V343.792H449.901V343.542Z" fill="#EBEBEB"/>
<path d="M331.22 346.256H322.527V346.506H331.22V346.256Z" fill="#EBEBEB"/>
<path d="M415.778 334.256H396.586V334.506H415.778V334.256Z" fill="#EBEBEB"/>
<path d="M95.652 335.936H52.459V336.186H95.652V335.936Z" fill="#EBEBEB"/>
<path d="M110.889 335.936H104.556V336.186H110.889V335.936Z" fill="#EBEBEB"/>
<path d="M225.147 340.159H131.471V340.409H225.147V340.159Z" fill="#EBEBEB"/>
<path d="M238.401 282.848H45.302C42.155 282.848 39.594 280.287 39.594 277.14V5.708C39.594 2.561 42.155 0 45.302 0H238.401C241.547 0 244.108 2.561 244.108 5.708V277.14C244.108 280.287 241.547 282.848 238.401 282.848ZM45.302 0.250999C42.292 0.250999 39.844 2.699 39.844 5.709V277.141C39.844 280.151 42.292 282.599 45.302 282.599H238.401C241.41 282.599 243.858 280.151 243.858 277.141V5.708C243.858 2.699 241.41 0.25 238.401 0.25L45.302 0.250999Z" fill="#EBEBEB"/>
<path d="M454.698 282.848H261.599C258.453 282.848 255.892 280.287 255.892 277.14V5.708C255.892 2.561 258.453 0 261.599 0H454.698C457.846 0 460.406 2.561 460.406 5.708V277.14C460.406 280.287 457.845 282.848 454.698 282.848ZM261.599 0.250999C258.59 0.250999 256.142 2.699 256.142 5.709V277.141C256.142 280.151 258.59 282.599 261.599 282.599H454.698C457.708 282.599 460.156 280.151 460.156 277.141V5.708C460.156 2.699 457.708 0.25 454.698 0.25L261.599 0.250999Z" fill="#EBEBEB"/>
<path d="M500 327.446H0V327.696H500V327.446Z" fill="#EBEBEB"/>
<path d="M124.447 178.614L122.092 179.102C120.981 179.332 120.217 180.432 120.389 181.556L122.069 192.54C122.241 193.664 123.284 194.389 124.395 194.159L126.75 193.672C127.861 193.442 128.624 192.343 128.452 191.219L126.772 180.235C126.6 179.11 125.557 178.384 124.447 178.614Z" fill="#E6E6E6"/>
<path d="M124.447 178.614L122.092 179.102C120.981 179.332 120.217 180.432 120.389 181.556L122.069 192.54C122.241 193.664 123.284 194.389 124.395 194.159L126.75 193.672C127.861 193.442 128.624 192.343 128.452 191.219L126.772 180.235C126.6 179.11 125.557 178.384 124.447 178.614Z" fill="#E6E6E6"/>
<path d="M131.536 193.128C130.949 193.128 130.381 192.952 129.893 192.613C129.236 192.156 128.807 191.46 128.683 190.652L127.112 180.38C126.989 179.573 127.127 178.724 127.502 177.987L130.71 171.612L129.98 166.834L133.183 166.171C134.612 165.876 135.98 166.662 136.434 168.041L137.35 170.827C137.51 171.309 137.541 171.836 137.438 172.35L136.796 175.546L143.193 174.222L145.517 176.316L145.35 186.39C145.339 187.01 145.166 187.622 144.851 188.16L144.16 189.345C143.637 190.237 142.773 190.865 141.789 191.068L132.149 193.064C131.943 193.108 131.738 193.128 131.536 193.128ZM131.111 167.623L131.747 171.778L128.394 178.44C128.112 178.994 128.008 179.629 128.1 180.231L129.671 190.502C129.753 191.035 130.034 191.493 130.464 191.792C130.894 192.09 131.421 192.192 131.947 192.086L141.587 190.09C142.295 189.943 142.918 189.488 143.297 188.841L143.988 187.656C144.218 187.265 144.343 186.822 144.35 186.374L144.51 176.755L142.901 175.305L135.518 176.833L136.457 172.155C136.525 171.812 136.506 171.462 136.399 171.142L135.482 168.355C135.189 167.466 134.307 166.958 133.383 167.151L131.111 167.623Z" fill="#E6E6E6"/>
<path d="M133.339 70.991L130.99 70.476C129.882 70.233 128.735 70.925 128.434 72.022L125.488 82.736C125.186 83.832 125.843 84.92 126.951 85.163L129.3 85.678C130.408 85.921 131.553 85.229 131.854 84.132L134.8 73.418C135.103 72.322 134.447 71.234 133.339 70.991Z" fill="#E6E6E6"/>
<path d="M133.339 70.991L130.99 70.476C129.882 70.233 128.735 70.925 128.434 72.022L125.488 82.736C125.186 83.832 125.843 84.92 126.951 85.163L129.3 85.678C130.408 85.921 131.553 85.229 131.854 84.132L134.8 73.418C135.103 72.322 134.447 71.234 133.339 70.991Z" fill="#E6E6E6"/>
<path d="M144.84 89.516C144.591 89.516 144.341 89.49 144.094 89.435L134.477 87.325C133.681 87.151 133.015 86.678 132.601 85.993C132.188 85.308 132.079 84.497 132.296 83.709L135.05 73.691C135.266 72.904 135.739 72.184 136.382 71.665L141.911 67.152L143.192 62.492L146.387 63.193C147.812 63.506 148.74 64.781 148.593 66.226L148.294 69.143C148.243 69.649 148.056 70.143 147.753 70.57L145.864 73.226L152.246 74.626L153.514 77.485L149.252 86.615C148.989 87.178 148.582 87.666 148.074 88.028L146.96 88.827C146.333 89.279 145.587 89.516 144.84 89.516ZM143.907 63.673L142.793 67.726L137.015 72.441C136.532 72.832 136.178 73.369 136.016 73.956L133.262 83.974C133.119 84.495 133.189 85.028 133.459 85.476C133.729 85.923 134.167 86.233 134.692 86.348L144.309 88.458C145.016 88.611 145.77 88.451 146.38 88.015L147.495 87.215C147.864 86.952 148.158 86.599 148.348 86.192L152.417 77.474L151.539 75.494L144.175 73.878L146.941 69.99C147.144 69.704 147.269 69.376 147.302 69.041L147.601 66.123C147.696 65.193 147.097 64.371 146.176 64.168L143.907 63.673Z" fill="#E6E6E6"/>
<path d="M84.603 124.458L82.198 124.48C81.064 124.49 80.101 125.421 80.052 126.557L79.572 137.659C79.523 138.795 80.406 139.709 81.54 139.698L83.945 139.676C85.079 139.666 86.041 138.735 86.09 137.599L86.571 126.497C86.618 125.362 85.737 124.448 84.603 124.458Z" fill="#E6E6E6"/>
<path d="M84.603 124.458L82.198 124.48C81.064 124.49 80.101 125.421 80.052 126.557L79.572 137.659C79.523 138.795 80.406 139.709 81.54 139.698L83.945 139.676C85.079 139.666 86.041 138.735 86.09 137.599L86.571 126.497C86.618 125.362 85.737 124.448 84.603 124.458Z" fill="#E6E6E6"/>
<path d="M89.329 140.127C88.525 140.127 87.781 139.815 87.232 139.247C86.676 138.671 86.389 137.905 86.425 137.089L86.874 126.709C86.909 125.893 87.21 125.086 87.721 124.436L92.103 118.804L92.313 113.975L95.584 113.945C97.052 113.953 98.231 114.969 98.411 116.41L98.77 119.32C98.834 119.822 98.762 120.345 98.562 120.831L97.312 123.843L103.845 123.783L105.719 126.287L103.602 136.138C103.471 136.745 103.183 137.312 102.769 137.777L101.862 138.805C101.177 139.578 100.208 140.027 99.202 140.037L89.357 140.126C89.348 140.127 89.339 140.127 89.329 140.127ZM93.271 114.966L93.089 119.166L88.509 125.052C88.125 125.541 87.9 126.144 87.874 126.752L87.425 137.133C87.402 137.673 87.589 138.176 87.952 138.553C88.315 138.928 88.817 139.107 89.349 139.128L99.194 139.039C99.917 139.032 100.616 138.706 101.114 138.145L102.022 137.116C102.323 136.778 102.531 136.368 102.626 135.929L104.647 126.523L103.349 124.789L95.81 124.857L97.638 120.45C97.772 120.125 97.821 119.778 97.778 119.445L97.419 116.533C97.304 115.611 96.545 114.946 95.611 114.946C95.605 114.946 95.599 114.946 95.593 114.946L93.271 114.966Z" fill="#E6E6E6"/>
<path d="M393.972 188.482L394.522 188.271L394.803 188.163C395.155 188.049 395.504 187.906 395.847 187.738L396.07 187.647L396.047 187.637C396.467 187.415 396.876 187.153 397.267 186.848C397.753 186.469 398.182 186.048 398.552 185.597C398.643 185.487 398.729 185.375 398.812 185.261C399.668 184.097 400.153 182.767 400.224 181.463C400.232 181.314 400.233 181.166 400.23 181.018C400.208 179.843 399.845 178.708 399.106 177.761C397.259 175.393 393.708 175.007 390.78 176.705C389.992 173.413 387.264 171.108 384.276 171.402C383.081 171.519 382.008 172.038 381.142 172.833C381.033 172.933 380.927 173.036 380.824 173.144C379.929 174.094 379.299 175.362 379.046 176.785C379.021 176.924 378.999 177.063 378.982 177.205C378.911 177.784 378.901 178.385 378.962 178.999C379.01 179.493 379.102 179.97 379.231 180.427L379.211 180.418L379.288 180.614C379.406 180.997 379.55 181.364 379.719 181.713L379.827 181.971L380.055 182.516L382.304 187.883L382.532 188.428L384.138 192.262L388.005 190.776L388.555 190.565L393.972 188.482Z" fill="#EBEBEB"/>
<path d="M423.558 134.22L424.001 133.831L424.227 133.633C424.518 133.404 424.797 133.15 425.06 132.873L425.238 132.71L425.213 132.709C425.53 132.356 425.824 131.968 426.085 131.547C426.41 131.024 426.667 130.48 426.859 129.929C426.906 129.794 426.948 129.659 426.987 129.524C427.388 128.136 427.384 126.72 427 125.473C426.956 125.331 426.906 125.191 426.852 125.054C426.426 123.958 425.693 123.019 424.672 122.386C422.121 120.803 418.655 121.666 416.494 124.272C414.618 121.455 411.261 120.234 408.558 121.543C407.477 122.066 406.65 122.923 406.111 123.969C406.043 124.1 405.979 124.234 405.92 124.371C405.408 125.572 405.255 126.979 405.51 128.402C405.535 128.541 405.562 128.679 405.595 128.818C405.729 129.386 405.927 129.954 406.196 130.508C406.412 130.955 406.663 131.371 406.942 131.755L406.92 131.754L407.06 131.911C407.303 132.229 407.565 132.524 407.844 132.793L408.034 132.997L408.437 133.43L412.402 137.69L412.805 138.123L415.637 141.165L418.753 138.434L419.196 138.046L423.558 134.22Z" fill="#EBEBEB"/>
<path d="M391.471 75.899L391.736 75.373L391.871 75.104C392.055 74.783 392.217 74.443 392.358 74.087L392.462 73.869L392.438 73.877C392.6 73.431 392.726 72.962 392.81 72.473C392.915 71.866 392.949 71.265 392.92 70.683C392.913 70.541 392.901 70.4 392.887 70.26C392.738 68.823 392.202 67.512 391.379 66.5C391.285 66.384 391.186 66.274 391.085 66.167C390.279 65.311 389.247 64.716 388.063 64.512C385.104 64.002 382.215 66.103 381.19 69.328C378.394 67.421 374.824 67.549 372.809 69.776C372.003 70.667 371.558 71.772 371.451 72.942C371.437 73.089 371.428 73.237 371.425 73.386C371.401 74.691 371.788 76.053 372.557 77.276C372.632 77.395 372.71 77.513 372.792 77.63C373.129 78.107 373.526 78.558 373.983 78.971C374.351 79.304 374.74 79.595 375.142 79.847L375.121 79.854L375.31 79.947C375.655 80.151 376.008 80.326 376.368 80.47L376.621 80.588L377.157 80.838L382.431 83.299L382.967 83.549L386.734 85.307L388.597 81.606L388.862 81.08L391.471 75.899Z" fill="#EBEBEB"/>
<path d="M128.041 246.552C117.286 254.845 114.177 272.997 113.637 285.794C113.588 286.961 111.768 286.967 111.818 285.794C112.39 272.241 115.474 253.964 127.123 244.981C128.049 244.266 128.956 245.846 128.041 246.552Z" fill="#F5F5F5"/>
<path d="M103.075 237.271C105.818 236.954 108.126 239.758 109.318 241.818C115.506 252.514 113.111 268.656 111.94 280.133C111.822 281.287 110.002 281.299 110.12 280.133C111.26 268.963 113.334 254.412 108.288 243.796C107.422 241.973 105.571 238.802 103.075 239.09C101.914 239.224 101.924 237.403 103.075 237.271Z" fill="#E6E6E6"/>
<path d="M96.41 251.965C107.915 249.125 109.351 274.632 109.691 280.134C109.763 281.303 107.944 281.299 107.872 280.134C107.412 272.692 107.044 262.029 101.661 256.056C100.573 254.849 98.682 253.278 96.894 253.72C95.757 254 95.272 252.246 96.41 251.965Z" fill="#E6E6E6"/>
<path d="M130.505 264.342C120.994 257.297 117.899 275.809 117.373 281.144C117.259 282.299 115.438 282.31 115.554 281.144C116.151 275.091 117.071 264.124 124.065 261.58C126.462 260.708 129.38 261.256 131.424 262.771C132.354 263.46 131.447 265.04 130.505 264.342Z" fill="#E6E6E6"/>
<path d="M92.673 267.683C94.101 266.238 96.296 265.278 98.334 265.62C104.136 266.594 105.746 275.348 106.626 279.892C106.848 281.036 105.094 281.526 104.872 280.376C104.113 276.456 100.457 262.398 93.96 268.97C93.135 269.803 91.848 268.517 92.673 267.683Z" fill="#F5F5F5"/>
<path d="M126.932 327.341H99.418C94.591 323.242 91.519 317.146 91.519 310.314C91.519 302.512 95.904 279.104 95.904 279.104H130.446C130.446 279.104 134.831 302.511 134.831 310.314C134.831 317.146 131.758 323.242 126.932 327.341Z" fill="#EBEBEB"/>
<path d="M131.31 273.318C123.013 273.318 114.894 269.955 113.175 265.806C111.457 261.658 116.79 258.294 125.087 258.294C127.827 258.294 130.542 258.667 133.018 259.307C134.964 258.666 137.37 258.294 140.11 258.294C148.407 258.294 156.526 261.657 158.245 265.806C159.963 269.955 154.63 273.318 146.333 273.318H131.31Z" fill="#F5F5F5"/>
<path d="M77.173 257.237C70.387 257.237 67.636 254.486 71.029 251.093C74.422 247.7 82.675 244.949 89.461 244.949C91.702 244.949 93.492 245.254 94.777 245.778C97.11 245.254 99.509 244.949 101.75 244.949C108.537 244.949 111.287 247.7 107.894 251.093C104.501 254.486 96.248 257.237 89.462 257.237H77.173Z" fill="#F0F0F0"/>
<path d="M139.589 251.093C131.051 251.093 120.668 247.632 116.398 243.363C112.129 239.094 115.59 235.633 124.128 235.633C126.948 235.633 129.966 236.017 132.901 236.676C134.518 236.017 136.769 235.633 139.589 235.633C148.128 235.633 158.51 239.094 162.78 243.363C167.049 247.632 163.588 251.093 155.05 251.093H139.589Z" fill="#EBEBEB"/>
<path d="M92.12 241.111C87.851 241.111 85.106 239.381 85.991 237.246C86.875 235.111 91.053 233.381 95.322 233.381C96.732 233.381 97.97 233.573 98.971 233.902C100.245 233.572 101.642 233.381 103.052 233.381C107.321 233.381 110.065 235.111 109.181 237.246C108.297 239.381 104.119 241.111 99.85 241.111H92.12Z" fill="#F0F0F0"/>
<path d="M87.197 272.036C82.928 272.036 78.75 270.306 77.866 268.171C76.982 266.036 79.726 264.306 83.995 264.306C85.405 264.306 86.802 264.498 88.076 264.827C89.077 264.497 90.315 264.306 91.725 264.306C95.994 264.306 100.172 266.037 101.056 268.171C101.94 270.306 99.196 272.036 94.927 272.036H87.197Z" fill="#EBEBEB"/>
<path d="M95.121 283.438C95.585 280.808 95.904 279.104 95.904 279.104H130.446C130.446 279.104 130.765 280.808 131.229 283.438H95.121Z" fill="#F5F5F5"/>
<path d="M93.619 247.271C93.619 247.271 84.143 250.43 81.142 255.642C81.142 255.642 81.616 248.061 93.619 247.271Z" fill="#FAFAFA"/>
<path d="M98.077 234.877C98.077 234.877 95.61 236.25 94.11 238.303C94.11 238.303 94.857 235.32 98.077 234.877Z" fill="#FAFAFA"/>
<path d="M134.831 238.303C134.831 238.303 145.099 242.059 151.416 249.167C151.416 249.167 146.516 239.284 134.831 238.303Z" fill="#FAFAFA"/>
<path d="M134.831 261.164C134.831 261.164 140.992 263.38 145.573 269.54C145.573 269.54 143.674 262.423 134.831 261.164Z" fill="#E6E6E6"/>
<path d="M88.242 266.377C88.242 266.377 90.611 267.408 90.927 270.488C90.927 270.488 88.715 268.583 88.242 266.377Z" fill="#FAFAFA"/>
<path d="M410.38 50.541C421.177 50.541 429.929 41.7886 429.929 30.992C429.929 20.1954 421.177 11.443 410.38 11.443C399.583 11.443 390.831 20.1954 390.831 30.992C390.831 41.7886 399.583 50.541 410.38 50.541Z" fill="#EBEBEB"/>
<path d="M410.436 50.976C399.415 50.976 390.448 42.009 390.448 30.987C390.448 19.965 399.415 10.998 410.436 10.998V11.878C399.899 11.878 391.327 20.45 391.327 30.987C391.327 41.524 399.899 50.096 410.436 50.096V50.976Z" fill="white"/>
<path d="M410.436 50.976V50.096C420.973 50.096 429.545 41.524 429.545 30.987C429.545 20.45 420.972 11.878 410.436 11.878V10.998C421.458 10.998 430.425 19.965 430.425 30.987C430.425 42.009 421.458 50.976 410.436 50.976Z" fill="white"/>
<path d="M420.65 30.992H419.77C419.77 24.513 416.482 15.845 410.198 11.813L410.672 11.072C417.223 15.275 420.65 24.274 420.65 30.992Z" fill="white"/>
<path d="M410.673 50.315L410.199 49.574C416.483 45.542 419.771 36.874 419.771 30.395H420.651C420.65 37.113 417.223 46.112 410.673 50.315Z" fill="white"/>
<path d="M401.102 30.988H400.222C400.222 24.27 403.649 15.272 410.198 11.068L410.674 11.809C404.389 15.841 401.102 24.509 401.102 30.988Z" fill="white"/>
<path d="M410.198 50.31C403.649 46.107 400.222 37.108 400.222 30.391H401.102C401.102 36.869 404.39 45.538 410.674 49.57L410.198 50.31Z" fill="white"/>
<path d="M410.876 11.438H409.996V50.536H410.876V11.438Z" fill="white"/>
<path d="M426.984 20.134H393.889V21.014H426.984V20.134Z" fill="white"/>
<path d="M429.977 30.881H390.896V31.761H429.977V30.881Z" fill="white"/>
<path d="M426.546 41.618H394.326V42.498H426.546V41.618Z" fill="white"/>
<path d="M250 372.064C357.082 372.064 443.889 366.995 443.889 360.741C443.889 354.487 357.082 349.418 250 349.418C142.918 349.418 56.111 354.487 56.111 360.741C56.111 366.995 142.918 372.064 250 372.064Z" fill="#F5F5F5"/>
<path d="M366.032 349.186C364.429 359.584 361.252 366.713 348.505 366.713C335.654 366.713 332.581 359.584 330.978 349.186C329.016 336.461 335.935 315.245 348.505 315.245C361.075 315.245 367.994 336.461 366.032 349.186Z" fill="#263238"/>
<path d="M348.123 318.004C343.777 317.555 339.471 314.837 336.608 310.737C333.744 306.637 332.371 301.222 332.935 296.257C337.963 294.519 343.175 294.73 346.722 299.813C350.269 304.896 350.7 312.754 348.123 318.004Z" fill="#407BFF"/>
<path opacity="0.3" d="M348.123 318.004C343.777 317.555 339.471 314.837 336.608 310.737C333.744 306.637 332.371 301.222 332.935 296.257C337.963 294.519 343.175 294.73 346.722 299.813C350.269 304.896 350.7 312.754 348.123 318.004Z" fill="black"/>
<path d="M339.023 312.113C338.095 305.792 331.376 301.493 324.988 301.57C320.873 301.619 316.968 303.09 313.436 305.266C309.979 307.396 309.609 312.278 312.712 314.897C315.253 317.041 318.24 318.473 321.779 318.818C327.824 319.409 334.755 316.435 339.023 312.113Z" fill="#407BFF"/>
<path opacity="0.2" d="M339.023 312.113C338.095 305.792 331.376 301.493 324.988 301.57C320.873 301.619 316.968 303.09 313.436 305.266C309.979 307.396 309.609 312.278 312.712 314.897C315.253 317.041 318.24 318.473 321.779 318.818C327.824 319.409 334.755 316.435 339.023 312.113Z" fill="black"/>
<path d="M343.466 316.966C343.327 312.515 338.85 309.498 334.666 311.021C331.28 312.253 328.22 314.392 325.986 317.222C323.306 320.617 321.869 324.937 321.837 329.258C321.803 333.831 325.889 337.375 330.408 336.673C332.333 336.374 334.197 335.691 335.713 334.711C339.328 332.373 341.706 328.441 342.858 324.292C343.448 322.168 343.548 319.571 343.466 316.966Z" fill="#407BFF"/>
<path d="M343.466 316.966C343.327 312.515 338.85 309.498 334.666 311.021C331.28 312.253 328.22 314.392 325.986 317.222C323.306 320.617 321.869 324.937 321.837 329.258C321.803 333.831 325.889 337.375 330.408 336.673C332.333 336.374 334.197 335.691 335.713 334.711C339.328 332.373 341.706 328.441 342.858 324.292C343.448 322.168 343.548 319.571 343.466 316.966Z" fill="#407BFF"/>
<path d="M367.556 299.14C363.629 297.6 359.098 297.669 355.221 299.329C353.782 299.945 352.439 300.778 351.237 301.78C346.787 305.495 347.958 312.543 353.414 314.502C356.318 315.545 359.608 315.537 362.407 314.167C368.139 311.363 370.828 304.618 367.556 299.14Z" fill="#407BFF"/>
<path opacity="0.3" d="M367.556 299.14C363.629 297.6 359.098 297.669 355.221 299.329C353.782 299.945 352.439 300.778 351.237 301.78C346.787 305.495 347.958 312.543 353.414 314.502C356.318 315.545 359.608 315.537 362.407 314.167C368.139 311.363 370.828 304.618 367.556 299.14Z" fill="black"/>
<path d="M362.314 305.251C360.644 306.697 358.926 308.204 358.124 310.541C357.813 311.446 357.688 312.417 357.824 313.364C358.234 316.234 360.476 317.154 362.522 317.704C369.43 319.559 376.733 319.322 383.554 317.079C386.219 316.202 387.171 312.899 385.41 310.716C383.111 307.866 380.131 305.52 377.226 304.298C372.898 302.477 366.013 302.048 362.314 305.251Z" fill="#407BFF"/>
<path opacity="0.2" d="M362.314 305.251C360.644 306.697 358.926 308.204 358.124 310.541C357.813 311.446 357.688 312.417 357.824 313.364C358.234 316.234 360.476 317.154 362.522 317.704C369.43 319.559 376.733 319.322 383.554 317.079C386.219 316.202 387.171 312.899 385.41 310.716C383.111 307.866 380.131 305.52 377.226 304.298C372.898 302.477 366.013 302.048 362.314 305.251Z" fill="black"/>
<path d="M364.952 312.49C361.951 311.766 358.868 313.586 358.103 316.577C357.598 318.551 357.663 320.699 358.313 322.633C359.586 326.429 362.799 329.373 366.474 330.961C368.459 331.819 370.569 332.316 372.72 332.559C375.903 332.918 378.657 330.241 378.298 327.059C377.93 323.791 376.852 320.603 374.949 318.01C372.695 314.937 368.845 313.429 364.952 312.49Z" fill="#407BFF"/>
<path d="M364.952 312.49C361.951 311.766 358.868 313.586 358.103 316.577C357.598 318.551 357.663 320.699 358.313 322.633C359.586 326.429 362.799 329.373 366.474 330.961C368.459 331.819 370.569 332.316 372.72 332.559C375.903 332.918 378.657 330.241 378.298 327.059C377.93 323.791 376.852 320.603 374.949 318.01C372.695 314.937 368.845 313.429 364.952 312.49Z" fill="#407BFF"/>
<path d="M352.946 312.415C350.321 309.377 345.095 309.619 342.164 312.363C339.233 315.107 338.454 319.616 339.409 323.516C340.365 327.415 342.805 330.789 345.534 333.735C346.698 334.992 347.925 336.191 349.208 337.327C353.425 341.063 360.039 339.033 361.527 333.599C361.536 333.565 361.546 333.531 361.555 333.497C362.678 329.437 363.81 325.219 363.121 321.064C362.43 316.909 357.136 312.851 352.946 312.415Z" fill="#407BFF"/>
<path opacity="0.1" d="M352.946 312.415C350.321 309.377 345.095 309.619 342.164 312.363C339.233 315.107 338.454 319.616 339.409 323.516C340.365 327.415 342.805 330.789 345.534 333.735C346.698 334.992 347.925 336.191 349.208 337.327C353.425 341.063 360.039 339.033 361.527 333.599C361.536 333.565 361.546 333.531 361.555 333.497C362.678 329.437 363.81 325.219 363.121 321.064C362.43 316.909 357.136 312.851 352.946 312.415Z" fill="white"/>
<path opacity="0.2" d="M353.885 315.298C356.408 321.82 357.559 328.965 356.58 335.889C356.147 328.462 354.605 321.1 352.021 314.124C352.806 314.241 353.599 314.559 353.885 315.298Z" fill="white"/>
<path opacity="0.2" d="M337.158 314.668C332.664 319.311 329.811 324.899 327.923 331.078C328.658 324.987 331.363 319.149 335.535 314.65C335.953 314.199 336.606 314.396 337.158 314.668Z" fill="white"/>
<path opacity="0.2" d="M332.587 308.934C330.307 307.788 327.968 306.624 325.434 306.325C321.75 305.89 318.116 307.562 314.683 308.968C317.557 307.542 320.479 306.1 323.634 305.522C326.79 304.943 330.267 305.332 332.81 307.289C332.753 307.863 332.644 308.359 332.587 308.934Z" fill="white"/>
<path opacity="0.2" d="M374.56 326.133C373.173 323.606 371.769 321.056 369.866 318.892C367.962 316.727 365.49 314.949 362.66 314.398C363.492 314.398 364.497 314.146 365.329 314.146C369.797 316.96 373.315 321.229 374.648 326.338C374.727 326.154 374.482 326.316 374.56 326.133Z" fill="white"/>
<path opacity="0.2" d="M344.959 309.174C343.251 304.278 339.887 300.17 335.449 297.49C338.766 299.965 341.299 303.475 342.604 307.403C342.823 308.063 342.82 308.856 343.057 309.509C343.667 309.845 344.418 309.612 344.959 309.174Z" fill="white"/>
<path opacity="0.2" d="M365.011 300.369C360.292 301.812 356.303 305.47 354.458 310.046C354.814 310.224 354.815 310.403 355.171 310.581C355.611 308.148 357.551 306.249 359.483 304.705C361.413 303.162 363.158 302.006 365.011 300.369Z" fill="white"/>
<path opacity="0.2" d="M383.36 312.14C381.062 308.629 376.766 306.765 372.571 306.649C368.376 306.534 364.239 307.929 360.518 309.868C360.518 310.343 360.518 310.819 360.518 311.294C363.796 308.917 367.846 307.804 371.891 307.974C375.936 308.143 380.292 309.497 383.36 312.14Z" fill="white"/>
<path d="M304.484 180.775V167.807C304.484 166.952 305.176 166.255 306.036 166.255H308.627L308.691 159.604L315.839 166.255H331.257C332.112 166.255 332.809 166.952 332.809 167.807V180.775C332.809 181.63 332.112 182.327 331.257 182.327H306.035C305.176 182.327 304.484 181.631 304.484 180.775Z" fill="#407BFF"/>
<path d="M322.922 176.071L323.166 175.834L323.29 175.713C323.451 175.572 323.603 175.417 323.747 175.25L323.845 175.151H323.83C324.002 174.938 324.159 174.706 324.297 174.455C324.468 174.144 324.6 173.823 324.694 173.499C324.717 173.42 324.737 173.341 324.755 173.262C324.944 172.45 324.899 171.635 324.64 170.928C324.611 170.847 324.577 170.768 324.542 170.691C324.263 170.073 323.813 169.554 323.206 169.22C321.688 168.385 319.718 168.987 318.552 170.553C317.386 168.987 315.415 168.385 313.898 169.22C313.291 169.554 312.84 170.073 312.562 170.691C312.527 170.769 312.494 170.847 312.464 170.928C312.205 171.635 312.16 172.451 312.349 173.262C312.367 173.341 312.387 173.42 312.41 173.499C312.504 173.822 312.636 174.143 312.807 174.455C312.945 174.706 313.102 174.938 313.274 175.151H313.261L313.346 175.238C313.496 175.414 313.656 175.576 313.824 175.722L313.94 175.834L314.185 176.071L316.598 178.405L316.843 178.642L318.566 180.309L320.278 178.642L320.522 178.405L322.922 176.071Z" fill="white"/>
<path d="M310.733 38.447V53.19C310.733 54.163 311.52 54.954 312.497 54.954H315.442L315.515 62.516L323.642 54.954H341.171C342.144 54.954 342.935 54.162 342.935 53.19V38.447C342.935 37.474 342.143 36.682 341.171 36.682H312.497C311.52 36.683 310.733 37.475 310.733 38.447Z" fill="#407BFF"/>
<path d="M331.694 47.194L331.971 46.924L332.112 46.786C332.295 46.626 332.468 46.45 332.631 46.26L332.742 46.148H332.725C332.921 45.906 333.099 45.642 333.256 45.357C333.451 45.003 333.601 44.638 333.707 44.271C333.733 44.181 333.756 44.091 333.777 44.001C333.992 43.078 333.941 42.151 333.646 41.347C333.612 41.255 333.575 41.166 333.535 41.077C333.218 40.374 332.706 39.784 332.016 39.404C330.291 38.454 328.05 39.139 326.725 40.919C325.4 39.139 323.159 38.454 321.434 39.404C320.744 39.784 320.232 40.374 319.915 41.077C319.875 41.165 319.837 41.255 319.804 41.347C319.51 42.151 319.458 43.078 319.673 44.001C319.694 44.091 319.717 44.181 319.743 44.271C319.85 44.639 320 45.003 320.194 45.357C320.351 45.642 320.529 45.906 320.725 46.148H320.711L320.808 46.246C320.978 46.446 321.16 46.63 321.352 46.797L321.484 46.924L321.763 47.194L324.506 49.848L324.785 50.118L326.744 52.013L328.691 50.118L328.968 49.848L331.694 47.194Z" fill="white"/>
<path d="M192.265 149.654C192.368 149.614 192.64 147.653 192.934 145.277C193.546 140.332 196.479 136.506 200.176 135.751C202.844 135.206 202.844 135.206 202.844 135.206C202.844 135.206 198.656 135.206 196.91 133.984C193.209 131.393 192.359 123.742 192.359 123.742C192.359 123.742 191.322 131.394 187.621 133.984C185.875 135.206 181.687 135.206 181.687 135.206C181.687 135.206 181.687 135.206 184.355 135.751C188.052 136.506 190.985 140.332 191.597 145.277C191.89 147.653 192.162 149.614 192.265 149.654Z" fill="#407BFF"/>
<g opacity="0.7">
<path d="M192.265 149.654C192.368 149.614 192.64 147.653 192.934 145.277C193.546 140.332 196.479 136.506 200.176 135.751C202.844 135.206 202.844 135.206 202.844 135.206C202.844 135.206 198.656 135.206 196.91 133.984C193.209 131.393 192.359 123.742 192.359 123.742C192.359 123.742 191.322 131.394 187.621 133.984C185.875 135.206 181.687 135.206 181.687 135.206C181.687 135.206 181.687 135.206 184.355 135.751C188.052 136.506 190.985 140.332 191.597 145.277C191.89 147.653 192.162 149.614 192.265 149.654Z" fill="white"/>
</g>
<path d="M324.527 150.074C324.63 150.034 324.902 148.073 325.196 145.697C325.808 140.752 328.741 136.926 332.437 136.171C335.105 135.626 335.105 135.626 335.105 135.626C335.105 135.626 330.917 135.626 329.171 134.404C325.47 131.813 324.62 124.162 324.62 124.162C324.62 124.162 323.583 131.814 319.882 134.404C318.136 135.626 313.948 135.626 313.948 135.626C313.948 135.626 313.948 135.626 316.616 136.171C320.313 136.926 323.246 140.752 323.858 145.697C324.152 148.073 324.424 150.034 324.527 150.074Z" fill="#407BFF"/>
<g opacity="0.7">
<path d="M324.527 150.074C324.63 150.034 324.902 148.073 325.196 145.697C325.808 140.752 328.741 136.926 332.437 136.171C335.105 135.626 335.105 135.626 335.105 135.626C335.105 135.626 330.917 135.626 329.171 134.404C325.47 131.813 324.62 124.162 324.62 124.162C324.62 124.162 323.583 131.814 319.882 134.404C318.136 135.626 313.948 135.626 313.948 135.626C313.948 135.626 313.948 135.626 316.616 136.171C320.313 136.926 323.246 140.752 323.858 145.697C324.152 148.073 324.424 150.034 324.527 150.074Z" fill="white"/>
</g>
<path d="M302.408 232.033C302.511 231.993 302.783 230.032 303.077 227.656C303.689 222.711 306.622 218.884 310.318 218.13C312.986 217.585 312.986 217.585 312.986 217.585C312.986 217.585 308.798 217.585 307.052 216.363C303.351 213.772 302.501 206.121 302.501 206.121C302.501 206.121 301.464 213.773 297.763 216.363C296.017 217.585 291.829 217.585 291.829 217.585C291.829 217.585 291.829 217.585 294.497 218.13C298.194 218.885 301.127 222.711 301.738 227.656C302.033 230.032 302.305 231.993 302.408 232.033Z" fill="#407BFF"/>
<g opacity="0.7">
<path d="M302.408 232.033C302.511 231.993 302.783 230.032 303.077 227.656C303.689 222.711 306.622 218.884 310.318 218.13C312.986 217.585 312.986 217.585 312.986 217.585C312.986 217.585 308.798 217.585 307.052 216.363C303.351 213.772 302.501 206.121 302.501 206.121C302.501 206.121 301.464 213.773 297.763 216.363C296.017 217.585 291.829 217.585 291.829 217.585C291.829 217.585 291.829 217.585 294.497 218.13C298.194 218.885 301.127 222.711 301.738 227.656C302.033 230.032 302.305 231.993 302.408 232.033Z" fill="white"/>
</g>
<path d="M382.685 93.793H338.963C337.472 93.793 336.273 95 336.273 96.483V101.706L336.252 101.698H323.749L336.141 113.228L336.274 113.169V118.963C336.274 120.446 337.473 121.653 338.964 121.653H382.686C384.169 121.653 385.376 120.445 385.376 118.963V96.483C385.375 95.001 384.168 93.793 382.685 93.793Z" fill="white"/>
<path d="M382.685 122.154H338.963C337.204 122.154 335.773 120.723 335.773 118.964V113.57L322.477 101.199H335.773V96.484C335.773 94.725 337.204 93.294 338.963 93.294H382.685C384.444 93.294 385.875 94.725 385.875 96.484V118.964C385.875 120.723 384.444 122.154 382.685 122.154ZM336.773 112.4V118.964C336.773 120.172 337.755 121.154 338.963 121.154H382.685C383.893 121.154 384.875 120.172 384.875 118.964V96.484C384.875 95.276 383.893 94.294 382.685 94.294H338.963C337.755 94.294 336.773 95.276 336.773 96.484V102.405L336.169 102.199H325.021L336.24 112.638L336.773 112.4Z" fill="#407BFF"/>
<path d="M351.782 109.108L352.023 108.874L352.146 108.754C352.305 108.615 352.456 108.462 352.598 108.296L352.695 108.198H352.681C352.851 107.988 353.007 107.758 353.143 107.51C353.312 107.202 353.443 106.885 353.536 106.565C353.559 106.487 353.579 106.409 353.597 106.33C353.784 105.527 353.739 104.721 353.483 104.021C353.454 103.941 353.421 103.863 353.386 103.786C353.11 103.174 352.665 102.661 352.064 102.331C350.563 101.505 348.614 102.101 347.461 103.649C346.308 102.1 344.359 101.504 342.858 102.331C342.258 102.661 341.812 103.175 341.536 103.786C341.501 103.863 341.469 103.941 341.439 104.021C341.183 104.72 341.138 105.527 341.325 106.33C341.343 106.408 341.363 106.486 341.386 106.565C341.479 106.885 341.609 107.202 341.779 107.51C341.916 107.758 342.071 107.988 342.241 108.198H342.228L342.312 108.284C342.46 108.458 342.618 108.618 342.785 108.763L342.9 108.874L343.142 109.108L345.528 111.417L345.77 111.652L347.474 113.301L349.168 111.652L349.409 111.417L351.782 109.108Z" fill="#263238"/>
<path d="M274.551 13.719V36.199C274.551 37.682 273.352 38.889 271.861 38.889H255.929L250 48.019L243.426 38.889H228.139C226.656 38.889 225.449 37.682 225.449 36.199V13.719C225.449 12.236 226.656 11.029 228.139 11.029H271.861C273.352 11.029 274.551 12.236 274.551 13.719Z" fill="white"/>
<path d="M250.021 48.905L243.169 39.39H228.139C226.38 39.39 224.948 37.959 224.948 36.2V13.72C224.948 11.961 226.379 10.53 228.139 10.53H271.861C273.62 10.53 275.051 11.961 275.051 13.72V36.2C275.051 37.959 273.62 39.39 271.861 39.39H256.201L250.021 48.905ZM228.139 11.528C226.931 11.528 225.948 12.51 225.948 13.718V36.198C225.948 37.406 226.93 38.388 228.139 38.388H243.681L249.978 47.133L255.657 38.388H271.86C273.068 38.388 274.05 37.406 274.05 36.198V13.718C274.05 12.51 273.067 11.528 271.86 11.528H228.139Z" fill="#407BFF"/>
<path d="M361.814 109.265V110.334H357.528V109.483L359.716 107.417C360.218 106.939 360.307 106.647 360.307 106.372C360.307 105.926 359.999 105.667 359.4 105.667C358.914 105.667 358.501 105.854 358.225 106.234L357.269 105.618C357.707 104.978 358.5 104.565 359.521 104.565C360.785 104.565 361.628 105.213 361.628 106.242C361.628 106.793 361.474 107.295 360.68 108.033L359.375 109.265H361.814Z" fill="#263238"/>
<path d="M366.548 108.6C366.548 109.556 365.811 110.431 364.198 110.431C363.404 110.431 362.586 110.212 362.034 109.824L362.545 108.819C362.974 109.143 363.574 109.329 364.166 109.329C364.822 109.329 365.227 109.062 365.227 108.6C365.227 108.17 364.911 107.903 364.166 107.903H363.566V107.036L364.733 105.716H362.318V104.662H366.288V105.513L365.008 106.971C366.03 107.133 366.548 107.766 366.548 108.6Z" fill="#263238"/>
<path d="M371.357 109.265V110.334H367.071V109.483L369.259 107.417C369.761 106.939 369.85 106.647 369.85 106.372C369.85 105.926 369.542 105.667 368.943 105.667C368.457 105.667 368.044 105.854 367.768 106.234L366.812 105.618C367.25 104.978 368.044 104.565 369.065 104.565C370.329 104.565 371.171 105.213 371.171 106.242C371.171 106.793 371.017 107.295 370.223 108.033L368.918 109.265H371.357Z" fill="#263238"/>
<path d="M376.092 108.6C376.092 109.556 375.355 110.431 373.742 110.431C372.948 110.431 372.13 110.212 371.578 109.824L372.089 108.819C372.518 109.143 373.118 109.329 373.71 109.329C374.366 109.329 374.771 109.062 374.771 108.6C374.771 108.17 374.455 107.903 373.71 107.903H373.11V107.036L374.277 105.716H371.862V104.662H375.832V105.513L374.552 106.971C375.574 107.133 376.092 107.766 376.092 108.6Z" fill="#263238"/>
<path d="M376.703 107.498C376.703 105.626 377.74 104.565 379.134 104.565C380.536 104.565 381.565 105.626 381.565 107.498C381.565 109.37 380.536 110.431 379.134 110.431C377.74 110.431 376.703 109.37 376.703 107.498ZM380.244 107.498C380.244 106.21 379.79 105.675 379.134 105.675C378.486 105.675 378.032 106.21 378.032 107.498C378.032 108.787 378.486 109.321 379.134 109.321C379.79 109.321 380.244 108.787 380.244 107.498Z" fill="#263238"/>
<path d="M237.439 24.327C239.35 24.327 240.899 22.7779 240.899 20.867C240.899 18.9561 239.35 17.407 237.439 17.407C235.528 17.407 233.979 18.9561 233.979 20.867C233.979 22.7779 235.528 24.327 237.439 24.327Z" fill="#263238"/>
<path d="M240.193 25.043H234.838C233.137 25.043 231.758 26.422 231.758 28.123V30.588H243.273V28.123C243.273 26.422 241.894 25.043 240.193 25.043Z" fill="#263238"/>
<path d="M255.285 21.095V29.159H253.419V22.593H251.806V21.095H255.285Z" fill="#263238"/>
<path d="M267.545 25.611V29.159H265.748V25.888C265.748 24.886 265.299 24.425 264.573 24.425C263.767 24.425 263.202 24.944 263.202 26.05V29.16H261.405V25.888C261.405 24.886 260.979 24.425 260.23 24.425C259.435 24.425 258.871 24.944 258.871 26.05V29.16H257.074V22.962H258.79V23.676C259.251 23.146 259.942 22.87 260.737 22.87C261.601 22.87 262.338 23.204 262.776 23.884C263.271 23.25 264.078 22.87 265.011 22.87C266.486 22.87 267.545 23.722 267.545 25.611Z" fill="#263238"/>
<path d="M199.957 67.906L197.626 67.313C196.526 67.033 195.358 67.687 195.02 68.773L191.72 79.384C191.382 80.47 192.003 81.579 193.102 81.858L195.433 82.451C196.532 82.731 197.7 82.077 198.037 80.991L201.337 70.38C201.676 69.294 201.056 68.185 199.957 67.906Z" fill="#263238"/>
<path d="M199.957 67.906L197.626 67.313C196.526 67.033 195.358 67.687 195.02 68.773L191.72 79.384C191.382 80.47 192.003 81.579 193.102 81.858L195.433 82.451C196.532 82.731 197.7 82.077 198.037 80.991L201.337 70.38C201.676 69.294 201.056 68.185 199.957 67.906Z" fill="#407BFF"/>
<path d="M218.366 72.589L211.547 70.854L213.982 67.661C214.246 67.313 214.416 66.907 214.472 66.488L214.868 63.583C215.028 62.399 214.3 61.326 213.136 61.03L210.425 60.34L209.083 64.655L203.279 69.079C202.701 69.515 202.268 70.13 202.056 70.809L198.971 80.731C198.554 82.07 199.32 83.439 200.677 83.784L210.218 86.212C211.055 86.425 211.961 86.264 212.703 85.77L213.844 85.007C214.291 84.711 214.656 84.302 214.899 83.825L219.358 75.044L218.366 72.589Z" fill="white"/>
<path d="M210.955 86.804C210.666 86.804 210.377 86.769 210.094 86.697L200.553 84.269C199.763 84.068 199.114 83.574 198.723 82.876C198.332 82.177 198.25 81.363 198.493 80.583L201.578 70.661C201.821 69.881 202.318 69.178 202.977 68.68L208.653 64.354L210.088 59.739L213.258 60.546C214.672 60.905 215.557 62.212 215.362 63.651L214.966 66.556C214.899 67.06 214.696 67.548 214.378 67.965L212.401 70.557L218.733 72.168L219.905 75.068L215.343 84.052C215.061 84.606 214.638 85.081 214.118 85.425L212.979 86.187C212.37 86.592 211.663 86.804 210.955 86.804ZM210.761 60.942L209.514 64.956L203.582 69.477C203.086 69.851 202.715 70.377 202.534 70.958L199.449 80.88C199.288 81.396 199.341 81.931 199.597 82.388C199.852 82.844 200.28 83.167 200.801 83.3L210.342 85.728C211.04 85.907 211.801 85.77 212.426 85.354L213.567 84.591C213.944 84.341 214.25 83.998 214.454 83.598L218.81 75.02L217.999 73.012L210.692 71.153L213.585 67.359C213.797 67.08 213.933 66.756 213.977 66.423L214.373 63.517C214.499 62.59 213.927 61.748 213.014 61.516L210.761 60.942Z" fill="#407BFF"/>
<path d="M183.725 191.814L181.415 192.483C180.325 192.799 179.649 193.955 179.908 195.062L182.438 205.882C182.697 206.989 183.793 207.631 184.883 207.315L187.193 206.646C188.282 206.33 188.958 205.175 188.699 204.068L186.17 193.248C185.91 192.14 184.814 191.498 183.725 191.814Z" fill="#263238"/>
<path d="M183.725 191.814L181.415 192.483C180.325 192.799 179.649 193.955 179.908 195.062L182.438 205.882C182.697 206.989 183.793 207.631 184.883 207.315L187.193 206.646C188.282 206.33 188.958 205.175 188.699 204.068L186.17 193.248C185.91 192.14 184.814 191.498 183.725 191.814Z" fill="#407BFF"/>
<path d="M201.97 186.527L195.212 188.485L195.694 184.499C195.746 184.065 195.687 183.629 195.522 183.239L194.392 180.534C193.931 179.432 192.759 178.876 191.606 179.21L188.919 179.988L189.948 184.388L187.184 191.143C186.907 191.812 186.844 192.562 187.006 193.254L189.371 203.371C189.69 204.737 191.044 205.529 192.388 205.14L201.844 202.4C202.673 202.16 203.373 201.562 203.763 200.76L204.36 199.524C204.595 199.042 204.703 198.505 204.67 197.97L204.067 188.14L201.97 186.527Z" fill="white"/>
<path d="M191.695 205.74C191.187 205.74 190.69 205.607 190.243 205.345C189.553 204.941 189.07 204.279 188.885 203.484L186.519 193.368C186.333 192.572 186.405 191.714 186.722 190.951L189.424 184.346L188.324 179.64L191.467 178.73C192.868 178.325 194.293 179.003 194.854 180.341L195.984 183.047C196.181 183.515 196.253 184.038 196.191 184.559L195.8 187.795L202.075 185.977L204.555 187.883L205.172 197.941C205.21 198.56 205.086 199.184 204.812 199.744L204.215 200.978C203.763 201.908 202.951 202.601 201.986 202.881L192.529 205.621C192.251 205.701 191.971 205.74 191.695 205.74ZM189.513 180.337L190.471 184.43L187.647 191.332C187.409 191.905 187.355 192.547 187.493 193.141L189.859 203.257C189.982 203.783 190.298 204.219 190.749 204.483C191.199 204.748 191.732 204.811 192.249 204.661L201.706 201.921C202.4 201.72 202.986 201.218 203.314 200.542L203.911 199.308C204.11 198.901 204.2 198.451 204.172 198.002L203.583 188.4L201.866 187.08L194.625 189.178L195.197 184.442C195.238 184.093 195.192 183.746 195.061 183.436L193.931 180.729C193.57 179.867 192.651 179.426 191.745 179.693L189.513 180.337Z" fill="#407BFF"/>
<path d="M140.74 127.362L138.351 127.085C137.224 126.954 136.153 127.758 135.964 128.88L134.11 139.836C133.92 140.957 134.683 141.973 135.81 142.104L138.199 142.381C139.326 142.511 140.396 141.708 140.585 140.586L142.44 129.63C142.628 128.509 141.866 127.492 140.74 127.362Z" fill="#263238"/>
<path d="M140.74 127.362L138.351 127.085C137.224 126.954 136.153 127.758 135.964 128.88L134.11 139.836C133.92 140.957 134.683 141.973 135.81 142.104L138.199 142.381C139.326 142.511 140.396 141.708 140.585 140.586L142.44 129.63C142.628 128.509 141.866 127.492 140.74 127.362Z" fill="#407BFF"/>
<path d="M159.609 129.547L152.619 128.738L154.606 125.249C154.821 124.869 154.936 124.444 154.935 124.021L154.94 121.089C154.941 119.894 154.076 118.928 152.883 118.79L150.104 118.468L149.35 122.923L144.188 128.082C143.674 128.591 143.326 129.259 143.207 129.96L141.473 140.205C141.239 141.588 142.18 142.842 143.571 143.003L153.351 144.136C154.209 144.235 155.085 143.955 155.755 143.366L156.784 142.458C157.187 142.105 157.495 141.651 157.671 141.145L160.919 131.847L159.609 129.547Z" fill="white"/>
<path d="M153.692 144.655C153.559 144.655 153.426 144.648 153.294 144.632L143.514 143.499C142.705 143.406 141.994 143.002 141.515 142.363C141.035 141.723 140.845 140.927 140.981 140.121L142.714 129.876C142.85 129.071 143.249 128.307 143.836 127.726L148.883 122.682L149.689 117.916L152.939 118.292C154.389 118.46 155.44 119.636 155.438 121.088L155.433 124.02C155.434 124.527 155.298 125.038 155.038 125.494L153.426 128.327L159.916 129.078L161.464 131.796L158.142 141.309C157.937 141.894 157.581 142.421 157.112 142.832L156.084 143.739C155.413 144.332 154.559 144.655 153.692 144.655ZM150.519 119.019L149.817 123.164L144.542 128.436C144.1 128.873 143.802 129.444 143.701 130.044L141.968 140.289C141.878 140.821 142.001 141.345 142.315 141.763C142.628 142.181 143.095 142.445 143.629 142.507L153.409 143.64C154.125 143.722 154.862 143.487 155.425 142.991L156.454 142.083C156.794 141.784 157.052 141.403 157.2 140.98L160.372 131.897L159.299 130.015L151.81 129.147L154.17 125.001C154.343 124.696 154.435 124.357 154.434 124.021L154.439 121.087C154.44 120.152 153.761 119.394 152.824 119.285L150.519 119.019Z" fill="#407BFF"/>
<path d="M302.672 85.621L296.065 85.895C294.588 85.956 293.446 84.805 293.514 83.323L294.351 65.057C294.38 64.423 294.916 63.888 295.548 63.862L303.684 63.524C305.161 63.463 306.303 64.614 306.235 66.097L305.468 82.828C305.401 84.308 304.149 85.559 302.672 85.621Z" fill="#407BFF"/>
<path opacity="0.2" d="M302.672 85.621L296.065 85.895C294.588 85.956 293.446 84.805 293.514 83.323L294.351 65.057C294.38 64.423 294.916 63.888 295.548 63.862L303.684 63.524C305.161 63.463 306.303 64.614 306.235 66.097L305.468 82.828C305.401 84.308 304.149 85.559 302.672 85.621Z" fill="black"/>
<path d="M303.038 85.945L296.432 86.219C294.955 86.28 293.813 85.129 293.881 83.647L294.718 65.381C294.747 64.747 295.283 64.212 295.915 64.185L304.051 63.848C305.528 63.787 306.67 64.938 306.602 66.42L305.835 83.151C305.766 84.632 304.514 85.883 303.038 85.945Z" fill="#407BFF"/>
<path opacity="0.5" d="M302.977 85.947L296.503 86.215C294.993 86.278 293.814 85.094 293.883 83.584L294.715 65.44C294.745 64.775 295.314 64.209 295.979 64.181L303.978 63.849C305.488 63.786 306.667 64.97 306.598 66.48L305.836 83.099C305.768 84.604 304.481 85.885 302.977 85.947Z" fill="white"/>
<path opacity="0.3" d="M298.688 69.48L295.786 69.6C295.088 69.629 294.548 69.085 294.58 68.384L294.716 65.41C294.746 64.759 295.296 64.21 295.944 64.183L298.935 64.059C299.633 64.03 300.173 64.574 300.141 65.275L300.009 68.159C299.977 68.86 299.386 69.451 298.688 69.48Z" fill="white"/>
<path d="M298.428 69.248L295.797 69.357C295.099 69.386 294.559 68.842 294.591 68.141L294.712 65.5C294.744 64.799 295.336 64.208 296.034 64.179L298.665 64.07C299.363 64.041 299.903 64.585 299.871 65.286L299.75 67.927C299.718 68.627 299.126 69.219 298.428 69.248Z" fill="#263238"/>
<path opacity="0.1" d="M298.428 69.248L295.797 69.357C295.099 69.386 294.559 68.842 294.591 68.141L294.712 65.5C294.744 64.799 295.336 64.208 296.034 64.179L298.665 64.07C299.363 64.041 299.903 64.585 299.871 65.286L299.75 67.927C299.718 68.627 299.126 69.219 298.428 69.248Z" fill="white"/>
<path d="M301.574 75.245C301.54 75.991 300.91 76.621 300.166 76.651C299.423 76.682 298.848 76.102 298.882 75.356C298.916 74.61 299.546 73.98 300.29 73.95C301.033 73.919 301.608 74.499 301.574 75.245Z" fill="white"/>
<path d="M238.132 68.885C237.691 71.432 235.033 73.108 232.979 74.677C233.335 76.07 236.502 76.026 237.829 75.472C237.99 77.823 235.701 81.477 233.535 82.405C235.3 84.382 238.75 84.11 240.532 82.148C240.999 85.506 238.858 89.244 235.999 91.067C236.186 91.174 236.378 91.272 236.575 91.362C241.051 93.402 246.273 91.18 248.478 86.783C249.1 85.543 249.595 84.238 249.944 82.877C251.044 78.588 250.773 73.958 249.18 69.827C247.762 66.149 241.406 66.693 238.132 68.885Z" fill="#263238"/>
<path d="M266.013 68.923C266.562 71.47 269.873 73.146 272.432 74.716C271.988 76.109 268.043 76.065 266.391 75.51C266.19 77.861 269.042 81.515 271.74 82.443C269.541 84.42 265.244 84.148 263.024 82.186C262.442 85.544 265.11 89.282 268.67 91.105C268.438 91.212 268.198 91.31 267.952 91.4C262.376 93.44 255.871 91.218 253.125 86.821C252.351 85.581 251.734 84.276 251.299 82.915C249.929 78.626 250.266 73.997 252.25 69.865C254.017 66.188 261.934 66.732 266.013 68.923Z" fill="#263238"/>
<path d="M280.026 357.458L288.412 355.287L283.746 335.783L275.359 337.953L280.026 357.458Z" fill="#FF887B"/>
<path d="M288.229 353.458L279.058 355.831C278.719 355.917 278.501 356.275 278.539 356.682L279.324 365.808C279.403 366.649 280.056 367.31 280.781 367.285C280.863 367.282 280.945 367.27 281.023 367.25C284.306 366.324 289.016 364.862 293.174 363.786C298.024 362.531 298.503 362.74 304.189 361.269C307.633 360.378 307.441 356.064 305.898 356.066C298.867 356.081 297.262 356.305 290.447 353.666C289.722 353.365 288.955 353.294 288.229 353.458Z" fill="#263238"/>
<path opacity="0.2" d="M283.748 335.793L286.154 346.847L277.768 349.017L275.362 337.963L283.748 335.793Z" fill="black"/>
<path d="M289.127 353.772C289.06 353.781 288.993 353.755 288.95 353.704C288.88 353.621 288.89 353.496 288.974 353.426C289.294 353.129 292.15 350.59 293.302 350.903C293.52 350.954 293.696 351.116 293.766 351.329C293.914 351.67 293.879 352.063 293.672 352.371C293.185 352.922 292.522 353.286 291.796 353.403C290.919 353.608 290.026 353.732 289.127 353.772ZM289.657 353.335C291.575 353.171 292.909 352.74 293.284 352.161C293.422 351.957 293.444 351.695 293.341 351.471C293.319 351.384 293.252 351.315 293.166 351.291C293.036 351.273 292.903 351.282 292.776 351.317C291.63 351.808 290.575 352.49 289.657 353.335Z" fill="#407BFF"/>
<path d="M289.004 353.793C288.94 353.761 288.893 353.703 288.877 353.633C288.863 353.54 288.478 351.262 289.258 350.139C289.486 349.804 289.845 349.583 290.247 349.53C290.802 349.44 291.076 349.669 291.13 349.88C291.545 350.78 290.097 353.05 289.21 353.762L289.13 353.783C289.089 353.795 289.046 353.798 289.004 353.793ZM289.6 350.383C289.197 351.261 289.077 352.243 289.256 353.193C290.101 352.321 291.043 350.578 290.8 350.051C290.777 350.003 290.703 349.841 290.351 349.932L290.231 349.963C289.974 350.018 289.75 350.168 289.6 350.383Z" fill="#407BFF"/>
<path d="M198.665 352.001L206.934 354.583L213.263 335.553L204.994 332.971L198.665 352.001Z" fill="#FF887B"/>
<path d="M207.624 352.091L198.582 349.267C198.249 349.162 197.876 349.346 197.695 349.707L193.582 357.758C193.209 358.503 193.418 359.399 194.047 359.758C194.119 359.799 194.194 359.831 194.272 359.856C197.549 360.803 202.321 362.05 206.42 363.33C211.203 364.823 211.5 365.249 217.106 367C220.502 368.061 222.599 364.348 221.285 363.541C215.298 359.866 213.816 359.21 209.402 353.427C208.942 352.796 208.327 352.334 207.624 352.091Z" fill="#263238"/>
<path opacity="0.2" d="M213.26 335.563L209.585 346.614L201.317 344.031L204.991 332.981L213.26 335.563Z" fill="black"/>
<path d="M208.341 353.673C208.279 353.646 208.236 353.588 208.226 353.522C208.21 353.414 208.285 353.314 208.393 353.298C208.821 353.214 212.587 352.565 213.401 353.439C213.559 353.598 213.623 353.828 213.57 354.046C213.516 354.414 213.279 354.729 212.94 354.881C212.236 355.092 211.48 355.052 210.803 354.768C209.95 354.48 209.126 354.113 208.341 353.673ZM209.021 353.581C210.737 354.454 212.098 354.792 212.722 354.498C212.947 354.398 213.104 354.187 213.135 353.942C213.162 353.857 213.142 353.763 213.081 353.697C212.98 353.613 212.862 353.551 212.736 353.513C211.503 353.325 210.247 353.348 209.021 353.581Z" fill="#407BFF"/>
<path d="M208.225 353.626C208.187 353.565 208.178 353.491 208.201 353.423C208.239 353.337 209.113 351.198 210.369 350.656C210.739 350.492 211.161 350.493 211.53 350.66C212.049 350.876 212.16 351.215 212.095 351.423C211.973 352.406 209.545 353.571 208.416 353.707L208.337 353.682C208.297 353.672 208.258 353.653 208.225 353.626ZM210.531 351.044C209.725 351.577 209.105 352.348 208.756 353.249C209.934 352.954 211.654 351.97 211.725 351.395C211.731 351.342 211.753 351.165 211.407 351.057L211.288 351.02C211.042 350.932 210.771 350.94 210.531 351.044Z" fill="#407BFF"/>
<path d="M302.157 90.956L302.408 99.724L294.829 99.871L295.41 90.119C295.41 90.119 302.011 85.859 302.157 90.956Z" fill="#FF887B"/>
<path d="M298.237 92.457L302.157 90.956L304.096 83.662C304.31 82.861 304.175 82.006 303.725 81.31L301.435 77.712C300.631 76.433 298.986 75.975 297.636 76.652L295.93 77.5C294.644 78.128 293.998 79.593 294.403 80.966L295.384 84.447C295.384 84.447 294.104 92.69 298.237 92.457Z" fill="#FF887B"/>
<path d="M260.479 113.539C266.983 118.264 282.83 136.047 296.311 135.857C307.235 136.047 304.253 94.162 304.253 94.162L293.987 93.098C293.987 93.098 291.752 119.656 290.191 118.683C289.445 118.21 268.811 99.711 268.811 99.711C263.627 95.629 255.249 98.479 251.321 103.779L260.479 113.539Z" fill="#263238"/>
<g opacity="0.1">
<path d="M260.479 113.539C266.983 118.264 282.83 136.047 296.311 135.857C307.235 136.047 304.253 94.162 304.253 94.162L293.987 93.098C293.987 93.098 291.752 119.656 290.191 118.683C289.445 118.21 268.811 99.711 268.811 99.711C263.627 95.629 255.249 98.479 251.321 103.779L260.479 113.539Z" fill="black"/>
</g>
<path d="M274.126 176.717L282.351 278.027L288.037 339.749C288.173 341.533 287.033 343.08 285.465 343.238L275.209 344.27C273.722 344.42 272.349 343.273 272.032 341.608C269.417 327.892 262.31 306.442 261.897 280.366C261.897 280.366 247.703 213.234 245.176 192.56L244.982 173.966L274.126 176.717Z" fill="#263238"/>
<path opacity="0.7" d="M274.126 176.717L282.351 278.027L288.037 339.749C288.173 341.533 287.033 343.08 285.465 343.238L275.209 344.27C273.722 344.42 272.349 343.273 272.032 341.608C269.417 327.892 262.31 306.442 261.897 280.366C261.897 280.366 247.703 213.234 245.176 192.56L244.982 173.966L274.126 176.717Z" fill="white"/>
<path opacity="0.2" d="M252.342 198.616C252.342 198.616 255.206 215.557 255.115 243.559C255.115 243.559 250.568 223.431 248.07 212.42L252.342 198.616Z" fill="black"/>
<path d="M258.663 177.687L236.862 281.328L215.875 341.716C215.305 343.315 213.727 344.118 212.296 343.539L201.546 339.586C200.163 339.026 199.385 337.365 199.755 335.752C202.794 322.505 205.425 300.519 215.487 277.819C215.487 277.819 221.498 212.074 229.576 176.913L258.663 177.687Z" fill="#263238"/>
<path opacity="0.7" d="M258.663 177.687L236.862 281.328L215.875 341.716C215.305 343.315 213.727 344.118 212.296 343.539L201.546 339.586C200.163 339.026 199.385 337.365 199.755 335.752C202.794 322.505 205.425 300.519 215.487 277.819C215.487 277.819 221.498 212.074 229.576 176.913L258.663 177.687Z" fill="white"/>
<path d="M245.415 95.27C247.182 89.804 246.81 81.959 246.218 77.05L258.07 88.766C257.371 90.888 256.992 93.173 257.321 95.28C257.485 96.333 258.316 97.158 259.375 97.279L264.416 98.856L265.011 102.759L261.966 103.546L258.087 108.613L248.008 103.546L237.436 98.631C237.436 98.631 239.355 97.923 242.361 97.708C243.48 97.629 245.069 96.34 245.415 95.27Z" fill="#FF887B"/>
<path d="M277.148 178.699H224.124L236.595 98.121C236.595 98.121 236.947 97.994 237.671 97.808L241.505 97.123L241.544 97.143C242.307 97.671 249.935 104.516 257.332 104.797C263.598 105.035 261.029 97.124 261.029 97.124L263.719 97.965C264.071 98.024 264.423 98.073 264.785 98.121L268.032 100.547C268.032 100.547 274.937 115.561 276.6 152.847L277.148 178.699Z" fill="#407BFF"/>
<path d="M257.869 106.905C257.771 107.052 257.38 106.964 256.783 106.709L257.869 106.905Z" fill="#407BFF"/>
<path opacity="0.2" d="M251.04 82.733L257.868 89.424C257.503 90.672 257.263 91.96 257.216 93.227C254.433 92.588 251.019 89.965 250.142 86.812C249.565 84.867 250.297 82.901 251.04 82.733Z" fill="black"/>
<path d="M244.429 68.183C244.938 77.188 244.789 82.479 249.317 87.11C256.118 94.09 267.251 89.988 269.424 81.039C271.393 72.921 270.209 59.598 261.416 55.984C255.153 53.372 247.958 56.331 245.346 62.594C244.609 64.361 244.296 66.275 244.429 68.183Z" fill="#FF887B"/>
<path d="M247.433 73.013C246.917 72.771 246.667 72.712 246.099 72.665C245.531 72.618 244.907 72.811 244.591 73.286C244.227 73.834 244.367 74.56 244.523 75.199C245.222 78.052 245.993 80.887 246.836 83.7C242.321 79.198 239.557 73.018 239.002 66.666C241.671 66.432 244.818 66.276 247.488 66.042" fill="#263238"/>
<path d="M258.728 70.559C258.797 71.293 259.233 71.851 259.712 71.804C260.191 71.757 260.519 71.135 260.451 70.401C260.383 69.667 259.944 69.119 259.465 69.166C258.986 69.213 258.658 69.835 258.728 70.559Z" fill="#263238"/>
<path d="M266.97 69.95C267.04 70.674 267.477 71.232 267.956 71.185C268.435 71.138 268.763 70.515 268.693 69.792C268.623 69.068 268.188 68.5 267.709 68.547C267.229 68.594 266.901 69.216 266.97 69.95Z" fill="#263238"/>
<path d="M255.507 67.167C255.435 67.151 255.367 67.121 255.307 67.078C255.159 66.895 255.178 66.629 255.35 66.469C256.378 65.541 257.787 65.162 259.141 65.449C259.371 65.513 259.505 65.752 259.441 65.982C259.376 66.212 259.138 66.346 258.908 66.281C257.834 66.065 256.722 66.377 255.917 67.121C255.796 67.205 255.642 67.222 255.507 67.167Z" fill="#263238"/>
<path d="M270.09 66.571C269.96 66.639 269.804 66.633 269.679 66.556C268.753 65.987 267.612 65.891 266.604 66.298C266.392 66.405 266.134 66.32 266.027 66.108C265.92 65.896 266.005 65.638 266.217 65.531C267.493 64.982 268.956 65.084 270.143 65.807C270.344 65.919 270.416 66.174 270.304 66.375C270.302 66.379 270.3 66.382 270.297 66.386C270.252 66.47 270.178 66.536 270.09 66.571Z" fill="#263238"/>
<path d="M239.999 76.561C241.204 78.478 243.115 79.844 245.319 80.362C248.255 81.008 249.566 78.357 248.618 75.669C247.77 73.259 245.215 70.003 242.338 70.546C239.461 71.087 238.545 74.178 239.999 76.561Z" fill="#FF887B"/>
<path d="M263.825 70.391C265.093 72.432 266.363 74.288 268.139 75.907C267.052 77.337 264.811 77.197 264.811 77.197L263.825 70.391Z" fill="#BA4D3C"/>
<path d="M261.027 97.124C261.027 97.124 268.535 100.294 271.287 120.565C274.04 140.836 275.041 159.899 274.29 177.667C273.539 195.435 274.178 206.947 279.684 206.196C279.684 206.196 280.184 196.642 279.684 164.86C279.184 133.077 280.797 97.708 261.027 97.124Z" fill="#263238"/>
<path d="M238.504 97.124C238.504 97.124 247.513 102.129 248.514 133.828C249.515 165.527 251.019 206.979 240.341 207.98C229.663 208.981 217.985 202.975 217.985 202.975C217.985 202.975 223.391 169.055 224.49 157.519C225.76 144.181 218.484 107.468 223.155 103.798C227.826 100.127 238.504 97.124 238.504 97.124Z" fill="#263238"/>
<g opacity="0.2">
<path d="M231.085 186.086L239.467 187.292C241.256 187.549 242.916 186.307 243.173 184.518L243.443 182.638L228.581 180.501L228.311 182.381C228.054 184.17 229.296 185.829 231.085 186.086Z" fill="white"/>
</g>
<path d="M248.236 148.323L259.648 144.175L262.379 138.718C262.692 138.093 263.209 137.596 263.846 137.308L267.772 135.531C268.646 135.135 269.656 135.175 270.496 135.639L272.233 136.597C272.826 136.924 273.293 137.44 273.56 138.062L274.36 139.927C274.838 141.043 274.608 142.336 273.773 143.218L268.671 148.609C268.272 149.031 267.76 149.33 267.195 149.47L262.076 150.743L249.098 157.085L248.236 148.323Z" fill="#FF887B"/>
<path d="M257.871 151.137C258.404 152.448 257.916 153.949 256.723 154.712C253.539 156.748 247.108 160.027 239.834 159.082C229.479 157.737 219.506 129.073 218.124 121.02C216.578 112.01 221.192 106.85 221.192 106.85C226.183 99.016 230.302 106.188 234.587 115.574C238.872 124.96 240.486 142.238 242.007 144.546C242.983 146.028 248.511 144.275 252.345 142.83C254.108 142.165 256.041 143.297 256.294 145.164C256.522 146.848 256.977 148.939 257.871 151.137Z" fill="#263238"/>
<g opacity="0.1">
<path d="M257.871 151.137C258.404 152.448 257.916 153.949 256.723 154.712C253.539 156.748 247.108 160.027 239.834 159.082C229.479 157.737 219.506 129.073 218.124 121.02C216.578 112.01 221.192 106.85 221.192 106.85C226.183 99.016 230.302 106.188 234.587 115.574C238.872 124.96 240.486 142.238 242.007 144.546C242.983 146.028 248.511 144.275 252.345 142.83C254.108 142.165 256.041 143.297 256.294 145.164C256.522 146.848 256.977 148.939 257.871 151.137Z" fill="white"/>
</g>
<path d="M262.634 81.124C261.003 80.758 259.594 79.739 258.736 78.305C258.681 78.203 258.718 78.075 258.819 78.019C258.924 77.97 259.05 78.01 259.106 78.112C260.063 79.659 261.686 80.674 263.497 80.855C263.614 80.859 263.706 80.957 263.702 81.074C263.698 81.191 263.6 81.283 263.483 81.28C263.473 81.279 263.464 81.279 263.454 81.277C263.178 81.244 262.904 81.193 262.634 81.124Z" fill="#263238"/>
<path d="M255.61 66.066C259.117 65.56 261.736 62.144 262.186 58.629C265.327 59.399 267.37 62.218 269.003 65.024C269.489 65.86 270.663 66.082 271.353 65.405C271.903 64.865 272.052 63.998 271.903 63.235C271.747 62.433 271.317 61.716 270.895 61.017C270.295 60.023 269.678 59.014 269.006 58.054C267.028 55.23 263.79 53.485 260.343 53.573C260.253 53.575 260.175 53.58 260.111 53.586C257.822 52.289 254.818 51.854 251.855 52.208C248.629 52.594 246.567 54.085 244.12 56.223C240.719 59.195 240.311 65.267 232.979 69.419L238.619 69.501C244.463 69.586 250.258 68.414 255.61 66.066Z" fill="#263238"/>
<path d="M264.942 68.566C264.942 68.566 268.942 67.27 271.204 68.487C273.466 69.704 272.575 73.682 272.179 74.392C271.357 75.865 269.308 76.179 267.529 74.845C265.751 73.511 264.942 68.566 264.942 68.566Z" fill="#263238"/>
<path d="M263.577 68.648C263.577 68.648 258.644 67.889 256.11 69.394C253.576 70.899 255.161 74.728 255.726 75.38C256.899 76.733 259.38 76.775 261.323 75.218C263.265 73.661 263.577 68.648 263.577 68.648Z" fill="#263238"/>
<path d="M262.891 69.366C264.456 68.701 265.26 69.162 265.293 69.182L265.632 68.642C265.588 68.615 264.542 67.97 262.641 68.78L262.891 69.366Z" fill="#263238"/>
<path d="M256.49 69.925L256.451 69.289L254.352 69.415L244.164 68.787L244.125 69.423L254.352 70.051L256.49 69.925Z" fill="#263238"/>
<path d="M272.785 68.4551L271.026 68.5608L271.064 69.1977L272.823 69.0919L272.785 68.4551Z" fill="#263238"/>
<path d="M270.632 68.819C270.632 68.819 271.36 69.356 271.938 70.74C272.42 71.895 271.913 73.422 271.913 73.422L269.23 68.685C269.23 68.685 270.004 68.293 270.632 68.819Z" fill="white"/>
<path d="M260.676 69.118C260.676 69.118 261.702 70.115 262.28 71.499C262.762 72.654 261.957 73.72 261.957 73.72L259.274 68.983C259.274 68.983 260.049 68.592 260.676 69.118Z" fill="white"/>
<path d="M262.851 69.484L262.639 70.621C262.639 70.621 261.97 69.241 261.487 68.944C261.487 68.944 263.056 68.675 262.851 69.484Z" fill="white"/>
</svg>
